<?xml version="1.0" encoding="utf-8"?>
<!-- Generator: Adobe Illustrator 26.5.0, SVG Export Plug-In . SVG Version: 6.00 Build 0)  -->
<svg version="1.1" id="Layer_1" xmlns="http://www.w3.org/2000/svg" xmlns:xlink="http://www.w3.org/1999/xlink" x="0px" y="0px"
	 viewBox="0 0 595.28 841.89" style="enable-background:new 0 0 595.28 841.89;" xml:space="preserve">
<style type="text/css">
	.st0{fill:#FFFFFF;}
</style>
<g>
	<path d="M-622.27,611.85c-67-36.89-133.73-73.64-200.77-110.56c5.04-15.02,10-29.81,14.97-44.6
		c10.84-32.32,21.68-64.65,32.53-96.97c0.42-1.26,0.55-2.95,1.44-3.65c1.77-1.38,4.23-3.35,5.92-2.96c1.75,0.4,3.81,3.16,4.14,5.15
		c0.41,2.44-0.68,5.2-1.38,7.75c-10.44,37.84-20.93,75.67-31.4,113.5c-0.35,1.27-0.59,2.56-0.94,4.11c1.19,0.83,2.34,1.76,3.61,2.49
		c24.08,13.87,48.07,27.92,72.32,41.47c12.57,7.03,26.01,11.86,40.67,12.55c15.84,0.74,29.42-4.37,40.92-15.21
		c26.44-24.94,38.27-75.25,25.41-108.33c-6.2-15.95-16.6-28.92-29.95-39.26c-11.96-9.27-24.66-17.58-37.08-26.26
		c-3.41-2.38-7.02-4.48-10.44-6.85c-3.96-2.74-5.27-6.76-3.13-9.75c2.63-3.68,5.98-2.76,9.33-1.05
		c27.59,14.03,55.18,28.05,82.77,42.07c6.67,3.39,13.3,6.9,20.05,10.11c1.43,0.68,3.65,0.98,4.98,0.35
		c16.16-7.59,31.74-16.2,45.58-27.61c13.89-11.46,15.16-23.72,3.52-37.57c-3.93-4.68-8.49-9.06-13.46-12.58
		c-26.12-18.52-54.45-32.05-86.5-36.58c-19.55-2.77-38.12,1.34-56.02,8.9c-7.81,3.29-15.3,7.31-22.97,10.94
		c-1.64,0.78-3.49,1.91-5.11,1.73c-1.87-0.22-4.43-1.31-5.14-2.77c-0.72-1.49,0.07-4.06,0.91-5.83c0.55-1.17,2.3-1.82,3.57-2.6
		c25.54-15.67,51.1-31.32,76.62-47.02c2.26-1.39,4.03-1.94,6.76-0.56c61.48,31.08,123.02,62.02,184.55,93
		c1.18,0.6,2.33,1.27,3.98,2.17c-1.9,1.29-3.51,2.4-5.15,3.48c-36.9,24.21-73.76,48.46-110.75,72.52c-3.78,2.46-5.82,5.35-7.05,9.59
		c-18.36,63.6-36.85,127.17-55.32,190.74C-620.83,607.77-621.52,609.62-622.27,611.85z"/>
	<path d="M-596.3,611.23c0.54-2.15,0.84-3.57,1.24-4.96c17.18-59.1,34.36-118.21,51.64-177.28c0.61-2.07,1.86-4.47,3.55-5.62
		c23.12-15.74,46.36-31.32,69.62-46.85c2.61-1.75,5.47-3.22,8.39-4.4c8.42-3.4,15.3-0.06,17.95,8.65
		c2.81,9.19,1.98,18.54,0.32,27.73c-9.6,53.01-32.91,98.75-72.06,136.23c-24.25,23.21-49.98,44.56-77.07,64.33
		C-593.61,609.72-594.63,610.23-596.3,611.23z"/>
	<path d="M-67.58,428.4c-0.45,24.61-3.59,45.41-13,64.83c-13.36,27.57-35.71,41.93-66.09,43.42c-17.92,0.88-35.59-0.94-52.27-8.51
		c-4.02-1.83-5.87-3.75-5.38-8.93c4.66-49.41,8.88-98.87,13.35-148.31c0.13-1.48,1.24-3.66,2.44-4.15
		c22.47-9.21,45.42-15.48,70.01-10.12c27.76,6.05,45.55,25.78,49.46,55.1C-68.17,418.33-67.87,424.99-67.58,428.4z M-162.82,506.33
		c7.52,0,14.59,0.92,21.31-0.19c13.77-2.27,21.48-12.08,25.84-24.46c7.98-22.63,10.52-46.07,7.34-69.81
		c-2.85-21.3-14.7-30.38-35.61-28.83c-8.17,0.61-8.26,0.79-8.97,8.96c-1.91,22.21-3.91,44.4-5.84,66.61
		C-160.1,474.16-161.4,489.71-162.82,506.33z"/>
	<path d="M282.88,532.1c1.56-17.38,3.03-33.96,4.53-50.53c2.86-31.52,5.73-63.03,8.61-94.54c0.27-2.99,0.63-5.96,0.87-8.95
		c0.91-11.25-1.1-9.35,10.1-12.83c30.54-9.48,61.72-12.75,93.11-5.13c24.13,5.86,36.62,22.96,35.27,45.91
		c-0.42,7.15-1.1,14.28-1.74,21.42c-2.87,31.85-5.77,63.69-8.68,95.54c-0.26,2.82-0.6,5.62-0.94,8.77c-13.34,0-26.55,0-40.37,0
		c0.95-10.83,1.84-21.4,2.8-31.96c2.77-30.52,5.7-61.03,8.28-91.56c1.26-14.98-6.6-24.32-21.63-26.57
		c-11.07-1.66-21.88-0.36-32.58,2.77c-2.87,0.84-4,2.31-4.25,5.19c-1.68,19.58-3.48,39.15-5.23,58.73
		c-2.39,26.71-4.74,53.42-7.27,80.12c-0.12,1.29-1.83,3.45-2.84,3.47C308.46,532.18,296,532.1,282.88,532.1z"/>
	<path d="M507.79,531.86c-13.77,0-26.88,0-40.5,0c1.05-11.99,2.05-23.7,3.1-35.4c2.86-31.68,5.74-63.35,8.63-95.03
		c0.88-9.62,1.96-19.22,2.6-28.86c0.22-3.24,1.68-4.57,4.45-5.6c24.13-8.99,49.21-11.78,74.66-10.29
		c10.33,0.6,20.94,2.49,30.68,5.91c19.98,7.03,30.06,23.25,28.31,44.35c-3.39,40.66-7.26,81.28-10.95,121.91
		c-0.09,0.96-0.46,1.9-0.74,3.04c-13.22,0-26.33,0-40.1,0c0.84-9.59,1.62-18.97,2.48-28.34c2.83-31.01,5.87-62.01,8.45-93.04
		c1.54-18.52-6.62-28.39-25.11-29.14c-9.63-0.39-19.38,2.03-29.07,3.21c-2.73,0.33-3.69,1.88-3.94,4.7
		c-2.15,24.89-4.48,49.76-6.75,74.63C511.92,486.44,509.88,508.96,507.79,531.86z"/>
	<path d="M1410.55,531.81c-13.59,0-26.82,0-40.46,0c1.15-12.72,2.26-25.11,3.38-37.5c2.53-28.03,5.33-56.04,7.51-84.09
		c1.43-18.44-6.5-27.99-24.84-28.83c-9.63-0.44-19.38,1.98-29.08,3.13c-3.31,0.39-3.94,2.48-4.22,5.55
		c-4.13,46.45-8.41,92.88-12.66,139.31c-0.06,0.66-0.18,1.32-0.32,2.36c-13.21,0-26.43,0-40.29,0c0.55-6.93,1.04-13.83,1.67-20.72
		c4.21-46.1,8.47-92.2,12.62-138.31c0.23-2.53,0.58-4.29,3.37-5.28c32.42-11.46,65.53-15.01,99.22-7.33
		c17.1,3.89,30.62,13.63,34.03,31.89c1.82,9.76,0.84,20.21,0.02,30.26c-2.56,31.7-5.64,63.36-8.53,95.04
		C1411.53,522.05,1411.04,526.82,1410.55,531.81z"/>
	<path d="M1090.2,458.7c0.95-22.19,4.89-43.43,15.7-63.02c21.76-39.41,63.49-45.3,93.68-35.33c21.21,7.01,33.18,23.07,37.97,44.12
		c7.2,31.64,3.68,62.43-11.77,91.11c-21.27,39.47-62.19,45.55-92.48,36.03c-23.56-7.4-35.35-25.51-40.14-48.68
		C1091.51,474.99,1091.14,466.78,1090.2,458.7z M1201.29,423.84c-0.66-4.5-1.35-13.16-3.29-21.53
		c-2.39-10.35-8.23-18.21-19.41-20.52c-12.1-2.5-22.86,0.38-30.42,10.27c-4.35,5.69-7.82,12.47-10.04,19.3
		c-6.57,20.18-8.27,41.12-6.81,62.19c0.46,6.68,2.31,13.49,4.74,19.76c4.04,10.38,12.48,15.27,23.5,15.43
		c10.87,0.15,20.07-3.82,26.11-13c3.43-5.21,6.26-11.03,8.21-16.96C1199.33,462.33,1200.32,445.17,1201.29,423.84z"/>
	<path d="M103.27,458.79c0.87-20.8,4.38-40.81,13.75-59.51c20.22-40.36,59.96-48.93,92.66-39.87c22.76,6.3,35.75,22.71,40.86,44.97
		c7.26,31.62,3.7,62.41-11.69,91.12c-20.28,37.82-59.18,45.51-90.51,36.71c-24.87-6.99-37.27-25.5-42.22-49.67
		C104.52,474.75,104.18,466.71,103.27,458.79z M143.82,461.41c-0.42,0.09-0.83,0.18-1.25,0.27c1.84,9.91,3.03,20.01,5.73,29.68
		c2.35,8.42,8.4,14.29,17.27,16.46c13.27,3.24,26.1-1.39,33.68-12.78c3.18-4.79,5.84-10.17,7.53-15.65
		c6.23-20.26,7.89-41.15,6.9-62.24c-0.23-4.94-1.26-9.92-2.53-14.72c-2.77-10.47-8.42-18.48-19.86-20.72
		c-12.14-2.37-22.84,0.66-30.29,10.62c-4.29,5.74-7.6,12.55-9.94,19.36C145.57,427.75,144.38,444.57,143.82,461.41z"/>
	<path d="M690.26,460.04c-1.4,31.12,15.07,47.65,40.7,47.81c8.28,0.05,16.67-0.53,24.82-1.94c8.11-1.41,15.98-4.23,24.55-6.59
		c2.11,6.95,4.49,14.33,6.44,21.83c0.25,0.95-1.49,3.07-2.76,3.65c-13.16,6.07-27.17,9.27-41.52,9.84
		c-11.75,0.46-23.81,0.7-35.3-1.38c-30.23-5.46-48.85-24.96-53.79-55.96c-4.21-26.42-0.94-52.24,10.88-76.44
		c21.59-44.23,66.98-50.89,99.36-40.46c20.93,6.74,31.79,22.63,36.14,43.43c2.78,13.32,2.7,26.77,0.72,40.88
		c-18.3,2.55-36.69,5.11-55.09,7.67C727.13,454.91,708.83,457.45,690.26,460.04z M763.9,429.31c1.27-10.53,1.13-20.61-2.15-30.42
		c-2.67-8.01-7.75-14.2-16.01-16.61c-14.02-4.09-27.27-2.31-38.11,8.14c-13.85,13.37-16.76,31.01-18.53,49.75
		C714.44,436.49,739.07,432.91,763.9,429.31z"/>
	<path d="M-265.31,435.17c0.65,0.45,0.91,0.68,1.2,0.82c28.59,13.56,31.2,40.12,20.68,63.21c-8.18,17.94-22.75,29.05-41.35,34.32
		c-23.05,6.53-46.13,5.03-68.79-2.56c-2.82-0.94-5.44-2.47-8.12-3.79c-0.87-0.43-1.62-1.08-2.7-1.83
		c4.61-8.98,9.15-17.81,13.85-26.93c12.65,7.02,25.99,9.1,39.86,8.45c15.9-0.75,27.01-9.29,30.07-22.99
		c2.92-13.05-2.44-23.48-15.06-27.64c-5.77-1.9-12.01-2.5-18.09-3.27c-3.57-0.45-7.25-0.08-11.15-0.08c0-1.93-0.11-3.4,0.02-4.83
		c0.58-6.27,1.24-12.53,1.83-18.43c7.6-1.62,14.9-2.59,21.79-4.83c5.28-1.71,10.73-4.23,14.82-7.84c3.76-3.32,6.93-8.23,8.4-13.04
		c3.02-9.84-2.47-18-12.63-19.95c-13.89-2.67-27.11,0.4-40,5.48c-1.69,0.67-3.33,1.44-5.6,2.42c-2.94-8.75-5.81-17.31-8.77-26.13
		c11.17-5.89,22.87-8.84,34.97-10.3c14.32-1.72,28.6-1.9,42.56,2.53c20.5,6.5,31.08,21.01,29.51,40.78
		c-0.98,12.42-7.54,21.83-17.07,29.34C-258.2,430.54-261.6,432.62-265.31,435.17z"/>
	<path d="M65.08,499.72c2.25,7.46,4.54,14.56,6.39,21.76c0.29,1.14-1.11,3.63-2.27,4.07c-8.17,3.11-16.31,7.3-24.8,8.35
		c-10.4,1.28-21.5,1.47-31.67-0.76c-23.91-5.24-37.63-22.15-43.25-45.01c-7.88-32.06-4.54-63.4,11.57-92.46
		c19.53-35.22,54.89-46.14,89.57-35.75c5.3,1.59,10.15,4.65,15.74,7.29c-3.9,8.13-7.37,15.36-10.29,21.45
		c-7.32-2.02-13.85-4.87-20.58-5.49c-18-1.67-31.44,6.98-39.38,24.62c-7.46,16.58-9.66,34.23-9.16,52.19
		c0.2,7.09,1.02,14.34,2.82,21.19c7.87,29.92,33.58,29.57,50.63,21.15C61.84,501.61,63.22,500.76,65.08,499.72z"/>
	<path d="M1046.27,531.81c-13.8,0-26.87,0-40.49,0c0.87-10.08,1.68-19.82,2.55-29.55c3.23-35.81,6.48-71.62,9.74-107.42
		c0.96-10.61,1.88-21.22,3.03-31.82c0.13-1.23,1.55-3.31,2.41-3.32c12.61-0.22,25.23-0.15,38.39-0.15
		C1056.67,417.24,1051.48,474.35,1046.27,531.81z"/>
	<path d="M984.06,359.51c-4.53,6.32-8.19,11.44-11.86,16.54c-14.39,19.99-28.71,40.03-43.26,59.91c-2.26,3.08-2.59,5.3-0.75,8.78
		c14.28,27.06,28.33,54.24,42.44,81.39c0.89,1.71,1.71,3.46,2.95,5.99c-10.95,0-21.04,0-31.14,0c-13.32,0-13.31-0.01-18.55-12.45
		c-7.23-17.16-14.64-34.24-21.59-51.51c-1.54-3.83-2.04-8.3-2.07-12.48c-0.04-5.3,1.5-10.62,1.29-15.9
		c-0.42-10.98,4.33-19.67,10.27-28.36c10.79-15.8,21.05-31.96,31.36-48.07c1.82-2.85,3.82-3.99,7.23-3.92
		C961.17,359.64,971.95,359.51,984.06,359.51z"/>
	<path d="M826.22,359.53c12.61,0,24.25-0.08,35.88,0.13c1.2,0.02,2.88,1.54,3.47,2.77c9.38,19.66,18.64,39.38,27.82,59.14
		c0.72,1.56,0.91,3.54,0.78,5.28c-0.72,9.8-1.7,19.57-2.41,29.37c-0.37,5.1-2.01,9.54-4.7,13.92
		c-11.76,19.14-23.38,38.37-34.77,57.73c-1.99,3.39-4.15,4.42-7.9,4.34c-11.15-0.24-22.32-0.09-33.48-0.09c-1.6,0-3.2,0-5.59,0
		c1.32-2.1,2.11-3.5,3.03-4.81c19.21-27.4,38.36-54.84,57.72-82.12c2.53-3.56,2.97-6.11,0.74-10.14
		c-12.86-23.3-25.36-46.8-37.97-70.24C828.08,363.36,827.4,361.89,826.22,359.53z"/>
	<path class="st0" d="M143.82,461.41c0.56-16.84,1.75-33.67,7.25-49.71c2.33-6.81,5.64-13.62,9.94-19.36
		c7.45-9.96,18.14-12.99,30.29-10.62c11.44,2.23,17.09,10.24,19.86,20.72c1.27,4.8,2.3,9.78,2.53,14.72
		c0.99,21.09-0.67,41.97-6.9,62.24c-1.69,5.48-4.35,10.87-7.53,15.65c-7.58,11.39-20.41,16.02-33.68,12.78
		c-8.87-2.17-14.92-8.04-17.27-16.46c-2.7-9.67-3.88-19.77-5.73-29.68C142.99,461.59,143.4,461.5,143.82,461.41z"/>
</g>
</svg>
