<?xml version="1.0" encoding="utf-8"?>
<!-- Generator: Adobe Illustrator 26.5.0, SVG Export Plug-In . SVG Version: 6.00 Build 0)  -->
<svg version="1.1" id="Layer_1" xmlns="http://www.w3.org/2000/svg" xmlns:xlink="http://www.w3.org/1999/xlink" x="0px" y="0px"
	 viewBox="0 0 992.13 168.31" style="enable-background:new 0 0 992.13 168.31;" xml:space="preserve">
<path d="M0,4.89c0.29-0.01,0.58-0.02,0.87-0.03C0.92,22.11,1.01,39.35,1,56.6C1,71.84,0.88,87.08,0.82,102.32
	c-0.27-0.03-0.54-0.05-0.82-0.06C0,69.8,0,37.35,0,4.89z"/>
<path d="M199.89,34.07c5.13,0,10.34-0.07,15.55,0.04c1.69,0.04,1.68,0.25,2.63,4.45c6.39-5.52,13.83-6.61,21.76-5.56
	c16.26,2.15,25.9,11.14,28.92,27.33c1.59,8.54,1.76,17.14,0.34,25.79c-4.46,26.94-28.92,33.07-46,28.55
	c-1.62-0.43-3.2-0.98-5.44-1.67c0,11.05,0,21.73,0,32.62c-6.23,0-11.88,0-17.53,0C199.36,142.2,199.11,41.09,199.89,34.07z
	 M217.47,74.64c0,6.02,0.03,12.04-0.02,18.05c-0.02,1.93,0.22,3.48,2.08,4.73c9.62,6.49,26.09,1.21,29.81-9.8
	c2.47-7.31,2.49-14.83,1.15-22.39c-2.22-12.52-13.59-19.5-25.85-15.84c-5.53,1.65-7.17,3.82-7.17,9.51
	C217.47,64.15,217.47,69.39,217.47,74.64z"/>
<path d="M108.12,80.19c-17.87,0-35.46,0-53,0c-1.32,5.73,1.7,12.38,7.27,16.3c8.24,5.79,20.43,4.81,31.87-2.75
	c2.26,4.7,4.5,9.35,6.78,14.09c-7.31,6.27-15.97,7.68-24.78,8.13c-24.81,1.29-40.66-13.99-40.93-38.86
	c-0.14-13.75,3.29-25.96,13.91-35.35c11.8-10.43,30.01-12.09,43.61-4.11c12.6,7.4,19.25,23.45,16.12,38.95
	C108.77,77.63,108.49,78.66,108.12,80.19z M91.53,65.73C89.6,53.69,83.7,48.32,73.15,48.51c-9.72,0.17-16.4,6.57-17.82,17.22
	C67.32,65.73,79.28,65.73,91.53,65.73z"/>
<path d="M163.82,61.93c-0.12-7.03-3.21-11.01-9.83-12.56c-8.11-1.9-15.89-0.43-23.67,2.67c-1.1-3.99-2.13-7.84-3.23-11.65
	c-0.6-2.07-0.3-3.33,2.05-4.19c12.19-4.49,24.42-4.93,36.65-0.5c7.71,2.79,12,8.78,14.1,16.54c1.96,7.22,2.11,14.62,2.33,22.01
	c0.22,7.71-0.37,15.43,0.38,23.13c0.46,4.72,1.83,9.05,5.34,12.43c-4.99,9.36-13.96,8.56-22.22-2.03
	c-8.43,8.14-18.63,9.76-29.53,7.19c-8.73-2.06-14.84-7.41-16.71-16.6c-2.19-10.79-0.69-20.79,8.13-28.25
	C138.07,61.27,150.61,60.67,163.82,61.93z M164.26,82.99c-0.97-1.84,1.93-5.68-1.78-6.38c-7.19-1.37-14.48-1.1-20.87,3.22
	c-4.32,2.92-6,9.13-4.33,14.53c1.27,4.11,4.83,6.28,10.62,6.47C158.82,101.17,164.16,95.47,164.26,82.99z"/>
<path d="M0.82,102.32C0.88,87.08,1,71.84,1,56.6C1.01,39.35,0.92,22.11,0.87,4.86C6.35,2.35,12.36,1.85,17.98,0
	c0.96,1.91,0.54,3.63,0.55,5.27c0.03,27.47,0.02,54.95,0.03,82.42c0,1.7-0.01,3.4,0.12,5.09c0.49,6.16,1.78,11.94,8.01,14.95
	c-3.32,6.33-9.62,9.39-16.25,8.09C4.59,114.67,1.8,110.75,0.82,102.32z"/>
<path d="M316.55,87.83c1.1-8.69-9.49-12.32-19.63-5.74c-0.27-0.13-0.67-0.18-0.79-0.4c-3.45-6.22-3.1-6.99,3.66-9.07
	c4.24-1.31,8.55-1.35,12.82-0.68c6.95,1.08,10.72,5.11,11.97,12.23c1.07,6.13,0.37,12.32,0.54,18.47c0.1,3.53-0.29,7.11,2.73,9.9
	c1.1,1.02,0.82,2.54,0.18,4.19c-4.4,0.46-8.01-0.81-10.41-4.99c-3.54,3.6-7.78,5.13-12.6,5.24c-6.09,0.14-10.78-2.67-12.97-7.79
	c-2.21-5.15-0.96-11.3,3.24-15.33c4.87-4.66,10.85-6.19,17.42-5.95C313.9,87.96,315.08,88.7,316.55,87.83z M317.09,100.05
	c-0.77-1.67,1.66-4.71-2.15-5.8c-4.61-1.32-11.37,0.78-14.16,4.62c-3.12,4.29-1.69,10.02,2.85,11.41
	C310.42,112.35,317.09,107.46,317.09,100.05z"/>
<path d="M504.47,87.8c1.26-8.13-8.24-12.45-19.77-5.81c-1.81-1.52-2.29-3.82-3.33-5.74c5.52-5.94,19.36-5.57,24.49-2.54
	c4.57,2.7,6.52,6.95,6.82,11.94c0.35,5.85,0.32,11.73,0.37,17.59c0.03,3.28-0.02,6.5,2.55,9.07c1.13,1.12,1.07,2.71,0.44,3.9
	c-0.7,1.32-2.22,0.62-3.4,0.48c-2.96-0.33-5.11-2-6.93-4.56c-3.84,2.74-7.89,4.8-12.71,4.86c-6.15,0.08-10.9-2.67-13.05-7.74
	c-2.29-5.41-0.97-11.52,3.51-15.67c4.82-4.47,10.68-5.91,17.08-5.67C501.86,87.96,503.2,88.9,504.47,87.8z M504.97,99.91
	c-0.7-1.62,1.56-4.88-2.58-5.8c-4.91-1.1-11.13,1.08-13.93,5.15c-3.06,4.46-1.4,9.79,3.45,11.1
	C498.7,112.18,504.95,107.44,504.97,99.91z"/>
<path d="M596.02,88.41c0.52-9.88-7.42-12.35-19.56-6.46c-1.56-1.71-2.44-3.79-3.32-6.17c7.45-4.87,15.3-5.56,23.41-2.51
	c5.38,2.02,7.54,6.72,7.93,12.08c0.41,5.69,0.31,11.41,0.38,17.12c0.04,3.56-0.18,7.11,2.64,9.97c1.06,1.08,0.76,2.56,0.25,4.21
	c-4.26,0.58-7.72-0.71-10.22-4.64c-3.69,3.04-7.72,4.79-12.35,4.98c-6.31,0.26-11.33-2.66-13.44-7.82c-2.25-5.53-0.69-11.94,4-15.96
	C581.56,88.23,588.38,87.17,596.02,88.41z M596.76,99.9c-0.92-1.34,1.44-4.11-1.66-5.52c-5.74-2.59-14.98,2.07-16.21,8.25
	c-0.71,3.58,1.29,6.77,4.83,7.72C590.49,112.17,596.75,107.44,596.76,99.9z"/>
<path d="M371.89,116.34c-3.3-1.09-7.82,2.35-8.53-3.99c-4.13,2.35-7.98,4.87-12.91,4.67c-7.78-0.32-13.47-5.09-13.73-12.81
	c-0.36-10.47-0.09-20.95-0.09-31.41c0.66-0.21,1.09-0.44,1.53-0.47c6.45-0.49,6.45-0.48,6.46,5.85c0,7.41-0.09,14.82,0.03,22.23
	c0.11,6.73,2.81,9.62,8.58,9.57c6.45-0.06,10.54-3.97,10.57-10.17c0.03-7.41,0-14.82,0.01-22.23c0-5.48,0.01-5.48,5.67-5.3
	c0.74,0.02,1.48,0.16,2.44,0.27C371.89,87.03,371.89,101.32,371.89,116.34z"/>
<path d="M413.66,78.2c0-1.97,0-3.64,0-5.63c4.08,0.29,5.39-1.71,4.87-5.53c-0.82-6.01,4.68-4.7,8.31-7.17c0,3.52,0.1,6.23-0.03,8.94
	c-0.12,2.63,1.04,3.59,3.57,3.48c2.6-0.12,5.2-0.03,7.73-0.03c0.7,2.2,0.55,4.01,0.22,5.92c-2.19,1.12-4.56,0.64-6.78,0.51
	c-3.48-0.21-5.03,0.71-4.8,4.59c0.33,5.69,0.04,11.41,0.1,17.12c0.08,8.31,3.32,10.87,11.37,9.1c0.72-0.16,1.38-0.73,2.29-0.24
	c0.96,1.9,0.93,4.04,0.98,6.64c-2.24,0.35-4.47,0.86-6.72,1.02c-10.76,0.75-16.18-4.32-16.27-15.12c-0.05-6.02,0-12.03-0.01-18.05
	C418.48,79.2,418.47,79.2,413.66,78.2z"/>
<path d="M382.3,105.99c3.9,2.12,7.29,4.36,11.58,3.98c2.5-0.22,4.48-1.09,5.39-3.61c0.9-2.51-0.04-4.52-1.8-6.26
	c-1.56-1.54-3.51-2.47-5.48-3.38c-2.8-1.29-5.65-2.53-7.97-4.62c-3.59-3.24-5.23-7.18-3.99-12.03c1.28-4.98,5.01-7.36,9.64-8.18
	c5.59-1,10.99,0.01,16.24,2.89c-0.69,2.28-1.33,4.44-2.07,6.88c-3.25-1.42-6.1-3.44-9.62-3.18c-2.56,0.19-5.09,0.66-5.8,3.59
	c-0.67,2.77,0.78,4.84,3.11,6.12c2.97,1.62,6.13,2.9,9.1,4.52c5.95,3.24,8.29,7.93,7.26,14.11c-0.85,5.1-4.67,8.59-10.94,9.8
	c-4.48,0.86-8.83,0.27-13.21-1.07c-3.61-1.1-4.9-2.71-2.84-6.2C381.44,108.44,381.72,107.38,382.3,105.99z"/>
<path d="M541.09,116.77c-10.98,0.22-15.5-4.15-15.5-13.78c-0.01-14.66,0.07-29.33-0.06-43.99c-0.03-3.07,0.6-4.28,4-4.32
	c3.66-0.05,3.85,1.64,3.83,4.48c-0.1,13.74-0.01,27.47-0.06,41.21c-0.02,4.34,0.87,7.74,5.67,9.37
	C542.63,110.99,539.44,114.25,541.09,116.77z"/>
<path d="M457.28,116.03c-2.8,0-4.92,0-7.03,0c-1.24-1.77-0.66-3.67-0.67-5.44c-0.06-10.63-0.03-21.26-0.03-31.89
	c0-6.53,0-6.53,6.96-6.05c1.48,1.06,0.22,2.92,1.56,4.8c4.44-5.92,10.44-6.85,17.39-5.2c-0.14,2.75-1.52,4.93-2.6,7.21
	c-9.91-2.17-15.27,2.11-15.54,12.63C457.12,99.9,457.28,107.74,457.28,116.03z"/>
<path d="M560.78,116.06c-2.8,0.04-5.09,0.46-7.84-0.41c0-8.85,0-17.77,0-26.7c0-1.54-0.19-3.12,0.04-4.63
	c0.61-4.16-0.92-6.09-5.29-5.24c-1.16-2.19-0.41-4.3-0.61-6.58c4.75,0,9.17,0,13.71,0C560.78,87.05,560.78,101.36,560.78,116.06z"/>
<path d="M602.74,136.48c1.3-3.5-2.08-9.46,5.47-8.98c0,10.6,0,21.17,0,32.14c-3.92-0.41-7.7,0.2-11.42,0
	c-6.52-0.35-10.13-8.29-7.54-15.97C591.13,138.1,594.61,136.21,602.74,136.48z M603.27,148.28c-0.94-2.53,2.04-7.03-3.64-7.18
	c-3.38-0.09-5.61,2.79-5.68,7.01c-0.07,4.22,2.11,6.96,5.62,6.97C604.96,155.1,602.54,150.9,603.27,148.28z"/>
<path d="M487.49,137.01c3.71-0.21,7.15-0.64,10.59-0.56c7.18,0.17,11.11,7.54,8.69,15.99c-1.33,4.63-4.56,7.15-9.43,7.3
	c-1.51,0.05-3.03,0.01-4.79,0.01c0,2.83,0,5.42,0,8.01c-1.83,0.74-3.42,0.71-5.05,0.08C487.49,157.53,487.49,147.29,487.49,137.01z
	 M492.4,148.01c1.18,2.32-2.35,7.02,3.61,7.07c3.95,0.03,5.81-2.35,5.75-7.21c-0.06-4.63-1.89-6.84-5.66-6.8
	C490.72,141.13,493.11,145.29,492.4,148.01z"/>
<path d="M524.93,137.13c4.11-1.48,5.93,0.17,6.97,3.78c0.91,3.19,2.33,6.23,3.79,10.04c2.19-3.67,3.11-7.05,3.95-10.34
	c0.95-3.72,2.86-4.73,6.72-3.37c-3.2,8.85-6.25,17.68-9.62,26.4c-1.17,3.04-4.41,4.27-8.99,4.29c-0.59-1.32-0.38-2.68-0.19-4.03
	c6.15-1.92,6.5-2.47,4.37-8.34C529.7,149.38,527.28,143.27,524.93,137.13z"/>
<path d="M517.4,136.68c2.02,0,3.66,0,5.18,0c0.73,1.62,0.75,2.94,0.08,4.54c-1.57,0-3.21,0-5.26,0c0,3.14-0.04,6.04,0.01,8.93
	c0.08,4.85,0.85,5.41,6.25,4.33c-0.21,1.89,1.66,4.26-1.56,5.17c-4.71,1.33-8.89-0.6-9.52-4.65c-0.49-3.16-0.15-6.44-0.36-9.66
	c-0.1-1.59,1.08-3.89-1.92-4.37c-0.27-0.04-0.48-1.36-0.47-2.09c0.03-2.59,4.42-7.56,7.41-8.37c0.06,1.09,0.13,2.15,0.16,3.21
	C517.42,134.6,517.4,135.49,517.4,136.68z"/>
<path d="M579.32,130.6c0,2.05,0,3.73,0,5.36c1.72,1.46,3.72,0.26,5.47,0.98c0.68,1.23,0.62,2.55,0.12,4.12
	c-1.62,0.09-3.27,0.18-5.16,0.28c-0.75,3.58-0.56,7.25-0.15,10.85c0.47,4.16,3.43,2.9,6.22,2.24c-0.27,1.89,1.62,4.31-1.67,5.22
	c-4.46,1.24-8.31-0.44-9.51-4.17c-1.11-3.45-0.3-7.03-0.58-10.54c-0.12-1.46,0.95-3.51-1.79-3.95c-0.79-0.13-0.68-1.26-0.67-2.02
	C571.64,136.37,576.01,131.42,579.32,130.6z"/>
<path d="M567.47,126.55c0,8.74-0.01,16.57,0.01,24.39c0,1.68-0.27,3.45,0.83,4.91c1.02,1.36,1.85,2.67-0.4,3.51
	c-1.79,0.67-3.67,0.91-4.89-1.08c-0.38-0.63-0.61-1.46-0.62-2.2c-0.06-8.61-0.11-17.23-0.05-25.84
	C562.38,126.86,565.41,128.2,567.47,126.55z"/>
<g>
	<path d="M992.13,54.04c-5.28-2.02-10.76-0.24-16.4-1.33c-0.66,5.58-1.27,10.67-1.97,16.52c-2.21-2.62-3.92-4.66-5.63-6.69
		c-1.18-2.17-2.62-4.13-4.47-5.88c-2.62,0.74-4.54,2.61-6.81,3.86c-2.23,1.22-4.14,3.05-7.15,3.94c0.61-2.5,1.1-4.55,1.61-6.6
		c2.26-9.22,2.26-9.22-6.98-12.04c-1.94-0.76-3.88-1.53-6.36-2.5c5.23-2.4,9.95-4.57,15.03-6.91c-1.78-5.1-3.47-9.96-5.48-15.72
		c5.34,2.7,9.97,5.05,14.86,7.52c2.89-4.54,5.67-8.93,8.91-14.03c1.22,5.81,2.3,10.92,3.42,16.26c5.31-0.56,10.43-1.1,16.52-1.75
		c-3.88,4.67-7.16,8.63-10.63,12.8c4.1,3.51,7.01,7.94,11.53,10.69C992.13,52.8,992.13,53.42,992.13,54.04z"/>
	<path d="M944.32,45.82c9.24,2.83,9.24,2.83,6.98,12.04c-0.5,2.05-1,4.1-1.61,6.6c3.01-0.9,4.92-2.72,7.15-3.94
		c2.27-1.25,4.19-3.12,6.81-3.86c1.85,1.75,3.29,3.71,4.47,5.88c-11.22,18.97-23.21,37.4-37.71,54.07
		c-7.64,8.78-15.78,17.06-25.32,23.83c-1.56-1.3-0.99-3.1-1.03-4.72c-0.31-10.52,0.72-21.07-0.89-31.55
		C918.79,86.07,932.13,66.35,944.32,45.82z"/>
	<path d="M695.42,92.59c-2.96,4.66-7.45,7.93-10.9,12.17c-8.47,10.39-15.53,21.66-21.87,33.42c-0.5,0.93-1.09,1.82-1.98,3.3
		c-4.16-3.73-8.11-7.25-12.05-10.79c-0.8-0.72-1.56-1.5-2.34-2.24c-7.22-6.92-7.17-6.89-2.31-15.5
		c9.03-15.97,19.59-30.71,34.14-42.16c5.29-4.17,10.62-8.41,17.35-10.22C695.45,71.23,695.43,81.91,695.42,92.59z"/>
	<path d="M903.16,104.16c1.61,10.48,0.59,21.04,0.89,31.55c0.05,1.62-0.53,3.42,1.03,4.72c-18.51,14.37-34.06,17.63-54.31,7.86
		c-12.6-6.08-23.75-14.23-34.38-23.19c-6.73-5.67-12.94-11.9-19.1-18.18c-1.06-1.08-2.45-1.95-2.69-3.64c0.03-1.3,0.07-2.6,0.1-3.9
		c7.7,7.08,14.76,14.8,22.56,21.83c18.23,16.43,37.44,16.22,58.39,5.22c8.8-4.62,16.22-11.12,23.09-18.27
		C900.13,106.74,901.3,105.06,903.16,104.16z"/>
	<path d="M695.42,92.59c0.02-10.68,0.03-21.35,0.05-32.03c19.22-8.56,38.21-8.32,56.75,1.88c7.72,4.25,14.81,9.5,21.23,15.58
		c-0.18,1.61,0.46,3.67-2.12,4.02c-18.1-11.29-36.81-11.74-55.93-2.93C708.04,82.51,701.52,87.26,695.42,92.59z"/>
	<path d="M771.33,82.04c2.58-0.35,1.93-2.4,2.12-4.02c3.5,1.28,5.39,4.49,7.81,6.94c4.61,4.67,9.54,9.08,13.45,14.43
		c-0.03,1.3-0.07,2.6-0.1,3.9C786.85,96.21,779.09,89.12,771.33,82.04z"/>
</g>
<path d="M555.02,59.66c-3.25-0.02-5.91-2.63-5.94-5.83c-0.03-3.02,2.86-6,5.88-6.07c3.4-0.07,6.13,2.74,6.02,6.21
	C560.87,57.35,558.44,59.67,555.02,59.66z"/>
</svg>
