<?xml version="1.0" encoding="utf-8"?>
<!-- Generator: Adobe Illustrator 26.5.0, SVG Export Plug-In . SVG Version: 6.00 Build 0)  -->
<svg version="1.1" id="Layer_1" xmlns="http://www.w3.org/2000/svg" xmlns:xlink="http://www.w3.org/1999/xlink" fill="#FFFFFF" x="0px" y="0px"
	 viewBox="0 0 595.3 841.9" style="enable-background:new 0 0 595.3 841.9;" xml:space="preserve">
<g>
	<path d="M220.8,374.1c0.5,0.5,1,0.2,1.6,0.2c4.6,0.2,9.1,0.9,13.2,3.2c3.5,1.9,5.9,4.7,6.4,8.9c0.1,1,0.2,1.9,0.2,2.8
		c0,12.9,0,25.8,0,38.6c0,3.7-1.3,6.8-4.1,9.2c-2.3,2-5,3-7.9,3.7c-3.5,0.9-7.1,1.2-10.7,1.2c-14.6,0-29.3,0.1-43.9,0
		c-4.8,0-9.6-0.8-13.9-3.1c-3.8-2-6.3-5-6.7-9.5c-0.1-1.4-0.2-2.9-0.2-4.3c0-12.1,0-24.2,0-36.2c0-1.8,0.3-3.6,1-5.3
		c1.6-3.8,4.6-6,8.4-7.3c3.7-1.3,7.4-1.9,11.3-1.9c0.3,0,0.7,0.2,0.8-0.2C191.2,374.1,206,374.1,220.8,374.1z"/>
	<path d="M430.6,374.1c0,3,0,6.1,0,9.1c0,1-0.3,1.2-1.3,1.2c-18.9,0-37.8-0.1-56.7,0c-2.6,0-5.3,0.3-7.7,1.8
		c-1.1,0.7-1.5,1.6-1.5,2.7c-0.1,2.4,0,4.7,0,7.1c0,1.9,1.4,3.3,3.8,3.9c2,0.5,4,0.8,6.1,0.8c12.3,0,24.6,0,36.8,0
		c4.8,0,9.6,0.3,14.2,1.7c5.1,1.6,9.1,4.4,10.3,10.1c0.2,1.1,0.3,2.2,0.3,3.3c0,3.8,0.1,7.6,0,11.4c-0.1,3.2-0.8,6.3-3,8.8
		c-1.7,1.9-3.9,3.1-6.2,3.9c-3,1.1-6.1,1.8-9.3,1.8c-20.9,0.6-41.8,0.1-62.7,0.3c-0.9,0-1-0.3-1-1.1c0-2.6,0.1-5.3,0-7.9
		c0-0.9,0.2-1.1,1.1-1.1c9.8,0,19.5,0,29.3,0c8.2,0,16.5,0,24.7,0c3.2,0,6.4-0.1,9.6-0.7c1.2-0.2,2.3-0.6,3.2-1.3
		c0.8-0.6,1.3-1.4,1.3-2.5c-0.1-3.6-0.1-7.3,0-10.9c0.1-2.8-1.1-3.5-3.1-4.4c-1.8-0.8-3.7-1-5.7-1c-13.5,0-27,0.1-40.6-0.1
		c-5.1-0.1-10.3-0.7-15-3.1c-3.4-1.7-5.6-4.3-6.6-8c-0.2-0.8-0.3-1.7-0.3-2.6c0-3.1-0.1-6.2,0-9.2c0.1-4.8,2.4-8.3,6.5-10.6
		c3.3-1.9,7-2.5,10.7-3c1.4-0.2,2.8,0.2,4.2-0.4C391.4,374.1,411,374.1,430.6,374.1z"/>
	<path d="M313,374.1c0.6,0.5,1.4,0.2,2,0.2c4.3,0.3,8.4,0.9,12.3,2.9c4.6,2.3,7.2,6,7,11.3c-0.1,3.3,0,6.6,0,9.8
		c0,3.1-1.2,5.8-3.3,7.9c-2,2-4.6,3.3-7.3,4c-1.6,0.5-3.2,0.9-4.9,1c-0.7,0-0.8,0.3-0.5,0.9c2.1,4,4.3,8,6.4,12.1
		c1.4,2.6,2.7,5.2,4,7.9c1.7,3.2,3.4,6.5,5.2,9.9c-1.7,0-3.2,0-4.6,0c-2.9,0-5.8,0-8.6,0c-0.6,0-0.9-0.2-1.2-0.7
		c-2.2-4.2-4.3-8.5-6.5-12.7c-2.5-4.8-5-9.5-7.5-14.3c-0.1-0.2-0.2-0.3-0.3-0.5c-0.6-2.1-2.1-2.1-3.9-2.1c-10.1,0.1-20.2,0.1-30.4,0
		c-1,0-1.3,0.2-1.3,1.3c0.1,9.2,0,18.5,0.1,27.7c0,1.1-0.3,1.3-1.3,1.3c-3.5-0.1-7-0.1-10.4,0c-1,0-1.2-0.2-1.2-1.2
		c0-22.2,0-44.5,0-66.7C275.4,374.1,294.2,374.1,313,374.1z"/>
	<path d="M141.4,374.1c0,3,0,6.1,0,9.1c0,1-0.3,1.2-1.3,1.2c-17.5,0-35,0-52.4,0c-2.2,0-4.5,0.3-6.5,1.4c-1.7,0.9-2.7,2.2-2.7,4.3
		c0.1,11.9,0.1,23.8,0,35.8c0,2.7,1.4,4,3.5,4.8c1.9,0.7,3.8,0.9,5.8,1c17.5,0.5,35,0.1,52.5,0.2c0.9,0,1.2,0.2,1.1,1.1
		c-0.1,2.6-0.1,5.3,0,7.9c0,0.8-0.1,1.1-1,1.1c-18.2,0-36.3,0.1-54.5-0.1c-5.2,0-10.3-1-14.8-4c-3.4-2.3-5.3-5.5-5.5-9.6
		c-0.6-10.3-0.1-20.6-0.2-30.9c0-2.4-0.1-4.9,0-7.3c0.1-2.9,0.5-5.9,2.3-8.4c2.2-3.1,5.3-4.8,8.8-5.9c3-0.9,6.1-1.5,9.3-1.5
		c0.4,0,0.9,0.2,1.2-0.2C105,374.1,123.2,374.1,141.4,374.1z"/>
	<path d="M520.8,469.2c-0.8-0.4-1.6-0.7-2.4-1.1c-2-1.2-3-3.1-3.5-5.2c-0.6-2.9-0.5-5.8,0.9-8.5c1.4-2.8,3.6-4.1,6.7-4.1
		c2.1,0,4,0.2,5.7,1.4c1.5,1.1,2,2.6,2.7,4.1c0,0.3,0,0.6,0,1c-1.2,0.6-2.5,0.3-3.7,0.2c-0.5-0.1-0.7-0.5-0.8-0.9
		c-0.6-1.4-1.7-2-3.1-2c-1.5,0-2.6,0.7-3.3,2c-1.1,2.4-1.2,4.9-0.1,7.3c0.7,1.4,1.8,2.1,3.3,2.1c1.5,0,2.5-0.8,3.1-2.1
		c0.4-0.9,1-1.2,1.9-1.1c0.9,0.1,1.9-0.3,2.8,0.3c0,0.2,0,0.3,0,0.5c-0.3,2.3-1.3,4.2-3.3,5.5c-0.8,0.5-1.6,0.5-2.5,0.8
		C523.7,469.2,522.2,469.2,520.8,469.2z"/>
	<path d="M350.4,469.2c-0.4-0.4-1-0.4-1.5-0.6c-2.8-1.3-4.1-3.6-4.5-6.6c-0.5-2.7-0.2-5.3,1-7.8c1.3-2.6,3.5-3.9,6.5-4
		c2.1-0.1,4.2,0.1,6,1.4c1.5,1.1,2.2,2.7,2.6,4.4c0.1,0.5-0.1,0.6-0.6,0.6c-1,0-1.9,0-2.9,0c-0.3,0-0.5,0-0.6-0.4
		c-0.6-2-2-2.9-4-2.7c-2,0.2-3.1,1.5-3.7,3.4c-0.7,2.5-0.6,4.9,0.9,7.1c1.5,2.2,5,2.3,6.3-0.3c0.6-1.2,1.3-1.5,2.5-1.4
		c2.5,0.1,2.4,0,1.5,2.3c-0.9,2.4-2.8,3.6-5.1,4.4C353.3,469.2,351.8,469.2,350.4,469.2z"/>
	<path d="M491,374.1c0,0.4-0.1,0.7-0.3,1c-3.5,1.9-7.2,3.5-10.9,5.2c-2.4,1.2-4.8,2.3-7.2,3.4c-0.5,0.2-1,0.7-1.5,0.2
		c0.5-0.7,0.9-1.4,1.4-2.2c2.4-1.5,5.1-2.5,7.6-3.7c2.7-1.4,5.5-2.5,8.2-3.9C489.3,374.1,490.2,374.1,491,374.1z"/>
	<path d="M488.4,374.1c-0.7,1-1.8,1.3-2.8,1.7c-3.9,1.9-7.7,3.7-11.6,5.5c-0.5,0.2-0.9,0.5-1.4,0.5c0.1-0.8,0.7-1.2,1-1.9
		c1.1-0.7,2.1-1.4,3.4-1.8c0.6-0.2,1.2-0.5,1.7-0.8c2.1-1.3,4.5-2,6.6-3.2C486.3,374.1,487.4,374.1,488.4,374.1z"/>
	<path d="M485.3,374.1c-0.6,0.7-1.4,1.1-2.1,1.4c-3,1.4-6.1,2.8-9.1,4.2c-0.1,0.1-0.3,0.1-0.5,0.1c0.5-0.8,0.9-1.6,1.4-2.4
		c2.2-1.3,4.6-2.1,6.7-3.4C482.9,374.1,484.1,374.1,485.3,374.1z"/>
	<path d="M481.7,374.1c0,0.1,0,0.3-0.1,0.3c-2.1,1.2-4.3,2.4-6.6,3c0.6-1.1,1.3-2.2,1.9-3.4C478.5,374.1,480.1,374.1,481.7,374.1z"
		/>
	<path d="M493.2,442c-5.1,0-10.2,0-15.3,0c-8.4,0-16.7,0-25.1,0c-0.5,0-1,0-1.4-0.6c-2.1-3.7-4.3-7.4-6.5-11
		c-0.1-0.2-0.3-0.3-0.1-0.6c0.4,0,0.8,0,1.2,0c17.5,0,35.1,0,52.6,0c1,0,1.6,0.1,2.1,1.2c0.7,1.6,1.8,3.1,2.7,4.6
		c-0.1,0.3-0.3,0.5-0.6,0.7C499.6,438.2,496.5,440.2,493.2,442z"/>
	<path d="M505,397.9c1.8,3.1,3.7,6.3,5.5,9.4c2.3,3.9,4.5,7.8,6.8,11.7c1.2,2.1,2.4,4.2,3.6,6.3c-0.1,0.2-0.2,0.3-0.4,0.4
		c-3.4,2-6.7,4.1-10.2,6.1c-2.5-4.3-5-8.6-7.5-13c-2.6-4.4-5.2-8.8-7.7-13.3c-1.2-2-2.3-4.1-3.5-6.2c0.6-0.7,1.4-0.5,2.2-0.7
		c0.5-0.1,1-0.1,1.5-0.2c1.5-0.2,3.1-0.3,4.6-0.5c1.4-0.2,2.7,0,4.1-0.3C504.3,397.5,504.7,397.6,505,397.9z"/>
	<path d="M473.7,404.6c-1.7,2.9-3.3,5.8-5,8.6c-2.3,3.9-4.6,7.7-6.7,11.7c-0.7,1.3-1.5,1.5-2.8,1.5c-3.8-0.1-7.6,0-11.4,0
		c-0.3,0-0.7,0.2-0.9-0.2c-0.2-0.4,0.2-0.6,0.3-0.8c1.1-1.8,2.1-3.7,3.2-5.5c1.3-1.4,2.8-2.7,4.2-4c2-1.7,4.1-3.3,6.3-4.8
		c3.6-2.4,7.4-4.6,11.4-6.3C472.8,404.7,473.2,404.2,473.7,404.6z"/>
	<path d="M446.6,462.6c0-3.9,0-7.4,0-10.9c0-0.8,0.2-1.1,1.1-1.1c2.8,0,2.8,0,2.8,2.8c0,4.7,0,9.4,0,14.1c0,0.9-0.2,1.1-1.1,1.1
		c-3,0-3,0-4.4-2.6c-1.6-2.9-3.2-5.7-4.9-8.6c-0.1-0.3-0.4-0.5-0.7-0.9c0,3.7,0,7.2,0,10.8c0,1-0.3,1.3-1.3,1.2
		c-2.6-0.1-2.6,0-2.6-2.6c0-4.8,0-9.6,0-14.4c0-0.9,0.3-0.9,1.1-1.1c2.6-0.4,3.9,0.7,4.9,2.9C443,456.6,444.8,459.4,446.6,462.6z"/>
	<path d="M405.1,459.7c0,2.7,0,5.4,0,8c0,0.7-0.2,0.9-0.9,0.9c-3.2,0-3.2,0.1-3.2-3.1c0-1.3,0-2.6,0-4c0-0.7-0.2-0.9-0.9-0.9
		c-1.6,0-3.3,0-4.9,0c-0.7,0-1,0.2-0.9,0.9c0.1,2,0,4,0,6c0,0.7-0.1,1-1,1c-3.1,0-3.1,0-3.1-3.1c0-4.6,0-9.3,0-13.9
		c0-0.8,0.2-1.1,1.1-1.1c3,0,3,0,3,3c0,1,0,1.9,0,2.9c0,0.7,0.2,0.9,0.9,0.9c1.7,0,3.4,0,5,0c0.6,0,0.8-0.2,0.8-0.8
		c0-1.6,0-3.3,0-4.9c0-0.7,0.1-1,1-1c3.1,0,3.1,0,3.1,3.1C405.1,455.7,405.1,457.7,405.1,459.7z"/>
	<path d="M307.9,468.7c-2,0-4.1,0-6.1,0c-0.7,0-0.9-0.2-0.9-0.9c0-5.4,0-10.9,0-16.3c0-0.6,0.1-0.8,0.8-0.8c4,0,7.9,0,11.9,0
		c0.7,0,0.8,0.2,0.8,0.8c0.1,2.5,0.1,2.5-2.4,2.5c-2,0-4,0-6,0c-0.7,0-1,0.1-1,0.9c0,2.5,0,2.5,2.4,2.5c1.8,0,3.6,0,5.4,0
		c0.7,0,0.9,0.2,0.9,0.9c0.1,2.7,0.1,2.7-2.6,2.7c-1.7,0-3.4,0-5.2,0c-0.6,0-1,0.1-0.9,0.8c0.1,1.1-0.4,2.6,0.2,3.3
		c0.6,0.7,2.1,0.2,3.2,0.2c1.8,0,3.7,0,5.5,0c0.7,0,1,0.1,1,0.9c0,2.5,0,2.5-2.4,2.5C311,468.7,309.5,468.7,307.9,468.7z"/>
	<path d="M264.3,450.7c2.1,0,4.2,0,6.4,0c0.8,0,1.1,0.1,1.1,1c0,2.4,0,2.4-2.4,2.4c-2.9,0-2.9,0-2.9,2.9c0,3.6,0,7.2,0,10.8
		c0,0.8-0.2,1-1,1c-3.1,0-3.1,0-3.1-3.1c0-3.6,0-7.1,0-10.7c0-0.7-0.2-1-0.9-0.9c-1.2,0.1-2.5,0-3.7,0c-0.6,0-0.9-0.1-0.9-0.8
		c-0.1-2.5-0.1-2.5,2.4-2.5C260.9,450.7,262.6,450.7,264.3,450.7z"/>
	<path d="M484.8,459.7c0,2.7,0,5.4,0,8c0,0.8-0.2,0.9-0.9,0.9c-2.9,0-2.9,0-2.9-2.9c0-4.7,0-9.4,0-14c0-0.9,0.2-1.1,1.1-1.1
		c2.7,0,2.7,0,2.7,2.7C484.8,455.5,484.8,457.6,484.8,459.7z"/>
	<path d="M486.7,382c-0.6,0.9-0.9,1.9-1.6,2.7c-2.8,1.7-5.9,2.9-8.8,4.3c-2.8,1.4-5.5,2.6-8.3,3.9c-0.7,0.3-1.4,0.9-2.3,0.6
		c0.6-1,1.1-1.9,1.7-2.9c0.8-0.7,1.8-0.9,2.8-1.4c5-2.5,10.1-4.8,15.1-7.2C485.7,381.9,486.2,381.3,486.7,382z"/>
	<path d="M486.7,382c-0.3-0.2-0.6,0-0.9,0.1c-3.2,1.5-6.5,3.1-9.7,4.6c-2.7,1.3-5.3,2.5-8,3.7c-0.2,0.1-0.5,0.1-0.8,0.2
		c0.5-0.9,1-1.8,1.6-2.7c0.7-0.6,1.6-0.9,2.4-1.3c4-1.8,7.9-3.8,11.9-5.6c1.2-0.5,2.3-1.2,3.4-1.7c0.5-0.2,1-0.5,1.5-0.1
		C487.7,380.3,487.3,381.2,486.7,382z"/>
	<path d="M465.6,393.6c2.2-0.7,4.1-1.9,6.2-2.8c4.1-1.8,8.1-3.8,12.1-5.8c0.4-0.2,0.7-0.4,1.1-0.3c-0.2,0.9-0.8,1.6-1.3,2.4
		c-2.4,1.5-5.1,2.5-7.6,3.8c-3.5,1.7-7,3.4-10.5,4.9c-0.4,0.2-0.8,0.6-1.3,0.2C464.6,395.1,465.3,394.4,465.6,393.6z"/>
	<path d="M475.9,400.8c-0.5,0.9-0.9,1.9-1.6,2.6c-3,1.6-6.2,3-9.3,4.4c-2.7,1.3-5.5,2.6-8.2,3.9c-0.6,0.3-1.1,0.7-1.8,0.3
		c0.5-0.8,0.8-1.7,1.4-2.4c2.1-1.5,4.5-2.3,6.8-3.4c3.5-1.7,7-3.4,10.6-5C474.5,401,475.1,400.4,475.9,400.8z"/>
	<path d="M478.5,396.2c-0.5,0.8-0.9,1.6-1.4,2.4c-2.4,1.4-5.1,2.5-7.6,3.7c-3.5,1.7-7,3.4-10.6,5c-0.4,0.2-0.8,0.6-1.3,0.1
		c0.4-0.9,0.9-1.7,1.4-2.4c0.3-0.3,0.6-0.5,1-0.7c5.7-2.6,11.3-5.3,16.9-8C477.5,396.2,477.9,395.8,478.5,396.2z"/>
	<path d="M488.2,379.4c-1.3-0.1-2.3,0.7-3.3,1.2c-3,1.4-6,2.8-8.9,4.2c-1.7,0.9-3.6,1.5-5.2,2.5c-0.5,0.3-1.1,0.5-1.8,0.6
		c0.2-0.8,0.8-1.5,1.2-2.2c0.6-0.6,1.3-0.9,2.1-1.2c5.3-2.4,10.5-5,15.7-7.4c0.5-0.2,1-0.7,1.7-0.3
		C489.2,377.9,488.7,378.6,488.2,379.4z"/>
	<path d="M457.7,407.5c1.2-0.1,2.1-0.9,3.1-1.4c3.9-1.7,7.6-3.6,11.5-5.4c1.6-0.8,3.2-1.6,4.9-2.1c-0.4,0.7-0.8,1.4-1.3,2.2
		c-3.3,1.3-6.5,3-9.7,4.5c-2.2,1-4.2,2.2-6.5,3c-1.1,0.4-2,1.4-3.2,1.4C456.7,408.8,457.2,408.2,457.7,407.5z"/>
	<path d="M455,412c2.1-0.5,3.8-1.7,5.7-2.5c4-1.8,7.9-3.7,11.8-5.6c0.5-0.3,1.1-0.5,1.7-0.5c-0.2,0.4-0.4,0.8-0.5,1.2
		c-3.3,1.2-6.4,3-9.4,4.8c-1.1,0.6-2.1,1.3-3.2,1.9c-2,1.1-4,2.1-6,2.9c-0.5,0.2-0.9,0.6-1.4,0.2C453.9,413.6,454.5,412.8,455,412z"
		/>
	<path d="M464.4,396c1-0.4,2.1-0.8,3.1-1.3c5.1-2.4,10.2-4.9,15.3-7.3c0.3-0.2,0.6-0.3,1-0.3c-0.4,0.6-0.8,1.3-1.1,1.9
		c-2.2,1.6-4.8,2.5-7.2,3.7c-3.6,1.7-7.2,3.5-10.8,5.1c-0.4,0.2-0.9,0.7-1.2-0.1C463.6,397,463.8,396.4,464.4,396z"/>
	<path d="M463.4,397.6c0.3,0.4,0.6,0.1,0.8,0c4.5-2.1,9.1-4.3,13.6-6.4c1.6-0.7,3.2-1.4,4.8-2.1c-0.4,0.7-0.7,1.5-1.3,2.1
		c-5.7,2.8-11.4,5.4-17.2,8.2c-0.7,0.3-1.3,0.9-2.2,0.5C462.6,399.1,462.7,398.2,463.4,397.6z"/>
	<path d="M460.1,403.4c0.1-0.8,0.7-1.2,1-1.9c2-1.3,4.2-2.1,6.3-3.1c3.9-1.9,7.8-3.8,11.8-5.5c0.4-0.2,0.8-0.5,1.3-0.2
		c-0.2,0.7-0.6,1.3-1,1.9c-2.2,1.4-4.6,2.3-6.9,3.4c-3.7,1.8-7.3,3.5-11,5.2C461.1,403.3,460.7,403.8,460.1,403.4z"/>
	<path d="M489.6,377c-1.3,0.2-2.4,0.9-3.5,1.4c-4,1.8-7.9,3.8-11.9,5.7c-1.3,0.6-2.7,1.2-4,1.8c0.3-0.6,0.7-1.3,1-1.9
		c1.8-0.4,3.3-1.4,5-2.2c4.6-2.1,9.1-4.3,13.7-6.5c0.3-0.1,0.6-0.3,0.9-0.2C490.4,375.7,490,376.4,489.6,377z"/>
	<path d="M460.1,403.4c1.4-0.6,2.9-1.2,4.3-1.9c4.8-2.2,9.5-4.5,14.3-6.8c0.3-0.1,0.6-0.3,0.9-0.2c-0.3,0.6-0.6,1.1-1,1.7
		c-2,0.5-3.8,1.7-5.7,2.5c-4.6,2.1-9.1,4.4-13.8,6.4C459.2,404.4,459.7,403.9,460.1,403.4z"/>
	<path d="M480.5,392.6c-1,0.4-2.1,0.8-3.1,1.3c-5.2,2.4-10.3,4.9-15.4,7.3c-0.3,0.1-0.6,0.2-0.9,0.2c0.3-0.6,0.6-1.1,1-1.7
		c0.8,0,1.4-0.4,2.1-0.7c5.4-2.5,10.7-5.1,16-7.6c0.4-0.2,0.7-0.6,1.2-0.3C481.2,391.7,481.1,392.3,480.5,392.6z"/>
	<path d="M496,382.3c0.3,0.7,0.9,1.1,1,1.9c-0.6,0.9-1.7,1.1-2.6,1.5c-2.1,1-4.1,2.1-6.2,2.9c-0.5,0.2-0.9,0.5-1.4,0.1
		c0.6-1.1,1.1-2.2,1.9-3.1C491,384.4,493.3,382.8,496,382.3z"/>
	<path d="M499.9,389.2c0.6,0.3,0.7,0.9,0.9,1.5c-0.2,0.6-0.7,0.7-1.2,0.9c-3,1.5-6,2.8-9,4.2c-0.3,0.2-0.7,0.4-1.1,0.1
		c-0.3-0.5-0.6-1-0.9-1.4c0.6-0.7,1.5-1,2.3-1.4c2.6-1.2,5.1-2.4,7.7-3.6C499.1,389.3,499.5,389,499.9,389.2z"/>
	<path d="M498.5,386.6c0.2,0.4,0.5,0.8,0.7,1.2c-0.1,0.8-0.8,1-1.3,1.2c-3,1.4-6,2.8-9,4.3c-0.2,0.1-0.5,0.2-0.8,0.1
		c-0.5-0.3-0.6-0.9-0.9-1.5c1-1,2.3-1.5,3.5-2c2.3-0.9,4.3-2.3,6.6-3C497.7,386.7,498.1,386.4,498.5,386.6z"/>
	<path d="M486.8,388.8c1.7-0.3,3.2-1.2,4.7-1.9c1.8-0.9,3.8-1.7,5.6-2.6c0.2,0.4,0.7,0.7,0.7,1.2c0.1,0.4-0.2,0.5-0.4,0.6
		c-3.4,1.7-6.9,3.4-10.4,4.9c-0.1,0-0.2,0-0.2,0C485.8,390.2,486.1,389.5,486.8,388.8z"/>
	<path d="M491.1,398.6c-0.2-0.4-0.5-0.8-0.7-1.2c0.2-0.7,0.9-0.9,1.4-1.1c2.6-1.1,5.1-2.3,7.6-3.6c0.7-0.4,1.3-0.9,2.2-0.6
		c0.2,0.4,0.7,0.7,0.7,1.2c0.1,0.4-0.2,0.5-0.5,0.7c-3.2,1.5-6.4,3.1-9.6,4.5C491.8,398.6,491.5,398.9,491.1,398.6z"/>
	<path d="M501.6,392.1c-1,0.2-1.9,0.8-2.8,1.2c-2.3,1.1-4.6,2.4-7,3.2c-0.5,0.2-1,0.5-1.4,0.8c-0.2-0.5-0.7-0.9-0.8-1.4
		c1.3-0.6,2.6-1.1,3.8-1.7c2.5-1.2,5-2.4,7.4-3.6C501.2,391.1,501.6,391.5,501.6,392.1z"/>
	<path d="M488.1,393.3c3.1-1.6,6.2-3.1,9.4-4.5c0.6-0.3,1.1-0.7,1.7-1.1c0.3,0.4,0.6,0.9,0.7,1.4c-3.8,1.8-7.5,3.5-11.3,5.3
		C488.5,394.1,488.3,393.7,488.1,393.3z"/>
	<path d="M491.1,398.6c3.1-1.3,6.2-2.7,9.1-4.3c0.7-0.4,1.5-0.4,2.1-1c0.2,0.4,0.7,0.7,0.7,1.2c0,0.7-0.6,0.8-1,1
		c-2.3,1-4.5,2.3-6.9,3.2c-1.2,0.2-2.4,0.5-3.6,0.7C491.2,399.2,491.2,398.9,491.1,398.6z"/>
	<path d="M496,382.3c-2.5,1-4.8,2.5-7.4,3.3c0.5-1.2,1.2-2.3,1.9-3.4c1.3-0.9,2.7-1.6,4.1-2.2C495.3,380.7,495.7,381.5,496,382.3z"
		/>
	<path d="M486.7,391c2.3-1.5,4.9-2.4,7.4-3.6c1.2-0.6,2.6-1.1,3.7-1.9c0.2,0.4,0.5,0.8,0.7,1.2c-2.6,1-5,2.5-7.7,3.5
		c-1.2,0.5-2.3,1.4-3.6,1.8C487.1,391.6,486.7,391.4,486.7,391z"/>
	<path d="M514.5,439.2c-0.3-0.3-0.4-0.6-0.5-1c0.1-0.5,0.5-0.7,0.9-0.9c2.8-1.7,5.7-3.4,8.5-5.1c0.4-0.2,0.7-0.5,1.2-0.2
		c0.3,0.3,0.4,0.6,0.5,1c-3.3,2.4-6.8,4.4-10.4,6.3C514.7,439.3,514.6,439.2,514.5,439.2z"/>
	<path d="M513.6,437.5c-0.2-0.2-0.3-0.5-0.5-0.7c-0.1-0.5,0.3-0.7,0.6-0.9c3-1.8,6-3.6,9-5.4c0.3-0.2,0.6-0.5,1-0.3
		c0.3,0.3,0.4,0.6,0.5,1c-0.1,0.5-0.6,0.7-1,1c-2.8,1.6-5.6,3.2-8.3,5C514.5,437.4,514.1,437.7,513.6,437.5z"/>
	<path d="M517.2,442c-0.4-0.1-1.1,0.4-1.2-0.4c0.1-0.5,0.5-0.8,0.9-1c2.9-1.7,5.6-3.5,8.5-5.1c0.3-0.2,0.7-0.5,1.1-0.3
		c0.1,0.2,0.3,0.4,0.3,0.7c0.1,0.5-0.2,0.7-0.6,0.9c-2.5,1.7-5.2,3.2-7.8,4.9C518,441.8,517.6,441.8,517.2,442z"/>
	<path d="M495.1,398.6c1.8-1.2,3.7-2,5.7-2.9c0.8-0.4,1.6-0.6,2.3-1.2c0.3,0.5,0.6,1,0.9,1.5c-1.2,1.1-2.8,1.5-4.3,2.2
		C498.2,398.5,496.7,398.5,495.1,398.6z"/>
	<path d="M527.5,436.8c0.2,0.3,0.4,0.6,0.5,0.9c0,0.3-0.2,0.4-0.4,0.6c-2.1,1.3-4.1,2.7-6.3,3.7c-0.7,0-1.4,0-2.2,0
		c-0.1-0.4,0.1-0.7,0.4-0.9c2.3-1.4,4.6-3,7-4.2C526.9,436.8,527.1,436.6,527.5,436.8z"/>
	<path d="M522.5,428.1c0.1,0.2,0.3,0.5,0.4,0.7c-0.2,0.6-0.8,0.8-1.2,1.1c-2.8,1.7-5.7,3.4-8.5,5.1c-0.2,0.1-0.5,0.3-0.8,0.3
		c-0.3-0.1-0.5-0.4-0.5-0.7c-0.1-0.5,0.3-0.7,0.6-0.9c3-1.8,6-3.6,9-5.4C521.8,428.2,522.1,428,522.5,428.1z"/>
	<path d="M526.5,435.1c-3.5,2.1-7.1,4.2-10.5,6.5c-0.3-0.1-0.5-0.4-0.5-0.7c-0.1-0.6,0.4-0.7,0.7-0.9c2.9-1.8,5.9-3.5,8.8-5.4
		c0.3-0.2,0.7-0.5,1.1-0.2C526.2,434.6,526.4,434.9,526.5,435.1z"/>
	<path d="M522.5,428.1c-3.4,2-6.9,4.1-10.3,6.1c-0.1,0.1-0.2,0.2-0.3,0.4c-0.3-0.3-0.4-0.6-0.5-1c0.1-0.4,0.5-0.6,0.8-0.8
		c2.9-1.7,5.7-3.4,8.6-5.1c0.4-0.2,0.7-0.5,1.2-0.3C522.2,427.6,522.3,427.9,522.5,428.1z"/>
	<path d="M523.7,430.3c-3.1,1.9-6.2,3.8-9.3,5.6c-0.4,0.3-0.8,0.6-1.3,0.9c-0.3-0.3-0.4-0.6-0.5-1c0.7-0.8,1.7-1.2,2.5-1.8
		c2.3-1.4,4.6-2.8,6.9-4.1c0.4-0.2,0.7-0.6,1.2-0.4C523.5,429.7,523.7,429.9,523.7,430.3z"/>
	<path d="M514.5,439.2c3.5-2.1,7-4.4,10.6-6.3c0.3,0.1,0.5,0.4,0.5,0.7c-0.4,0.6-1.1,0.9-1.7,1.3c-2.5,1.5-5.1,3.1-7.6,4.6
		c-0.4,0.2-0.8,0.6-1.3,0.4C514.7,439.8,514.5,439.5,514.5,439.2z"/>
	<path d="M510.2,431.8c0.7-1,1.8-1.3,2.7-1.9c2.6-1.6,5.2-3.3,7.9-4.6c0.1,0.2,0.3,0.5,0.4,0.7c-0.3,0.5-0.8,0.8-1.3,1.1
		c-2.7,1.6-5.5,3.3-8.2,4.9c-0.4,0.2-0.8,0.6-1.3,0.3C510.2,432.2,510.3,431.9,510.2,431.8z"/>
	<path d="M522,427.4c-3.3,1.9-6.5,3.9-9.8,5.8c-0.3,0.2-0.6,0.3-0.8,0.5c-0.3-0.1-0.5-0.4-0.5-0.7c0.4-0.8,1.2-1,1.9-1.4
		c2.4-1.6,5-3,7.5-4.5c0.4-0.2,0.8-0.7,1.3-0.3C521.9,426.8,522,427.1,522,427.4z"/>
	<path d="M515,439.9c3.1-1.9,6.2-3.7,9.4-5.6c0.4-0.2,0.7-0.6,1.2-0.7c0.2,0.2,0.3,0.5,0.5,0.7c-2.3,1.4-4.6,2.7-6.8,4.1
		c-1.3,0.8-2.7,1.4-3.8,2.4C515.2,440.6,515.1,440.3,515,439.9z"/>
	<path d="M453.6,414.5c2-0.6,3.9-1.6,5.8-2.5c0.5-0.3,1-0.7,1.7-0.6c-2.1,1.6-4.2,3.2-6.2,4.8c-0.8,0.4-1.5,1.2-2.6,0.7
		C452.7,416.1,453.2,415.3,453.6,414.5z"/>
	<path d="M493.2,442c1.2-1.3,2.7-1.9,4.2-2.7c2-1.3,4.1-2.5,6.1-3.7c0.2,0.2,0.3,0.5,0.5,0.7c-0.1,0.3-0.3,0.6-0.6,0.7
		c-2.8,1.6-5.6,3.5-8.5,5C494.3,442,493.8,442,493.2,442z"/>
	<path d="M521.3,442c1.7-1.5,3.8-2.3,5.6-3.6c0.4-0.2,0.7-0.5,1.1-0.7c0.3,0.4,0.6,0.9,0.7,1.4c-1.4,1.2-3,2-4.6,2.8
		C523.2,442,522.2,442,521.3,442z"/>
	<path d="M513.6,437.5c2.4-1.1,4.4-2.8,6.7-4c1.3-0.7,2.6-1.5,3.9-2.3c0.3,0.1,0.5,0.4,0.5,0.7c-1.7,0.6-3.1,1.8-4.6,2.7
		c-2,1.2-4,2.4-6,3.6C513.7,438.1,513.6,437.8,513.6,437.5z"/>
	<path d="M527.5,436.8c-2.7,1.3-5.2,3.1-7.9,4.6c-0.2,0.1-0.3,0.4-0.5,0.6c-0.6,0-1.3,0-1.9,0c2.2-1.3,4.4-2.7,6.6-4
		c1-0.7,2.2-1.2,3-2.2C527.2,436,527.3,436.4,527.5,436.8z"/>
	<path d="M521.5,426.7c-2.8,1.4-5.3,3.1-8,4.7c-0.9,0.5-1.8,1.1-2.6,1.6c-0.2-0.2-0.3-0.5-0.5-0.7c2.1-0.9,3.9-2.3,5.9-3.4
		c1.7-0.9,3.3-1.9,4.9-2.9C521.3,426.2,521.4,426.4,521.5,426.7z"/>
	<path d="M523.2,429.6c-3.3,2-6.6,4-10,6c-0.2,0.1-0.4,0.2-0.6,0.3c-0.2-0.1-0.2-0.3-0.2-0.5c2.3-1.7,4.8-2.9,7.2-4.4
		c1.1-0.7,2.2-1.4,3.4-2.1C523,429.1,523.1,429.3,523.2,429.6z"/>
	<path d="M500.2,442c-0.8,0-1.6,0-2.4,0c0-0.4,0.3-0.6,0.5-0.7c1.9-1.2,3.8-2.3,5.8-3.5c0.2-0.1,0.4-0.2,0.7-0.1
		c0.2,0.3,0.4,0.6,0.7,1C503.8,440.1,501.9,441,500.2,442z"/>
	<path d="M504.7,437.7c-2.3,1.4-4.7,2.9-7,4.3c-0.6,0-1.1,0-1.7,0c0-0.5,0.3-0.6,0.6-0.8c2.2-1.3,4.4-2.7,6.7-4
		c0.3-0.2,0.6-0.3,0.9-0.2C504.6,437.1,504.7,437.4,504.7,437.7z"/>
	<path d="M494.6,380.1c-1.2,1.1-2.7,1.6-4.1,2.2c0.8-1.3,1.5-2.7,2.3-4c0.3-0.5,0.5-0.7,0.9,0C494,378.8,494.5,379.4,494.6,380.1z"
		/>
	<path d="M504.3,437c-2.7,1.7-5.5,3.3-8.2,5c-0.4,0-0.8,0-1.2,0c1.3-1.3,3-2,4.5-2.9c1.5-1,3-1.9,4.5-2.8
		C504.1,436.5,504.2,436.8,504.3,437z"/>
	<path d="M500.2,442c1.5-1.5,3.4-2.3,5.2-3.3c0.2,0.4,0.5,0.7,0.5,1.2c0.1,0.6-0.4,0.6-0.7,0.8c-0.8,0.5-1.7,0.9-2.6,1.4
		C501.8,442,501,442,500.2,442z"/>
	<path d="M524.2,442c1.3-1.3,2.9-2.1,4.6-2.8c0.4,0.2,0.5,0.6,0.7,1c-0.7,0.9-1.8,1.3-2.8,1.9C525.8,442,525,442,524.2,442z"/>
	<path d="M499.7,398.2c1.3-1,2.8-1.6,4.3-2.2c0.3,0.6,0.7,1.3,1,1.9C503.2,398.1,501.5,398.1,499.7,398.2z"/>
	<path d="M502.6,442c0.9-1.1,2.3-1.3,3.4-2.1c0.6,0.6,0.9,1.4,1.3,2.1C505.6,442,504.1,442,502.6,442z"/>
	<path d="M452.2,416.9c0.9,0,1.7-0.7,2.6-0.7c-1.4,1.3-2.7,2.6-4.1,3.9c-0.1,0.1-0.2,0.1-0.3-0.1
		C450.9,418.8,451.7,417.9,452.2,416.9z"/>
	<path d="M526.6,442c0.8-0.9,1.9-1.3,2.8-1.9c0.4,0.5,0.8,1.1,1,1.9C529.1,442,527.8,442,526.6,442z"/>
	<path d="M197,384.4c8.3,0,15.1,0,21.9,0c2.6,0,5.1,0.3,7.5,1.2c1.9,0.7,2.8,1.9,2.8,3.9c0,12.4,0,24.9,0,37.3
		c0,1.7-0.7,2.8-2.2,3.6c-1.6,0.8-3.4,1.2-5.1,1.3c-1.9,0.1-3.7,0.3-5.6,0.3c-12.2,0-24.3,0-36.5-0.1c-2.8,0-5.6,0-8.3-0.9
		c-1.2-0.4-2.6-0.8-3.2-2.2c-0.2-0.5-0.3-0.9-0.3-1.5c0-12.8,0-25.7,0-38.5c0-1.4,0.8-2.1,1.8-2.7c1.5-0.9,3.3-1.3,5-1.4
		C182.7,384.1,190.6,384.7,197,384.4z"/>
	<path d="M291.7,384.4c6.6,0,13.2,0,19.8,0c2.7,0,5.3,0.3,7.8,1.5c1.3,0.7,2.1,1.7,2,3.3c0,2.5-0.1,5,0,7.4c0.1,1.9-0.9,3-2.4,3.7
		c-1.5,0.7-3.1,1-4.8,1.1c-11.2,0.6-22.4,0.1-33.5,0.2c-3.4,0-6.8,0-10.2,0c-0.7,0-0.9-0.2-0.9-0.9c0-5.1,0-10.2,0-15.4
		c0-0.9,0.3-1,1.1-1C277.6,384.5,284.7,384.4,291.7,384.4z"/>
</g>
</svg>
