<?xml version="1.0" encoding="UTF-8" standalone="no"?>
<svg
   xmlns:dc="http://purl.org/dc/elements/1.1/"
   xmlns:cc="http://creativecommons.org/ns#"
   xmlns:rdf="http://www.w3.org/1999/02/22-rdf-syntax-ns#"
   xmlns:svg="http://www.w3.org/2000/svg"
   xmlns="http://www.w3.org/2000/svg"
   viewBox="0 0 453.39999 348.76001"
   height="348.76001"
   width="453.39999"
   xml:space="preserve"
   id="svg2"
   version="1.1"><metadata
     id="metadata8"><rdf:RDF><cc:Work
         rdf:about=""><dc:format>image/svg+xml</dc:format><dc:type
           rdf:resource="http://purl.org/dc/dcmitype/StillImage" /></cc:Work></rdf:RDF></metadata><defs
     id="defs6" /><g
     transform="matrix(1.3333333,0,0,-1.3333333,0,348.76)"
     id="g10"><g
       transform="scale(0.1)"
       id="g12"><path
         id="path14"
         style="fill:#ffffff;fill-opacity:1;fill-rule:nonzero;stroke:none"
         d="m 2803.36,1499.27 c 0,-616.61 -499.85,-1116.469 -1116.47,-1116.469 -616.62,0 -1116.468,499.859 -1116.468,1116.469 0,616.61 499.848,1116.46 1116.468,1116.46 616.62,0 1116.47,-499.85 1116.47,-1116.46" /><path
         id="path16"
         style="fill:#1a67bb;fill-opacity:1;fill-rule:nonzero;stroke:none"
         d="m 2762.41,1499.26 c 0,-593.998 -481.53,-1075.53 -1075.52,-1075.53 -593.99,0 -1075.523,481.532 -1075.523,1075.53 0,593.99 481.533,1075.51 1075.523,1075.51 593.99,0 1075.52,-481.52 1075.52,-1075.51" /><path
         id="path18"
         style="fill:#ffffff;fill-opacity:1;fill-rule:evenodd;stroke:none"
         d="m 1223.54,1357.47 -33.52,-28.26 -157.1,-248.74 -65.533,-20.85 20.855,-23.83 -156.75,-196.938 50.52,-61.614 67.758,-72.687 226.33,366.999 44.24,8.43 12.63,8.42 2.11,14.74 8.43,23.17 c 0,0 111.18,220 175.21,307.31 62.54,85.27 59.8,93.7 68.22,104.23 8.43,10.53 47.39,70.12 47.39,70.12 0,0 243.92,331.83 366.32,428.23 107.39,84.59 132.69,92.68 132.69,92.68 l -193.77,-705.59 -61.08,-242.21 -84.26,-16.85 25.28,-61.09 c 0,0 -29.49,-128.468 -44.23,-204.3 -14.74,-75.82 -25.28,-113.738 -31.59,-151.649 -6.32,-37.91 4.21,-98.992 33.7,-109.519 29.48,-10.543 50.04,-12.863 69.87,-10.453 20.32,2.461 36.94,16.011 36.94,16.011 0,0 55.37,63.942 74.32,131.34 18.96,67.399 23.17,107.41 29.49,124.27 6.32,16.851 16.85,35.808 40.01,44.23 23.19,8.418 56.88,21.059 56.88,21.059 0,0 4.21,105.311 46.34,126.381 42.11,21.06 75.82,25.27 109.53,8.42 33.69,-16.85 71.6,-21.06 71.6,-21.06 l 21.86,9.78 9.19,22.25 -5.78,18.52 -61.61,29.35 -77.4,31.73 -37.91,14.74 v 61.08 l 42.14,200.09 c 0,0 69.5,347.53 88.45,431.79 18.96,84.25 46.34,204.3 63.19,261.17 16.84,56.87 35.8,88.47 61.08,111.63 25.27,23.16 60.91,64.56 60.91,64.56 0,0 -60.46,54.44 -135.53,97.33 -73.72,42.13 -144.15,70.23 -144.15,70.23 0,0 -398.36,-484.87 -455.22,-562.81 -56.88,-77.92 -234.65,-344.61 -249.4,-363.56 -14.57,-18.73 -56.36,-73.58 -70.12,-89.07 -15.17,-17.06 -20.53,-21.35 -45.8,-61.37 l -52.73,-67.84" /><path
         id="path20"
         style="fill:#fee112;fill-opacity:1;fill-rule:nonzero;stroke:none"
         d="m 254.859,1219.89 124.899,-37.19 c 0,0 1091.662,134.5 1188.992,144.75 97.32,10.25 350.87,30.74 396.98,40.99 46.1,10.24 179.27,28.17 179.27,28.17 l -53.77,15.37 6.81,26.88 -1843.181,-218.97" /><path
         id="path22"
         style="fill:#fee112;fill-opacity:1;fill-rule:nonzero;stroke:none"
         d="m 431.133,1087.65 c 0,0 709.667,116.75 873.587,142.36 163.91,25.61 832.37,140.87 832.37,140.87 l -99.88,-115.26 c 0,0 -204.89,-84.52 -253.55,-89.64 -48.66,-5.12 -122.94,-17.93 -122.94,-17.93 0,0 -143.43,2.56 -238.19,-7.68 -94.77,-10.25 -235.63,-20.49 -320.15,-43.54 -84.52,-23.05 -194.646,-56.35 -194.646,-56.35 l -192.089,-12.8 -284.512,59.97" /><path
         id="path24"
         style="fill:#ffffff;fill-opacity:1;fill-rule:nonzero;stroke:none"
         d="m 375.82,1182.72 c 0,0 574.137,84.79 686.83,95.05 112.7,10.25 749.16,89.42 832.38,92.2 67.01,2.24 719.7,94.76 719.7,94.76 l -463.81,-89.12 c 0,0 -80.75,-39.34 -1105.41,-194.53 -169.869,-25.72 -536.326,-84.16 -536.326,-84.16 l -72.758,-10.59 -60.606,96.39" /><path
         id="path26"
         style="fill:#ffffff;fill-opacity:1;fill-rule:nonzero;stroke:none"
         d="m 2137.66,1170.99 92.61,-37.04 c 0,0 35.78,-19.71 22.49,-46.3 -9.27,-18.52 -17.21,-15.88 -35.72,-14.55 -28.48,2.03 -76.27,25.83 -76.27,25.83" /><path
         id="path28"
         style="fill:#1a67bb;fill-opacity:1;fill-rule:nonzero;stroke:none"
         d="m 180.957,182.469 -30.699,99.863 -30.5,-99.863 z m 18.004,-60.071 H 101.188 L 87.7305,76.5586 H 0 L 104.402,354.332 h 93.606 L 302.418,76.5586 h -89.82 l -13.637,45.8394" /><path
         id="path30"
         style="fill:#1a67bb;fill-opacity:1;fill-rule:nonzero;stroke:none"
         d="M 283.922,354.332 H 544.84 V 285.738 H 457.484 V 76.5586 H 371.461 V 285.738 h -87.539 v 68.594" /><path
         id="path32"
         style="fill:#1a67bb;fill-opacity:1;fill-rule:nonzero;stroke:none"
         d="m 583.492,354.332 h 86.02 V 144.941 H 803.285 V 76.5586 H 583.492 V 354.332" /><path
         id="path34"
         style="fill:#1a67bb;fill-opacity:1;fill-rule:nonzero;stroke:none"
         d="m 1129.35,155.191 73.33,-8.339 c -8.34,-31.571 -26.72,-53.5122 -55.14,-65.7504 -14.41,-6.2032 -32.66,-9.293 -54.76,-9.293 -40.68,0 -70.68,8.4727 -90.01,25.3906 -21.852,18.9488 -32.774,45.2888 -32.774,79.0198 0,33.601 10.609,59.929 31.834,79.019 8.96,7.953 18.18,13.891 27.66,17.813 15.03,6.168 34.3,9.281 57.79,9.281 28.93,0 52.04,-4.742 69.35,-14.211 20.21,-11.133 34.23,-29.449 42.07,-54.949 l -72.58,-9.66 c -4.54,17.297 -16.74,25.957 -36.56,25.957 -14.91,0 -26.09,-5.758 -33.54,-17.25 -6.2,-9.61 -9.29,-22.297 -9.29,-38.078 0,-14.532 3.29,-26.289 9.86,-35.25 7.32,-10.243 17.93,-15.34 31.83,-15.34 20.58,0 34.23,10.531 40.93,31.64" /><path
         id="path36"
         style="fill:#1a67bb;fill-opacity:1;fill-rule:nonzero;stroke:none"
         d="m 1305.94,176.789 c 0,-14.539 2.72,-26.418 8.17,-35.629 6.58,-11.359 16.65,-17.058 30.2,-17.058 25.46,0 38.19,17.828 38.19,53.437 0,14.02 -2.67,25.652 -7.98,34.859 -6.59,11.25 -16.47,16.872 -29.63,16.872 -13.68,0 -23.87,-5.622 -30.59,-16.872 -5.57,-9.207 -8.36,-21.089 -8.36,-35.609 z m -77.31,-0.199 c 0,32.719 11.12,58.742 33.35,78.07 21.22,18.449 48.44,27.672 81.67,27.672 40.3,0 70.74,-11.691 91.33,-35.051 16.55,-18.84 24.82,-42.011 24.82,-69.543 0,-33.347 -11.18,-59.558 -33.54,-78.6482 C 1405.16,81.0313 1377.69,72 1343.84,72 c -32.47,0 -58.62,8.2109 -78.44,24.6289 -24.52,20.2111 -36.77,46.8711 -36.77,79.9611" /><path
         id="path38"
         style="fill:#1a67bb;fill-opacity:1;fill-rule:nonzero;stroke:none"
         d="m 1497.51,277.781 h 72 V 248.41 c 19.07,22.621 42.25,33.922 69.54,33.922 28.68,0 49.01,-11.301 61.01,-33.922 11.38,12.25 21.72,20.781 31.08,25.59 10.6,5.551 23.61,8.332 39.04,8.332 45.86,0 68.78,-26.473 68.78,-79.402 V 76.5586 h -77.31 V 191.18 c 0,8.851 -1.78,15.609 -5.31,20.289 -5.3,6.941 -11.74,10.422 -19.32,10.422 -20.22,0 -30.33,-13.84 -30.33,-41.5 V 76.5586 h -77.3 V 187.398 c 0,8.84 -0.51,14.84 -1.51,18 -3.68,11.243 -11.25,16.872 -22.75,16.872 -20.21,0 -30.32,-14.348 -30.32,-43.02 V 76.5586 h -77.3 V 277.781" /><path
         id="path40"
         style="fill:#1a67bb;fill-opacity:1;fill-rule:nonzero;stroke:none"
         d="m 1962.69,176.59 c 0,-13.129 2.52,-23.801 7.56,-32.012 6.16,-9.976 15.42,-14.969 27.75,-14.969 21.06,0 31.58,16.219 31.58,48.7 0,12.621 -2.22,23.121 -6.62,31.453 -5.68,10.609 -14.3,15.91 -25.88,15.91 -22.92,0 -34.39,-16.363 -34.39,-49.082 z M 1885.39,0 v 277.781 h 72.18 v -29.75 c 9.96,12.52 19.14,20.969 27.47,25.391 11.23,5.937 23.7,8.91 37.34,8.91 27.91,0 49.51,-11.301 64.8,-33.922 13.13,-19.59 19.7,-44.019 19.7,-73.328 0,-29.32 -6.71,-53.172 -20.08,-71.621 C 2071.75,82.4805 2050.15,72 2022,72 c -23.63,0 -43.21,8.0117 -58.74,24.082 V 0 h -77.87" /><path
         id="path42"
         style="fill:#1a67bb;fill-opacity:1;fill-rule:nonzero;stroke:none"
         d="m 2211.67,176.789 c 0,-14.539 2.71,-26.418 8.16,-35.629 6.58,-11.359 16.66,-17.058 30.21,-17.058 25.44,0 38.18,17.828 38.18,53.437 0,14.02 -2.68,25.652 -7.98,34.859 -6.59,11.25 -16.46,16.872 -29.63,16.872 -13.68,0 -23.88,-5.622 -30.59,-16.872 -5.56,-9.207 -8.35,-21.089 -8.35,-35.609 z m -77.32,-0.199 c 0,32.719 11.11,58.742 33.35,78.07 21.24,18.449 48.44,27.672 81.67,27.672 40.28,0 70.74,-11.691 91.33,-35.051 16.55,-18.84 24.83,-42.011 24.83,-69.543 0,-33.347 -11.18,-59.558 -33.54,-78.6482 C 2310.87,81.0313 2283.4,72 2249.57,72 c -32.49,0 -58.64,8.2109 -78.45,24.6289 -24.52,20.2111 -36.77,46.8711 -36.77,79.9611" /><path
         id="path44"
         style="fill:#1a67bb;fill-opacity:1;fill-rule:nonzero;stroke:none"
         d="m 2389.2,132.25 76.57,7.219 c 5.92,-16.938 17.92,-25.41 35.98,-25.41 7.45,0 14.04,1.332 19.72,3.98 7.31,3.422 11,8.402 11,14.973 0,5.57 -2.92,9.847 -8.72,12.886 -4.17,2.141 -15.24,4.801 -33.17,7.961 -23.62,4.161 -38.54,7.211 -44.72,9.102 -16.8,5.18 -29.24,13.187 -37.32,24.051 -7.21,9.476 -10.8,20.289 -10.8,32.41 0,27.027 14.45,45.66 43.39,55.887 13.5,4.679 31.64,7.023 54.37,7.023 18.96,0 33.48,-1.082 43.59,-3.223 15.91,-3.289 28.67,-9.718 38.28,-19.328 7.58,-7.711 13.88,-18.133 18.94,-31.261 l -73.13,-7.211 c -3.93,13.523 -14.41,20.281 -31.46,20.281 -16.67,0 -25.02,-5.309 -25.02,-15.918 0,-6.692 5.5,-11.492 16.49,-14.402 3.42,-0.879 11.42,-2.079 24.06,-3.59 20.97,-2.41 36.63,-5.258 47,-8.532 17.92,-5.558 30.95,-14.148 39.04,-25.769 6.55,-9.598 9.84,-20.149 9.84,-31.649 0,-27.55 -14.53,-47.5503 -43.56,-60.0698 -15.17,-6.5704 -35.78,-9.8516 -61.79,-9.8516 -29.18,0 -51.67,3.3516 -67.45,10.043 -21.87,9.3476 -35.57,26.1484 -41.13,50.3984" /><path
         id="path46"
         style="fill:#1a67bb;fill-opacity:1;fill-rule:nonzero;stroke:none"
         d="m 2642.55,277.781 h 77.31 V 76.5586 h -77.31 z m 0,76.551 h 77.31 v -52.48 h -77.31 v 52.48" /><path
         id="path48"
         style="fill:#1a67bb;fill-opacity:1;fill-rule:nonzero;stroke:none"
         d="m 2861.97,354.332 v -76.551 h 42.44 v -56.269 h -42.44 V 150.07 c 0,-8.582 0.81,-14.281 2.47,-17.058 2.51,-4.301 6.93,-6.442 13.25,-6.442 5.68,0 13.65,1.649 23.88,4.93 l 5.68,-53.25 C 2888.17,74.082 2870.36,72 2853.82,72 c -15.81,0 -28.04,1.6484 -36.76,4.9414 -12.02,4.5391 -20.6,12.8789 -25.77,25.0076 -4.43,9.973 -6.63,26.211 -6.63,48.692 v 70.871 h -28.42 v 56.269 h 28.42 v 36.949 l 77.31,39.602" /><path
         id="path50"
         style="fill:#1a67bb;fill-opacity:1;fill-rule:nonzero;stroke:none"
         d="m 3086.13,194.98 c -2.79,27.79 -15.35,41.68 -37.72,41.68 -12.12,0 -21.92,-4.859 -29.36,-14.59 -4.69,-6.191 -7.67,-15.218 -8.91,-27.09 z m 78.44,-36.96 h -154.62 c 1.38,-12.258 4.73,-21.461 10.05,-27.668 7.57,-8.711 17.3,-13.051 29.17,-13.051 7.69,0 14.9,1.879 21.61,5.679 4.03,2.27 8.52,6.5 13.44,12.7 l 75.99,-7.032 C 3147.57,106.551 3131.9,91.25 3113.22,82.8086 3097.17,75.6016 3075.25,72 3047.47,72 c -23.87,0 -43.15,3.0391 -57.79,9.1016 -17.69,7.1875 -32.02,19.8864 -43.01,38.0784 -10.12,16.3 -15.17,35.5 -15.17,57.609 0,33.223 10.73,59.359 32.23,78.449 20.57,18.051 47.74,27.094 81.46,27.094 52.92,0 88.36,-17 106.3,-50.973 8.72,-16.55 13.08,-38.097 13.08,-64.621 v -8.718" /><path
         id="path52"
         style="fill:#1a67bb;fill-opacity:1;fill-rule:nonzero;stroke:none"
         d="m 3186.55,132.25 76.55,7.219 c 5.94,-16.938 17.92,-25.41 36,-25.41 7.45,0 14.02,1.332 19.71,3.98 7.31,3.422 10.99,8.402 10.99,14.973 0,5.57 -2.92,9.847 -8.72,12.886 -4.17,2.141 -15.24,4.801 -33.16,7.961 -23.63,4.161 -38.55,7.211 -44.72,9.102 -16.81,5.18 -29.25,13.187 -37.33,24.051 -7.19,9.476 -10.8,20.289 -10.8,32.41 0,27.027 14.46,45.66 43.39,55.887 13.52,4.679 31.64,7.023 54.39,7.023 18.94,0 33.46,-1.082 43.58,-3.223 15.91,-3.289 28.66,-9.718 38.27,-19.328 7.58,-7.711 13.9,-18.133 18.95,-31.261 l -73.14,-7.211 c -3.92,13.523 -14.4,20.281 -31.45,20.281 -16.67,0 -25.01,-5.309 -25.01,-15.918 0,-6.692 5.49,-11.492 16.48,-14.402 3.42,-0.879 11.43,-2.079 24.06,-3.59 20.96,-2.41 36.63,-5.258 47,-8.532 17.92,-5.558 30.94,-14.148 39.03,-25.769 6.56,-9.598 9.85,-20.149 9.85,-31.649 0,-27.55 -14.53,-47.5503 -43.58,-60.0698 -15.16,-6.5704 -35.75,-9.8516 -61.77,-9.8516 -29.18,0 -51.67,3.3516 -67.46,10.043 -21.87,9.3476 -35.57,26.1484 -41.11,50.3984" /></g></g></svg>