<?xml version="1.0" encoding="UTF-8"?>
<svg xmlns="http://www.w3.org/2000/svg" version="1.1" viewBox="0 0 992.1 168.3">
  <defs>
    <style>
      .cls-1 {
        fill: #fff;
      }
    </style>
  </defs>
  <!-- Generator: Adobe Illustrator 28.6.0, SVG Export Plug-In . SVG Version: 1.2.0 Build 709)  -->
  <g>
    <g id="Layer_1">
      <path class="cls-1" fill="#FFFFFF" d="M0,4.9c.3,0,.6,0,.9,0,0,17.3.1,34.5.1,51.7,0,15.2-.1,30.5-.2,45.7-.3,0-.5,0-.8,0V4.9Z"/>
      <g>
        <path class="cls-1" fill="#FFFFFF" d="M199.9,34.1c5.1,0,10.3,0,15.6,0,1.7,0,1.7.2,2.6,4.5,6.4-5.5,13.8-6.6,21.8-5.6,16.3,2.2,25.9,11.1,28.9,27.3,1.6,8.5,1.8,17.1.3,25.8-4.5,26.9-28.9,33.1-46,28.5-1.6-.4-3.2-1-5.4-1.7v32.6h-17.5c-.8-3.4-1-104.5-.2-111.5ZM217.5,74.6c0,6,0,12,0,18.1,0,1.9.2,3.5,2.1,4.7,9.6,6.5,26.1,1.2,29.8-9.8,2.5-7.3,2.5-14.8,1.1-22.4-2.2-12.5-13.6-19.5-25.9-15.8-5.5,1.7-7.2,3.8-7.2,9.5,0,5.2,0,10.5,0,15.7Z"/>
        <path class="cls-1" fill="#FFFFFF" d="M108.1,80.2h-53c-1.3,5.7,1.7,12.4,7.3,16.3,8.2,5.8,20.4,4.8,31.9-2.8,2.3,4.7,4.5,9.3,6.8,14.1-7.3,6.3-16,7.7-24.8,8.1-24.8,1.3-40.7-14-40.9-38.9-.1-13.8,3.3-26,13.9-35.3,11.8-10.4,30-12.1,43.6-4.1,12.6,7.4,19.2,23.5,16.1,38.9-.2,1-.5,2.1-.9,3.6ZM91.5,65.7c-1.9-12-7.8-17.4-18.4-17.2-9.7.2-16.4,6.6-17.8,17.2,12,0,23.9,0,36.2,0Z"/>
        <path class="cls-1" fill="#FFFFFF" d="M163.8,61.9c-.1-7-3.2-11-9.8-12.6-8.1-1.9-15.9-.4-23.7,2.7-1.1-4-2.1-7.8-3.2-11.7-.6-2.1-.3-3.3,2-4.2,12.2-4.5,24.4-4.9,36.7-.5,7.7,2.8,12,8.8,14.1,16.5,2,7.2,2.1,14.6,2.3,22,.2,7.7-.4,15.4.4,23.1.5,4.7,1.8,9.1,5.3,12.4-5,9.4-14,8.6-22.2-2-8.4,8.1-18.6,9.8-29.5,7.2-8.7-2.1-14.8-7.4-16.7-16.6-2.2-10.8-.7-20.8,8.1-28.2,10.5-8.9,23-9.5,36.2-8.2ZM164.3,83c-1-1.8,1.9-5.7-1.8-6.4-7.2-1.4-14.5-1.1-20.9,3.2-4.3,2.9-6,9.1-4.3,14.5,1.3,4.1,4.8,6.3,10.6,6.5,10.9.3,16.3-5.4,16.4-17.8Z"/>
        <path class="cls-1" fill="#FFFFFF" d="M.8,102.3c0-15.2.2-30.5.2-45.7,0-17.2,0-34.5-.1-51.7C6.3,2.3,12.4,1.8,18,0c1,1.9.5,3.6.5,5.3,0,27.5,0,55,0,82.4,0,1.7,0,3.4.1,5.1.5,6.2,1.8,11.9,8,14.9-3.3,6.3-9.6,9.4-16.2,8.1-5.9-1.1-8.6-5.1-9.6-13.5Z"/>
        <path class="cls-1" fill="#FFFFFF" d="M316.5,87.8c1.1-8.7-9.5-12.3-19.6-5.7-.3-.1-.7-.2-.8-.4-3.5-6.2-3.1-7,3.7-9.1,4.2-1.3,8.5-1.3,12.8-.7,7,1.1,10.7,5.1,12,12.2,1.1,6.1.4,12.3.5,18.5.1,3.5-.3,7.1,2.7,9.9,1.1,1,.8,2.5.2,4.2-4.4.5-8-.8-10.4-5-3.5,3.6-7.8,5.1-12.6,5.2-6.1.1-10.8-2.7-13-7.8-2.2-5.2-1-11.3,3.2-15.3,4.9-4.7,10.9-6.2,17.4-5.9,1.2,0,2.4.8,3.8,0ZM317.1,100c-.8-1.7,1.7-4.7-2.1-5.8-4.6-1.3-11.4.8-14.2,4.6-3.1,4.3-1.7,10,2.9,11.4,6.8,2.1,13.5-2.8,13.5-10.2Z"/>
        <path class="cls-1" fill="#FFFFFF" d="M504.5,87.8c1.3-8.1-8.2-12.4-19.8-5.8-1.8-1.5-2.3-3.8-3.3-5.7,5.5-5.9,19.4-5.6,24.5-2.5,4.6,2.7,6.5,6.9,6.8,11.9.3,5.8.3,11.7.4,17.6,0,3.3,0,6.5,2.5,9.1,1.1,1.1,1.1,2.7.4,3.9-.7,1.3-2.2.6-3.4.5-3-.3-5.1-2-6.9-4.6-3.8,2.7-7.9,4.8-12.7,4.9-6.1,0-10.9-2.7-13-7.7-2.3-5.4-1-11.5,3.5-15.7,4.8-4.5,10.7-5.9,17.1-5.7,1.3,0,2.7,1,3.9-.1ZM505,99.9c-.7-1.6,1.6-4.9-2.6-5.8-4.9-1.1-11.1,1.1-13.9,5.2-3.1,4.5-1.4,9.8,3.5,11.1,6.8,1.8,13-2.9,13.1-10.4Z"/>
        <path class="cls-1" fill="#FFFFFF" d="M596,88.4c.5-9.9-7.4-12.3-19.6-6.5-1.6-1.7-2.4-3.8-3.3-6.2,7.5-4.9,15.3-5.6,23.4-2.5,5.4,2,7.5,6.7,7.9,12.1.4,5.7.3,11.4.4,17.1,0,3.6-.2,7.1,2.6,10,1.1,1.1.8,2.6.2,4.2-4.3.6-7.7-.7-10.2-4.6-3.7,3-7.7,4.8-12.3,5-6.3.3-11.3-2.7-13.4-7.8-2.2-5.5-.7-11.9,4-16,5.8-5,12.6-6,20.3-4.8ZM596.8,99.9c-.9-1.3,1.4-4.1-1.7-5.5-5.7-2.6-15,2.1-16.2,8.2-.7,3.6,1.3,6.8,4.8,7.7,6.8,1.8,13-2.9,13-10.5Z"/>
        <path class="cls-1" fill="#FFFFFF" d="M371.9,116.3c-3.3-1.1-7.8,2.3-8.5-4-4.1,2.3-8,4.9-12.9,4.7-7.8-.3-13.5-5.1-13.7-12.8-.4-10.5,0-21,0-31.4.7-.2,1.1-.4,1.5-.5q6.5-.5,6.5,5.8c0,7.4,0,14.8,0,22.2.1,6.7,2.8,9.6,8.6,9.6,6.5,0,10.5-4,10.6-10.2,0-7.4,0-14.8,0-22.2q0-5.5,5.7-5.3c.7,0,1.5.2,2.4.3,0,14.5,0,28.8,0,43.8Z"/>
        <path class="cls-1" fill="#FFFFFF" d="M413.7,78.2v-5.6c4.1.3,5.4-1.7,4.9-5.5-.8-6,4.7-4.7,8.3-7.2,0,3.5.1,6.2,0,8.9-.1,2.6,1,3.6,3.6,3.5,2.6-.1,5.2,0,7.7,0,.7,2.2.5,4,.2,5.9-2.2,1.1-4.6.6-6.8.5-3.5-.2-5,.7-4.8,4.6.3,5.7,0,11.4.1,17.1,0,8.3,3.3,10.9,11.4,9.1.7-.2,1.4-.7,2.3-.2,1,1.9.9,4,1,6.6-2.2.3-4.5.9-6.7,1-10.8.8-16.2-4.3-16.3-15.1,0-6,0-12,0-18q0-4.6-4.8-5.6Z"/>
        <path class="cls-1" fill="#FFFFFF" d="M382.3,106c3.9,2.1,7.3,4.4,11.6,4,2.5-.2,4.5-1.1,5.4-3.6.9-2.5,0-4.5-1.8-6.3-1.6-1.5-3.5-2.5-5.5-3.4-2.8-1.3-5.6-2.5-8-4.6-3.6-3.2-5.2-7.2-4-12,1.3-5,5-7.4,9.6-8.2,5.6-1,11,0,16.2,2.9-.7,2.3-1.3,4.4-2.1,6.9-3.2-1.4-6.1-3.4-9.6-3.2-2.6.2-5.1.7-5.8,3.6-.7,2.8.8,4.8,3.1,6.1,3,1.6,6.1,2.9,9.1,4.5,6,3.2,8.3,7.9,7.3,14.1-.9,5.1-4.7,8.6-10.9,9.8-4.5.9-8.8.3-13.2-1.1-3.6-1.1-4.9-2.7-2.8-6.2.5-.9.8-2,1.4-3.4Z"/>
        <path class="cls-1" fill="#FFFFFF" d="M541.1,116.8c-11,.2-15.5-4.2-15.5-13.8,0-14.7,0-29.3,0-44,0-3.1.6-4.3,4-4.3,3.7,0,3.8,1.6,3.8,4.5,0,13.7,0,27.5,0,41.2,0,4.3.9,7.7,5.7,9.4,3.7,1.2.5,4.5,2.1,7Z"/>
        <path class="cls-1" fill="#FFFFFF" d="M457.3,116h-7c-1.2-1.8-.7-3.7-.7-5.4,0-10.6,0-21.3,0-31.9s0-6.5,7-6.1c1.5,1.1.2,2.9,1.6,4.8,4.4-5.9,10.4-6.8,17.4-5.2-.1,2.8-1.5,4.9-2.6,7.2-9.9-2.2-15.3,2.1-15.5,12.6-.2,7.8,0,15.7,0,23.9Z"/>
        <path class="cls-1" fill="#FFFFFF" d="M560.8,116.1c-2.8,0-5.1.5-7.8-.4v-26.7c0-1.5-.2-3.1,0-4.6.6-4.2-.9-6.1-5.3-5.2-1.2-2.2-.4-4.3-.6-6.6h13.7c0,14.6,0,28.9,0,43.6Z"/>
        <path class="cls-1" fill="#FFFFFF" d="M602.7,136.5c1.3-3.5-2.1-9.5,5.5-9v32.1c-3.9-.4-7.7.2-11.4,0-6.5-.4-10.1-8.3-7.5-16,1.9-5.6,5.4-7.5,13.5-7.2ZM603.3,148.3c-.9-2.5,2-7-3.6-7.2-3.4,0-5.6,2.8-5.7,7s2.1,7,5.6,7c5.4,0,3-4.2,3.7-6.8Z"/>
        <path class="cls-1" fill="#FFFFFF" d="M487.5,137c3.7-.2,7.1-.6,10.6-.6,7.2.2,11.1,7.5,8.7,16-1.3,4.6-4.6,7.1-9.4,7.3-1.5,0-3,0-4.8,0v8c-1.8.7-3.4.7-5,0,0-10.3,0-20.6,0-30.8ZM492.4,148c1.2,2.3-2.4,7,3.6,7.1,4,0,5.8-2.4,5.8-7.2,0-4.6-1.9-6.8-5.7-6.8-5.4,0-3,4.2-3.7,6.9Z"/>
        <path class="cls-1" fill="#FFFFFF" d="M524.9,137.1c4.1-1.5,5.9.2,7,3.8.9,3.2,2.3,6.2,3.8,10,2.2-3.7,3.1-7.1,4-10.3,1-3.7,2.9-4.7,6.7-3.4-3.2,8.9-6.2,17.7-9.6,26.4-1.2,3-4.4,4.3-9,4.3-.6-1.3-.4-2.7-.2-4,6.2-1.9,6.5-2.5,4.4-8.3-2.2-6.2-4.6-12.3-7-18.4Z"/>
        <path class="cls-1" fill="#FFFFFF" d="M517.4,136.7h5.2c.7,1.6.8,2.9,0,4.5h-5.3c0,3.1,0,6,0,8.9,0,4.9.8,5.4,6.2,4.3-.2,1.9,1.7,4.3-1.6,5.2-4.7,1.3-8.9-.6-9.5-4.6-.5-3.2-.2-6.4-.4-9.7,0-1.6,1.1-3.9-1.9-4.4-.3,0-.5-1.4-.5-2.1,0-2.6,4.4-7.6,7.4-8.4,0,1.1.1,2.1.2,3.2,0,.9,0,1.8,0,3Z"/>
        <path class="cls-1" fill="#FFFFFF" d="M579.3,130.6v5.4c1.7,1.5,3.7.3,5.5,1,.7,1.2.6,2.6.1,4.1-1.6,0-3.3.2-5.2.3-.8,3.6-.6,7.2-.2,10.9.5,4.2,3.4,2.9,6.2,2.2-.3,1.9,1.6,4.3-1.7,5.2-4.5,1.2-8.3-.4-9.5-4.2-1.1-3.4-.3-7-.6-10.5-.1-1.5,1-3.5-1.8-3.9-.8-.1-.7-1.3-.7-2,0-2.6,4.4-7.6,7.7-8.4Z"/>
        <path class="cls-1" fill="#FFFFFF" d="M567.5,126.5c0,8.7,0,16.6,0,24.4,0,1.7-.3,3.4.8,4.9,1,1.4,1.8,2.7-.4,3.5-1.8.7-3.7.9-4.9-1.1-.4-.6-.6-1.5-.6-2.2,0-8.6-.1-17.2,0-25.8,0-3.4,3.1-2,5.1-3.7Z"/>
        <g>
          <path class="cls-1" fill="#FFFFFF" d="M992.1,54c-5.3-2-10.8-.2-16.4-1.3-.7,5.6-1.3,10.7-2,16.5-2.2-2.6-3.9-4.7-5.6-6.7-1.2-2.2-2.6-4.1-4.5-5.9-2.6.7-4.5,2.6-6.8,3.9-2.2,1.2-4.1,3-7.2,3.9.6-2.5,1.1-4.5,1.6-6.6q2.3-9.2-7-12c-1.9-.8-3.9-1.5-6.4-2.5,5.2-2.4,10-4.6,15-6.9-1.8-5.1-3.5-10-5.5-15.7,5.3,2.7,10,5,14.9,7.5,2.9-4.5,5.7-8.9,8.9-14,1.2,5.8,2.3,10.9,3.4,16.3,5.3-.6,10.4-1.1,16.5-1.8-3.9,4.7-7.2,8.6-10.6,12.8,4.1,3.5,7,7.9,11.5,10.7,0,.6,0,1.2,0,1.9Z"/>
          <path class="cls-1" fill="#FFFFFF" d="M944.3,45.8q9.2,2.8,7,12c-.5,2-1,4.1-1.6,6.6,3-.9,4.9-2.7,7.2-3.9,2.3-1.2,4.2-3.1,6.8-3.9,1.8,1.8,3.3,3.7,4.5,5.9-11.2,19-23.2,37.4-37.7,54.1-7.6,8.8-15.8,17.1-25.3,23.8-1.6-1.3-1-3.1-1-4.7-.3-10.5.7-21.1-.9-31.6,15.6-18.1,29-37.8,41.2-58.3Z"/>
          <path class="cls-1" fill="#FFFFFF" d="M695.4,92.6c-3,4.7-7.5,7.9-10.9,12.2-8.5,10.4-15.5,21.7-21.9,33.4-.5.9-1.1,1.8-2,3.3-4.2-3.7-8.1-7.2-12-10.8-.8-.7-1.6-1.5-2.3-2.2-7.2-6.9-7.2-6.9-2.3-15.5,9-16,19.6-30.7,34.1-42.2,5.3-4.2,10.6-8.4,17.3-10.2,0,10.7,0,21.3,0,32Z"/>
          <path class="cls-1" fill="#FFFFFF" d="M903.2,104.2c1.6,10.5.6,21,.9,31.6,0,1.6-.5,3.4,1,4.7-18.5,14.4-34.1,17.6-54.3,7.9-12.6-6.1-23.8-14.2-34.4-23.2-6.7-5.7-12.9-11.9-19.1-18.2-1.1-1.1-2.5-1.9-2.7-3.6,0-1.3,0-2.6,0-3.9,7.7,7.1,14.8,14.8,22.6,21.8,18.2,16.4,37.4,16.2,58.4,5.2,8.8-4.6,16.2-11.1,23.1-18.3,1.4-1.4,2.6-3.1,4.4-4Z"/>
          <path class="cls-1" fill="#FFFFFF" d="M695.4,92.6c0-10.7,0-21.3,0-32,19.2-8.6,38.2-8.3,56.8,1.9,7.7,4.3,14.8,9.5,21.2,15.6-.2,1.6.5,3.7-2.1,4-18.1-11.3-36.8-11.7-55.9-2.9-7.4,3.4-13.9,8.2-20,13.5Z"/>
          <path class="cls-1" fill="#FFFFFF" d="M771.3,82c2.6-.3,1.9-2.4,2.1-4,3.5,1.3,5.4,4.5,7.8,6.9,4.6,4.7,9.5,9.1,13.5,14.4,0,1.3,0,2.6,0,3.9-7.8-7.1-15.5-14.2-23.3-21.3Z"/>
        </g>
        <path class="cls-1" fill="#FFFFFF" d="M555,59.7c-3.2,0-5.9-2.6-5.9-5.8,0-3,2.9-6,5.9-6.1,3.4,0,6.1,2.7,6,6.2-.1,3.4-2.5,5.7-6,5.7Z"/>
      </g>
    </g>
  </g>
</svg>