<?xml version="1.0" encoding="utf-8"?>
<!-- Generator: Adobe Illustrator 26.5.0, SVG Export Plug-In . SVG Version: 6.00 Build 0)  -->
<svg version="1.1" id="Layer_1" xmlns="http://www.w3.org/2000/svg" xmlns:xlink="http://www.w3.org/1999/xlink" x="0px" y="0px"
	 viewBox="0 0 595.28 841.89" style="enable-background:new 0 0 595.28 841.89;" xml:space="preserve">
<g>
	<path d="M91.44,673.65c-1.1-0.69-1.67-1.63-1.53-2.98c0.08-0.71,0.01-1.44,0.01-2.16c0-163.68,0-327.35,0.01-491.03
		c0-1.44-0.02-2.9,0.21-4.3c0.42-2.54,1.99-3.7,4.56-3.57c0.48,0.02,0.96,0.08,1.43,0.15c2.62,0.4,3.06,0.89,3.06,3.58
		c0.01,19.68,0,39.36,0,59.04c0,144.56,0,289.11,0,433.67c0,0.56-0.01,1.12,0,1.68c0.04,2.21-0.44,4.25-1.99,5.93
		C95.28,673.65,93.36,673.65,91.44,673.65z"/>
	<path d="M1197.84,594.93c-1.62,5.3-6.15,6.83-10.76,7.99c-5.79,1.46-11.42,0.6-16.76-1.99c-4-1.94-6.68-7.28-5.95-11.64
		c0.2-1.2,0.85-1.79,2.1-1.92c1.25-0.13,2.22,0.43,2.57,1.6c0.34,1.14,0.55,2.33,0.87,3.48c0.72,2.57,2.3,4.4,4.91,5.09
		c4.72,1.24,9.48,1.45,14.12-0.33c1.08-0.41,2.14-1.14,2.94-1.98c3.03-3.15,2.02-8.36-2.06-9.91c-2.51-0.96-5.25-1.29-7.88-1.93
		c-3.25-0.79-6.57-1.38-9.71-2.47c-4.37-1.52-6.43-4.92-6.63-9.55c-0.16-3.84,0.82-7.1,3.88-9.57c2-1.61,4.4-2.33,6.85-2.62
		c3.81-0.45,7.64-0.5,11.42,0.45c6.49,1.64,9.8,6.08,9.51,12.77c-0.07,1.64-0.44,2.09-1.83,2.26c-1.69,0.19-2.88-0.46-3.15-1.84
		c-0.14-0.7-0.05-1.44-0.13-2.15c-0.27-2.46-1.31-4.47-3.63-5.54c-3.91-1.79-8.03-2.13-12.13-1c-1.61,0.44-3.18,1.52-4.45,2.65
		c-2.49,2.21-2.47,5.11-0.28,7.63c1.26,1.45,2.8,2.35,4.67,2.73c3.2,0.64,6.41,1.27,9.62,1.91c0.86,0.17,1.72,0.34,2.57,0.55
		c4.32,1.08,7.74,3.25,9.33,7.66C1197.84,589.81,1197.84,592.37,1197.84,594.93z"/>
	<path d="M-254.94,194.07c4.37,0.29,8.74,0.63,13.12,0.86c5.26,0.27,10.52,0.45,15.78,0.68c3.19,0.14,6.38,0.24,9.56,0.46
		c2.84,0.2,3.34,0.93,2.62,3.66c-2.79,10.49-5.6,20.97-8.41,31.46c-1.08,4.01-2.21,8-3.26,12.01c-0.86,3.28,0.01,4.54,3.44,5.06
		c6.46,0.99,12.93,1.9,19.39,2.92c10.24,1.61,20.47,3.27,30.7,4.92c0.39,0.06,0.77,0.18,1.16,0.29c2.29,0.61,2.79,1.2,2.53,3.55
		c-0.19,1.74-0.62,3.45-0.97,5.17c-3.45,17.29-6.9,34.58-10.34,51.87c-0.85,4.28-0.4,4.87,3.96,5.74
		c15.02,2.98,30.04,5.99,45.07,8.98c5.87,1.17,11.73,2.34,17.62,3.41c3.21,0.58,4.37,1.93,4.18,5.79
		c-0.28,5.65-0.63,11.3-0.93,16.95c-0.28,5.25-0.57,10.51-0.83,15.76c-0.22,4.54-0.4,9.09-0.62,13.63
		c-0.28,5.73-0.6,11.46-0.86,17.2c-0.22,4.7-0.46,9.41-0.54,14.11c-0.05,2.87-1.03,4.94-3.53,6.58
		c-20.25,13.28-40.45,26.65-60.65,39.99c-9.74,6.43-19.5,12.82-29.18,19.35c-2.77,1.87-5.29,2.04-8.26,0.54
		c-14.76-7.47-29.57-14.83-44.37-22.22c-4.22-2.1-8.47-4.14-12.69-6.24c-3.68-1.83-4.31-3.17-3.31-7.08
		c6.22-24.36,12.45-48.72,18.68-73.08c0.02-0.08,0.06-0.15,0.07-0.23c0.85-4.34-0.18-4.75-3.16-5.76c-5.97-2.02-12-3.89-17.99-5.86
		c-8.19-2.69-16.38-5.4-24.57-8.1c-0.61-0.2-1.22-0.37-1.82-0.6c-2.88-1.1-3.61-2.35-2.84-5.36c2.03-7.88,4.12-15.75,6.2-23.62
		c2.5-9.49,5.01-18.99,7.49-28.48c0.87-3.33,0.05-4.85-3.21-5.74c-10.16-2.78-20.33-5.53-30.51-8.23c-4.6-1.22-5.16-2.07-3.62-6.52
		c4.47-12.9,8.97-25.79,13.46-38.68c0.75-2.16,1.97-3.96,3.85-5.36c7.37-5.49,14.72-11.01,22.04-16.55
		c8.79-6.66,17.6-13.29,26.28-20.07C-261.41,195.01-258.5,193.76-254.94,194.07z"/>
	<path d="M-280.99,385.59c-0.06,0.29-0.19,1-0.37,1.69c-4.36,16.93-8.73,33.86-13.08,50.8c-1.63,6.34-3.3,12.67-4.77,19.05
		c-0.73,3.16-2.34,5.42-5.06,7.19c-18.41,12.01-36.77,24.09-55.15,36.17c-3.41,2.24-6.85,4.44-10.16,6.81
		c-2.92,2.09-5.61,2.1-8.59,0.07c-11.95-8.15-23.98-16.2-35.96-24.32c-4.17-2.83-5.23-2.85-9.43,0.05
		c-16.57,11.45-33.15,22.88-49.73,34.32c-2.24,1.54-4.46,3.1-6.71,4.63c-2.66,1.81-4.51,4.2-5.63,7.24
		c-8.44,22.85-16.98,45.65-25.33,68.53c-1.65,4.51-4.3,7.81-8.3,10.42c-15.46,10.1-30.81,20.36-46.2,30.57
		c-2.86,1.9-5.69,3.86-8.56,5.75c-2.99,1.96-4.11,1.75-6.11-1.19c-4.99-7.34-9.95-14.7-14.93-22.04c-1.7-2.51-3.43-5.01-5.16-7.51
		c-1.02-1.47-1.32-2.85-0.52-4.67c5.46-12.51,10.8-25.08,16.19-37.63c3.84-8.95,7.75-17.88,11.53-26.86
		c1.29-3.06,3.28-5.36,5.97-7.28c17.11-12.21,34.16-24.49,51.23-36.75c2.54-1.82,4.31-4.18,5.52-7.07
		c7.91-18.94,15.89-37.85,23.82-56.77c1.28-3.05,3.33-5.39,6.07-7.22c13.28-8.9,26.54-17.83,39.81-26.76
		c2.12-1.43,4.21-2.91,6.31-4.36c2.8-1.93,5.73-2.21,8.85-0.83c8.69,3.83,17.4,7.64,26.1,11.46c0.15,0.06,0.3,0.11,0.44,0.2
		c3.4,2.03,6.3,1.35,9.45-0.99c18.45-13.75,37.03-27.33,55.55-40.99c2.38-1.75,4.81-2.19,7.64-1.15
		c9.89,3.63,19.82,7.17,29.75,10.72c3.76,1.34,7.56,2.59,11.32,3.91c0.9,0.31,1.8,0.68,2.61,1.17
		C-281.39,382.64-280.83,383.76-280.99,385.59z"/>
	<path d="M-14.04,528.66c0,16.88-0.07,33.75,0.06,50.63c0.03,3.47-1.28,5.68-4.21,7.39c-10.28,5.99-20.49,12.11-30.73,18.17
		c-13.47,7.98-26.95,15.95-40.41,23.94c-10.3,6.12-20.59,12.26-30.89,18.38c-0.41,0.24-0.85,0.44-1.26,0.7
		c-2.23,1.39-4.32,1.18-6.48-0.28c-6.95-4.7-13.95-9.34-20.94-13.98c-15.92-10.55-31.85-21.1-47.78-31.64
		c-2.47-1.63-4.93-3.27-7.43-4.84c-2.93-1.84-3.85-4.37-3.27-7.78c3.14-18.23,6.21-36.47,9.26-54.72
		c1.63-9.75,3.24-19.51,4.75-29.28c0.36-2.34,1.51-3.98,3.37-5.25c3.24-2.21,6.47-4.41,9.72-6.6c14.7-9.94,29.41-19.85,44.1-29.8
		c8.93-6.05,17.88-12.08,26.72-18.26c3.31-2.31,6.53-2.73,10.37-1.42c26.76,9.11,53.56,18.1,80.35,27.13
		c0.83,0.28,1.63,0.65,2.42,1.03c1.32,0.65,2.04,1.78,2.21,3.22c0.09,0.79,0.08,1.6,0.08,2.39
		C-14.03,494.74-14.04,511.7-14.04,528.66z"/>
	<path d="M791.68,475.11c-3.07,0.33-5.91,0.66-8.74,0.08c-2.05-0.41-3.26-1.92-4.11-3.72c-2.09-4.4-4.19-8.8-6.23-13.23
		c-5.82-12.62-11.62-25.25-17.4-37.89c-6.41-14.02-12.79-28.05-19.18-42.08c-1.06-2.33-2.14-4.64-3.2-6.97
		c-1.25-2.76-3.22-4.23-6.4-4.01c-5.25,0.38-10.5,0.68-15.76,0.93c-3.19,0.15-6.39,0.19-9.59,0.2c-11.2,0.02-22.4,0.03-33.6,0
		c-7.76-0.02-15.51-0.07-23.27-0.16c-4.54-0.05-9.09-0.25-13.63-0.3c-4.26-0.04-6,1.68-5.92,5.97c0.06,3.19,0.58,6.37,0.58,9.55
		c0.05,28.96,0.03,57.91,0.03,86.87c0,4.59-0.52,5.11-5.08,5.11c-0.16,0-0.32,0-0.48,0c-4.21-0.01-4.97-0.78-4.97-5.1
		c0-47.99,0-95.99,0-143.98c0-35.36,0-70.71,0.01-106.07c0-0.88-0.03-1.77,0.13-2.62c0.36-1.98,1.26-2.72,3.25-2.84
		c0.56-0.03,1.12-0.01,1.68-0.01c28.08,0,56.15-0.03,84.23,0.02c5.91,0.01,11.82,0.17,17.72,0.48c12.51,0.66,24.5,3.3,35.47,9.67
		c10.46,6.06,18.24,14.65,23.91,25.24c5.29,9.87,8.08,20.44,8.8,31.59c0.92,14.22,0.04,28.25-4.79,41.8
		c-5.57,15.63-15.47,27.63-30.22,35.42c-2.67,1.41-5.58,2.36-8.39,3.52c-0.74,0.3-1.51,0.54-2.22,0.89
		c-2.08,1.02-2.55,2.11-1.61,4.26c1.77,4.02,3.63,8,5.47,11.99c5.55,12.04,11.12,24.07,16.67,36.12
		c5.72,12.4,11.43,24.81,17.12,37.22c2.96,6.46,5.9,12.94,8.82,19.41C791.13,473.26,791.34,474.1,791.68,475.11z M674.31,224.69
		c-14.64,0-29.27,0-43.91,0c-0.64,0-1.28-0.02-1.92,0.01c-2.42,0.12-3.08,0.69-3.47,3.05c-0.14,0.86-0.27,1.74-0.25,2.61
		c0.05,2.39,0.26,4.78,0.26,7.17c0.02,34.31,0.02,68.62,0,102.93c0,2.95-0.2,5.9-0.26,8.85c-0.04,1.76-0.1,3.53,0.05,5.27
		c0.26,2.96,1.16,3.83,4.1,3.84c9.68,0.04,19.35,0.01,29.03,0.01c8.55,0,17.1,0.06,25.65-0.01c12.55-0.1,25.1-0.12,37.63-0.52
		c8.45-0.27,16.59-2.36,24.39-5.64c8.97-3.77,16.46-9.47,22.19-17.36c8.42-11.59,11.77-24.85,12.38-38.92
		c0.3-6.88-0.26-13.72-1.34-20.52c-1.31-8.21-3.76-16.04-8.17-23.13c-7.55-12.11-18.33-20.05-31.93-24.23
		c-8.65-2.66-17.55-3.35-26.52-3.4C699.59,224.64,686.95,224.69,674.31,224.69z"/>
	<path d="M1108.03,479.5c-14.72-0.19-29.15-2.07-43.11-6.88c-9.79-3.38-18.65-8.42-26.06-15.73c-6.88-6.78-11.84-14.83-15.12-23.91
		c-3.39-9.38-5.23-19.06-5.51-29.04c-0.04-1.27-0.38-2.53-0.44-3.8c-0.1-2.33,0.75-3.46,3.06-3.81c1.57-0.24,3.19-0.23,4.78-0.13
		c1.73,0.11,2.69,1.43,2.81,3.57c0.18,3.11,0.22,6.22,0.5,9.32c1.11,11.97,4.52,23.15,11.48,33.1c6.68,9.55,15.7,16.03,26.47,20.17
		c7.87,3.03,16.08,4.75,24.4,5.84c4.26,0.56,8.57,0.81,12.87,1.04c15.92,0.86,31.46-1.44,46.22-7.3
		c20.46-8.13,32.82-23.35,36.43-45.14c2.69-16.21-1.76-30.72-12.2-43.3c-6.01-7.24-13.85-11.97-22.66-15.14
		c-6.87-2.47-14.01-3.82-21.12-5.3c-15.71-3.25-31.44-6.41-47.17-9.6c-7.13-1.45-14.19-3.08-21-5.72
		c-8.98-3.47-17.15-8.25-24.02-15.01c-6.51-6.39-11.04-14.1-13.49-22.88c-4.24-15.2-4.52-30.43,0.59-45.51
		c4.64-13.68,13.37-24.02,26.02-31.03c10.2-5.65,21.22-8.74,32.68-10.45c6.08-0.91,12.2-1.33,18.35-1.58
		c14.14-0.58,28.05,0.78,41.68,4.59c8.13,2.27,15.77,5.72,22.62,10.74c10.38,7.61,17.5,17.61,21.68,29.75
		c2.35,6.83,3.82,13.83,4.36,21.04c0.31,4.13,0.8,8.25,1.17,12.37c0.21,2.39-0.96,4.09-3.16,4.25c-1.03,0.07-2.06,0.31-3.09,0.31
		c-3.05,0-4.36-1.28-4.51-4.34c-0.09-1.76-0.1-3.51-0.17-5.27c-0.41-9.9-2.33-19.47-6.4-28.56c-4.86-10.86-12.43-19.24-22.82-25.05
		c-6.27-3.51-12.99-5.82-20.01-7.11c-6.5-1.19-13.05-2.37-19.63-2.83c-14.72-1.02-29.15,0.8-43.25,5.3
		c-7.33,2.34-14.08,5.69-19.94,10.68c-10.06,8.56-16.26,19.43-18.53,32.41c-2.84,16.2,1.06,30.74,11.53,43.43
		c6.17,7.47,14.16,12.3,23.21,15.52c8.24,2.93,16.8,4.49,25.33,6.22c15.1,3.07,30.22,6.01,45.3,9.15
		c8.05,1.68,16.02,3.74,23.57,7.15c12.82,5.79,22.8,14.65,29.2,27.26c3.51,6.91,5.43,14.32,5.99,22.05c0.2,2.78,0.33,5.58,0.32,8.37
		c-0.03,8.84-1.21,17.5-4.24,25.86c-2.48,6.83-6.08,13.01-10.88,18.48c-8.98,10.25-20.42,16.51-33.26,20.41
		c-9.5,2.89-19.21,4.75-29.13,5.37C1115.84,479.09,1111.94,479.29,1108.03,479.5z"/>
	<path d="M418.09,475.39c-2.9,0-5.36,0.09-7.81-0.03c-1.86-0.09-3.39-0.99-4.27-2.68c-0.92-1.77-1.79-3.57-2.55-5.41
		c-8.57-20.83-17.11-41.67-25.65-62.51c-2.2-5.37-2.75-5.76-8.48-5.76c-41.99,0-83.98,0-125.97,0c-0.48,0-0.96,0.02-1.44,0
		c-2.77-0.16-4.54,1.19-5.57,3.67c-1.49,3.62-2.99,7.23-4.47,10.86c-7.71,18.85-15.4,37.71-23.11,56.56c-1.13,2.77-2.75,5.07-6,5.6
		c-0.39,0.06-0.8,0.13-1.19,0.1c-2.05-0.16-4.11-0.34-6.4-0.54c0.19-0.64,0.34-1.3,0.59-1.91c12.29-29.92,24.58-59.84,36.89-89.76
		c8.29-20.17,16.59-40.33,24.89-60.49c11-26.74,22.01-53.47,33-80.21c3.19-7.76,6.36-15.52,9.54-23.28
		c0.09-0.22,0.17-0.45,0.26-0.67c0.91-2.4,2.25-4.17,5.16-4.23c3.21-0.07,5.89,0.67,7.25,3.91c2.58,6.19,5.15,12.39,7.7,18.6
		c8.23,20.02,16.46,40.04,24.68,60.06c6.19,15.07,12.37,30.15,18.57,45.21c8.36,20.31,16.75,40.61,25.11,60.92
		c5.38,13.07,10.74,26.15,16.12,39.23c3.92,9.53,7.86,19.05,11.77,28.58C417.19,472.42,417.53,473.7,418.09,475.39z M306.93,231.27
		c-0.21-0.02-0.42-0.04-0.62-0.06c-21.66,52.63-43.32,105.25-65.13,158.26c1.41,0,2.35,0,3.28,0c40.62,0,81.24,0,121.86,0
		c0.64,0,1.28,0.03,1.92-0.01c2.95-0.17,3.41-0.84,2.48-3.54c-0.13-0.38-0.3-0.74-0.45-1.11c-8.58-20.83-17.15-41.67-25.74-62.5
		c-11.23-27.26-22.47-54.51-33.71-81.77C309.54,237.44,308.22,234.36,306.93,231.27z"/>
	<path d="M916.09,475.47c-24.56,0-49.11-0.02-73.67,0.02c-3.88,0.01-5.88-0.24-5.91-5.95c-0.03-5.6-0.01-11.2-0.01-16.8
		c0.11-72.22,0.22-144.44,0.31-216.67c0.01-5.03-0.22-10.06-0.29-15.09c-0.01-1.03,0.12-2.07,0.3-3.08
		c0.37-2.09,1.24-2.85,3.34-3.02c0.56-0.05,1.12-0.02,1.68-0.02c49.03,0,98.07,0,147.1,0c0.56,0,1.12-0.03,1.68,0.02
		c2.19,0.19,3.15,1.18,3.28,3.35c0.03,0.48,0,0.96,0.01,1.44c0.13,3.85-0.72,5.47-5.56,5.55c-4.32,0.07-8.64,0.02-12.96,0.01
		c-40.79-0.1-81.57-0.19-122.36-0.35c-4.67-0.02-6.19,1.15-6.01,6.04c0.02,0.56,0,1.12,0,1.68c0.11,22.15,0.27,44.29,0.3,66.44
		c0.02,11.75-0.2,23.5-0.29,35.25c-0.01,0.95,0.08,1.92,0.27,2.84c0.42,2.05,1.17,2.71,3.19,2.95c0.63,0.08,1.28,0.06,1.92,0.06
		c15.36,0,30.72,0.02,46.08,0c23.83-0.04,47.67-0.1,71.5-0.15c1.12,0,2.25,0.03,3.34,0.22c1.28,0.21,2.25,0.97,2.38,2.34
		c0.14,1.5,0.28,3.03,0.1,4.5c-0.23,1.85-1.37,2.75-3.25,2.95c-0.79,0.08-1.6,0.03-2.4,0.03c-39.2,0-78.39,0-117.59,0
		c-4.7,0-5.54,0.84-5.55,5.6c-0.01,10.16-0.04,20.32,0.01,30.48c0.06,12.95,0.28,25.9,0.29,38.84c0,11.67-0.2,23.34-0.29,35.01
		c-0.03,4.63,0.94,5.69,5.56,5.76c2.87,0.04,5.74-0.27,8.61-0.28c41.84-0.02,83.67-0.02,125.51,0.02c1.56,0,3.22,0.23,4.64,0.82
		c3.11,1.28,4.16,5.61,2.15,8.32c-0.29,0.39-0.86,0.71-1.35,0.81c-0.69,0.14-1.43,0.06-2.15,0.06
		C965.36,475.47,940.72,475.47,916.09,475.47z"/>
	<path d="M371.66,215.77c0.78-0.4,1.23-0.78,1.73-0.86c5.28-0.86,9.93,0.31,13.25,4.73c2.39,3.19,4.51,6.59,6.68,9.95
		c8.42,13.02,16.78,26.08,25.22,39.09c11.05,17.03,22.15,34.03,33.23,51.05c7.5,11.52,14.98,23.06,22.49,34.58
		c0.56,0.86,1.24,1.63,2.01,2.63c0.49-0.68,0.87-1.15,1.2-1.66c13.55-20.75,27.11-41.49,40.65-62.25
		c8.69-13.32,17.37-26.66,26.02-40.01c6.91-10.67,13.76-21.37,20.65-32.05c0.65-1.01,1.33-2,2.13-2.89c1.7-1.91,3.8-3.22,6.42-3.32
		c2.54-0.09,5.08-0.02,8.15-0.02c-0.74,1.26-1.17,2.08-1.67,2.85c-10.05,15.49-20.1,30.98-30.17,46.46
		c-10.94,16.82-21.89,33.63-32.84,50.44c-9.2,14.13-18.41,28.27-27.61,42.4c-1.83,2.81-3.65,5.63-5.48,8.45
		c-1.66,2.55-2.44,5.36-2.44,8.38c-0.01,26-0.02,52,0.01,77.99c0.01,6.07,0.2,12.14,0.3,18.21c0.01,0.64,0.03,1.29-0.04,1.92
		c-0.33,2.67-1.37,3.58-4.09,3.63c-1.2,0.02-2.41,0.06-3.6-0.05c-1.61-0.14-2.4-0.89-2.78-2.5c-0.18-0.77-0.34-1.57-0.33-2.36
		c0.07-4.47,0.19-8.94,0.29-13.41c0.01-0.56,0.01-1.12,0.01-1.68c0-27.2-0.01-54.4,0.01-81.59c0-3.46-0.9-6.55-2.81-9.47
		c-11.84-18.05-23.6-36.14-35.38-54.23c-10.73-16.48-21.45-32.96-32.17-49.45c-8.97-13.81-17.94-27.62-26.89-41.44
		C373.09,218.2,372.44,217.05,371.66,215.77z"/>
	<path d="M291.96,599.26c-0.86,0.36-1.38,0.54-1.87,0.79c-4.9,2.43-10.03,3.03-15.38,2.03c-6.48-1.22-11.04-6.13-11.44-12.69
		c-0.29-4.69-0.39-9.41-0.31-14.1c0.04-2.2,0.4-4.49,1.11-6.57c1.83-5.37,5.86-8.46,11.29-9.68c5.03-1.12,9.83-0.29,14.33,2.21
		c1.75,0.97,1.98,0.93,2.91-0.49c0.89-1.37,1.64-1.64,3.14-1.28c1.45,0.35,1.51,1.41,1.51,2.59c-0.01,10.72,0.02,21.43-0.02,32.15
		c-0.01,3.83-0.2,7.66-0.3,11.48c-0.13,4.93-2.45,8.64-6.79,10.77c-6.22,3.05-12.71,3.65-19.21,0.78c-3.7-1.64-6.15-4.5-7.27-8.43
		c-0.33-1.15-0.74-2.29-0.89-3.47c-0.2-1.56,0.64-2.36,2.42-2.61c1.61-0.22,2.57,0.32,2.73,1.91c0.64,6.51,4.68,8.68,9.75,9.33
		c2.89,0.37,5.73-0.01,8.45-1.14c3.12-1.29,5.04-3.56,5.75-6.86C292.35,603.86,292.28,601.73,291.96,599.26z M292.54,577.8
		c0.05,0,0.1-0.01,0.15-0.01c-0.17-1.82-0.23-3.67-0.53-5.47c-0.67-4.05-3.01-6.81-6.87-8.19c-3.25-1.16-6.58-1.19-9.91-0.34
		c-4.26,1.09-6.76,3.89-7.39,8.18c-0.89,5.96-0.8,11.95,0,17.91c0.38,2.86,1.86,5.15,4.44,6.48c5.22,2.69,10.48,2.66,15.51-0.46
		c2.91-1.8,4.36-4.7,4.56-8.04C292.7,584.52,292.54,581.16,292.54,577.8z"/>
	<path d="M549.15,599.57c-3.12,0.96-6.01,2.15-9.02,2.71c-4.15,0.78-8.3,0.21-12.16-1.6c-3.61-1.69-5.87-4.6-6.98-8.39
		c-1.29-4.4-1.38-17.18-0.2-21.64c2.29-8.63,9.78-13.52,18.56-12.01c2.84,0.49,5.59,1.3,8.04,2.93c1.37,0.92,1.66,0.78,2.57-0.72
		c0.74-1.22,1.67-1.63,2.97-1.27c0.75,0.21,1.29,0.62,1.28,1.5c0,0.56,0.02,1.12,0.02,1.68c0,9.27,0,18.55,0,27.82
		c0,4.39-0.1,8.79,0.02,13.18c0.2,6.84-4.08,12.92-11.69,14.55c-4.88,1.05-9.7,0.66-14.33-1.24c-5.07-2.09-7.67-6.05-8.18-11.43
		c-0.19-2.02,0.32-2.59,2.29-2.89c1.85-0.29,2.48,0.17,2.97,2.19c1.61,6.54,5.19,9.38,11.75,9.29
		C545.94,614.09,550.76,608.2,549.15,599.57z M524.78,580.49c0.04,0,0.08,0,0.12,0c0,2.23-0.05,4.47,0.01,6.7
		c0.15,5.63,2.96,9.44,7.96,10.54c1.85,0.41,3.8,0.59,5.69,0.48c6.02-0.34,10.47-4.32,11.15-10.24c0.6-5.23,0.66-10.52-0.32-15.73
		c-0.6-3.2-2.35-5.7-5.21-7.4c-2.99-1.77-6.27-1.79-9.53-1.5c-5.46,0.48-8.68,3.45-9.46,8.81
		C524.8,574.89,524.91,577.71,524.78,580.49z"/>
	<path d="M419.08,570.11c-0.46,1.16-0.93,2.31-1.36,3.48c-2.84,7.63-5.69,15.27-8.51,22.91c-0.44,1.2-0.76,2.44-1.17,3.65
		c-0.58,1.7-1.41,2.36-2.91,2.37c-1.53,0.01-2.31-0.65-2.91-2.32c-4.18-11.65-8.36-23.3-12.56-34.94c-0.27-0.74-0.67-1.44-1.04-2.15
		c-0.88-1.68-0.77-2.64,0.41-3.32c1.34-0.78,3.03-0.55,3.84,0.71c0.6,0.93,1.03,1.98,1.41,3.03c3.09,8.48,6.14,16.97,9.23,25.45
		c0.43,1.17,1.01,2.28,1.73,3.89c0.75-1.94,1.35-3.4,1.89-4.88c3.2-8.69,6.36-17.4,9.6-26.08c0.31-0.83,0.92-1.76,1.65-2.18
		c1.38-0.78,2.77,0.03,3.46,1.88c1.43,3.81,2.8,7.65,4.19,11.47c2.02,5.55,4.02,11.11,6.05,16.66c0.35,0.95,0.79,1.86,1.4,3.29
		c1.16-3.06,2.13-5.58,3.05-8.11c2.71-7.43,5.39-14.86,8.08-22.3c0.19-0.53,0.36-1.06,0.61-1.56c0.83-1.63,2.99-2.23,4.53-1.27
		c1.11,0.69,0.73,1.6,0.38,2.53c-0.93,2.47-1.84,4.94-2.75,7.41c-3.6,9.82-7.2,19.64-10.8,29.46c-0.19,0.52-0.39,1.05-0.62,1.56
		c-0.55,1.25-1.55,1.78-2.87,1.74c-1.29-0.03-1.95-0.76-2.38-1.96c-2.35-6.54-4.76-13.05-7.15-19.58
		c-1.32-3.59-2.63-7.19-3.95-10.78C419.44,570.15,419.26,570.13,419.08,570.11z"/>
	<path d="M1100.83,581.13c0-5.91-0.01-11.83,0.01-17.74c0-0.8-0.02-1.62,0.17-2.38c0.43-1.68,1.99-2.39,3.28-1.29
		c1.69,1.44,3.13,1.1,5.04,0.44c5.22-1.8,10.48-2.28,15.37,1.13c0.72,0.5,1.39,1.08,2.03,1.67c0.84,0.77,1.66,0.88,2.55,0.11
		c0.3-0.26,0.66-0.46,0.95-0.73c5.08-4.74,12.72-4.47,18.55-1.34c3.69,1.98,5.24,5.46,5.36,9.35c0.3,9.74,0.3,19.49,0.38,29.24
		c0.02,1.92-0.53,2.71-1.86,2.87c-1.8,0.2-2.94-0.16-2.91-2.35c0.1-8.24,0.1-16.48,0-24.72c-0.02-2.05-0.33-4.15-0.88-6.13
		c-0.98-3.52-3.77-5.5-7.47-5.65c-6.94-0.28-11.15,3.74-11.18,10.73c-0.03,6.24-0.03,12.48,0.01,18.72
		c0.01,2.38,0.15,4.77,0.25,7.15c0.06,1.35-0.65,2.1-2.2,2.27c-1.7,0.18-2.75-0.4-2.93-1.69c-0.09-0.63-0.04-1.28-0.04-1.92
		c0-7.84,0.06-15.68-0.04-23.52c-0.03-2.05-0.35-4.14-0.87-6.13c-0.93-3.58-3.48-5.49-7.16-5.59c-1.35-0.04-2.75-0.08-4.06,0.21
		c-4.33,0.97-6.27,4.13-6.98,8.19c-0.32,1.8-0.43,3.65-0.45,5.47c-0.05,7.36-0.01,14.72-0.03,22.08c0,2.22-0.49,2.79-2.27,2.9
		c-1.99,0.12-2.62-0.41-2.63-2.41C1100.81,593.77,1100.83,587.45,1100.83,581.13z"/>
	<path d="M907.24,543.03c2.03,0.22,4.28,0.29,6.45,0.74c7.3,1.51,11.7,6.34,12.89,13.93c0.17,1.1,0.34,2.21,0.47,3.31
		c0.21,1.83-0.11,2.33-1.62,2.58c-2,0.34-3.18-0.29-3.48-1.94c-0.14-0.78-0.11-1.59-0.2-2.39c-0.41-3.6-1.38-6.95-4.8-8.89
		c-1.1-0.62-2.31-1.12-3.54-1.41c-4.42-1.06-8.88-1.11-13.28,0.04c-4.07,1.06-7.53,3.9-7.9,9.41c-0.26,3.9,1.47,7.12,5,9.18
		c2.4,1.4,5.11,1.76,7.75,2.34c4.2,0.93,8.45,1.7,12.57,2.93c2.08,0.62,4.06,1.88,5.82,3.21c2.8,2.12,3.67,5.34,4.01,8.67
		c0.56,5.42-0.39,10.35-4.81,14.1c-2.12,1.8-4.56,2.94-7.21,3.63c-6.19,1.6-12.36,1.44-18.35-0.8c-7.8-2.92-10.56-9.35-10.27-16.89
		c0.04-0.96,0.49-1.47,1.37-1.69c1.29-0.32,2.53,0.03,2.94,0.97c0.28,0.64,0.29,1.39,0.47,2.08c0.52,2,0.84,4.08,1.64,5.96
		c0.96,2.27,2.77,3.96,5.14,4.77c4.5,1.54,9.09,2.42,13.87,1.48c2.39-0.47,4.55-1.41,6.51-2.89c3.47-2.62,4.89-6.1,4.08-10.31
		c-0.78-4.03-3.36-6.73-7.3-7.79c-3.85-1.03-7.8-1.67-11.67-2.61c-2.7-0.66-5.47-1.27-8.01-2.36c-5.37-2.32-7.99-6.62-8.08-12.48
		c-0.05-3.24,0.34-6.38,1.97-9.25c2.51-4.44,6.71-6.2,11.42-7.03C903.04,543.28,905.04,543.23,907.24,543.03z"/>
	<path d="M749.42,587.3c0,4-0.01,7.99,0.01,11.99c0.01,1.23,0.02,2.48-1.26,3.13c-1.14,0.58-2.14,0.15-3.05-0.67
		c-0.96-0.86-2.03-0.68-3.14-0.24c-3.53,1.41-7.21,2.07-11,1.94c-3.38-0.12-6.65-0.77-9.66-2.42c-3.91-2.15-5.97-5.45-5.92-9.93
		c0.02-1.82,0.08-3.7,0.55-5.44c1.04-3.89,3.57-6.69,7.48-7.74c5.21-1.39,10.54-1.74,15.84-0.28c1.15,0.31,2.22,0.9,3.34,1.3
		c1.26,0.46,1.88,0.15,2-1.15c0.24-2.63,0.25-5.26-0.55-7.82c-0.54-1.74-1.56-3.12-3.08-4.15c-4.88-3.32-10.62-3.21-15.6-0.28
		c-2.09,1.23-3.09,3.15-3.16,5.56c-0.01,0.48,0.02,0.96-0.02,1.44c-0.13,1.52-0.74,2.08-2.31,2.13c-1.71,0.06-2.4-0.51-2.58-2.11
		c-0.57-5.03,2.06-9.84,6.69-11.93c4.24-1.91,8.68-2.62,13.31-1.8c5.38,0.96,8.95,4.18,10.65,9.24c0.85,2.53,1.24,5.28,1.4,7.96
		C749.59,579.78,749.42,583.54,749.42,587.3z M732.03,599.03c2.19-0.38,4.4-0.64,6.55-1.17c1.97-0.48,3.67-1.58,4.89-3.24
		c3.04-4.1,1.45-9.73-3.51-11.93c-4.78-2.12-9.76-2.26-14.69-0.6c-3.77,1.27-5.6,4.31-5.49,8.6c0.09,3.6,2.03,6.14,5.85,7.21
		C727.67,598.48,729.83,598.66,732.03,599.03z"/>
	<path d="M1055.55,580.68c0.19-3.34,0.28-6.69,0.61-10.02c0.48-4.82,3.24-8.06,7.58-9.97c5.27-2.32,10.74-2.59,16.12-0.66
		c5.83,2.09,8.96,6.67,10.4,12.53c0.63,2.54,0.55,5.06-0.07,7.58c-0.48,1.96-0.94,2.34-2.97,2.36c-2.88,0.03-5.76-0.03-8.63,0.02
		c-2.55,0.05-5.1,0.27-7.64,0.28c-2.07,0.01-4.14-0.22-6.2-0.28c-3.45-0.09-4.36,0.73-4.25,4.12c0.05,1.65,0.25,3.37,0.78,4.92
		c1.36,3.93,4.4,6.06,8.4,6.59c2.35,0.31,4.81,0.33,7.16,0c4.15-0.57,6.65-3.19,7.67-7.23c0.14-0.54,0.18-1.1,0.32-1.64
		c0.5-1.91,2.36-2.86,4.01-1.9c0.48,0.28,0.82,1.15,0.86,1.78c0.34,4.81-1.66,8.54-5.56,11.24c-4.16,2.87-8.88,3.35-13.75,2.92
		c-1.03-0.09-2.06-0.28-3.06-0.53c-7.38-1.81-11.54-7.06-11.63-14.67c-0.03-2.48,0-4.96,0-7.44
		C1055.65,580.69,1055.6,580.68,1055.55,580.68z M1072.88,578.3c3.27,0,6.55,0.03,9.82-0.01c1.94-0.03,2.41-0.52,2.5-2.39
		c0.04-0.88,0.07-1.76,0-2.63c-0.33-3.86-2.07-6.8-5.6-8.59c-2.11-1.08-4.39-1.52-6.71-1.54c-7.6-0.08-12.23,4.01-12.96,11.21
		c-0.31,3,0.57,3.92,3.61,3.96C1066.65,578.34,1069.77,578.3,1072.88,578.3z"/>
	<path d="M839.02,587.52c1.28,6.87-2.64,11.95-7.5,14.17c-6.47,2.95-12.91,2.49-19.14-0.71c-3.81-1.95-5.85-5.34-6.61-9.47
		c-0.32-1.71-0.42-3.48-0.46-5.23c-0.07-3.36-0.08-6.72,0-10.07c0.05-1.99,0.21-3.99,0.54-5.95c0.99-5.88,4.7-9.32,10.32-10.64
		c4.23-0.99,8.54-0.99,12.79,0.16c5.67,1.53,9.03,5.23,10.06,10.95c0.41,2.26,0.55,4.59,0.6,6.9c0.08,3.59-1.08,4.8-4.66,4.85
		c-5.67,0.07-11.35-0.01-17.02,0.04c-1.51,0.01-3.02,0.22-4.51,0.45c-2.34,0.36-4.26,2.19-3.56,5.4c1.46,6.71,5.41,10.06,12.3,9.96
		c2.12-0.03,4.29-0.36,6.35-0.89c3.25-0.84,4.98-3.27,5.84-6.39c0.11-0.38,0.12-0.79,0.2-1.18
		C835.16,586.95,835.83,586.58,839.02,587.52z M824.09,578.18c0,0.04,0,0.08,0,0.12c2.8,0,5.59,0.03,8.39-0.01
		c1.78-0.03,2.4-0.52,2.57-2.17c0.46-4.39-0.89-8.04-4.62-10.61c-3.11-2.15-6.6-2.64-10.29-2.26c-6.34,0.65-10.45,5.25-10.32,11.61
		c0.06,2.92,1.1,3.87,3.98,3.73C817.23,578.43,820.66,578.31,824.09,578.18z"/>
	<path d="M476.55,582.51c-3.28,0-6.55-0.02-9.83,0c-4.31,0.03-4.82,0.58-4.66,4.88c0.24,6.37,4.32,10.54,10.68,11.01
		c2.15,0.16,4.27,0.18,6.37-0.41c4.28-1.19,6.83-3.91,7.48-8.36c0.05-0.31,0.11-0.63,0.2-0.93c0.41-1.49,1.05-1.97,2.33-1.77
		c1.61,0.25,2.65,1.09,2.5,2.38c-0.45,3.86-1.37,7.56-4.67,10.13c-5.4,4.2-11.44,4.88-17.91,3.3c-3.94-0.96-7.33-2.76-9.49-6.33
		c-1.62-2.66-2.18-5.64-2.22-8.71c-0.06-4.39-0.02-8.78-0.02-13.17c0.01-8.71,4.37-13.88,12.99-15.33c3.91-0.65,7.8-0.44,11.59,0.81
		c5.8,1.91,8.72,6.35,9.27,12.16c0.2,2.14,0.09,4.31,0.02,6.47c-0.08,2.71-1.12,3.78-3.82,3.84
		C483.75,582.56,480.15,582.5,476.55,582.51C476.55,582.51,476.55,582.51,476.55,582.51z M476.25,578.18c0,0.04,0,0.08,0,0.12
		c2.8,0,5.59,0.04,8.39-0.01c1.59-0.03,2.22-0.56,2.39-2.09c0.47-4.27-0.76-7.9-4.34-10.51c-2.85-2.08-6.11-2.48-9.55-2.46
		c-5.62,0.03-11.68,4.06-11.34,11.55c0.13,2.92,1.08,3.92,3.93,3.8C469.24,578.45,472.75,578.31,476.25,578.18z"/>
	<path d="M669.31,573.32c0-8.31,0-16.63,0-24.94c0-0.64-0.04-1.28,0.03-1.92c0.16-1.56,0.84-2.24,2.46-2.41
		c0.79-0.08,1.6-0.05,2.4-0.05c5.75,0.05,11.49,0.11,17.24,0.16c8.88,0.07,15,5.38,16.17,14.16c0.49,3.67,0.35,7.34-0.86,10.89
		c-1.68,4.91-5.05,8.08-10.03,9.4c-1.9,0.51-3.92,0.76-5.89,0.81c-4.47,0.12-8.95,0.02-13.43,0.04c-2.7,0.01-3.31,0.73-3.28,3.46
		c0.06,5.67,0.04,11.35,0.11,17.02c0.03,2.56-1.14,2.64-3.01,2.53c-1.11-0.07-1.77-0.7-1.86-1.82c-0.06-0.72-0.04-1.44-0.04-2.16
		C669.31,590.1,669.31,581.71,669.31,573.32z M673.6,569.44c-0.03,0-0.07,0-0.1,0c0,0.48-0.01,0.96,0,1.44
		c0.09,2.89,0.98,4.07,3.86,4.57c1.47,0.26,3.01,0.21,4.52,0.17c1.99-0.05,3.98-0.18,5.96-0.39c2.45-0.26,4.95-0.4,7.33-0.99
		c4.15-1.03,6.78-3.84,7.7-8.01c0.64-2.89,0.64-5.86,0.03-8.77c-0.74-3.52-2.76-6.06-6.11-7.46c-1.1-0.46-2.24-0.96-3.4-1.13
		c-3.86-0.56-7.74-1.19-11.63-1.4c-5.25-0.28-7.19,1.45-7.57,6.68C673.81,559.23,673.78,564.34,673.6,569.44z"/>
	<path d="M996.84,558.75c1.83,0.33,4.55,0.59,7.13,1.34c4.23,1.23,6.54,4.36,7.48,8.57c0.24,1.09,0.39,2.2,0.5,3.31
		c0.16,1.71-0.59,2.57-2.26,2.69c-1.87,0.13-2.55-0.39-2.76-2.14c-0.05-0.4,0-0.8-0.04-1.2c-0.32-3.59-2.14-5.99-5.58-6.99
		c-4.19-1.22-8.38-1.02-12.46,0.53c-2.57,0.98-4.13,3.37-4.04,5.95c0.09,2.7,1.6,4.96,4.29,5.75c2.9,0.86,5.9,1.35,8.85,2.04
		c2.48,0.58,4.99,1.1,7.42,1.86c4.65,1.47,7.55,5.07,7.72,9.33c0.24,5.62-2.14,9.73-6.95,11.7c-6.58,2.69-13.24,2.67-19.85,0.16
		c-4.96-1.88-7.91-6.91-7.38-12.22c0.14-1.38,0.79-2.02,2.13-2.07c1.39-0.05,2.44,0.64,2.69,1.85c0.19,0.93,0.23,1.9,0.44,2.83
		c0.6,2.62,2.2,4.41,4.73,5.27c4.68,1.59,9.44,1.57,14.13,0.15c3.78-1.15,5.35-3.84,4.78-7.74c-0.27-1.83-1.12-3.45-2.93-4.09
		c-2.47-0.88-5.01-1.56-7.55-2.2c-2.94-0.74-5.92-1.3-8.87-1.99c-8.98-2.08-9.83-10.98-7.44-16c1.75-3.69,5.14-5.36,8.99-6.04
		C991.96,559.07,993.97,559.02,996.84,558.75z"/>
	<path d="M315.52,562.24c5.08-2.98,10.45-3.91,16.05-3.14c2.25,0.31,4.58,0.94,6.57,1.99c3.99,2.09,5.87,5.73,6.13,10.17
		c0.13,2.23,0.16,4.47,0.17,6.71c0.02,7.19-0.03,14.39,0.03,21.58c0.02,2.02-0.5,3.13-2.99,2.92c-1.1-0.09-1.79-0.63-1.77-1.83
		c0.01-0.56-0.01-1.12-0.01-1.68c0-7.75,0.02-15.51-0.02-23.26c-0.01-1.43-0.12-2.87-0.35-4.29c-0.68-4.2-3.23-6.8-7.33-7.48
		c-2.48-0.41-5.16-0.48-7.61-0.01c-6.08,1.16-9.09,4.77-9.2,11.57c-0.12,7.43-0.03,14.87-0.03,22.3c0,0.72,0.01,1.44,0,2.16
		c-0.04,2.11-0.39,2.5-2.24,2.53c-1.94,0.03-2.55-0.54-2.65-2.53c-0.03-0.56-0.01-1.12-0.01-1.68c0-17.59,0-35.17,0-52.76
		c0-0.56-0.02-1.12,0.01-1.68c0.11-2.43,1.59-3.44,3.87-2.62c1.08,0.39,1.19,1.26,1.17,2.32c-0.08,5.99-0.09,11.98-0.11,17.97
		C315.21,561.66,315.33,561.8,315.52,562.24z"/>
	<path d="M571.24,561.94c2.87-0.93,5.53-2.02,8.3-2.65c4.65-1.07,9.26-0.42,13.58,1.49c4.49,1.99,6.92,5.63,7,10.55
		c0.15,9.19,0.14,18.38,0.18,27.57c0,0.56,0.02,1.12-0.06,1.67c-0.2,1.46-0.94,2.03-2.47,1.94c-1.44-0.08-1.9-0.52-1.91-2.13
		c-0.03-7.59,0.06-15.19-0.05-22.78c-0.04-2.53-0.41-5.08-0.85-7.58c-0.39-2.16-1.85-3.78-3.76-4.73c-4.41-2.18-8.92-2.61-13.6-0.56
		c-4.74,2.07-6.57,5.76-6.57,10.67c0,7.99,0.01,15.99,0.01,23.98c0,0.48,0,0.96,0,1.44c0.01,0.96-0.54,1.45-1.41,1.65
		c-2.3,0.55-3.55-0.24-3.77-2.63c-0.17-1.82-0.09-3.67-0.05-5.51c0.04-1.67,0.27-3.34,0.27-5.01c0.02-12.39,0.03-24.78,0-37.17
		c0-2.07-0.2-4.13-0.29-6.2c-0.03-0.72-0.06-1.44,0.01-2.16c0.23-2.45,2.26-3.61,4.43-2.49c1.07,0.56,1.05,1.59,1.04,2.69
		C571.21,549.97,571.24,555.95,571.24,561.94z"/>
	<path d="M954.19,593.69c0.71-1.49,1.45-2.97,2.12-4.48c4.08-9.19,8.14-18.39,12.21-27.59c0.89-2,1.91-2.55,3.96-2.23
		c1.7,0.27,2.14,1.11,1.41,2.72c-2.94,6.55-5.91,13.09-8.83,19.65c-4.8,10.79-9.57,21.6-14.35,32.4c-0.26,0.58-0.51,1.17-0.81,1.74
		c-1.27,2.4-3.3,2.85-5.99,1.12c0.74-1.43,1.4-2.94,2.26-4.34c2.67-4.35,4.12-8.99,3.43-14.13c-0.48-3.6-1.66-7.01-3.48-10.13
		c-3.6-6.16-6.38-12.69-8.98-19.3c-0.82-2.08-1.73-4.12-2.68-6.14c-0.49-1.03-1.16-2.02-0.25-3.07c0.65-0.76,2.89-0.8,3.82-0.01
		c0.64,0.54,1.17,1.31,1.51,2.08c2.77,6.19,5.48,12.41,8.23,18.61c1.94,4.37,3.92,8.72,5.88,13.08
		C953.83,593.67,954.01,593.68,954.19,593.69z"/>
	<path d="M765.89,562.26c6.43-4.07,13.1-4.18,19.85-2.28c5.18,1.46,8.4,6.11,8.49,11.5c0.11,6.95,0.23,13.89,0.32,20.84
		c0.03,2.62,0.01,5.23,0,7.85c-0.01,1.58-0.76,2.31-2.36,2.34c-1.76,0.03-2.41-0.64-2.4-2.45c0.05-7.67,0.11-15.35,0.14-23.02
		c0.01-1.52-0.04-3.04-0.17-4.55c-0.37-4.41-2.89-7.57-7.26-8.37c-2.62-0.48-5.46-0.61-8.07-0.16c-6.07,1.05-9.13,5.05-9.15,11.32
		c-0.02,8.24,0.01,16.47,0.02,24.71c0,2-0.88,2.79-2.79,2.51c-1.37-0.2-1.82-0.69-1.84-2.3c-0.04-2.96-0.01-5.92-0.01-8.88
		c0-9.76,0.05-19.51-0.04-29.26c-0.02-2.16,1-2.78,3.03-2.48c0.54,0.08,1.08,0.59,1.47,1.03
		C765.44,560.99,765.57,561.57,765.89,562.26z"/>
	<path d="M360.79,579.57c0-3.04-0.12-6.08,0.03-9.11c0.25-5.28-1.2-6.71-6.39-5.99c-2.34,0.32-3.44-0.66-3.19-2.86
		c0.15-1.34,0.76-1.98,2.17-2.07c1.36-0.08,2.72,0,4.08-0.03c2.18-0.05,3.25-1.02,3.3-3.22c0.05-2.23-0.08-4.47-0.12-6.71
		c-0.02-1.12-0.06-2.24,0.02-3.36c0.14-1.79,2.43-2.99,3.92-1.97c0.47,0.32,0.77,1.21,0.76,1.84c-0.02,2.39-0.2,4.78-0.32,7.17
		c-0.01,0.24-0.07,0.48-0.08,0.71c-0.13,4.49,1.79,6.29,6.27,5.94c2.06-0.16,4.13-0.39,6.2-0.37c1.63,0.01,2.21,0.68,2.37,2.12
		c0.21,1.97-0.47,2.84-2.52,2.91c-2.4,0.08-4.8,0.01-7.2,0.03c-3.29,0.04-4.36,0.93-4.54,4.2c-0.18,3.19-0.13,6.39-0.12,9.59
		c0.02,4.32,0.09,8.63,0.14,12.95c0,0.24,0,0.48,0.02,0.72c0.47,4.26,2.2,5.99,6.47,6.13c1.65,0.06,3.33-0.19,4.97-0.45
		c1.63-0.26,2.42,0.06,2.73,1.41c0.42,1.81-0.15,3.17-1.68,3.39c-2.9,0.41-5.77,1.07-8.76,0.64c-3.4-0.49-5.95-2.15-7.04-5.35
		c-0.82-2.38-1.12-4.95-1.42-7.47c-0.21-1.81-0.04-3.67-0.04-5.51c0-1.76,0-3.52,0-5.27C360.81,579.57,360.8,579.57,360.79,579.57z"
		/>
	<path d="M616.03,580.63c0-3.36,0.1-6.72-0.02-10.07c-0.18-4.96-0.74-5.3-5.29-5.86c-0.79-0.1-1.6-0.11-2.36-0.3
		c-1.44-0.36-1.92-1.17-1.72-2.66c0.22-1.67,0.67-2.14,2.24-2.2c1.36-0.05,2.72,0,4.08-0.02c2.27-0.04,3.03-0.72,3.08-2.99
		c0.06-3.36,0.04-6.71,0.01-10.07c-0.01-1.19,0.35-1.98,1.58-2.32c2.21-0.6,3.18,0.06,3.15,2.38c-0.03,2.47-0.21,4.93-0.29,7.4
		c-0.02,0.71,0,1.45,0.14,2.14c0.59,2.85,1.93,3.98,4.84,3.9c1.91-0.05,3.81-0.34,5.71-0.5c0.55-0.05,1.12-0.09,1.67-0.04
		c1.9,0.19,2.59,1.07,2.48,3.06c-0.08,1.46-0.74,2.05-2.63,2.06c-1.51,0.01-3.01-0.22-4.52-0.31c-1.11-0.07-2.23-0.14-3.35-0.13
		c-2.55,0.04-3.9,1.07-4.28,3.59c-0.22,1.48-0.07,3.02-0.02,4.53c0.07,2.22,0.18,4.45,0.28,6.67c0.2,4.7,0.38,9.4,0.62,14.1
		c0.04,0.78,0.28,1.57,0.51,2.33c0.41,1.31,1.28,2.33,2.65,2.48c2.04,0.23,4.11,0.24,6.18,0.28c0.71,0.02,1.42-0.13,2.14-0.21
		c0.97-0.11,1.97-0.31,2.3,1.02c0.33,1.35-0.13,2.9-1.04,3.42c-4.84,2.78-12.84,1.06-15.79-3.45c-1.57-2.4-2.29-5.08-2.31-7.94
		C616.02,587.5,616.03,584.06,616.03,580.63z"/>
	<path d="M195.19,572.7c0-8.64,0.01-17.27-0.01-25.91c0-1.01-0.02-1.97,1.05-2.44c1.15-0.51,2.43-0.66,3.42,0.16
		c0.49,0.4,0.69,1.37,0.72,2.09c0.07,1.83-0.06,3.67-0.06,5.51c-0.01,13.51,0,27.03,0,40.54c0,0.56-0.01,1.12,0,1.68
		c0.07,2.72,0.88,3.56,3.63,3.57c7.68,0.03,15.35,0.01,23.03,0.01c0.96,0,1.92-0.04,2.88,0.02c1.32,0.07,2.06,0.85,2.1,2.1
		c0.05,1.39-0.71,2.33-2.02,2.45c-0.4,0.04-0.8,0.01-1.2,0.01c-9.84,0-19.67,0-29.51,0c-0.48,0-0.96,0.03-1.44-0.02
		c-1.46-0.17-2.17-0.77-2.44-2.2c-0.13-0.7-0.1-1.43-0.1-2.15c-0.01-8.48,0-16.95,0-25.43C195.21,572.7,195.2,572.7,195.19,572.7z"
		/>
	<path d="M1032.15,578.22c0.16,4.54,0.29,9.09,0.5,13.63c0.05,1.02,0.28,2.06,0.58,3.04c0.45,1.47,1.49,2.47,2.98,2.86
		c2.42,0.63,4.88,0.81,7.32,0.11c1.03-0.3,2.25-0.77,2.74,0.44c0.41,1.02,0.28,2.3,0.16,3.45c-0.03,0.33-0.82,0.8-1.3,0.84
		c-2.92,0.24-5.79,0.98-8.76,0.57c-3.68-0.52-6.25-2.42-7.4-5.92c-0.59-1.79-0.78-3.73-1.07-5.61c-0.12-0.78-0.01-1.6-0.02-2.4
		c-0.1-5.59-0.24-11.17-0.3-16.76c-0.02-1.35,0.13-2.7,0.27-4.04c0.31-2.99-1.07-4.31-4.02-3.99c-1.25,0.14-2.53-0.06-3.79-0.11
		c-1.31-0.05-1.79-0.76-1.75-2.03c0.06-1.9,0.41-2.5,1.95-2.76c1.34-0.23,2.69-0.32,4.02-0.56c2.45-0.45,3.25-1.41,3.3-3.91
		c0.06-2.94,0-5.88,0.15-8.81c0.03-0.68,0.56-1.7,1.1-1.89c0.9-0.32,2.01-0.17,3-0.04c0.21,0.03,0.46,0.81,0.47,1.24
		c0.05,2.94,0.04,5.87,0.05,8.81c0,0.08,0,0.16-0.01,0.24c-0.27,4.2,0.45,4.95,4.6,4.91c2.39-0.03,4.79-0.02,7.18,0
		c2.05,0.02,2.7,0.61,2.82,2.42c0.1,1.6-0.74,2.55-2.7,2.6c-2.79,0.07-5.59,0.06-8.38-0.11c-2.41-0.15-3.46,0.55-3.51,2.99
		c-0.08,3.6-0.02,7.19-0.02,10.79C1032.25,578.21,1032.2,578.22,1032.15,578.22z"/>
	<path d="M855.19,571.89c0,9.52,0.01,19.04,0,28.55c0,2.37-0.49,2.93-2.38,3.04c-1.8,0.11-2.94-0.69-2.93-2.8
		c0.07-19.28,0.04-38.55,0.05-57.83c0-2.4,2.16-3.67,4.26-2.48c0.46,0.26,0.79,0.96,0.94,1.53c0.17,0.6,0.06,1.27,0.06,1.91
		C855.2,553.18,855.19,562.54,855.19,571.89z"/>
	<path d="M245.01,580.94c0-6.31-0.02-12.61,0.01-18.92c0.01-2.22,1.14-3.05,3.18-2.48c0.87,0.24,1.42,0.76,1.54,1.63
		c0.11,0.79,0.13,1.59,0.13,2.38c0.01,11.65,0.01,23.31,0,34.96c0,0.48,0.02,0.96-0.01,1.44c-0.15,2.05-0.89,2.69-2.92,2.52
		c-1.42-0.12-1.81-0.48-1.92-1.9c-0.04-0.56-0.02-1.12-0.02-1.68C245.01,592.91,245.01,586.93,245.01,580.94z"/>
	<path d="M508.11,581.18c0,6.23,0.01,12.45-0.01,18.68c0,2.22-0.25,2.53-1.86,2.62c-1.96,0.11-2.84-0.64-2.99-2.54
		c-0.01-0.16-0.01-0.32-0.01-0.48c0-12.29-0.01-24.59,0.01-36.88c0-2.35,0.74-3.16,2.63-3.17c1.53-0.01,2.19,0.56,2.21,2.13
		c0.05,3.19,0.02,6.39,0.02,9.58C508.12,574.47,508.11,577.82,508.11,581.18z"/>
	<path d="M508.19,546.62c0.08,1.49,0.17,2.97,0.22,4.46c0.08,2.2-0.68,2.98-2.76,2.92c-2.01-0.06-2.69-0.98-2.51-3.12
		c0.11-1.34-0.12-2.7-0.01-4.04c0.08-0.88,0.34-2.35,0.8-2.47c1.23-0.31,2.64-0.18,3.9,0.1c0.35,0.08,0.42,1.34,0.62,2.06
		C508.37,546.57,508.28,546.59,508.19,546.62z"/>
	<path d="M249.86,548.87c0,1.03,0.06,2.07-0.01,3.1c-0.11,1.53-0.73,2.03-2.33,2.03c-1.73,0-2.63-0.59-2.79-1.94
		c-0.07-0.54,0.06-1.1,0.06-1.66c0.01-1.1,0.11-2.2-0.02-3.29c-0.26-2.3,0.16-3,2.07-3.1c2.52-0.13,3.07,0.37,3.02,2.72
		c-0.02,0.71-0.06,1.42-0.09,2.13C249.8,548.87,249.83,548.87,249.86,548.87z"/>
</g>
</svg>
