<?xml version="1.0" encoding="UTF-8"?>
<svg xmlns="http://www.w3.org/2000/svg" version="1.1" viewBox="0 0 566.9 566.9">
  <defs>
    <style>
      .cls-1 {
        fill: #fff;
      }
    </style>
  </defs>
  <!-- Generator: Adobe Illustrator 28.6.0, SVG Export Plug-In . SVG Version: 1.2.0 Build 709)  -->
  <g>
    <g id="Layer_1">
      <g>
        <polygon class="cls-1" fill="#FFFFFF" points="136.6 325.6 144 336.8 141 336.8 135.6 328.3 130.1 336.8 127.2 336.8 134.7 325.6 136.6 325.6"/>
        <polygon class="cls-1" fill="#FFFFFF" points="157.4 325.6 160.3 325.6 152.9 336.8 151.1 336.8 143.6 325.6 146.5 325.6 152 334.1 157.4 325.6"/>
        <rect class="cls-1" fill="#FFFFFF" x="164.3" y="325.6" width="2.6" height="11.2"/>
        <polygon class="cls-1" fill="#FFFFFF" points="180.3 325.6 187.7 336.8 184.7 336.8 179.3 328.3 173.8 336.8 170.9 336.8 178.4 325.6 180.3 325.6"/>
        <polygon class="cls-1" fill="#FFFFFF" points="188 325.6 202 325.6 202 327.6 196.4 327.6 196.4 336.8 193.8 336.8 193.8 327.6 188 327.6 188 325.6"/>
        <rect class="cls-1" fill="#FFFFFF" x="206.3" y="325.6" width="2.6" height="11.2"/>
        <path class="cls-1" fill="#FFFFFF" d="M225,325.6h-7.6c-2.6,0-3.6,1.1-3.6,2.7v5.8c0,1.6,1,2.7,3.6,2.7h7.6c2.6,0,3.6-1.1,3.6-2.7v-5.8c0-1.6-1-2.7-3.6-2.7ZM226,334.1c0,.5-.3.7-1,.7h-7.6c-.7,0-1-.2-1-.7v-5.8c0-.5.3-.7,1-.7h7.6c.7,0,1,.3,1,.7v5.8Z"/>
        <polygon class="cls-1" fill="#FFFFFF" points="147.1 305.1 126.8 305.1 179 226.7 192.4 226.7 244.3 305.1 223.9 305.1 185.9 245.4 147.1 305.1"/>
        <polygon class="cls-1" fill="#FFFFFF" points="246.2 325.6 248.5 325.6 248.5 336.8 247.3 336.8 235.6 328.6 235.6 336.8 233.3 336.8 233.3 325.6 235.5 325.6 246.2 333.3 246.2 325.6"/>
        <path class="cls-1" fill="#FFFFFF" d="M267.9,325.6h9.2v2h-9.2c-.7,0-1,.2-1,.7v5.8c0,.5.3.7,1,.7h9.2v2h-9.2c-2.6,0-3.6-1.1-3.6-2.7v-5.8c0-1.6,1-2.7,3.6-2.7Z"/>
        <path class="cls-1" fill="#FFFFFF" d="M292.8,325.6h-7.6c-2.6,0-3.6,1.1-3.6,2.7v5.8c0,1.6,1,2.7,3.6,2.7h7.6c2.6,0,3.6-1.1,3.6-2.7v-5.8c0-1.6-1-2.7-3.6-2.7ZM293.8,334.1c0,.5-.3.7-1,.7h-7.6c-.7,0-1-.2-1-.7v-5.8c0-.5.3-.7,1-.7h7.6c.7,0,1,.3,1,.7v5.8Z"/>
        <polygon class="cls-1" fill="#FFFFFF" points="316.5 325.6 318.7 325.6 318.7 336.8 316.3 336.8 316.3 329.7 311.1 336.8 309 336.8 303.7 329.8 303.7 336.8 301.3 336.8 301.3 325.6 303.7 325.6 310.1 334.3 316.5 325.6"/>
        <path class="cls-1" fill="#FFFFFF" d="M333,325.6h-9.4v11.2h2.6v-4.1h6.8c2.6,0,3.6-1.1,3.6-2.7v-1.7c0-1.6-1-2.7-3.6-2.7ZM334,330c0,.5-.2.7-.7.7h-7.1v-3.1h7c.5,0,.8.3.8.7v1.7Z"/>
        <polygon class="cls-1" fill="#FFFFFF" points="318.9 226.7 339.1 226.7 287.2 305.1 273.9 305.1 221.5 226.7 242.1 226.7 280.9 286.3 318.9 226.7"/>
        <path class="cls-1" fill="#FFFFFF" d="M352,325.6h-7.6c-2.6,0-3.6,1.1-3.6,2.7v5.8c0,1.6,1,2.7,3.6,2.7h7.6c2.6,0,3.6-1.1,3.6-2.7v-5.8c0-1.6-1-2.7-3.6-2.7ZM353,334.1c0,.5-.3.7-1,.7h-7.6c-.7,0-1-.2-1-.7v-5.8c0-.5.3-.7,1-.7h7.6c.7,0,1,.3,1,.7v5.8Z"/>
        <path class="cls-1" fill="#FFFFFF" d="M374.1,332.5v1.6c0,1.6-1,2.7-3.6,2.7h-10v-2h10c.7,0,1,0,1-.7v-1.6c0-.5-.3-.7-1-.7h-6.7c-2.6,0-3.6-1.1-3.6-2.7v-.8c0-1.6,1-2.7,3.6-2.7h9.7v2h-9.7c-.7,0-1,.2-1,.7v.8c0,.5.3.7,1,.7h6.7c2.6,0,3.6,1.1,3.6,2.7Z"/>
        <rect class="cls-1" fill="#FFFFFF" x="378.7" y="325.6" width="2.6" height="11.2"/>
        <polygon class="cls-1" fill="#FFFFFF" points="385.6 325.6 399.6 325.6 399.6 327.6 394 327.6 394 336.8 391.4 336.8 391.4 327.6 385.6 327.6 385.6 325.6"/>
        <polygon class="cls-1" fill="#FFFFFF" points="403.9 325.6 415.7 325.6 415.7 327.6 406.5 327.6 406.5 329.8 415.2 329.8 415.2 331.8 406.5 331.8 406.5 334.7 415.7 334.7 415.7 336.7 403.9 336.7 403.9 325.6"/>
        <path class="cls-1" fill="#FFFFFF" d="M343.9,286.2v-40.5c0-11.3,6.9-18.9,25.2-18.9h64.7v14.1h-64.7c-4.6,0-7,1.4-7,4.6v40.9c0,3.2,2.5,4.6,7,4.6h64.7v14.3h-64.7v-.2c-18.3,0-25.2-7.7-25.2-18.9Z"/>
        <path class="cls-1" fill="#FFFFFF" d="M434.1,332.5v1.6c0,1.6-1,2.7-3.6,2.7h-10v-2h10c.7,0,1,0,1-.7v-1.6c0-.5-.3-.7-1-.7h-6.7c-2.6,0-3.6-1.1-3.6-2.7v-.8c0-1.6,1-2.7,3.6-2.7h9.7v2h-9.7c-.7,0-1,.2-1,.7v.8c0,.5.3.7,1,.7h6.7c2.6,0,3.6,1.1,3.6,2.7Z"/>
        <g>
          <g>
            <polygon class="cls-1" fill="#FFFFFF" points="144 336.8 141 336.8 135.6 328.3 130.1 336.8 127.2 336.8 134.7 325.6 136.6 325.6 144 336.8"/>
            <polygon class="cls-1" fill="#FFFFFF" points="160.3 325.6 152.9 336.8 151.1 336.8 143.6 325.6 146.5 325.6 152 334.1 157.4 325.6 160.3 325.6"/>
            <rect class="cls-1" fill="#FFFFFF" x="164.3" y="325.6" width="2.6" height="11.2"/>
            <polygon class="cls-1" fill="#FFFFFF" points="187.7 336.8 184.7 336.8 179.3 328.3 173.8 336.8 170.9 336.8 178.4 325.6 180.3 325.6 187.7 336.8"/>
            <polygon class="cls-1" fill="#FFFFFF" points="202 325.6 202 327.6 196.4 327.6 196.4 336.8 193.8 336.8 193.8 327.6 188 327.6 188 325.6 202 325.6"/>
            <rect class="cls-1" fill="#FFFFFF" x="206.3" y="325.6" width="2.6" height="11.2"/>
            <path class="cls-1" fill="#FFFFFF" d="M225,325.6h-7.6c-2.6,0-3.6,1.1-3.6,2.7v5.8c0,1.6,1,2.7,3.6,2.7h7.6c2.6,0,3.6-1.1,3.6-2.7v-5.8c0-1.6-1-2.7-3.6-2.7ZM226,334.1c0,.5-.3.7-1,.7h-7.6c-.7,0-1-.2-1-.7v-5.8c0-.5.3-.7,1-.7h7.6c.7,0,1,.3,1,.7v5.8Z"/>
            <polygon class="cls-1" fill="#FFFFFF" points="248.5 325.6 248.5 336.8 247.3 336.8 235.6 328.6 235.6 336.8 233.3 336.8 233.3 325.6 235.5 325.6 246.2 333.3 246.2 325.6 248.5 325.6"/>
            <path class="cls-1" fill="#FFFFFF" d="M266.9,328.3v5.8c0,.5.3.7,1,.7h9.2v2h-9.2c-2.6,0-3.6-1.1-3.6-2.7v-5.8c0-1.6,1-2.7,3.6-2.7h9.2v2h-9.2c-.7,0-1,.2-1,.7Z"/>
            <path class="cls-1" fill="#FFFFFF" d="M292.8,325.6h-7.6c-2.6,0-3.6,1.1-3.6,2.7v5.8c0,1.6,1,2.7,3.6,2.7h7.6c2.6,0,3.6-1.1,3.6-2.7v-5.8c0-1.6-1-2.7-3.6-2.7ZM293.8,334.1c0,.5-.3.7-1,.7h-7.6c-.7,0-1-.2-1-.7v-5.8c0-.5.3-.7,1-.7h7.6c.7,0,1,.3,1,.7v5.8Z"/>
            <polygon class="cls-1" fill="#FFFFFF" points="318.7 325.6 318.7 336.8 316.3 336.8 316.3 329.7 311.1 336.8 309 336.8 303.7 329.8 303.7 336.8 301.3 336.8 301.3 325.6 303.7 325.6 310.1 334.3 316.5 325.6 318.7 325.6"/>
            <path class="cls-1" fill="#FFFFFF" d="M333,325.6h-9.4v11.2h2.6v-4.1h6.8c2.6,0,3.6-1.1,3.6-2.7v-1.7c0-1.6-1-2.7-3.6-2.7ZM334,330c0,.5-.2.7-.7.7h-7.1v-3.1h7c.5,0,.8.3.8.7v1.7Z"/>
            <path class="cls-1" fill="#FFFFFF" d="M352,325.6h-7.6c-2.6,0-3.6,1.1-3.6,2.7v5.8c0,1.6,1,2.7,3.6,2.7h7.6c2.6,0,3.6-1.1,3.6-2.7v-5.8c0-1.6-1-2.7-3.6-2.7ZM353,334.1c0,.5-.3.7-1,.7h-7.6c-.7,0-1-.2-1-.7v-5.8c0-.5.3-.7,1-.7h7.6c.7,0,1,.3,1,.7v5.8Z"/>
            <path class="cls-1" fill="#FFFFFF" d="M374.1,332.5v1.6c0,1.6-1,2.7-3.6,2.7h-10v-2h10c.7,0,1,0,1-.7v-1.6c0-.5-.3-.7-1-.7h-6.7c-2.6,0-3.6-1.1-3.6-2.7v-.8c0-1.6,1-2.7,3.6-2.7h9.7v2h-9.7c-.7,0-1,.2-1,.7v.8c0,.5.3.7,1,.7h6.7c2.6,0,3.6,1.1,3.6,2.7Z"/>
            <rect class="cls-1" fill="#FFFFFF" x="378.7" y="325.6" width="2.6" height="11.2"/>
            <polygon class="cls-1" fill="#FFFFFF" points="399.6 325.6 399.6 327.6 394 327.6 394 336.8 391.4 336.8 391.4 327.6 385.6 327.6 385.6 325.6 399.6 325.6"/>
            <polygon class="cls-1" fill="#FFFFFF" points="406.5 327.6 406.5 329.8 415.2 329.8 415.2 331.8 406.5 331.8 406.5 334.7 415.7 334.7 415.7 336.7 403.9 336.7 403.9 325.6 415.7 325.6 415.7 327.6 406.5 327.6"/>
            <path class="cls-1" fill="#FFFFFF" d="M434.1,332.5v1.6c0,1.6-1,2.7-3.6,2.7h-10v-2h10c.7,0,1,0,1-.7v-1.6c0-.5-.3-.7-1-.7h-6.7c-2.6,0-3.6-1.1-3.6-2.7v-.8c0-1.6,1-2.7,3.6-2.7h9.7v2h-9.7c-.7,0-1,.2-1,.7v.8c0,.5.3.7,1,.7h6.7c2.6,0,3.6,1.1,3.6,2.7Z"/>
          </g>
          <g>
            <polygon class="cls-1" fill="#FFFFFF" points="244.3 305.1 223.9 305.1 185.9 245.4 147.1 305.1 126.8 305.1 179 226.7 192.4 226.7 244.3 305.1"/>
            <polygon class="cls-1" fill="#FFFFFF" points="339.1 226.7 287.2 305.1 273.9 305.1 221.5 226.7 242.1 226.7 280.9 286.3 318.9 226.7 339.1 226.7"/>
            <path class="cls-1" fill="#FFFFFF" d="M362.1,245.5v40.9c0,3.2,2.5,4.6,7,4.6h64.7v14.3h-64.7v-.2c-18.3,0-25.2-7.7-25.2-18.9v-40.5c0-11.3,6.9-18.9,25.2-18.9h64.7v14.1h-64.7c-4.6,0-7,1.4-7,4.6Z"/>
          </g>
        </g>
        <polygon class="cls-1" fill="#FFFFFF" points="136.6 325.6 144 336.8 141 336.8 135.6 328.3 130.1 336.8 127.2 336.8 134.7 325.6 136.6 325.6"/>
        <polygon class="cls-1" fill="#FFFFFF" points="157.4 325.6 160.3 325.6 152.9 336.8 151.1 336.8 143.6 325.6 146.5 325.6 152 334.1 157.4 325.6"/>
        <rect class="cls-1" fill="#FFFFFF" x="164.3" y="325.6" width="2.6" height="11.2"/>
        <polygon class="cls-1" fill="#FFFFFF" points="180.3 325.6 187.7 336.8 184.7 336.8 179.3 328.3 173.8 336.8 170.9 336.8 178.4 325.6 180.3 325.6"/>
        <polygon class="cls-1" fill="#FFFFFF" points="188 325.6 202 325.6 202 327.6 196.4 327.6 196.4 336.8 193.8 336.8 193.8 327.6 188 327.6 188 325.6"/>
        <rect class="cls-1" fill="#FFFFFF" x="206.3" y="325.6" width="2.6" height="11.2"/>
        <path class="cls-1" fill="#FFFFFF" d="M225,325.6h-7.6c-2.6,0-3.6,1.1-3.6,2.7v5.8c0,1.6,1,2.7,3.6,2.7h7.6c2.6,0,3.6-1.1,3.6-2.7v-5.8c0-1.6-1-2.7-3.6-2.7ZM226,334.1c0,.5-.3.7-1,.7h-7.6c-.7,0-1-.2-1-.7v-5.8c0-.5.3-.7,1-.7h7.6c.7,0,1,.3,1,.7v5.8Z"/>
        <polygon class="cls-1" fill="#FFFFFF" points="147.1 305.1 126.8 305.1 179 226.7 192.4 226.7 244.3 305.1 223.9 305.1 185.9 245.4 147.1 305.1"/>
        <polygon class="cls-1" fill="#FFFFFF" points="246.2 325.6 248.5 325.6 248.5 336.8 247.3 336.8 235.6 328.6 235.6 336.8 233.3 336.8 233.3 325.6 235.5 325.6 246.2 333.3 246.2 325.6"/>
        <path class="cls-1" fill="#FFFFFF" d="M267.9,325.6h9.2v2h-9.2c-.7,0-1,.2-1,.7v5.8c0,.5.3.7,1,.7h9.2v2h-9.2c-2.6,0-3.6-1.1-3.6-2.7v-5.8c0-1.6,1-2.7,3.6-2.7Z"/>
        <path class="cls-1" fill="#FFFFFF" d="M292.8,325.6h-7.6c-2.6,0-3.6,1.1-3.6,2.7v5.8c0,1.6,1,2.7,3.6,2.7h7.6c2.6,0,3.6-1.1,3.6-2.7v-5.8c0-1.6-1-2.7-3.6-2.7ZM293.8,334.1c0,.5-.3.7-1,.7h-7.6c-.7,0-1-.2-1-.7v-5.8c0-.5.3-.7,1-.7h7.6c.7,0,1,.3,1,.7v5.8Z"/>
        <polygon class="cls-1" fill="#FFFFFF" points="316.5 325.6 318.7 325.6 318.7 336.8 316.3 336.8 316.3 329.7 311.1 336.8 309 336.8 303.7 329.8 303.7 336.8 301.3 336.8 301.3 325.6 303.7 325.6 310.1 334.3 316.5 325.6"/>
        <path class="cls-1" fill="#FFFFFF" d="M333,325.6h-9.4v11.2h2.6v-4.1h6.8c2.6,0,3.6-1.1,3.6-2.7v-1.7c0-1.6-1-2.7-3.6-2.7ZM334,330c0,.5-.2.7-.7.7h-7.1v-3.1h7c.5,0,.8.3.8.7v1.7Z"/>
        <polygon class="cls-1" fill="#FFFFFF" points="318.9 226.7 339.1 226.7 287.2 305.1 273.9 305.1 221.5 226.7 242.1 226.7 280.9 286.3 318.9 226.7"/>
        <path class="cls-1" fill="#FFFFFF" d="M352,325.6h-7.6c-2.6,0-3.6,1.1-3.6,2.7v5.8c0,1.6,1,2.7,3.6,2.7h7.6c2.6,0,3.6-1.1,3.6-2.7v-5.8c0-1.6-1-2.7-3.6-2.7ZM353,334.1c0,.5-.3.7-1,.7h-7.6c-.7,0-1-.2-1-.7v-5.8c0-.5.3-.7,1-.7h7.6c.7,0,1,.3,1,.7v5.8Z"/>
        <path class="cls-1" fill="#FFFFFF" d="M374.1,332.5v1.6c0,1.6-1,2.7-3.6,2.7h-10v-2h10c.7,0,1,0,1-.7v-1.6c0-.5-.3-.7-1-.7h-6.7c-2.6,0-3.6-1.1-3.6-2.7v-.8c0-1.6,1-2.7,3.6-2.7h9.7v2h-9.7c-.7,0-1,.2-1,.7v.8c0,.5.3.7,1,.7h6.7c2.6,0,3.6,1.1,3.6,2.7Z"/>
        <rect class="cls-1" fill="#FFFFFF" x="378.7" y="325.6" width="2.6" height="11.2"/>
        <polygon class="cls-1" fill="#FFFFFF" points="385.6 325.6 399.6 325.6 399.6 327.6 394 327.6 394 336.8 391.4 336.8 391.4 327.6 385.6 327.6 385.6 325.6"/>
        <polygon class="cls-1" fill="#FFFFFF" points="403.9 325.6 415.7 325.6 415.7 327.6 406.5 327.6 406.5 329.8 415.2 329.8 415.2 331.8 406.5 331.8 406.5 334.7 415.7 334.7 415.7 336.7 403.9 336.7 403.9 325.6"/>
        <path class="cls-1" fill="#FFFFFF" d="M343.9,286.2v-40.5c0-11.3,6.9-18.9,25.2-18.9h64.7v14.1h-64.7c-4.6,0-7,1.4-7,4.6v40.9c0,3.2,2.5,4.6,7,4.6h64.7v14.3h-64.7v-.2c-18.3,0-25.2-7.7-25.2-18.9Z"/>
        <path class="cls-1" fill="#FFFFFF" d="M434.1,332.5v1.6c0,1.6-1,2.7-3.6,2.7h-10v-2h10c.7,0,1,0,1-.7v-1.6c0-.5-.3-.7-1-.7h-6.7c-2.6,0-3.6-1.1-3.6-2.7v-.8c0-1.6,1-2.7,3.6-2.7h9.7v2h-9.7c-.7,0-1,.2-1,.7v.8c0,.5.3.7,1,.7h6.7c2.6,0,3.6,1.1,3.6,2.7Z"/>
      </g>
    </g>
  </g>
</svg>