<?xml version="1.0" encoding="UTF-8"?>
<svg xmlns="http://www.w3.org/2000/svg" version="1.1" viewBox="0 0 1203.64 425.2">
  <defs>
    <style>
      .cls-1 {
        fill: #231f20;
      }
    </style>
  </defs>
  <!-- Generator: Adobe Illustrator 28.6.0, SVG Export Plug-In . SVG Version: 1.2.0 Build 709)  -->
  <g>
    <g id="Layer_1">
      <path class="cls-1" fill="#FFFFFF" d="M172.29,304.31c0,4.45,2.97,6.62,6.86,6.62,4.34,0,7.89-2.85,9.03-6.4.23-.91.34-1.94.34-2.97v-6.06c-9.14-.11-16.23,2.06-16.23,8.81ZM172.29,304.31c0,4.45,2.97,6.62,6.86,6.62,4.34,0,7.89-2.85,9.03-6.4.23-.91.34-1.94.34-2.97v-6.06c-9.14-.11-16.23,2.06-16.23,8.81ZM342.6,70H95.71c-10.09,0-18.29,8.19-18.29,18.29v246.88c0,10.1,8.2,18.3,18.29,18.3h246.89c10.1,0,18.29-8.2,18.29-18.3V88.29c0-10.1-8.19-18.29-18.29-18.29ZM131.95,308.65c5.25,0,11.08-1.14,14.51-2.51l2.63,13.6c-3.2,1.6-10.4,3.31-19.77,3.31-26.64,0-40.35-16.57-40.35-38.52,0-26.29,18.74-40.92,42.06-40.92,9.03,0,15.89,1.83,18.97,3.43l-3.54,13.83c-3.54-1.49-8.46-2.86-14.63-2.86-13.83,0-24.57,8.35-24.57,25.49,0,15.43,9.14,25.15,24.69,25.15ZM190.58,321.91l-1.03-5.6h-.34c-3.66,4.46-9.37,6.86-16,6.86-11.32,0-18.06-8.23-18.06-17.15,0-14.52,13.03-21.49,32.8-21.37v-.81c0-2.97-1.6-7.2-10.17-7.2-5.72,0-11.78,1.95-15.43,4.23l-3.2-11.2c3.88-2.17,11.54-4.91,21.71-4.91,18.64,0,24.58,10.97,24.58,24.11v19.44c0,5.37.23,10.51.8,13.6h-15.66ZM236.53,321.91h-17.38v-81.16h17.38v81.16ZM335.06,321.91h-16.92v-30.41c0-8.11-2.63-12.8-8.23-12.8-4,0-6.86,2.74-8,6.06-.46,1.26-.69,3.09-.69,4.46v32.69h-16.91v-31.32c0-7.09-2.52-11.89-8.01-11.89-4.45,0-7.08,3.43-8.11,6.29-.57,1.37-.69,2.97-.69,4.34v32.58h-16.91v-38.07c0-6.97-.23-12.91-.46-17.83h14.63l.8,7.55h.34c2.4-3.55,7.32-8.8,16.92-8.8,7.2,0,12.92,3.65,15.32,9.48h.23c2.05-2.85,4.57-5.14,7.2-6.74,3.08-1.83,6.51-2.74,10.63-2.74,10.74,0,18.86,7.54,18.86,24.23v32.92ZM172.29,304.31c0,4.45,2.97,6.62,6.86,6.62,4.34,0,7.89-2.85,9.03-6.4.23-.91.34-1.94.34-2.97v-6.06c-9.14-.11-16.23,2.06-16.23,8.81Z"/>
      <path class="cls-1" fill="#FFFFFF" d="M620.65,175.24h22.08v-42.51c0-1.79.15-3.88.9-5.67,1.34-3.73,4.77-8.2,10.59-8.2,7.16,0,10.44,6.27,10.44,15.51v40.87h22.08v-42.66c0-1.79.3-4.18.9-5.82,1.49-4.33,5.22-7.91,10.44-7.91,7.31,0,10.74,6.12,10.74,16.71v39.68h22.08v-42.96c0-21.78-10.59-31.62-24.61-31.62-5.37,0-9.85,1.19-13.87,3.58-3.43,2.09-6.71,5.07-9.4,8.8h-.3c-3.13-7.61-10.59-12.38-19.99-12.38-12.53,0-18.94,6.86-22.08,11.49h-.45l-1.04-9.84h-19.09c.3,6.41.6,14.17.6,23.27v49.67ZM579.63,175.24h22.67v-105.91h-22.67v105.91ZM539.66,148.69c0,1.34-.15,2.68-.45,3.88-1.49,4.62-6.12,8.35-11.78,8.35-5.07,0-8.95-2.83-8.95-8.65,0-8.8,9.25-11.64,21.18-11.49v7.91ZM562.78,175.24c-.75-4.03-1.04-10.74-1.04-17.75v-25.36c0-17.15-7.76-31.48-32.07-31.48-13.28,0-23.27,3.58-28.34,6.41l4.18,14.62c4.77-2.98,12.68-5.52,20.14-5.52,11.19,0,13.28,5.52,13.28,9.4v1.04c-25.81-.15-42.81,8.95-42.81,27.89,0,11.64,8.8,22.38,23.57,22.38,8.65,0,16.11-3.13,20.88-8.95h.45l1.34,7.31h20.44ZM484.77,154.65c-4.48,1.79-12.08,3.28-18.94,3.28-20.29,0-32.22-12.68-32.22-32.82,0-22.38,14.02-33.27,32.07-33.27,8.06,0,14.47,1.79,19.09,3.73l4.62-18.05c-4.03-2.09-12.98-4.47-24.76-4.47-30.43,0-54.89,19.09-54.89,53.4,0,28.64,17.9,50.27,52.66,50.27,12.23,0,21.63-2.24,25.81-4.33l-3.43-17.75Z"/>
      <path class="cls-1" fill="#FFFFFF" d="M1022.94,354.24h22.08v-42.51c0-1.79.15-3.88.89-5.67,1.34-3.73,4.77-8.2,10.59-8.2,7.16,0,10.44,6.26,10.44,15.51v40.87h22.08v-42.66c0-1.79.3-4.18.89-5.82,1.49-4.33,5.22-7.91,10.44-7.91,7.31,0,10.74,6.12,10.74,16.71v39.68h22.08v-42.96c0-21.78-10.59-31.62-24.61-31.62-5.37,0-9.84,1.19-13.87,3.58-3.43,2.09-6.71,5.07-9.4,8.8h-.3c-3.13-7.61-10.59-12.38-19.99-12.38-12.53,0-18.94,6.86-22.08,11.49h-.45l-1.04-9.85h-19.09c.3,6.41.6,14.17.6,23.27v49.67ZM1004.75,281.29h-22.82v43.41c0,1.79-.15,3.58-.75,4.92-1.49,3.58-5.07,7.91-11.34,7.91-7.91,0-11.34-6.41-11.34-17v-39.23h-22.82v42.81c0,22.52,10.89,31.77,25.66,31.77,13.13,0,19.99-7.46,22.82-11.93h.45l1.04,10.29h19.69c-.3-6.12-.6-13.87-.6-23.42v-49.52ZM906.45,249.52c-7.31,0-12.08,4.92-11.93,11.49-.15,6.27,4.62,11.34,11.78,11.34s12.23-5.07,12.23-11.34c-.15-6.56-4.77-11.49-12.08-11.49ZM917.79,354.24v-72.94h-22.67v72.94h22.67ZM807.7,354.24h22.67v-42.07c0-2.09.3-4.33.89-5.67,1.49-4.18,5.22-8.5,11.49-8.5,8.2,0,11.49,6.41,11.49,15.81v40.42h22.67v-43.26c0-21.48-11.19-31.33-26.11-31.33-12.08,0-19.54,7.01-22.52,11.63h-.45l-1.04-9.99h-19.69c.3,6.41.6,14.17.6,23.27v49.67ZM778.17,249.52c-7.31,0-12.08,4.92-11.93,11.49-.15,6.27,4.62,11.34,11.78,11.34s12.23-5.07,12.23-11.34c-.15-6.56-4.77-11.49-12.08-11.49ZM789.51,354.24v-72.94h-22.67v72.94h22.67ZM638.55,354.24h22.08v-42.51c0-1.79.15-3.88.89-5.67,1.34-3.73,4.77-8.2,10.59-8.2,7.16,0,10.44,6.26,10.44,15.51v40.87h22.08v-42.66c0-1.79.3-4.18.9-5.82,1.49-4.33,5.22-7.91,10.44-7.91,7.31,0,10.74,6.12,10.74,16.71v39.68h22.08v-42.96c0-21.78-10.59-31.62-24.61-31.62-5.37,0-9.84,1.19-13.87,3.58-3.43,2.09-6.71,5.07-9.4,8.8h-.3c-3.13-7.61-10.59-12.38-19.99-12.38-12.53,0-18.94,6.86-22.08,11.49h-.45l-1.04-9.85h-19.09c.3,6.41.6,14.17.6,23.27v49.67ZM620.36,281.29h-22.82v43.41c0,1.79-.15,3.58-.75,4.92-1.49,3.58-5.07,7.91-11.34,7.91-7.91,0-11.34-6.41-11.34-17v-39.23h-22.82v42.81c0,22.52,10.89,31.77,25.66,31.77,13.13,0,19.99-7.46,22.82-11.93h.45l1.04,10.29h19.69c-.3-6.12-.6-13.87-.6-23.42v-49.52ZM510.57,354.24h22.67v-105.91h-22.67v105.91ZM441.06,311.43l5.97-21.33c1.64-5.82,3.13-13.42,4.62-19.39h.3c1.49,5.97,3.28,13.42,5.07,19.39l6.27,21.33h-22.23ZM466.57,328.43l7.76,25.81h24.46l-31.18-100.54h-29.83l-30.73,100.54h23.57l7.16-25.81h28.79Z"/>
    </g>
  </g>
</svg>