<?xml version="1.0" encoding="UTF-8"?>
<svg xmlns="http://www.w3.org/2000/svg" version="1.1" viewBox="0 0 80 30">
  <!-- Generator: Adobe Illustrator 28.6.0, SVG Export Plug-In . SVG Version: 1.2.0 Build 709)  -->
  <g>
    <g id="Layer_1">
      <g id="Layer_1-2" data-name="Layer_1">
        <path fill="#FFFFFF" d="M79.4,18.1c-.1,0-.3,0-.3.3-.8,2.3-1.9,3.7-2.8,3.7s-.7-.6-.7-1.5c0-2.3,1.4-7.2,2.1-9.4,0-.3.1-.5.1-.7,0-.6-.4-1-1.2-1s-2,.4-2.9,2.1c-.3-1.5-1.4-2.2-2.8-2.2s-3.3,1.1-4.6,2.8-2.9,2.3-4,2c.8-2.1,1.2-3.6,1.2-4.7,0-1.8-.9-2.9-2.3-2.9-2.2,0-3.4,2.1-3.4,4.3s.8,3.4,2.4,4.3c-1.4,3.2-3.5,6.1-4.2,6.1s-1.3-4.9-1.2-8.5c0-2,.2-2.1.2-2.7s-.2-.6-1.1-.6c-2.1,0-2.8,1.8-2.9,3.9,0,.8-.2,1.6-.4,2.3-.9,3.2-2.7,5.6-3.9,5.6s-.7-.6-.7-1.3c0-2.3,1.3-5.2,1.3-7.6s-.8-2.9-2.3-2.9-4.1,2.1-6.2,6c.7-3,1-5.9-1.1-5.9-.5,0-.9.1-1.3.3-.3.1-.5.4-.4.7.2,3.2-2.6,11.3-5.2,11.3s-.7-.5-.7-1.3c0-2.3,1.4-7.1,2.1-9.4,0-.3.1-.5.1-.8,0-.6-.4-.9-1.2-.9s-2,.4-2.9,2.1c-.3-1.5-1.4-2.2-2.8-2.2-2.4,0-5,2.5-6.1,5.7-1.5,4.3-4.7,8.5-8.9,8.5s-5.8-3.2-5.8-8.2c0-7.2,5.3-13.1,9.3-13.1s2.8,1.2,2.8,3-1.2,3.3-1.2,4.1.2.5.6.5c1.7,0,3.7-2,3.7-4.8S17,.6,13.1.6C6.6.6,0,7.1,0,15.5s3.3,10.7,9,10.7,7.3-3,9.1-6.6c.2,2.9,1.5,4.5,3.6,4.5s3.3-1.1,4.4-3c.4,2,1.6,2.9,3,2.9s3.1-1.1,4.5-3.1c0,1.6.3,3,1.7,3s1.4-.1,1.5-.7c1.4-5.9,5-10.7,6-10.7s.4.3.4.7c0,1.6-1.1,4.9-1.1,7s1,3.8,3,3.8,4.5-2.7,5.9-6.7c.5,3.7,1.5,6.7,3.1,6.7s5.4-4.1,7.5-8.4c.8.1,2.1,0,3.2-.8-.5,1.3-.8,2.7-.8,4.1,0,4,1.9,5.1,3.6,5.1s3.3-1.1,4.4-3c.4,1.7,1.3,2.9,3,2.9,2.7,0,5.1-2.8,5.1-5s-.3-1-.6-1l-.1.2ZM23.3,21.9c-1.1,0-1.5-1.1-1.5-2.7,0-2.8,1.9-7.6,4-7.6s1.2,1.1,1.2,2.4c0,2.9-1.9,8-3.7,8v-.1ZM60.7,13.4c-.7-.8-.9-1.8-.9-2.8s.4-2.1.9-2.1.7.5.7,1.2c0,1.2-.4,2.9-.7,3.7ZM69.2,21.9c-1.1,0-1.5-1.3-1.5-2.7,0-2.7,1.9-7.6,4-7.6s1.2,1.1,1.2,2.4c0,2.9-1.8,8-3.7,8v-.1Z"/>
      </g>
    </g>
  </g>
</svg>