<?xml version="1.0" encoding="UTF-8"?>
<svg xmlns="http://www.w3.org/2000/svg" version="1.1" viewBox="0 0 595.28 841.89">
  <defs>
    <style>
      .cls-1 {
        fill: #ffffff;
      }
    </style>
  </defs>
  <!-- Generator: Adobe Illustrator 28.6.0, SVG Export Plug-In . SVG Version: 1.2.0 Build 709)  -->
  <g>
    <g id="Layer_1">
      <g>
        <path class="cls-1" d="M266.33,443.46c-3.16.15-6.24.42-9.33.41-5.41-.02-10.78-.61-15.61-3.26-5.8-3.19-9.18-8.17-10.04-14.75-.64-4.91-.22-9.78,1.8-14.33,3.2-7.22,8.7-11.65,16.63-12.76,3.71-.52,7.44-.41,11.16.05,2.26.28,4.54.41,6.81.63,2.18.21,4.35.43,6.52.66.45.05.85.11,1.07-.42.14-.33.45-.38.78-.38.6,0,1.18.15,1.76.23.42.06.84.19,1.26,0-.45-.52-2.34-1.26-3.29-1.25-.47,0-.89-.09-1.31-.29-.18-.08-.36-.17-.32-.4.03-.19.2-.24.37-.28.81-.18,1.6-.19,2.38.13.68.28,1.37.54,2.06.81.77.3,1.47.53,2.35.09.91-.46,1.97.07,2.45,1.02.18.36.34.54.78.54.69,0,1.01.36.91,1.06-.27,1.78-.57,3.56-.9,5.34-.11.59-.59.79-1.15.57-.17-.07-.34-.16-.49-.23-1.35,1.3-1.9,1.36-3.58.4-.21-.12-.4-.12-.61-.11-1.33.05-2.65.23-3.97.42-.66.1-1.22-.04-1.74-.43-.13-.1-.27-.23-.23-.41.04-.22.23-.3.42-.32.43-.04.84-.03,1.27.06,1.14.24,2.24,0,3.35-.28-.83-.39-1.74-.38-2.6-.55-.37-.07-.69-.15-.89-.5-.18-.32-.52-.32-.82-.35-3.71-.35-7.43-.69-11.14-1.03-2.86-.27-5.71-.73-8.6-.55-4.34.28-8.48,1.19-11.95,4.06-3.5,2.89-5.52,6.61-6.17,11.08-.47,3.26-.41,6.52.74,9.64,2.18,5.91,6.41,9.52,12.54,10.94,2.97.69,5.98.73,9.01.53,2.66-.17,5.32-.24,7.98-.37,4.65-.22,9.31-.45,13.96-.67,2.47-.12,4.94-.22,7.41-.33,3.73-.17,7.46-.36,11.19-.53,2.49-.12,4.99-.21,7.49-.33,3.68-.17,7.36-.35,11.04-.52,2.61-.12,5.23-.22,7.84-.34,3.56-.17,7.12-.35,10.69-.51,2.61-.12,5.23-.22,7.84-.34,2.66-.13,5.33-.15,7.97-.45,4.13-.47,6.94-2.88,7.57-6.82.66-4.05.13-7.71-3.82-10.48-1.7-1.19-3.7-1.61-5.72-1.83-2.65-.29-5.26-.81-7.89-1.22-5.19-.81-10.36-1.68-15.54-2.52-4.85-.79-9.7-1.59-14.56-2.38-5.46-.88-10.93-1.76-16.39-2.64-.4-.06-.79-.14-1.19-.22-.48-.09-.92-.12-1.3.32-.26.3-.69.42-1.05.31-.78-.24-1.61-.41-2.28-.89-.62-.44-1.2-.64-1.89-.18-.33.22-.7.33-1.06.06-.33-.26-.41-.59-.33-1.01.19-1.07.33-2.16.5-3.24.18-1.14.97-1.44,1.87-.72.45.37.97.44,1.47.18.74-.38,1.57-.2,2.34-.44.39-.12.92.04,1.07.51.19.6.62.7,1.13.78,2.74.43,5.49.86,8.23,1.3,4.34.7,8.67,1.42,13,2.11,5.18.83,10.36,1.64,15.54,2.47,4.31.69,8.62,1.42,12.94,2.09,2.82.44,5.64.85,8.42,1.47,5.74,1.29,9.84,4.78,10.91,10.69.89,4.92-.05,9.43-3.73,13.1-2.34,2.34-5.32,3.32-8.49,3.87-.8.14-1.61.12-2.42.13-4.35.02-8.7.34-13.04.54-3.42.16-6.84.31-10.26.48-4.63.22-9.26.45-13.89.67-2.47.12-4.94.21-7.41.33-4.56.22-9.12.45-13.68.66-2.57.12-5.13.22-7.7.34-4.56.22-9.12.45-13.68.67-.9.04-1.8.09-2.77.14v-.03Z"/>
        <path class="cls-1" d="M246.2,424.15c-.25.58-.44,1.12-.49,1.69-.19,2.03.86,3.2,2.9,3.31,1.83.09,3.53-.44,5.2-1.06,3.38-1.27,6.52-3.01,9.55-4.95.14-.09.27-.2.38-.32,2.33-2.87,5.5-3.92,9.04-4.15.28-.02.57.03.85.09,1.03.24,1.27.79.72,1.68,1.6,1.69.2,3.09-.45,4.56.21.23.47.18.68.1,1.07-.41,2.11-.88,2.79-1.87.71-1.03,1.61-1.86,2.58-2.64,1.26-1.02,2.68-1.11,4.18-.99.29.02.59.1.69.42.11.33-.05.62-.29.83-1.14,1.01-2.28,2.02-3.63,2.75-.48.26-.96.53-1.35.92-.24.24-.44.51-.53.83-.19.65,0,.86.65.67,1.29-.38,2.46-1.02,3.56-1.77,2.07-1.4,4.13-2.81,6.2-4.21.31-.21.64-.43.98-.58.53-.23,1.08-.81,1.66-.13.55.65.41,1.75-.28,2.32-.88.73-1.85,1.34-2.69,2.12-.6.55-1.14,1.15-1.55,1.86-.16.27-.28.58-.1.88.19.32.54.26.84.24.61-.04,1.14-.32,1.69-.55,2.28-.95,4.09-2.58,5.97-4.12,2.05-1.67,4.1-3.33,6.14-5.01.84-.69,1.78-.87,2.81-.59.79.21.94.68.4,1.29-.6.68-1.38,1.17-2.06,1.75-.65.56-1.29,1.13-1.91,1.72-.19.18-.44.37-.42.71.3.16.5-.07.72-.17,1.49-.69,2.98-1.38,4.61-1.68.36-.07.71-.1,1.06-.04.88.14,1.34.86,1.14,1.72-.2.84-.68,1.51-1.26,2.12-1.04,1.12-2.29,2-3.51,2.91-.13.1-.26.2-.48.36,1.15.21,2.14.03,3.08-.39,1.13-.5,2.17-1.19,3.2-1.87.23-.15.4-.33.48-.6.8-2.75,2.49-4.89,4.63-6.72,1.66-1.42,3.3-2.88,5.24-3.94.52-.28,1.11-.77,1.71-.28.55.46.3,1.14.17,1.74-.49,2.45-2.12,4.15-3.86,5.77-1.39,1.3-2.9,2.46-4.43,3.6-.63.47-.89,1.33-.64,2.02.27.76.84,1.13,1.72,1.11,1.08-.03,2.03-.47,2.97-.94.4-.2.79-.44,1.19-.66.73-.41,1.27-.96,1.77-1.67,2.25-3.21,5.44-4.63,9.34-4.44.65.03,1.38.17,1.67.9.31.76-.07,1.4-.55,1.95-.78.91-1.82,1.45-2.89,1.92-1.31.58-2.67,1-4.05,1.36-.39.1-.73.18-.74.7,0,.49.19.82.61,1.03.62.31,1.3.36,1.96.24,2.31-.44,4.37-1.42,6.13-3,.07-.06.11-.15.16-.22-.66-.8-.71-1.33-.13-2.23.87-1.33,2.17-2.12,3.64-2.62.76-.26,1.08.09,1.05,1.07.63-.04,1.26-.08,1.89-.13.71-.06,1.42-.13,2.13-.19.9-.08,1.37.24,1.73,1.14.28.7.12,1.27-.6,1.8-.9.66-1.89,1.2-2.65,2.04-.27.3-.55.6-.69.99-.21.57.04,1.02.65,1.08.63.06,1.18-.07,1.67-.58.97-1,2.21-1.65,3.32-2.45,1.39-1,2.81-1.96,4.22-2.93.34-.24.59-.51.75-.92.31-.82.97-1.21,1.83-1.24.98-.04,1.32.27,1.49,1.23.12.68.31,1.34.43,2.02.37,2.1-.75,3.48-2.3,4.63-.49.36-1.03.65-1.51,1.04,2.55.25,4.3-1.59,6.4-2.46.57.84.54,1.02-.22,1.58-1.5,1.1-3.12,2-4.83,2.74-2.55,1.11-6.39.74-8.32-1.97-.39.05-.66.34-.98.53-1.11.65-2.2,1.32-3.48,1.6-.91.2-1.71-.02-2.34-.7-.63-.69-.61-1.51-.35-2.35.23-.75.7-1.35,1.24-1.9.45-.46.9-.91,1.32-1.45-1.15.22-2.37-.09-3.4.86-2.52,2.31-5.19,4.41-8.61,5.27-.74.19-1.49.28-2.26.26-1.72-.04-2.92-.96-3.4-2.62-.07-.25-.07-.52-.29-.76-.38.06-.65.35-.95.56-1.43,1-2.9,1.91-4.63,2.3-.68.15-1.38.19-2.05.06-1.12-.21-1.79-.93-2.07-2.02-.11-.41-.15-.84-.23-1.27-.36-.11-.57.17-.81.33-2.17,1.4-4.45,2.45-7.08,2.6-.63.03-1.28.09-1.83-.16-1.26-.56-2.59-.15-3.86-.4-.36-.07-.47.27-.63.49-.92,1.33-1.83,2.67-2.75,4-.31.45-.63.9-1.12,1.18-.88.5-1.63.11-1.7-.9-.05-.68.12-1.32.4-1.93.42-.89,1.02-1.66,1.69-2.38,1.67-1.8,3.22-3.69,4.73-5.63.14-.18.26-.37.51-.71-2.32,1.63-4.47,3.16-6.63,4.66-1.2.83-2.45,1.55-3.89,1.91-.33.08-.66.11-.99.11-1.39-.03-2.13-.89-1.97-2.28.06-.5.29-.95.49-1.58-.77.58-1.42,1.09-2.09,1.59-.71.53-1.45,1.01-2.31,1.26-1.59.45-2.98-.39-3.35-2-.05-.23-.04-.48-.24-.73-1.25.73-2.65.96-4.08,1.02-.26,0-.43.18-.63.31-1.13.78-2.36,1.3-3.73,1.52-2.29.36-4.04-.84-4.47-3.14-.04-.23-.1-.46-.14-.69-.4-.04-.59.25-.82.41-3.44,2.48-7.07,4.57-11.18,5.72-2.18.61-4.38.9-6.61.31-3.2-.85-4.59-3.35-3.61-6.5.72-2.32,2.2-4.16,3.93-5.78,4.38-4.12,9.47-7.07,15.24-8.82,1.07-.33,2.18-.45,3.31-.25,2.04.36,2.98,2,2.18,3.92-.69,1.65-1.9,2.89-3.2,4.06-2.42,2.19-5.07,4.01-8.21,5.04-.57.19-1.15.3-1.75.23-.58-.06-1.06-.3-1.3-.86-.24-.57-.07-1.08.31-1.52.22-.25.44-.51.71-.7,1.37-.95,2.75-1.88,4.13-2.8.44-.29.92-.48,1.35.18,1.82-1.29,3.58-2.57,4.85-4.41.17-.25.37-.54.18-.86-.2-.33-.55-.23-.85-.2-1.84.19-3.48.96-5.04,1.88-3.23,1.91-6.22,4.14-8.67,7.01-.73.85-1.31,1.81-1.78,2.89M269.5,425.9c-.56-1.5.2-2.68,1.09-3.97-1.24.46-2.27.92-3.22,1.56-.73.49-1.27,1.15-1.51,2-.24.82.1,1.3.93,1.38,1.02.1,1.92-.18,2.71-.98M345.64,426.93c.22.22.45.42.66.65.18.2.35.25.63.15,2.08-.75,2.79-2.44,1.84-4.62-1.45,1.03-2.88,2.04-4.37,3.1.47.26.82.46,1.25.72M302.68,423.31c-1.6.65-3.03,1.55-4.25,2.95.78.11,1.41.21,2.03.3.25.04.46-.04.65-.21.77-.7,1.57-1.37,2.32-2.09.31-.29.82-.66.5-1.12-.27-.4-.72.03-1.09.1-.02,0-.04.02-.16.07M326.85,423.19c.56-.39,1.17-.74,1.49-1.45-1.42-.21-4.04,1.45-4.39,2.75,1.05-.25,1.94-.72,2.9-1.29M316.92,418.12c-1.02,1.02-1.9,2.15-2.57,3.44,1.7-1.22,3.12-2.69,4.17-4.5-.71.07-1.07.6-1.6,1.06h0Z"/>
      </g>
    </g>
  </g>
</svg>