<?xml version="1.0" encoding="UTF-8"?>
<svg xmlns="http://www.w3.org/2000/svg" version="1.1" viewBox="0 0 761 226">
  <defs>
    <style>
      .cls-1 {
        fill: #FFFFFF;
      }
    </style>
  </defs>
  <!-- Generator: Adobe Illustrator 28.6.0, SVG Export Plug-In . SVG Version: 1.2.0 Build 709)  -->
  <g>
    <g id="Layer_2">
      <g>
        <g>
          <path class="cls-1" fill="#FFFFFF" d="M22.2,137.64v-59.93h53.5v10.47h-43.11v38.99h43.2v10.47H22.2ZM40.25,111.59v-8.82h33.22v8.82h-33.22Z"/>
          <path class="cls-1" fill="#FFFFFF" d="M94.49,93.78v43.85h-9.97v-54.41c0-1.92.48-3.45,1.44-4.57.96-1.13,2.27-1.69,3.91-1.69.77,0,1.51.17,2.23.49.71.33,1.46.88,2.23,1.65l42.29,41.96v-43.86h9.97v54.9c0,1.98-.48,3.52-1.44,4.62-.96,1.1-2.21,1.65-3.75,1.65-1.7,0-3.3-.74-4.78-2.23l-42.12-42.37Z"/>
          <path class="cls-1" fill="#FFFFFF" d="M156.73,137.64v-59.93h34.71c4.23,0,8.13.72,11.71,2.14,3.57,1.43,6.65,3.43,9.23,6.02,2.58,2.58,4.6,5.68,6.06,9.27,1.46,3.6,2.18,7.57,2.18,11.91s-.73,8.38-2.18,12.12c-1.46,3.74-3.48,6.97-6.06,9.69-2.58,2.72-5.66,4.86-9.23,6.43-3.57,1.57-7.48,2.35-11.71,2.35h-34.71ZM191.43,127.17c2.69,0,5.18-.5,7.46-1.49,2.28-.99,4.26-2.35,5.94-4.08,1.68-1.73,2.98-3.81,3.92-6.23.93-2.41,1.4-5.02,1.4-7.83s-.47-5.4-1.4-7.79c-.93-2.39-2.24-4.44-3.92-6.14-1.68-1.7-3.66-3.03-5.94-4-2.28-.96-4.77-1.44-7.46-1.44h-24.32v38.99h24.32Z"/>
          <path class="cls-1" fill="#FFFFFF" d="M229.19,137.64v-59.93h53.5v10.47h-43.11v38.99h43.19v10.47h-53.58ZM247.24,111.59v-8.82h33.22v8.82h-33.22Z"/>
          <path class="cls-1" fill="#FFFFFF" d="M354.24,137.64l-8.98-15.08h-28.36l4.95-8.49h18.38l-13.36-22.42-27.2,46h-11.95l34.46-57.37c.61-1.04,1.32-1.87,2.14-2.47.82-.61,1.81-.91,2.97-.91s2.13.3,2.93.91c.8.61,1.5,1.43,2.1,2.47l34.54,57.37h-12.61Z"/>
          <path class="cls-1" fill="#FFFFFF" d="M348.08,77.71h12.78l27.2,46.16,27.12-46.16h12.03l-34.54,57.38c-.61,1.04-1.32,1.87-2.14,2.47-.82.6-1.79.91-2.88.91-1.15,0-2.14-.3-2.97-.91-.83-.6-1.54-1.43-2.15-2.47l-34.46-57.38Z"/>
          <path class="cls-1" fill="#FFFFFF" d="M454.89,137.64c-4.18,0-8.04-.78-11.58-2.35-3.55-1.57-6.62-3.71-9.24-6.43-2.61-2.72-4.64-5.95-6.1-9.69-1.45-3.74-2.18-7.77-2.18-12.12s.73-8.41,2.18-12.04c1.46-3.63,3.49-6.72,6.1-9.27s5.69-4.53,9.24-5.94c3.54-1.4,7.4-2.1,11.58-2.1h14.59c4.35,0,8.31.72,11.91,2.14,3.6,1.43,6.69,3.43,9.27,6.02,2.59,2.58,4.59,5.68,6.02,9.27,1.43,3.6,2.14,7.57,2.14,11.91s-.73,8.38-2.19,12.12c-1.46,3.74-3.49,6.97-6.1,9.69-2.61,2.72-5.7,4.86-9.28,6.43-3.57,1.57-7.5,2.35-11.79,2.35h-14.59ZM469.48,127.17c2.75,0,5.28-.5,7.59-1.49,2.31-.99,4.3-2.35,5.98-4.08,1.68-1.73,2.98-3.81,3.91-6.23.94-2.41,1.4-5.02,1.4-7.83s-.47-5.4-1.4-7.79c-.94-2.39-2.24-4.44-3.91-6.14-1.68-1.7-3.67-3.03-5.98-4-2.31-.96-4.84-1.44-7.59-1.44h-14.59c-2.69,0-5.18.48-7.46,1.44-2.28.96-4.25,2.29-5.9,4-1.65,1.71-2.94,3.74-3.88,6.1-.93,2.36-1.4,4.97-1.4,7.83s.47,5.41,1.4,7.83c.94,2.42,2.23,4.49,3.88,6.23,1.65,1.73,3.61,3.09,5.9,4.08,2.28.99,4.76,1.49,7.46,1.49h14.59Z"/>
          <path class="cls-1" fill="#FFFFFF" d="M560.9,77.71h10.22v33.47c0,4.62-.6,8.64-1.81,12.08-1.21,3.43-3.11,6.28-5.69,8.53-2.59,2.25-5.92,3.93-10.02,5.03-4.09,1.1-9.05,1.65-14.88,1.65s-10.7-.55-14.8-1.65c-4.09-1.1-7.43-2.78-10.02-5.03-2.58-2.25-4.48-5.1-5.69-8.53-1.21-3.44-1.81-7.46-1.81-12.08v-33.47h10.8v33.47c0,3.02.37,5.61,1.12,7.75.74,2.14,1.95,3.9,3.62,5.28,1.68,1.37,3.92,2.38,6.72,3.01,2.8.63,6.27.95,10.39.95s7.58-.32,10.39-.95c2.8-.63,5.04-1.63,6.72-3.01,1.68-1.37,2.88-3.13,3.63-5.28.74-2.14,1.11-4.73,1.11-7.75v-33.47Z"/>
          <path class="cls-1" fill="#FFFFFF" d="M636.24,137.64l-15.17-16.65h-22.42v-9.23h24.98c3.79,0,6.65-1.03,8.57-3.09,1.92-2.06,2.89-5.04,2.89-8.94s-1-6.8-3.01-8.7c-2.01-1.9-4.82-2.84-8.45-2.84h-32.64v49.46h-10.39v-59.93h43.03c3.41,0,6.46.51,9.15,1.53,2.69,1.02,4.97,2.47,6.84,4.37,1.87,1.89,3.3,4.19,4.29,6.88.99,2.69,1.48,5.72,1.48,9.07,0,5-1.09,9.19-3.26,12.57-2.17,3.38-5.21,5.81-9.11,7.29l18.05,18.22h-14.84Z"/>
        </g>
        <path class="cls-1" fill="#FFFFFF" d="M683.1,113.55l-13.46-23.81s-4.66-5.26-8.71.26l-2.06.43.69,3.45-2.76-2.67s-.35,1.9.78,3.88c0,0,21.04,35.88,19.93,40.12,0,0,10.09,6.12,14.92-4.75,0,0,9.57-39.08,21.22-58.75,0,0,15.53-33.82,39.68-41.84,0,0,1.12-2.94-9.4,1.64l3.62-2.85-2.68.17-3.18.69,1.29-1.46-2.68.95,1.55-1.29s-20.36,5.43-41.75,40.72c0,0-8.71,14.58-17,45.11"/>
        <g>
          <path class="cls-1" fill="#FFFFFF" d="M564.06,169.29v-7.61h-9.74v7.61h-3.1v-18.37h3.1v7.98h9.74v-7.98h3.1v18.37h-3.1Z"/>
          <path class="cls-1" fill="#FFFFFF" d="M590.76,160.11c0,5.25-4.25,9.32-9.74,9.32s-9.74-4.07-9.74-9.32,4.25-9.26,9.74-9.26,9.74,4.02,9.74,9.26ZM574.44,160.11c0,3.65,3.02,6.54,6.61,6.54s6.54-2.88,6.54-6.54-2.94-6.48-6.54-6.48-6.61,2.84-6.61,6.48Z"/>
          <path class="cls-1" fill="#FFFFFF" d="M611.46,169.29l-.03-13.73-5.8,11.81h-2.02l-5.8-11.81v13.73h-2.91v-18.37h3.67l6.06,12.2,6.04-12.2h3.65v18.37h-2.86Z"/>
          <path class="cls-1" fill="#FFFFFF" d="M623.1,153.71v4.96h8.98v2.78h-8.98v5.06h10.33v2.78h-13.43v-18.37h13.12v2.78h-10.02Z"/>
          <path class="cls-1" fill="#FFFFFF" d="M650.77,152.68l-1.28,2.73c-2-1.21-3.99-1.7-5.38-1.7-1.81,0-2.99.68-2.99,1.91,0,4.02,9.92,1.86,9.89,8.48,0,3.28-2.89,5.3-6.93,5.3-2.88,0-5.62-1.18-7.51-2.92l1.34-2.67c1.89,1.73,4.25,2.67,6.22,2.67,2.15,0,3.44-.81,3.44-2.23,0-4.1-9.92-1.81-9.92-8.35,0-3.15,2.7-5.12,6.69-5.12,2.39,0,4.72.76,6.43,1.89Z"/>
        </g>
        <rect class="cls-1" fill="#FFFFFF" x="22.2" y="150.94" width="517.94" height="18.26"/>
      </g>
      <g>
        <path class="cls-1" fill="#FFFFFF" d="M393.3,186.19c1.51-.29,3.24-.5,5.22-.5,2.48,0,4.32.5,5.58,1.66,1.15.94,1.76,2.23,1.76,3.78,0,3.1-2.48,5.36-5.22,6.08v.07c2.16.65,3.96,2.48,3.96,5.4,0,2.52-1.3,4.46-2.88,5.65-1.94,1.44-4.61,1.98-7.88,1.98-2.09,0-3.89-.14-5-.36l4.46-23.76ZM392.18,207.75c.76.11,1.62.14,2.45.14,3.53.04,6.84-1.48,6.84-5.36,0-2.84-2.41-4.1-5.11-4.1h-2.45l-1.73,9.32ZM394.38,196.16h2.23c3.49,0,6.16-1.8,6.16-4.75,0-2.34-1.76-3.35-4.39-3.35-1.12,0-2.02.07-2.48.22l-1.51,7.88Z"/>
        <path class="cls-1" fill="#FFFFFF" d="M424.36,192.7l-2.38,12.35c-.36,1.94-.61,3.64-.76,5.08h-2.7l.47-3.28h-.07c-1.58,2.27-3.85,3.67-6.16,3.67s-4.61-1.08-4.61-5.04c0-.83.11-1.8.32-2.95l1.91-9.83h2.95l-1.84,9.72c-.18.97-.29,1.8-.29,2.55,0,1.8.72,3.02,2.77,3.02,2.2,0,4.97-2.56,5.69-6.37l1.69-8.93h2.99Z"/>
        <path class="cls-1" fill="#FFFFFF" d="M426.27,210.13l3.35-17.42h2.95l-3.31,17.42h-2.99ZM431.85,189.75c-1.04,0-1.69-.79-1.69-1.87.04-1.15.9-2.02,1.98-2.02s1.76.79,1.76,1.87c-.04,1.19-.86,2.02-2.02,2.02h-.04Z"/>
        <path class="cls-1" fill="#FFFFFF" d="M434.55,210.13l4.86-25.56h2.99l-4.86,25.56h-2.99Z"/>
        <path class="cls-1" fill="#FFFFFF" d="M461.3,184.57l-3.85,20.01c-.32,1.84-.61,3.85-.72,5.54h-2.74l.47-3.46h-.07c-1.58,2.48-3.78,3.85-6.3,3.85-3.35,0-5.18-2.77-5.18-6.33,0-6.19,4.61-11.88,10.76-11.88,1.12,0,2.34.25,3.1.61l1.55-8.35h2.99ZM456.26,195.44c-.58-.43-1.58-.76-2.84-.76-4.17,0-7.42,4.46-7.42,9.11,0,2.09.72,4.28,3.28,4.28,2.3,0,5.08-2.63,5.83-6.55l1.15-6.08Z"/>
        <path class="cls-1" fill="#FFFFFF" d="M474.22,209.12c-1.3.72-3.42,1.37-5.76,1.37-4.61,0-6.62-3.13-6.62-6.98,0-5.26,3.89-11.2,9.5-11.2,3.31,0,5.11,1.98,5.11,4.5,0,4.57-5.15,5.76-11.59,5.65-.14.76-.04,2.38.36,3.28.68,1.58,2.09,2.34,3.89,2.34,2.05,0,3.6-.61,4.68-1.19l.43,2.23ZM473.57,196.84c0-1.4-1.08-2.2-2.66-2.2-2.84,0-4.97,2.77-5.69,5.51,4.68.07,8.35-.58,8.35-3.28v-.04Z"/>
        <path class="cls-1" fill="#FFFFFF" d="M477.97,210.13l2.12-11.23c.43-2.27.68-4.57.9-6.19h2.63c-.14,1.22-.29,2.45-.5,3.78h.11c1.15-2.38,2.99-4.18,5.33-4.18.29,0,.61.04.86.07l-.58,2.95c-.22-.04-.47-.07-.83-.07-2.56,0-4.86,3.13-5.62,7.16l-1.44,7.7h-2.99Z"/>
        <path class="cls-1" fill="#FFFFFF" d="M489.59,207.1c.79.5,2.3,1.08,3.74,1.08,2.02,0,3.31-1.3,3.31-2.84,0-1.37-.61-2.2-2.45-3.2-2.02-1.12-3.13-2.66-3.13-4.43,0-3.06,2.63-5.4,6.33-5.4,1.55,0,2.95.43,3.6.86l-.83,2.27c-.61-.36-1.69-.79-2.99-.79-1.84,0-3.13,1.12-3.13,2.63,0,1.26.83,2.05,2.41,2.92,1.94,1.12,3.24,2.63,3.24,4.57,0,3.67-2.95,5.72-6.66,5.72-1.87-.04-3.53-.58-4.32-1.19l.86-2.2Z"/>
        <path class="cls-1" fill="#FFFFFF" d="M516.45,210.52c-4.36,0-6.8-3.24-6.8-7.16,0-5.76,4-11.05,9.65-11.05,4.72,0,6.84,3.56,6.84,7.24,0,5.4-3.82,10.98-9.65,10.98h-.04ZM516.84,208.14c3.53,0,6.19-4.54,6.19-8.6,0-2.02-.94-4.86-4.07-4.86-3.74,0-6.23,4.57-6.23,8.57,0,2.84,1.58,4.89,4.07,4.89h.04Z"/>
        <path class="cls-1" fill="#FFFFFF" d="M528.62,210.13l2.84-15.08h-2.3l.43-2.34h2.34l.14-.94c.43-2.41,1.3-4.64,2.84-6.05,1.12-1.01,2.63-1.55,4.14-1.55,1.22,0,1.98.22,2.41.47l-.65,2.38c-.47-.22-1.08-.32-1.76-.32-2.38,0-3.53,2.3-4.03,5.18l-.14.83h3.89l-.47,2.34h-3.85l-2.84,15.08h-2.99Z"/>
        <path class="cls-1" fill="#FFFFFF" d="M563.97,213.51c-3.17-.76-7.13-1.94-8.42-2.55-1.12-.4-1.44-.47-1.66-.47-4.57-.29-8.24-3.82-8.24-9.86,0-4.14,1.62-8.82,4.5-11.7,2.12-2.16,5.22-3.46,8.28-3.46,6.59,0,9.14,4.9,9.14,9.93,0,3.96-1.48,8.71-4.25,11.48-1.3,1.3-3.06,2.38-4.64,2.81v.11c2.12.47,4.39.94,6.44,1.22l-1.15,2.48ZM555.18,208c2.2,0,4.1-.9,5.58-2.34,2.38-2.38,3.67-6.88,3.67-10.19s-1.08-7.49-6.41-7.49c-2.12,0-4.03.9-5.47,2.38-2.38,2.38-3.74,6.77-3.74,10.11,0,3.85,1.66,7.52,6.33,7.52h.04Z"/>
        <path class="cls-1" fill="#FFFFFF" d="M586.21,192.7l-2.38,12.35c-.36,1.94-.61,3.64-.76,5.08h-2.7l.47-3.28h-.07c-1.58,2.27-3.85,3.67-6.16,3.67s-4.61-1.08-4.61-5.04c0-.83.11-1.8.32-2.95l1.91-9.83h2.95l-1.84,9.72c-.18.97-.29,1.8-.29,2.55,0,1.8.72,3.02,2.77,3.02,2.2,0,4.97-2.56,5.69-6.37l1.69-8.93h2.99Z"/>
        <path class="cls-1" fill="#FFFFFF" d="M599.5,210.13c0-1.05.18-2.7.4-4.5h-.07c-1.91,3.64-4.32,4.9-6.77,4.9-3.1,0-5-2.45-5-5.76,0-6.08,4.46-12.46,12.06-12.46,1.66,0,3.46.29,4.68.65l-1.8,9.11c-.58,3.02-.79,6.12-.72,8.06h-2.77ZM601.44,194.93c-.43-.14-1.08-.25-2.09-.25-4.5,0-8.21,4.68-8.21,9.54,0,1.94.68,3.85,2.99,3.85,2.48,0,5.44-3.24,6.3-7.88l1.01-5.25Z"/>
        <path class="cls-1" fill="#FFFFFF" d="M606.77,210.13l4.86-25.56h2.99l-4.86,25.56h-2.99Z"/>
        <path class="cls-1" fill="#FFFFFF" d="M614.98,210.13l3.35-17.42h2.95l-3.31,17.42h-2.99ZM620.56,189.75c-1.04,0-1.69-.79-1.69-1.87.04-1.15.9-2.02,1.98-2.02s1.76.79,1.76,1.87c-.04,1.19-.86,2.02-2.02,2.02h-.04Z"/>
        <path class="cls-1" fill="#FFFFFF" d="M630.93,188.53l-.79,4.18h4.18l-.47,2.34h-4.18l-1.58,8.46c-.22.97-.36,1.87-.36,2.77,0,1.04.5,1.69,1.66,1.69.54,0,1.01-.04,1.4-.14l-.14,2.34c-.54.22-1.44.32-2.3.32-2.63,0-3.67-1.58-3.67-3.38,0-1.01.14-1.98.4-3.24l1.69-8.82h-2.48l.43-2.34h2.48l.61-3.2,3.13-.97Z"/>
        <path class="cls-1" fill="#FFFFFF" d="M638.7,192.7l1.73,9.36c.4,2.02.61,3.31.79,4.61h.07c.47-1.12.97-2.34,1.87-4.28l4.46-9.68h3.17l-6.55,13.25c-1.87,3.74-3.63,6.8-6.01,9.14-1.94,1.98-4.07,2.81-5.04,3.02l-.76-2.59c.76-.25,2.02-.72,3.2-1.66,1.19-.9,2.45-2.3,3.38-4.03.14-.29.14-.47.07-.79l-3.49-16.34h3.1Z"/>
      </g>
    </g>
  </g>
</svg>