<?xml version="1.0" encoding="UTF-8"?>
<svg xmlns="http://www.w3.org/2000/svg" version="1.1" viewBox="0 0 595.28 841.89">
  <defs>
    <style>
      .cls-1 {
        fill: #231f20;
      }
    </style>
  </defs>
  <!-- Generator: Adobe Illustrator 28.6.0, SVG Export Plug-In . SVG Version: 1.2.0 Build 709)  -->
  <g>
    <g id="Layer_1">
      <g>
        <path class="cls-1" fill="#FFFFFF" d="M365.29,438.59v.11c-7.57,0-15.14,0-22.74-.01-.49-.07-.96-.09-1.41-.18-1.22-.23-2.27-.8-3.18-1.64-.68-.63-1.21-1.37-1.58-2.22-.28-.63-.46-1.29-.46-1.99v-8.89h.01s.03-.01.05-.03h7.23v-6.25h-3.3c-1.31,0-2.63,0-3.95-.01-.01-.01-.02-.02-.04-.02v-8.23c0-.37.01-.74.04-1.11.04-.61.22-1.18.47-1.74.37-.84.95-1.52,1.65-2.1.55-.46,1.15-.84,1.81-1.14.95-.43,1.95-.61,2.98-.61h22.42s0,.06-.01.1c-.19.36-.37.7-.56,1.04-.56,1.02-1.12,2.03-1.68,3.05-.34.62-.68,1.24-1.01,1.87-.1.19-.22.27-.46.27h-18.32v8.61h17.15v6.32h-17.15v8.6h18.25c.3,0,.44.1.57.36.32.63.67,1.25,1.01,1.87.5.91,1,1.82,1.5,2.73.23.42.47.84.71,1.26v-.02Z"/>
        <path class="cls-1" fill="#FFFFFF" d="M253.87,423.76h-16.84v14.91c-2.44.02-4.88.02-7.33.02,0-4.98,0-9.95.02-14.95,2.43-.02,4.85-.02,7.27-.02v-6.25h-7.28c0-2.98,0-5.96.01-8.97.03-.2.04-.37.06-.54.07-.61.24-1.2.51-1.75.36-.74.86-1.38,1.49-1.92.57-.48,1.19-.88,1.87-1.18.92-.41,1.89-.6,2.89-.6,7.45-.01,14.89,0,22.34,0h.21c-.04.08-.06.13-.09.19-.29.52-.57,1.04-.86,1.56-.32.58-.63,1.16-.94,1.74-.48.88-.97,1.76-1.45,2.65-.07.13-.14.18-.29.18h-18.4v8.6h16.58c.08,0,.16,0,.25.02.01.06.03.11.03.16v5.97c0,.06-.02.12-.04.18h-.01Z"/>
        <path class="cls-1" fill="#FFFFFF" d="M294.31,423.78v1.37c-.02.71-.1,1.41-.21,2.11-.16.96-.42,1.89-.81,2.78-.3.67-.66,1.31-1.03,1.94-.4.66-.89,1.26-1.41,1.84-.99,1.1-2.12,2.01-3.39,2.76-.84.5-1.73.9-2.66,1.2-.74.24-1.5.41-2.28.52-.75.11-1.5.15-2.25.15h-4c-.75,0-1.5-.07-2.24-.18-1.25-.19-2.44-.56-3.59-1.09-.93-.44-1.79-.98-2.6-1.61-.68-.53-1.29-1.12-1.88-1.74-.66-.71-1.24-1.48-1.73-2.33-.48-.83-.88-1.69-1.16-2.6-.22-.72-.4-1.44-.48-2.19-.05-.44-.09-.88-.11-1.32-.03-.52-.03-1.04-.04-1.6.02-.03.04-.04.06-.04h7.13c.06,0,.12.03.17.06.01.58,0,1.14.05,1.69.05.51.14,1.02.26,1.51.28,1.13.85,2.11,1.65,2.96.27.28.56.54.86.79.47.4.99.71,1.56.95.8.34,1.65.46,2.51.45h2.21c.76-.01,1.51-.03,2.27-.08.67-.04,1.29-.25,1.89-.55.68-.34,1.27-.8,1.79-1.36.62-.68,1.13-1.43,1.51-2.27.34-.76.55-1.55.63-2.38.05-.58.03-1.17.04-1.77v-21.45c2.42,0,4.84,0,7.28.02.02,5.05.02,10.09,0,15.14-.02.03-.02.06-.02.08v6.11s.02.09.04.13h-.02Z"/>
        <path class="cls-1" fill="#FFFFFF" d="M305.44,438.7s-.07-.04-.09-.04c-.56.02-1.1-.07-1.64-.19-.75-.18-1.44-.48-2.05-.97-.89-.72-1.36-1.69-1.65-2.76-.19-.71-.2-1.44-.15-2.17.08-1.12.36-2.19.89-3.18.32-.61.69-1.18,1.17-1.68.49-.5.99-.98,1.5-1.46.41-.39.84-.77,1.26-1.15.46-.42.92-.84,1.38-1.27.02-.02.04-.02.09-.05.07-.03.13-.04.18-.04h10.43c.06,0,.13.03.19.05-.12.11-.24.22-.35.32-.25.23-.5.46-.76.68-.61.54-1.22,1.07-1.83,1.61-.43.38-.87.77-1.3,1.15-.67.59-1.34,1.19-2.01,1.78-.44.39-.89.79-1.33,1.18-.57.5-1.13,1.01-1.7,1.51-.12.11-.24.22-.38.36h22.69v6.32h-24.54Z"/>
        <path class="cls-1" fill="#FFFFFF" d="M269.79,402.3c.02,5.04.02,10.07,0,15.14-.07.03-.12.05-.17.05h-7.04s-.1-.02-.15-.03v-15.13c2.45-.02,4.89-.02,7.35-.02h.01Z"/>
        <path class="cls-1" fill="#FFFFFF" d="M324.1,417.43c-.08.02-.16.05-.24.05h-10.75s-.04-.02-.05-.02h0c.18-.17.37-.33.55-.49.39-.36.78-.73,1.17-1.09.44-.4.88-.8,1.31-1.2.44-.4.88-.8,1.31-1.2s.87-.79,1.3-1.19c.44-.4.88-.8,1.31-1.2.44-.4.87-.8,1.31-1.2.33-.3.67-.6,1.01-.9.04-.03.09-.05.13-.07-.01-.02-.03-.04-.04-.05h-21.62v-6.33h23.31c1.04,0,2.07.15,3.01.62.57.28,1.08.65,1.49,1.14.57.67.95,1.43,1.14,2.29.09.42.13.86.16,1.29.03.38.04.77,0,1.14-.06.58-.13,1.16-.27,1.72-.14.54-.36,1.08-.6,1.59-.29.62-.67,1.2-1.16,1.69-.45.45-.94.87-1.41,1.3-.26.24-.52.47-.78.71-.5.45-.99.89-1.49,1.34-.03.03-.07.05-.11.08v-.02Z"/>
      </g>
    </g>
  </g>
</svg>