<?xml version="1.0" encoding="UTF-8"?>
<svg xmlns="http://www.w3.org/2000/svg" version="1.1" viewBox="0 0 595.28 841.89">
  <defs>
    <style>
      .cls-1 {
        fill: #FFFFFF;
      }
    </style>
  </defs>
  <!-- Generator: Adobe Illustrator 28.6.0, SVG Export Plug-In . SVG Version: 1.2.0 Build 709)  -->
  <g>
    <g id="Layer_1">
      <g>
        <path class="cls-1" fill="#FFFFFF" d="M284.81,414.31v18.74c0,1.19-.29,1.47-1.47,1.48-2.33.01-4.66.04-6.99.05-1.23,0-1.58-.34-1.58-1.56v-41.78c0-1.23.33-1.56,1.57-1.56h10.89c1.06,0,1.24.12,1.61,1.09,3.47,8.98,6.94,17.97,10.41,26.95.04.1.05.23.12.3.22.22.48.59.68.57.27-.03.59-.34.72-.61.33-.71.57-1.47.85-2.21,3.09-8.31,6.18-16.61,9.27-24.92.4-1.06.55-1.17,1.69-1.17h10.89c1.11,0,1.47.35,1.47,1.45v41.98c0,1.1-.37,1.47-1.46,1.47-2.44,0-4.88-.03-7.32-.05-.82,0-1.17-.41-1.17-1.32v-22.77c0-.18.02-.35,0-.53-.05-.38.2-.94-.41-1.03-.56-.09-.55.47-.68.81-2.86,7.9-5.72,15.8-8.57,23.7-.38,1.05-.51,1.13-1.63,1.14-2.51.01-5.01.04-7.52.05-1.06,0-1.28-.16-1.65-1.15-2.87-7.8-5.74-15.61-8.61-23.41-.05-.14-.07-.32-.16-.43-.16-.18-.36-.32-.54-.48-.14.21-.39.43-.4.64-.04,1.5-.02,2.99-.02,4.55h.01Z"/>
        <path class="cls-1" fill="#FFFFFF" d="M233.03,400.76c.1-2.27.55-4.39,1.83-6.23,2.18-3.13,5.18-4.83,9.02-4.84,7.81-.02,15.62,0,23.43,0,1.05,0,1.26.26,1.24,1.29-.04,1.93-.05,3.87-.05,5.8,0,1.19-.1,1.32-1.3,1.32-5.39,0-10.78-.03-16.17.02-1.68.01-3.39.08-5.04.39-2.02.38-3.03,1.77-3.15,3.84-.03.42-.04.83-.04,1.25-.02,2.35-.05,4.71-.05,7.06,0,3.65,0,7.3.11,10.95.07,2.37,1.88,4.04,4.27,4.05,4.64.03,9.28,0,13.92.02.64,0,.8-.33.8-.86v-6.6c0-.83-.22-1.06-1.06-1.06h-8.38c-1.21,0-1.48-.27-1.48-1.47v-6.07c0-.93.2-1.14,1.1-1.14h17.95c.95,0,1.25.3,1.25,1.27,0,7.41.02,14.83.02,22.24,0,1.34-1.14,2.54-2.44,2.54-8.12,0-16.24.04-24.35-.06-5.86-.08-10.27-3.85-11.3-9.51-.21-1.18-.19-2.41-.21-3.61-.04-2.22-.02-4.44-.03-6.67,0-2.93-.05-5.85-.04-8.78,0-1.69.08-3.38.13-5.14h.02Z"/>
        <path class="cls-1" fill="#FFFFFF" d="M351.4,417.11h-11.15c-1.14,0-1.23.09-1.23,1.25v15.05q0,1.13-1.13,1.13c-2.53.01-5.06.03-7.59.05-.91,0-1.14-.24-1.14-1.26v-41.65c0-.4,0-.79,0-1.19.02-.5.3-.76.79-.79.22-.01.44-.01.66-.01h10.1c2.42,0,4.84.05,7.26.04,4.25,0,8.49-.03,12.74-.05,1.22,0,1.4.19,1.39,1.42v5.81c0,1.26-.16,1.43-1.45,1.43h-20.53c-1,0-1.1.08-1.1,1.09,0,2.64,0,5.28,0,7.92,0,1.02.1,1.09,1.1,1.09h16.96c1.39,0,1.43.04,1.43,1.45v6.07c0,.95-.22,1.16-1.17,1.16h-5.95Z"/>
        <path class="cls-1" fill="#FFFFFF" d="M295.93,403.64c-.91-2.48-1.81-4.91-2.7-7.34-.17-.47-.05-.77.52-.77,4.18.01,8.36.01,12.54.02.57,0,.69.21.46.83-.98,2.63-1.97,5.26-2.96,7.89-1.05,2.8-2.09,5.59-3.14,8.39-.13.35-.23.83-.7.7-.28-.08-.58-.43-.7-.72-1.13-2.98-2.21-5.97-3.32-9.01h0Z"/>
        <path class="cls-1" fill="#FFFFFF" d="M304.53,389.65h3.3c.99,0,1.36.52,1.03,1.45-.19.54-.43,1.06-.6,1.6-.2.65-.62.87-1.28.87-3.36-.02-6.73,0-10.09,0-1.3,0-2.59-.01-3.89,0-.53,0-.87-.2-1.04-.71-.19-.58-.43-1.15-.63-1.73-.34-.98,0-1.46,1.07-1.47h12.13,0Z"/>
        <path class="cls-1" fill="#FFFFFF" d="M286.84,431.08c0-3.56,0-7.05,0-10.55,0-.22.15-.45.22-.67.15.18.37.34.44.55,1.67,4.48,3.32,8.97,4.98,13.45.19.5.07.68-.47.67-1.54-.02-3.08-.02-4.61,0-.48,0-.6-.18-.59-.62.03-.92,0-1.85,0-2.83h.02Z"/>
        <path class="cls-1" fill="#FFFFFF" d="M312.86,431.34c0,.95.02,1.83-.02,2.7,0,.16-.23.45-.36.45-1.71.02-3.43,0-5.14,0-.04,0-.08-.04-.26-.15,1.75-4.76,3.52-9.54,5.29-14.32.03-.09.23-.13.49-.26v11.58Z"/>
        <path class="cls-1" fill="#FFFFFF" d="M266.53,444.93c-.29-.37-.56-.71-.93-1.16v6.16h-1.56v-8.77c.92-.22,1.58-.04,2.18.8,1.22,1.73,2.58,3.38,3.98,5.18v-6.01h1.53v8.78c-.73.12-1.34.13-1.88-.65-1.02-1.48-2.19-2.87-3.32-4.33h0Z"/>
        <path class="cls-1" fill="#FFFFFF" d="M288.46,448.07c-.04-.06-.06-.07-.06-.09-.52-1.26-1.55-1.19-2.68-1.01v2.97h-1.55v-8.85c.76,0,1.51-.01,2.27,0,.9.02,1.81-.03,2.69.12,1.4.24,2.13,1.12,2.26,2.46.12,1.27-.48,2.26-1.72,2.82-.09.04-.19.08-.34.15.78,1.1,1.52,2.15,2.36,3.32-.66,0-1.21.02-1.76-.02-.13,0-.27-.19-.37-.32-.36-.5-.71-1-1.1-1.54M287.54,445.47c.37-.03.75-.02,1.1-.11.78-.2,1.15-.71,1.11-1.47-.03-.69-.48-1.23-1.25-1.29-.91-.07-1.82-.02-2.76-.02v2.89h1.8Z"/>
        <path class="cls-1" fill="#FFFFFF" d="M260.85,447.32c-.99,2.01-2.57,2.92-4.77,2.77-1.81-.12-3.37-1.31-3.94-3.03-.66-1.95.02-4.14,1.64-5.29,1.62-1.16,4.03-1.14,5.62.05,1.64,1.21,2.2,3.34,1.44,5.5M259.51,445.89c.1-2.38-1.75-4.01-3.83-3.36-1.41.44-2.29,1.86-2.09,3.41.2,1.53,1.38,2.67,2.84,2.72,1.58.06,2.71-.91,3.08-2.77h0Z"/>
        <path class="cls-1" fill="#FFFFFF" d="M331.96,443.27c1.09,2.3.48,4.78-1.44,6.07-1.89,1.26-4.63.99-6.1-.66-1.27-1.42-1.55-3.09-.88-4.85.64-1.69,1.92-2.65,3.71-2.86,2.01-.23,3.62.48,4.71,2.29M330.24,447.46c1.03-1.65.68-3.67-.8-4.61-1.33-.84-3.09-.5-3.99.77-.96,1.35-.68,3.39.61,4.4,1.27,1,2.98.79,4.18-.57h0Z"/>
        <path class="cls-1" fill="#FFFFFF" d="M335.31,442.96v-1.87h1.78c.94,0,1.89-.03,2.83.03,1.4.1,2.43,1,2.62,2.19.24,1.54-.34,2.59-1.77,3.21-.06.03-.12.05-.24.12.77,1.08,1.52,2.15,2.35,3.32-.63,0-1.17.03-1.7-.02-.15-.01-.33-.19-.43-.33-.51-.69-1.03-1.37-1.47-2.1-.29-.47-.62-.68-1.17-.61-.37.04-.74,0-1.18,0v3.01h-1.62v-6.95M340.64,444.92c.63-1.04.35-2.09-.74-2.27-.97-.15-1.98-.03-2.96-.03v2.84c.73,0,1.42.06,2.09-.02.52-.06,1.02-.3,1.61-.53h0Z"/>
        <path class="cls-1" fill="#FFFFFF" d="M299.64,442.83c1.03,2.37,2.05,4.7,3.11,7.13-.54,0-.99.03-1.43-.02-.16-.02-.35-.22-.43-.39-.26-.55-.48-1.12-.73-1.7-1.28,0-2.54-.01-3.79.02-.18,0-.39.19-.52.34-.13.16-.18.4-.27.6-.37.85-1.06,1.22-2.07,1.1.07-.19.12-.38.2-.55,1.14-2.61,2.31-5.22,3.41-7.85.26-.61.68-.47,1.11-.51.44-.04.69.09.84.52.14.44.36.85.56,1.32M298.26,443.36c-.04-.09-.09-.18-.19-.38-.51,1.19-.98,2.29-1.46,3.4h2.95c-.43-1.01-.84-1.97-1.3-3.02h0Z"/>
        <path class="cls-1" fill="#FFFFFF" d="M345.53,442.27c.96-1.27,2.56-1.67,4.32-1.07.57.19,1.08.52,1.67.82-.34.48-.6.85-.86,1.22-.52-.24-.97-.52-1.46-.67-.43-.13-.9-.16-1.35-.14-.54.03-.98.31-1.06.9-.08.58.29.91.78,1.07.87.29,1.77.5,2.63.84,1.27.51,1.75,1.48,1.47,2.81-.22,1.04-.92,1.65-1.9,1.89-1.83.45-3.46-.01-4.95-1.26.33-.39.63-.76.96-1.15.9.76,1.87,1.25,3.04,1.13.3-.03.61-.11.86-.27.63-.4.61-1.26-.04-1.62-.4-.22-.85-.34-1.29-.48-.46-.15-.94-.24-1.39-.41-1.71-.63-2.22-1.91-1.44-3.61h0Z"/>
        <path class="cls-1" fill="#FFFFFF" d="M249.25,449.22c-3.16,2.13-6.95.42-7.39-3.27-.33-2.81,2.04-5.23,4.86-5.02,1.23.09,2.3.48,3.21,1.4-.35.4-.68.78-1,1.15-1.83-1.36-3.44-1.41-4.57-.18-1.1,1.19-1.12,3.18-.04,4.4,1.15,1.3,2.71,1.26,4.62-.12.34.33.69.65,1.06,1-.25.22-.48.41-.75.64h0Z"/>
        <path class="cls-1" fill="#FFFFFF" d="M310.98,447.82c.23-.05.48-.14.62-.06.3.17.54.44.79.65-1.38,1.97-4.56,2.28-6.49.73-1.99-1.6-2.24-4.84-.52-6.72,1.8-1.97,5.07-2.02,6.91-.07-.32.37-.64.75-.82.95-.93-.32-1.74-.75-2.59-.85-1.26-.15-2.29.64-2.75,1.82-.5,1.28-.16,2.8.83,3.69.88.79,2.21.93,3.32.33.23-.12.44-.29.69-.47h.01Z"/>
        <path class="cls-1" fill="#FFFFFF" d="M278.76,447.98v1.94h-1.6v-7.32h-2.8v-1.45h7.16v1.4h-2.76v5.43Z"/>
        <path class="cls-1" fill="#FFFFFF" d="M318.73,445.87v4.05h-1.63v-7.32h-2.76v-1.48h7.16v1.43h-2.77v3.32Z"/>
      </g>
    </g>
  </g>
</svg>