<?xml version="1.0" encoding="UTF-8"?>
<svg xmlns="http://www.w3.org/2000/svg" version="1.1" viewBox="0 0 595.28 841.89">
  <defs>
    <style>
      .cls-1 {
        fill: #231f20;
      }
    </style>
  </defs>
  <!-- Generator: Adobe Illustrator 28.6.0, SVG Export Plug-In . SVG Version: 1.2.0 Build 709)  -->
  <g>
    <g id="Layer_1">
      <g>
        <g>
          <path class="cls-1" fill="#FFFFFF" d="M189.42,288.5c.55-.62,1.07-1.14,1.66-1.79,1.53-.03,3.16,0,4.76,0h19.51c-.2.59-.55.88-.81,1.21-2.44,2.8-4.92,5.57-7.39,8.37-7.07,8.01-14.14,16.03-21.21,24.04-.59.65-1.17,1.3-1.76,1.99-.29.33-.55.68-.88,1.08,10.78,12.64,21.57,25.21,32.32,37.79.1.1.23.16.33.23.07-.03.13-.07.16-.1,0,0,.03-.07.03-.13v-.29c0-21.57,0-43.13.03-64.7,0-.03,0-.1.1-.26,6.81-3.03,13.71-6.03,20.62-9.06.13-.07.29,0,.42,0,.16,1.11.2,76.78,0,78.31-.26.03-.52.13-.81.13h-44.08c-4.89-5.7-9.74-11.47-14.56-17.27-4.82-5.8-9.61-11.63-14.5-17.53-.26.42-.13.85-.13,1.27v31.76c0,.52,0,1.04-.03,1.5-.13.13-.16.16-.2.2-.03,0-.1.03-.13.03-6.71,0-13.42,0-20.13.03h-.75c-.1,0-.16-.07-.26-.1,0-.03-.07-.07-.1-.13,0-.03-.03-.1-.03-.13,0-25.74,0-51.47-.03-77.21,0-.23.03-.49.07-.72,0-.03.07-.1.13-.2.26,0,.62-.1.94-.1,8.99-.13,19.06-.07,20.49.16.13.98.03,2.02.07,3.03v27.23c.16,0,.23.03.26,0,.03,0,.1-.03.13-.07.07-.07.13-.13.2-.2,8.34-9.58,16.91-18.93,25.51-28.41h.07Z"/>
          <path class="cls-1" fill="#FFFFFF" d="M562.67,348.83c1.07,2.28,2.9,3.29,5.18,3.52,2.41.23,4.79.16,7.13-.49.33-.1.65-.16,1.01-.23h.16c.03.13.1.26.1.39.16,4.2.33,8.4.49,12.61,0,.13-.07.29-.13.46-.88.42-1.86.52-2.83.72-4.4.81-8.86.94-13.32.62-2.05-.13-4.07-.55-6.03-1.24-5.31-1.82-8.7-5.51-10.26-10.85-.81-2.74-1.21-5.54-1.21-8.4v-23.98c0-.52,0-1.04-.03-1.63-.33-.03-.55-.1-.78-.1h-15.34c-.07.36-.16.62-.16.91v44.01c-.36.07-.65.13-.91.13h-17.36c-.23,0-.49,0-.81-.03-.07-.29-.13-.55-.13-.85v-44.04c-.46-.07-.85-.13-1.21-.13h-8.96c-.49,0-.94-.03-1.4-.07-.23-1.14-.29-11.21-.1-13.42.33-.33.72-.23,1.11-.23h8.96c.49,0,.98,0,1.53-.07.03-.36.1-.62.1-.91,0-1.53,0-3.03.07-4.56.1-3.06.52-6.06,1.5-8.96.91-2.67,2.25-5.08,4.27-7.13,2.08-2.08,4.59-3.45,7.39-4.37,2.83-.91,5.73-1.27,8.67-1.4,3-.13,5.96.1,8.93.55.2,0,.36.1.62.16.2,1.47.07,2.93.1,4.4v8.76c-.55-.2-.91-.29-1.27-.42-1.89-.78-3.84-.75-5.8-.42-1.79.29-3.06,1.47-3.88,3.09-.65,1.34-1.01,2.77-1.11,4.23-.16,2.05-.2,4.1-.26,6.16,0,.23.07.46.1.75.36.03.62.07.91.1,6.16.13,14.4.07,15.8-.13,0-.36.1-.75.1-1.11v-9.32c5.93-3.06,11.79-6.09,17.69-9.09.07-.03.2,0,.36.03.16,1.04.07,2.12.07,3.19v13.06c0,1.08-.07,2.15.07,3.26,1.66.2,3.23.07,4.76.1h4.56c1.56,0,3.13-.1,4.76.07.23,1.5.1,2.96.1,4.4v8.86c-.42.49-.91.36-1.3.36h-11.34c-.49,0-.98-.1-1.5.16,0,.29-.1.62-.1.94v22.05c0,1.79.2,3.62,1.01,5.41l-.03.1Z"/>
          <path class="cls-1" fill="#FFFFFF" d="M259.03,364.6c-2.9-1.17-5.54-2.61-7.69-4.72-4.07-4.01-6.94-8.73-8.05-14.4-.1-.52-.2-1.04-.29-1.6-.1-.62-.13-1.27-.23-1.86.29-.42.72-.42,1.07-.46,2.44-.23,4.89-.42,7.33-.65,2.83-.26,5.67-.55,8.47-.78,1.01-.1,2.02-.26,3.13-.13.07.29.13.59.2.88.42,2.28,1.34,4.4,2.67,6.32,2.18,3.16,5.24,4.79,8.99,5.15,1.95.2,3.91,0,5.8-.59,2.35-.75,4.14-2.22,5.28-4.4,1.21-2.41,1.17-4.82-.16-7.17-.85-1.5-2.05-2.61-3.58-3.39-1.95-1.04-4.04-1.76-6.16-2.35-2.28-.62-4.56-1.17-6.81-1.79-4.17-1.14-8.21-2.57-12.05-4.63-1.99-1.08-3.88-2.31-5.51-3.88-3.49-3.32-5.41-7.36-5.9-12.15-.52-5.41.81-10.29,3.97-14.69,2.05-2.83,4.72-4.95,7.79-6.61,3.68-2.02,7.62-3.26,11.83-3.71,3.49-.39,6.94-.46,10.42-.16,5.31.42,10.29,1.92,14.82,4.72,2.22,1.37,4.23,3.03,5.86,5.08,2.02,2.54,3.19,5.47,3.91,8.63.23,1.01.36,2.02.55,3.13-.29.1-.55.23-.81.26-1.37.16-2.74.29-4.1.42-2.67.23-5.38.46-8.05.68-1.47.13-2.93.29-4.4.46-.72.07-1.47.1-2.25.13-.13-.49-.26-.91-.39-1.3-.94-3.03-2.67-5.47-5.57-6.87-3.09-1.47-6.35-1.66-9.58-.59-2.12.68-3.58,2.15-4.23,4.33-.62,2.08-.03,3.88,1.53,5.31.72.68,1.63,1.11,2.54,1.47,1.6.65,3.26,1.08,4.92,1.47,5.02,1.14,10,2.41,14.85,4.14,3.09,1.11,6.09,2.41,8.83,4.27,5.18,3.49,8.27,8.34,9.02,14.5,1.04,8.31-1.34,15.6-7.17,21.7-2.61,2.7-5.73,4.56-9.19,5.9-5.24,2.02-10.65,2.9-16.26,2.74-3.84-.1-7.62-.52-11.34-1.5-1.34-.36-2.61-.81-4.01-1.3h-.03Z"/>
          <path class="cls-1" fill="#FFFFFF" d="M358.1,318.73c2.87,1.08,5.51,2.31,7.95,4.04,5.38,3.81,8.27,9.02,8.83,15.57.68,8.18-2.05,15.12-7.79,20.88-2.08,2.12-4.59,3.68-7.33,4.82-3.81,1.63-7.75,2.7-11.89,3.09-6.12.59-12.12.1-18.05-1.53-2.12-.59-4.17-1.43-6.12-2.44-2.83-1.5-5.11-3.58-7.1-6.06-3.16-3.91-5.11-8.34-5.86-13.29-.1-.62-.13-1.27-.16-1.86.39-.39.85-.39,1.27-.42l7.92-.68c2.57-.23,5.18-.52,7.75-.75.98-.1,1.95-.13,2.96-.2.1.36.2.62.26.91.49,2.51,1.47,4.76,3,6.81,1.63,2.15,3.71,3.58,6.32,4.3,2.67.72,5.34.68,7.98-.07,1.76-.49,3.19-1.47,4.4-2.83,3.03-3.49,2.51-8.57-1.5-11.47-.94-.68-2.02-1.17-3.09-1.63-2.48-1.04-5.08-1.73-7.72-2.35-4.59-1.11-9.06-2.48-13.36-4.46-1.82-.85-3.58-1.82-5.21-3-4.23-3.06-7.07-7.04-7.95-12.25-1.3-7.72.81-14.37,6.61-19.68,3.65-3.36,8.05-5.34,12.84-6.48,2.77-.65,5.6-.91,8.44-.94,2.64,0,5.28,0,7.92.36,5.18.75,9.97,2.51,14.24,5.51,4.37,3.06,7.04,7.3,8.18,12.48.23,1.11.42,2.22.62,3.32-.65.36-1.27.36-1.89.39-3.75.36-7.53.65-11.27,1.01-1.5.13-3.03.33-4.53.46-.62.07-1.27.2-1.95,0-.13-.46-.23-.94-.39-1.4-1.04-3.16-2.93-5.67-6.09-6.94-2.87-1.17-5.83-1.3-8.8-.42-2.44.75-4.01,2.35-4.59,4.89-.36,1.53,0,2.9.98,4.14.75.94,1.73,1.6,2.83,2.05,1.66.72,3.42,1.17,5.18,1.6,4.72,1.08,9.41,2.28,14.01,3.84.68.23,1.37.49,2.18.78v-.1Z"/>
          <path class="cls-1" fill="#FFFFFF" d="M451.52,307.59c3.23-1.3,6.45-2.02,9.77-2.38,2.9-.29,5.77-.29,8.63.1,7.43.94,13.81,3.91,18.8,9.61,2.96,3.39,4.92,7.3,6.06,11.63,1.3,4.85,1.53,9.74.94,14.72-.52,4.33-1.79,8.44-4.04,12.18-3.71,6.22-9.09,10.29-15.96,12.41-3.45,1.08-6.97,1.53-10.59,1.5-4.1,0-8.11-.62-11.96-2.05-8.8-3.36-14.5-9.61-17.2-18.57-1.4-4.66-1.73-9.41-1.27-14.24.26-2.93.81-5.83,1.76-8.6,2.61-7.59,7.53-13.06,15.05-16.29M454.68,327.69c-1.43,4.69-1.47,9.48-.65,14.24.42,2.54,1.3,4.92,2.8,7.04,2.12,3,4.95,4.66,8.7,4.59,2.67-.03,4.95-.98,6.87-2.83,1.73-1.66,2.8-3.75,3.55-6.03.91-2.77,1.21-5.64,1.24-8.53,0-2.61-.26-5.18-.91-7.72-.62-2.35-1.56-4.53-3.16-6.38-3.75-4.4-10.78-4.69-14.79-.62-1.69,1.73-2.8,3.75-3.62,6.25h-.03Z"/>
          <path class="cls-1" fill="#FFFFFF" d="M421.75,310.1c3.49,2.83,5.73,6.35,7.13,10.62-.62.29-1.27.23-1.86.33-.62.13-1.27.13-1.89.2-.68.07-1.37.16-2.05.26-.62.07-1.27.16-1.89.23-.62.07-1.27.16-1.89.23-.62.07-1.27.13-1.89.2-.68.07-1.37.16-2.05.23-.62.07-1.27.16-1.89.23-.62.07-1.27.1-1.99.16-.13-.29-.29-.59-.42-.88-1.43-3-3.81-4.66-7.13-4.92-.98-.07-1.95-.03-2.93.07-1.34.16-2.54.68-3.45,1.76-1.11,1.3-1.4,2.8-.91,4.4.36,1.21,1.24,2.02,2.38,2.44,1.24.46,2.51.85,3.81,1.11,2.41.46,4.82.78,7.23,1.17,2.96.49,5.86,1.11,8.7,2.08,2.61.91,4.98,2.22,7,4.2,2.35,2.31,3.81,5.08,4.53,8.27.72,3.26.65,6.52-.29,9.74-1.21,4.17-3.75,7.39-7.26,9.84-3.52,2.44-7.43,3.91-11.63,4.69-3.68.68-7.39.75-11.11.39-2.64-.26-5.24-.75-7.75-1.6-4.66-1.53-8.4-4.37-11.4-8.21-1.73-2.25-2.83-4.82-3.32-7.43,0-.03.07-.07.1-.1.03,0,.07-.07.13-.1.49-.1.98-.2,1.43-.23,5.51-.62,10.98-1.21,16.58-1.82.2.39.36.78.55,1.17.59,1.43,1.43,2.67,2.54,3.75,1.11,1.11,2.38,1.86,3.91,2.18,2.18.46,4.37.46,6.52-.29,1.01-.36,1.82-.91,2.61-1.6,1.43-1.34,1.79-3,1.4-4.85-.29-1.43-1.27-2.44-2.57-3.03-.85-.39-1.73-.68-2.64-.91-3.06-.72-6.12-1.4-9.19-2.05-2.87-.62-5.73-1.3-8.47-2.38-2.93-1.14-5.51-2.77-7.43-5.31-2.31-3.06-3.49-6.52-3.55-10.39-.03-2.8.49-5.47,1.66-7.98,1.92-4.17,5.18-6.94,9.41-8.6,2.87-1.14,5.9-1.79,8.96-2.15,2.22-.23,4.4-.33,6.61-.2,4.5.23,8.86,1.04,12.84,3.26.94.52,1.82,1.17,2.8,1.82h.03Z"/>
          <path class="cls-1" fill="#FFFFFF" d="M341.77,409.88c-.29.85-.49,1.63-.78,2.35-1.24,2.93-3.42,4.82-6.38,5.9-1.56.59-3.19.91-4.85.98-2.02.07-4.01,0-6.03,0-.78,0-1.53-.26-2.35-.33-.03-.46-.1-.78-.1-1.11-.13-9.12-.07-21.37.13-22.8.68-.29,1.47-.39,2.25-.42,1.07-.07,2.15-.2,3.23-.23,2.83-.07,5.67,0,8.37,1.04,3.29,1.24,5.44,3.55,6.35,6.97.59,2.18.62,4.33.29,6.55-.07.33-.1.68-.16,1.14M329.82,414.73c.42-.1.88-.16,1.3-.26,2.31-.55,3.88-1.99,4.66-4.23.75-2.08.91-4.2.42-6.35-.55-2.41-1.89-4.17-4.37-4.92-1.43-.42-2.9-.49-4.37-.33-.2,0-.36.13-.52.2-.26.55-.16,1.11-.16,1.63v12.77c0,.46-.16.98.36,1.47h2.67v.03Z"/>
          <path class="cls-1" fill="#FFFFFF" d="M253.88,405.55h5.18c.07.42.16.75.16,1.08v8.96c0,.78-.26,1.3-.85,1.76-.98.78-2.08,1.3-3.26,1.66-2.35.75-4.72,1.14-7.23.78-2.02-.29-3.94-.72-5.73-1.66-3.39-1.82-5.31-4.63-5.99-8.4-.39-2.28-.26-4.5.33-6.68.91-3.55,3.13-6.03,6.48-7.49,2.41-1.08,4.98-1.5,7.59-1.4,2.54.1,4.89.94,7.07,2.22.1.07.16.1.23.16.46.36.59.65.36,1.14-.46.98-.98,1.92-1.5,2.93-.33-.13-.62-.23-.85-.36-.46-.29-.88-.59-1.34-.91-1.21-.81-2.61-1.3-4.01-1.3-4.92.07-8.5,2.87-8.76,7.95-.03.68-.03,1.37,0,2.05.29,3.26,2.25,6.45,5.8,7.33,1.73.46,3.49.39,5.15-.26.33-.98.36-3.94.1-5.64-.78-.23-1.6-.07-2.41-.13-.78-.03-1.56.1-2.38-.13-.03-.29-.1-.52-.1-.75v-2.83c.39-.07.72-.16,1.04-.16h4.85l.07.1Z"/>
          <path class="cls-1" fill="#FFFFFF" d="M523.45,414.57c-.55,1.53-.94,3-1.63,4.33-1.07.23-3.42.26-5.21.1-.13-.26-.29-.55-.39-.85-.78-2.25-1.56-4.53-2.38-6.81-.16-.49-.39-1.01-.62-1.66-.2.29-.39.46-.46.68-.78,2.15-1.56,4.33-2.35,6.48-.13.36-.23.75-.39,1.11-.39,1.08-.46,1.11-1.6,1.11h-3.88c-.49-.36-.55-.78-.68-1.21-1.17-3.32-2.31-6.65-3.49-9.97-.62-1.79-1.24-3.62-1.89-5.41-.13-.36-.33-.72-.1-1.11,1.11-.2,4.07-.23,5.51,0,.36,1.21.75,2.48,1.11,3.75.36,1.3.72,2.64,1.07,3.97.33,1.24.68,2.51,1.07,3.75,1.04-3.84,2.05-7.62,3.09-11.37,1.11-.29,4.2-.33,5.77-.1.55,1.21,2.08,6.58,3.32,11.79.55-1.37.65-2.74,1.04-4.04.36-1.27.68-2.54,1.04-3.81.36-1.3.72-2.64,1.07-3.91,1.24-.2,4.01-.23,5.44-.03,0,.26,0,.55-.1.81-1.47,4.1-2.93,8.21-4.43,12.41l.03-.03Z"/>
          <path class="cls-1" fill="#FFFFFF" d="M387.09,410.01c0-1.47.2-2.77.65-4.04.65-1.73,1.69-3.19,3.32-4.2,1.82-1.11,3.71-1.37,5.77-.78.62.2,1.17.52,1.63.98.26.26.55.52.94.91.1-.65.16-1.11.23-1.53,1.04-.26,2.87-.29,4.46-.07.03.26.1.52.1.81,0,4.98,0,10-.07,14.98,0,1.82-.29,3.62-1.14,5.28-.75,1.47-1.86,2.51-3.32,3.19-1.04.49-2.12.78-3.26.88-1.82.16-3.62.13-5.41-.33-.52-.13-1.04-.33-1.53-.52-.29-.13-.59-.33-.91-.52.16-1.4.59-2.7.98-4.1.26.07.49.1.68.2,1.21.59,2.48.91,3.81.98,3.13.13,4.43-1.37,4.79-3.97.07-.39,0-.78,0-1.34-.33.23-.52.33-.68.46-2.74,2.48-7.13,1.69-9.25-1.11-1.14-1.53-1.79-3.26-1.82-5.18v-1.01M398.59,412.65c.1-.39.26-.75.26-1.14.03-1.14.07-2.25,0-3.39-.03-.55-.26-1.14-.52-1.66-.59-1.11-1.73-1.66-2.96-1.43-.88.16-1.5.68-1.99,1.4-.46.72-.68,1.53-.81,2.35-.26,1.53-.07,3.03.75,4.4s2.44,1.86,3.81,1.21c.65-.33,1.07-.85,1.43-1.69l.03-.03Z"/>
          <path class="cls-1" fill="#FFFFFF" d="M444.1,393.76c.23-.03.33-.07.42-.07,2.44-.13,4.85.1,7.2.81.26,1.37.16,2.87-.33,4.89-.26-.07-.55-.1-.81-.16-1.69-.49-3.42-.85-5.21-.72-.72.07-1.47.16-2.15.39-.46.13-.88.46-1.21.78-.62.62-.59,1.47,0,2.12.46.52,1.04.88,1.73,1.08,1.04.33,2.08.59,3.09.91,1.01.36,2.05.68,3,1.17,2.31,1.14,3.49,3.06,3.52,5.67,0,.59,0,1.17-.1,1.76-.42,2.7-1.92,4.56-4.46,5.57-.91.36-1.86.65-2.8.81-1.34.23-2.7.36-4.1.29-2.12-.13-4.17-.39-6.22-.94-.13-.03-.26-.16-.42-.26.1-1.66.29-3.36.55-5.15.33.1.59.13.85.23,2.22.94,4.5,1.34,6.87,1.14.52-.03,1.07-.16,1.56-.33.85-.26,1.47-.78,1.56-1.76.1-1.04-.33-1.82-1.27-2.25-.75-.36-1.53-.65-2.31-.94-1.14-.42-2.31-.75-3.49-1.17-1.24-.42-2.28-1.14-3.13-2.08-.23-.26-.49-.52-.62-.81-1.24-2.57-1.27-5.08.29-7.53.75-1.17,1.89-1.95,3.19-2.48,1.5-.62,3.06-1.01,4.85-1.01l-.07.03Z"/>
          <path class="cls-1" fill="#FFFFFF" d="M413.34,413.27c0,1.89.07,3.65-.07,5.38-1.01.29-3.65.36-5.38.13-.03-.29-.13-.62-.13-.94v-16.19c0-.33.07-.68.1-1.01.81-.46,1.66-.2,2.48-.23s1.66,0,2.54,0c.13.49.23.88.33,1.3.13,0,.26.03.29,0,.81-.68,1.69-1.37,2.8-1.53,1.4-.2,2.83-.29,4.23.1,1.37.36,2.35,1.17,3.03,2.38.55.98.94,2.05.94,3.19v11.47c0,.49-.03.94-.07,1.4-1.27.29-3.97.29-5.24,0,0-.46-.07-.91-.07-1.4v-8.83c0-.91-.13-1.86-.29-2.77-.1-.46-.33-.91-.59-1.34-.13-.23-.39-.46-.65-.59-1.27-.75-3.03-.26-3.65,1.04-.46.94-.65,1.95-.62,3v5.44h0Z"/>
          <path class="cls-1" fill="#FFFFFF" d="M457.29,402.52c1.17-1.08,2.41-1.86,3.84-2.28,2.9-.85,5.64-.49,8.08,1.3,1.89,1.34,2.93,3.26,3.42,5.47.52,2.25.42,4.46-.39,6.65-1.24,3.23-3.62,5.05-7,5.47-1.56.2-3.13.13-4.66-.39-3.16-1.11-4.98-3.36-5.77-6.52-.55-2.25-.29-4.46.52-6.61.42-1.11,1.11-2.05,1.92-3.06M462.57,415.22c.33.03.68.1,1.01.13,1.07.13,1.89-.36,2.54-1.17.2-.26.39-.55.52-.88.62-1.53.88-3.13.72-4.72-.1-1.11-.42-2.22-1.04-3.19-1.27-1.99-3.58-2.08-4.98-.16-.39.55-.68,1.21-.88,1.82-.62,1.99-.36,3.97.23,5.93.26.91.78,1.69,1.89,2.25Z"/>
          <path class="cls-1" fill="#FFFFFF" d="M534.66,407.11c1.34-.1,2.57.1,3.81-.26.07-.75-.03-1.4-.33-2.02-.23-.52-.62-.85-1.17-1.01-1.47-.42-2.93-.33-4.3.23-.81.33-1.56.78-2.35,1.17-.23.13-.49.23-.75.36-.29-.98-.36-2.35-.16-3.94,3-1.4,6.12-2.12,9.45-1.24,1.37.36,2.54.98,3.42,2.15.55.72.88,1.53,1.04,2.41.2,1.01.26,2.05.29,3.06.07,2.64.07,5.28.1,7.95,0,.88.1,1.76.13,2.7-.26.07-.55.16-.81.16h-2.8c-.68.03-1.14-.16-1.37-.91-.29.16-.55.33-.81.46-.23.13-.42.26-.65.33-2.48.65-4.92.81-7.3-.39-1.82-.94-2.8-2.51-2.8-4.5,0-2.18.88-3.97,2.87-5.11,1.37-.78,2.83-1.3,4.53-1.6M532.96,413.66c0,.94.39,1.66,1.27,1.89.85.23,1.76.23,2.61-.07.78-.26,1.37-.81,1.6-1.6.33-1.08.36-2.18,0-3.32-.91,0-1.79-.03-2.67,0-1.89.1-2.64.88-2.83,3.06l.03.03Z"/>
          <path class="cls-1" fill="#FFFFFF" d="M282.78,401.25c1.89-.68,3.68-1.08,5.57-.91.81.07,1.66.16,2.48.36,2.7.62,4.27,2.7,4.56,5.31.03.33.07.68.07,1.04-.1,3.52.23,7.04.26,10.55,0,.39,0,.75-.03,1.24-.33.03-.62.1-.88.13h-2.8c-.52,0-.94-.13-1.17-.68-.49.26-.91.49-1.37.65s-.94.29-1.4.39c-1.76.33-3.52.29-5.21-.36-2.64-1.01-4.07-3.39-3.42-6.35.39-1.79,1.5-2.93,3-3.81,1.6-.91,3.32-1.43,5.18-1.43.91,0,1.86-.03,2.8-.39,0-.39.03-.78,0-1.14-.16-1.08-.85-1.79-1.92-1.92-1.53-.2-3.03-.13-4.43.62-.81.42-1.63.88-2.44,1.3-.33-.85-.39-2.35-.16-3.94.39-.2.85-.39,1.4-.62M290.63,411.41c0-.46-.16-.75-.68-.75-.65,0-1.27-.07-1.92,0-.62.1-1.27.23-1.82.52-1.3.62-1.79,2.22-1.21,3.52.26.55.68,1.04,1.27,1.11.75.1,1.56.1,2.31-.07.85-.16,1.43-.75,1.76-1.63.29-.81.26-1.63.23-2.74l.07.03Z"/>
          <path class="cls-1" fill="#FFFFFF" d="M568.34,411.22c-1.07.07-1.99-.13-2.9.13-.2,1.99.52,3.23,2.31,3.71,1.99.55,3.97.42,5.86-.55.33-.16.62-.49,1.14-.29.2,1.14.1,2.28.07,3.49-1.07.78-2.31,1.11-3.55,1.27-1.89.26-3.81.29-5.7-.2-3.39-.88-5.51-3.32-6.09-6.78-.33-2.02-.2-4.01.39-5.93.72-2.35,2.08-4.2,4.46-5.15,1.56-.65,3.23-.78,4.92-.55,1.11.16,2.22.39,3.23.98,1.63.94,2.77,2.31,3.45,4.07.65,1.63.78,3.32.94,5.02,0,.2-.07.36-.1.65-1.37.2-2.74.07-4.1.1h-4.27M567.63,407.99h1.89c.65-.03,1.37.16,1.99-.16.2-.52.03-1.01-.13-1.47-.62-1.82-2.25-2.8-4.1-2.44-.88.16-1.53.65-1.86,1.5-.29.78-.49,1.56-.26,2.44.72.26,1.47.1,2.44.16l.03-.03Z"/>
          <path class="cls-1" fill="#FFFFFF" d="M269.52,411.48c-.78.03-1.4-.13-2.02.16-.16,1.82.62,3.13,2.25,3.65,1.86.59,3.68.46,5.44-.33.49-.2.91-.59,1.56-.52.26,1.17.13,2.35.1,3.52-.72.62-1.6.81-2.44,1.01-2.22.55-4.46.65-6.68.07-3.52-.88-5.7-3.45-6.22-7-.29-1.92-.16-3.81.36-5.67.68-2.31,1.99-4.14,4.27-5.15.49-.23,1.01-.39,1.53-.49,1.89-.36,3.81-.33,5.64.33,2.15.75,3.65,2.22,4.53,4.33.72,1.76.91,3.58,1.01,5.47,0,.13-.07.26-.1.39-.1.07-.2.16-.29.16-2.93,0-5.9.03-8.96.07M270.92,404.15c-.52,0-1.07-.03-1.6,0-.62,0-1.17.26-1.5.78-.65.94-.88,2.02-.62,3.13,1.34.23,5.18.23,6.29,0,.26-1.79-.49-3.03-2.57-3.91Z"/>
          <path class="cls-1" fill="#FFFFFF" d="M351.45,414.93c2.12.65,4.07.52,5.96-.36.42-.2.88-.39,1.43-.62.16,1.34.1,2.51,0,3.71-1.43.94-3.03,1.21-4.59,1.4-1.76.2-3.52.03-5.21-.52-3.03-.98-4.79-3.06-5.44-6.16-.46-2.22-.33-4.4.33-6.52.85-2.77,2.67-4.69,5.54-5.34,2.38-.55,4.76-.39,7,.78,1.17.59,2.08,1.5,2.74,2.61,1.3,2.18,1.66,4.56,1.5,6.97-.46.39-.91.29-1.34.29h-8.53c-.49,0-.98,0-1.53.07.1,1.63.49,2.96,2.15,3.71M349.17,406.33c-.03.49-.36.94-.07,1.5,1.01.23,2.08.1,3.16.1s2.22.16,3.36-.13c.16-.98-.2-1.76-.65-2.54-.49-.81-1.24-1.27-2.15-1.4-1.92-.26-3.23.16-3.62,2.48h-.03Z"/>
          <path class="cls-1" fill="#FFFFFF" d="M374.51,404.41c-1.07-.59-2.08-1.08-3.23-1.3-.81-.16-1.6,0-2.28.33-.98.46-1.3,1.34-.23,2.18.49.39,1.11.62,1.69.88,1.01.46,2.08.85,3.09,1.37,1.14.59,2.18,1.34,2.8,2.51,1.11,2.05,1.11,4.14-.1,6.12-.33.52-.85.94-1.37,1.3-.85.62-1.86.91-2.87,1.04-2.9.33-5.77.13-8.44-1.17-.36-.16-.68-.39-1.04-.59v-3.06c.39.1.68.2.98.29,1.11.39,2.18.91,3.29,1.17.85.2,1.73.16,2.61.2.62,0,1.14-.29,1.6-.68.59-.52.62-1.08.1-1.66-.23-.26-.52-.46-.81-.62-.65-.33-1.34-.59-2.02-.88-1.17-.49-2.38-.91-3.45-1.63-.52-.36-1.04-.75-1.47-1.21-.78-.78-1.17-1.76-1.24-2.9-.1-1.5.26-2.8,1.21-3.97.49-.59,1.07-1.01,1.73-1.34,2.51-1.27,5.15-1.47,7.82-.62,1.07.33,2.05.88,3.09,1.37.29.13.55.39.88.65-.23,1.01-.42,2.02-.65,3.03-.72,0-1.07-.55-1.69-.81h0Z"/>
          <path class="cls-1" fill="#FFFFFF" d="M475.7,399.39v-1.47c.07-2.08,1.6-3.75,3.65-4.17,1.5-.29,2.9-.1,4.4.2.26,1.17.13,2.35.1,3.49-.46.36-.94.33-1.43.42-.98.16-1.14.33-1.17,1.34,0,.42.03.85.07,1.37.85.07,1.6.13,2.44.16.23,1.21.13,2.35.07,3.49-.78.42-1.63,0-2.38.33-.36.39-.2.91-.2,1.37v11.3c0,.49-.03.94-.07,1.4-1.17.29-4.07.33-5.38,0-.2-1.53-.07-3.09-.1-4.63v-9.35c-.85-.49-1.73,0-2.57-.46-.07-1.14-.13-2.28.07-3.52.81-.07,1.6-.13,2.41-.16.03-.36.1-.68.13-1.17l-.03.07Z"/>
          <path class="cls-1" fill="#FFFFFF" d="M493.64,400.21c.2.46.52.42.81.42.52,0,1.07,0,1.66.03.26,1.24.13,2.38.1,3.58-.75.42-1.6.03-2.41.33-.07.23-.16.49-.16.75v8.08c0,.85.1,1.34,1.37,1.53.39.07.75.07,1.21.13,0,.46.1.81.1,1.21,0,.78.07,1.56-.07,2.35-1.5.55-3.03.55-4.53.33-2.18-.36-3.62-2.41-3.62-4.4v-9.81c-.81-.55-1.73-.07-2.54-.46-.16-1.14-.13-2.31,0-3.45.78-.42,1.6,0,2.48-.36.29-1.5-.07-3.13.2-4.79,1.79-.23,3.52-.07,5.31-.1.26,1.56.07,3.03.2,4.63h-.1Z"/>
          <path class="cls-1" fill="#FFFFFF" d="M546.94,418.84c-.46-.26-.42-.65-.42-.98v-15.86c0-.49-.1-.98.13-1.43,1.04-.26,3.78-.29,5.18,0,.07.62.1,1.27.16,2.12.26-.23.42-.33.52-.42.42-.42.78-.88,1.27-1.24.62-.49,1.37-.75,2.18-.75.88,0,1.76.03,2.64.1.39,0,.65.36.62.68,0,.39-.07.78-.16,1.17-.33,1.11-.29,2.31-.94,3.42-.42-.16-.85-.36-1.24-.46-2.15-.62-4.27.26-4.72,2.44-.13.65-.23,1.37-.23,2.02v8.96c-.85.52-1.69.23-2.51.26-.78.03-1.56,0-2.48-.03h0Z"/>
          <path class="cls-1" fill="#FFFFFF" d="M298.25,411.77c0-3.78.03-7.39.07-11.01,0-.1.1-.16.13-.26,1.24-.26,3.97-.23,5.11.03,0,.62.07,1.24.1,1.82.33.16.46-.1.62-.26.26-.29.52-.59.81-.85.72-.62,1.53-1.04,2.51-1.04.88,0,1.76,0,2.64.1.55.03.78.39.68.91-.26,1.43-.52,2.87-1.01,4.37-.39-.13-.75-.26-1.11-.39-1.11-.39-2.22-.39-3.29.1-.55.26-.98.65-1.27,1.17-.46.88-.65,1.82-.65,2.83v9.32c-.33.07-.62.2-.88.2-1.4,0-2.83.1-4.33-.07-.07-.36-.16-.65-.16-.98v-6.03l.03.03Z"/>
          <path class="cls-1" fill="#FFFFFF" d="M384.51,414.44c0,1.4.07,2.67-.03,3.91-1.04.29-2.87.33-4.5.1-.03-.26-.13-.52-.13-.81v-15.83c0-.23.03-.46.07-.78,1.5-.23,2.93-.1,4.3-.1.42.52.26,1.04.26,1.5v12.02h.03Z"/>
        </g>
        <path class="cls-1" fill="#FFFFFF" d="M379.66,397.5c.03-1.21-.1-2.25.1-3.39,1.53-.13,2.96-.13,4.43,0,.23.72.13,1.4.13,2.05v2.08c-.33.07-.62.2-.88.2h-3.06c-.23,0-.46-.13-.62-.26-.1-.1-.07-.36-.1-.68Z"/>
      </g>
    </g>
  </g>
</svg>