<?xml version="1.0" encoding="UTF-8"?>
<svg xmlns="http://www.w3.org/2000/svg" version="1.1" viewBox="0 0 1111.4 245.7">
  <defs>
    <style>
      .cls-1 {
        stroke: #000;
        stroke-miterlimit: 10;
        stroke-width: 2px;
      }

      .cls-2 {
        display: none;
      }
    </style>
  </defs>
  <!-- Generator: Adobe Illustrator 28.6.0, SVG Export Plug-In . SVG Version: 1.2.0 Build 709)  -->
  <g>
    <g id="Layer_1">
      <rect class="cls-2" fill="#FFFFFF" x="-4.1" y="-5" width="1317.6" height="452.8"/>
      <g>
        <path fill="#FFFFFF" d="M203.2,13.4c5,0,9.1-3,9.1-6.7s-4.1-6.7-9.1-6.7-9.1,3-9.1,6.7,4.1,6.7,9.1,6.7Z"/>
        <path fill="#FFFFFF" d="M208,62.2c-2.2-19.7-4.8-17.5-4.8-17.5,0,0-2.6-2.4-4.5,17.5-2.2,24-4.4,72.5-14.1,93-16.4,34.3-49.9,33.1-49.9,35.5,0,10.1,30.7,18.2,68.5,18.2s68.5-8.1,68.5-18.2-31.4-.5-48.2-35.5c-9.7-20.2-12.9-68.7-15.6-92.9h.1Z"/>
        <path fill="#FFFFFF" d="M134.7,190.6c0,10.1,30.7,18.2,68.5,18.2s68.5-8.1,68.5-18.2-31.4-.5-48.2-35.5c-9.7-20.2-12.9-68.7-15.6-92.9-1.8-16.2-3.9-17.6-4.6-17.6s-.2,0-.2,0h-.3c-.7,0-2.7,1.6-4.2,17.6-2.2,24-4.4,72.6-14.1,93-16.4,34.3-49.9,33.1-49.9,35.5h0Z"/>
        <path fill="#FFFFFF" d="M96.3,193.1c0,15.3,48,27.7,106.9,27.7s107-12.4,107-27.7-32.9-23.3-77.6-26.6c1.9,2.4,3.8,4.5,5.8,6.4,29.8,3.5,50.5,11.2,50.5,20.2s-38.4,22.2-85.7,22.2-85.7-9.9-85.7-22.2,21.5-17,52.1-20.4c2-1.9,4-4,5.9-6.3-45.6,3.1-79.3,13.9-79.3,26.7h0Z"/>
        <path fill="#FFFFFF" d="M220.5,140.7c.5,1.9,1,3.8,1.6,5.6,91.5,2.4,163.2,22.5,163.2,46.8s-81.6,47.1-182,47.1S21.3,219.1,21.3,193.1s72.5-44.6,164.9-46.9c.5-1.8,1-3.6,1.5-5.6C82.9,142.8,0,165.5,0,193.1s91.2,52.6,203.2,52.6,203.3-23.6,203.3-52.6-82-50.1-186-52.4h0Z"/>
        <path fill="#FFFFFF" d="M48.2,193.1c0,22.1,69.6,40.1,155.1,40.1s155.1-18,155.1-40.1-58.2-37-133.6-39.7c.1.3.3.6.4.9.8,1.7,1.6,3.2,2.5,4.8,62.2,3,109.4,17.1,109.4,34s-60,34.6-133.8,34.6-133.8-15.5-133.8-34.6,48.2-31.3,111.2-34.1c.9-1.5,1.7-3,2.4-4.7.1-.3.3-.7.4-1-76.2,2.5-135.4,19.4-135.4,39.8h.1Z"/>
      </g>
      <path fill="#FFFFFF" d="M456.5,97.6V23.8h11.6v63.5h39.6v10.3s-51.2,0-51.2,0Z"/>
      <path fill="#FFFFFF" d="M579.5,97.6V23.8h11.6v73.8s-11.6,0-11.6,0Z"/>
      <path fill="#FFFFFF" d="M720,92.2c-2.8,1.9-5.8,3.3-9,4.4-3.2,1-6.6,1.6-10.2,1.6-5.3,0-10.1-1.1-14.4-3.2s-8-4.9-11.2-8.4c-3.1-3.5-5.5-7.4-7.2-11.9s-2.5-9.1-2.5-13.8.9-9.6,2.7-14.1,4.3-8.5,7.4-12c3.2-3.5,6.9-6.2,11.2-8.3,4.3-2,9.1-3.1,14.2-3.1s10.1,1.1,14.4,3.3,8,5,11.1,8.6c3.1,3.5,5.5,7.5,7.2,12s2.5,9,2.5,13.7-.9,9.6-2.6,14c-1.7,4.4-4.2,8.3-7.3,11.8l9.7,11h-11.2l-4.8-5.4v-.2h0ZM700.9,87.6c2.3,0,4.4-.3,6.4-.9s3.8-1.5,5.5-2.6l-10.5-12.2h11.2l5.3,6.1c1.8-2.4,3.2-5.1,4-8.2.9-3,1.3-6.1,1.3-9.2s-.6-6.9-1.7-10.1c-1.1-3.2-2.7-6.1-4.7-8.6s-4.5-4.5-7.4-6-6.1-2.2-9.6-2.2-7.1.8-10,2.3-5.4,3.6-7.4,6.1-3.5,5.4-4.6,8.6c-1.1,3.2-1.6,6.5-1.6,9.8s.5,6.8,1.7,10.1c1.1,3.3,2.7,6.1,4.7,8.6s4.5,4.5,7.4,6,6.2,2.2,9.8,2.2l.2.2h0Z"/>
      <path fill="#FFFFFF" d="M841.2,87.6c3.9,0,7.1-.8,9.7-2.3,2.6-1.5,4.6-3.5,6.2-6,1.6-2.5,2.7-5.3,3.3-8.4.7-3.2,1-6.4,1-9.7V23.8h11.7v37.4c0,5.1-.6,9.8-1.8,14.3s-3,8.4-5.6,11.7c-2.6,3.4-5.9,6-9.9,7.9s-8.9,2.9-14.6,2.9-10.9-1-14.9-3.1c-4-2-7.3-4.8-9.8-8.2s-4.3-7.4-5.4-11.8c-1.1-4.4-1.7-9-1.7-13.8V23.8h11.6v37.4c0,3.4.3,6.7,1,9.8s1.8,6,3.3,8.4,3.6,4.4,6.2,5.9c2.6,1.5,5.8,2.2,9.6,2.2h.1Z"/>
      <path fill="#FFFFFF" d="M951,97.6V23.8h11.6v73.8s-11.6,0-11.6,0Z"/>
      <path fill="#FFFFFF" d="M1041.5,97.6V23.8h26.2c6,0,11.2,1,15.6,2.9s8.2,4.6,11.2,7.9,5.3,7.2,6.8,11.7,2.3,9.2,2.3,14.3-.8,10.7-2.6,15.2c-1.7,4.5-4.1,8.4-7.2,11.6s-6.9,5.7-11.3,7.5-9.4,2.7-14.9,2.7h-26.2,0ZM1091.9,60.6c0-3.9-.5-7.5-1.6-10.7-1.1-3.3-2.7-6-4.7-8.4-2.1-2.3-4.6-4.1-7.6-5.5s-6.4-2-10.2-2h-14.6v53.2h14.6c3.9,0,7.3-.7,10.3-2s5.5-3.2,7.6-5.6c2-2.4,3.6-5.2,4.6-8.5,1-3.2,1.6-6.8,1.6-10.6h0Z"/>
      <path class="cls-1" fill="#FFFFFF" d="M456.5,216.7v-63.3h3.1v63.3h-3.1Z"/>
      <path class="cls-1" fill="#FFFFFF" d="M483,159.3v57.4h-3.1v-63.3h2.3l46.5,58.4v-58.4h3.1v63.3h-3l-45.8-57.4h0Z"/>
      <path class="cls-1" fill="#FFFFFF" d="M588.7,162.8c-2.3-2.6-4.9-4.4-7.7-5.4s-6.1-1.6-9.8-1.6c-6.7,0-11.6,1.3-14.6,3.8-3,2.6-4.5,6-4.5,10.2s.4,3.9,1.1,5.4c.7,1.5,1.9,2.7,3.4,3.7s3.5,1.9,6,2.5c2.4.7,5.3,1.4,8.7,2.1,3.5.7,6.6,1.5,9.4,2.3,2.8.8,5.2,1.9,7.1,3.2,2,1.3,3.5,2.9,4.5,4.8,1.1,1.9,1.6,4.2,1.6,7s-.5,5-1.6,7c-1,2-2.5,3.7-4.5,5.1s-4.3,2.4-7.1,3.1c-2.8.7-5.8,1-9.2,1-5,0-9.6-.8-13.6-2.4s-7.8-4-11.2-7.3l1.9-2.2c3,3,6.4,5.3,10.2,6.9,3.8,1.6,8.1,2.3,12.9,2.3s10.6-1.1,14-3.2c3.4-2.2,5.1-5.5,5.1-9.9s-.4-4.2-1.2-5.8-2.1-2.9-3.8-4-3.8-2.1-6.4-2.9c-2.6-.8-5.6-1.6-9.1-2.3s-6.5-1.5-9.1-2.2c-2.6-.8-4.9-1.8-6.7-2.9s-3.2-2.6-4.1-4.4c-.9-1.7-1.4-3.9-1.4-6.5s.5-5.3,1.6-7.4,2.6-4,4.5-5.4,4.3-2.6,7-3.3c2.7-.8,5.8-1.2,9.1-1.2s7.7.6,10.8,1.8,5.9,3.1,8.5,5.7l-1.7,2.3h-.1Z"/>
      <path class="cls-1" fill="#FFFFFF" d="M652,156.3h-23.7v60.4h-3.1v-60.4h-23.7v-2.9h50.5v2.9h0Z"/>
      <path class="cls-1" fill="#FFFFFF" d="M665.2,216.7v-63.3h26c2.6,0,5,.6,7.3,1.7,2.2,1.1,4.1,2.6,5.8,4.4,1.6,1.8,2.8,3.9,3.7,6.2s1.3,4.7,1.3,7-.4,4.8-1.1,6.9-1.8,4.2-3.2,5.9-3,3.1-4.9,4.3-4,1.8-6.3,2.1l15.9,24.8h-3.6l-15.7-24.4h-22.1v24.4h-3.1ZM668.4,189.5h23.4c2.2,0,4.2-.5,6-1.4s3.3-2.2,4.6-3.7c1.2-1.5,2.2-3.3,2.9-5.4.7-2,1-4.1,1-6.1s-.4-4.2-1.2-6.2-1.9-3.7-3.2-5.3c-1.4-1.5-3-2.7-4.8-3.6s-3.8-1.4-5.9-1.4h-22.8v33.1h0Z"/>
      <path class="cls-1" fill="#FFFFFF" d="M751,214.2c4.5,0,8.3-.9,11.3-2.5,3-1.7,5.4-3.9,7.1-6.6,1.7-2.7,2.9-5.8,3.7-9.3.7-3.5,1.1-7,1.1-10.6v-31.7h3v31.7c0,4.2-.5,8.3-1.3,12.1s-2.4,7.3-4.4,10.2-4.7,5.3-8,7c-3.3,1.8-7.4,2.6-12.2,2.6s-9.2-.9-12.5-2.8c-3.4-1.8-6-4.3-8.1-7.3-2-3-3.5-6.4-4.3-10.2s-1.3-7.7-1.3-11.7v-31.7h3.1v31.7c0,3.7.4,7.3,1.1,10.7.7,3.5,2,6.6,3.7,9.3,1.8,2.7,4.1,4.9,7.1,6.6,2.9,1.7,6.6,2.5,11.1,2.5h-.2,0Z"/>
      <path class="cls-1" fill="#FFFFFF" d="M854.7,216.7v-57.2l-26.5,44.9h-2.1l-26.5-44.9v57.2h-3.1v-63.3h2.8l27.9,47.1,27.9-47.1h2.8v63.3h-3.2Z"/>
      <path class="cls-1" fill="#FFFFFF" d="M919.8,213.9v2.9h-41.8v-63.3h41v2.9h-37.9v26.6h33.2v2.9h-33.2v28.1h38.7Z"/>
      <path class="cls-1" fill="#FFFFFF" d="M939,159.3v57.4h-3.1v-63.3h2.3l46.5,58.4v-58.4h3.1v63.3h-3l-45.8-57.4h0Z"/>
      <path class="cls-1" fill="#FFFFFF" d="M1051.6,156.3h-23.7v60.4h-3.1v-60.4h-23.7v-2.9h50.5v2.9h0Z"/>
      <path class="cls-1" fill="#FFFFFF" d="M1101.6,162.8c-2.3-2.6-4.9-4.4-7.7-5.4s-6.1-1.6-9.8-1.6c-6.7,0-11.6,1.3-14.6,3.8-3,2.6-4.5,6-4.5,10.2s.4,3.9,1.1,5.4,1.9,2.7,3.4,3.7,3.5,1.9,6,2.5c2.4.7,5.3,1.4,8.7,2.1,3.4.7,6.6,1.5,9.4,2.3s5.2,1.9,7.1,3.2c2,1.3,3.5,2.9,4.6,4.8,1.1,1.9,1.6,4.2,1.6,7s-.5,5-1.6,7c-1,2-2.5,3.7-4.5,5.1s-4.3,2.4-7.1,3.1c-2.8.7-5.8,1-9.2,1-5.1,0-9.6-.8-13.6-2.4s-7.8-4-11.2-7.3l1.9-2.2c3,3,6.4,5.3,10.2,6.9,3.8,1.6,8.1,2.3,12.9,2.3s10.6-1.1,14-3.2c3.4-2.2,5.1-5.5,5.1-9.9s-.4-4.2-1.2-5.8c-.8-1.6-2.1-2.9-3.8-4-1.7-1.1-3.8-2.1-6.4-2.9-2.6-.8-5.6-1.6-9.1-2.3-3.4-.7-6.5-1.5-9.1-2.2-2.6-.8-4.9-1.8-6.7-2.9s-3.2-2.6-4.1-4.4c-.9-1.7-1.4-3.9-1.4-6.5s.5-5.3,1.6-7.4,2.6-4,4.5-5.4,4.3-2.6,7-3.3c2.7-.8,5.8-1.2,9.1-1.2s7.7.6,10.8,1.8c3.1,1.2,5.9,3.1,8.5,5.7l-1.7,2.3h-.2Z"/>
    </g>
  </g>
</svg>