<?xml version="1.0" encoding="UTF-8"?>
<svg xmlns="http://www.w3.org/2000/svg" version="1.1" viewBox="0 0 612 792">
  <defs>
    <style>
      .cls-1 {
        fill: #231f20;
      }
    </style>
  </defs>
  <!-- Generator: Adobe Illustrator 28.6.0, SVG Export Plug-In . SVG Version: 1.2.0 Build 709)  -->
  <g>
    <g id="Layer_1">
      <g id="Layer_1-2" data-name="Layer_1">
        <g>
          <polygon class="cls-1" fill="#FFFFFF" points="338.9 439.8 335 450.5 325.3 450.5 314.8 479.4 302.3 479.4 312.8 450.5 303.1 450.5 307 439.8 338.9 439.8 338.9 439.8"/>
          <polygon class="cls-1" fill="#FFFFFF" points="342.5 439.8 355.4 439.8 340.9 479.4 328.1 479.4 342.5 439.8 342.5 439.8"/>
          <polygon class="cls-1" fill="#FFFFFF" points="390.8 439.8 386.8 450.5 377.2 450.5 366.7 479.4 354.2 479.4 364.7 450.5 355 450.5 358.9 439.8 390.8 439.8 390.8 439.8"/>
          <polygon class="cls-1" fill="#FFFFFF" points="393.9 439.8 379.3 479.4 402.3 479.4 406.2 468.5 395.1 468.5 397.1 462.6 408.4 462.6 410.4 456.8 399.3 456.8 401.5 450.7 412.6 450.7 416.7 439.8 393.9 439.8 393.9 439.8"/>
          <path class="cls-1" fill="#FFFFFF" d="M214.6,466.3l9.6-26.5h-17.1l-14.3,39.6h29l4.7-13.1h-11.9ZM218.6,472.2l-.6,1.8h-16.4l9.9-27.3h3l-9.1,24.7h13.4l-.2.9h0Z"/>
          <path class="cls-1" fill="#FFFFFF" d="M253,446.3c-5.6-1.8-12.2,2.7-14.8,9.9-1.5,4.1-1.4,8.3.2,11.6,1.1,2.3,2.9,3.9,5.1,4.6,5.6,1.8,12.2-2.7,14.8-9.9,1.5-4.1,1.4-8.3-.2-11.6-1.1-2.3-2.9-3.9-5.1-4.6h0ZM251.4,460.7c-1.2,3.7-3.7,6.2-5.5,5.6s-2.4-4.1-1.2-7.8c1.2-3.7,3.7-6.2,5.5-5.6s2.4,4.1,1.2,7.8ZM250.7,438.4c-10.7,0-20.6,8.4-22.3,21.4-1.7,13.3,6,21.3,16.7,21.3s20.5-7.9,22.2-21.2c1.7-13-6-21.5-16.7-21.6h.1ZM260.7,463.4c-3.1,8.5-11.1,13.6-18,11.4-2.9-.9-5.2-3-6.6-5.9-1.9-3.9-2.1-8.8-.4-13.6,3.1-8.5,10.8-13.3,18.1-11.4,2.9.8,5.1,3,6.5,5.8,1.9,3.9,2,8.8.3,13.6h.1Z"/>
          <path class="cls-1" fill="#FFFFFF" d="M293.6,447.7c-2.2-.6-4.5-.2-6.8,1-3.4,1.9-6.1,5.2-7.3,9.7s-.7,3.2-.7,4.7c0,4.9,2.1,8.1,5.7,9.3.6.2,1.3.2,1.9.2l-.9,2.5c-.6,0-1.1-.1-1.7-.3-4.7-1.4-7.4-5.2-7.5-11.2v-.8c.1-1.7.4-3.5.8-5.1,1.4-5.1,4.6-9.1,8.6-11.3,2.9-1.6,6-2,8.9-1.2l-.9,2.4h-.1ZM296.5,466.3c-1.6.8-3.4,1-5.1,1-6,.1-6.8-3.7-6.3-6.9.6-4,3.2-6.9,7.4-6.9s4.4,1,5.7,2.5h0c0,.1,4.8-13,4.8-13-3-2.9-7.1-4.5-11.7-4.6-10.7,0-20.6,8.4-22.3,21.4-1.7,13.3,6,21.3,16.7,21.3s3.8-.2,5.5-.7l5.2-14.1h0Z"/>
          <path class="cls-1" fill="#FFFFFF" d="M407.7,474.4c0-2.5,1.9-4.4,4.4-4.4s4.3,1.9,4.3,4.4-1.9,4.4-4.3,4.4-4.4-1.9-4.4-4.4ZM412.1,479.8c2.9,0,5.4-2.3,5.4-5.4s-2.5-5.3-5.4-5.3-5.5,2.3-5.5,5.3,2.5,5.4,5.5,5.4ZM410.9,477.6h-1v-6.3h2.4c1.5,0,2.3.5,2.3,1.8s-.7,1.6-1.7,1.7l1.8,2.8h-1.2l-1.6-2.7h-1v2.7h0ZM412.1,474c.8,0,1.5,0,1.5-1s-.7-.9-1.4-.9h-1.3v1.9h1.2,0Z"/>
        </g>
      </g>
    </g>
  </g>
</svg>