<?xml version="1.0" encoding="UTF-8"?>
<svg xmlns="http://www.w3.org/2000/svg" version="1.1" viewBox="0 0 267.4 43.16">
  <defs>
    <style>
      .cls-1 {
        fill: #FFFFFF;
      }
    </style>
  </defs>
  <!-- Generator: Adobe Illustrator 28.6.0, SVG Export Plug-In . SVG Version: 1.2.0 Build 709)  -->
  <g>
    <g id="Layer_1">
      <g>
        <polygon class="cls-1" fill="#FFFFFF" points="0 -46.81 0 -10.87 21.81 -10.87 21.81 -17.8 7.8 -17.8 7.8 -46.81 0 -46.81"/>
        <path class="cls-1" fill="#FFFFFF" d="M21.81-10.87h4.05c1.77,0,2.66-.8,2.66-2.3,0-.61-.08-1.18-.26-1.6l-9.88-23.43h7.85l6.08,16.32,6.58-16.32h7.77l-12.75,29.07c-1.01,2.3-2.2,3.86-3.59,4.61-1.01.56-2.24.61-3.63.61h-4.87s-.03-.01-.03-.03v-6.93Z"/>
        <path class="cls-1" fill="#FFFFFF" d="M64.56-23c-.21,3.01-2.57,5.13-5.82,5.13-3.85,0-6.33-2.91-6.33-7.48s2.53-7.53,6.33-7.53c3.38,0,5.4,1.65,5.78,4.56h7.77c-.76-6.78-5.32-10.63-13.13-10.63-9.04,0-14.4,5.27-14.4,13.55s5.53,13.6,13.89,13.6,13.43-4.66,13.89-11.2h-7.98Z"/>
        <path class="cls-1" fill="#FFFFFF" d="M148.37-18.16c4.1,0,6.71-2.92,6.71-7.38s-2.62-7.34-6.71-7.34-6.76,2.92-6.76,7.39,2.66,7.34,6.76,7.34M148.37-39.1c9.04,0,14.35,5.27,14.35,13.55s-5.4,13.59-14.35,13.59-14.4-5.27-14.4-13.59,5.36-13.55,14.4-13.55"/>
        <path class="cls-1" fill="#FFFFFF" d="M178.61-32.41c-4.1,0-6.67,2.77-6.67,7.25s2.62,7.2,6.67,7.2,6.67-2.87,6.67-7.25-2.62-7.19-6.67-7.19M185.28-46.81h7.05V-12.84h-7.05v-2.35c-1.98,2.21-4.56,3.2-8.07,3.2-7.64,0-12.88-5.45-12.88-13.27s5.28-13.26,13.01-13.26c3.59,0,6.16,1.18,7.94,3.29v-11.57Z"/>
        <rect class="cls-1" fill="#FFFFFF" x="195.08" y="-38.2" width="7.01" height="25.35"/>
        <path class="cls-1" fill="#FFFFFF" d="M266.05-34.81c-1.52-2.54-4.48-4.05-8.36-4.05s-7.09,1.84-9.42,5.27c-1.22-3.25-4.48-5.27-8.95-5.27-3.38,0-6.37,1.51-8.86,4.47v-3.81h-7.05v12.52c0,4.51-2.53,7.15-6.59,7.15s-4.94-2.31-4.94-7.38v-12.28h-7.05v13.97c0,3.34.08,5.88,1.35,8,1.56,2.59,4.43,4,8.36,4,3.5,0,6.41-1.46,8.87-4.42v3.81h0s7.05,0,7.05,0h0s0,0,0,0v-12.52c0-4.51,2.54-7.19,6.58-7.19s4.94,2.35,4.94,7.43v12.28h6.84v-12.51c0-4.52,2.54-7.2,6.59-7.2s4.94,2.35,4.94,7.43v12.28h7.05v-13.97c0-3.34-.08-5.88-1.35-7.99Z"/>
        <path class="cls-1" fill="#FFFFFF" d="M118.08-18.3c4.1,0,6.67-2.77,6.67-7.24s-2.61-7.2-6.67-7.2-6.67,2.87-6.67,7.25,2.62,7.2,6.67,7.2M104.4-38.2h7.01v2.54c1.81-2.07,4.39-3.2,8.06-3.2,7.64,0,12.88,5.46,12.88,13.31s-5.28,13.36-13.01,13.36c-3.38,0-5.95-1.03-7.94-3.29V-3.91h-7.01v-34.29Z"/>
        <path class="cls-1" fill="#FFFFFF" d="M88.21-18.16c4.1,0,6.71-2.92,6.71-7.38s-2.62-7.34-6.71-7.34-6.76,2.92-6.76,7.39,2.66,7.34,6.76,7.34M88.21-39.1c9.04,0,14.36,5.27,14.36,13.55s-5.41,13.59-14.36,13.59-14.4-5.27-14.4-13.59,5.36-13.55,14.4-13.55"/>
        <path class="cls-1" fill="#FFFFFF" d="M202.09-43.56c0,1.94-1.57,3.51-3.5,3.51s-3.5-1.57-3.5-3.51,1.57-3.51,3.5-3.51,3.5,1.57,3.5,3.51"/>
      </g>
    </g>
  </g>
</svg>