<?xml version="1.0" encoding="utf-8"?>
<!-- Generator: Adobe Illustrator 26.5.0, SVG Export Plug-In . SVG Version: 6.00 Build 0)  -->
<svg version="1.1" id="Layer_1" xmlns="http://www.w3.org/2000/svg" xmlns:xlink="http://www.w3.org/1999/xlink" fill="#FFFFFF" x="0px" y="0px"
	 viewBox="0 0 595.28 841.89" style="enable-background:new 0 0 595.28 841.89;" xml:space="preserve">
<g>
	<path fill="#FFFFFF" d="M149.28,500.13c0.01-0.52,0.03-1.04,0.03-1.56c0-39.88,0-79.75,0.02-119.63c0-0.67-0.49-1.67,0.81-1.86
		c0.09-0.01,0.16-0.42,0.17-0.65c0.02-0.68,0.05-1.36,0-2.04c-0.05-0.75,0.02-1.35,0.85-1.31c0.69-1-0.74-2.6,1.12-3.04
		c0.29-0.74-0.47-1.96,1.06-1.99c0-0.59,0-1.11,0-1.69c0.34-0.11,0.65-0.21,0.99-0.32c0-0.55,0-1.07,0-1.49
		c0.93-0.83,1.99-1.32,2.1-2.81c0.05-0.65,1.11-1.22,1.92-2.04c0-0.21,0-0.76,0-1.03c2.22-2.22,4.26-4.25,6.47-6.45
		c0.25,0,0.76,0,1.15,0c0.59-0.68,1.08-1.26,1.59-1.85c0.55-0.2,1.24-0.32,1.77-0.66c0.5-0.32,0.84-0.89,1.39-1.51
		c0.33,0,0.88,0,1.5,0c0.08-0.34,0.15-0.63,0.23-0.96c0.54,0,1.06,0,1.57,0c-0.03-0.11-0.06-0.23-0.09-0.34
		c0.55-0.23,1.11-0.43,1.64-0.7c0.38-0.19,0.72-0.46,1.08-0.7c-0.05-0.1-0.09-0.21-0.14-0.31c0.44,0,0.87,0,1.31,0
		c0.44,0,0.87,0,1.4,0c-0.01-1,0.6-1.09,1.35-1.03c0.56,0.05,1.13,0.09,1.67-0.01c0.48-0.09,0.93-0.38,1.4-0.59
		c-0.03-0.13-0.06-0.25-0.1-0.38c1.87,0,3.75,0,5.67,0c0.09-0.34,0.17-0.62,0.26-0.95c4.57,0,9.12,0,13.78,0
		c-0.08,0.98,0.57,0.96,1.29,0.95c1.56-0.03,3.12-0.01,4.68-0.01c0.28,0,0.76-0.05,0.8,0.05c0.63,1.66,2.13,0.6,3.14,1.05
		c0.48,1.8,2.06,0.4,2.86,1.28c0.48,0.22,0.96,0.42,1.42,0.66c0.32,0.17,0.6,0.44,0.94,0.58c0.57,0.23,1.17,0.4,1.9,0.64
		c0.03,0.12,0.09,0.41,0.17,0.73c0.57,0,1.08,0,1.6,0c-0.04,0.11-0.08,0.22-0.12,0.33c0.72,0.32,1.44,0.63,2.41,1.07
		c0.28,0.32,0.77,0.9,1.36,1.59c0.36,0.02,0.87,0.04,1.05,0.05c0.91,0.8,1.6,1.41,2.3,2.02c0.39,0.34,0.81,0.65,1.14,1.04
		c0.76,0.88,1.46,1.81,2.2,2.7c0.33,0.4,0.7,0.78,1.1,1.11c0.14,0.11,0.55,0.13,0.64,0.02c0.78-0.86,1.48-1.79,2.27-2.63
		c0.46-0.49,1.06-0.85,1.58-1.29c0.39-0.32,0.78-0.65,1.12-1.02c0.44-0.5,0.83-1.04,1.24-1.57c0.09-0.12,0.19-0.34,0.28-0.34
		c0.92,0.03,1.69-0.12,2.16-1.05c0.17-0.34,0.57-0.58,1.02-1.01c0.27,0,0.78,0,1.39,0c0.03-1.47,1.16-0.86,2-1.05
		c0.09-0.27,0.2-0.58,0.3-0.86c0.79-0.22,1.95,0.42,1.98-0.98c0.77-0.23,1.81,0.35,2.05-0.96c0.02-0.13,0.96-0.09,1.47-0.14
		c0.57-0.06,1.28,0.27,1.5-0.74c0.04-0.2,1.05-0.27,1.61-0.26c0.75,0.02,1.34-0.04,1.34-1.01c2.28,0,4.47,0,6.67,0
		c-0.03-0.14-0.06-0.28-0.09-0.42c0.51-0.19,1.01-0.54,1.52-0.55c3.92-0.05,7.84-0.03,11.76-0.02c0.49,0,1.09-0.18,1.12,0.67
		c0,0.11,0.49,0.29,0.76,0.29c1.32,0.03,2.64,0.01,3.96,0.02c0.67,0,1.5-0.22,1.26,0.99c0.97,0,1.76-0.02,2.56,0.01
		c0.58,0.02,1.26-0.27,1.51,0.72c0.06,0.23,1.13,0.23,1.75,0.28c0.63,0.05,1.43-0.18,1.14,0.97c0.69,0.04,1.24,0.07,1.79,0.1
		c-0.04,0.1-0.07,0.2-0.11,0.3c0.43,0.22,0.85,0.45,1.29,0.66c0.43,0.21,0.86,0.4,1.3,0.6c-0.04,0.12-0.07,0.25-0.11,0.37
		c0.55,0,1.11,0,1.48,0c0.6,0.71,1.09,1.28,1.66,1.96c0.37,0.02,0.89,0.04,1.39,0.06c0.72,1.38,1.59,1.95,2.85,2.05
		c2.19,2.18,4.25,4.22,6.45,6.41c0,0.25,0,0.77,0,1.18c0.65,0.57,1.21,1.05,1.91,1.66c-0.25,1.42,0.91,2.12,2.06,2.99
		c0.03,0.43,0.06,0.98,0.09,1.53c0.1-0.04,0.2-0.08,0.3-0.12c0.22,0.42,0.44,0.85,0.66,1.27c0.21,0.42,0.42,0.83,0.63,1.25
		c0.11-0.02,0.21-0.05,0.32-0.07c0.03,0.56,0.05,1.11,0.08,1.66c1.83,0.52,0.44,2.07,1.32,2.88c0.2,0.46,0.52,0.9,0.59,1.38
		c0.1,0.71,0.01,1.44,0.04,2.16c0.01,0.23,0.08,0.63,0.17,0.64c1.23,0.15,0.81,1.08,0.82,1.74c0.01,39.96,0.01,79.91,0.01,119.87
		c0,0.48-0.05,0.95-0.08,1.43c-6.64,0-13.28,0-19.92,0c0-0.2,0.01-0.4,0.01-0.6c0-38.68,0-77.35,0-116.03
		c0-0.24,0.01-0.48-0.01-0.72c-0.01-0.16-0.04-0.44-0.09-0.45c-1.41-0.22-0.68-1.33-0.89-2.05c-0.14-0.48-0.4-0.92-0.6-1.38
		c-0.13,0.03-0.26,0.07-0.38,0.1c0-0.87,0-1.75,0-2.62c-0.09,0.05-0.18,0.11-0.27,0.16c-0.59-0.73-1.6-1.42-1.66-2.19
		c-0.09-1.16-1.09-1.36-1.5-2.11c-0.3-0.55-1.04-0.86-1.53-1.32c-0.6-0.56-1.17-1.16-1.72-1.77c-0.55-0.6-1.06-1.23-1.69-1.97
		c-0.39,0-0.94,0-1.32,0c-0.61-0.71-1.09-1.27-1.69-1.97c-0.7,0-1.58,0-2.43,0c-0.53-1.86-2.09-0.53-2.96-1.21
		c-0.33-0.34-0.71-0.77-1.09-0.78c-5.12-0.05-10.24-0.03-15.36-0.02c-0.25,0-0.71,0.13-0.72,0.22c-0.08,1.25-1.02,0.67-1.61,0.8
		c-0.47,0.11-1.31,0.13-1.35,0.33c-0.17,0.76-0.67,0.59-1.16,0.7c-0.45,0.11-0.85,0.44-1.28,0.67c0.03,0.1,0.07,0.21,0.1,0.31
		c-0.55,0-1.1,0-1.63,0c-0.32,1.2-1.35,1.88-2.7,1.99c-1.17,1.19-2.22,2.25-3.41,3.45c-0.01,0.3-0.04,0.85-0.07,1.45
		c-0.24,0.04-0.58,0.03-0.6,0.1c-0.22,0.88-1.71,0.97-1.37,2.2c0.05,0.2-0.07,0.63-0.15,0.64c-1.34,0.19-0.66,1.31-0.98,2.11
		c-1.17-0.27-0.85,0.62-0.88,1.27c-0.04,0.81,0.37,1.82-0.99,1.94c0,0.61,0,1.13,0,1.65c0,39.04-0.01,78.07-0.01,117.11
		c-6.96,0-13.92,0-20.88,0c-0.03-0.56-0.09-1.11-0.09-1.67c0-38.59,0-77.19,0-115.78c0-0.81,0.1-1.62-1.05-1.7c0-0.94,0-1.77,0-2.61
		c-0.11,0.04-0.22,0.07-0.33,0.11c-0.22-0.43-0.44-0.85-0.66-1.28c-0.22-0.43-0.43-0.87-0.64-1.3c-0.1,0.04-0.21,0.08-0.31,0.12
		c-0.02-0.56-0.05-1.11-0.07-1.53c-0.67-0.57-1.24-1.06-1.89-1.62c-0.12-1.47-0.33-1.68-1.75-2.73c-0.64-0.47-1.07-1.23-1.7-1.99
		c-0.39,0-0.94,0-1.17,0c-0.98-0.85-1.3-2.02-2.64-1.96c-0.23,0.01-0.65-0.04-0.66-0.11c-0.18-1.34-1.27-0.7-2.1-0.97
		c0.25-1.11-0.58-0.87-1.25-0.9c-0.75-0.04-1.73,0.37-1.97-0.88c-0.02-0.08-0.35-0.13-0.54-0.13c-5.36-0.01-10.71-0.01-16.14-0.01
		c-0.03,0.93-0.57,1.1-1.35,1.04c-0.57-0.04-1.64,0.03-1.67,0.19c-0.2,1.18-1.06,0.69-1.67,0.79c-0.46,0.07-1.16-0.04-1.33,0.21
		c-0.74,1.12-1.52,2.03-3.23,1.76c0.62,1.22-0.54,0.82-0.87,1.23c-0.72,0.92-1.46,1.83-2.22,2.73c-0.31,0.37-0.64,0.75-1.04,0.99
		c-1.08,0.66-2.08,1.34-1.83,2.7c-0.69,0.61-1.28,1.14-1.95,1.73c0,0.75,0,1.59,0,2.53c-1.01-0.07-1,0.57-0.99,1.3
		c0.01,0.57-0.02,1.6-0.22,1.65c-1.12,0.27-0.76,1.09-0.76,1.72c-0.01,38.31-0.01,76.63-0.01,114.94c0,0.48,0.06,0.95,0.09,1.43
		C162.72,500.13,156,500.13,149.28,500.13z"/>
	<path fill="#FFFFFF" d="M-79.68,500.13c0-52.26,0-104.52,0-156.94c0.52,0,0.94,0,1.36,0c36.43,0,72.86,0,109.29,0c0.69,0,1.55-0.27,1.42,1.09
		c2.5-0.58,4.37,0.45,6.2,1.61c-0.03,0.11-0.06,0.22-0.08,0.33c0.87,0,1.74,0,2.62,0c-0.03,0.12-0.07,0.23-0.1,0.35
		c0.43,0.22,0.85,0.44,1.28,0.65c0.43,0.21,0.87,0.42,1.3,0.62c-0.04,0.12-0.07,0.24-0.11,0.36c0.55,0,1.11,0,1.49,0
		c0.6,0.7,1.08,1.28,1.64,1.94c1.35-0.3,2,0.77,2.75,1.74c0.33,0.42,0.81,0.72,1.14,1.31c0.52,0,1.03,0,1.55,0
		c-0.04,0.07-0.08,0.14-0.13,0.2c0.75,0.63,1.55,1.22,2.24,1.91c0.69,0.69,1.28,1.49,2.13,2.08c0.03,0.55,0.06,1.11,0.07,1.32
		c1.13,1.57,3.15,2.09,3,4.15c0.64,0.56,1.22,1.07,1.92,1.7c0.02,0.38,0.06,0.93,0.09,1.49c0.09-0.04,0.19-0.09,0.28-0.13
		c0.23,0.39,0.47,0.77,0.67,1.17c0.23,0.46,0.42,0.94,0.62,1.41c0.12-0.04,0.25-0.07,0.37-0.11c0,0.88,0,1.75,0,2.68
		c0.33,0.1,0.62,0.18,0.97,0.29c0,0.55,0,1.11,0,1.76c1.03-0.07,1.06,0.56,1.01,1.29c-0.04,0.64-0.08,1.29,0.02,1.91
		c0.05,0.33,0.39,0.61,0.58,0.92c0.15,0.24,0.37,0.5,0.37,0.75c0.02,6.16,0.03,12.32-0.02,18.48c0,0.35-0.46,0.69-0.78,0.99
		c-0.67,0.86,0.7,2.41-1.16,2.94c0,0.86,0,1.73,0,2.61c-0.12-0.04-0.24-0.07-0.37-0.11c-0.21,0.46-0.47,0.9-0.62,1.37
		c-0.22,0.72,0.51,1.82-0.87,2.1c-0.1,0.02-0.04,0.6-0.14,0.89c-0.14,0.41-0.37,0.8-0.55,1.19c-0.13-0.04-0.26-0.08-0.39-0.12
		c-0.04,0.55-0.07,1.1-0.11,1.63c-1.1,0.75-2.29,1.42-2.03,2.86c-0.98,0.96-1.87,1.81-2.86,2.77c0.23,1.25-0.79,1.9-1.76,2.66
		c-0.54,0.42-0.87,1.1-1.35,1.6c-0.47,0.49-1.04,0.87-1.51,1.35c-0.19,0.2-0.42,0.7-0.35,0.77c0.46,0.45,1.02,0.8,1.51,1.22
		c0.46,0.39,0.92,0.78,1.31,1.23c0.75,0.86,1.4,1.83,2.21,2.63c0.84,0.84,1.82,1.55,2.82,2.37c0.02,0.45,0.05,1.01,0.07,1.42
		c0.68,0.58,1.26,1.08,2.01,1.73c0.21,0.47-0.57,1.71,0.89,1.71c0.32,0.78-0.42,1.99,1.01,2.03c0.28,0.78-0.48,1.98,1.05,1.98
		c0,0.92,0,1.76,0,2.59c0.13-0.03,0.26-0.06,0.39-0.09c0.2,0.58,0.47,1.14,0.59,1.74c0.1,0.46,0.01,0.96,0.02,1.44
		c0.01,0.67-0.24,1.51,1,1.23c0,1.37,0.04,2.57-0.02,3.77c-0.04,0.77,0.07,1.33,1.04,1.33c0,0.6,0,1.12,0,1.63
		c0,15.56,0,31.11,0,46.67c0,0.52,0.07,1.03,0.1,1.55c-7.04,0-14.08,0-21.12,0c0-15.92,0-31.84,0.01-47.76
		c0-0.71,0.07-1.38-0.81-1.3c-0.71-1.37,0.71-3.16-1.14-4.24c-0.03-0.45-0.06-1-0.09-1.57c-1.51-0.03-0.73-1.22-0.95-1.69
		c-0.74-0.64-1.36-1.18-2.05-1.78c0-0.43,0-0.95,0-1.46c-0.57-0.3-0.86-0.76-1.25-1.12c-0.5-0.46-1.27-0.72-1.59-1.26
		c-0.7-1.16-1.51-1.98-2.83-1.84c-0.57-0.67-1.07-1.24-1.69-1.97c-0.36,0-0.91,0-1.37,0c-0.64-1.76-2.12-0.52-3-1.2
		c-0.42-0.34-0.86-0.64-1.35-0.72c-0.66-0.1-1.36-0.01-2.04-0.04c-0.26-0.01-0.71-0.1-0.73-0.2c-0.12-0.97-0.83-0.78-1.44-0.78
		c-27.12,0-54.24,0-81.36,0c-0.42,0-0.84,0.04-1.32,0.06c0,0.59,0,1.03,0,1.46c0,22.04,0,44.08,0,66.12c0,0.43,0.07,0.87,0.11,1.3
		C-65.6,500.13-72.64,500.13-79.68,500.13z M-58.59,363.19c0,16.06,0,31.95,0,47.97c0.55,0,1.02,0,1.49,0c26.95,0,53.91,0,80.86,0
		c0.32,0,0.65,0.04,0.96-0.02c0.2-0.03,0.54-0.19,0.55-0.31c0.06-0.81,0.64-0.67,1.14-0.67c0.6,0,1.21,0.08,1.8-0.03
		c0.48-0.08,0.93-0.38,1.39-0.58c-0.03-0.1-0.06-0.19-0.09-0.29c0.96-0.52,2.51,0.74,3.07-1.05c0.55-0.03,1.1-0.05,1.39-0.07
		c0.63-0.73,1.11-1.27,1.67-1.91c0.4-0.04,1.08,0.09,1.47-0.19c0.82-0.59,1.48-1.39,2.2-2.11c0.59-0.59,1.2-1.15,1.73-1.79
		c0.48-0.58,0.88-1.24,1.27-1.89c0.27-0.45,0.45-0.94,0.68-1.42c0.09,0.04,0.19,0.07,0.28,0.11c0.27-0.7-0.45-1.91,1.04-1.9
		c0.04-0.64,0.07-1.19,0.09-1.44c1.74-1.29,0.48-2.98,1.14-4.17c0.31-0.29,0.76-0.63,0.77-0.98c0.06-2.35,0.03-4.71,0.03-7.07
		c-0.12,0.03-0.24,0.06-0.36,0.09c-0.21-0.46-0.5-0.9-0.6-1.39c-0.1-0.5,0.06-1.05-0.04-1.55c-0.12-0.59-0.39-1.15-0.6-1.72
		c-0.38-0.51-0.56-1.07-0.79-1.6c-0.15-0.33-0.42-0.61-0.59-0.94c-0.24-0.47-0.45-0.95-0.67-1.43c-0.1,0.04-0.19,0.07-0.29,0.11
		c-0.14-1.45-0.58-2.05-1.75-2.81c-0.5-0.32-0.88-0.86-1.28-1.33c-0.46-0.52-0.85-1.11-1.34-1.6c-0.66-0.67-1.39-1.27-2.27-2.07
		c-0.22,0-0.73,0-1.31,0c-0.07-0.32-0.14-0.61-0.22-0.96c-0.59,0-1.15,0-1.75,0c-0.06-1.54-1.27-0.77-1.96-1.06
		c-0.5-1.8-2.07-0.46-3.1-1.12c0.17-1.25-0.85-0.82-1.53-0.82c-27.67-0.01-55.35-0.01-83.02-0.01
		C-57.58,363.19-58.01,363.19-58.59,363.19z"/>
	<path fill="#FFFFFF" d="M516.24,500.13c0.03-0.6,0.09-1.19,0.09-1.79c0-51.12,0-102.24,0-153.36c0-0.55,0-1.1,0-1.79c0.56,0,0.99,0,1.42,0
		c36.08,0,72.16,0,108.24,0.01c0.65,0,1.61-0.39,1.39,0.99c0.93,0,1.72-0.03,2.52,0.01c0.61,0.03,1.43-0.33,1.57,0.77
		c0.02,0.12,0.54,0.21,0.83,0.23c0.6,0.04,1.2,0.01,1.79,0.01c-0.03,0.13-0.07,0.26-0.1,0.39c0.5,0.21,1.01,0.39,1.49,0.64
		c0.42,0.21,0.8,0.49,1.14,0.83c0.56,0.44,1.8-0.48,1.8,1.09c0.59,0.03,1.14,0.05,1.69,0.08c-0.04,0.1-0.07,0.2-0.11,0.29
		c0.46,0.22,0.93,0.41,1.38,0.67c0.63,0.36,1.62,0.64,1.78,1.17c0.39,1.26,1.36,0.64,1.89,1.05c3.02,3.02,6.05,6.04,9.25,9.24
		c0.02,0.25,0.05,0.8,0.07,1.19c0.7,0.61,1.28,1.11,2.02,1.75c0.27,0.46-0.76,1.81,0.78,1.7c0.53,0.69-0.59,2,1.06,1.93
		c0.29,0.79-0.35,1.95,1.01,2.26c0.13,0.03,0.07,0.97,0.08,1.49c0.02,1.07,0.01,1.07,1,1.44c0,0.81,0,1.65,0,2.45
		c2.02,0.98,0.51,2.81,1.23,4c0.27,0.34,0.77,0.68,0.77,1.03c0.05,4.68,0.04,9.36,0.04,14.04c0,0.36,0,0.71,0,0.99
		c-2.03,0.98-0.33,2.81-1.41,3.92c-0.2,0.52-0.47,1.02-0.6,1.55c-0.18,0.7,0.43,1.71-0.88,1.98c-0.15,0.03-0.14,0.96-0.14,1.47
		c0,0.73,0.13,1.49-0.94,1.47c-0.14,1.77-0.14,1.77-1.04,2.1c0,0.5,0,1.02,0,1.6c-0.33,0.1-0.65,0.2-1,0.31
		c0.29,1.5-0.77,2.13-1.68,2.94c-0.38,0.34-0.35,1.13-0.45,1.52c-2.28,2.28-4.47,4.47-6.85,6.86c0,0.21,0,0.76,0,1.06
		c2,2,3.87,3.88,5.88,5.88c-0.28,1.24,0.8,1.88,1.76,2.63c0.43,0.33,0.73,0.83,1.34,1.14c0,0.55,0,1.1,0,1.7
		c0.35,0.08,0.64,0.15,0.97,0.22c0,0.57,0,1.08,0,1.67c0.32,0.12,0.63,0.24,0.96,0.37c0.03,0.56,0.05,1.12,0.08,1.67
		c0.09-0.04,0.18-0.08,0.27-0.12c0.23,0.4,0.47,0.79,0.68,1.2c0.23,0.45,0.42,0.93,0.63,1.39c0.12-0.04,0.25-0.07,0.37-0.11
		c0,0.84,0,1.67,0,2.47c1.99,0.99,0.54,2.8,1.22,4.19c0.93-0.04,0.83,0.71,0.83,1.44c-0.01,17.04,0,34.08,0,51.12
		c0,0.52,0.02,1.04,0.03,1.56c-6.72,0-13.44,0-20.16,0c0.03-0.44,0.1-0.87,0.1-1.31c0.01-14.76,0-29.52,0-44.28
		c0-0.28,0.04-0.57-0.02-0.84c-0.04-0.2-0.21-0.52-0.34-0.53c-0.74-0.04-0.66-0.55-0.66-1.03c0-0.84-0.03-1.68,0.01-2.52
		c0.04-0.82,0.03-1.57-0.96-1.7c-0.17-0.81,0.43-1.9-1.04-1.9c0-0.62,0-1.18,0-1.74c-0.35-0.1-0.64-0.18-0.91-0.26
		c0.13-2.29-1.91-2.89-3.07-4.34c-0.02-0.35-0.06-0.9-0.09-1.52c-0.64,0-1.19,0-1.46,0c-1.03-1.09-1.89-2-2.88-3.05
		c-0.52-0.18-1.71,0.53-1.73-1.02c-0.64,0-1.19,0-1.71,0c-0.22-0.81-0.22-0.81-1.74-1.01c-1.25-1.71-2.95-0.43-4.32-1.11
		c0.19-1.16-0.74-0.8-1.41-0.8c-27.12-0.01-54.23-0.01-81.35,0c-0.42,0-0.84,0.04-1.3,0.06c0,23.06,0,45.97,0,68.88
		C530.32,500.13,523.28,500.13,516.24,500.13z M537.43,363.19c0,16.06,0,31.96,0,47.91c0.42,0.02,0.77,0.05,1.12,0.05
		c27.2,0,54.4,0,81.6,0.01c0.73,0,1.36,0,1.3-1.01c1.1,0,2.1,0.02,3.09-0.02c0.27-0.01,0.76-0.19,0.76-0.32
		c0.05-0.85,0.65-0.64,1.13-0.65c0.59-0.02,1.19,0,1.76,0c0.34-1.23,1.35-1.91,2.83-2.02c0.58-0.68,1.11-1.3,1.67-1.96
		c0.45-0.02,0.97-0.04,1.46-0.07c0.17-0.34,0.25-0.74,0.49-0.91c1-0.69,1.99-1.36,1.74-2.67c0.71-0.61,1.32-1.13,2-1.72
		c0-0.45,0-0.97,0-1.55c1.54-0.02,0.75-1.25,1.07-1.99c0.25-0.06,0.54-0.13,0.84-0.2c0.03-0.61,0.05-1.17,0.08-1.72
		c0.11,0.03,0.21,0.07,0.32,0.1c0.21-0.4,0.5-0.77,0.62-1.19c0.41-1.46-0.89-3.29,0.98-4.44c0.06-0.04,0.04-0.23,0.04-0.35
		c0-1.04,0-2.07,0-3.19c-0.96-0.01-1.06-0.57-1.03-1.33c0.06-1.19,0.02-2.39,0.02-3.57c-1.88-0.52-0.52-2.08-1.17-3.07
		c-1.37-0.03-0.61-1.22-0.81-1.77c-0.72-0.62-1.33-1.15-1.96-1.69c-0.02-0.49-0.05-1.01-0.07-1.52c-0.06,0.05-0.13,0.1-0.19,0.15
		c-1.38-1.39-2.76-2.79-4.29-4.34c-0.26,0-0.78,0-1.13,0c-0.61-0.69-1.12-1.26-1.75-1.97c-0.51-0.18-1.71,0.58-1.72-0.73
		c-0.7-0.25-1.29-0.44-1.85-0.68c-0.3-0.13-0.54-0.51-0.84-0.53c-0.79-0.08-1.6-0.01-2.4-0.04c-0.25-0.01-0.71-0.13-0.72-0.22
		c-0.06-1.15-0.92-0.79-1.5-0.79c-27.36-0.01-54.72-0.01-82.08-0.01C538.38,363.19,537.91,363.19,537.43,363.19z"/>
	<path fill="#FFFFFF" d="M753.36,500.13c0-0.28,0-0.56,0-0.98c-1.95,0-3.86-0.03-5.77,0.01c-0.74,0.02-1.34-0.03-1.33-1.01
		c-1.28,0-2.48-0.03-3.68,0.01c-0.74,0.03-1.35-0.01-1.33-0.84c-1.36-0.74-3.18,0.73-4.22-1.13c-0.83-0.6-2.44,0.9-2.85-1.09
		c-0.91,0-1.79,0-2.71,0c-0.1-0.34-0.18-0.62-0.28-0.97c-0.57,0-1.13,0-1.73,0c-0.08-0.34-0.14-0.63-0.22-0.96
		c-0.56,0-1.07,0-1.59,0c0.03-0.12,0.06-0.24,0.1-0.36c-0.55-0.22-1.09-0.45-1.64-0.65c-0.21-0.08-0.63-0.09-0.64-0.18
		c-0.18-1.26-1.2-0.69-1.86-0.88c0.03-0.11,0.07-0.22,0.1-0.33c-0.53-0.22-1.07-0.4-1.58-0.66c-0.39-0.19-0.72-0.48-0.96-0.94
		c-0.55-0.03-1.11-0.06-1.51-0.08c-0.59-0.67-1.08-1.24-1.68-1.93c-0.34,0-0.86,0-1.21,0c-0.92-0.85-1.29-2.07-2.76-2.07
		c-0.43,0-0.9-0.6-1.29-0.99c-0.56-0.55-1.05-1.17-1.73-1.93c-0.28-0.01-0.83-0.04-1.18-0.05c-3.49-3.49-6.86-6.86-10.43-10.43
		c0-0.22,0-0.78,0-1.05c-0.79-0.81-1.32-1.58-2.05-2.04c-0.87-0.55-0.86-1.32-1.12-2.13c-0.2-0.63-1.1-1.04-1.85-1.68
		c-0.01-0.32-0.04-0.87-0.06-1.27c-0.66-0.58-1.22-1.07-1.91-1.67c-0.02-0.38-0.05-0.94-0.07-1.49c-0.11,0.04-0.21,0.07-0.32,0.11
		c-0.21-0.48-0.41-0.96-0.64-1.43c-0.19-0.38-0.41-0.75-0.62-1.13c-0.12,0.03-0.23,0.06-0.35,0.1c-0.03-0.52-0.05-1.03-0.08-1.55
		c-0.11,0.03-0.21,0.06-0.32,0.1c-0.22-0.54-0.42-1.1-0.68-1.63c-0.19-0.39-0.47-0.73-0.81-1.03c-0.4-0.61,0.39-1.84-1.08-1.86
		c-0.26-0.76,0.48-1.96-1.06-1.98c0-0.95,0-1.83,0-2.7c-1.93-0.47-0.48-2.07-1.26-3.07c-0.7,0-0.85-0.55-0.78-1.32
		c0.06-0.63,0.08-1.29-0.02-1.91c-0.05-0.33-0.4-0.6-0.58-0.92c-0.16-0.27-0.37-0.57-0.38-0.86c-0.05-1-0.01-2-0.02-3
		c0-0.64,0.17-1.42-0.99-1.16c0-2.11,0.03-4.07-0.02-6.02c-0.01-0.39-0.34-0.78-0.53-1.17c-0.13,0.04-0.25,0.08-0.38,0.12
		c0-4.23,0-8.46,0-12.79c0.95,0.07,0.95-0.55,0.94-1.28c-0.04-2.16-0.01-4.32-0.01-6.57c1.04-0.13,1.05-0.87,1-1.69
		c-0.04-0.76-0.03-1.52,0-2.28c0.02-0.54-0.27-1.27,0.73-1.31c0.1,0,0.25-0.45,0.26-0.7c0.04-0.68,0.01-1.36,0.02-2.04
		c0.01-0.67-0.21-1.51,0.8-1.3c0.73-1.02-0.74-2.63,1.22-3.07c0-0.9,0-1.78,0-2.73c1.55-0.02,0.8-1.21,1.05-1.92
		c0.9-0.31,0.9-0.31,0.95-1.97c1.46-0.07,0.78-1.29,1.06-2.12c1.39,0,0.78-1.12,0.97-1.82c0.11,0.03,0.22,0.06,0.32,0.1
		c0.22-0.53,0.41-1.08,0.67-1.59c0.2-0.39,0.48-0.73,0.95-0.97c0.03-0.55,0.06-1.11,0.07-1.48c0.65-0.59,1.18-1.06,1.86-1.67
		c-0.22-1.22,0.7-2,1.79-2.68c0.09-0.06,0.24-0.18,0.22-0.25c-0.24-1.08,0.53-1.68,1.11-2.36c0.4-0.47,0.81-0.96,1.29-1.32
		c0.95-0.72,2-1.35,1.68-2.57c2.86-2.86,5.59-5.58,8.48-8.47c0.23,0,0.75,0,0.95,0c0.87-0.78,1.55-1.39,2.22-2
		c0.41-0.38,1.08-0.71,1.16-1.16c0.2-1.04,0.99-0.62,1.5-0.89c0.74-0.4,1.31-1.11,1.79-1.91c0.55-0.03,1.1-0.05,1.51-0.07
		c0.58-0.66,1.07-1.22,1.68-1.91c0.38-0.02,0.93-0.05,1.48-0.07c-0.04-0.11-0.07-0.21-0.11-0.32c0.47-0.21,0.95-0.42,1.42-0.64
		c0.39-0.19,0.77-0.42,1.16-0.63c-0.05-0.11-0.09-0.23-0.14-0.34c0.55-0.03,1.1-0.07,1.66-0.1c-0.04-0.11-0.07-0.22-0.11-0.33
		c0.47-0.21,0.96-0.41,1.42-0.64c0.33-0.17,0.6-0.45,0.94-0.59c0.57-0.23,1.18-0.39,1.91-0.63c0.03-0.12,0.09-0.41,0.17-0.75
		c0.92,0,1.79,0,2.64,0c0.39-0.91,0.39-0.91,3.09-1.03c0.1-0.29,0.2-0.61,0.31-0.96c0.64,0,1.25,0.08,1.83-0.03
		c0.37-0.07,0.68-0.42,1.03-0.61c0.28-0.15,0.58-0.33,0.89-0.37c0.47-0.06,0.96-0.02,1.44-0.02c0.48,0,0.95,0,1.51,0
		c0.02-0.94,0.57-1.07,1.34-1.03c1.19,0.06,2.4,0.02,3.68,0.02c0.01-0.9,0.52-1.02,1.3-1.01c7.88,0.03,15.76,0.02,23.63,0.02
		c0.51,0,1.17-0.23,1.23,0.69c0.01,0.12,0.52,0.27,0.8,0.28c0.96,0.04,1.92-0.01,2.88,0.02c0.53,0.02,1.27-0.29,1.32,0.72
		c0.01,0.11,0.45,0.26,0.69,0.27c0.72,0.04,1.45-0.06,2.15,0.04c0.49,0.07,0.94,0.39,1.35,0.74c0.86,0.72,2.42-0.62,2.94,1.24
		c0.86,0,1.73,0,2.61,0c-0.04,0.12-0.07,0.24-0.11,0.37c0.46,0.21,0.91,0.47,1.39,0.62c0.71,0.22,1.81-0.52,2.06,0.86
		c0.01,0.08,0.44,0.15,0.66,0.12c0.76-0.09,1.34,0.05,1.33,1c0.61,0,1.13,0,1.64,0c-0.04,0.12-0.08,0.23-0.12,0.35
		c0.46,0.23,0.9,0.55,1.39,0.65c0.48,0.1,0.96,0.01,0.98,0.72c0,0.11,0.33,0.34,0.42,0.3c1.26-0.49,1.54,0.99,2.46,1.2
		c0.12,0.03,0.14,0.48,0.23,0.8c0.57,0,1.12,0,1.73,0c0.03,1.55,1.24,0.78,1.63,0.93c1.05,1.1,1.9,1.98,2.93,3.05
		c0.25,0.01,0.8,0.04,1.13,0.06c0.99,1.01,1.85,1.9,2.85,2.93c0.29,0,0.81,0,1.07,0c2.86,2.87,5.57,5.58,8.46,8.48
		c0.01,0.24,0.04,0.8,0.05,1.15c1.02,0.96,1.92,1.82,2.95,2.8c-0.28,2.01,1.87,2.47,2.98,3.73c0.03,0.55,0.05,1.1,0.08,1.74
		c1.52-0.01,0.74,1.22,0.96,1.73c0.72,0.63,1.31,1.14,2.03,1.78c0.2,0.53-0.52,1.74,0.99,1.74c0,0.6,0,1.12,0,1.72
		c1.47,0.03,0.86,1.16,1.05,2c0.27,0.09,0.58,0.2,0.77,0.27c0.49,0.69-0.56,2,1.16,1.93c0,0.65-0.01,1.24,0,1.83
		c0.01,0.48-0.18,1.08,0.65,1.15c0.14,0.01,0.32,0.49,0.34,0.76c0.05,0.67,0.02,1.35,0.02,2.12c1.33-0.06,0.97,0.86,1.03,1.56
		c0.05,0.69-0.43,1.69,0.8,1.58c0.67,1.35-0.58,3.03,1.15,4.36c0,1.25,0,2.83,0,4.53c0.39,0.03,0.69,0.05,0.99,0.07
		c0,8.64,0,17.28,0,25.92c-0.3,0.02-0.6,0.05-0.99,0.07c0,1.69,0,3.28,0,4.52c-1.72,1.33-0.48,3-1.13,4.32
		c-1.16,0.05-0.81,0.99-0.82,1.74c-0.01,0.7,0.21,1.53-1.03,1.43c0,0.78,0.03,1.46-0.02,2.13c-0.02,0.27-0.2,0.75-0.34,0.76
		c-0.83,0.07-0.65,0.66-0.66,1.15c-0.01,0.59,0,1.18,0,1.81c-1.6,0.02-0.74,1.23-1.2,1.81c-0.35,0.42-0.55,0.9-0.78,1.35
		c-0.22,0.43-0.47,0.84-0.71,1.26c-0.09-0.04-0.18-0.07-0.28-0.11c0,0.52,0,1.03,0,1.62c-0.29,0.07-0.76,0.12-0.77,0.19
		c-0.05,1.08-1.02,1.83-1.16,2.72c-0.22,1.36-1.19,1.76-2.11,2.56c0,0.41,0,0.96,0,1.51c-0.48,0.2-0.68,0.66-1,0.77
		c-1.11,0.4-0.93,1.31-1.03,2.15c-0.01,0.1-0.33,0.15-0.47,0.27c-0.5,0.43-1,0.85-1.46,1.32c-0.65,0.65-1.26,1.34-2.05,2.19
		c0,0.24,0,0.75,0,1c-3.21,3.21-6.26,6.26-9.45,9.45c-0.85-0.45-1.4,0.28-2,0.98c-0.56,0.64-1.2,1.21-1.95,1.96
		c-1.34-0.24-2.06,0.9-2.83,2.07c-1.58-0.32-2.21,0.9-2.91,1.79c-0.64,0.19-1.58,0.21-1.71,0.55c-0.25,0.64-0.6,0.61-1.08,0.64
		c-0.31,0.02-0.87,0.05-0.88,0.15c-0.21,1.3-1.28,0.71-2.08,0.97c0.15,1.63-1.21,0.62-1.81,1.11c-0.34,0.35-0.72,0.6-1.12,0.79
		c-0.49,0.24-1,0.42-1.5,0.63c0.03,0.12,0.07,0.25,0.1,0.37c-0.52,0-1.03,0-1.72,0c0.31,1.09-0.42,0.93-1.08,1
		c-0.75,0.08-1.83-0.53-2.1,0.85c-0.02,0.08-0.44,0.11-0.67,0.12c-0.67,0.02-1.35,0.01-2.04,0.01c-0.09,0.38-0.16,0.67-0.25,1.02
		c-1,0-1.96-0.02-2.91,0.01c-0.3,0.01-0.84,0.1-0.86,0.21c-0.16,1.15-1.03,0.76-1.66,0.79c-0.88,0.04-1.76-0.02-2.64,0.03
		c-0.27,0.01-0.73,0.2-0.75,0.34c-0.09,0.73-0.58,0.64-1.05,0.64c-1.68,0-3.36,0.04-5.04-0.02c-0.79-0.03-1.09,0.26-1.05,1
		C762.64,500.13,758,500.13,753.36,500.13z M728.65,372.21c-0.57,0.73-0.99,1.32-1.46,1.87c-0.88,1.03-2.48,0.91-3.31,2.1
		c-0.38,0.54-1.03,0.89-1.5,1.38c-0.47,0.49-0.82,1.11-1.31,1.58c-0.5,0.47-1.2,0.76-1.66,1.26c-0.8,0.85-1.4,1.91-2.25,2.68
		c-0.34,0.31-0.67,0.5-0.94,0.95c-0.31,0.51-1.05,0.75-1.52,1.19c-0.5,0.47-1.29,1.03-1.3,1.56c-0.02,1.5-1.1,2-2.07,2.72
		c0,0.49,0,1.01,0,1.48c-0.9,0.53-1.75,0.98-1.98,2.1c-0.1,0.5-0.42,0.96-0.64,1.44c-0.09-0.04-0.19-0.07-0.28-0.11
		c-0.29,0.7,0.46,1.92-1.05,1.91c-0.03,0.64-0.06,1.19-0.09,1.82c-1.4-0.16-0.86,0.84-0.93,1.46c-0.09,0.71,0.36,1.68-0.99,1.71
		c0,0.94,0,1.81,0,2.68c-0.13-0.03-0.25-0.06-0.38-0.09c-0.2,0.46-0.48,0.9-0.59,1.38c-0.14,0.6-0.06,1.73-0.24,1.77
		c-1.09,0.21-0.75,0.98-0.77,1.57c-0.04,1.11-0.01,2.23-0.01,3.42c-0.95,0.05-1.07,0.61-1.04,1.38c0.05,1.64,0.02,3.28,0.02,4.92
		c0,3.88,0,7.75,0,11.7c0.96,0.05,1.09,0.61,1.04,1.38c-0.06,0.84,0.03,1.68-0.03,2.52c-0.06,0.77,0.08,1.32,1.01,1.36
		c0,0.95,0,1.82,0,2.73c0.36,0.12,0.67,0.23,1,0.34c0,0.91,0,1.75,0,2.68c1.3-0.01,0.93,0.94,0.97,1.67
		c0.03,0.71-0.32,1.63,0.75,1.57c0.26,0.71,0.44,1.3,0.69,1.86c0.13,0.3,0.56,0.56,0.54,0.82c-0.07,0.81,0.22,1.27,1.1,1.38
		c-0.41,1.72,0.84,2.34,1.96,3.12c0,0.47,0,0.99,0,1.34c0.71,0.62,1.59,1.04,1.85,1.7c0.29,0.73,0.1,1.54,1.07,2.01
		c0.52,0.25,0.76,1.03,1.2,1.52c0.36,0.41,0.81,0.74,1.23,1.09c0.53,0.44,1.11,0.82,1.58,1.32c0.48,0.5,0.76,1.19,1.27,1.66
		c0.85,0.79,1.83,1.45,2.71,2.22c0.41,0.35,0.72,0.82,1.07,1.23c0.44,0.53,0.85,1.09,1.32,1.58c0.38,0.39,0.86,1,1.27,0.99
		c1.5-0.04,1.99,1.08,2.72,2.05c0.48,0,0.99,0,1.51,0c-0.03,0.12-0.06,0.24-0.1,0.37c0.46,0.2,0.92,0.4,1.38,0.6
		c0.29,0.13,0.59,0.24,0.87,0.39c0.32,0.18,0.61,0.43,0.94,0.6c0.45,0.24,0.93,0.43,1.39,0.64c-0.04,0.11-0.08,0.21-0.12,0.32
		c0.7,0.27,1.91-0.44,1.92,0.98c0.79,0.3,1.99-0.42,2.03,1.02c0.79,0.25,1.98-0.47,1.98,1.07c0.96,0,1.83,0,2.71,0
		c-0.03,0.13-0.05,0.26-0.08,0.38c0.42,0.2,0.83,0.5,1.27,0.56c0.62,0.1,1.29-0.06,1.91,0.05c0.49,0.08,0.93,0.4,1.39,0.62
		c-0.04,0.12-0.07,0.24-0.11,0.35c1.52,0,3.04-0.05,4.55,0.03c0.54,0.03,1.06,0.39,1.59,0.6c-0.03,0.12-0.06,0.24-0.1,0.36
		c4.51,0,9.03,0,13.61,0c0.02-0.93,0.59-1.04,1.36-1c1.28,0.05,2.56,0.02,3.84,0.01c0.27,0,0.76-0.04,0.78-0.13
		c0.23-1.32,1.25-0.82,1.97-0.84c0.74-0.02,1.35-0.03,1.3-1.02c0.98,0,1.85,0,2.74,0c0.11-0.34,0.19-0.63,0.29-0.97
		c0.92,0,1.79,0,2.84,0c-0.26-1.07,0.44-0.94,1.1-1.03c0.42-0.05,0.79-0.4,1.19-0.62c-0.04-0.1-0.08-0.19-0.12-0.29
		c0.55-0.05,1.55-0.01,1.58-0.18c0.28-1.35,1.39-0.74,2.11-0.99c0.3-0.83,0.3-0.83,2.05-1.02c0.07-0.24,0.09-0.7,0.21-0.73
		c0.91-0.18,1.19-1.69,2.44-1.17c0.09,0.04,0.35-0.14,0.44-0.28c0.67-1.03,1.39-1.97,2.57-1.75c3.54-3.53,6.94-6.92,10.49-10.46
		c0-0.26,0-0.78,0-1.12c0.68-0.61,1.25-1.12,1.96-1.76c0-0.35,0-0.91,0-1.47c0.33-0.09,0.79-0.11,0.81-0.23
		c0.2-0.92,1.72-1.16,1.22-2.43c-0.03-0.09,0.19-0.4,0.31-0.41c0.82-0.04,0.66-0.63,0.69-1.13c0.02-0.27,0.05-0.76,0.13-0.78
		c1.32-0.2,0.7-1.27,0.93-2.02c0.28-0.09,0.59-0.19,0.92-0.29c0-0.58,0-1.1,0-1.73c0.98,0.05,1.04-0.56,0.99-1.3
		c-0.02-0.25,0.11-0.73,0.21-0.73c1.14-0.09,0.68-0.94,0.77-1.53c0.1-0.62-0.37-1.52,0.81-1.63c0.09-0.01,0.19-0.41,0.2-0.63
		c0.03-0.64,0.04-1.28,0.01-1.92c-0.04-0.79-0.07-1.53,1.03-1.52c0-0.87-0.1-1.64,0.02-2.38c0.15-0.91-0.71-2.21,0.88-2.67
		c0.07-0.02,0.08-0.29,0.08-0.45c0-4.71,0-9.43,0-14.14c-0.12,0.04-0.25,0.09-0.37,0.13c-0.21-0.48-0.57-0.95-0.59-1.43
		c-0.08-1.55-0.03-3.11-0.03-4.82c-1.3,0.23-0.99-0.67-1.02-1.36c-0.03-0.51,0.04-1.43-0.13-1.48c-1.28-0.36-0.75-1.35-0.91-2.12
		c-0.1-0.49-0.4-0.93-0.61-1.4c-0.12,0.04-0.25,0.07-0.37,0.11c0-0.6,0.09-1.21-0.03-1.79c-0.1-0.49-0.44-0.94-0.67-1.4
		c-0.1,0.04-0.2,0.07-0.3,0.11c0-0.52,0-1.03,0-1.58c-0.34-0.11-0.65-0.22-0.99-0.33c0-0.58,0-1.1,0-1.61
		c-0.49-0.24-0.77-0.58-0.96-0.96c-0.26-0.53-0.45-1.09-0.67-1.64c-0.11,0.03-0.22,0.06-0.33,0.09c-0.03-0.52-0.05-1.03-0.07-1.39
		c-0.69-0.59-1.27-1.08-1.95-1.65c-0.02-0.41-0.05-0.96-0.06-1.34c-1.14-0.91-2.26-1.62-2.03-2.89c-3.54-3.54-6.91-6.91-10.41-10.42
		c-0.28-0.01-0.79-0.04-1.16-0.05c-0.59-0.68-1.09-1.26-1.67-1.93c-0.41-0.02-0.97-0.04-1.38-0.06c-0.59-0.68-1.08-1.24-1.66-1.91
		c-0.4-0.02-0.95-0.05-1.53-0.08c-0.05-1.49-1.22-0.73-1.83-1.19c-0.47-0.38-0.97-0.59-1.49-0.78c-0.22-0.08-0.65-0.07-0.66-0.15
		c-0.18-1.33-1.27-0.69-2.04-0.96c0.07-1.22-0.85-0.86-1.55-0.9c-0.74-0.04-1.68,0.33-1.68-0.79c-1.01-0.68-2.56,0.71-3.07-1.18
		c-0.86,0-1.73,0-2.68,0c-0.04-0.93-0.6-1.06-1.37-1.02c-1.08,0.06-2.16,0.04-3.24,0c-0.64-0.02-1.52,0.36-1.64-0.81
		c-0.01-0.09-0.4-0.2-0.62-0.2c-4.36-0.01-8.71-0.01-13.12-0.01c-0.1,0.37-0.19,0.68-0.29,1.02c-1.6,0-3.11,0.02-4.63-0.01
		c-0.72-0.02-1.37-0.04-1.3,1.01c-0.86,0-1.62-0.01-2.37,0c-0.74,0.02-1.68-0.32-1.68,1c-0.97,0-1.84,0-2.73,0
		c-0.1,0.35-0.17,0.64-0.25,0.93c-0.61,0.03-1.17,0.05-1.72,0.08c0.04,0.11,0.09,0.21,0.13,0.32c-0.4,0.21-0.8,0.43-1.21,0.63
		c-0.46,0.23-0.93,0.44-1.4,0.65c0,0.02,0,0.04-0.01,0.07c-2.02,0.99-4.04,1.99-6.06,2.98c0.05,0.11,0.1,0.22,0.15,0.33
		C729.6,372.21,729.09,372.21,728.65,372.21z"/>
	<path fill="#FFFFFF" d="M-241.68,500.13c0-52.59,0-105.18,0-157.84c35.33,0,70.59,0,105.84,0c-0.03,0.11-0.07,0.21-0.1,0.32
		c0.47,0.2,0.93,0.54,1.41,0.56c1.55,0.07,3.11,0.03,4.75,0.03c0.02,0.98,0.62,1.06,1.36,1c0.6-0.05,1.21-0.08,1.79,0.02
		c0.34,0.05,0.64,0.36,0.94,0.57c0.08,0.06,0.13,0.3,0.16,0.29c1.49-0.38,2.17,1.68,3.7,1.14c-0.04,0.13-0.09,0.26-0.13,0.39
		c0.46,0.2,0.93,0.4,1.38,0.62c0.4,0.2,0.79,0.43,1.18,0.64c-0.04,0.11-0.08,0.22-0.12,0.33c0.55,0,1.11,0,1.74,0
		c0.05,1.5,1.21,0.82,1.74,0.98c0.61,0.72,1.1,1.3,1.67,1.96c1.36-0.18,2.09,0.75,2.83,1.85c0.36,0.53,1.08,0.82,1.61,1.24
		c0.39,0.32,0.49,0.8,1.05,1.13c0.93,0.56,1.49,1.72,2.28,2.56c0.53,0.56,1.18,1.01,1.92,1.62c0.02,0.34,0.04,0.9,0.06,1.29
		c0.66,0.58,1.23,1.07,1.91,1.66c0.02,0.39,0.05,0.95,0.07,1.5c0.11-0.04,0.22-0.07,0.33-0.11c0.21,0.48,0.41,0.96,0.63,1.42
		c0.2,0.4,0.43,0.77,0.79,1.09c0.46,0.57-0.27,1.71,1.07,1.9c0.09,0.01,0.09,0.51,0.18,0.76c0.18,0.48,0.4,0.95,0.61,1.43
		c0.13-0.03,0.25-0.07,0.38-0.1c0,0.87,0,1.75,0,2.62c0.13-0.03,0.26-0.06,0.39-0.1c0.2,0.46,0.44,0.9,0.58,1.37
		c0.21,0.72-0.52,1.82,0.88,2.07c0.09,0.02,0.11,0.59,0.11,0.9c0.01,1.92,0,3.83,0,5.75c0.13-0.03,0.26-0.07,0.39-0.1
		c0.2,0.47,0.56,0.94,0.58,1.42c0.07,1.92,0.02,3.84,0.03,5.76c0,0.66,0.12,1.39-0.99,1.12c0,2.04,0,3.92,0,5.63
		c-1.87,1.14-0.46,2.9-1.14,4.2c-1.73,0.47-0.35,2.02-1.02,3.02c-1.39,0-0.59,1.24-0.89,1.92c-0.1-0.04-0.2-0.07-0.3-0.11
		c-0.21,0.48-0.41,0.97-0.65,1.45c-0.2,0.39-0.44,0.76-0.66,1.14c-0.11-0.03-0.22-0.07-0.33-0.1c0,0.51,0,1.03,0,1.5
		c-1.12,0.8-2.34,1.44-2.03,2.94c-1.32,1.26-2.56,2.44-3.94,3.76c0.16,1.21-0.62,2.06-1.81,2.7c-0.2,0.11-0.24,0.53-0.39,0.88
		c-0.49,0.02-1.04,0.05-1.41,0.07c-1.31,1.32-2.53,2.55-3.9,3.93c-0.25,0.01-0.76,0.04-1.28,0.06c0.03,0.12,0.07,0.24,0.1,0.36
		c-0.5,0.21-1.04,0.35-1.49,0.64c-0.77,0.5-1.47,1.09-2.21,1.65c0.07,0.1,0.13,0.2,0.2,0.3c-0.87,0-1.75,0-2.62,0
		c0.04,0.12,0.07,0.23,0.11,0.35c-0.46,0.22-0.9,0.53-1.38,0.63c-0.47,0.1-0.8,0.06-1.07,0.66c-0.14,0.31-1.1,0.36-1.69,0.34
		c-0.77-0.02-1.32,0.09-1.32,1.04c-1,0-1.92,0-2.84,0c-0.51,0-1.08-0.11-1.12,0.7c-0.01,0.12-0.34,0.28-0.54,0.3
		c-0.35,0.05-0.72,0.02-1.08,0.02c-28.88,0-57.75,0-86.63,0c-0.51,0-1.03,0-1.7,0c0,0.62,0,1.13,0,1.64c0,21.92,0,43.84,0,65.75
		c0,0.52-0.04,1.04-0.06,1.55C-228.4,500.13-235.04,500.13-241.68,500.13z M-119.9,374.47c-2.39-2.39-4.78-4.78-7.3-7.32
		c-0.29,0-0.8,0-1.28,0c-0.83-1.79-2.25-2.26-4.03-1.91c-0.47-1.97-2.06-0.53-3.04-1.23c0.01-0.95-0.74-0.84-1.48-0.84
		c-27.75,0.01-55.5,0.01-83.26,0.01c-0.43,0-0.86,0.04-1.34,0.06c0,16,0,31.89,0,47.91c0.47,0,0.86,0,1.25,0
		c27.15,0,54.31,0,81.46,0.02c0.77,0,1.31-0.1,1.37-1.01c1.27,0,2.47-0.05,3.66,0.02c0.77,0.04,1.3-0.08,1.31-1.02
		c0.64,0,1.19,0,1.74,0c-0.03-0.12-0.06-0.25-0.09-0.37c0.39-0.2,0.77-0.4,1.17-0.59c0.46-0.22,0.93-0.42,1.39-0.64
		c-0.04-0.1-0.07-0.2-0.11-0.3c1.02-0.07,0.99-0.11,1.9-0.94c0.85-0.78,1.8-1.45,2.66-2.21c0.46-0.41,0.82-0.92,1.25-1.37
		c0.58-0.61,1.18-1.21,1.94-2c0.01-0.26,0.04-0.81,0.07-1.36c0.11,0.04,0.22,0.07,0.33,0.11c0.21-0.48,0.4-0.96,0.63-1.42
		c0.2-0.4,0.45-0.78,0.67-1.17c0.1,0.04,0.19,0.09,0.29,0.13c0.03-0.55,0.07-1.11,0.1-1.66c0.11,0.04,0.23,0.08,0.34,0.12
		c0.21-0.43,0.48-0.85,0.62-1.31c0.22-0.76-0.53-1.9,0.91-2.18c0.08-0.01,0.1-0.44,0.1-0.67c0.01-2.76,0.01-5.52,0-8.28
		c0-0.25-0.1-0.71-0.2-0.73c-1.08-0.13-0.76-0.94-0.78-1.55c-0.03-0.8-0.01-1.59-0.01-2.39c-0.13,0.04-0.26,0.07-0.39,0.11
		c-0.21-0.46-0.44-0.91-0.62-1.38c-0.08-0.21-0.04-0.66-0.11-0.67C-120.13,376.22-119.52,375.07-119.9,374.47z"/>
	<path fill="#FFFFFF" d="M348.24,500.13c0.03-0.48,0.08-0.95,0.08-1.43c0.01-7.32,0-14.64,0-21.96c0-0.47,0-0.95,0-1.5c46.36,0,92.61,0,139.04,0
		c0,0.45,0,0.92,0,1.38c0,7.36,0,14.72,0,22.08c0,0.48,0.05,0.95,0.07,1.43C441.04,500.13,394.64,500.13,348.24,500.13z"/>
	<path fill="#FFFFFF" d="M97.44,500.13c-0.03-0.48-0.1-0.95-0.1-1.43c0-51.62,0-103.25,0-154.87c0-0.48,0-0.96,0-1.53c6.99,0,13.92,0,20.98,0
		c0,52.61,0,105.22,0,157.82C111.36,500.13,104.4,500.13,97.44,500.13z"/>
	<path fill="#FFFFFF" d="M348.4,433.08c0-7.99,0-15.89,0-23.85c46.32,0,92.58,0,138.9,0c0,7.96,0,15.86,0,23.85
		C441,433.08,394.75,433.08,348.4,433.08z"/>
	<path fill="#FFFFFF" d="M348.42,343.26c46.36,0,92.58,0,138.87,0c0,7.96,0,15.86,0,23.84c-46.28,0-92.53,0-138.87,0
		C348.42,359.18,348.42,351.25,348.42,343.26z"/>
</g>
</svg>
