<?xml version="1.0" encoding="UTF-8"?>
<svg xmlns="http://www.w3.org/2000/svg" version="1.1" viewBox="0 0 595.28 841.89">
  <defs>
    <style>
      .cls-1 {
        fill: #FFFFFF;
      }
    </style>
  </defs>
  <!-- Generator: Adobe Illustrator 28.6.0, SVG Export Plug-In . SVG Version: 1.2.0 Build 709)  -->
  <g>
    <g id="Layer_1">
      <g>
        <path class="cls-1" fill="#FFFFFF" d="M350.64,420.61c.74.42,1.45.82,2.21,1.25-.59.34-1.13.64-1.67.96-.12.07-.19.02-.27-.03-1.12-.63-2.25-1.26-3.37-1.9-.35-.21-.35-.36.02-.58,1.05-.61,2.12-1.21,3.18-1.81,1.91-1.08,3.83-2.14,5.73-3.24,2.19-1.27,5.14-1.05,7.12.56,1.57,1.27,2.38,2.93,2.33,4.93-.08,3.17-2.48,5.55-5.42,5.95-1.55.21-2.95-.13-4.28-.9-.71-.41-1.43-.8-2.13-1.21-.08-.04-.22-.06-.2-.19.02-.11.16-.1.23-.16.4-.22.79-.44,1.17-.68.18-.11.34-.15.54-.03.39.23.8.44,1.19.67.84.49,1.73.88,2.7.82,3.21-.2,5.21-3.06,4.13-6-.6-1.66-2.41-2.8-4.09-2.82-1.32-.02-2.37.56-3.43,1.16-1.86,1.03-3.71,2.08-5.55,3.12-.03,0-.06.04-.15.11v.02Z"/>
        <path class="cls-1" fill="#FFFFFF" d="M352.85,416.76c-.59.34-1.12.63-1.65.94-.15.09-.22.03-.37-.03-.78-.41-1.48-.98-2.32-1.23-2.76-.83-5.47.6-5.94,3.51-.37,2.31,1.05,4.31,3.35,4.93,1.31.35,2.48.04,3.62-.63,1.05-.62,2.12-1.18,3.19-1.77,1.1-.61,2.19-1.24,3.32-1.87-.73-.42-1.44-.82-2.22-1.27.6-.35,1.17-.66,1.72-.98.12-.07.2.03.27.07,1.12.62,2.24,1.25,3.35,1.89.31.18.3.38-.03.57-1.32.75-2.65,1.5-3.98,2.25-1.64.92-3.26,1.87-4.91,2.78-1.5.84-3.1,1.1-4.77.65-2.45-.67-4.01-2.26-4.59-4.73-.58-2.45.73-5.29,2.9-6.5,2.43-1.35,4.76-1.12,7.07.29.63.36,1.3.72,2.01,1.12h-.02Z"/>
        <path class="cls-1" fill="#FFFFFF" d="M335,426.78c-2.49-2.59-4.89-5.1-7.3-7.61-.11.15-.06.29-.06.42v6.18c0,.29-.05.42-.37.4-.29-.03-.58-.02-.86,0-.19,0-.29-.03-.29-.25v-10.51c2.46,2.57,4.85,5.08,7.26,7.59.15-.13.08-.29.08-.44v-6.05c0-.34.05-.51.43-.45.35.05.81-.15,1.04.08.22.22.07.68.07,1.04v9.61h0Z"/>
        <path class="cls-1" fill="#FFFFFF" d="M315.16,415.89c2.66-.11,5.23,2.35,5.21,5.24-.02,2.83-2.36,5.06-5,5.2-3.01.16-5.79-2.22-5.55-5.69.16-2.36,2.38-4.86,5.35-4.75h-.01ZM315.11,417.36c-2.09-.24-3.78,1.85-3.78,3.71s1.52,3.98,4.12,3.83c1.92-.11,3.35-1.8,3.34-4.19,0-1.6-1.7-3.56-3.68-3.35h0Z"/>
        <path class="cls-1" fill="#FFFFFF" d="M261.88,421.16c.23,2.7-2.27,5.03-4.94,5.18-3.01.17-5.63-2.38-5.55-5.41.07-2.38,2.34-5.12,5.37-5.08,2.69.04,5.42,2.58,5.11,5.3h.01ZM256.58,424.87c1.86.22,3.89-1.47,3.84-3.85-.03-1.73-1.34-3.91-4.25-3.67-1.5.12-3.3,1.57-3.26,3.86.03,1.89,1.62,3.74,3.66,3.66h0Z"/>
        <path class="cls-1" fill="#FFFFFF" d="M275.08,421.12v4.62c0,.3-.03.46-.39.41-.36-.05-.84.16-1.08-.09-.22-.22-.06-.68-.06-1.05v-3.28c0-.26-.05-.35-.33-.35-1.24.02-2.48.02-3.71,0-.29,0-.32.11-.32.35v3.97c0,.32-.04.48-.41.43-.36-.05-.86.16-1.06-.1-.18-.22-.05-.69-.06-1.05v-8.55c0-.35.1-.46.43-.41.35.04.82-.15,1.04.07s.06.68.06,1.04c0,.85.02,1.7,0,2.55,0,.28.08.33.34.33,1.23-.02,2.44-.02,3.67,0,.29,0,.36-.09.35-.36-.02-1.1,0-2.19,0-3.28,0-.26.06-.36.34-.34.38.03.87-.11,1.12.08.23.18.07.7.07,1.07.02,1.31,0,2.62,0,3.93h0Z"/>
        <path class="cls-1" fill="#FFFFFF" d="M246.69,426.16c-.48,0-.93-.02-1.39,0-.3.02-.48-.08-.66-.34-.8-1.2-1.64-2.39-2.46-3.58-.08-.11-.17-.26-.34-.21-.18.05-.09.22-.09.33,0,1.14-.02,2.27,0,3.41,0,.34-.1.43-.41.39-.36-.04-.86.16-1.06-.1-.18-.22-.06-.69-.06-1.05v-8.54c0-.35.09-.44.43-.42,1,.04,2-.03,3,.17,1.09.22,2.12,1.23,2.19,2.45.07,1.23-.28,2.17-1.31,2.83-.16.1-.35.2-.54.23-.34.07-.27.18-.12.39.89,1.22,1.77,2.44,2.66,3.67.06.09.15.16.16.35v.02ZM241.75,419.11v1.37c0,.18.04.24.24.25.52,0,1.02-.05,1.5-.25.67-.27,1.01-.89.94-1.65-.06-.67-.58-1.06-1.12-1.23-.45-.14-.91-.05-1.36-.08-.2,0-.19.11-.19.24v1.34h-.01Z"/>
        <path class="cls-1" fill="#FFFFFF" d="M284.14,416.06h2.42c.27,0,.36.04.36.35q0,1.1-1.09,1.1c-.86,0-1.73.02-2.59,0-.34,0-.41.1-.4.41.03.56.02,1.12,0,1.68,0,.27.08.35.35.34h3.2c.34,0,.44.09.43.43-.02.98,0,.98-.98.98h-2.68c-.24,0-.32.06-.31.31.02.92.02,1.84,0,2.76,0,.29.1.33.35.32h3.37c.29,0,.35.08.35.36q0,1.1-1.08,1.1h-4.1c-.34,0-.4-.1-.4-.41v-9.33c0-.3.09-.38.38-.38.8.02,1.61,0,2.42,0v-.02Z"/>
        <path class="cls-1" fill="#FFFFFF" d="M229.17,421.11v-4.66c0-.29.06-.4.37-.39.94.03,1.89.02,2.83.09,1.17.1,2.42,1.37,2.41,2.48,0,.8,0,1.56-.53,2.24-.57.72-1.33,1.04-2.19,1.15-.33.04-.67.03-.99,0-.29-.02-.37.1-.37.38v3.41c0,.29-.09.38-.36.35-.38-.04-.89.16-1.11-.09-.19-.22-.07-.71-.07-1.08v-3.89h.01ZM230.69,419v1.38c0,.16,0,.27.22.27.51,0,1.02,0,1.51-.18,1.09-.39,1.19-1.88.51-2.49-.62-.54-1.36-.46-2.09-.53-.19-.02-.15.17-.15.29v1.25h0Z"/>
        <path class="cls-1" fill="#FFFFFF" d="M294.27,420.41v3.93c0,.29.05.4.37.39.76-.03,1.53,0,2.29-.02.25,0,.35.04.35.33.02,1.12.03,1.12-1.11,1.12h-3.07c-.35,0-.45-.15-.38-.44.06-.26.04-.51.04-.77v-8.5c0-.33.09-.43.41-.4.35.04.82-.15,1.04.07s.06.68.06,1.04c.02,1.08,0,2.16,0,3.24h0Z"/>
        <path class="cls-1" fill="#FFFFFF" d="M302.56,421.12v-4.71c0-.29.08-.38.35-.35.37.03.86-.16,1.08.07s.07.71.07,1.08v8.51c0,.35-.1.5-.46.45-.34-.04-.79.15-.99-.08-.21-.22-.06-.66-.06-1v-3.96h0Z"/>
      </g>
    </g>
  </g>
</svg>