<?xml version="1.0" encoding="UTF-8"?>
<svg xmlns="http://www.w3.org/2000/svg" version="1.1" viewBox="0 0 595.3 841.9">
  <!-- Generator: Adobe Illustrator 28.6.0, SVG Export Plug-In . SVG Version: 1.2.0 Build 709)  -->
  <g>
    <g id="Layer_1">
      <g id="Layer_1-2" data-name="Layer_1">
        <g>
          <path fill="#FFFFFF" d="M479.2,462.2v-80c6.6,0,13-.2,19.5.1,1.4,0,3,1.9,4,3.2,10.5,13.4,20.9,26.8,31.3,40.2,1.1,1.4,2.2,2.7,4.3,5.1v-48.3h20.5v80.1c-6.3,0-12.6.2-18.9-.1-1.4,0-3-1.8-4.1-3.1-10.6-13.5-21.1-27-31.6-40.6-1-1.3-2-2.6-3.9-5v48.4h-21.2.1Z"/>
          <path fill="#FFFFFF" d="M268,462.2v-32.2h-29.9v32.2h-20.7v-79.7h20.5v30.1h29.9v-30.1h20.9v79.7h-20.7Z"/>
          <path fill="#FFFFFF" d="M441.6,430.2c8.1,10.7,15.9,21,24.5,32.3-9,0-17,.1-25-.1-1,0-2.2-1.9-3-3.1-4.7-7.3-9.3-14.6-14-21.9-.9-1.3-1.8-2.6-3.6-5.2v30h-20.8v-79.3c13.5,0,26.8-.9,39.9.3,11.3,1,17.9,9.7,18.8,20.7,1,12.4-4,20.7-15.2,25.1-.4.2-.8.5-1.7,1.1h.1ZM420.8,417.9c5.6.1,11.5.7,14.4-4.7,1.4-2.7,1.4-7.5,0-10.1-2.9-5.4-8.9-4.4-14.3-4.9v19.8h-.1Z"/>
          <path fill="#FFFFFF" d="M386.1,462.6c-7.4,0-13.8.2-20.2-.2-1.2,0-2.8-2-3.4-3.5-4.2-10.1-4.1-10.1-14.9-10.1s-9,.2-13.5,0c-3.1-.2-4.7.8-5.9,3.8-4,10.1-4.1,10-15,10h-10.8c.7-2.2,1.2-3.9,1.8-5.5,9-23.5,18.1-46.9,26.9-70.4,1.3-3.6,3.1-4.9,6.9-4.6,5.9.5,13.2-1.5,17.4,1.3,4,2.7,4.8,10.2,6.8,15.6,7.8,20.8,15.6,41.7,23.8,63.6h.1ZM344.9,408.5c-.3,0-.7.1-1,.2-2.6,7.7-5.2,15.4-7.8,23.3h16.7c-2.7-8.2-5.3-15.8-7.8-23.5h-.1Z"/>
          <path fill="#FFFFFF" d="M768.1,387c-2.6,5.1-5.3,10.2-8,15.5-2.9-1.4-5.5-3.1-8.2-3.7-3.1-.7-6.7-1-9.7-.2-1.9.5-4.4,3.1-4.6,5-.2,1.8,1.9,4.2,3.5,5.8,1.1,1.1,2.9,1.5,4.5,2,2.2.8,4.5,1.4,6.7,2.1,13.7,4.4,19.5,11.2,19.2,22.7-.4,14.5-7.1,23.5-20.6,27.1-14,3.7-26.6.1-38.8-7.7,3-5.7,5.8-11,8.7-16.5,3.6,2.1,6.6,4.8,10.1,5.7,4.3,1.1,9.1,1.5,13.5.9,2-.3,4.6-3.8,4.8-6,.2-2.1-1.9-5.3-3.9-6.6-3.2-2-7-2.9-10.7-4-15-4.5-20.4-11.2-19.4-23.7,1.2-14.5,10.1-23.7,24.3-25.3,8.5-1,21.3,2.1,28.5,6.9h.1Z"/>
          <path fill="#FFFFFF" d="M697.6,386.5c-3,5.8-5.7,10.9-8.1,15.4-4.6-1.5-8.6-3.2-12.8-4-2.1-.4-4.7.2-6.7,1.2-4.8,2.4-4.9,7.4-.3,10.1,2,1.2,4.2,1.9,6.4,2.7,1.7.6,3.5,1.1,5.2,1.6,14.3,4.6,19.4,10.8,19.1,23.7-.3,13.6-7.1,22.5-20.5,26-14,3.7-26.5.1-38.8-7.7,3-5.8,5.9-11.2,8.7-16.5,3.8,2.2,7.1,4.5,10.7,6,2.7,1.1,5.8,1.7,8.7,1.6,4.4,0,8.4-1.7,9.2-6.7.8-4.9-2.8-6.8-6.5-8.2-3.6-1.4-7.3-2.4-10.9-3.6-11.6-3.8-16.1-8.9-16.6-18.6-.7-12.7,4.3-22.3,14.4-26.8,13.2-5.9,25.6-2.2,38.5,3.6l.3.2Z"/>
          <path fill="#FFFFFF" d="M580.6,462.2v-79.7h45.2v17.5h-24v13.2h22.6v17.8h-22.7v13.6h23.8v17.6h-45.1.2Z"/>
          <path fill="#FFFFFF" d="M183.9,395.4v-43.5h9.8v110.4h-9.7v-13.1c-11.5,12.3-24.3,17.3-39.6,14.7-9.8-1.7-17.7-6.7-23.9-14.3-14-17.1-12.9-41.6,2.7-57.3,8.4-8.5,18.8-12.4,30.7-12,9.4.3,13.7,2.5,30,15.2h0ZM119.3,422.1c-1.2,10.6,5.2,17,12.1,23.2,3.1,2.8,5.8,6.9,9.4,8,10.5,3.2,21.3,5.1,29.7-5.6,4.1-5.2,10.9-9.2,13-15,4.2-11.7,3.6-23.5-8.5-31.6-4.3-2.9-7.6-8.1-12.2-9.5-11.1-3.3-22.5-4.6-30.4,7.5-3.2,5-10.2,6.9-11.4,13.7-.6,3.1-1.1,6.2-1.6,9.3h-.1Z"/>
          <path fill="#FFFFFF" d="M-4.7,449.6v42h-10.1v-109.2H-4.9v14.2c11.1-13.4,24-18.4,39.7-15.6,10.3,1.9,18.5,7.4,24.8,15.6,13.3,17.2,11.1,42.4-4.9,57.2-16.8,15.5-39.3,14.2-59.4-4.2h0ZM42.2,450.8c.2.4.4.7.6,1,2-1.2,4.2-2.2,5.9-3.7,11.3-9.8,13.6-21.7,7.3-37.5-1.3-3.3-1.9-7.3-4.2-9.6-8.2-8.3-17.2-14.6-29.9-8.9-4.9,2.2-11.2,2.2-15,5.4-4.7,4-8,10-10.9,15.6-2.2,4.5-2.5,9.3.6,14.5,2.3,3.8,1.1,10,3.6,13.5,3.5,4.8,8.7,8.6,13.8,11.7,4.4,2.7,9.5,4,15.1,1.4,4-1.8,8.6-2.2,12.9-3.3h.2Z"/>
          <path fill="#FFFFFF" d="M-47,395.7v-13.6c2.7,0,5.2-.4,7.5.1,1.2.3,3,2.1,3,3.2.2,24.6.2,49.3,0,73.9,0,1.1-1.9,2.8-3.1,3.1-2.2.5-4.5.1-7.3.1v-13.3c-11.7,12.7-25.1,17.5-40.8,14.3-10.2-2.1-18.2-7.9-24.3-16.3-12.8-17.5-10-42.2,6.1-56.6,17.4-15.5,38.4-13.9,58.9,4.9v.2ZM-78.5,390c-10.8-1.6-17.1,5.5-23.2,13.2-2.3,2.9-6,5.3-6.9,8.5-3.2,11-5,22,6.4,30.3,4,2.9,6.3,8.8,10.6,10.6,10.6,4.6,21.7,6.2,31-3.8,4.1-4.4,10.4-7.5,12.6-12.6,4.6-10.7,5.8-21.6-4.5-31.2-7.6-7.1-13.4-16.3-26-14.9h0Z"/>
          <path fill="#FFFFFF" d="M-149.2,462.3h-10.6v-79.9h9.9c.2,3.3.4,6.5.6,10.1,13.8-13,20.2-15,29.5-9.1-1.3,2.1-2.4,4.3-3.9,6.2-.7.9-2.4,1.5-3.5,1.3-7.7-1.5-12.9,2.2-16.7,8.3-4.6,7.4-5.1,15.7-5.2,24.1-.1,12.8,0,25.6,0,39h0Z"/>
          <path fill="#FFFFFF" d="M94.4,462.6h-5.8c-1.3,0-2.6-.2-4.2-.3v-79.7h10v80.1h0Z"/>
          <path fill="#FFFFFF" d="M89.8,349.6c4.8.1,8.5,3.9,8.4,8.6-.2,4.6-4.1,8.4-8.8,8.3-4.6,0-8.5-4.1-8.3-8.8,0-4.7,4-8.3,8.8-8.2h0Z"/>
          <path fill="#FFFFFF" d="M152.4,446.9c-13.8,0-25.3-11.2-25.1-24.4.2-13.4,11.6-24.3,25.4-24.3s24.9,10.9,24.9,24.5-11.1,24.2-25.2,24.2h0ZM152,410.9c1.4-2,2.8-3.2,2.8-4.4s-2.1-2.7-2.8-2.5c-1.2.3-2.6,1.8-2.9,3-.2.8,1.4,2.1,2.9,3.9ZM152.7,426.8c1.3-2.1,2.9-3.4,2.7-4.5-.2-1-2.1-2.3-3.4-2.4-.8,0-2.5,1.9-2.4,2.8.1,1.2,1.6,2.3,3.1,4.2h0ZM157.3,438.2c-1.9-1.5-3-3.2-3.9-3-1.3.2-2.3,1.7-3.4,2.7.9,1,1.7,2.8,2.7,2.9,1.2,0,2.5-1.3,4.6-2.6h0ZM143.7,431.1c-1.7-1.4-2.8-3.1-3.7-2.9-1.3.2-2.3,1.7-3.4,2.7,1.1,1,2,2.6,3.3,2.9.9.2,2.1-1.4,3.9-2.6h-.1ZM143.3,414.6c-2-1.4-3.2-2.9-4.4-2.9s-2.9,2-2.7,2.6c.4,1.2,1.7,2.7,2.9,3,.8.2,2.1-1.3,4.1-2.7h0ZM172.4,422.3c-1.8-1.5-3-3.2-3.9-3-1.3.2-2.3,1.7-3.5,2.7.9,1,1.8,2.8,2.7,2.8s2.5-1.3,4.6-2.5h0Z"/>
          <path fill="#FFFFFF" d="M28.2,397.9c13.4,0,23.9,10.7,23.8,24.2,0,14.1-11.5,25.8-25.2,25.7-13.2,0-23.8-11-23.8-24.4s11.3-25.5,25.2-25.5h0ZM39.2,409.2c-1.8-1.5-3-3.2-3.8-3-1.2.2-2.7,1.6-3.2,2.8-.2.6,1.5,2.8,2.4,2.8s2.5-1.3,4.5-2.6h0ZM17.8,415.4c-1.7-1.5-2.9-3.2-3.7-3.1-1.2.2-2.7,1.6-3.1,2.8-.2.7,1.5,2.9,2.3,2.9,1.3,0,2.5-1.3,4.5-2.6h0ZM31.6,422.8c-1.8-1.4-3.1-3-3.8-2.9-1.2.3-2.7,1.7-3.1,2.9-.2.7,1.6,2.8,2.5,2.8s2.4-1.4,4.4-2.8ZM17.8,430c-1.9-1.3-3.2-3-4-2.7-1.2.3-2.5,1.8-2.9,3.1-.2.7,1.7,2.7,2.5,2.6,1.3-.1,2.4-1.5,4.3-3h0ZM28.3,433.8c-1.5,2-2.9,3.2-3,4.4,0,.9,1.6,2,2.5,2.9,1-1,2.7-1.9,3-3.1.2-.9-1.2-2.2-2.5-4.2h0ZM40.7,425.9c-1.2,2.1-2.6,3.4-2.5,4.6,0,.9,1.8,1.8,2.9,2.7,1-1.1,2.5-2.2,2.7-3.4,0-.9-1.5-2.1-3-3.9h-.1Z"/>
          <path fill="#FFFFFF" d="M-53.7,423c0,14-10.7,24.9-24.4,24.9s-24.1-11.1-24.1-25.2,11.1-25.1,24.4-25c13.5.2,24.1,11.3,24,25.4h0ZM-73.7,422.7c-1.9-1.3-3.3-2.9-4.1-2.7-1.2.4-2.6,1.8-2.9,3-.2.6,1.8,2.7,2.7,2.6,1.2,0,2.4-1.5,4.3-3h0ZM-65.9,436c-1.7-1.4-2.9-3-3.8-2.8-1.2.3-2.2,1.9-3.3,2.9,1.1,1,2.1,2.6,3.3,2.8.8.2,2-1.5,3.8-2.8h0ZM-77.6,411.5c1.2-2.2,2.5-3.5,2.4-4.7,0-1-2.1-2.8-2.7-2.5-1.2.4-2.8,1.9-2.9,3,0,1,1.6,2.2,3.1,4.3h0ZM-89.7,422.5c-1.8-1.2-3.1-2.8-3.9-2.5-1.2.4-2.1,2-3.1,3,1.2,1,2.2,2.5,3.5,2.7.8.1,1.9-1.6,3.5-3.2ZM-58.4,422.5c-1.9-1.3-3.3-2.8-4.1-2.6-1.2.4-2.6,1.9-2.8,3.2,0,.7,1.9,2.7,2.8,2.6,1.3-.2,2.3-1.7,4.1-3.2ZM-86.5,440.4c1.5-2,3.1-3.2,2.9-4.1-.3-1.3-1.8-2.2-2.8-3.4-1,.9-2.7,1.9-2.7,2.8s1.3,2.5,2.6,4.6h0Z"/>
        </g>
      </g>
    </g>
  </g>
</svg>