<?xml version="1.0" encoding="UTF-8"?>
<svg xmlns="http://www.w3.org/2000/svg" version="1.1" viewBox="0 0 595.3 355">
  <!-- Generator: Adobe Illustrator 28.6.0, SVG Export Plug-In . SVG Version: 1.2.0 Build 709)  -->
  <g>
    <g id="Layer_1">
      <g id="Layer_1-2" data-name="Layer_1">
        <g>
          <path fill="#FFFFFF" d="M248.4,278.2c-2.1-.5-3.9-1-5.8-1.5-20.9-5.4-34.3-22.4-33.9-44.2.4-26,19.4-41.7,38.9-44.4,15.4-2.1,29.7.7,42,10.7.5.4,1,.9,1.7,1.5-4.7,5.7-9.4,11.3-14.2,17.1-1.5-1.1-2.8-2.1-4.3-3-8.1-5.1-16.8-7.2-25.9-3.1-10.5,4.7-15.7,17.2-12.4,29.1,3.1,11.5,13.1,18.2,25.4,16.9,3.3-.3,6.4-1.6,9.6-2.5,1.3-.4,1.8-1.2,1.7-2.7-.1-2.8,0-5.6,0-8.7h-17.2v-17.8h40.3c0,.7.1,1.4.1,2v35.3c0,1-.6,2.4-1.3,3-8.5,6.6-18,10.7-28.8,12.2-5.2.2-10.4.2-15.8.2h-.1Z"/>
          <path fill="#FFFFFF" d="M0,97.2c13.4-.2,26.8-.3,40.2-.2,6.1,0,12.1,1,17.7,3.6,10.1,4.7,15.9,14.9,15.1,26.1-.7,10.5-5.3,18.4-14.7,23.3-.3.2-.5.4-.9.7,6.4,9.3,12.7,18.5,19.2,28-.6.1-1,.2-1.4.2h-25.2c-.9,0-2.2-.8-2.8-1.6-4.5-6.5-8.9-13-13.1-19.7-1.3-2.1-2.7-3.1-5.2-2.7-1.3.2-2.7,0-4.3,0v24H.3c-.3-27.2-.3-54.3-.3-81.7M24.5,124v11.1h12.9c1.8,0,3.6-.2,5.3-.7,3.7-1,5.7-3.9,5.7-7.6s-2.1-7.1-6-7.6c-5.9-.7-11.8-.7-17.9-1v5.7h0Z"/>
          <path fill="#FFFFFF" d="M124.4,95.4c2.8.6,5.5,1.2,8,2,19.1,5.6,31.1,22.7,30.3,42.9-.8,18.6-14.8,35-33.4,39.1-20.1,4.4-40-3.9-49.3-20.5-14-24.9.5-56.5,28.6-62.3,1.2-.2,2.4-.4,3.6-.8,4-.2,8-.2,12.2-.2M137.4,142.7c0-2.6.4-5.3,0-7.9-1.3-11-11.2-18.5-22.1-16.7-9.6,1.5-15.9,9.9-15.6,20.7.3,10.2,7.4,18.2,17.1,19.4,9.4,1.1,17.8-5,20.5-15.4h.1Z"/>
          <path fill="#FFFFFF" d="M215,95.4c4.3,1.2,8.4,2.1,12.3,3.6,7.2,2.8,12.4,8,17,14.4-6.1,4.8-12.2,9.5-18.4,14.2-1.4-1.5-2.6-2.9-4-4.3-5.4-5.1-11.8-6.9-18.9-4.4-7.4,2.6-11,8.5-11.8,16-.3,3.2,0,6.6.8,9.6,3.8,13.6,19.4,17.8,29.8,8.2,1.6-1.5,3.1-3.2,4.7-4.9,6.1,4.4,12.2,8.7,18.3,13.1-10,16.6-31.3,23.8-50.9,17.4-18.6-6.1-29.9-24.2-28-44.6,1.8-19.9,16.6-35.2,36.4-38.1,4.2-.2,8.3-.2,12.7-.2h0Z"/>
          <path fill="#FFFFFF" d="M595.3,238.4c-.6,0-1.2-.2-1.7-.6-10-7.4-19.9-14.8-29.8-22.3-1-.7-1.8-1.8-2.2-2.9-8.9-25-17.7-49.9-26.5-74.9-.2-.6-.4-1.3-.7-2.3,15.3,2.5,30.3,5,45.4,7.5,1.5,9.3,3.1,18.6,4.6,27.9,3.4,20.9,6.8,41.7,10.2,62.6,0,.7.2,1.4.5,2.1.2,1,.2,1.8.2,2.9h0Z"/>
          <path fill="#FFFFFF" d="M0,189.4c0-.2.2-.2.4,0,0,29.2,0,58.2,0,87.2H0c0-28.9,0-57.9,0-87.2Z"/>
          <path fill="#FFFFFF" d="M493.8,277c-2.4,0-5.2.6-6.5-.4s-1.2-3.9-1.6-6c-4.2-24-8.4-48.1-12.6-72.1-1.3-7.3-2.5-14.7-3.9-22-.4-2,0-3.5,1.2-5.2,10.1-13.2,20.2-26.4,30.2-39.7.9-1.2,1.7-1.6,3.4-1.3,6.9,1.3,13.8,2.3,20.8,3.4,1.8.3,2.8.9,3.4,2.8,9,25.7,18.1,51.4,27.2,77.1.6,1.7.5,3-.4,4.5-10.9,18.8-21.9,37.6-32.7,56.4-1.2,2-2.4,2.6-4.6,2.6-7.9-.1-15.8,0-23.9,0h0Z"/>
          <path fill="#FFFFFF" d="M319.4,166.9c2.8,4,5.4,7.9,8.3,12.1h-18.6c-3.7,0-7.9,1-10.8-.5-2.8-1.5-4.3-5.6-6.3-8.6-4.4-6.4-8.7-12.9-13.3-19.6-2.2,2.4-4.3,4.6-6.2,7-.5.6-.6,1.7-.6,2.6v18.9h-24.3v-81.7h24.2v30c2-2.2,3.5-4,5-5.8,6.5-7.6,13-15.3,19.5-22.9.7-.8,1.9-1.4,3-1.4,14.8,0,29.7,0,44.5,0,1.5,0,2.3.6,2.9,1.8,4.7,8.5,9.5,17,14.5,25.8.6-1.1,1.2-1.9,1.7-2.8,4.4-7.7,8.8-15.5,13.3-23.2.4-.8,1.6-1.5,2.4-1.5,8.5,0,17,0,25.8,0-.4.8-.7,1.4-1.1,2-9.5,15.5-19,30.9-28.3,46.5-1,1.6-1.5,3.6-1.5,5.5-.2,8.4,0,16.8,0,25.2v2.6h-24.5v-13.6c0-3.3-.2-6.7,0-10,.4-4.7-1-8.7-3.5-12.7-7.8-12.3-15.2-24.8-22.8-37.2-.4-.6-.7-1.1-1.3-2-8.6,9.8-17.1,19.4-25.7,29.2,7.9,11.5,15.7,22.9,23.6,34.4h.1Z"/>
          <path fill="#FFFFFF" d="M.8,276.7c-.2-29-.3-58-.2-87.2,15-.2,30-.4,45-.2,8.3.2,16.2,2.4,22.9,7.8,12.8,10.3,13.4,36.8-4.1,46.7-1.4.8-2.8,1.5-4.4,2.4,6.9,10,13.7,20,20.6,30.2-.8,0-1.5.2-2.1.2h-23.9c-1.4,0-2.3-.4-3.1-1.6-5.1-7.7-10.2-15.4-15.3-23.1-.8-1.3-1.7-1.9-3.3-1.8-2.6.1-5.3,0-8.3,0v26.5H.8M27.1,210.3h-2.4v20.6c6.3,0,12.5.3,18.6,0,6.1-.3,9.8-4.3,10-9.9.2-5.5-2.9-9.4-9.1-10.1-5.5-.6-11.1-.4-17.2-.5h0Z"/>
          <path fill="#FFFFFF" d="M191.7,201.3c8.6,7.9,12.5,17.8,12.9,29.2.5,16.4-5.4,29.6-19.6,38.5-8,5-17,7.3-26.4,7.5-12.3.3-24.5,0-37,0v-87.2s.3-.2.5-.2c12.4,0,24.9-.3,37.3.1,11.9.4,22.9,3.7,32.2,12M161.9,211.3c-5.3-.2-10.5-.5-15.9-.8v44.8c5.7-.3,11.2-.2,16.7-1.1,6.3-1,11.5-4.3,14.6-10.3,7.2-13.8.4-28.6-15.3-32.7h-.1Z"/>
          <path fill="#FFFFFF" d="M331.6,256h41.8v20.4h-71.1v-87.2h71.2v20.5h-47v13.2h41.6v19.2h-41.7v13.9h5.2Z"/>
          <path fill="#FFFFFF" d="M463.7,179.6c4,22.6,7.9,45.1,11.8,67.5,1.6,9.2,3.2,18.4,4.8,27.6.1.7.1,1.3.2,2.3h-16.6c-.7,0-1.5-.9-2-1.7-10.7-17.8-21.4-35.7-32.1-53.5-5-8.4-10-16.8-15-25.1-.4-.7-.8-1.4-1.4-2.4,16.6-5.8,33-11.5,49.6-17.2.2,1,.3,1.8.5,2.7l.2-.2Z"/>
          <path fill="#FFFFFF" d="M484.4,111c4.2,5.2,8.2,10.3,12.4,15.7-3.9,5.2-7.9,10.4-11.8,15.7-6.6,8.7-13.2,17.5-19.9,26.2-.7.9-1.8,1.9-2.9,2.3-14.9,5.3-29.8,10.5-44.8,15.7-.4.1-.8.2-1.9.5,21.5-27.7,42.6-54.9,63.9-82.3,1.7,2.1,3.3,4.2,5.1,6.4v-.2Z"/>
          <path fill="#FFFFFF" d="M97.8,276.7h-10.8v-87.4h24.2v87.4s-13.4,0-13.4,0Z"/>
          <path fill="#FFFFFF" d="M554.6,230.8c2-3.4,3.9-6.7,5.9-10.2,11.4,8.5,22.6,16.9,34.1,25.4-5.2,6.8-10.2,13.5-15.3,20.1-2.4,3.1-4.7,6.3-7.2,9.4-.6.7-1.6,1.3-2.5,1.3h-40.4c-.2,0-.5,0-1.2-.2,8.9-15.4,17.7-30.5,26.6-45.9h0Z"/>
          <path fill="#FFFFFF" d="M575.2,135.6c-5.1-.7-10.3-1.4-15.4-2.2-18.3-3-36.6-6.1-55-9.1-1.8-.3-3.1-1-4.2-2.5-5.1-6.6-10.3-13-15.7-19.9,4.8-.4,9.1-.9,13.5-1.3,13-1.2,25.9-2.2,38.9-3.5,2.9-.3,4.8.4,6.8,2.7,10.3,11.9,20.8,23.7,31.2,35.7,0,.2,0,.1,0,.1h0Z"/>
          <path fill="#FFFFFF" d="M575.2,135.6s.2.1.3.2h-.3c0-.1,0,0,0,0v-.2Z"/>
        </g>
      </g>
    </g>
  </g>
</svg>