<?xml version="1.0" encoding="UTF-8"?>
<svg xmlns="http://www.w3.org/2000/svg" version="1.1" viewBox="0 0 108 26.4">
  <!-- Generator: Adobe Illustrator 28.6.0, SVG Export Plug-In . SVG Version: 1.2.0 Build 709)  -->
  <g>
    <g id="Layer_1">
      <g>
        <path fill="#FFFFFF" d="M28.2,13.2c-.3.8-.6,1.5-1.3,2.1-.7.6-1.6,1-2.5,1-1.5.1-2.7-.6-3.7-1.7-.4-.5-.6-1.1-.7-1.7-.1-.5,0-.9.1-1.4.1,0,.1-.1,0-.1,0-.3.1-.6.1-.9h.1s0-.1-.1-.1c.1-.5,0-1,0-1.5.1-.1.1-.2-.1-.3-.1-1.6-.8-2.7-1.9-3.6-1-.8-2.2-1.2-3.4-1.4-.7,0-1.4-.2-2.1,0h-.3c.2-.3.5-.4.8-.5.5-.2,1-.3,1.4-.4.4,0,.7-.2,1.1-.2.7,0,1.3,0,2,0,1.2,0,2.3.1,3.3.5.6.2,1.3.4,1.9.7.7.4,1.3.8,1.9,1.3.9.7,1.5,1.7,2.2,2.6.1,0,.1.3.3.3s0,.2,0,.3c.4.7.7,1.5.9,2.3.2.7.3,1.4.1,2.2,0,.2-.2.4,0,.6Z"/>
        <path fill="#FFFFFF" d="M17.4,8.1c.1,1.9-1.1,3.3-2.7,3.9-1.2.4-2.3,1-3.3,1.8-.9.7-1.4,1.6-1.6,2.7-.1.7-.1,1.4,0,2.1.1.5.1,1.1.2,1.6.2.6.4,1.2.8,1.7.1.1.2.3.3.4,0,.1.1.1,0,.2s-.1,0-.2-.1c-.7-.4-1.2-1-1.7-1.6-.7-.8-1.5-1.8-1.9-2.9-.3-.8-.6-1.6-.7-2.5,0-.8-.3-1.7-.3-2.5,0-1.2.3-2.3.7-3.5.3-.8.7-1.6,1.2-2.3.6-.8,1.4-1.5,2.3-2.1.7-.5,1.4-.8,2.2-.9.7,0,1.4,0,2,.2,1.1.5,2,1.3,2.4,2.4.2.5.3,1,.3,1.4Z"/>
        <path fill="#FFFFFF" d="M17.4,24.4c-.7,0-1.4-.1-2-.2-1.2-.3-2.3-.8-3.2-1.7-.6-.5-.9-1.2-1.1-1.9-.4-1.7.1-3,1.4-4.1.6-.5,1.2-.9,2-1,1-.2,1.9,0,2.8.6.4.3.9.7,1.3,1,.5.3,1,.7,1.6,1,.6.2,1.2.5,1.8.5s.7,0,1-.1c.1-.1.2,0,.4,0,1.4-.3,2.5-1,3.4-2,.5-.5,1-1.1,1.3-1.8.1-.2.1-.5.3-.7h.1s.1,0,.1,0c0,.3-.1.5-.1.7-.2.7-.3,1.5-.6,2.2-.5,1.3-1.2,2.5-2.2,3.5s-2,2-3.3,2.6c-.6.3-1.2.5-1.8.7-.8.2-1.5.3-2.3.5-.3.1-.6.1-.9.1Z"/>
        <path fill="#FFFFFF" d="M62.5,21.2h-2.9c0,0-.3.1-.3-.2s.2-.1.3-.1c.3,0,.4-.1.3-.4,0-.3-.2-.5-.3-.7,0-.1,0-.2-.2-.1h-1.1c-.2,0-.3.1-.3.3s-.2.4-.2.6c0,.3,0,.4.3.5h0c0,0,.2,0,.2.1,0,.2,0,.2-.3.2h-2.8c-.2,0-.3-.1-.4-.3,0-.4-.2-.9-.4-1.2-.2-.3-.4-.6-.9-.6s-.2,0-.2.2v1.3c0,.2.2.3.4.4h.2c0,0,.2,0,.2.2s0,.1-.2.1h-2.1c0,0-.2,0-.2-.2s0-.1.2-.1c.5,0,.5-.1.5-.6v-3c0-.3,0-.5-.4-.5s-.2-.1-.2-.1c0,0,0-.1,0-.2,0-.1,0-.1,0-.1h2.6c.3,0,.6.1.9.3.4.2.5.5.5.9s-.3.7-.6.8c0,.1-.3.1-.4.2,0,0,0,.1,0,.2s0,.1,0,.1c.6.3.9.8,1.1,1.4,0,.2.2.5.5.5s.7-.1.9-.5c.2-.6.5-1.2.7-1.9.2-.6.5-1.2.7-1.8,0-.2,0-.3.3-.3s.3.1.4.3c.4,1.2.9,2.4,1.3,3.5.2.6.7.8,1.3.6.2-.1.3-.1.3-.4v-3.4c0-.2,0-.3-.3-.3h-.2c-.2,0-.2-.1-.2-.2s0-.1.2-.1h2c0,0,.2,0,.2.1s0,.2-.2.2q-.5.1-.5.5v2.9c0,.5.3.8.8.6h.3c.4.1.6-.1.8-.5,0-.2.2-.5.3-.7,0-.1,0-.1.2-.1s0,.1,0,.2c0,.4,0,.8,0,1.2s0,.3-.3.3c-1,0-2,0-3,0ZM53.6,18.7c.2,0,.3-.1.4-.1.6-.2.8-.4.7-1,0-.6-.5-1-1.1-.8q0,0,0,.1c0,.6,0,1.2,0,1.8ZM58.6,19.3c.2,0,.4-.1.6-.1s.2-.1.2-.2c0-.4-.3-.8-.4-1.2,0-.1,0-.2,0-.2s0,.1-.2.2c0,.4-.3.7-.4,1.1-.2.4,0,.4.3.4Z"/>
        <path fill="#FFFFFF" d="M72.4,8.7c0-.4-.3-.5-.6-.6,0,0-.2,0-.2-.2s.2,0,.2,0h2.2c0,0,.2,0,.3,0,0,.1,0,.1,0,.2,0,.1,0,0-.2,0-.5,0-.6.2-.6.7v2.9c0,.4.2.8.6,1,0,.1,0,0,.2,0h.5c.9.1,1.3-.6,1.3-1.3v-2.4c0-.2,0-.4,0-.5,0-.2,0-.3-.4-.3h0c-.2-.1-.5-.1-.4-.4,0-.2.3,0,.5,0,.6,0,1.3,0,1.9,0,1.3,0,2.5,0,3.8,0h.9c0,0,.2,0,.2.2h0v1.3c0,.1,0,.2,0,.3,0,0-.2-.1-.2-.2-.1-.3-.2-.5-.3-.7-.2-.3-.6-.4-.9-.4s-.2,0-.2.2v4.2c0,.3.3.5.7.6h.2c0,.3-.3.2-.5.2h-2.3c0,0,0-.1,0-.2s0-.1.2-.1h.2c.4,0,.5-.2.5-.6v-4c0-.2,0-.3-.3-.3-.5,0-.9.3-1.1.9-.2.1-.2.4-.5.4s0-.3,0-.5v-.9c0-.1,0-.3-.2-.1,0,.1-.2.2-.4.2-.4.1-.5.4-.5.8v2.3c0,.3,0,.6,0,.9-.2.7-.8,1-1.4,1.2-.9.3-2.2-.3-2.5-1.1,0-.3-.2-.6-.2-.9v-2.4c.2,0,.2-.1,0-.3Z"/>
        <path fill="#FFFFFF" d="M49.2,12.8v-3.5c0-.1,0-.2,0-.2,0-.3-.2-.6-.6-.6s0,0-.2-.1c0,0,0,0,0-.2s0,0,0,0h2.5c0,0,.2,0,.2.2s0,0-.2,0c-.5.1-.6.2-.6.6v3.3h0c0,.3,0,.6,0,.7.3.2.6.3,1,.2.7-.1,1-.5,1.1-1.1,0-.1.2-.3.2-.4s0-.1.2-.1,0,.1,0,.2c0,.1,0,.2,0,.3,0,.4,0,.8,0,1.2s0,.2-.3.2h-4.7c-.4,0-.8-.1-1.1,0h-1c0,0-.2,0-.2-.1s0-.2.2-.2h0c.5,0,.6-.1.4-.6,0-.3-.2-.5-.3-.8,0-.1-.2-.2-.3-.2h-1.3q0,0-.2.1c-.2.3-.3.7-.4,1.1q0,.1,0,.2c.2.1.4.2.7.2s.2-.1.2.1,0,.1-.2.1h-1.9c0,0-.2,0-.2-.1s0-.1,0-.2c0,0,0-.1.2-.1.4,0,.6-.3.7-.6.2-.6.4-1.2.6-1.8.3-.8.6-1.7,1-2.5,0-.2.2-.2.4-.2s.3,0,.4.3c.2.5.4,1.1.6,1.6.3.9.6,1.7.9,2.6.3.8.8.8,1.4.6.5.2.6,0,.6-.2h0ZM45.2,11.4h.4q.3,0,.2-.3c-.2-.4-.3-.8-.5-1.3,0-.1,0-.2,0-.2s0,.1-.2.2c-.2.4-.3.8-.5,1.2q0,.4.3.4c.2,0,.3,0,.4,0Z"/>
        <path fill="#FFFFFF" d="M68.2,21.2h-1.8c0,0-.3,0-.3-.2s.2-.1.3-.1c.3,0,.5-.1.5-.4v-3.4c0-.2,0-.3-.3-.3s-.2,0-.3-.1q0-.1,0-.2c0-.1,0-.1.2-.1h2c0,0,.2,0,.2.1s0,.2-.2.2q-.5.1-.5.5v3.1c0,.5,0,.6.6.5h0c.7,0,.8-.1,1-.8.2-.7.5-1.4.8-2.1,0-.3.2-.5.3-.8,0-.2,0-.4.2-.5.2-.3.5-.2.6.1.3.9.7,1.8,1,2.7,0,.4.3.8.5,1.2s.2.3.5.3.3,0,.2.2c0,.2-.2.1-.3.1h-1.9c0,0-.3.1-.3-.2s0-.1.2-.1q.5,0,.4-.5t-1-.8h-.3c-.5,0-.6.1-.7.5h0q0,.7.5.7c0,0,.2,0,.2.1s0,.2-.2.2h-.3c-.6,0-1.2,0-1.8,0ZM71.3,19.2c-.2-.5-.4-1-.5-1.5,0-.1,0-.1,0,0s-.2.2-.2.4c0,.4-.2.7-.4,1,0,.2,0,.2,0,.2.3-.1.7,0,1-.1,0,0,0,0,0,0Z"/>
        <path fill="#FFFFFF" d="M63.4,13.6c-.7-.1-1.4-.4-2-1-.5-.5-.6-1.2-.6-1.9s0-.9.2-1.2c.2-.5.6-1,1.1-1.3.6-.3,1.2-.5,1.9-.3.8.2,1.5.6,1.9,1.4.2.3.2.6.3.9,0,.5,0,1,0,1.5,0,.4-.3.8-.7,1.1-.4.4-.9.6-1.4.8-.2,0-.4-.1-.6,0ZM62.1,10.8c0,.4,0,1,.3,1.5.2.4.4.7.9.8s.9-.1,1.2-.6.3-1,.4-1.6v-1.2c0-.4,0-.8-.4-1.2-.5-.5-1.5-.7-2,.2-.3.6-.4,1.3-.4,2.1Z"/>
        <path fill="#FFFFFF" d="M88.9,13.6c-1.4,0-2.4-1-2.7-2.1-.2-.7,0-1.4.2-2,.3-.7.9-1.3,1.8-1.5,1-.3,1.9,0,2.6.7.5.4.7,1,.8,1.6,0,.8,0,1.4-.4,2.1-.3.4-.7.8-1.1.9-.5.1-.8.4-1.2.3ZM90.3,10.5c0-.2,0-.5,0-.7,0-.5,0-.9-.4-1.2-.4-.5-1.5-.8-1.9.1-.2.5-.4.9-.4,1.5s0,1.5.3,2.2c.2.4.5.8,1,.8s1.1-.3,1.3-.9c0-.6.2-1.1.2-1.8Z"/>
        <path fill="#FFFFFF" d="M92.9,9.2h0c0-.6,0-.7-.5-.8-.2-.2-.5-.2-.4-.4,0-.2.3-.2.5-.2h1c.2,0,.4,0,.5.3.6.8,1.1,1.5,1.7,2.3.2.3.5.6.7.9q0,.1,0,.1c0,0,0-.1,0-.2v-2c0-.6-.2-.8-.7-1,0,0-.3-.1-.2-.2,0-.2.2,0,.3,0h1.6c0,0,.3,0,.3,0,0,.2-.2.2-.3.2-.3.1-.6.3-.6.6v4.2c0,.2,0,.3-.2.3-.2,0-.3,0-.4-.1-.9-1.3-1.9-2.5-2.7-3.8,0-.1,0-.2-.2-.3v3.3c0,.3,0,.5.5.6,0,0,.3.1.4.2,0,0,0,.1,0,.2s0,.1,0,.1h-2c0,0-.2-.1-.2-.2s0-.1.2-.1c0-.1.2,0,.3-.1.4-.2.4-.4.5-.8,0-.9,0-1.9,0-2.8-.1-.3-.2-.3-.3-.3Z"/>
        <path fill="#FFFFFF" d="M38.4,12.5v-3.7c0-.2,0-.3-.2-.3-.2-.1-.4-.3-.6-.2q0,0,0-.1t0,0c.2,0,.4,0,.6,0h3.6c.2,0,.3,0,.2.2v1c0,.1,0,.2,0,.2s-.2-.1-.2-.2c-.2-.4-.5-.8-1-.9-.4-.1-.8,0-1.2,0s0,.1,0,.2v1.6c0,.1,0,.2.2.2h.5c.4,0,.6-.1.7-.6,0-.1,0-.2.2-.2s0,.1.2.2v1.8c0,.1,0,.2,0,.2s-.2,0-.2-.1c-.4-1-.3-.8-1.3-.8s-.2.1-.2.2v1.6c0,.2,0,.3.4.4.5.3,1,0,1.6-.1.2,0,.3-.2.4-.4,0-.2.2-.3.3-.5,0-.1.2-.3.4-.2,0,.5,0,.9,0,1.4s0,.2-.2.2h-4.3c0,0-.3,0-.3-.2s.2-.1.2-.1c.3,0,.5-.1.6-.4,0,0,0,0,0-.2Z"/>
        <path fill="#FFFFFF" d="M101.9,8.7c0,.3,0,.6,0,.9,0,.1,0,.2,0,.2s-.2,0-.2-.1c0-.2-.2-.4-.2-.5-.3-.6-.6-1-1.3-1s-.6.3-.8.7c0,.3,0,.7.4.9.3.1.6.2.9.3.5.2,1,.3,1.3.8.2.3.3.7.3,1,0,.5-.5,1.1-1.1,1.4-.7.3-1.3.2-2,0-.2-.1-.4-.1-.6.1,0,.1,0,.1-.2.1s0-.1,0-.2c0-.5,0-1,0-1.5s0-.3,0-.3c.2-.1.2.1.3.2.2.5.5.9.9,1.2.2.2.4.1.7.1s.5-.1.7-.3c.3-.3.3-1.1-.2-1.4-.5-.2-1.1-.4-1.6-.6-.4-.2-.7-.6-.8-1.1,0-.4,0-.7.2-1,0-.1.3-.3.5-.4.7-.5,1.4-.4,2.1-.2.2.1.3.1.4,0,0,0,.2,0,.2,0,0,0,0,0,0,.2,0,.2,0,.4,0,.6Z"/>
        <path fill="#FFFFFF" d="M37.3,8.1c0,.5,0,1,0,1.5,0,.1,0,.2,0,.2s-.2,0-.2-.1c0-.1,0-.3-.2-.4,0-.3-.3-.6-.5-.8-.5-.5-1.3-.4-1.6.3,0,.3,0,.7.3.9.4.2.8.4,1.3.5,1.1.4,1.5,1.5.8,2.4-.5.6-1.5.9-2.3.6-.2-.1-.4-.1-.6-.2-.2,0-.4,0-.5.2,0,.1,0,.1-.2.1h0c0-.6,0-1.2,0-1.7,0-.1,0-.2,0-.2s.2.1.2.2c.2.4.4.8.7,1.1s.6.4,1,.4.6-.2.7-.4c.2-.3.2-.6,0-.9,0-.3-.5-.4-.8-.6-.4-.1-.8-.3-1.2-.5s-.7-1.1-.6-1.5c.2-1,1.6-1.5,2.4-1.2,0,.1.3.1.4.1s.2,0,.4-.1c.3-.1.4-.2.5,0,0-.1,0,0,0,0Z"/>
        <path fill="#FFFFFF" d="M56.3,11.4q.2,0,.3.2c.2.4.4.8.8,1.1.5.4,1.2.4,1.5,0,.4-.5.5-1-.2-1.4-.5-.2-1-.4-1.4-.6-.6-.2-.8-.7-.8-1.3s.3-1,.8-1.3c.6-.3,1.2-.4,1.8,0,.3,0,.5,0,.7,0,0,0,.2,0,.2,0v1.6c0,.1,0,.2,0,.2s-.2-.1-.2-.1c0-.3-.3-.7-.5-1-.3-.4-.8-.6-1.3-.5-.3.1-.5.5-.5.8s.3.6.6.7c.5.3,1.2.4,1.7.7.6.4.7,1.4.4,1.9-.5.8-1.7,1.1-2.5.9-.2-.1-.4-.1-.7-.2-.2,0-.4.2-.6.3,0-.6,0-1.2,0-1.9,0,.1,0,0,0,0Z"/>
        <path fill="#FFFFFF" d="M67.6,12.5v-3.7c0-.3-.2-.5-.5-.5h-.2c0,0-.2-.1-.2-.2,0-.2.2-.1.3-.1h2c.2,0,.5,0,.6.3-.3,0-.7,0-.8.4h0v4.1c0,.1,0,.2.2.2.5.3,1,.1,1.5,0,.2-.1.3-.2.4-.4s.2-.5.3-.8c0-.1,0-.2.2-.2h0c0,0,0,.1,0,.1,0,.5,0,1,0,1.5s0,.3-.2.3h-4.1c0,0-.2,0-.3-.1,0-.2,0-.1.2-.1.3-.3.5-.4.6-.8h0Z"/>
        <path fill="#FFFFFF" d="M47,17.3v.5c0,.1,0,.2,0,.3-.2,0-.2-.1-.2-.2,0-.2-.2-.5-.3-.7-.2-.3-.4-.5-.8-.5s-.6.2-.7.5c0,.3,0,.5.2.8.3.3.8.4,1.2.6,1,.3,1.3,1.5.6,2.2-.3.4-1.4.7-1.9.4-.2-.1-.4-.1-.6-.2,0,0-.2,0-.2.1s0,.2-.2.1c0,0,0-.1,0-.2,0-.4,0-.8,0-1.3s0-.3,0-.3,0,.1.2.2c.2.5.5,1,1.1,1.3.3.1.9,0,1-.3.2-.3,0-.8-.2-1s-.6-.3-.9-.4c-.5-.2-.9-.4-1.1-.8-.4-.8.2-1.5.8-1.7.4-.2.9-.2,1.4-.1.2.1.5.1.7-.1,0-.1.2,0,.2.1-.2.2-.2.4-.1.7,0,0,0,0,0,0Z"/>
        <path fill="#FFFFFF" d="M38.9,18.4v-1.2c0-.2,0-.5-.4-.5s0-.1-.2-.2h0c0-.2,0-.1.2-.1h1.9c0,0,.2,0,.2.1s0,.1-.2.2q-.4.1-.4.6v2.2c0,.7.2,1.2.9,1.4.3.1,1.1-.1,1.3-.7,0-.2,0-.4,0-.6,0-.7,0-1.5,0-2.2,0-.3-.3-.5-.5-.5s-.3,0-.3-.2.2-.2.3-.2h1.5c0,0,.2-.1.2.1s0,.2-.2.3c-.5.1-.6.3-.6.8v1.8c0,.6-.2,1.1-.7,1.5-1,.7-2.6.2-2.8-.8,0-.2,0-.4,0-.6,0-.5,0-.8,0-1.2h0Z"/>
        <path fill="#FFFFFF" d="M49.5,16.6h1.8c.2,0,.3,0,.3.2v.9c0,.1,0,.2,0,.3,0,0-.2-.1-.2-.2,0-.3-.2-.5-.4-.7s-.5-.1-.7-.1,0,.1,0,.2v3.3c0,.4.2.5.5.5s.2,0,.2.1c0,.2,0,.1-.2.1h-2c0,0-.2,0-.2-.1,0-.2,0-.1.2-.2.5,0,.5-.1.5-.6v-3.1c0-.1,0-.3,0-.4-.2-.1-.4-.1-.6,0-.2.1-.2.2-.3.4,0,.2-.2.4-.3.5,0,.1,0,.1-.2.1s0-.1,0-.2v-1c0-.2,0-.2.2-.2.6.2,1.2.2,1.8.2Z"/>
        <path fill="#FFFFFF" d="M83.6,10.7v-1.8c0-.3,0-.5-.5-.6,0,0-.2,0-.3-.1,0,0,0-.1,0-.2s0,0,0,0h2.3q0,0,.2,0c0,0,0,.1,0,.2s0,.1-.2.1-.3,0-.4.1c-.2.1-.3.2-.3.4v3.7q0,.6.5.7c0,0,.3,0,.2.1,0,.1-.2.2-.3.2h-2.2c0,0-.2,0-.2-.1,0-.2,0-.1.2-.2.5,0,.6-.2.6-.6.3-.8.3-1.4.3-1.9h0Z"/>
        <path fill="#FFFFFF" d="M37,21.2h-.9c0,0-.2,0-.2-.1,0-.2,0-.2.2-.2h0q.4-.1.3-.4c0-.3,0-.6-.4-.8-.2-.1-.5,0-.8,0-.7,0-.6,0-.9.6-.2.5-.2.6.5.7,0,0,.2,0,.2.1s0,.2-.2.2h-1.5c0,0-.2,0-.2-.2s0-.1.2-.1c.3-.1.5-.3.6-.5.4-1,.7-2,1.1-2.9,0-.2.2-.5.3-.7s0-.3.4-.3.3.1.4.3c.2.6.4,1.1.6,1.7.2.7.5,1.3.8,2,0,.2.2.4.5.5,0,0,.2,0,.2.1s0,.2-.2.2c-.5-.2-.8-.2-1.1-.2h0ZM35.3,19.3h.4c.2,0,.3,0,.2-.3,0-.4-.3-.8-.4-1.2,0-.1,0-.2,0-.2s0,.1,0,.1c0,.3-.2.6-.3.9q-.3.7.3.7Z"/>
        <path fill="#FFFFFF" d="M28.2,13.2c0-.2.1-.4.2-.6,0,.2,0,.4-.2.6Z"/>
        <path fill="#FFFFFF" d="M20.1,8.5c.2.1.1.2.1.3-.1-.1-.1-.2-.1-.3Z"/>
        <path fill="#FFFFFF" d="M49.6,8.8c0,.1,0,.2,0,.2s0-.1,0-.2Z"/>
        <path fill="#FFFFFF" d="M20.1,11.3q.1.1,0,.1t0-.1Z"/>
        <path fill="#FFFFFF" d="M20.2,10.2c.1,0,.1.1.1.1,0,0,0,.1-.1,0q-.1,0,0-.1Z"/>
        <path fill="#FFFFFF" d="M39,12.4c0,.1,0,.2,0,.2,0,0,0-.2,0-.2Z"/>
        <path fill="#FFFFFF" d="M92.9,9.2c0,0,.2.1,0,.2v-.2Z"/>
        <path fill="#FFFFFF" d="M67.6,12.5h0c0,0,0,0,0,0Z"/>
        <path fill="#FFFFFF" d="M49.6,12.5h0Z"/>
        <path fill="#FFFFFF" d="M56.3,11.4s0,.1,0,0c0,.1,0,0,0,0h0Z"/>
        <polygon fill="#FFFFFF" points="68.7 8.5 68.7 8.5 68.8 8.5 68.8 8.5 68.7 8.5"/>
        <path fill="#FFFFFF" d="M37.3,8.1c0,0,0-.1,0,0,0-.1,0,0,0,0Z"/>
        <path fill="#FFFFFF" d="M82.4,8.1s0-.1,0,0c0-.1,0,0,0,0Z"/>
      </g>
    </g>
  </g>
</svg>