<?xml version="1.0" encoding="UTF-8"?>
<svg xmlns="http://www.w3.org/2000/svg" version="1.1" viewBox="0 0 595.3 841.9">
  <defs>
    <style>
      .cls-1 {
        fill: #fff;
        stroke: #000;
        stroke-miterlimit: 10;
      }
    </style>
  </defs>
  <!-- Generator: Adobe Illustrator 28.6.0, SVG Export Plug-In . SVG Version: 1.2.0 Build 709)  -->
  <g>
    <g id="Layer_1">
      <path class="cls-1" fill="#FFFFFF" d="M-149.7,387c2.5,0,35.3,0,80.9,0,1.1.2,2.8.2,4.5-.5,4.4-1.9,6-7.8,5.6-11.9-.3-3.8-2.4-8.3-6.4-10.2-1.1-.5-2-.7-2.7-.8l-85.5-.3c-.6,0-1.5.1-2.5.3-.7.1-4.2.8-8.3,2.9-2.9,1.5-7.5,3.8-11,8.9-3.2,4.5-4,9-4.6,11.9-.4,1.9-.5,3.3-.7,6.2-.4,5.2-.6,8.1,0,11.4,0,0,.8,4.2,3.3,8.6,4.9,8.4,14,13.7,22.9,14.6,1.7.2,3,.1,3.4.1,9.3-.2,30.4-.3,64.7-.1.1,0,.4,0,.6.2,0,0,1.2.3,2.1.9,1.5.9,2.3,3.4,2.4,3.7.4,1.1,1.8,5.3-.7,9-1.4,2.1-3.3,3-4.3,3.4-27.6,0-55.1.1-82.7.2-.2,0-.4,0-.8,0-1.7.1-3,.9-3.6,1.3-3.3,2.2-4.7,5.6-4.7,5.6-1.7,4.2-.9,9.4,2.3,13,2.4,2.7,5.4,3.5,6.7,3.8,28.6,0,57.2.1,85.8.2.3,0,.7-.2,1.3-.3,3.2-.8,5.7-1.6,6.2-1.7,1.5-.5,6.8-2.4,11.4-7.1,4-4.1,5.6-8.5,6.6-11.4.9-2.7,4.2-12.8,0-24.4-1.2-3.3-3.9-10.7-11.6-15.8-5.2-3.4-10.3-4.3-13.1-4.5-23.1-.1-46.3-.3-69.4-.4-.4-.1-.9-.4-1.5-.8-.3-.2-1.3-1-2-2.9-.4-1-1.8-4.8,0-8.7.4-.8,1.6-3.4,4.1-4.1.7-.2,1.2-.2,1.4-.2Z"/>
      <path class="cls-1" fill="#FFFFFF" d="M26.1,445.3c-.9-2.9-8-69.6-8.4-73,0-.5-.2-1.2-.5-2.2-1.2-3.5-3.9-5.2-4.7-5.7-2.5-1.6-4.8-1.8-6.1-1.9-4.6-.4-8,1.4-9.3,2.2-1.8,1-4,2.2-4.9,4.7-.4,1.1-.4,2.1-.4,2.8,2.7,24.4,5.5,48.8,8.2,73.1.1.5.4,1.3.6,2.3.6,2.6,1,4.5,1,4.7.4,2,3,9.5,8.9,14.4,7.8,6.4,17.6,5.4,26.4,4.5,5.2-.5,8-1.6,10.1-2.8,4.4-2.5,6.9-5.9,8.4-8.2,3-4.3,4.1-8.2,5.7-13.8,1.2-4.1,1.9-7.6,2.3-10,7.3-29.8,9.8-41.6,9.8-43.8,0-.3,0-2.1.9-4.1.4-.8.8-1.7,1.7-2.4,1.4-1.2,3.7-1.7,5.5-.9,1.9.8,2.7,2.7,3.6,5,.6,1.6.9,3.1,1,4.2,0,0,0,.1,0,.2,0,0,0,.1,0,.1.5,6.2,2.7,14.8,2.7,14.8,1.2,4.7,2,8.1,2.9,12.1,1.6,7.4,4.9,23.4,6.1,28,.2.8.4,1.5.4,1.5,0,.1.9,3,1.9,5.1,1.7,3.8,4.4,6.7,4.6,6.8.7.8,3.9,4,9.3,6.2,2.8,1.1,5,1.5,7.4,1.9,5.9.9,12.3,1.9,19.4-.9,5.1-2,8.2-5,8.9-5.7,2.7-2.7,4.1-5.3,5.2-7.3,2.1-4,3-7.3,3.3-8.6.3-1.4.5-2.5.6-3.3,1.1-8.2,1.7-12.2,1.8-13.7.4-4.6,2.3-18.6,7.9-55.2,0-.7-.2-1.6-.4-2.7-.3-1.1-1.2-4.3-4-7.1-.9-.9-3.8-3.6-8.3-4-5.3-.5-10.1,2.5-12.4,6.3-.7,1.1-1.1,2.1-1.3,2.8-.2.8-.4,1.6-.6,2.4-3.2,23.7-6.5,47.4-9.7,71.1,0,.4,0,1-.4,1.5-.6.9-1.5,1.1-2.3,1.3-1.2.3-3,.8-4.6-.3-1.2-.8-1.5-2.1-1.7-2.7-.5-2-1-3.9-1.5-5.9-4-19-8-38-12-56.9-.1-.4-.4-1-.6-1.8-1.4-3.6-3-6.9-4.1-8.6-3.1-4.8-8.8-7.2-11.3-8.2-7.9-3.3-15-2.3-18.3-1.8-4,.6-10.2,1.5-16,6.4-5.2,4.4-7.4,9.8-8.2,12.4-5,20.9-9.9,41.9-14.9,62.8-.1.5-.3,1.3-.8,2.1-.2.4-.5.9-1,1.3-.9.8-1.9,1.1-2.4,1.1-.7.2-1.9.4-3-.2-1-.5-1.5-1.4-1.7-1.8,0,0-.3-.5-.4-1Z"/>
      <path class="cls-1" fill="#FFFFFF" d="M276.7,385.8c-.2-.9-.5-2.1-1-3.6-.7-1.8-4.2-11.5-14.3-16.3-1.3-.6-6.4-2.9-13.3-2.5-.9,0-4.1.3-8.2,1.7-2.5.9-13.6,5.1-17.9,15.9-.6,1.5-1,2.9-1.1,3.7-.1,21.2-.2,42.3-.3,63.5,0,1.1,0,2.6.5,4.4,2.5,10.3,12.9,15.3,15,16.3,2.4,1.1,11.7,5.4,22.5,1.7,14.3-4.9,18.4-19.5,18.7-20.8-.2-21.3-.3-42.7-.5-64ZM270.8,397c-1.1,4.4-3.5,7.1-5.2,9-2,2.2-5.9,6.6-12.5,8-8.8,1.9-15.9-2.8-17.8-4.2-1.6-1.2-6.6-4.9-8.5-11.8-2.2-7.9,1-14.3,1.9-16,0,0,3.5-6.7,11.8-10.7,1.5-.7,3.9-1.9,7.3-2,.3,0,1.2,0,2.6,0,1.7.2,5.7.8,9.6,3.1,8,4.7,10.3,13.2,10.6,14.6.5,2,1.3,5.5.2,10Z"/>
      <path class="cls-1" fill="#FFFFFF" d="M424.9,364c-32.3,0-64.5.2-96.8.3-.5,0-1.2.2-2,.5-1.1.5-1.9,1.1-2.3,1.4-2.3,2-3.4,4.8-3.5,5-.4.9-1.3,3.6-.6,7,.7,3.4,2.7,5.4,3.9,6.6,2.1,2.1,3.8,2.5,4.3,2.6.6.1,1.1.2,1.3.2,3.3.1,26.9.2,30.3.2.3,0,.8-.1,1.4,0,1,.3,1.6,1.1,1.9,1.6.3.5.5,1,.6,1.4.2,23.6.3,47.1.5,70.7,0,.7.2,1.7.6,2.9,1,2.7,2.9,4.2,3.8,4.9,2.9,2.2,6.1,2.6,7.4,2.6,1,0,4.2.1,7.4-1.9,2.6-1.7,4-4,4.6-5,.3-.6.6-1.1.8-1.5l.4-72.6c0-.4.3-.9.6-1.4.8-1.2,2.1-1.6,2.6-1.7,11,0,22.1,0,33.1,0,.3,0,.8-.3,1.3-.5,1.3-.5,3.6-1.5,5.4-3.5.6-.6,2.6-2.9,3.1-6.4.3-2.2-.2-3.9-.5-4.9-.3-1.1-.8-2.8-2.3-4.6-1.9-2.2-4.1-3.1-4.9-3.4-.9-.3-1.7-.5-2.3-.6Z"/>
      <path class="cls-1" fill="#FFFFFF" d="M578.3,388c-1.4.3-2.5.2-2.8.2-4.3-.4-32.3-.3-72.6,0-.3,0-.8,0-1.4.3-.3.1-1,.4-1.5,1.1-.2.2-.4.6-.7,1.4-.2.7-.4,1.8-.3,3.2v47.1c0,.4.2,1,.6,1.7.2.4.9,1.6,2.4,2.3,1.1.5,2,.5,2.6.4h70.4c.8,0,1.9,0,3.3.2,1.6.3,2.7.9,2.9,1,3,1.6,4.2,4.5,4.8,5.8,1.2,2.7,1.1,5.1,1.1,5.6,0,1.1-.1,3.1-1.4,5.3-1.3,2.2-3.1,3.4-4.2,4.1-2,1.2-3.9,1.7-5.3,2-26.8,0-53.7.2-80.5.3-1-.1-2.3-.4-3.9-.9-1.7-.5-5.7-1.7-9.4-4.9-5.9-5.2-7.3-12.2-7.7-14.6-.3-1.3-.4-2.5-.4-3.2l-.7-59.6c0-.6.2-1.5.3-2.5.1-.8.4-2.2.8-3.5.7-2.2,1.7-3.7,2.4-4.8,1.6-2.4,3.3-3.9,4.8-5.2,1.9-1.6,3.8-3.4,6.6-4.6,3.1-1.4,5.9-1.6,7.5-1.6,6-.2,38.2-.5,82.3-.6.9.2,2.3.6,3.9,1.6.7.5,2.2,1.6,3.3,3.6,1.1,2,1.3,3.8,1.4,5.1,0,1.3.3,4.1-1.3,7.2-.4.8-2.7,5.2-7.1,6.3Z"/>
      <path class="cls-1" fill="#FFFFFF" d="M663,428.4c-.6,0-1.5.2-2.2.8-1.1,1-1.2,2.5-1.2,3.2-.1,2.7-.2,13-.1,27,0,.2,0,.6-.2,1-.3,1.2-.9,2-1.2,2.6-2.4,3.5-2.1,3.3-2.4,3.6-.4.5-2.2,2.4-5,3.4-4.8,1.8-9.1-.2-9.8-.5-5.5-2.5-7.1-7.9-7.3-8.7.2-15.6.3-31.4.3-47.3,0-13.4,0-26.6-.1-39.8.2-1.2.7-3.2,2.3-5.2,2-2.4,4.4-3.3,5.7-3.7,2.1-.7,3.8-.7,4.6-.7,1.5,0,3.8.3,6.2,1.7,2.3,1.3,3.5,2.9,4.1,3.7,1,1.3,1.6,2.5,1.9,3.4.1.6.3,1.1.4,1.7v27.8c.1.6.3,1,.4,1.3.6,1.1,1.7,1.9,2.9,2,.3,0,.6,0,.6,0,3.2-.3,64.5,0,64.5,0,.2,0,1.9.2,3-1.1.7-.8.8-1.8.8-2.1.2-9.3.4-18.7.6-28,0-.5,0-1.3.1-2.2.6-2.9,2.8-4.7,4.1-5.7.7-.5,1.9-1.5,3.9-2.2.7-.2,2.8-.9,5.6-.6.7,0,1.9.2,3.3.8,3,1.2,4.6,3.5,5.4,4.7.6.9,1.4,2.2,2,4v86c.1.3,0,.7,0,1.2-.3,2-1.2,3.3-1.3,3.6-.6.9-1.1,1.4-2.3,2.5-1.1,1-1.9,1.7-2.9,2.3-1.7,1-3.3,1.1-4.8,1.2-2,.2-4.6.4-7.1-.8-4.5-2-6-7-6.3-7.9,0-1.8-.1-3.7-.2-5.6-.2-8.1-.2-16.1,0-23.8,0-.4,0-1.3-.7-2.2-.8-1.1-1.9-1.5-2.3-1.6-.9-.3-1.7-.2-2.1-.1-21.1,0-42.2,0-63.3.1Z"/>
      <polygon class="cls-1" fill="#FFFFFF" points="-182.3 506.2 -116.6 506.2 -116.6 514.4 -144.8 514.4 -144.8 587.2 -153.4 587.2 -153.9 514.1 -182.3 514 -182.3 506.2"/>
      <polygon class="cls-1" fill="#FFFFFF" points="-103.6 506.2 -47.6 506.2 -47.6 514.3 -94.3 514.3 -94.4 542.2 -53.1 542.2 -53 550.4 -94.3 550.4 -94.5 579.6 -46.3 579.6 -46.3 587.5 -103.6 587.5 -103.6 506.2"/>
      <path class="cls-1" fill="#FFFFFF" d="M32.7,523.1c1.8-1.7,3.5-3.4,5.3-5.1-2.4-2.3-6.4-5.7-12.1-8.3-15.8-7.1-30.6-1.9-32.8-1-8,3-13.1,7.7-14.8,9.4-2.7,2.7-9.5,10.3-11.5,22.3-1.7,10.2,1,18.3,2.5,21.8.9,2.3,6.1,14.5,19.5,21.2,7.7,3.9,14.5,4.2,18.7,4.3,5.1.2,13.9.4,22.6-4.9,3.7-2.2,6.3-4.8,8-6.6-1.8-1.9-3.6-3.7-5.4-5.6-.3.3-.7.7-1.3,1.1-3.8,3.2-7.7,5.6-10.1,6.6-7.2,3.3-16,1.8-17.5,1.5-2.8-.5-16.9-2.9-24.7-16.2-7.8-13.4-3-26.9-2.3-28.9,1.1-3,4.1-9.6,10.9-14.7,9.7-7.4,20.4-6.7,23.9-6.5,2.9.2,8.3.6,14.1,3.9,3.2,1.8,5.4,3.9,6.9,5.4Z"/>
      <path class="cls-1" fill="#FFFFFF" d="M56.2,506.4c3,0,6,0,8.9,0v36.6h50.3v-36.6h8.5v81.5c0,0-8.6,0-8.6,0l-.3-37.9h-50v37.3c0,0-8.9,0-8.9,0v-80.7Z"/>
      <polygon class="cls-1" fill="#FFFFFF" points="158.6 587.8 150.1 587.8 149.7 506.3 157.1 506.3 209 571.7 208.4 506.3 217.8 506.3 217.8 587.8 210.3 587.8 158.5 522.4 158.6 587.8"/>
      <path class="cls-1" fill="#FFFFFF" d="M318.3,531.7c-6-14.9-19.6-22.8-29.7-25-6.4-1.4-13.1-.9-13.9-.9-2,.2-6.8.6-12.1,2.6-11.8,4.4-18.2,13.8-19.8,16.2-2.5,3.8-8.9,15.1-6.2,29.6,2.2,12.3,9.5,19.9,12.7,22.7,11.2,10.3,24.4,10.8,28.9,10.9,4.3,0,14.2.2,24.2-6.1,12.1-7.7,16.1-19.4,17.2-23.2,1-3.6,3.7-14.6-1.2-26.8ZM311.8,556.3c-.4,1.5-5.4,17.9-21.5,23.4-9.2,3.2-17.2,1.1-19.9.3-1-.3-18.2-5.3-23.9-21.6-.4-1.1-1.8-5.5-1.7-11.5.3-11.3,6.3-25,17.7-30.2,5.6-2.6,11.7-2.7,16.2-2.7,3.5,0,7.3-.1,11.6,1.1,14.1,4,20.3,18.3,20.5,18.9,3.9,9.5,2.3,18.2,1.1,22.3Z"/>
      <polygon class="cls-1" fill="#FFFFFF" points="339.8 506.2 349 506.2 348.7 579.8 393.9 579.8 393.9 587.5 339.8 587.9 339.8 506.2"/>
      <path class="cls-1" fill="#FFFFFF" d="M483,531.7c-6-14.9-19.6-22.8-29.7-25-6.4-1.4-13.1-.9-13.9-.9-2,.2-6.8.6-12.1,2.6-11.8,4.4-18.2,13.8-19.8,16.2-2.5,3.8-8.8,15.1-6.2,29.6,2.2,12.3,9.6,19.9,12.7,22.7,11.2,10.3,24.4,10.8,28.9,10.9,4.3,0,14.2.2,24.2-6.1,12.1-7.7,16.1-19.4,17.2-23.2,1.1-3.6,3.7-14.6-1.2-26.8ZM476.5,556.3c-.4,1.5-5.4,17.9-21.5,23.4-9.2,3.2-17.2,1.1-19.9.3-1-.3-18.2-5.3-23.9-21.6-.4-1.1-1.8-5.5-1.7-11.5.3-11.3,6.3-25,17.7-30.2,5.6-2.6,11.7-2.7,16.2-2.7,3.5,0,7.3-.1,11.6,1.1,14.1,4,20.3,18.3,20.5,18.9,3.9,9.5,2.3,18.2,1.1,22.3Z"/>
      <path class="cls-1" fill="#FFFFFF" d="M564.5,522.7c1.7-1.6,3.5-3.1,5.2-4.7-1.7-1.8-4.3-4.3-8-6.5-16.4-10-34.8-4-37.4-3.1-3.8,1.3-11,3.9-17.2,10.9-1.2,1.3-6.1,7-8.4,16.1-2.5,9.6-.6,17.5.3,20.7.8,3.3,5.4,21,22.3,29,13.5,6.3,26.3,2.6,30.9,1.3,7.8-2.3,13.5-6,16.9-8.7,0-10.2.2-20.4.3-30.6-2.7,0-5.4.2-8,.3-.1,9.1-.3,18.2-.4,27.3-1.1.9-2.8,2.2-5.1,3.2-2.8,1.2-5.1,1.5-6.8,1.7-8.1.8-12.1,1.3-15.8.6-10-1.7-16.4-7.8-17.4-8.7-9.6-9.3-9.9-21.5-10-24.6,0-2.9,0-9.2,3.7-16.1,5.3-9.8,14.3-13.5,17.2-14.6,5.7-2.1,10.5-1.9,14.4-1.8,3.7.1,9.7.4,16.3,3.7,3.2,1.6,5.5,3.4,7,4.7Z"/>
      <path class="cls-1" fill="#FFFFFF" d="M602.6,506.4c-3,0-5.9,0-8.9,0v80.8c3,0,6-.1,8.9-.2,0-26.9,0-53.8,0-80.7Z"/>
      <polygon class="cls-1" fill="#FFFFFF" points="684.3 506.8 684.3 514.5 637.9 514.5 637.9 542.1 679.1 542.1 679 550.6 637.6 550.6 637.6 579.8 685.5 579.8 685.5 587.3 628.6 587.3 628.6 506.8 684.3 506.8"/>
      <path class="cls-1" fill="#FFFFFF" d="M751.5,520.6c1.2-2.2,2.4-4.5,3.7-6.7-3.9-3-7.6-4.7-10.3-5.7-14.3-5.4-26.8-.9-30.8.5-6.1,2.2-8.4,4.4-9.4,5.4-4.1,4.4-4.7,9.7-4.9,11.6-.2,1.5-1,9,3.7,14.8,3.7,4.6,9.2,6.2,15.7,8.3,2.1.6,4.3,1.2,4.3,1.2,3.8.9,5.6,1.1,8.1,1.6,3.2.7,6.3,1.3,9.5,3.1,2.7,1.5,6.5,3.7,7.9,8.1,1.5,4.9-.9,9.2-1.4,10.1-.5.8-2.3,3.6-7.3,6-12.7,6-26.3.1-27.3-.3-2.6-1.2-6.7-3.4-10.9-7.7-1.5,2.2-3,4.4-4.5,6.6,1.6,1.7,4,3.9,7.4,5.9.9.5,4.6,2.7,11.2,4.1,3.6.8,12.9,2.7,23.9-.5,3.5-1,7.1-2.1,10.7-5.3,3.9-3.5,5.5-7.3,5.8-8.1.8-2.1,2.7-7.9.3-14.1-3.5-8.9-13.1-11.8-15.1-12.3-.2,0-1.5-.4-4.2-1-8.7-2.1-9-2.1-11.1-2.6-6.7-1.8-10.7-2.9-14.1-6.3-1.4-1.4-4.6-4.5-4.6-9,0-4.6,3.3-8,4.7-9.4.5-.5,2.2-2.2,5.1-3.6,5.1-2.4,9.7-2.1,14.6-1.7,3.6.3,8.2.7,13.4,3.3,2.6,1.3,4.5,2.7,5.8,3.8Z"/>
    </g>
  </g>
</svg>