<?xml version="1.0" encoding="UTF-8"?>
<svg xmlns="http://www.w3.org/2000/svg" version="1.1" viewBox="0 0 595.3 841.9">
  <defs>
    <style>
      .cls-1 {
        fill: #fff;
      }
    </style>
  </defs>
  <!-- Generator: Adobe Illustrator 28.6.0, SVG Export Plug-In . SVG Version: 1.2.0 Build 709)  -->
  <g>
    <g id="Layer_1">
      <g>
        <path class="cls-1" fill="#FFFFFF" d="M126,259.4c-.9.3-.7,1.2-1.2,1.8-.3.4-.4,1.1-1.1,1-.4-.1-.7-.5-.9-.9-1.4-3-3.8-5.2-6.3-7.3-3-2.6-6.2-5-9.4-7.5-4-3.2-6.3-7.4-7.8-12.1-2.1-6.4-2.9-13-3.7-19.5-.4-3.1,0-6.2.5-9.2.6-4,2-7.9,2.8-11.8.2-1,0-2.2.9-3.4,6.3,8.6,12.8,17,17.8,26.6.3-1.3,0-2.3-.5-3.2s-.9-1.9-1.5-2.7c-2.1-3.1-4.2-6.2-6.3-9.3-2.8-4.2-4.9-8.7-6.1-13.7-.8-3.5-1.2-7-1.3-10.5,0-1.7.3-3.5.5-5.2.5-3.7,2-7,3.2-10.5,1.1-3,2.4-5.8,3.6-8.8.4-1,.8-2.1,1-3.1.3-1.9,1.4-3.4,1.9-5.2,0-.5.4-1,1.1-1,.6.1.8.7.9,1.1,0,.8.3,1.6,0,2.5-.3,1.3,0,2.7.4,4,.4-.3.3-.6.2-.9-.9-4.8.3-9.5,1.4-14.1,1.4-5.6,3.7-11,6.2-16.2,2.6-5.4,5.3-10.8,8-16.1.6-1.3.6-2.6.8-3.9v-1.2c0-.6.5-.9,1-1s.9,0,1.2.5c.4.9.9,1.7,1.2,2.6,1.8,5.9,3.1,11.8,3.2,18,0,2.8-.1,5.6-.5,8.8,1.1-1.2,1.3-2.4,1.5-3.4.8-3.5,1.8-6.9,3.2-10.3,1.3-3.1,3.3-5.5,5.3-7.9,4.2-4.9,9.5-8.1,15.2-10.8,4-1.9,8-3.5,11.9-5.5,1.3-.7,2.5-1.3,3.6-2.2.9-.7,1.4-.5,1.5.7.1,1,.1,2,0,2.9-.7,4.5-1.9,8.8-3.6,13-2.3,5.7-5.2,11-8.6,16-2.1,3-4.2,6.1-7.3,8.2-2,1.3-3.5,3-5.6,4.5,1.1,0,1.8-.4,2.4-.9,2.8-2,5.8-3.8,8.8-5.6,3.8-2.3,7.9-4.1,11.5-6.8.2,0,.3-.2.5-.3.4-.3.8-.5,1.2-.3.4.3.3.8.3,1.2s0,.4-.1.6c-1.2,4-2.1,8.1-4.2,11.8-2.5,4.4-4.6,9-7.1,13.3-2.8,4.7-6.1,9.1-10.7,12.4-2,1.5-4.4,2.5-6.4,3.9-2.8,1.9-5.9,3.5-8.6,5.6-.4.3-.7.6-1.3.5-.5-1.3.2-2.6.2-4.2-.8.9-.9,1.8-1.2,2.6s-.8,1.6-1,2.5-.7,1.7-1.3,2.3c-3.7,3.5-6.5,7.6-8.8,12.2-.9,1.9-.4,3.5-.1,5.1.1.6.4,1.5,1.1,2.3-.7-4.4,1.4-7.6,3.7-10.6,1.5-2.1,3.1-4.1,4.7-6.1,2-2.4,4.1-4.6,6.8-6.2,3.4-2.1,7-4,10.2-6.3,1.1-.8,2-1.8,3.2-2.4.6-.3,1.1-.9,1.7-.5.7.5.2,1.2.1,1.8-1.1,3.7-2.1,7.3-3.2,10.9-1.4,4.7-2.9,9.4-4.7,13.9-1.5,3.7-2.7,7.5-5,10.8-.8,1.2-1.7,2.1-2.9,3-1.7,1.3-3.1,3-4.5,4.7,1.4-.5,2.3-1.6,3.5-2.5,1.3-.9,2.4-2,3.6-3,.3-.2.5-.6,1-.4.5.2.7.6.6,1.1,0,.6,0,1.2-.1,1.7-.6,2.3-.3,4.6-.3,6.9,0,3.4.6,6.8.2,10.2-.4,3.9-1.8,7.4-3.9,10.6-.8,1.2-1.6,2.4-2.6,3.9.8-.1,1.1-.5,1.5-.9,1-1.1,2.2-1.9,3.4-2.8,1-.8,1.8-.4,1.8.8s.1,2.7.4,4c.4,2.1,1.2,4.1,1.3,6.2.2,3.9.5,7.8,1,11.7.2,1.8-.2,3.6-.6,5.3,1.7.2,1.8.2,2,1.8.5,4.4,1.9,8.5,3,12.8.7,2.7,1.4,5.4,1.2,8.4-.2,3.2.1,6.4-.3,9.6v.8c.4,1.7-.2,1.9,2,2,2.5.1,4.9.2,7.4,0,1.4-.1,1.7-.6,1.1-1.9-.6-1.2-1.2-2.3-1.8-3.4-2.2-3.9-3.7-8-5.5-12.1-2.3-5.6-3.9-11.4-5.5-17.2-1.1-4-1.5-8.2-2.2-12.3-.7-4.7-1-9.5-1.4-14.2-.2-2.8-.4-5.5-.5-8.3-.2-3.9,0-7.8.1-11.8.1-3.7.5-7.4,1.1-11.1,1-5.5,1.8-11,3.1-16.4,1.6-7.2,3.7-14.2,6.6-21,3.3-7.5,7.2-14.7,11.6-21.6,3.5-5.6,7.3-10.9,11-16.4,1.3-2,3-3.7,4.6-5.5,2.5-3.1,4.9-6.1,7.4-9.2.7-.8.8-1.5.4-2.4-2-4.5-3.9-9.1-5.9-13.7-2.5-5.5-5-11-7.6-16.5-2.6-5.4-6-10.2-11-13.8-2.5-1.8-5.3-3.2-8.4-3.7-.6,0-1.4,0-1.6-.8-.3-.9.3-1.4.9-1.9,3.1-2.8,6.5-5,9.9-7.4,5.5-3.8,11.4-6.9,17.2-10.1,1.6-.9,3.4-1.7,4.9-2.7,3.3-2,7.1-3.1,10.6-4.8.8-.4,1.1,0,1,.7-.1,1.4-.2,2.8-.5,4.2-.6,3.6-.4,7,1.2,10.4,2.5,5.3,4.6,10.8,7.5,15.9.5.8,1,1.6,1.8,2.3.2-1.4.4-2.7.5-4.1.2-3.7.4-7.5-.4-11.2-.7-3.2-2.1-5.9-4.3-8.3-.6-.7-1.1-1.4-1.6-2.2-.5-.9-.3-1.4.6-1.9,2.6-1.4,5.2-2.8,8-4,5.7-2.5,11.6-4.8,17.5-6.6,3.1-.9,6.2-2,9.5-2.5.4.6.1,1.1,0,1.7-.5,2-1.1,4-1.3,6-.2,2,.1,4,1,5.8,1.4,3,2.2,6.2,3.8,9.1,1.6,3,2.9,6.1,4.3,9.1.1.3.3.6.8.7.6-1.2.4-2.6.6-3.9.6-4.9,1.1-9.7,1.4-14.6.2-3.4,0-6.9-1.1-10.3-.4-1.3-.7-2.6-1.2-3.9-.9-1.8-1.9-3.5-3.3-5-.3-.3-.6-.7-.7-1.2.9-.8,2.1-.6,3.1-.7,4.6-.5,9.2-1.1,13.9-1,2,0,4-.5,6-.3,4.7.5,9.4,0,14.1.4,1.9.2,3.9.1,5.8.4,1.2.1,1.4.5.9,1.6-.4.9-1,1.7-1.5,2.5-4.3,6.6-7,13.9-8.9,21.5-.4,1.7-.3,3.5-.5,5.2-.5,6.7-1.1,13.5-1.6,20.2-.2,2.6-.1,5.2-.1,7.8s.1,1.6,1.7,1.6c3.3,0,6.6.4,9.8.7,4.1.4,8.1,1.2,12.2,1.9.6,0,1.2,0,1.7.2,2.1.3,3.4-.5,4.5-2.4,1.8-3.3,4.1-6.4,5.8-9.9,3.3-6.7,7.4-13,10.8-19.7,1.2-2.2,2.4-4.4,3.5-6.7,2-4.1,3.6-8.3,4.5-12.8.4-2.1.8-4.2,1-6.3.1-1.4.4-1.6,1.7-1,2.9,1.2,5.8,2.5,8.7,3.8,2.2,1,4.3,2.2,6.4,3.2,3.6,1.7,6.9,3.8,10.2,5.9,3.5,2.1,6.7,4.6,9.8,7.2.4.3.7.5,1,.9.5.5.5,1-.2,1.4-1.3.9-2.6,1.9-3.9,2.8-2.2,1.5-3.5,3.5-4.4,6.1-.8,2.5-.7,4.9-.8,7.4-.1,5,.1,10,0,14.9-.3,10.1-.2,20.2-.2,30.3s.1,1.9,1,2.6c3.9,3.1,7,7,10.3,10.8.6.7,1.2,1.5,1.9,2.2,4.9,4.8,8,10.9,12,16.3,1.1,1.4,1.6,3.2,3.1,4.3.2,0,.2.1.2.2h-.1c-.1,0-.1,0-.1-.2-.8-2.4-1.9-4.6-2.8-7-1.5-4.1-3-8.2-4.2-12.5v-.5c.4-.3.7,0,.9,0,4.1,3.2,8.7,5.5,13.1,8.2,2.4,1.5,4.6,3.1,6.7,4.9.4.3.5.7.6,1.1.2,1.2.4,2.4.3,3.6-.1,4.6.2,9.1,1,13.7.3,1.5.3,3.1,1,4.5.3.7.1,1.2-.8,1.3-1.6.2-2.9,0-4.2-1.2-1.4-1.4-3.2-2.6-4.8-3.7.3,1.2.5,2.4,2,2.9.9.3,1.6,1.3,2.4,1.9,2.1,1.7,4.4,2.9,6.7,4.3,1.3.8,2.5,1.6,3.6,2.6,3,2.9,6.2,5.6,8.8,8.9,1.5,1.8,2.3,3.8,1.9,6.2-.7,4.4-.3,8.9-.3,13.3s0,6.2.3,9.3c.1.6.4,1.6-.9,1.4-.2-.2-.3-.4-.6-.1.1-.1.1-.2,0-.3-.1,0-.2,0-.2.1.1.1.2.1.3.2,0,.3.1.4.4.4,1.2,1.3,2.5,2.6,3.7,3.9,2.6,3,4.3,6.5,5.8,10.2.7,1.7-.4,2.9-1,4.1-1.4,3.2-3.1,6.2-3.5,9.7-.1.9-.6,1.7-.9,2.5-1,2.7-1.3,5.5-2.5,8.1-.2.4,0,.6.1.9.4.8,1,1.5,2,2.4-.7-4,1.2-7.2,1.9-10.5,1-4.7,3-8.9,5.3-13,1.2-2.1,2.5-4.1,4-6.1.2-.2.3-.4.1-.8-.6.5-1.1,1-1.7,1.4-1,.8-1.2.8-1.8-.2-.8-1.2-1.6-2.3-2.3-3.6-1-1.7-2.1-3.2-3.5-4.6-2.2-2.1-3.1-4.6-3-7.6,0-3.7-.4-7.3-.2-11,.2-4.1.4-8.3,1.2-12.3.5-2.8.8-5.6,2-8.2.3-.7.3-1.5.3-2.3s-.2-2.1.1-3.1c.1-.3,0-.7-.3-.8-.5-.2-.5.2-.6.5-.1.4-.2.7-.3,1.1-.7,2.3-1.4,4.6-2.1,6.8-.1.4-.4.8-.6,1.2-.3.6-.8.6-1.1.2-.7-1-2.1-1.2-2.4-2.6-.1-.7-.9-1.1-1.4-1.5-2-1.6-3.8-3.5-5.7-5.2-3-2.8-4.7-6.2-5.7-10.1-.9-3.7-1.1-7.4-1.3-11.1-.1-3.8-.2-7.6-.3-11.5-1.9.5-3.3-.3-4.7-1.3-3.3-2.2-6.7-4.3-10.1-6.4-1.7-1.1-3.1-2.5-4.6-3.9-.6-.6-1-1.3-1.3-2.1-1.7-3.6-3.1-7.4-3.9-11.3-.6-3.1-1.2-6.3-1.4-9.5-.2-3.2.3-6.4.1-9.7-.1-1.7-.1-3.3-.3-5-.1-.5,0-1.1.6-1.3.5,0,.8.4,1.1.7s.4.5.5.8c.8,2.6,2.9,4,5,5.4,5.6,4,11.4,7.8,16.7,12.3,4,3.4,7.5,7.1,10.5,11.3,1.7,2.3,2.1,5.1,2.4,7.9.3,2.4.5,4.9.4,7.3,0,1.7.8,2.7,2.2,3.3.4-.1.5-.3.5-.5-.6-2.6.2-5.3,0-7.9-.1-2.3.2-4.7.8-6.9,1-3.7.9-7.4-.1-11.1,0-.2-.1-.4-.2-.6-.1-.4,0-.8.3-1,.4-.3.9-.2,1.2,0,.3.3.6.7.8,1.1,2.5,3.5,4.7,7.1,7.2,10.6,3.2,4.3,6.4,8.4,9.6,12.6,3.4,4.5,5.9,9.4,6.3,15.2.3,4.3-.7,8.4-3.2,11.9-1.1,1.6-1.4,3.6-2.6,5.1-.6,4.6-3,8.6-4,13-.2.9.3,1.7.7,2.3,2.7,3.7,4.5,7.8,6,12.1,1.1,3.3,2.1,6.8,2.4,10.3.1,1,.2,2.1.3,3.1,0,.2,0,.5.3.6.4.1.5-.2.7-.5.6-.8.8-1.8.6-2.8-.9-4.9-2-9.7-4.1-14.2-1.3-2.8-2.7-5.6-4.2-8.2-.5-.8-.6-1.6-.3-2.6.6-1.8.8-3.8,1.3-5.7.6-2.7,1.6-5.3,2.8-7.8,1.5-3,3.3-5.8,4.6-8.9.7-1.8,2.1-3.2,2.8-5.1.2-.7,1-.6,1.3.1.3.7.5,1.4.5,2.1.3,4.7,1.6,9.1,2.9,13.6,1.3,4.6,2.6,9.2,3.5,13.9.8,4.6,1,9.2.2,13.9-.1.7-.4,1.4-.5,2-.3.1-.4.4-.5.7-.1.2-.3.3,0,.5,0,0,.2-.2.3-.3.3,0,.4-.3.6-.5,1.2-1.4,2.3-2.7,3.5-4.1.2-.2.4-.6.6-.8.4-.3.9-.6,1.4-.3s.4.8.3,1.2c-.7,3.4-.3,6.8.3,10.2,1.2,7.1,2.2,14.2,1.9,21.4-.1,2.7-.6,5.4-1.1,8-.3,1.5-1.3,2.8-2,4.2-1.1,2.3-2.4,4.3-4.4,6.1-2,1.7-3.5,4-5.1,6-.9,1.2-2,2.2-3.3,2.9-1.2.6-1.1,1.5-1.1,2.5.7,0,1-.5,1.3-.8,2.8-3,6.1-5.5,9.1-8.4,2.2-2.1,4.1-4.4,5.6-7.1.2-.3.3-.6.4-.9.2-.6.6-1,1.3-.8.6.2.6.8.6,1.3,0,1.3,0,2.6-.3,3.8-.5,2.4-.5,4.7-.5,7.1,0,4.8-.4,9.5-1.6,14.2-.6,2.4-1.1,4.9-1.7,7.3-.5,1.7-1.5,3.1-2,4.8,1.3.2,1.6.5,1.4,2-.2,1.9-.7,3.8-1.4,5.6-1.8,4.8-3.1,9.7-4.7,14.5-.7,2.2-1.9,4.1-2.7,6.2-.8,2-.8,3.9.3,5.9,4.6,7.9,9.1,15.8,13.7,23.6,1.8,3.1,3.6,6.1,5.3,9.2,4,7.4,8.3,14.6,12,22.1,1.4,2.8,1.3,3-1.9,3h-78.8c-1.3,0-2.1.4-2.7,1.4-1,1.7-2.4,3.1-3.7,4.5-1.7,1.8-3.7,2.9-6.2,3.2-1.4.1-2.8.2-3.7,1.8,1.2.2,2.2-.3,3.3-.6,2.6-.8,5.1-1.8,7.8-2.2.4,0,.8-.4,1.1.1.3.4.1.8-.2,1.2-1.3,1.5-2.6,2.9-3.8,4.4-1.9,2.3-3.7,4.6-5.5,7-1.8,2.5-4.3,4.2-6.9,5.9-5,3.3-10.7,5-16.6,6.1-5.1,1-10.2,1.6-15.3,2.2-1.1.1-2.3.4-3.6.9,1.9.3,3.6-.2,5.2-.3,2.8-.3,5.5-.6,8.3-.7,3.2-.1,6.3-.7,9.4-1.4.6-.1,1.1-.2,1.7-.4.5-.1.9-.1,1.2.3.3.5-.1.8-.5,1.1-1.7,1.3-3.4,2.6-5.1,3.9-3.6,2.8-7.2,5.6-10.9,8.3-2.9,2.1-5.6,4.6-8.9,6.1-2,.9-4,1.4-6.1,1.7-4.2.6-8.4.4-12.5-.4-.8-.1-1.5-.5-2.2-.7-.6-.2-.9,0-1,.7-.6,5.7-2,11.1-4.1,16.4-1.5,3.7-3.5,7.2-5.9,10.4-5.8,7.8-13.2,13.5-22.1,17.4-6.8,3-14,4.1-21.5,4-7.4-.1-14.5-1.6-21.1-4.9-6.8-3.4-12.8-7.9-17.6-14-3.1-3.9-5.7-8.1-7.6-12.7-1.1-2.5-1.7-5.3-2.4-7.9-.8-2.9-1-5.8-1.4-8.8-.1-.6.1-1.1.1-1.7s-.3-1.2-1.3-.9c-4.2,1.5-8.4,1-12.6-.1-1.4-.4-2.9-.8-4.3-1-3.3-.4-6-2.3-8.6-4.1-3.6-2.5-7.1-5.1-10.3-8.2-.8-.7-1.8-1.1-2.7-1.4-.4-.1-.7-.3-.8-.7,0-.5.4-.6.8-.8,1.2-.6,2.5-.6,3.8-.8.9-.2,1.7-.2,2.6-.8-.6-1.1-1.7-1.3-2.6-1.6-1.9-.4-3.9-.8-5.9-1.1-1.6-.3-3.1-.9-4.5-1.7-4.5-2.7-8.7-6-12.4-9.8-2.8-2.8-5.4-5.9-9.1-7.7-.2-.1-.3-.2-.5-.3-.3-.3-1-.5-.6-1.2.3-.6.9-.9,1.5-.6,3.2,1.5,6.5.1,9.7.1s5.9-.5,8.8-.3c.6.1,1.2,0,1.7-.5-1.6-1.1-3.5-1.3-5.2-.9-2.1.4-4.2.4-6.3.4s-5,.3-7.5.4c-3.3.1-5.8-1.5-7.8-3.9-1.3-1.5-2.7-3-4.1-4.4-.8-.8-1.8-1-3-1h-31.8c-13.8,0-27.6,0-41.5-.1h-3.9c-1.2,0-1.3-.2-.9-1.4.2-.6.5-1.2.9-1.7,3.8-6.3,8.2-12.4,12.3-18.6,4-6.1,8.2-12.1,12.2-18.1,2.6-3.8,5.2-7.7,7.8-11.6,1.3-2,2.6-4.1,3.9-6.2.5-.8,0-1.5,0-2.2-.3-1.5-1.1-2.9-1.5-4.4-1-3.7-1.7-7.4-1.9-11.2-.2-3.8.3-7.5,1.2-11.2.2-.8.3-1.7,0-2.5-1.8-4.1-2.1-8.5-2.5-12.8,0-1.4,0-3,0-4.4.3-4.2,0-8.4,0-12.6v-.6c0-.5-.2-1.3.5-1.5.5-.1.9.5,1.2.9,2.9,3.8,6.6,6.7,10.2,9.7,2.2,1.8,4.3,3.8,6.2,5.8,1.3,1.4,2.4,3,3.3,4.8,0,.2.2.5.3.7,1.3,1.5,2,3.3,2.1,5.3,1.6-1.3,2.3-4.2,2.9-7.1,0-.2.3-.2,0-.4v.4ZM121.6,214c0,.1.2.1.3.2v-.2h-.3c0-.2,0-.4,0-.6h-.2c0,.2,0,.4.2.6ZM418.3,199.6c0,.3.1.4.4.4.2.7.8,1,1.4,1.3-.3-.6-.5-1.3-1.4-1.3.1-.4,0-.5-.4-.4.1-.6-.4-.8-.8-1.2-2.1-3.2-3.7-6.6-5.7-9.8,0,1.9.5,3.6.7,5.4.3,1.8.7,3.7,1,5.5.3,1.7,0,3.5.9,5.3.4-1.1.2-1.8.3-2.6.1-.9-.1-1.8.2-2.7.7-2,.6-2,2.4-1.1h.2c-.1.6.3.9.8,1.2ZM123.6,215.8c-.2.6,0,.8.8,1.4-.2-.8-.4-1.1-.8-1.4s-.4-1-1.1-.9c.4.4.3,1.2,1.1.9ZM229.6,391.8c1.1-.4,1-1.4,1.4-2.3-.9.5-.9,1.6-1.4,2.3-.3.2-.4.4-.3.8h.2c.1-.3.3-.5.1-.8ZM127.8,222.5c0-.1.2-.5-.3-.4,0,0,0,.4.3.4,0,.2,0,.5,0,.7,1,2.1,2,4.3,3.1,6.4.1.2.3.2.5.1,0,.2-.1.4-.1.5s-.1.5.3.3c.1,0,.1-.2.1-.3-.1-.2-.2-.3-.3-.5-.3-1.9-1.3-3.5-2.2-5.2-.5-.6-.5-1.7-1.5-2ZM144.9,144.8c1-1.8,2-3.7,2.9-5.5-2.3,1.1-3,3.1-2.9,5.5v.2c-.1.1-.1.2,0,.1v-.3ZM404.3,163.5c-.1-.2-.2-.4-.3-.6,0,0-.1,0-.2-.1,0,0,0-.1.1-.1.3,0,0-.1,0,.2.1.2.2.5.4.6.6,2.9,1.9,5.5,2.8,8.4.6-.8,0-1.3-.1-1.9-.2-.6-.5-1.2-.6-1.8-.4-1.7-1.1-3.3-2.1-4.7ZM136.5,239.3c-.2-.2-.5-.2-.7-.1-.4.1-.8.5-1.3.4s-.3-.9-1.1-.6c0,1.6.1,3.3-.4,4.9,1.2-1.6,2.1-3.3,3.5-4.6.1-.4.6-.6.5-1.1-.3,0-.5.2-.6.4,0,.2,0,.5.1.7ZM119.3,165c0-1-.6-1.8-1.1-3.1,0,1.4.3,2.4,1.1,3.1-.2.8.3,1.5.6,2.2,1.1,2.5,1.7,5,1.1,7.7,0,.3,0,.7.3,1.2.4-1.1.5-2,.9-2.7,1-1.6.5-2.8-.6-4-.8-.8-.9-1.7-.7-2.7,0-.4.5-.8,0-1.4-.8,1-1.2,0-1.7-.3ZM134.5,267.5c0,.1.1.2.1.3,0-.1.1-.2.1-.2,0-.2-.1-.2-.2,0,.2-.4,0-.8-.3-1.2-1.1-1.6-2.1-3.2-3-4.9-.9-1.7-1.6-3.6-1.4-5.5.2-2.3.3-4.6,1.3-6.8.2-.4.3-.9.5-1.7-1.6,2.3-3.5,7.9-3.5,10.1s.1,1.4.4,2.1c1.7,2.8,3.6,5.6,6,7.9ZM434.6,260.1c-2.2-.5-2.3-.6-3.5,1.4-1.5,2.4-3.3,4.6-4.9,6.9-1.3,1.8-3,3.4-4,5.8,1-.9,1.9-1.4,2.5-2.3,2.7-3.8,6.3-6.7,9.2-10.3.3-.4,1-.8.7-1.5.1.1.3.2.3-.1-.1,0-.2,0-.3.1ZM358.1,380.9c.4.3.6-.1.8-.3,1-.9,2-1.9,3-2.7,1.8-1.5,3.9-2.1,6-2.7,3.3-.9,6.6-1.4,9.9-1.2,2,.1,4-.1,6-.1s2.7-.6,3.9-1.9c-2.2.3-4,0-5.9.2-1.6.2-3.4.1-5-.2-3.3-.7-6.4.1-9.4,1.3-3.8,1.6-6.8,4.3-9.3,7.6-.2.2-.4.5-.6.8.5,0,.7-.4.6-.8ZM240.1,377c-.6-.2-1.3.1-1.9-.2-5.8-2.6-11.5-5.4-16.6-9.4-2-1.5-3.7-3.3-5.7-5-.7-.6-1.3-1-2.2-1-2.4,0-4.8-.1-7.2-.1s-.8-.1-.8.5c.2.1.3.2.5.2.4.1.9.3,1.3.4,5,1,9.5,3.2,13.4,6.5,2.9,2.4,5.4,5.2,7.9,8,2.1,2.3,4,4.7,4.8,7.6.4.1.5-.1.6-.2,1.6-2,3.2-4.1,4.9-5.9.5-.3,1-.7,1-1.4q.1-.1.2-.2c-.1,0-.2-.1-.2-.1-.1.1-.1.2,0,.3ZM174.9,124.6c-.7,0-1.1.4-1.5.7-4.9,3.3-10,6.2-15.1,9-5.9,3.3-9.6,8.2-11.5,14.6-.7,2.3-.8,4.7-1.6,6.9,0,0,.1.2.4.4,1-1.8,2.6-3,3.9-4.5,1.3-1.5,3-2.5,4.6-3.5s2.8-2.7,4.7-3.4c.2.7-.1,1.1-.4,1.4-1.4,2-2.9,4-4.7,5.6-1.5,1.4-2.8,2.9-3.7,4.7-.6,1-1.1,2.1-.6,3.4,2.8-.8,5.3-2.1,7.3-4.1s5.1-5.7,7.1-8.9c4.3-6.8,7.9-13.9,11-21.3.1-.3.4-.6.1-1,.1,0,.2,0,.2,0v-.2c-.2,0-.3.2-.2.3ZM205,130.8c-2.3,1.9-4.1,3.9-5.9,6-3.9,4.6-7.5,9.5-10.6,14.7-2.9,4.8-5.8,9.6-7.9,14.9-2,5-4.1,10-5.6,15.3-1.2,4-2.6,8-3.3,12.1-.6,3.8-1.1,7.6-1.8,11.5-1,6.3-1.7,12.6-1.6,19,.1,4.6.5,9.1,1.1,13.7.8,6,2,11.9,3.5,17.8,1,4,2.3,7.9,3.7,11.8,1.6,4.3,3.4,8.5,5.5,12.6,1.7,3.3,3.3,6.6,5.3,9.7.4.6.7,1.2,1,1.9.6,1.8.7,1.8,2.5,1.9,12.4.3,24.8,0,37.2.2,15.2.3,30.4.1,45.6.1s37.1,0,55.6.1c6,0,12.1,0,18.1.1,6.9.1,13.8-.4,20.7-.2,1.4.1,2.3-.6,3-1.7,3.5-5.2,6.5-10.8,9.5-16.4,1.5-2.8,2.7-5.8,3.6-8.9.9-2.9,1.9-5.8,2.9-8.6,1.4-3.8,2.2-7.7,3.1-11.6.7-3.4,1.2-6.9,1.4-10.3.2-2.9.8-5.7.9-8.6.1-2.8.3-5.6.1-8.5-.1-.9.4-1.8.2-2.7-.4-1.7-.3-3.5-.1-5.1.5-3.7-.1-7.2-.7-10.8-1.5-7.8-3.3-15.5-6.3-22.8-3.2-7.8-6.5-15.6-10.3-23.1-3.1-6-7.1-11.4-11.2-16.7-.4-.5-.8-.8-1.5-1-.4,1.6-.5,3.2-.5,4.8,0,5.7.2,11.5.1,17.2-.1,5.3,0,10.6-.1,15.9,0,.8.1,1.5.1,2.3s0,.6.3.6c1,0,.9.7.9,1.3s.1,1.1.2,1.7c.3,1.6.2,3.2.1,4.8,0,.5-.5,1-.9.6-.8-.7-1.9-1.1-2.7-1.9-3.8-3.9-7.7-7.7-11.6-11.4s-8.1-7.1-12.3-10.6c-3.5-2.9-7.3-5.3-11-7.9-1.5-1.1-1.6-1.7-.6-3.1,1.9-2.5,3.2-5.3,3.6-8.4.3-2,.8-3.9,1.1-5.9.4-2.3,1-4.7,1-7,.1-3.1-.3-6.2-1.4-9.2-.3-.9-.9-1.4-1.7-1.8-1-.4-1.9-1-2.9-1.5-1.3-.7-2.7-1.2-4.1-1.8-1.6-.6-2.1-.4-3,1.1-.7,1.1-1.3,2.2-2,3.3-2.4,4.1-4.5,8.3-5.5,13-.7,3.1-1.1,6.2-.4,9.4.2,1,.4,2,.5,3,.1,1.1-.4,1.4-1.4,1.1-.4-.1-.7-.3-1-.5-4.3-2.3-8.9-4.1-13.7-5.2-2.4-.6-4.8-1.1-7.2-1.5-3-.6-6-.2-9,0-.5,0-1.1.3-1.4-.2-.4-.5-.3-1.2-.1-1.7.4-.7.9-1.3,1.4-1.9.6-.7,1.2-1.4,1.7-2.1,3.2-4.1,5.8-8.5,8.4-13,3.3-5.6,6.2-11.3,8.8-17.2.2-.5.2-1,.3-1.5.2-.6,0-1-.6-1.1-1.1-.3-2.2-.6-3.4-.9-3.9-1.2-7.9-1.7-12-1.4-2.2.2-3.4,1.2-3.8,3.3-.4,2.3-.8,4.6-1,6.9-.1,1.7-.2,3.4-.6,5-.7,2.8-.8,5.6-1.2,8.4-.6,5.4-1.1,10.9-1.6,16.3-.1.8-.4,1.2-1.1,1.4-.5.2-1,.4-1.5.5-3.8.8-7.3,2.2-10.6,4-1.6.9-3.1,1.8-4.7,2.6q-1.6.8-2.5-.8c-.6-1.1-1.1-2.3-1.6-3.5-1.9-4.6-3.8-9.2-5.7-13.7-.9-2.2-1.9-4.3-3.4-6.6-.3,1.3-.2,2.3-.2,3.2.2,2.8.2,5.7.3,8.5.2,5.5.1,10.9.5,16.4.1,1.5-.3,2.6-1.6,3.5-1.5,1.1-3,2.2-4.5,3.3-4.2,3.2-8.3,6.6-11.9,10.5-.9.9-1.5,2.1-2.8,2.7-.9-1.1-1.4-2.3-1.9-3.6-1.7-4.9-3.8-9.6-5.6-14.4-1.5-3.9-3-7.7-4.6-11.5-.6-3.4-2.1-6.8-4.1-10.2ZM466.1,348.9c.2-.7-.3-1.1-.6-1.7-2.8-4.8-5.5-9.6-8.4-14.4-3.5-5.8-6.9-11.6-10.4-17.5-1.8-3.1-3.8-6.1-5.1-9.5-.3-.9-1-1.2-1.8-1.1-1.6.1-3.2,0-4.8,0-7.7.2-15.4,0-23.1.1-9.7,0-19.3-.1-29-.1h-176c-1.6,0-3.1-.1-4.6-.2-2.5-.1-5.1.2-7.6.1-3.5-.1-6.9.2-10.4.1-3.1-.1-6.1-.1-9.2-.1s-8.6,0-12.8.1c-8,.1-15.9.1-23.9-.2-5.2-.2-10.3,0-15.5-.1-1.6,0-2.6.6-3.4,1.8-1.5,2.2-2.9,4.4-4.5,6.6-4.2,6-8.4,12-12.6,17.9-3.9,5.5-7.7,11-11.6,16.5-.3.4-.8.8-.5,1.8,125.2,0,250.5,0,375.8,0ZM235.9,90.9c.5.2.7.7,1,1.1,1,1.7,2,3.5,2.8,5.3,2,4.3,3.5,8.9,5.3,13.3,2.6,6.5,5.2,13.1,7.9,19.6,1,2.5,2.1,5,3.2,7.5.6,1.3.7,1.3,1.9.7,2.2-1,4.4-2,6.6-3.3.9-.5,1.2-1.2,1.2-2.2,0-2.2.3-4.5.5-6.7.3-3.1.5-6.3.9-9.4.3-2.7.5-5.5.9-8.3.6-4,1-8.1,1.4-12.1.3-3.5.6-6.9,1-10.4.3-3.1.6-6.2.9-9.2.4-3.4.7-6.8,1.1-10.2.4-4,.9-8.1,1.3-12.1.4-4.8.5-9.6,1.2-14.4.6-4.2,1.3-8.3,3-12.2,1.2-2.8.8-3.2-2.2-3.3-3.7-.1-7.5.2-11.2.6-1.2.1-1.4.3-1.5,1.5-.1,1.5-.2,3-.3,4.4-.2,3-.6,6-.6,9.1s-.4,5.4-.5,8.1c0,1,0,2-.1,3.1-.2,2.6-.5,5.3-.6,7.9-.1,4.6-.7,9.1-.9,13.7-.1,3.3-.5,6.5-.7,9.8-.1,1.9-.3,3.7-.8,5.5-.1.3-.2.6-.6.7s-.6-.2-.7-.5c-.2-.3-.3-.6-.5-.8-1.2-2.3-2.4-4.6-3.6-6.9-1.3-2.6-2.8-5.1-4-7.7-2.1-4.6-4.2-9.2-6.1-13.8-1.3-3.2-3-6.1-4-9.4-.9-2.9-1.9-5.8-3.1-8.5-.5-1.1-.8-2.3-.9-3.5-.1-1.3-.2-1.4-1.6-1.1-2,.4-3.8,1-5.7,1.9-2.3,1.1-4.5,2.5-6.9,3.5-1.1.4-1.3,1-.4,1.9,1.3,1.4,1.9,3.1,2.5,4.8.7,2,.9,4.1.8,6.1,0,6.1-.1,12.3,0,18.4.1,4.4-.8,8.8-.4,13.3.2,2.5-.1,5-.1,7.5-.1,1.5-.3,3.1-.8,4.6-.6,0-1-.5-1.3-.9-2.2-3.1-4.5-6.2-6.4-9.4-3.2-5.4-6-11-8.9-16.6-1.7-3.2-3-6.6-4.7-9.8-2.1-4.1-3.9-8.3-4.7-12.9-.4-2.5-.5-2.5-2.9-1.5-5,2.2-9.4,5.3-14,8.3-.7.5-1.4.9-2.1,1.4-.7.6-.7,1,.1,1.5s1.7.8,2.6,1.2c1.4.6,2.6,1.4,3.4,2.7,3,4.9,5.5,10.1,7.7,15.4,1.3,3,2.5,6.1,3.9,9,2.6,5.6,5.3,11.2,7.7,16.9,3.4,8,7.1,15.7,10.5,23.7,2.2,5.1,4.5,10.1,6.5,15.3,1.5,4.1,3.1,8.2,4.6,12.3.6,1.7,1.5,1.9,2.9.8.8-.6,1.4-1.3,2.2-1.9,1.9-1.5,3.4-3.4,5.1-5,.5-.5.6-1.1.6-1.8,0-3,.1-5.9,0-8.9v-36.7c0-3.3,0-6.6.1-9.9.1-.4,0-.8.5-1.1ZM316.7,106.8c.3,0,.5,0,.8,0,1.5.5,3.1.9,4.6,1.4,2.4.9,4.8,1.8,7.2,2.8,2.4,1,4.9,1.9,7.1,3.5,1,.8,1.5,1.6,1.5,2.9,0,4.8.3,9.5,0,14.3-.2,4.4-.4,8.8-.7,13.1-.1,1.9-.5,3.8-1.7,5.5-1.1,1.4-1,1.4.4,2.5,1.7,1.2,3.3,2.5,5,3.7,4.5,3.4,9,6.7,12.7,11,.3.3.5.9,1.1.7.5-.2.5-.8.4-1.2-.4-2-.1-4-.1-5.9,0-3.5-.1-7-.1-10.4.1-4.2.1-8.5.1-12.7v-61.3c0-1.1.1-2.2.1-3.3-.1-6.4-.2-12.9.2-19.3.1-1.2.3-2.5.1-3.7-.4-2.4.6-4.4,1.7-6.4.8-1.3.9-1.3-.2-2.3-.3-.3-.6-.5-.9-.7-2.4-1.5-4.7-3.2-7-4.8-1.8-1.2-3.6-2.4-5.8-3-.9-.2-1.2,0-1.3.8-.1.8-.3,1.6-.6,2.4-1.2,3.2-2.7,6.3-4.4,9.2-4.8,8-8.9,16.4-13.3,24.7-2.9,5.4-5.6,10.9-8.6,16.2-3.2,5.8-6.1,11.6-9.4,17.4-5.1,8.9-9.6,18-14.9,26.7-.3.5-.7,1.1-.8,1.8-.2,1,0,1.4,1.1,1.6,3.3.4,6.4,1.5,9.5,2.4,1.5.4,1.8.3,1.9-1.1.4-4,1.8-7.6,3.3-11.3,1.3-3.3,3.3-6.3,4.8-9.5,1.3-2.5,2.7-5,4.8-7,.4-.4.7-.9,1.4-.8ZM236.7,414.7c.1.8.2,2.3.4,3.7.5,3.7,1.5,7.2,2.8,10.6,1.6,4.4,3.9,8.3,7.1,11.6,6.7,6.9,15.1,10.9,24.5,12.7.9.2,1.8,0,2.7,0s1.2-.4,1.3-1.3c.4-3.4-.3-6.8-.3-10.2s-.2-4.5-.4-6.7c-.4-3.5-.6-7.1-1.2-10.6-.2-1.3-.9-2.2-2.1-2.8-4.2-2.3-6.2-6.6-5-11.3.4-1.4-.1-2.1-1-2.7-1.8-1.2-3.3-2.7-4.9-4-4.4-3.7-8.9-7.3-13.1-11.2-.6-.5-1.3-.8-2-1.1-1.2-.5-1.9-.3-2.6.8-1.7,2.8-3.1,5.6-4.2,8.7-1.6,4.2-1.8,8.6-2,13.8ZM182.1,291.3c-.6-1.3-1.2-2.6-1.9-3.8-2.2-3.9-4.3-7.8-6.2-11.8-2.4-4.9-4.2-10-5.6-15.2-1.5-5.5-2.4-11.2-3.7-16.8-.5-2.3-.4-4.7-.8-7.1-.4-1.8-.6-3.7-.7-5.5-.2-6.9-.2-13.8,0-20.8,0-.5,0-.9.3-1.3.4-.7.5-1.5.5-2.2.4-6.1,1.4-12.1,2.9-18.1,1.2-4.9,3-9.7,4.7-14.5,2.5-6.9,5.1-13.8,8.4-20.3,2.4-4.7,5.2-9.2,8.3-13.5,3.5-4.9,7.1-9.6,11.6-13.8.7-.7,1.2-1.5,1.8-2.3.3-.3.4-.7.1-1-.7-.8-.7-1.9-1.3-2.8-.6-1-.9-2.3-2-3-1.3,1-2.5,2-3.5,3.2s-1.1,1.3-1.6,1.9c-2.4,2.9-5.1,5.4-7.2,8.5-3.1,4.5-6.1,8.9-9,13.5-2.6,4.3-5,8.7-7.4,13.1-2,3.7-3.4,7.8-5.1,11.7-2.6,6.1-4.7,12.4-5.9,19-1.1,5.8-1.8,11.6-2.4,17.4-.3,2.4-.3,4.9-.6,7.3-.4,2.6-.7,5.1-.6,7.7.2,7,.9,13.9,1.9,20.8.9,6.3,2,12.6,3.7,18.8,2.5,9,5.7,17.7,10.6,25.7.9,1.4,1.7,2.9,2.4,4.4.4.8.9,1.1,1.6,1.1,1.7.2,3.5.2,5.2.2.4.3,1,0,1.5-.5ZM406.7,217.7c-.1-3.4-.1-7-.3-10.6-.2-4.1-.9-8.2-1.5-12.2-.7-4.3-2-8.5-3.2-12.7-1.6-5.4-3.4-10.7-5.4-15.9-2.7-7.1-5.6-14.1-9.5-20.7-4.4-7.5-8.9-15-14.7-21.5-2.1-2.4-4.2-4.7-6.6-6.8-1.2-1-1.8-.8-2,.8-.1.4,0,.9,0,1.4-.1,1.5.2,3-.1,4.4-.3,1.1.1,2,.8,2.8,2,2.5,4,5,5.9,7.6,3.4,4.6,6.4,9.4,9.4,14.2,2.9,4.6,5.8,9.1,7.9,14.1,4,9.3,7.2,18.8,9.4,28.6.9,4,1.5,8,2.1,12,.6,4.2,1.1,8.4,1.2,12.7,0,5.5-.2,11-.7,16.4-.6,6.8-1.6,13.4-3.3,20-1.5,5.9-3.4,11.6-5.9,17.2-1.7,3.9-3.5,7.8-5.4,11.6-1.6,3.3-2.8,6.9-5.1,10-.4.5-.7,1.1-.8,1.8-.1,1,.1,1.3,1.1,1.4,1.6.1,3.1,0,4.7,0s2.5-.6,3.2-1.8c.9-1.6,1.8-3.3,2.7-4.9,1.9-3.3,3.2-6.9,4.9-10.3,1.2-2.4,2.2-4.8,3-7.3,1.5-4.6,3.2-9.1,4.1-13.9.7-3.8,1.8-7.6,2.2-11.6.4-4,.9-7.9,1.3-11.9.4-4.9.7-9.8.6-14.9ZM282,436.8c-.4,4.2,0,8.4,0,12.6s.2,1.5.3,2.3c.3,1.5.7,1.8,2.1,1.4,4.4-1.4,8.8-2.7,12.7-5.2,3.9-2.5,7.5-5.4,10.3-9,3.3-4,5.8-8.5,7.4-13.5.9-2.8,1.8-5.4,1.9-8.4.1-2.6.2-5.3,0-7.9-.1-2.2-.9-4.1-1.2-6.2-.4-2.9-1.7-5.4-3-7.9-.8-1.4-1.4-1.5-2.8-.7-.4.3-.9.5-1.3.8-4.6,3.4-9.4,6.7-14.1,10-1.4,1-3,1.8-4.2,3.1-.4.4-.9.9-.7,1.5.6,1.5.2,3-.1,4.4-.7,3.4-1.6,6.7-5.4,8-1.3.5-2,1.4-2,3,.1,4,.1,7.9.1,11.7ZM277,373.2c-1.7,0-3.4.2-5,.4-3.7.4-7.2,1.4-10.6,2.7-2.8,1.1-5.4,2.7-7.9,4.4-1.4,1-2.7,2.1-3.9,3.4-.6.7-.5,1.3,0,1.9.2.3.6.5.9.8,4.5,3.4,9.1,6.8,13.5,10.3,2,1.6,4.4,2.5,6.3,4.1.9.8,1.7,1.1,2.9.4,3.1-1.5,6.3-1.7,9.5-.5,1.4.6,2.6.3,3.8-.5,2.5-1.6,5-3.2,7.6-4.6,3.7-2,7.1-4.5,10.7-6.6,2.7-1.6,2.6-1.8.5-4.1-5.3-5.8-11.9-9.4-19.5-11.2-2.9-.4-5.8-.9-8.8-.9ZM157.8,112.7c.1,0,.2.3.3.4-1.3,1.9-2.6,3.8-3.8,5.8s-2.1,4.2-3.5,6c-.9,1.2-1.9,2.4-3,3.6-1.8,2-2.2,4.2-1.6,6.9,1.6-1.2,3-2.3,4.4-3.5,2.7-2.2,5.1-4.8,7.5-7.2,4.5-4.5,8.4-9.6,11.7-15.1,2.6-4.4,4.4-9.2,5.6-14.1.1-.5.3-1-.1-1.4-.5,0-.8,0-1.1.3-2.2,1-4.3,2-6.6,2.9-6.5,2.6-12.3,6.2-17.1,11.3-2.4,2.6-4.6,5.3-6,8.5-.9,2.1-1.2,4.4-1,7,4.9-4.1,8.7-8.9,14.3-11.4ZM409.2,120.7c.8.6,1.5,1.3,2.2,2,1.1,1.2,2.3,2.4,3.6,3.5.8.7,1.3.4,1.3-.6.2-4-.9-7.6-3.2-10.9-1.3-1.9-2.8-3.5-4.5-5.1-3.6-3.4-7.5-6.5-11.5-9.5-3.4-2.6-7.1-5-10.2-8-.3-.3-.5-.6-1.1-.3,0,2.1-.1,4.3.2,6.5.5,5.3,1.8,10.5,3.7,15.4,2.1,5.5,6.2,9.4,11.5,12,.3.2.7.5,1,0,.2-.3.1-.6-.1-.9-2.1-3.7-3.3-8-5.8-11.6-.2-.3-.4-.7,0-1,.3-.3.7-.2,1.1,0s.7.4.9.7c1.7,1.8,3.4,3.5,5.1,5.3,1.9,2,3.8,4,5.3,6.5.6-1.3-.5-2.6.5-3.9ZM340.3,362.5c-1.2-.5-2.2-.1-3,.5-1.7,1-3.3,2.2-4.8,3.6-.9.8-1.8,1.7-2.8,2.4-4.2,3.2-8.6,6.1-13.3,8.6-.5.3-1,.5-1.4.2-.9-.7-1.9-1.3-2.5-2.4-.3-.5-.2-1,.2-1.4.4-.3.7-.8,1.2-1,1.4-.9,2.9-1.7,4.4-2.4,3.9-1.9,7-4.8,10.3-7.5.1,0,.1-.1.1-.1.2-.4.3-.8-.2-.9-.4-.1-.9-.1-1.3-.1-2.1-.1-4.1.1-6.2-.3-1.5-.2-2.9.2-4.2,1-3,1.7-6,3.4-9.2,4.9-1.8.8-3.4,1-5.1-.2-.4-.3-.8-.4-1.2-.7-1.2-.8-1.2-.9,0-1.6,1-.6,2.1-1.1,3.1-1.7.7-.4.7-1.1.6-1.7-.1-.5-.7-.5-1.2-.5h-49.9c-2,0-4-.1-6-.1s-1.2-.1-1.4.7c1.8,1.3,3.7,2.2,5.8,2.7.8.2,1.7.4,2,1,.7,1.2,1.5.9,2.4.5,4.2-1.9,8.8-2.7,13.3-3.4,3.2-.5,6.4-.5,9.6-.7h.6c2.9.7,6,.5,8.9,1.4,2,.6,4.1.8,6,1.5,3.8,1.4,7.4,3.3,10.7,5.8,3.5,2.7,6.9,5.6,9.8,9,1.2,1.4,2.4,2.9,3.5,4.4.8,1.1,1.3,1,1.9-.3.1-.2.1-.4.2-.5.7-2.5,2.1-4.5,3.6-6.5,1.9-2.4,4.5-4,7-5.8,2.9-2,5.4-4.3,7.9-6.8.3-.3.6-.8.6-1.6ZM449,276.9c2.3-1,4-2.5,6.1-3.5,2.7-1.3,4.3-3.4,5.3-6.1,2.1-6,4.3-12,4.8-18.5.2-2.2.2-4.4,0-6.6,0-.4-.1-1-.6-1.1-.5-.2-.8.2-1.1.6-1,1-1.9,2-3,2.9-6.5,5.1-11.8,11.2-15.6,18.5-1.7,3.2-2.5,6.7-2.4,10.4,0,.3-.1.7.3.8.3.1.6-.1.9-.3.2-.2.4-.3.6-.5,2.4-2.3,4-5.2,5.5-8.1.5-1,1.2-1.8,1.9-2.7.2-.2.4-.3.7-.2.2.1.3.4.2.7-.1.3-.2.6-.4.9-.8,1.5-1.4,3.2-2,4.8-1,2.6-1.5,5.1-1.2,8ZM118.3,282.4c1.1-4.2,1.1-8.2.9-12.2,0-1.7-.4-3.4-1.2-5-1.1-2.4-2.6-4.4-4.3-6.4-2.5-2.7-5.4-4.9-8.2-7.4-1-.9-2.1-1.9-3.2-2.8-.8-.6-1.3-.3-1.3.7v3.5c0,3.8.5,7.6,1.1,11.3.6,3.8,1.7,7.5,3,11.2.7,2.1,1.5,4.2,3.1,5.7,1.3,1.2,2.4,2.5,3.6,3.7s1.3,1.2,2.4,1.3c-.3-2.3-.7-4.4-1-6.5-.4-3.3-.3-5.4.4-6.6.7,3.7,1.8,6.9,4.7,9.5ZM420.2,147.5c.9,0,1,.7,1.3,1.2,2.4,3.6,4.7,7.2,7.3,10.7.8,1.1,1.7,2.3,3,3,.7.4,1.3.9,1.6,1.6.1.3.4.5.6.8.3.3.7.5,1.1.3.3-.2.2-.6.2-.9-.1-1.3-.4-2.7-.5-4-.2-2.1-1.4-3.7-2.1-5.6-2-4.7-4.6-9.1-7.6-13.3-2.7-3.7-6-6.9-9.7-9.6-.7-.5-1.1-1.4-2.1-1.6-.2,3.5-.6,7-.2,10.5,0,.4.1.8.1,1.2-.3,3.5.2,6.8,1.5,10,.3.7.4,1.4.5,2.1.4,2,1,3.9,1.9,5.7.8,1.6,1.7,3.2,2.7,4.7.9,1.6,2.4,2.8,3.9,4,1,.8,1.8.4,2-.8.1-.3,0-.6-.1-1-.2-1.5-.1-3.1-1.3-4.3-.3-.3-.3-.8-.4-1.3-.7-4-2.3-7.7-3.2-11.5-.3-.6-.8-1.1-.5-1.9ZM458.1,213.6c.6.5.4.9.3,1.3-.9,5.1-1.8,10.1-2.9,15.2-.5,2.3-.2,4.5.2,6.7.2.8.6.9,1.3.5.3-.2.6-.5.9-.7,4.2-3.1,5.3-7.8,6.5-12.4.7-2.6,1.2-5.4.4-8.2v-.4c.7-6.1-.5-12.2-1.1-18.3-.1-1.3-.4-1.4-1.3-.6-3.8,3.1-6.6,7-9.4,11-1.9,2.8-3.2,6.1-4.2,9.5-.9,3.1-.8,6.1.8,9,.5.9,1,1.7,2,2.2.4-1.5.7-3,1.2-4.4.3-.9.7-1.7,1.3-2.4,1.9-2.3,3.1-5.1,4-8ZM108.4,243.5c0-.7,0-1.3,0-1.7-.8-5.7-1.7-11.4-2.5-17.2,0-.7-.3-1.3,0-2,.7.1.8.6,1,1,.6,1.6,1.3,3.1,1.8,4.7.7,2.4,1.7,4.7,2.6,7.1,0,.3.2.6.7.5,1-3.3,1.7-6.7,1.8-10.2,0-1.7,0-3.4-.6-5-1-2.4-1.9-4.8-3.2-7.1-2.2-4-4.5-8-7.3-11.6-1-1.3-1.8-3-3.3-3.8-.8.7-.5,1.5-.7,2.3-.6,2.1-1.2,4.3-1.3,6.4,0,2.6.2,5.3.4,7.9.8,8,2.8,15.6,6,22.9,1.1,2.2,2.3,4.2,4.5,5.8ZM132.2,152.9c-1.1,3.8-1.6,7.3-1.9,10.9-.2,3.6-.5,7.1.9,10.7,1.1-.8,1.3-1.9,2.1-2.5,1.5-1.2,2.2-2.8,2.6-4.6.3-1.5.5-3.1,1.1-4.5.7-1.6,1.1-3.3,1.5-5,.6-2.5,1.1-5,2.1-7.4.3-.7.4-1.4.4-2.1-.1-1.4.3-2.8.5-4.2.1-.7.4-1.4.3-2.1-.1-3,1-6,.9-9,0-.6.2-1.2-.4-1.5-.6-.3-1.1.1-1.4.6-.1.1-.1.2-.2.3-3.2,3.6-5.7,7.7-9,11.1-.3.3-.5.6-.6,1-.5,1.5-1.4,2.9-2.2,4.3-2.5,4-3.8,8.4-4.5,13.1-.3,2.2-.7,4.3-.6,6.5,0,1.2.3,2.4,1.6,3.2,0-1,.4-1.9.7-2.7.4-1,.7-2,.9-3.1.6-3.5,1.4-7,3.2-10.1.6-.9.7-2,2-2.9ZM439.5,239.5c.5,1.5.4,3.1.3,4.7,0,.7-.2,1.4-.1,2.1.5,2.5.5,5,0,7.5-.2,1.3-.2,2.6.4,3.8.5.9,1.3,1.1,2,.3,2.6-2.8,4.4-6,5.1-9.8.8-4.3,0-8.5-1.3-12.6-.6-2-1.5-3.9-2.1-5.8-.8-2.6-1.9-5.2-1.8-8.1,0-.7,0-1.5-.8-2-.2.3-.4.4-.5.7-2.4,4.1-4.6,8.4-6.3,12.8-1.8,4.4-3.9,8.8-3.2,13.9.4,3.2,1,6.2,3.2,8.7.3.3.5.8,1.1.7.5-.1.8-.6.8-1.2,0-1.6.2-3.2.2-4.8-.1-3.9,1.3-7.4,2.9-10.9-.2,0-.1,0,0,0ZM140.1,185.2c.6.4.4.7.3,1-.6,2.4-1.7,4.7-2.9,7-.9,1.7-1.7,3.3-2.2,5.1-.3,1.2-.7,2.5,0,3.7.9-.3,1.5-.9,2.1-1.5,1.1-1.2,2.3-2.5,3.4-3.7,3.3-3.8,6.1-7.9,8-12.7,1.8-4.6,3.2-9.3,4.9-13.9.6-1.6.7-3.4,1.4-5,.1-.3.1-.7-.1-.9-.4-.4-.7,0-1,.3,0,0-.1.1-.2.1-4.8,3.8-9.7,7.5-14.1,11.8-4.2,4.2-7.3,9-8.6,14.8-.4,1.8-1.3,3.6-.2,5.5,2.4-1.2,3.3-3.7,5-5.5,1.8-1.8,2.9-4.1,4.2-6.1ZM355.1,390.1c1.5-.1,2.7-1.1,4.1-1.6,1.4-.4,2.8-1,4.2-1.4,1.5-.4,3-.8,4.5-1.2,1.4-.4,2.9-.8,4.3-1.1,1.3-.3,2.7-.9,4.2-.7-.2.5-.4.8-.7.9-1.3.5-2.6,1.1-3.9,1.6-3.2,1.2-6.5,2.2-8.9,4.9-.4.4-.9.5-1.4.6-1,.2-1.8.8-2.3,1.8.8.4,1.4,0,2-.2.5-.2,1.1-.5,1.6-.5,2.7-.4,5.5-.9,8.2-1.3.9-.1,1.8-.4,2.6-.6,3.3-.9,6.3-2.6,9.3-4.2,3.3-1.6,5.8-4.1,8.1-6.8,1.3-1.4,2.6-2.8,3.6-4.7-1.5.2-2.8.4-4.2.4-6.8.3-13.5.8-20.2,1.9-2.7.4-4.9,1.6-7.1,3.3-2.2,1.7-4,3.8-6,5.7-.7,1.1-1.4,2.1-2,3.2ZM435.9,153.5c.3-1.6.1-3.2-.2-4.7-.5-2.1-1-4.1-1.6-6.2-.1-.6-.2-1.1,0-1.7.3-.8.7-.9,1.2-.3.4.5.7,1.1,1,1.7.6,1.3,1.2,2.6,1.8,3.9,1,1.9,1.7,3.9,1.8,6.1,0,.9.2,1.8.7,2.6.3.5.6.6,1.1.2,2.6-2.6,4-5.6,3.2-9.4-.4-2.1-1.3-3.9-2-5.8-1.5-3.7-3-7.4-5.6-10.6-1.5-1.9-2.8-3.9-3.9-6-.8-1.4-1.7-2.7-2.6-4-1.1-1.4-1.9-1.3-2.6.3-.5,1.1-.6,2.4-.7,3.6-.1,2.4.1,4.7-.9,7.1-.5,1.1-.3,2.5,0,3.8.2.9.5,1.9.6,2.8.2,1,.7,1.9,1.3,2.7,1.2,1.4,2.6,2.6,3.2,4.3,1,2.8,2.4,5.4,3.2,8.3.2.3.3.9,1,1.3ZM432,171.9c-.5.2-.5.5-.6.8-.6,4.9-1.2,9.7-1.6,14.6-.5,5.6-1,11.3-.3,17,.4,3.5,2.9,5.5,5,8.4.5-3.6,1.4-6.7,1.3-10-.1-1.2-.5-2.4-.4-3.6.2-2.7-.7-5.2-1.2-7.8-.1-.8-.3-1.4-.1-2.2.1-.4.1-.8.6-.8.5-.1.9.2,1,.7.3.9.5,1.7.8,2.6,1.6,5.3,3.3,10.5,3.1,16.1,0,.9-.2,2,.5,2.9,2-1.3,2.8-3.1,2.9-5.2.3-4.7.1-9.4-1.2-14-.9-3-1.7-6.1-3.3-8.9-.9-1.6-1.9-3.2-2.9-4.8-1.1-2-2.1-4.1-3.6-5.8ZM119.1,216.7c-.5.2-.5.4-.5.6.4,4.7-1.1,9.1-2.3,13.4-1.1,3.9-2.3,7.8-2.6,11.9,0,1.4-.2,2.9.3,4.2.6,1.4,1.3,2.8,2.4,4,1.7,1.8,3.3,3.6,4.8,5.6.3.3.5.9,1.4.8-.8-1.5-1.3-2.9-1.7-4.3-.4-1.5-.5-3.1-.6-4.6s0-3.1.2-4.6c.5-3.1.4-3.1,1.3-4.2.5.6.4,1.3.5,2,.3,2.8.7,5.5,1.8,8,.3.6.5,1.3,1.4,1.6.7-.6.7-1.6,1-2.4,1.7-4.7,2-9.5.8-14.4-1-4.2-2.8-8-4.8-11.8-1.2-2.1-2.1-4.1-3.4-5.8ZM328.4,408.2c1.8-2.1,3.9-3.6,5.9-5.3,2.5-2.1,5.1-3.9,8.1-5.3,3.3-1.5,6-3.7,7.8-6.9.9-1.6,1.8-3.1,2.7-4.7,1.1-1.8,2-3.7,3.4-5.4.5-.6,1.3-1.1,1.3-2.1-.7.1-1.3.2-1.9.3-2.3.5-4.6,1.1-7,1.5-3.9.7-7.2,2.5-10,5.2-3.8,3.6-7.7,7.1-10.6,11.5-.4.7-1,1.2-1.9,1-.1.9.1,1.5.7,2.1.7-1.3,1.7-2.2,3.2-2.5,2.6-.5,4.5-2.1,6.1-4.1,1-1.3,2.5-1.8,3.9-2.7.4.8.3,1.4-.1,1.8-1,1.1-1.6,2.5-2.5,3.7-2.1,2.8-4.7,5.1-6.9,7.8-.9,1-1.7.7-2.9.1,0,1.4-.2,2.6.7,4ZM133,107.1c-.8.4-1.1.9-1.4,1.3-1.2,1.8-2.2,3.6-3,5.6-1.1,2.7-2.2,5.3-3.3,8.1-2.1,5.5-4.5,10.9-5.5,16.9-.6,3.6-1,7.2-.4,10.9,0,.6,0,1.2.5,1.6.3-.2.4-.5.5-.8,1.6-4.6,3.2-9.3,4.8-13.9,1.3-3.9,2.7-7.8,4.3-11.6.2-.5.3-1.3,1.1-1.4.3.4.2.8.1,1.2-.6,3.6-1.3,7.2-2,10.8-.1.8-.2,1.5,0,2.3.3,1,.5,1,1.3.4,1.8-1.4,2.6-3.4,3.3-5.3,1.3-3.5,1.5-7.3,1.7-11,.2-2.9-.4-5.6-.5-8.5-.2-2.2-.6-4.3-1.5-6.6ZM429.1,278.5c.3.6.2,1.1.1,1.7-.3,2.2-1.3,4.2-2,6.2-.7,2.1-.8,4.3-.3,6.5.2.6.3,1.3,1.1,1.4.8.1,1.6.1,2.1-.9,1.9-3.7,3.4-7.5,4.2-11.6.9-4.5.9-9,.6-13.5-.1-1.1,0-2.3-.8-3.4-.6.8-1,1.6-1.6,2.3-1.4,1.9-2.6,3.9-4.2,5.5-3.8,3.7-7.2,7.7-9.9,12.3-1.1,1.9-1.9,3.9-1.5,6.2.5,2.9,1,3.3,3.9,3.1.9-.1,1.5-.4,1.8-1.4,1.2-4.3,3-8.3,4.9-12.4.3-.8.6-1.6,1.6-2ZM140.4,247.9c.5,1.5.2,2.8-.3,4-1,2.7-2,5.4-3.1,8.1-.4,1.1-.7,2.2-.7,3.4s.4,1.3,1,1.7c.7.4,1.3-.1,1.7-.5.5-.4.9-.9,1.4-1.3,4.3-4.3,6.3-9.5,5.9-15.5-.2-3.5-.8-6.9-1.2-10.3-.1-1-.2-1.9-.5-2.8-.2-.7-.6-1-1.2-.3-.9,1-2.2,1.5-3,2.6-1.9,2.5-4,4.9-5.3,7.8-.3.6-.5,1.3-.9,1.9-1.9,2.6-2.3,5.7-2.8,8.7-.1.6,0,1.2,0,1.7,0,.9.5,1.4,1.2,1.9.5.3.9.3,1.1-.2.6-1.2,1.6-2.1,2.1-3.4.6-1.5,1.3-2.9,2.2-4.3.8-1.1,1.1-2.3,2.4-3.2ZM193.2,390c-1.7-1.1-3-2-4.4-2.9-3.4-2-6.9-4-10.4-6.1-.3-.2-.8-.3-.6-.8.2-.6.6-.2,1-.1.3.1.6.1.9.2,4.5,1.9,9.1,3.2,13.7,4.8,1.3.4,2.6.5,4,.5s1-.1,1.2-.8c.4-1.9-1.7-5.1-3.6-5.4-3.3-.5-6.4-1.4-9.6-2.3-2.7-.8-5.4-1.4-8.1-1.6-3.3-.3-6.5.6-9.8.4-.5,0-1.1-.1-1.6.1-.1.9.5,1.3.9,1.7,3,3,6.2,5.7,9.5,8.2,3.2,2.4,6.6,4.4,10.6,4.9,2,.4,4.1.7,6.3-.8ZM451.4,154.6c-.4.3-.6.7-.8,1.1-1,1.9-2.1,3.8-3.1,5.8-1.9,3.7-3.5,7.6-4,11.8-.2,2-.1,3.8.9,5.6.9,1.6,1.7,3.2,2.4,4.8.4,1,.7,2.3,1.7,3.3.6-1.7.2-3.3.1-4.9-.2-2.6-.8-5.2-.3-7.9.1-.6-.2-1.7.7-1.8.9-.1.8,1,1,1.6,1.1,5.7,2.3,11.4,3,17.1.1.8,0,1.7.5,2.4.7-.1,1.1-.6,1.5-1.1,1-1.2,1.7-2.6,1.8-4.2.2-2,.9-3.9.6-5.9-.9-4.6-1.9-9.1-3.2-13.5-.8-2.6-1.5-5.2-1.8-7.9-.3-2-.7-4.1-1-6.3ZM192.1,399.2c2.4,2.1,4.6,4,6.8,5.9.4.3.9.5,1.4.7,2.5,1.3,5.1,2.1,7.8,2.9,5.1,1.5,10.2,2.4,15.3.5.4-.1.8-.1.9-.5.1-.5-.4-.6-.8-.7-.6-.2-1.1-.4-1.6-.5-3.8-.9-7.5-2.5-11.2-3.7-.7-.2-1.4-.4-1.7-1.1.3-.6.8-.5,1.2-.5,1.2.1,2.3.2,3.5.3,3.3.3,6.5,1,9.8.5.8-.1,1.7-.3,2.4-.6.5-.2.9-.9.3-1.2-2.1-1-4-2.4-6.4-2.5-3.2-.2-6.4-.8-9.6-1.1-1.5-.1-3-.4-4.4-.3-2.6.1-5.3.3-7.9.7-1.9.2-3.8.5-5.8,1.2ZM119.1,210.4c1.5-4,1.3-8.4,3.8-12,.4,1.1.5,2.3.6,3.4.3,3.7.9,7.3,2.1,10.8.5,1.5,1.3,2.9,2.4,4.1.8-.7,1-1.6,1.2-2.5.6-3.1.4-6.2,0-9.3-.4-3.5-1.2-7-1.8-10.4-.5-2.8-1-5.7-1.8-8.5-.6-2.2-1.7-4.2-1.6-6.6-.6.2-1.1.5-1.3.9-.6,1.1-1.2,2.1-1.5,3.3-.8,3-1.6,6-2.3,9-1.2,4.7-2.2,9.4-2.3,14.3,0,.6,0,1,.5,1.4.5.8,1,1.6,2,2.1ZM126,263.5c-.2.1-.3.1-.3.2-.3.9-.6,1.8-.8,2.8-1.2,5.1-2.7,10.1-2.2,15.6.3,3.1,1.8,5.3,3.9,7.3.7.7,1.3.4,1.5-.5.1-.2.1-.5.1-.8.2-1.1.4-2.3.4-3.5s-.2-1.2.5-1.3c.8-.2.9.6,1.2,1,0,.1.1.1.1.2,1.1,2,2,4.1,2.6,6.2.1.4.2,1,.7,1,1.1.1,2.5.5,3.4-.2.7-.5.1-1.6-.1-2.4-.1-.2,0-.4-.1-.6-.8-4.5-2-8.9-3.5-13.3-1.2-3.4-2.9-6.6-5.1-9.5-.8-.8-1.4-1.7-2.3-2.2ZM335,413.5c1.4,0,2.8.1,4.1.1,1.9-.1,3.7-.2,5.6-.5,4.1-.6,7.6-2.5,10.8-4.9,3-2.3,6-4.6,9.1-7,.3-.3.8-.4.7-1-.4-.4-1-.2-1.4-.2-3.7.2-7.5.4-11.2.7-4.8.4-9.4,1.5-13.8,3.4-1.5.6-2.9,1.5-4.3,2.2-.5.3-.8.7-.7,1.3.1.7.7.7,1.2.7h1.2c1.7-.1,3.4-.5,5.2-.8,1-.2,2.1-.5,3.1.1-3.7,1.3-6.5,3.8-9.6,5.9ZM219.3,377.4c1.2.6,2,1.4,2.8,2.1,1.9,1.8,3.8,3.6,5.8,5.4.9.8,1.9.7,2.6,0,.8-.8-.1-1.3-.4-1.8-3.4-4.5-7-8.7-11.6-12.1-3.1-2.3-6.4-4.1-10.1-5.2-.9-.3-1.8-.6-2.8-.3.5,1.2,1,2.1,1.9,2.8.7.6,1.3,1.4,1.7,2.3.6,1.3,1.3,2.7,1.9,4,.4.9,1,1.6,1.8,2.2,2.7,2.2,5,4.9,6.1,8.2,1.3,4.1,3.6,7.5,6.8,10.5,1-1.2.9-2.7,1.3-4,.3-.9,0-1.5-.5-2.1-2.3-3-4.3-6.3-6.4-9.4-.6-.6-1-1.4-.9-2.6ZM113.4,182.3c1.6-1.8,2.4-4.2,1.9-6.4-1.1-5.1-1.8-10.3-3.4-15.3-.5-1.5-.5-3-1.1-4.4-.4,0-.5.3-.6.5-1.4,3.5-2.9,6.9-4.2,10.4-2.7,7.3-2.9,14.6-.5,22,.5,1.4.9,3,2.1,4.1,2.5-5.9,1.2-12.3,2.5-18.4,1,2.4,2.1,4.9,3.3,7.5ZM140.1,211.4c0,.2.2.4.1.6-.9,2.6-1.5,5.3-2.5,7.8-1.5,3.9-2.2,7.9-3.2,11.9-.1.3-.1.6-.1,1,.1,1.3.8,1.6,1.8.8.6-.4,1.1-.9,1.6-1.4,4-4.4,6.2-9.6,6.7-15.5.4-4.4-.1-8.7-.9-13.1-.4.3-.7.4-.9.6-2.1,1.9-4.2,3.8-6,6-3,3.5-5.4,7.4-6.7,11.9-.4,1.4.2,2.2.9,3.1.2.3.7.5.9-.2.4-1.5,1.5-2.6,2.3-4,1.8-3.1,4.3-5.7,5.5-9.2,0-.2.3-.2.5-.3ZM141.2,286.6c1.2-1.2,2-2.4,2.5-3.8.7-2,1.7-3.9,2.1-6,.1-.3.2-.8.8-.7.6,0,.7.5.8,1v.8c-.2,2.5-.5,5-.6,7.5-.1,1.8-.3,3.6.4,5.4.2.5.3.9,1,1.1,2.3.5,3.7-.7,3.8-3.1,0-3.2.1-6.5,0-9.7-.1-4.8-.7-9.5-1.7-14.2-.1-.4-.1-.9-.8-1-.2.2-.4.4-.6.7-3,3.4-5.5,7.1-8.1,10.8-.5.7-.8,1.4-.5,2.2.4,1.4.3,2.8.3,4.2-.2,1.5.3,3,.6,4.8ZM417.3,241.2c-.6.5-.5,1.2-.6,1.8-.5,3.4-.7,6.8-1.6,10.1-1,3.8-1,7.5-.7,11.3.1,1.4.4,2.8,1.2,4,.3.5.7,1.1,1.5,1s1.1-.7,1.3-1.3c1.4-4.7,2.3-9.4,1-14.3-.2-.8-.3-1.5.5-2.4,1.3,2.2,1.2,4.6,2.2,6.8,1,2.3.1,4.8.7,7.2,1.2-1.1,1.6-2.4,2.4-3.5.9-1,1-2.2.8-3.4-.2-1.1-.2-2.2-.5-3.2-1-3.7-2.3-7.2-4.3-10.5-.9-1.4-2-2.9-3.9-3.6ZM340.8,367.7c-1.8,1.1-3.6,2.1-5.3,3.4-2,1.5-4,3.1-5.8,4.8-2.6,2.4-5.3,4.8-6.5,8.3-.2.6-.6,1-1,1.4s-.8,1.2-.9,1.9c0,.3,0,.5.2.7s.5,0,.7-.2c1.5-1.8,3.7-2.8,5.2-4.5,1.7-1.8,3.8-3.3,5.2-5.5.3-.4.7-.8,1.1-1.1.2-.2.4-.3.7-.1.2.2.3.6.2.7-.9.5-.8,1.6-1.4,2.2-2.7,3.2-4.7,7-7.1,10.4-.6.9-1.2,1.8-2.7,1.9.6.9.5,1.8,1.3,2.3,1.1-.7,1.6-1.9,2.8-2.6,2.3-1.3,4.3-2.9,6-4.8,3.2-3.7,5.6-7.8,6.4-12.8.2-1.5.2-3.1.9-4.5.3-.5.3-1.1,0-1.9ZM195.6,377c-.5-1.5-1.4-2.5-2.4-3.3-1.4-1.2-3-2.2-4.5-3.3-.6-.4-1.4-.8-1.3-1.8,3.7-.3,6.4,2.5,9.8,3-1.7-3-3.8-5.5-6.6-7.4-.5-.3-1.2-.5-1.8-.6-3-.4-5.9-1.1-8.9-1.7-1.6-.3-3.3-.4-5-.4s-1.7.5-1,1.8c.5.9,1,1.8,1.7,2.6,3.8,5,9.1,7.7,14.8,9.7,1.6.5,3.3,1.2,5.2,1.4ZM410.3,167.8c1.6,4.5,2.4,9,3.7,13.5,1.4,4.8,3.3,9.4,5.9,13.6.7,1.2,1.5,2.3,3,3.1v-3.5c.2-3.6-.5-6.9-2.8-9.8-.5-.7-1-1.5-.6-2.4.9,0,1,.6,1.2,1.3.2,1.1,1,1.7,2.1,1.9.1-.6,0-1.2.2-1.7.8-2.9-.2-5.4-2-7.5-2.9-3.5-6.8-6-10.7-8.5ZM282.5,84.7h-2.6c-.6,0-1,.2-1.1.8-.5,1.6-.7,3.3-.5,5,.1.7.4.9,1,.9,2.2,0,4.5.2,6.7.3,4.2.2,8.5.4,12.6,1.6q3.2.9,4.7-2.1c1.4-2.9,1.2-3.3-2-4.1h-.2c-6-1.2-12-2.5-18.6-2.4ZM439,294.6c.9.3,1.9.1,2.9.2s1.7-.1,2.1-1.2c.4-1,1.2-1.9,2-2.6,1.1-.9,2.2-1.8,3.1-2.9.8-1,1.8-1.7,2.6-2.6.3-.3.6-.6,1-.4.5.3.2.8.1,1.2-.3,1-.9,1.8-1.4,2.7-.9,1.5-1.9,2.9-2.5,4.6-.4,1.3-.3,1.5,1,1.5s2.1.3,2.7,1.5.3.4.9.4c2.7-6.1,4-12.7,5.9-19.2-1.1-.4-1.9.1-2.7.5-.7.4-1.3.7-2.1,1-3.6,1.5-6.8,3.8-9.8,6.3-.5.4-1,.9-1.3,1.4-.6,1.4-1.6,2.3-2.7,3.2-1.3,1.2-2,2.6-1.8,4.4ZM421.7,217.1c1.2.7,1.7,1.7,2.1,2.8.8,2.3,2,4.4,4.5,5.3.4.1.8.4,1.3,0,.9-.8,1.2-1.9.8-3.1-.6-1.8-2-3-2.8-4.6-1.9-4.3-5.4-7.4-8.2-11-.5.3-.5.7-.5,1,0,2.2-.6,4.3-.4,6.5.5,4.9.2,9.9,1.5,14.7.5,2.1,1,4.1,2.5,5.8.3.4.8.8,1.3.6s.5-.8.5-1.3c.2-2.2-.3-4.4-.9-6.5-.6-2.2-1.3-4.3-1.8-6.5-.3-1.1-1.1-2.4.1-3.7ZM351.2,376.9c2.8-.7,5.7-.9,8.3-2.4,2.1-1.3,3.9-2.9,5.9-4.3.7-.5,1.3-1.1,1.7-1.8.7-1.3,1.4-2.4,2.2-3.6.3-.4.4-.9.6-1.4.2-.7,0-1-.8-.9-1.1.2-2.3.5-3.4.6-3.5.3-7,.8-10.4,1.9-2.7.9-4.9,2.5-6.5,4.9-.6.8-1,1.6-1.3,2.6-.1.4-.2.8.2,1,.3.2.6,0,.8-.3l.4-.4c2.5-3.2,6.4-4,9.8-5.6.5-.3,1-.2,1.3.4-1.1,2-3.6,2.6-4.7,4.4-1.2,1.8-3.4,2.7-4.1,4.9ZM392.1,128.7c0,1.6.5,2.7,1.1,3.8,1.2,2.1,2.2,4.4,3.2,6.6.7,1.6,1.3,3.2,2.2,4.8,1.4,2.5,2.8,5,4.1,7.6.7,1.4,2.1,2.4,3.4,3.3.5.4,1,0,.9-.7-.1-.9-.2-1.8-.4-2.7-.7-3.1-1.4-6.2-3.7-8.6-.4-.4-.6-1-.9-1.5-.1-.3-.2-.8.1-1.1.3-.4.7-.2,1.1,0,.8.3,1.6.8,2.4,1.3.4.3.9.3,1-.3.4-1.6,0-3-1.4-3.9-.4-.3-.8-.7-1.2-1-3.4-3.1-7.5-5.3-11.9-7.6ZM409.8,283.5c.2,1.4.9,2.6.6,4.1s-.1,2.9.3,4.4c.3,1,.9,1,1.5.2.2-.3.4-.7.5-1,.5-1.4.8-2.9.9-4.3.2-3.9-.8-7.6-2.3-11.2-.4-1-.9-1.9-1.3-2.8-.2-.4-.5-.9-1-.9s-.8.5-1.1,1c-.2.3-.3.7-.4,1.1-.3.8-.6,1.6-.9,2.4-1.1,3.1-2.6,6.1-3.4,9.2-.6,2.1,0,4.2.1,6.3,0,.4.3.8.6,1.2.7,1.1,1.2,1.2,2.1.2,1.4-1.7,2.3-3.5,2.3-5.8-.1-1.5.4-2.9,1.5-4.1ZM216.9,392.9c-2.5-1.1-5-2.5-7.8-2.7-.4,0-.9-.1-.7-.6.3-.9-.2-1.2-.7-1.5-1.6-1.2-2.4-2.8-3.2-4.5-.2-.4-.3-.8.1-1.3.8.3,1.7.4,2.3,1.2,1.8,2.4,4.4,3.5,7.2,4.1.9.2,1.9.4,2.9-.3-1.8-3-4.1-5.6-6.6-8-2.6-2.5-6.2-2.8-9.5-3.2-1.4-.2-1.8.5-1.2,1.8,1,2.3,1.4,4.7,1.8,7.1.1.7.4,1.2.8,1.7,3.9,4.2,8.9,6,14.6,6.2ZM415,226.1c-.1,0-.3.1-.4.1-.2,2.9-.3,5.8-.4,8.6-.1,2.7-.3,5.4-.7,8.1-.8,4.9-2,9.7-3.3,14.5-1.9,7-3.9,13.9-6.6,20.6-1.3,3-2.4,6.1-4,9-.9,1.6-1.8,3.1-2.7,4.7-1,1.7-.8,2.2,1.1,2.2h1.6c1.8,0,2-.2,1.8-2-.1-1.4-.6-2.8-.3-4.2.4-1.8.9-3.6,1.6-5.3.7-1.7,1.5-3.3,1.9-5.1.2-1.2.7-2.2,1.3-3.3.4-.7.7-1.4,1-2.1.7-1.7,1.5-3.3,2.2-4.9.2-.5.5-.8,1-.8s.9.3,1,.8c.2.5.3,1.1.5,1.7.4,1.2.8,2.4,2.1,3.1-.6-1.5-1-2.9-1.3-4.4-.9-4.9-1.2-9.8.3-14.7.8-2.5,1-5,1.4-7.6.5-3,.9-6.1,1.4-9.1q.3-1.7,2.3-1.7c-1.7-2.7-1.7-5.6-2.8-8.2ZM249.6,369.7c-.2-.7-.7-.7-1.1-.8-2.5-1-5-2-7.3-3.5-1.5-.9-3-1.8-4.5-2.6-.8-.5-1.7-.8-2.5-.8-2.3-.1-4.6,0-7,0s-.7,0-.8.4c-.1.3,0,.6.3.8,1.3.9,2.4,2.1,3.8,2.9,3.4,2.1,6.9,4,10.5,5.6,2.2,1,2.1,1.1,1.1,3.4,0,.1.1.2.2.4,2.1-2.4,4.9-3.9,7.3-5.8ZM385,369.5c.6.6.9.7,1.2.8,2.9.1,5.6-.6,8.2-1.9,1.2-.7,2.4-1.5,3.7-2.2,1.1-.6,2-1.4,2.7-2.4.6-.9.2-1.5-.8-1.5-1.8-.1-3.6-.2-5.4-.3-2.9,0-5.7.1-8.6,0-1.5-.1-2.6.6-3.3,1.9-.5.8-.8,1.6-1.3,2.4-.3.5-.6,1-.1,1.6.4.5.9.3,1.4.2,1.6-.2,3.1-1,4.6-1.6.8-.3,1.6-.6,2.3-.9.3-.1.5,0,.6.3.2.3-.1.5-.3.6-1.6,1-2.7,2.7-4.9,3ZM103.2,279.1c0,.1-.3.2-.3.3,0,.2-.2.5-.3.7-.8,2.4-.2,4.9,0,7.3,0,4,1.3,7.9,1.9,11.8,0,.7.6.8,1.2.6.7-.2,1.1-.7,1.3-1.3.5-1.2.5-2.3.2-3.6-.5-1.9-1.1-3.7-1.9-5.5-.3-.8-.5-1.7-.6-2.6,0-.4,0-1,.6-1.1.4-.1.9.2,1.1.6,0,.2.2.5.3.7.5,1.1,1.1,2.2,1.8,3.2.9,1.1,1.9,2.1,3.5,2.3.8.1,1.9.2,2.3-.5s-.7-1.1-1.2-1.5c-3.2-2.8-6.1-5.9-8.4-9.5-.5-.7-.8-1.4-1.4-1.9ZM149.7,361.9c1.8,1.5,3.3,2.7,5,3.8,1.9,1.2,3.7,2.3,6,2.6.6.1,1.3.3,1.8-.6-1.3-.9-1.4-2.4-1.8-4,1.6.7,2.8,1.5,4,2.3,1.9,1.3,3.9,1.9,6.2,1.7,1-.1,1.1-.5.6-1.2-2.2-2.8-5-4.6-8.6-4.9-4.2-.4-8.5,0-13.2.3ZM207.1,373.9c.1-2-.9-3.4-2-4.7-.3-.3-.7-.6-.8-1-.3-1.2-1.3-1.9-2.3-2.5-.6-.4-1.5-.5-1.4-1.4,0-.8.9-1,1.5-1.3.1,0,.1-.2.2-.3-.1-.4-.5-.6-.9-.7-1.4-.4-2.8-.2-4.2-.1-.5,0-.6.5-.5.9.2.9.6,1.7,1,2.5,1.3,2.3,3.2,4.2,3.7,6.9.1.4.4.7.8.8,1.7.4,3.2.9,4.9.9ZM209.4,394.5c-2-.9-3.9-1.8-5.9-2.6-.2-.1-.5-.1-.8-.1-3.1-.3-6.1.5-9.2,1-.2,0-.6.1-.8.6,1.1,1,2.5,1.3,3.9,1.4,4.3.2,8.5,0,12.8-.3ZM343.8,375.8c2.3-5.3.8-7.5,9.9-13.6-2.4-.6-4.6-.7-6.9-.3-.8.1-1,.8-1.1,1.4-.6,4.2-1.1,8.4-1.9,12.5ZM379.6,364.1c-.9-.4-1.6-.7-2.3-1-1.5-.4-3.1-.5-4.2.6s-1.5,2.2-1.9,3.5c.8.3,1.3-.2,1.9-.4.4-.2.8-.4,1.2-.6.4-.1.8-.2,1.1.2.3.4-.1.7-.4.9-1.2.9-2,2.1-3.2,3.3,1.5-.2,2.7-.5,3.9-.6.8-.1,1.2-.4,1.4-1.1.5-1.6,1.5-3.1,2.5-4.8ZM113.3,203.4c2.2-8.1,3.5-16.3,6.5-23.9-.8.8-.9,1.8-1.4,2.7-.9,1.7-1.8,3.5-2.3,5.3-1.2,4.4-2.5,8.8-3.3,13.3,0,.9-.4,1.7.5,2.6ZM439.8,267.5c.2,2.9.3,5.7-.1,8.6-.5,3.6-1.1,7.1-2.1,10.5-.4,1.5-1.3,3-1.4,4.6,0,.7-.1,1.2-.7,1.6-.4.3-.9.8-.3,1.2.5.3,1.5.7,1.7,0,.3-1.5,2.3-2.6.9-4.4-.2-.2,0-.6.1-.9,1.1-3.6,1.9-7.2,2.4-10.9.3-3.5.3-6.9-.5-10.3ZM138.8,277.4c1.3-4.9,4.8-8.3,6.8-12.4-2,1.3-3.6,2.9-5.1,4.6-1,1.1-1.8,2.3-3.1,3-.3.1-.5.3-.3.5.5,1.3.5,2.8,1.7,4.3ZM130.8,142.5c-5.2,4.8-10.1,15.9-9,20.3.4-1.6.7-2.9,1.1-4.1.9-3.6,1.8-7.2,4-10.2,1.3-2,2.6-4,3.9-6ZM120,286.9c0,.1-.3.2-.4.2.5,1.5,1,3,1.6,4.5.6,1.2,1.5,2.3,2.9,2.6.5.1,1.1.3,1.3-.4.2-.6,0-1.1-.5-1.5-2.1-1.3-3.7-3.2-4.9-5.4ZM415.1,275.7c.6,1.8,1.1,3.3,1.6,4.8.2.5.6.9.9.3.8-1.3,1.8-2.4,2.2-4-.8,0-.9.7-1.2,1-.9.8-1.2.8-1.8-.2-.4-.6-.7-1.2-1.7-1.9ZM410.7,185.3c.1,0,.3-.1.4-.1-1-3.9-1.3-7.9-3.4-11.5,1,3.9,2,7.8,3,11.6ZM131.9,200.6c.1,2.8.7,5.4,1.4,8.1.2-2.8-.2-5.5-1.4-8.1ZM438.3,261.8c-.5-1-.8-1.3-1.1-1.2-.1,0-.2.2-.2.2.1.7.4,1.2,1.2,1.1,0,0,0-.1.1-.1ZM136.6,134.4c.8-.6,1.1-1.1.4-1.8-.2.6-.7,1.1-.4,1.8ZM138.7,236.3c-.5.3-1,.5-1.2,1.3.8-.3.9-.8,1.2-1.3ZM232.7,386.6q-.6.3-.5,1c.1-.3.3-.6.5-1Z"/>
        <path class="cls-1" fill="#FFFFFF" d="M64.6,359.8c0,.1-.2.4-.3.5-.2.3-.3.5,0,.8,0,0,0,0,0-.1.2-.3,0-.5,0-.6-.2-.2-.4-.4-.5-.6,0-.1,0-.4,0-.5,0-.1.2-.1.3-.1.4.1.4.3.4.6Z"/>
        <path class="cls-1" fill="#FFFFFF" d="M280,289.3c-3.9.3-8.3-.7-12.4-2.5-3.1-1.3-5.9-3.2-8.7-5-2.5-1.7-5.1-3.3-7.6-4.9-3.9-2.4-8.2-3.9-12.8-4.6-3-.4-6-.8-9-1.3-1-.1-1.8-.6-2.7-1-2.8-1.2-5.4-2.8-7.6-4.9-1.4-1.3-2.6-2.9-3-4.9-.4-2.3-.9-4.7-.2-7.1.8-2.7,2.6-4.5,4.8-6.1,5.6-3.9,11.8-6.6,18.3-8.7,2.8-.9,4.9-2.7,7.2-4.5,1.6-1.2,2-3,2.2-4.8.7-4.9,1.9-9.7,3.6-14.4,1.9-5.3,4.4-10.4,8.2-14.6,3.3-3.7,7.4-6.4,12.5-7,2.5-.3,5-1,7.6-.9,3.7.2,7.1,1.2,10.5,2.4.6.2,1.2.4,1.8.6,3.3,1.2,6,3,8.4,5.5,3.4,3.6,5,7.9,6,12.5,1.4,6,2,12.1,2.7,18.1.4,3.3,2.1,5.3,4.9,6.5,2.5,1.1,5.3,1.3,7.9,1.9,5.3,1.3,10.3,3.4,15,6.1,4,2.4,5.9,6.2,5.8,10.7-.1,5.2-2.8,9-7.5,11.6-3,1.6-6.2,2.4-9.5,2.9-3.9.7-7.7,1.3-11.6,2.1-2.8.6-5.2,2-7.4,3.6-2.5,1.8-4.9,3.8-7.3,5.7-5.5,5.2-12.2,7.2-20.1,7ZM279.3,249.7h0c3.7-.1,7.4-.3,11-.1,3.1.2,2.7-.2,3.3-2.9.1-.3.1-.7,0-1-.3-1.7-.2-3.3-.3-5,0-1.8-1-2.7-2.9-2.7-6.2,0-12.4-.1-18.6-.1s-3.4-.4-5.2-.3c-.8,0-1.1.3-1,1.1.2,1.3,0,2.6,0,3.9-.1,1.7-.5,3.5-.4,5.2.1,1.9.2,1.9,2.1,1.9,4,0,8,0,12,0ZM286.2,225.5h3.1c2-.1,2.5-.7,2.1-2.7-.7-3.5-2.3-6.4-5.4-8.4-5.1-3.5-10.8-2.2-14.6,1.6-2,2-2.9,4.7-3.2,7.5-.2,1.3.1,1.5,1.4,1.6.8.1,1.7.1,2.5.1,3.2.2,6.4-.4,9.7,0,1.5.3,3.1.3,4.4.3ZM276.2,260.5h-8.5q-1.7,0-1.5,1.8c.1.5.2,1,.4,1.5.6,1.9,1.8,3.3,3.1,4.6,2.4,2.4,5.1,4.1,8.7,3.9h1.2c2.3.4,4.3-.3,6.2-1.6,1.8-1.2,3.1-2.9,4.4-4.6.7-.9,1-1.9,1-3-.1-1.3-1.4-2.8-2.5-2.5-1.7.5-3.3-.2-4.9-.1-2.7.1-5.1,0-7.6,0Z"/>
        <path class="cls-1" fill="#FFFFFF" d="M206.8,290.8h-8.7c-3,0-3.8-.6-5-3.3-1-2.1-1.1-4.4-1.5-6.6-.6-3.4-1.2-6.8-1.7-10.3-.1-.6-.2-1.2-.6-1.6-1.7-1.5-2-3.5-2.3-5.6-.4-2.9-.8-5.9-1.4-8.8-.2-1.1-.1-2.2.4-3.2.6-1.2.6-2.4.3-3.7-1-5.4-1.7-10.8-2.8-16.1-.3-1.5,0-3.1.5-4.6.6-1.6,1.6-2.6,3.3-2.8,4.8-.7,9.6-1.6,14.5-2.4,1.2-.2,2.4-.2,3.7,0,1.9.4,2.2.5,2.5,2.3.6,3,1.2,6.1,1.7,9.1,1,6,2,11.9,2.9,17.9.9,5.5,1.7,11.1,2.7,16.6.9,5.3,1.8,10.5,2.9,15.8.3,1.7.7,3.4.3,5.2-.4,1.7-.7,1.9-2.3,1.9-3.2.2-6.3.2-9.4.2ZM194.3,225.6c.2,1.3.3,2.7.5,4,.9,5.5,1.7,11.1,2.7,16.6.5,3.1,1.2,6.2,1.7,9.3.1.7.4,1.1,1.1,1.1.8-.1.5-.8.5-1.2-.5-2.5-.9-5.1-1.3-7.6-.4-2.5-.9-4.9-1.4-7.4-.8-4.2-1.5-8.5-2.3-12.7-.1-.8,0-1.5-.3-2.3-.2-.4-.4-.9-.9-.8-.5.2-.3.7-.3,1ZM200.4,223.4c0,2.3.5,4.2.7,6.1.7,6.2,2.1,12.3,3,18.5.3,2.2.8,4.4,1.2,6.6.1.4.1,1.2.9,1,.7-.2.6-.8.5-1.3-.1-.8-.3-1.6-.4-2.5-.6-4.2-1.3-8.4-2-12.5-.8-4.5-1.9-8.9-2.6-13.4-.2-.7-.3-1.5-1.3-2.5ZM191.8,225.5c-.1.3-.1.5-.1.7.1.7.1,1.4.2,2.1,1,9,2,17.9,4.1,26.7.2.7,0,1.7.9,2,.5.2.7-.9.3-2.4-.8-3.2-1.3-6.4-1.7-9.7-.7-5.5-1.6-11.1-2.7-16.5-.2-1-.4-1.9-1-2.9ZM190.9,257c.5-1.3,0-2.4-.2-3.4-.7-5.1-1.5-10.3-2.3-15.4-.6-3.5-1-7-1.9-10.4-.1-.5-.2-1-.8-1.5-.2,2.9,4,28.2,5.2,30.7ZM208.5,253.9c.2,0,.3,0,.5-.1,0-.4.1-.8,0-1.1-.7-4.4-1.4-8.7-2.1-13.1-.7-4.4-1.4-8.8-2.2-13.3-.2-1.2-.1-2.6-1.2-3.4-.4.2-.5.5-.4.7,1.7,10.2,3.3,20.3,5.4,30.3ZM188.5,226.4c.1.5.2.8.2,1.1,1,9.2,2.7,18.2,3.8,27.3.1.9.3,1.7,1.1,2.3-1-9.8-2.7-19.5-4.2-29.2-.1-.4-.1-1.1-.9-1.5ZM198,224.8c-.1,0-.2,0-.3.1v.9c.6,4.1,1.2,8.1,1.9,12.2,1,5.5,1.8,11,2.7,16.6.1.4.2.8.3,1.1.1.1.3.3.4.3.3,0,.5-.2.5-.5v-.6c-.5-1.7-.7-3.4-1-5.1-.5-3-1.2-6-1.7-9-.9-5.4-1.9-10.7-2.8-16Z"/>
        <path class="cls-1" fill="#FFFFFF" d="M351,290.8h-9.5c-1.9,0-1.9-.1-2.1-2-.1-2.3.1-4.5.6-6.7.9-4,2.1-8,3.1-12,1.4-5.6,2.7-11.1,4.1-16.7,1.6-6.4,3-12.9,4.9-19.3.7-2.5,1.4-5.1,2.1-7.6.6-2.1,2.3-3.2,4.5-2.9,4.8.7,9.4,2.3,14,3.6.9.3,1.8.6,2.8.8,3,.8,2.8,1.6,2.9,4.6.1,3.1-1.2,5.9-1.9,8.8-.8,3.4-1.7,6.9-2.6,10.3-.2.7-.1,1.3.1,1.9.5,1.5.5,2.9,0,4.3-1.1,3.3-2,6.7-3,10-.1.3-.2.7-.4.9-2.2,1.4-2.2,3.8-2.8,5.9-.9,3.1-1.7,6.2-2.4,9.4-.5,1.9-1.5,3.6-2.1,5.4-.4,1.1-1.3,1.3-2.4,1.3-3.3.1-6.6.1-9.9,0,0,.1,0,0,0,0ZM349.4,258c1.5-3.5,7.9-28.5,7.8-31.3-.6.5-.9,1.1-1.1,1.8-1.2,4.6-2.7,9.1-3.8,13.8-.8,3.6-1.6,7.2-2.7,10.7-.6,1.5-.7,3.1-.2,5ZM359.3,259.6c.5-.3.5-.6.6-.9,1.1-4,2.2-7.9,3.3-11.9,1.4-5.1,2.6-10.4,4.1-15.5.4-1.2.6-2.5.5-4-.7.3-.7.8-.8,1.2-.5,2-1,4-1.6,6-2.2,7.6-4.3,15.3-6.5,22.9-.3.8-.4,1.5.4,2.2ZM352.2,258.8c.9,0,1-.5,1.1-.9,1.2-3.1,8-30.5,7.8-31.9-3.6,10.8-6.4,21.7-8.9,32.8ZM364.7,226.9c-.9.2-.9.9-1.1,1.5-.6,2-1.1,4-1.7,5.9-1.9,6-3.4,12.2-4.9,18.3-.5,1.9-1,3.7-1.4,5.6-.1.4-.2.8.2,1,.4.1.7-.3.8-.7,1.4-5.5,2.9-10.9,4.5-16.3,1.1-3.7,1.9-7.5,2.7-11.2.3-1.4.8-2.7.9-4.1ZM373.6,229.2c-.8.1-.8.6-.9.9-.7,2.5-1.4,5-2,7.4-1.3,5.1-2.9,10.2-4.3,15.2-.7,2.6-1.2,5.3-1.5,7.9,0,.4,0,.7.4.8.4.1.5-.3.6-.6.3-1.2.6-2.4.9-3.6,1.3-5,2.5-10,3.8-14.9,1-4.2,2.1-8.6,3-13.1ZM368.1,262c.9-.8,1.2-1.5,1.3-2.3.2-1.8.6-3.5,1.4-5.2.3-.6.5-1.2.5-1.8,0-2.6,1-5,1.6-7.5.9-4,2.2-7.9,3.3-11.9.3-.9.4-1.8-.3-2.9-.2.3-.3.4-.4.6-.5,1.7-.9,3.5-1.4,5.2-1.8,7.3-3.6,14.6-5.6,21.9-.4,1.2-.4,2.4-.4,3.9ZM370.5,228.5c-1.7,2.3-8.8,29.6-8.4,32.2.8-.5.8-1.3,1-2,.6-2.3,1.2-4.7,1.9-7,1.7-6.2,3.3-12.5,4.8-18.8.2-1.4,1-2.8.7-4.4Z"/>
        <path class="cls-1" fill="#FFFFFF" d="M300.8,188c.1,2.2-.3,4.4-.9,6.7-.5,1.7-1.3,2-2.6.9-1.4-1.3-3.1-1.5-4.7-2.1-1.5-.6-3.2-1-4.8-1.5-2-.6-2.3-1.2-1.5-3.1.5-1.1.5-2.1.4-3.2-.1-.7-.5-1.2-1.3-1.2s-1.1.5-1.1,1.1c-.1,1.3-.9,2.3-1.1,3.5-.1.8-.7,1.1-1.5,1.3-2.4.4-4.8.7-7.3.8-1.1,0-2.1.2-3.2.5-1.4.5-1.7.2-2.2-1.2-.4-1.2.1-2.2.3-3.2.5-2.2.8-4.4,2.1-6.3,3.3-4.7,7.4-7.4,13.4-6.7,2.8.3,5.6.7,8.3,1.8,4.4,1.8,8,6.6,7.7,11.2,0,0,0,.3,0,.7Z"/>
        <path class="cls-1" fill="#FFFFFF" d="M316.9,232.8c0-2.2.3-4.4,1.1-6.4.6-1.6,1.1-2,2.8-2.1,3.2-.1,6.4.4,9.6.9,3.7.5,7.4,1,11,2,2.2.6,3,1.7,2.6,3.9-.6,3.7-1.4,7.3-1.6,11.1,0,.3-.1.5-.2.8-.3,1.2-.9,1.6-2.1,1s-2.4-1.2-3.6-1.9c-4.3-2.5-9-4-13.9-4.9-1.6-.3-3.2-.3-4.7-.9-.8-.3-1.2-.6-1.1-1.5.2-.7.1-1.3.1-2Z"/>
        <path class="cls-1" fill="#FFFFFF" d="M241.7,229.5c0,3.6,0,3.7-3.1,4.6-4.8,1.4-9.5,3.3-14.1,5.2-1.6.7-3.1,1.6-4.6,2.5-.5.3-1,.6-1.5.8-.9.3-1.4.1-1.6-.9-.2-.9-.3-1.8-.3-2.7-.1-3-.4-5.9-.7-8.8-.1-1,0-2,0-3.1-.1-1.1,1.3-2.1,2.8-2.2,3.2-.3,6.4-.6,9.6-.9,2.8-.3,5.6-.5,8.5-.7.3,0,.6-.1,1-.1,1.1.1,2.2-.2,3.2.5,1.2.8.7,2,.8,3,.1,1,0,2,0,2.8Z"/>
        <path class="cls-1" fill="#FFFFFF" d="M327.8,289.7c-5.1.3-9.7-.8-14.3-1.7-2-.4-2.5-1.1-2.4-3.3.1-1.9.4-3.8.7-5.7.2-.9.6-1.2,1.5-1.3,4.2-.4,8.5-.9,12.7-1.4,3.2-.4,6.3-1.5,9.1-3.1.4-.2.8-.5,1.2-.6,1.6-.5,2.1,0,2,1.6-.4,3.8-.8,7.6-1.2,11.3-.2,2.1-2.5,4-5,4.1-1.5.2-3.1.1-4.3.1Z"/>
        <path class="cls-1" fill="#FFFFFF" d="M227.9,288.1c-1.7,0-3.3.1-5,0-2.9-.1-3.2-.9-3.4-3.2-.2-2.9-.5-5.7-.4-8.6.1-1-.5-2-.2-3,.2-.9.6-1.1,1.4-1.1,1.2,0,2.1.7,3,1.2,2.6,1.6,5.4,2.4,8.4,2.8,4.1.5,8.3,1.4,12.5,1.3,1.3-.1,1.7.4,1.8,1.7.1,1.5.1,3,.2,4.4.2,1.4-.3,1.9-1.6,2.3-4.1,1.3-8.3,2.2-12.6,2.4-1.3,0-2.7,0-4.1-.2h0Z"/>
        <path class="cls-1" fill="#FFFFFF" d="M213.1,327.5v9.5q0,2.6-2.5,2.5t-3-3.1v-18.6c.2-1.2.3-1.4,1.6-1.4,4.5-.1,3.3-.6,5.6,3,1.7,2.7,3.3,5.4,5,8.1.3.4.4,1,1.1,1.1.3-.5.2-1.1.2-1.6v-8.9c0-1.4.3-1.8,1.7-1.8,3.8.1,3.8-1.1,3.8,3.6v17.7c0,2-.5,2.4-2.4,2.3-.2,0-.4-.1-.6-.1-2.1.2-3.1-1-4-2.6-1.7-2.9-3.5-5.7-5.2-8.6-.2-.4-.5-.7-.8-1-.3-.2-.4-.1-.5-.1Z"/>
        <path class="cls-1" fill="#FFFFFF" d="M402.9,327.3c-.3.7-.2,1.2-.2,1.8v8.9q0,1.6-1.6,1.6h-.6c-2.9,0-3.3-.5-3.1-3.3.1-2.5.1-5.1.2-7.6.2-3.7-.5-7.4,0-11.1.1-.8.3-1.2,1.1-1.1.8,0,1.5,0,2.3-.1,1.1-.2,1.9.4,2.5,1.4,1.5,2.6,3.1,5.1,4.6,7.6.7,1.1,1.3,2.3,2.3,3.3.6-.5.4-1.2.4-1.7v-8.5c0-1.9.3-2.2,2.1-2.1,3.7.1,3.3-.3,3.3,3.2v18.4q0,1.7-1.7,1.7-3.5.1-5.4-3c-1.6-2.6-3.3-5.2-5-7.8-.2-.6-.5-1.2-1.2-1.6Z"/>
        <path class="cls-1" fill="#FFFFFF" d="M147.7,328.1c.2-3.8,1-6.8,3.4-9.4,3.6-3.9,10.1-4.7,14.5.3,4.3,5.1,3.9,13-.2,17.9-3.6,4.3-9.9,4.4-13.9.5-2.8-2.7-3.5-6.1-3.8-9.3ZM162.8,327.9c.2-1.3-.2-2.5-.8-3.6-.8-1.4-2-2.4-3.7-2.5-1.8,0-3.2.9-4,2.5-1.3,2.3-1.2,4.7.1,7,.8,1.5,2.1,2.6,3.8,2.6s3-1.1,3.8-2.6c.5-1,.8-2.2.8-3.4Z"/>
        <path class="cls-1" fill="#FFFFFF" d="M243,326.3h3.6c.6,0,.9.2.9.8-.1,3.4-.3,6.6-2.4,9.6-3.8,5.4-12.2,4.4-14.9-.5-3.2-5.8-2.9-11.5.5-17,.7-1.2,1.9-2,3.1-2.5,4.2-1.8,9.1-1.2,11.8,3.5q1.3,2.3-1.2,3.5c-.1.1-.2.1-.4.1q-2.1,1-3.4-.8c-1.6-2.1-3.6-2.2-5.3-.3-1.4,1.6-1.8,3.6-1.8,5.6s.5,3.8,1.8,5.4c1.4,1.8,4.2,2.1,5.7-.6.5-1,.2-1.5-.9-1.6q-2.3-.3-2.3-2.7v-1c0-.8.4-1.3,1.3-1.3h.4c1.2-.1,2.4-.2,3.5-.2Z"/>
        <path class="cls-1" fill="#FFFFFF" d="M185.9,339.3c-1.9.3-3.8.1-5.8.1s-.8-.6-1-1c-.7-1.3-1.3-2.7-2-4-.3-.5-.5-1-1.1-1.5-.5,1.1-.2,2.2-.3,3.3-.1,3.9.5,3.2-3.3,3.2s-2.3-.2-2.2-2.3c.1-4.5-.1-9,.1-13.5.1-1.7-.1-3.5-.1-5.2s.2-1.9,2.1-2.1c1.6-.1,3.2-.2,4.8-.1,1.8.1,3.5.4,5,1.7,1.8,1.6,1.9,3.8,2,5.9,0,2.3-.7,4.5-2.8,5.8-.8.5-.6,1-.2,1.6,1.3,2.2,2.6,4.3,3.9,6.4.5.5.9.9.9,1.7ZM175.8,324v1.3c-.1.9.3,1.1,1.2.9,1.1-.2,1.5-.9,1.8-1.8s-.3-2.2-1-2.7c-1.1-.8-1.8-.5-1.9.9-.2.5-.1.9-.1,1.4Z"/>
        <path class="cls-1" fill="#FFFFFF" d="M298.1,332.5c-.4,1.9-.3,3.5-.2,5.1.1,1.7-.5,2.3-2.1,2-.6-.1-1.2-.2-1.7-.1-1.1.2-1.3-.5-1.5-1.3-.2-1.2.1-2.3,0-3.5v-16.7q.1-1.6,1.7-1.7c2.4,0,4.7-.2,7.1.2,3,.6,4.3,1.9,4.9,4.9.4,1.9.3,3.7-.4,5.5-.4,1.1-1,2.1-2.1,2.6-.9.4-.8,1-.4,1.7,1.3,2.1,2.6,4.1,3.9,6.2.4.6,1.1,1.2.7,1.9-.4.7-1.2.3-1.8.3-4.3.1-4.3,0-6.2-3.7-.6-1-1.2-2-1.9-3.4ZM301,324.1c0-1.2-.9-2.5-1.9-2.6-.7-.1-1.3-.1-1.3.9.1.9,0,1.8,0,2.7s-.1,1.1.5,1.4c.7.3,1.3-.1,1.7-.5.6-.6,1-1.2,1-1.9Z"/>
        <path class="cls-1" fill="#FFFFFF" d="M376,327.1c3.1,2.3,4,5.8,2.5,9.2-.7,1.6-2.1,2.6-3.8,3-3,.8-6,.4-9.1.4s-.8-.4-.8-.9-.1-1.4-.1-2.1c0-5.9-.1-11.7,0-17.6,0-2.8-.3-2.8,2.8-2.8s3.5,0,5.2.1c2.5.2,4.3,2.1,4.5,4.4.2,2.9,0,3.9-1.2,6.3ZM369.9,332.3h0v1.3c.1.5.4.8.9.9,1.2.2,2.4-.5,2.7-1.6.3-.9,0-1.6-.7-2.2s-1.6-.7-2.3-.4c-.9.3-.5,1.2-.5,1.9-.1,0-.1.1-.1.1ZM369.9,323.6c.3.4-.6,1.6.9,1.5,1.1-.1,1.8-.9,1.5-2-.1-.4-.3-.7-.5-1-.3-.5-.9-.6-1.4-.4-.5.1-.5.7-.6,1.1.1,0,.1.4.1.8Z"/>
        <path class="cls-1" fill="#FFFFFF" d="M350.9,324.1v5.6c0,1.2.2,2.4.8,3.5.8,1.4,2.5,1.7,3.7.5s1.2-2.2,1.2-3.6v-11.8c0-1.9.1-2.1,2.1-2,3.9.1,3.4-.4,3.4,3.3s.1,8.4-.2,12.6c-.2,3.2-1.3,5.9-4.3,7.2-3,1.3-6,1.2-8.9-.7-2-1.3-2.9-3.3-3.1-5.6-.3-4.6-.3-9.3-.4-13.9v-1.4q.1-1.4,1.4-1.5h1.7q2.4,0,2.4,2.3c.2,1.9.2,3.7.2,5.5h0Z"/>
        <path class="cls-1" fill="#FFFFFF" d="M289,339.7c-.4,0-.7-.1-.9-.1-1.4.1-2.3-.4-2.6-1.9-.1-.4-.3-.8-.5-1.3-.2-.6-.6-.9-1.3-.9h-1.6q-3.1-.1-4.1,2.8c-.3,1-.9,1.3-1.9,1.2-.9-.1-1.8-.1-2.7-.1s-1.3-.2-1-1.3c.4-1.5.8-3,1.3-4.4,1.8-5.2,3.2-10.5,4.9-15.7q.5-1.7,2.3-1.7h1c3.3,0,2.8-.6,3.8,2.7,1.9,6.2,3.7,12.3,5.5,18.5.1.2.2.5.2.7.2.7,0,1.1-.8,1.2-.7.2-1.2.3-1.6.3ZM281.8,325.8c-.9,1.2-1,2.5-1.3,3.7-.2.6,0,1,.8,1h1.2c.6,0,.8-.4.6-.9-.4-1.3-.5-2.6-1.3-3.8Z"/>
        <path class="cls-1" fill="#FFFFFF" d="M132.6,328.1v-9.7c0-1.9.2-2.2,2.1-2.2,2.6-.1,5.2-.3,7.7.4,2,.5,3.6,1.8,4.1,4s.6,4.4.2,6.7c-.5,2.6-2.3,4.2-4.9,4.4-1,.1-1.9.4-2.9.3-.7-.1-.9.3-.9.9,0,1.3,0,2.7-.1,4v1.5c-.1.6-.3,1-1,1h-2.9c-1,0-1.4-.5-1.3-1.4v-8.5c-.1-.5-.1-.9-.1-1.4ZM137.6,324.4c.1.5.2,1.1.3,1.6.1.4.3.5.6.5,1.5.2,2.5-.5,2.9-2.2.3-1.1-.6-2.5-1.7-2.8-1.2-.4-1.6-.1-1.8,1.2-.1.6-.2,1.1-.3,1.7Z"/>
        <path class="cls-1" fill="#FFFFFF" d="M123.2,340.1c-2-.2-4-.6-5.7-2-.5-.5-.9-1-.6-1.7.4-1.1.8-2.2,1.3-3.2.4-.9.9-.9,1.7-.3.4.3.7.6,1,.9.6.5,1.2.7,2,.7s1.4-.1,1.8-.8c.4-.7.2-1.3,0-2-.5-.9-1.3-1.2-2.2-1.4-3.9-1.1-5.7-4.2-4.8-8.6.2-1,.5-2,1-2.9,1.1-2,2.9-3,5.1-3s3.7.4,5.4,1.3c.7.4,1,.8.6,1.6-.5,1-.9,2-1.3,3-.3.8-.8.9-1.5.4-.6-.4-1.3-.9-2.1-.8-.8.1-1.5.4-1.8,1.2-.2.8.3,1.2.8,1.6.6.4,1.3.8,2,1.1,3.6,1.3,5,3.4,4.6,7.3-.1,1.3,0,2.6-.7,3.8-1.4,2.8-3.5,3.5-6.5,3.8Z"/>
        <path class="cls-1" fill="#FFFFFF" d="M432.7,321c0,1,.1,1.9,0,2.9,0,.5-.4.6-.8.3-.4-.3-.7-.8-1.1-1.1-1.8-1.4-3.8-1.2-5.4.4-2.3,2.2-2.2,6.2-.6,8.6,1.1,1.7,3.6,2.8,6.1.9.5-.4.9-1.2,1.5-.9.7.4.4,1.3.4,2v3.7c-.1,1.3-.3,1.6-1.6,2-4.6,1.5-8.4-.4-10.8-3.9s-2.9-7.4-1.8-11.4c.7-2.7,1.9-5.1,4.4-6.9s5.2-2.1,8.1-1.3c1.4.4,1.7.9,1.8,2.4-.1.8-.1,1.5-.2,2.3,0,0,0,0,0,0Z"/>
        <path class="cls-1" fill="#FFFFFF" d="M330.9,332v6.1c0,.8-.4,1.1-1,1.4-3.9,1.6-8.2.2-10.9-3.4-3.5-4.8-2.8-12.1-.1-16.1,2.3-3.3,6.3-5.1,10.5-3.8,1,.3,1.7.7,1.6,2-.2,1.9.3,3.9-.1,6.1-.8-.6-1.4-1.1-2-1.5-1.8-1.1-3.9-.9-5.2.7-2,2.3-1.8,6.5-.4,8.5s3.8,2.4,5.7.9c.5-.3.9-.8,1.9-.9Z"/>
        <path class="cls-1" fill="#FFFFFF" d="M271.1,324.4c-.9-.4-1.3-1-1.8-1.4-2-1.4-4-1.4-5.6.5-1.9,2.3-2.2,7,.4,9.2,1.6,1.4,3.6,1.5,5.2.2.3-.2.5-.5.7-.7.7-.5,1-.3,1.1.6v5.4c0,.6-.3.9-.8,1.2-2.4,1.3-6.4.8-8.6-.9-4.6-3.5-5.4-8.2-4.6-13.5.5-3.2,1.9-5.9,4.6-7.8,2.6-1.8,5.4-2,8.3-.9.5.2,1.1.4,1.1,1.2,0,2.2,0,4.4,0,6.9Z"/>
        <path class="cls-1" fill="#FFFFFF" d="M194.6,330.6v7.4c0,1.4-.1,1.4-1.4,1.4h-2.3c-1,.1-1.3-.4-1.3-1.4v-15.1c0-.8-.2-1.2-1.1-1.3-.5,0-1-.1-1.5-.1-1.4-.1-1.5-.1-1.6-1.6v-1.4c.1-2.1.2-2.1,2.3-2.3,3.1-.3,6.2-.1,9.3-.2,1.6,0,1.7.1,1.7,1.6v2.7c0,1-.6,1.2-1.3,1.2q-2.6,0-2.7,2.6c0,2.3,0,4.4,0,6.5h0Z"/>
        <path class="cls-1" fill="#FFFFFF" d="M333.6,328v-10.1c0-1.4.2-1.5,1.6-1.6h1.6q2.1,0,2.1,2.2c0,4.6-.1,9.1-.2,13.7q0,1.9,1.9,2h2.5c.9,0,1.4.2,1.4,1.3-.1,5,.8,4-4,4.2-1.7.1-3.5,0-5.2,0s-1.7-.2-1.7-1.7c0-3.3,0-6.7,0-10Z"/>
        <path class="cls-1" fill="#FFFFFF" d="M389.5,328v-10.3c0-1,.2-1.4,1.3-1.4.8.1,1.6,0,2.3,0,1.8,0,1.9.1,1.9,1.8,0,6.6-.1,13.2-.1,19.8s0,1.8-1.7,1.8c-4.7-.1-3.7.5-3.8-3.8.1-2.6.1-5.3.1-7.9h0Z"/>
        <path class="cls-1" fill="#FFFFFF" d="M199.7,327.9v-9.7c0-1.8.3-2,2-2.1h1.9c1.3,0,1.5.2,1.6,1.6s0,2.7,0,4.1c-.2,3,0,6,0,9s-.4,5,0,7.5c.1.7-.3,1.1-1,1.1h-.4c-1.3-.2-2.8.5-3.8-.3-.9-.8-.3-2.3-.3-3.5v-7.7h0Z"/>
        <path class="cls-1" fill="#FFFFFF" d="M441.2,336.9c0,.7-.3,1.7-1.2,2.5-1.1,1-2.7,1.1-3.9.1-2-1.6-1.4-5.8,1-6.7,1-.4,2.3-.1,3,.8.7.9,1.1,1.8,1.1,3.3Z"/>
        <path class="cls-1" fill="#FFFFFF" d="M339,63.2v2.1c0,3.7.1,7.5-.2,11.2-.1.8.2,1.7.1,2.5-.4,6-.3,12.1-.3,18.1s.1,3.5.1,5.2-.1,1.3-1.4,1.4c-1.9.2-3.7-.4-5.5-1-3.3-1.2-6.7-2.4-9.7-4.2-.2,0-.5-.3-.7-.4-1.6-1-1.9-2-1-3.7,2.8-5.8,6.2-11.2,9.5-16.6,2.6-4.2,5.2-8.4,7.5-12.9.2-.6.5-1.4,1.6-1.7ZM334.7,79.7c-.7.5-.9,1.2-1.2,1.8-1.4,3.1-2.7,6.1-4,9.2-.8,1.9-.5,2.6,1.5,3.2.7.2,1.3.3,1.9.8,1.4,1,2.1.7,2.1-1,.1-3,.1-6.1,0-9.1.2-1.6.3-3.3-.3-4.9Z"/>
      </g>
    </g>
  </g>
</svg>