<?xml version="1.0" encoding="UTF-8"?>
<svg xmlns="http://www.w3.org/2000/svg" version="1.1" viewBox="0 0 595.3 841.9">
  <defs>
    <style>
      .cls-1 {
        font-family: Impact, Impact;
        font-size: 14px;
      }
    </style>
  </defs>
  <!-- Generator: Adobe Illustrator 28.6.0, SVG Export Plug-In . SVG Version: 1.2.0 Build 709)  -->
  <g>
    <g id="Layer_1">
      <g>
        <path fill="#FFFFFF" d="M515.8,485.9q1.1-13.7,14.8-13.7c9.3,0,7.9-.3,6.2,7.7-.4,1.8-.9,3.6-1.1,5.4-.2,1.4-.2,2.9,1.4,3.6,1.3.6,2.5,0,3.5-.8,4.4-3.4,4.7-13.6.5-17.2-2.8-2.4-5.5-4.9-8.6-6.9-8.1-5.4-9.9-12.8-7.9-21.9,4.2-19.3,20.7-28.5,39.6-22,3.8,1.3,5.8,4,8,7.3.8,3.3.8,6.5.8,9.9-.3,3.3.4,6.5-1.5,8-1.8,1.4-5.4-.2-8.1.1-2.6.2-4.3.8-8,1-3.1-.4-6,.1-6.3-5.8-.7,3.3-.5,4.5,1.9,6.5,2.9,2.5,6,4.8,9,7.2,5.4,4.3,8.8,9.5,7.8,16.8-.5,3.6-.5,7.5-1.2,10.7-3,7.7-4,14.8-11.5,18.9-7.2,3.9-14.8,5.6-22.9,4.8-5.5-.5-10.6-1.9-14.6-6.1-3.5-4.9-2.6-7.3-1.8-13.5Z"/>
        <path fill="#FFFFFF" d="M256.8,357.1c.2,1.4-.8,3.5,1,4.5,2.2,1.2,3.2-1,4.7-2s3-2.4,4.9-.9c1.7,1.3,1.1,2.9.8,4.6-.4,1.6-1.9,3.6.1,5.1s3.4-.4,5-1.2c1.5-.7,2.8-2.3,4.6-.8,1.8,1.5,1.3,3.3.6,5.1-.4,1.1-.9,2.1-1,3.2-.1,1.9.8,3,2.9,2.4,1.3-.4,2.6-1.1,3.9-1.6,1.2-.5,2.5-.7,3.5.4s.9,2.4.5,3.6c-.3.8-.7,1.5-1.1,2.3-.7,1.4-1.9,2.7-.6,4.2,1.3,1.6,2.9.4,4.3.1,1.9-.4,3.9-1.8,5.4.5,1.4,2.1.1,3.7-1.2,5.3-.9,1.2-2.2,2.5-1.3,4.2,1,1.7,2.8,1.1,4.3.9,2-.2,4.1-1.2,5.3,1.2,1.2,2.4-.7,3.9-2.2,5.4s-2.2,2-1.6,3.7c.7,1.9,2.5,1.5,4,1.5s4.6-.8,5.4,2c.8,2.5-1.6,3.4-2.9,4.7-1.1,1.1-2.8,1.8-2.1,3.7.7,1.9,2.4,1.7,3.9,1.7,2,.1,4.2.1,4.9,2.5.8,2.5-1.5,3.4-3.1,4.5-1.3.9-3.5,1.5-3.1,3.6.4,1.9,2.4,2.1,4.2,2.4,1.8.3,3.8.7,4,3.1s-1.6,3-3.3,3.8c-1.4.7-3.5.9-3.5,3.2.1,2.3,2.1,2.3,3.6,2.9,1.7.7,3.8,1.1,3.8,3.4.1,2.7-2.3,2.9-4.1,3.6-1.6.6-3.7.6-3.9,2.7-.2,2.1,2,2.5,3.4,3.3,1.6.9,3.5,1.7,3.3,3.9-.3,2.6-2.6,2.7-4.5,3.1-1.6.3-3.7-.1-4.1,2.2-.4,2.2,1.6,2.8,2.9,3.7,1.5,1.1,3.3,2,2.7,4.3-.6,2.4-2.8,2-4.5,2.4-2.1.5-3.4-.4-4.2-2.5-4.9-13.3-10.5-26.4-14.8-39.9-2.6-8.2-3.8-16.9-7.9-24.6-15.7-29.3-40.5-44.5-73.7-43.2-29,1.2-51,15.7-65.2,41.3-1.7,3.1-3.5,4.6-7.2,4.4-6.1-.3-12.2-.1-18.3-.1s-5,.3-5-3.1,2.7-2.6,4.7-2.8c.8-.1,1.7.1,2.6-.1,2.5-.4,3.1-1.8,1.7-3.9-.4-.6-1-1.1-1.4-1.6-1.3-1.4-3.3-2.7-2.1-5,1.2-2.2,3.5-1.3,5.4-1.2,1.5.1,3.1,1.2,4.2-.7,1.2-1.9-.4-3.2-1.3-4.5-1.1-1.6-2.9-3.1-1.3-5.2,1.6-2,3.6-1,5.5-.4,1.5.4,3.2,1.1,4.4-.3,1.3-1.5,0-2.9-.7-4.3-.9-1.7-2.3-3.6-.6-5.5,1.7-2,3.6-.6,5.4.1,1.4.6,2.9,1.8,4.3.4,1.4-1.3.5-2.9,0-4.4-.6-1.6-1.4-3.1.5-4.5,1.7-1.3,3.2-1.5,5-.2,1.3.9,2.9,2.1,4.6.7,1.6-1.4.3-2.9,0-4.4-.4-1.9-1.4-3.9.8-5.3,2.3-1.5,3.6.6,5.2,1.6,1.3.8,2.2,2.5,4.1,1.5,1.7-1,1-2.8,1.1-4.3.1-1.9-1-4.2,1.5-5.3,2.6-1.1,3.8,1.2,5.3,2.6,1.1,1,2,2.2,3.7,1.5s1.4-2.3,1.5-3.7c.1-1.4-.1-2.9.4-4.2,1-2.3,3.6-1.8,6,1.1,1.1,1.2,1.7,3.4,3.7,3,2.3-.5,1.9-2.9,2.4-4.5.5-1.7,0-3.9,2.5-4.3,2.6-.4,3.3,1.6,4.3,3.3.8,1.4,1.4,3.4,3.6,3,1.9-.3,1.9-2.3,2.3-3.7.6-1.9.6-4.1,3.3-4.4s3,2.1,3.9,3.8c.7,1.4.9,3.6,3.1,3.5,2-.1,2.1-2.1,2.8-3.4.9-1.7,1-4.1,3.7-3.9,2.7.1,2.8,2.4,3.4,4.2.5,1.5.5,3.7,2.7,3.9,1.9.2,2.4-1.7,3.2-3,1-1.7,1.7-3.8,4.3-3.4,2.8.4,2.1,2.9,2.7,4.7.5,1.4,0,3.4,2,3.9,2.2.6,2.9-1.3,3.9-2.6,1.2-1.6,2.3-3.4,4.8-2.5,2.3.8,1.7,3,1.9,4.7.2,1.6-.6,3.6,1.7,4.3,1.8.6,2.8-.8,3.9-1.9,1.2-1.3,2.3-3.1,4.6-2.4,1.1.5,1.4,1.4,1.3,5.3Z"/>
        <path fill="#FFFFFF" d="M523.7,432.5c-.2-6.5-3.8-10.4-10.3-11.4-10-1.5-20.1-.5-30.2-.8-2.2,0-3.3.9-3.8,3-1.1,5.2-2.4,10.5-3.6,15.7-4.5,19.8-9,39.5-13.6,59.2-.7,2.9,0,3.9,2.9,3.8,4.8,0,9.7,0,14.5,0,2.3,0,3.6-.8,4.1-3.2.7-3.8,1.7-7.5,2.6-11.2.7-2.1.7-2.5,1.3-5.2,1-4.8,2-9.7,3.1-14.5.3-1.5,1-2.7,2.9-2.4,1.8.3,2.4,1.5,2.3,3-.1,2-.5,4-.9,5.9-1.7,7.8-3.5,15.7-5.4,23.5-.7,2.9,0,4.3,3.2,4.1,4-.2,7.9-.3,11.9,0,3.3.2,4.6-1.3,5.2-4.2.8-3.7,1.9-7.4,2.8-11.1.7-3.6,1.4-7.2,2.1-10.7,1.4-6.3,2.7-12.5-5.4-16.8,8.5-1.7,10.7-7.5,12.4-13.7,1.2-4.2,2.1-8.5,1.9-13ZM503.1,439.2c-.6,2.9-1.1,6.5-2.7,9.9-.9,1.8-2.5,3.1-4.5,2.4-2.3-.8-.7-2.6-.5-3.9.6-3.3,1.5-6.6,2.2-9.9.4-1.5.5-3.3,2.8-2.9,2.3.4,2.9,1.8,2.7,4.4Z"/>
        <path fill="#FFFFFF" d="M358.4,457.6c3,0,6,.1,8.9,0,2.6-.1,3.6.6,2.9,3.4-3,12.7-5.8,25.4-8.7,38.1-.4,1.7-1.3,2.7-3.2,2.7-2.8-.1-5.7,0-8.5,0s-2.3-.3-2.5-1.7c-.6-3.9-2.1-2.1-3.8-.8-10.6,8-25.8,3.3-27.7-8.7-.8-5,.5-9.9,1.6-14.7,2.7-11.9,5.7-23.7,8.4-35.6,4.3-19,23.1-24.8,37.8-20.8,8.6,2.4,12.6,8.9,11.6,18.6q-1.2,12.2-13.3,12.2t-8.4-10.4c.2-.8.5-1.7.5-2.5-.1-1.5,1-3.7-1.4-4.3-2.5-.7-3.7,1.3-4.2,3.3-2.5,9.9-4.8,19.8-7.2,29.7-1.4,5.9-2.8,11.9-4,17.8-.4,1.8-1.1,4.3,1.6,5,2.3.6,3.6-1.3,4.3-3.2,1.7-4.2,2.5-8.7,3.4-13.1.1-.7.4-1.4-.5-1.8-.2-4.9-.3-7-.6-10.6-.2-3.4,3.3-2.7,5.2-2.6,2.7-.3,5.3,0,7.8,0Z"/>
        <path fill="#FFFFFF" d="M442.5,420.4c-10.1,0-7.8-1.8-11.4,8-8.4,22.7-16.6,45.5-24.9,68.3-1.8,5-1.6,5.3,3.6,5.4,3.3.1,6.5.1,9.8.2q7.2-.5,9.4-7.4c.6-1.8,1.2-3.5,1.7-5.3.8-3.2,3.3-2.6,5.5-2.4,2.8.2,1.7,2.2,1.5,3.8-.4,2.3-.8,4.7-1.1,7.1-.4,2.7.5,4,3.4,3.9,4.8,0,9.7,0,14.5,0,2.8,0,3.9-1.2,4.1-3.7.3-4.6.6-9.1,1-13.6,1.1-12.3,2.1-24.6,3.1-36.9.8-9.2,1.4-18.4,2-27.6-7.3,0-14.7-.1-22.2.2ZM441.7,469.4c-.4,3.1-2.6,2.9-4.7,2.7-3.3-.4-1.4-2.6-1-3.8,2.5-7.5,5.1-15,7.7-22.3l.7.7c-.9,7.6-1.9,15.1-2.7,22.7Z"/>
        <path fill="#FFFFFF" d="M383.3,501.9h-14.9c-2.6,0-3.5-.8-2.8-3.6,5.9-24.9,11.6-49.9,17.3-74.9.6-2.4,1.6-3.3,4-3.3,9.5.1,19,.1,28.5,0,2.9,0,3.9,1.1,3.1,3.8-.2.7-.4,1.4-.5,2.1-2.3,10.6-2.3,10.7-13.2,11-2.6.1-4,.8-4.2,3.5,0,.3-.2.5-.3.8-.3,3.2-3,6.8-1.3,9.4,1.7,2.5,5.8.8,8.8.9,2.6.1,3.3,1,2.5,3.4-.2.7-.3,1.4-.4,2.1-2.3,10-2.3,10.1-12.6,10.7-2,.1-3.2.7-3.6,2.7-.9,3.9-1.8,7.7-2.7,11.6-.5,2,.3,2.9,2.4,2.9,3,0,6,.1,8.9,0,2.5-.1,3.4.9,2.8,3.3-.1.3-.1.5-.2.8q-2.8,12.9-16,12.9c-1.9,0-3.8,0-5.6,0h0Z"/>
        <path fill="#FFFFFF" d="M111.6,443.3c0,.1,0,.2,0,.3,0,0,0-.1,0-.2h0Z"/>
        <path fill="#FFFFFF" d="M444.6,446.4s0,0,0,0c0,0,0,.2-.1.2l-.7-.7s0,0,0,0c.2-.2.5-.3.7-.2.3.2.3.5.2.7Z"/>
        <path fill="#FFFFFF" d="M444.6,446.4s0,0,0,0c0,0,0,.2-.1.2l-.7-.7s0,0,0,0c.4-.7.3-1.6,1.2-2,.6,1,.2,1.7-.2,2.5Z"/>
        <text class="cls-1" transform="translate(316.8 520)"><tspan fill="#FFFFFF" x="0" y="0">GEAR CUTTERS &amp; PRECISION ENGINEERS</tspan></text>
        <path fill="#FFFFFF" d="M305.2,498.1c-8-21.4-16.1-42.7-24.1-64.1q-4.1-11.2-15.7-11.2c-1.8,0-3.7.3-5.5,0-4.8-.7-6.9,1.3-8.6,5.8-8.1,21.7-16.5,43.2-24.8,64.8-3.9,10-3.8,9.3,7,10.2,8.9.8,14.3-1.6,16-10.7.5-2.4,2.1-3.4,4.7-3.3,4.5,0,9.1,0,13.6,0,11.2,0,11.3,0,15.4,10.4,1,2.6,2.3,3.5,5,3.4,4.5,0,9.1,0,13.6,0s5.4,0,3.4-5.2ZM270.7,473.1c-3.7.1-7.3.1-11,0-1.7,0-2.7-.7-2.1-2.7,2.3-6.9,4.7-13.8,7-20.8.4.1.8.1,1.1.1,2.3,7,4.7,14.1,7,21.1.6,1.8-.5,2.3-2,2.3ZM289.3,509.3q-8.8-.2-12-8.6c-.1-.4-.3-.8-.5-1.2-1.6-4.1-1.8-4.1-4.6-.7-24.4,29.6-66,38.1-98.6,18.4-10.6-6.4-20.7-8.7-32.3-7.9-1.6.1-3.1,0-4.7,0s-2.8,0-4-1c-3.6-12.5-7.1-25.1-11.2-37.4-2.6-8.4-4.5-17.2-7.9-25.3-.2,2.9-2.9,3.2-5,4.1-1.5.6-3,1.3-3,3.2s1.7,2.8,3.3,3.4c1.8.6,4.3.4,4.5,3,.2,2.3-2.2,2.6-3.7,3.5-1.5.9-3.1,1.7-2.7,3.8.4,2,2.1,2.4,3.9,2.6,1.8.2,4.1,0,4.8,2.1.8,2.3-1.7,2.9-3,4-1.4,1.2-3.3,2-2.6,4.3.7,2.3,2.6,2.2,4.5,2.3,1.8,0,4-.6,4.8,1.7.7,2.1-1.4,2.8-2.5,4-1.2,1.4-2.9,2.6-2,4.7.9,2.3,3,1.6,4.8,1.6s3.7-.7,4.7,1.1c1.1,1.9-.8,3-1.7,4.4-.4.6-.9,1.1-1.3,1.7-1.5,2.5-.5,4.6,2.4,4.6s2.8-.5,4.2-.7c2.3-.3,3.7.5,3.6,2.8,0,0-.2,0-.2,0-1.5,2.2-4.4,4.1-2.7,7,1.9,3.3,4.5.5,6.8,0,1.1-.2,2.3-.6,3.2.4.8,1,.6,2.1,0,3.2-.3.8-.7,1.5-1.1,2.3-.7,1.5-1.2,3,.2,4.3,1.4,1.2,2.9.8,4.4,0,1-.5,1.9-1.1,3-1.5,2.3-.8,3.3.3,3.2,2.5,0,1.1-.5,2.3-.9,3.3-.6,1.6-1,3.1.5,4.3,1.6,1.2,3.2.8,4.7-.4.6-.5,1.4-1,2.1-1.4,2.7-1.7,3.9-.7,3.9,2.3s-.2,2-.5,2.9c-.5,1.6-.3,3,1.2,4.1,1.8,1.2,2.9,0,4.2-.9,1.7-1.1,2.8-3.9,5.3-2.7,2.4,1.1.8,3.5,1,5.4v.9c0,1.3.5,2.5,1.9,3,1.2.4,2.5.2,3.5-.8s1.8-2.2,2.8-3.2c1.7-1.6,3.1-1.1,3.9,1,.4,1,.5,2.2.6,3.3.2,1.7,0,3.6,2.3,4,2,.4,3-1.1,4-2.5,1-1.4,1.5-3.7,3.9-3.2,2.3.5,1.7,3,2.4,4.6.1.4.1.9.2,1.3.4,1.3,1.1,2.3,2.6,2.4,1.4,0,2.4-.4,3.1-1.7l1.5-3c.5-1,1.1-2,2.5-1.9,1.4,0,1.9,1.1,2.3,2.2.8,1.8,1.6,3.6,2.4,5.4h3.4c.5-.8,1-1.7,1.4-2.6.9-1.8.5-4.7,3.3-4.9,2.5,0,2.6,2.6,3.6,4.2.9,1.4,1.7,2.7,3.6,2.4,1.9-.3,2.3-1.7,2.7-3.3.4-1.8,0-4.4,2.5-4.9,2.3-.5,2.9,1.9,3.9,3.3,1,1.5,2.1,2.9,4.1,2.4,2.2-.5,2.1-2.4,2.2-4.1.1-1.8,0-4,1.9-4.8,2.4-.9,3.2,1.3,4.3,2.7,1.2,1.5,2.6,2.7,4.7,1.8,1.9-.9,2-2.6,1.7-4.4-.2-1.8-.8-4,1.2-5s3.3,1.2,4.6,2.2c1.5,1.2,2.9,2.7,4.9,1.4,1.7-1.1,1.1-2.9.9-4.6s-1.4-3.9.6-5.1c1.9-1.2,3.3.7,4.9,1.6.3.1.5.3.7.5,1.2.9,2.6,1.3,3.9.3,1.3-1,1.6-2.3,1-3.8-.4-.9-.7-1.8-.9-2.8-.2-1.1-.6-2.3.4-3.2,1.1-1.1,2.3-.6,3.5,0,.8.4,1.6.7,2.3,1.1,1.4.8,2.7,1.1,4,0,1.3-1.2,1-2.6.6-4-.5-2-3.2-3.9-1.1-6.1,2.1-2.2,4.1.6,6.2.8,1.6.2,3.1.4,4-1.4.9-1.8-.2-3-1.2-4.2-1.1-1.4-2.8-1.2-4.3-1.2ZM136.7,500.4c.7,2.2,1.8,3,4,3,5-.1,9.9-.2,14.9,0,2.7,0,4.1-1.1,4.9-3.6,2.8-8.5,5.6-17,8.6-25.4,1.8-5.1,3-10.5,6-16.4.8,2.4,1.2,3.8,1.5,5.5,3,9.9,6,19.8,9,29.7,3.2,10.4,3.3,10.4,14.2,10.4s10.7,0,14-10.2c7.1-21.8,14-43.8,21.1-65.6,1.1-3.5.7-5-3.3-4.8-4.4.2-8.8.2-13.2,0-3.3-.2-4.8,1.1-5.7,4.2-3.7,13.1-7.6,26.1-11.4,39.2-.6,2-.9,4.3-2.6,6.6-.7-1.9-1.2-3.2-1.6-4.5-3.4-11.3-6.8-22.5-10.2-33.8-3.6-11.9-3.6-11.8-16.2-11.8s-5,1.2-6,4.4c-4.3,13.8-8.8,27.5-13.3,41.3-.4,1.4-.5,3-2.2,4.1-.5-1.7-.9-3-1.3-4.4-3.7-13.8-7.5-27.6-11.1-41.5-.7-2.8-1.9-4-4.9-3.9-5,.2-9.9,0-14.9,0-2.5-.1-3.3.8-2.5,3.3,7.5,24.7,14.9,49.4,22.2,74.2ZM113.4,445.4c0,0,0,.1,0,.2,0,0,0-.2,0-.3h0ZM107.8,442.2c1.9,1.1,4,2,6,3,0-2.2-1.1-4.2-1.5-6.5-.4-1.4-.8-2.4-2.5-2.2-1.5.2-2.8.6-3.4,2.1-.6,1.6,0,2.8,1.4,3.6Z"/>
      </g>
    </g>
  </g>
</svg>