<?xml version="1.0" encoding="UTF-8"?>
<svg xmlns="http://www.w3.org/2000/svg" version="1.1" viewBox="0 0 595.3 841.9">
  <!-- Generator: Adobe Illustrator 28.6.0, SVG Export Plug-In . SVG Version: 1.2.0 Build 709)  -->
  <g>
    <g id="Layer_1">
      <g id="Layer_1-2" data-name="Layer_1">
        <g>
          <path fill="#FFFFFF" d="M1255.4,892.5c-1-1.7-2.8-2-4.4-2.8-14.2-6.7-28.4-13.3-42.5-19.9-37.6-17.6-75.2-35.3-112.8-52.9-1.4-.7-2.8-1.4-4.5-2.3.3-1.5.7-2.9,1-4.2,4.2-16.7,8.5-33.5,12.7-50.2,7.4-29.1,14.9-58.2,22.3-87.3,11.8-46.1,23.6-92.3,35.4-138.4,0-.3.2-.6.3-.9,1.1-4.4.8-5.3-3.1-7.4-17.9-9.6-35.8-19.2-53.7-28.8-.4-.2-.9-.2-1.7-.4-.3.8-.6,1.4-.8,2.1-5.7,23.8-11.4,47.6-17.1,71.3,0,.5-.2.9-.3,1.4-1.1,10.9-4.3,21.3-6.8,31.9-4.5,19.8-9.1,39.6-13.7,59.3-.2.9-.3,1.9-.7,2.8-.2.5-.8,1.2-1.2,1.2s-1.1-.7-1.3-1.2c-.4-1-.6-2.1-.9-3.2-1.4-6.4-2.8-12.8-4.1-19.2-8.5-39.4-17.1-78.7-25.6-118.1-4.9-22.6-9.8-45.3-14.7-68-.2-.9-.4-1.9-.6-2.8-.8-3.5-2.8-6-6.1-7.6-5-2.5-10-5.1-14.9-7.7-13-6.8-26-13.7-39.1-20.5-2.2-1.2-4.4-2.6-7.2-3.1-1,4-2,7.9-3,11.7-5.1,21.3-10.5,42.5-15.2,63.9-5.7,25.9-12.5,51.6-18.6,77.4-1.1,4.8-2.6,9.6-3.9,14.3-.3,1.1-.8,2.1-1.4,3.8-.6-1.6-1.1-2.5-1.3-3.5-3-14.9-6-29.8-9-44.7-3.9-19.4-7.9-38.8-11.8-58.3-5.3-26.5-10.6-53-16-79.4-1.7-8.3-3.3-16.6-5-24.9-.2-.9-.5-1.9-.7-2.8-.7-3.4-2.6-5.8-5.6-7.4s-6-3.1-8.9-4.6c-18.4-9.6-36.8-19.2-55.3-28.8-2.2-1.2-4.4-2.5-7.3-3.3.3,2.4.3,4.5.7,6.5,2.2,10.6,4.6,21.2,6.9,31.9,5.5,25.6,11,51.3,16.5,76.9,6.6,30.9,13.3,61.9,20,92.8,8.5,39.5,16.9,79.1,25.4,118.6,2.7,12.5,5.4,25,8.1,37.5.4,2,.7,4,1,5.9-1,1.1-1.7.5-2.3,0-13.6-7.1-27.2-14.2-40.8-21.4-24.5-12.9-48.9-25.9-73.3-38.8-.6-.3-1.1-.6-1.7-.9-3.1-1.4-4.7-3.6-4.2-7.2.3-2,0-4.2,0-6.2V-12.2c0-2.1,0-4.2,0-6.2.2-2.6,1.4-4.5,4.1-5.3,2.5-.7,4.8-1.6,7.3-2.4,22.6-6.9,45.2-13.8,67.8-20.8,1.3-.4,3,0,3.9-1.5h1.9c1.7.8,3.4,1.7,5.1,2.5,20,10.4,40,20.7,60,31.1,20.4,10.6,40.8,21.2,61.3,31.8,20.4,10.6,40.9,21.2,61.3,31.8,18.2,9.4,36.3,18.8,54.5,28.2,21.3,11,42.6,22.1,63.9,33.1,18.3,9.5,36.6,19,54.9,28.5,22,11.4,44,22.8,66,34.2,18.5,9.5,36.9,19.1,55.4,28.5,3,1.6,5.7,3.4,7.2,6.6v617.3c-.2.2-.5.5-.6.7-.7,4.1-3,7.3-5.6,10.3-2.1,2.4-4.5,4.5-6.7,6.8-13.6,13.8-27.2,27.7-40.8,41.5-1.7,1.7-3.3,3.5-4.9,5.2-.6.7-1.3,1.5-.9,2.5h-2.8l.4.3Z"/>
          <path fill="#FFFFFF" d="M-718.7,447.3c5.6-.6,21.3-.5,25.3,0,.5,1,1.1,2,1.6,3.2,16.9,40,33.8,80.1,50.7,120.1,1,2.4,1.8,4.8,2.9,7.1.6,1.4,1,3.1,2.8,4.1,1-1,1.4-2.3,1.9-3.5,8.2-18.6,16.4-37.2,24.5-55.7,10.5-23.8,21-47.7,31.5-71.5.3-.7.6-1.5,1-2.2.7-1.5,1.9-2,3.5-2s2.8.7,3.5,2.1c.6,1.3,1.2,2.6,1.8,3.9,18.4,41.7,36.8,83.3,55.2,125,.6,1.5,1.4,2.9,2,4.3,1.8-.4,1.8-1.9,2.3-3,5.9-13.5,11.7-27,17.5-40.5,12.3-28.6,24.6-57.3,36.9-85.9.5-1.2,1-2.4,1.7-3.4.9-1.4,2.2-2.4,3.9-2.4h21.9c.7,1.6-.1,2.7-.6,3.8-8,18.6-16.1,37.3-24.2,55.9-18.1,41.8-36.3,83.5-54.5,125.3-.3.7-.6,1.5-.9,2.2-.8,1.6-2,2.4-3.8,2.3-1.5,0-2.7-.8-3.4-2.3-1.3-2.9-2.6-5.8-3.9-8.8-17.2-38.7-34.5-77.3-51.8-116-1-2.2-2.1-4.3-3.4-7-1,1.6-1.7,2.6-2.2,3.7-18.6,41.7-37.3,83.5-55.9,125.2-.5,1-.8,2.1-1.4,3-1.5,2.7-5.1,2.8-6.6,0-.7-1.2-1.2-2.6-1.8-3.9-21.4-50.1-42.8-100.2-64.2-150.4-4.1-9.7-8.3-19.4-12.4-29.1-.5-1.2-.9-2.4-1.4-3.9v.2Z"/>
          <path fill="#FFFFFF" d="M111.9,543.9H31.3c-2.4,0-3,.7-3,3.3s.1,3.2.3,4.8c2,16.6,7.9,31.5,19.3,44.1,9.9,10.9,22.1,18,36.4,20.8,21.7,4.2,41.9,0,60.3-12.4,6.4-4.3,11.9-9.7,16.4-16,2.7-3.8,5.2-7.7,7.8-11.5.4-.7.8-1.4,1.4-2,.8-1,1.9-1.2,3-.9.8.2,1.5.6,2.2,1,4.4,2.3,8.8,4.6,13.2,6.9.7.4,1.4.7,2.1,1.2,1,.7,1.2,1.8.8,3-.2.6-.5,1.2-.8,1.7-7.4,13.5-16.6,25.4-28.9,34.8-12.8,9.7-27.2,15.3-43,17.5-12.3,1.7-24.5,1.6-36.8,0-14.4-2-27.3-7.4-39-16.2-22.3-16.9-35.4-39.1-39.1-66.8-2-14.9-1.4-29.7,2.6-44.2,4.4-15.9,12.5-29.7,23.9-41.5,3.5-3.7,7.3-7.2,11.3-10.4,11.8-9.6,25.2-15.5,40.3-17.8,14.9-2.2,29.7-1.9,44.3,1.6,22.5,5.5,40.4,18.1,53.8,36.8,10.4,14.5,16.3,30.7,17.7,48.5.3,3.3.6,6.7.7,10,0,2.5-.9,3.5-3.4,3.7-2.2.2-4.5.3-6.7.3h-76.3c0,0-.2-.3-.2-.3ZM170.5,521.5c-.1-1-.1-2-.4-2.9-1.6-4.5-3-9.1-4.9-13.5-4.3-10.1-11-18.3-19.9-24.7-18.8-13.5-39.7-17.8-62.3-12.7-14.6,3.3-26.9,10.8-36.4,22.5-7.2,8.8-11.8,18.9-15,29.8-.1.5,0,1.2.1,1.7,3.3.4,130.8.7,136.8.4.6,0,1.2-.3,2-.5h0Z"/>
          <path fill="#FFFFFF" d="M499.1,478c1.8-.3,2.3-1.6,3.1-2.5,4.5-5,9.1-9.9,14.2-14.3,11.8-10,25.2-16.3,40.4-18.6,16.8-2.6,32.8-.4,47.7,8.2,16.3,9.4,26.2,23.6,30.7,41.7,2.7,10.8,3.8,21.7,3.9,32.8.2,29,.2,57.9.2,86.9v21.2c-.2,2.2-1.1,3-3.5,3.1h-15.8c-4.6,0-1.9,0-2.9,0-1.4,0-2.4-1-2.6-2.4-.2-1.6-.3-3.2-.3-4.8,0-15.4.2-30.7.2-46.1s-.2-16-.2-24,.2-11.8.2-17.8c0-10.1,0-20.2-1.2-30.2-1.4-12.6-5.6-24-14.4-33.3-7.4-7.8-16.6-12.3-27.3-13.6-9.1-1.1-17.8.4-26.3,3.7-13.2,5.2-24.5,13.2-32.8,24.9-6.5,9.2-10.2,19.5-11.6,30.7-1.5,11.8-1.9,23.6-2,35.4v73c-.2,3.3-1.2,4.3-4.4,4.4-5.8,0-11.5.2-17.3,0-2.3,0-3.1-.9-3.2-3.3,0-2.1.1-4.2.1-6.2v-171.4c0-24.5-.1-49-.1-73.4s0-3.2.1-4.8c.3-2.3,1.4-3.4,3.7-3.6h1.9c4.3,0,8.6.4,12.9,0,5.3-.4,6.4,1.6,6.4,5.9s-.1,6.7-.1,10.1v84c0,1.4.1,2.8.2,4.3h0Z"/>
          <path fill="#FFFFFF" d="M-300.8,478.8c3.1-3.5,5.5-6.1,7.8-8.7,11.8-13.1,26.2-21.9,43.2-26.2,23.4-5.9,44.7-1.2,63.7,13.5,8.3,6.4,13.9,14.9,17.8,24.6,2.9,7.1,4.7,14.6,5.6,22.2,1.6,12.1,2.1,24.2,2.1,36.4v88.3c0,29.4,0,3.2-.2,4.8-.2,1.7-1.1,2.5-2.8,2.8h-18.7c-2.2-.2-3.2-1-3.4-3.2-.1-1.4,0-2.9,0-4.3v-98.9c0-8-.5-16-1.9-23.9-1.1-6.7-3.1-13.1-6.3-19-6-11-15.2-18-27.4-20.8-13.6-3.2-26.8-1.6-39.3,4.3-17.8,8.4-30,22-36.2,40.8-1.7,5-2.4,10.3-3,15.5-1,9.4-1.4,18.8-1.4,28.2v73.9c0,1.8-.1,3.5-.4,5.2-.2,1.2-1.1,1.9-2.3,2.1h-19.2c-1.6-.2-2.7-1-3-2.6-.3-1.5-.4-3.2-.4-4.7v-61.4c0-13.3.3-26.5.3-39.8s-.3-30.1-.3-45.1.3-9.3.3-13.9-.2-10.2-.4-15.3c-.1-6.1.5-6.7,6.4-6.6h15.3c2.6.2,3.3.9,3.5,3.5v23.1c0,1.4.1,2.8.2,5.3h.4Z"/>
          <path fill="#FFFFFF" d="M337.4,641.7c-28-.3-52.6-9.5-73.2-28.7-13.9-12.9-22.7-28.7-27.1-47.1-1.8-7.5-2.6-15.2-2.6-22.8.1-46.6,29.2-80.3,64.6-94,10.8-4.2,22-6.4,33.6-7.1,14.8-.9,29.4.8,43.6,5.1,15.4,4.7,29.1,12.3,40.3,24,3.5,3.7,6.4,8,9.5,12,.3.4.5.8.7,1.2.5,1.1.4,2.4-.7,3-5.2,3.3-10.5,6.6-15.9,9.9-1.1.6-2.2.4-3.2-.3-.9-.7-1.7-1.5-2.4-2.3-13.6-16-30.9-25.6-51.7-28.6-24.3-3.5-46.5,1.7-65.6,17.5-20,16.5-29.5,38.1-27.1,64,2.7,28.8,17.2,50.3,43.6,63.3,6.4,3.1,13.2,4.9,20.1,6,7.8,1.3,15.5,1.8,23.4,1.3,16.1-1,30.5-6.5,43.3-16.2,5-3.8,9.6-8,13.6-12.8,2.7-3.2,4.6-4.2,8.9-.9,3.1,2.4,6.6,4.4,10,6.6.8.5,1.7,1,2.4,1.6,1.4,1.1,1.6,2.2.7,3.8-.5,1-1.2,1.9-1.9,2.8-13.5,17.2-30.8,28.6-52,34.1-10.1,2.6-20.4,4.1-30.8,4.3-1.4,0-2.9.2-4.3.3h.2Z"/>
          <path fill="#FFFFFF" d="M1022.9,783.4c-2.2-1.1-3.8-2-5.5-2.9-22.7-12.4-45.4-24.8-68.1-37.2-3.6-2-7.3-4-11-5.9-1-.5-2-1.1-2.8-1.8-1.2-1-1.8-2.3-1.5-3.8.3-1.6.7-3.1,1.1-4.7,12.7-51,25.4-102,38.1-152.9.6-2.5,1.3-4.9,2.2-8.3.7,1.8,1.2,2.7,1.5,3.6,3,13.7,5.9,27.5,8.9,41.2,6.2,28.4,12.4,56.8,18.5,85.2,6.1,28.1,12.2,56.2,18.3,84.3.2.9.2,1.8.3,3.2h0Z"/>
          <path fill="#FFFFFF" d="M-62.7,552.1v72.9c0,2.4.2,4.8,0,7.2-.2,3.3-1.2,4.3-4.4,4.3h-16.8c-3.1,0-3.9-.8-4-4,0-4.2,0-8.3,0-12.5v-119.4c0-8.6.2-17.3.2-25.9s-.6-6.5-6.6-6.5-14.1.1-21.1.1h-2.9c-1.6-.2-2.4-.9-2.5-2.4-.3-4.3-.6-8.6-.6-12.9s2-6.5,6.8-6.7c1.3,0,2.6-.1,3.8,0,6.1.9,12.1.4,18.2.6,3.4.1,4.7-1,4.8-4.4.2-3.2,0-6.4,0-9.6,0-17.1,0-34.2-.2-51.3v-.5c.2-4.1,1.1-4.9,5.3-4.9h14.9c.9,0,1.9,0,2.8.3,1.2.3,2,1.2,2.1,2.4,0,1.4,0,2.9,0,4.3v60.4c.2,1.9,1.1,2.9,3,3.1.8.1,1.6,0,2.4,0h27.3c5.6,0,5.7.2,5.8,5.6v12.5c0,2.5-.8,3.2-3.1,3.3-1.6.1-3.2,0-4.8,0-8.2,0-16.3-.1-24.5-.1s-6.2.1-6.2,6.2v77.7l.2.2Z"/>
          <path fill="#FFFFFF" d="M-400.2,635.6c-1.5-2.7-1-5.8-1-8.8s.3-5.7.3-8.6v-164.1c0-1.6,0-3.2.1-4.8.1-1.5.9-2.2,2.5-2.4h16.8c4.8,0,1,0,1.4,0,2.9.1,3.6.7,3.9,3.7.2,2.4.2,4.8.1,7.2,0,2.2-.3,4.5-.3,6.7v150.2c0,5,.3,9.9.4,14.8,0,6.4-1.1,7.5-7.1,7-4.3-.3-8.6,0-12.9,0s-2.9.2-4.2-.8h0Z"/>
          <path fill="#FFFFFF" d="M-388.7,409.4c-9.6.2-20.4-7.1-20.3-20.4,0-11.4,8.2-20.1,20-20.2,13.5-.1,20.4,10.1,20.4,20.1s-8.4,20.4-20.1,20.4h0Z"/>
        </g>
      </g>
    </g>
  </g>
</svg>