<?xml version="1.0" encoding="utf-8"?>
<!-- Generator: Adobe Illustrator 26.5.0, SVG Export Plug-In . SVG Version: 6.00 Build 0)  -->
<svg version="1.1" id="Layer_1" xmlns="http://www.w3.org/2000/svg" xmlns:xlink="http://www.w3.org/1999/xlink" fill="#FFFFFF" x="0px" y="0px"
	 viewBox="0 0 1190.6 841.9" style="enable-background:new 0 0 1190.6 841.9;" xml:space="preserve">
<g>
	<path fill="#FFFFFF" d="M313.8,295.3c0.2-1.1,0.4-2.1,0.7-3.2c1.1-4.3,2.8-8.4,5.2-12.3c1.1-1.7,2.1-3.4,3.1-5.2c0.1-0.2,0.1-0.6-0.1-0.7
		c-0.9-0.7-0.8-1.6-0.4-2.5c0.6-1.3,1.6-2.5,2.8-3.4c2.6-1.8,5.3-3.5,7.9-5.2c0.9-0.6,1.5-1.2,1.7-2.3c0.2-1.2,0.9-1.9,1.9-2.4
		c2.7-1.2,5.4-2.1,8.4-2.6c2.1-0.3,4.1,0.2,6.2,0.4c1.3,0.2,2.5,0.4,3.8,0.4c3.4,0.1,6.8-0.1,10.2-0.8c3.3-0.7,6.5,0.1,9.6,1.3
		c1.1,0.4,2.1,0.9,3.1,1.3c0.9,0.4,1.6,1.1,1.6,1.9c0.2,1.7,1.3,2.5,2.6,3.2c2.3,1.4,4.5,2.7,6.7,4.3c1.1,0.8,2,1.9,2.9,3
		c0.4,0.5,0.5,1.2,0.6,1.8c0.1,0.9,0,1.1-1,1.8c0.8,1.3,1.6,2.7,2.4,4c3,4.4,5.1,9.2,6.4,14.4c0.5,2,0.8,4.1,0.2,6.1
		c-0.1,0.6-0.3,1.2-0.7,1.6c-0.6,0.7-0.6,1.5-0.4,2.2c0.3,2.2,0,4.3-0.2,6.5c-0.3,3.5-1.2,6.9-2.4,10.3c-0.2,0.6-0.5,1.3-0.7,1.9
		c-0.3,0.9-0.6,1.8-0.6,2.7c0,1.4-0.5,2.6-1.1,3.8c-1.6,3-3.2,6-5,8.8c-1.1,1.8-2.6,3.4-4,5c-1.2,1.3-2.6,2.4-3.9,3.6
		c-0.3,0.3-0.6,0.7-0.7,1c-0.3,1.5-1,2.7-2,3.7c-3.3,3.8-7.3,6.8-11.8,9.1c-1.1,0.6-2.4,0.9-3.5,1.4c-0.4,0.2-0.9,0.4-1.2,0.7
		c-2.1,2.5-4.6,4.7-7.2,6.7c-0.2,0-0.4,0-0.7,0c-0.5-2-1.3-3.8-2.3-5.5c-0.7-1.2-1.5-2.2-3-2.7c-1.3-0.4-2.6-1.1-3.8-1.9
		c-3.3-2-6.3-4.4-9-7.3c-1.2-1.3-2.3-2.6-2.6-4.4c0-0.3-0.4-0.6-0.6-0.9c-2.2-2.2-4.5-4.2-6.5-6.6c-2.7-3.2-4.8-6.9-6.6-10.7
		c-0.7-1.5-1.3-3-1.1-4.7c0.1-0.5,0-1.1-0.2-1.6c-1.3-3.2-2.2-6.5-2.8-9.9c-0.6-3.2-0.9-6.5-0.5-9.8c0-0.3,0-0.6-0.1-0.9
		c-0.4-1.1-0.9-2.1-1.4-3.2C313.8,296.9,313.8,296.1,313.8,295.3z M332.2,337.8c-0.1-0.9-0.2-1.7-0.2-2.6c0-2.3,0-4.6,0-6.9
		c0-0.9,0.2-1.9,0.3-2.8c0-0.2,0.4-0.4,0.6-0.4c0.1,0,0.3,0.3,0.4,0.5c0.1,0.4,0.1,0.8,0.2,1.1c0.3,2.1,0.5,4.2,0.9,6.2
		c0.4,2.5,0.8,5.1,1.3,7.6c0.5,2.3,1.2,4.4,3,6c1.4,1.2,2.8,2.3,4.2,3.5c0.6,0.5,1.2,0.9,1.9,1.4c-0.2-1.3-0.4-2.4-0.6-3.5
		c-0.3-1.3,0.1-2.5,0.5-3.7c0.1-0.2,0.5-0.4,0.7-0.5c0.1,0.3,0.3,0.5,0.4,0.8c0.4,1.6,0.7,3.2,1.3,4.7c0.8,1.9,2.2,3.5,3.5,5.1
		c1.8,2.2,3.2,4.6,4.8,6.9c0.3,0.4,0.5,0.5,0.8,0.1c1.5-1.7,3-3.3,4.4-5c2.7-3.6,4.3-7.7,5.4-12c0.1-0.2,0.3-0.4,0.5-0.6
		c0.2,0.2,0.5,0.3,0.5,0.5c0.2,0.8,0.4,1.7,0.3,2.5c-0.1,2.1-0.3,4.1-0.4,6.1c0,0,0.2-0.1,0.4-0.2c2.4-1.8,4.7-3.6,7.1-5.4
		c1.7-1.2,3-2.8,3.5-4.8c0.6-2.1,1-4.3,1.4-6.4c0.3-1.8,0.6-3.5,0.8-5.3c0.2-1.7,0.5-3.4,0.7-5.1c0.1-0.4,0-0.8,0.6-0.8
		c0.6,0,0.6,0.5,0.6,0.9c0,0.2,0,0.5,0,0.7c0.5,3.2,0.3,6.4,0.2,9.6c0,0.5-0.1,1-0.2,1.5c0.1,0,0.2,0,0.2,0.1
		c0.7-0.8,1.4-1.7,2.1-2.5c2-2.3,3.6-4.8,4.9-7.6c1.7-3.8,2-7.7,1.6-11.7c-0.2-2.2-0.5-4.4-0.8-6.6c-0.3-2-0.6-4-1-5.9
		c-0.4-2.1-0.9-4.2-1.3-6.3c-0.1-0.3,0.3-0.7,0.4-1c0.2,0.2,0.6,0.3,0.7,0.6c0.4,0.7,0.7,1.4,1,2.1c1.6,3.5,2.6,7.2,3.2,11
		c0.2,1.4,0.6,2.8,0.8,4.1c0.1,0,0.2,0,0.3,0c0.6-2.8,1.3-5.6,1.6-8.4c0.4-4-0.4-7.9-2.2-11.6c-1.7-3.3-3.9-6.2-6.4-8.8
		c-0.2-0.2-0.4-0.5-0.6-0.8c1-0.7,1.8-0.7,2.6-0.1c2.4,1.9,4.3,4.2,5.7,6.9c0.4,0.9,0.9,1.8,1.3,2.7c0-0.9-0.1-1.7-0.3-2.6
		c-0.7-3.1-1.9-6-3.5-8.8c-2.4-4-5.1-7.7-9.2-10.1c-0.2-0.1-0.3-0.4-0.3-0.5c0-0.1,0.3-0.3,0.5-0.3c0.8,0.1,1.5,0.2,2.3,0.4
		c0.9,0.3,1.8,0.7,2.8-0.1c-0.2-0.3-0.4-0.6-0.7-0.9c-2.3-2.4-5.1-4-8-5.3c-2.2-1-4.6-1.5-7.1-1.6c-2.6-0.1-5.2,0.5-7.7,1.2
		c-0.5,0.1-1,0.3-1.5-0.2c3.4-3.3,7.8-3.5,12.3-4c-0.5-0.3-0.8-0.5-1.1-0.6c-0.3-0.1-0.6-0.2-0.9-0.4c-3.9-1.7-7.9-2-11.9-0.7
		c-2.6,0.9-5.3,1.1-8.1,0.4c-2.2-0.6-4.3-1.4-6.7-1.2c-1,0.1-2.1,0.2-3.1,0.3c-1.9,0.4-3.7,1.1-5.5,2.1c4.5,0.4,8.8,0.7,12.1,4.1
		c-0.4,0.1-0.9,0.2-1.3,0.1c-1.6-0.3-3.3-0.8-4.9-1.1c-3-0.5-5.8,0-8.7,0.9c-2.4,0.8-4.6,2.1-6.7,3.6c-1.2,0.9-2.4,1.8-3.2,3.1
		c1.1,0.5,1.1,0.5,2.2,0.1c1-0.3,2.1-0.5,3.2-0.7c0.1,0.1,0.1,0.2,0.2,0.3c-0.2,0.2-0.3,0.6-0.5,0.7c-2.6,1.6-4.7,3.8-6.5,6.2
		c-2.5,3.4-4.4,7-5.6,11.1c-0.4,1.3-0.6,2.6-0.9,3.9c0.1,0,0.1,0,0.2,0.1c0.4-0.9,0.8-1.7,1.3-2.6c1.4-2.8,3.5-5,5.8-6.9
		c0.8-0.6,1.9-0.4,2.5,0.4c-0.3,0.3-0.7,0.5-1,0.8c-2.6,2.9-5,5.9-6.5,9.5c-1.3,3.2-2.2,6.5-1.8,10c0.3,2.1,0.6,4.2,1,6.3
		c0.2,0.8,0.5,1.7,0.8,2.5c0.3-0.6,0.5-1.2,0.6-1.8c0.6-3.3,1.2-6.6,2.4-9.8c0.7-1.8,1.5-3.6,2.2-5.4c0.1-0.2,0.5-0.4,0.7-0.5
		c0.1,0.3,0.3,0.5,0.4,0.8c0,0.1,0,0.3,0,0.4c-0.5,2.2-1,4.4-1.4,6.7c-0.5,2.9-0.9,5.8-1.3,8.7c-0.2,1.2-0.2,2.4-0.4,3.6
		c-0.4,2.3-0.3,4.6,0.1,6.9c0.5,2.4,1.3,4.6,2.5,6.7C327.8,332.9,329.9,335.4,332.2,337.8z"/>
	<path fill="#FFFFFF" d="M449.3,313.6c1.1-1.8,2-3.5,3-5.2c1.8-3.1,3.7-6.1,5.5-9.2c2.1-3.6,4.3-7.1,6.4-10.7c0.1-0.2,0.4-0.4,0.6-0.4
		c3.3,0,6.5,0,9.8,0c0.2,0,0.5,0.2,0.6,0.4c2.8,4.7,5.7,9.5,8.5,14.3c2,3.3,4,6.7,6,10c0.1,0.2,0.2,0.5,0.4,0.8c-0.4,0-0.6,0-0.9,0
		c-2.9,0-5.8,0-8.8,0c-0.5,0-0.8-0.2-1.1-0.6c-1.9-3.3-3.8-6.6-5.7-9.9c-1.3-2.3-2.6-4.6-4-6.9c-1.2,2.1-2.3,4.1-3.5,6.1
		c-1.5,2.6-3,5.2-4.5,7.8c-0.6,1-1.1,2-1.7,2.9c-0.2,0.3-0.5,0.6-0.8,0.6C456,313.7,452.8,313.6,449.3,313.6z"/>
	<path fill="#FFFFFF" d="M533,288.2c-0.9,1.5-1.7,2.9-2.5,4.2c-1.8,3.1-3.7,6.2-5.6,9.3c-2.2,3.6-4.4,7.2-6.5,10.9c-0.5,0.9-1.1,1.1-2,1.1
		c-2.8-0.1-5.7,0-8.5,0c-0.4,0-0.7-0.1-1-0.5c-3-5-6-10.1-9-15.1c-1.8-3-3.6-6.1-5.4-9.2c-0.1-0.2-0.2-0.4-0.3-0.7
		c0.3,0,0.5,0,0.8,0c3,0,5.9,0,8.9,0c0.6,0,0.9,0.2,1.1,0.6c2.4,4.1,4.7,8.2,7.1,12.3c0.8,1.4,1.6,2.9,2.5,4.4
		c0.8-1.3,1.5-2.5,2.2-3.7c1.8-3,3.5-6.1,5.3-9.1c0.7-1.3,1.4-2.6,2.2-3.9c0.2-0.3,0.5-0.5,0.8-0.5
		C526.3,288.2,529.5,288.2,533,288.2z"/>
	<path fill="#FFFFFF" d="M412.7,312.2c0.7-1.6,1.3-3.2,2-4.7c0.1-0.1,0.4-0.2,0.6-0.2c3.1,0.9,6.3,1.5,9.5,1.6c1.8,0.1,3.6,0,5.3-0.4
		c0.7-0.2,1.5-0.5,2-0.9c1-0.8,1-2-0.6-2.7c-1.6-0.7-3.3-1.2-4.9-1.5c-3.3-0.8-6.8-1.2-9.8-2.9c-1.4-0.8-2.8-1.7-3.3-3.3
		c-0.7-2.3-0.2-4.3,1.9-5.9c2.4-1.9,5.2-2.7,8.2-3.1c1.8-0.2,3.6-0.5,5.4-0.5c4.1,0,8.1,0.3,12.2,1.4c-0.8,1.6-1.6,3.2-2.3,4.8
		c-1.8-0.3-3.5-0.8-5.2-1c-3-0.3-6-0.6-9,0.5c-0.5,0.2-1,0.6-1.3,1c-0.5,0.6-0.1,1.5,0.8,1.8c1.6,0.6,3.1,1.1,4.8,1.5
		c3.4,0.8,6.9,1.3,10.1,2.9c1.7,0.9,3.2,2.1,3.7,4.2c0.4,1.8-0.1,3.3-1.3,4.7c-1.9,2.1-4.4,2.9-7,3.5c-3.9,1-8,1-12,0.8
		c-2.9-0.2-5.7-0.8-8.6-1.3C413.5,312.6,413.2,312.4,412.7,312.2z"/>
	<path fill="#FFFFFF" d="M596.4,312.8c-1.1,0.2-2.2,0.5-3.3,0.6c-3.8,0.6-7.7,0.7-11.5,0.5c-4.6-0.2-9.2-0.9-13.4-3c-2.5-1.3-4.8-2.9-6-5.6
		c-1.6-3.5-1.3-6.9,1.1-10c2.3-3.1,5.6-4.7,9.1-5.8c2.6-0.8,5.3-1.4,8-1.5c1.9-0.1,3.8-0.4,5.8-0.3c3.4,0.1,6.8,0.2,10.1,1.1
		c0.6,0.2,0.6,0.4,0.4,0.8c-0.5,1.2-1.1,2.3-1.6,3.5c-0.2,0.6-0.5,0.7-1,0.6c-3.3-0.9-6.7-1.1-10.2-0.9c-3.3,0.2-6.5,0.8-9.3,2.7
		c-2.3,1.5-3.4,3.7-3,6.4c0.2,1.6,1.1,3,2.4,4c2.4,1.8,5.2,2.7,8.2,2.9c2.1,0.1,4.2,0.2,6.3,0.1c1.8-0.1,3.7-0.4,5.5-0.8
		c0.6-0.1,0.8,0,1,0.6C595.4,310,595.9,311.3,596.4,312.8z"/>
	<path fill="#FFFFFF" d="M541.8,288.2c3.2,0,6.3,0,9.5,0c0,8.5,0,16.9,0,25.4c-3.1,0-6.3,0-9.5,0C541.8,305.2,541.8,296.7,541.8,288.2z"/>
	<path fill="#FFFFFF" d="M431.5,331.2c-1.3,0-2.5,0-3.7,0c-0.2-2.5-0.4-4.9-0.6-7.4c0,0-0.1,0-0.1-0.1c-0.3,0.7-0.7,1.4-1,2.1
		c-0.6,1.5-1.3,3-1.9,4.5c-0.2,0.5-0.5,0.7-1.1,0.7c-0.8-0.1-1.6-0.1-2.4,0c-0.6,0-0.8-0.2-1-0.7c-0.9-2.2-1.9-4.4-2.9-6.7
		c0,0-0.1-0.1-0.1-0.1c-0.2,2.5-0.4,5-0.6,7.6c-1.2,0-2.4,0-3.7,0c0.3-3.3,0.6-6.5,1-9.9c1.8,0,3.6,0,5.3,0c0.2,0,0.4,0.2,0.4,0.4
		c0.9,2,1.8,4,2.7,6.2c0.5-1.1,0.9-2,1.3-3c0.5-1.1,1-2.2,1.5-3.2c0.1-0.2,0.4-0.4,0.5-0.4c1.7,0,3.4,0,5.2,0
		C430.8,324.6,431.1,327.9,431.5,331.2z"/>
	<path fill="#FFFFFF" d="M477.6,331.4c-2,0.1-3.9-0.1-5.7-1.1c-1.6-0.9-2.8-2.1-2.7-4.1c0.1-1.6,1-2.7,2.2-3.6c1.7-1.1,3.6-1.5,5.6-1.5
		c1.9,0,3.8-0.1,5.7,0.7c1.2,0.5,2.4,1.1,3.1,2.3c1.1,2.1,0.6,4.6-1.9,6C481.8,331.1,479.8,331.5,477.6,331.4z M473.4,326.3
		c0,1.1,0.5,1.9,1.5,2.4c1.7,0.9,3.4,1,5.2,0.3c1.2-0.5,1.9-1.4,2.1-2.7c0.1-0.8-0.8-2.2-1.7-2.7c-1.3-0.7-2.7-0.8-4.1-0.5
		C474.4,323.5,473.4,324.7,473.4,326.3z"/>
	<path fill="#FFFFFF" d="M443.4,331.4c-2.4,0.1-4.5-0.2-6.5-1.5c-3.1-2.1-2.5-5.6,0.3-7.3c1.7-1,3.6-1.5,5.6-1.5c2.3,0,4.5,0.1,6.5,1.2
		c1.5,0.8,2.4,1.9,2.6,3.6c0.2,2-0.9,3.3-2.5,4.2C447.6,331.2,445.5,331.5,443.4,331.4z M447.9,326.2c-0.2-1-0.6-1.9-1.6-2.5
		c-1.6-0.9-3.2-0.8-4.8-0.4c-1.2,0.3-2.2,1.5-2.3,2.6c-0.1,1.5,0.4,2.3,1.8,3c1.7,0.8,3.5,0.8,5.2,0
		C447.2,328.3,447.8,327.4,447.9,326.2z"/>
	<path fill="#FFFFFF" d="M500,326.6c2.1,0.8,2.5,2.5,2.6,4.5c-1.1,0-2.2,0-3.2,0c-0.5-0.9-0.9-1.9-1.4-2.8c-0.3-0.4-0.8-0.7-1.3-0.8
		c-0.9-0.2-1.8-0.2-2.7-0.3c0,1.3,0,2.6,0,3.9c-1.3,0-2.6,0-3.9,0c0-3.3,0-6.5,0-9.8c0.9-0.1,1.8-0.2,2.7-0.2c2.6,0,5.3-0.2,7.9,0.7
		c1.8,0.6,2.5,2.3,1.3,3.6C501.4,325.9,500.6,326.2,500,326.6z M493.8,325.7c1.3-0.2,2.4-0.2,3.6-0.5c0.4-0.1,0.9-0.5,1-0.9
		c0.1-0.2-0.4-0.8-0.8-1c-1.2-0.5-2.5-0.6-3.8-0.2C493.8,324,493.8,324.7,493.8,325.7z"/>
	<path fill="#FFFFFF" d="M581.3,325.1c0,0.8,0,1.4,0,2c-2.2,0-4.3,0-6.5,0c0,0.7,0,1.3,0,2c2.3,0,4.5,0,6.8,0c0,0.7,0,1.3,0,2c-3.6,0-7.2,0-10.9,0
		c0-3.3,0-6.5,0-9.9c3.6,0,7.2,0,10.9,0c0,0.6,0,1.2,0,2c-2.3,0-4.5,0-6.8,0c0,0.6,0,1.2,0,1.8C577,325.1,579.1,325.1,581.3,325.1z"
		/>
	<path fill="#FFFFFF" d="M585.3,330.7c0.3-0.7,0.6-1.3,0.8-1.8c1.8,0.2,3.5,0.4,5.2,0.5c0.9,0.1,2-0.4,1.9-0.9c-0.1-0.8-0.9-0.8-1.5-1
		c-1.3-0.4-2.6-0.6-3.9-1c-0.5-0.2-1.1-0.5-1.5-0.8c-0.9-0.6-1-2.1-0.3-2.9c0.8-0.9,1.9-1.3,3.1-1.5c2.4-0.4,4.8-0.3,7.2,0.2
		c0.1,0,0.2,0.1,0.3,0.2c0,0.1,0,0.1,0,0.2c-0.8,1.9-0.9,1.8-3,1.4c-1-0.2-2.1,0-3.1,0.1c-0.3,0-0.6,0.4-1,0.6
		c0.6,0.9,1.6,0.9,2.4,1.1c1.3,0.4,2.7,0.7,4,1.2c0.9,0.3,1.5,1,1.5,2c0,1-0.6,1.8-1.4,2.2c-1,0.5-2.1,0.9-3.2,1
		c-2.4,0.1-4.7,0.2-7-0.5C585.5,330.8,585.4,330.8,585.3,330.7z"/>
	<path fill="#FFFFFF" d="M552.7,321.3c0,0.4,0,0.5,0,0.5c-1,2.1-0.3,1.6-2.7,1.4c-2.3-0.2-4.6-0.3-6.5,1.5c-0.9,0.9-0.9,2.1,0,3.1
		c1.1,1.2,2.6,1.5,4.1,1.5c1.5,0.1,2.9-0.1,4.5-0.2c0.2,0.5,0.4,1.1,0.6,1.9c-1,0.1-1.8,0.3-2.7,0.3c-2.3,0-4.6,0.2-6.8-0.5
		c-1.5-0.5-3-1.1-3.9-2.6c-1.2-2-0.4-4.4,1.9-5.7c1.8-1,3.7-1.5,5.8-1.5C548.7,321.1,550.7,321.2,552.7,321.3z"/>
	<path fill="#FFFFFF" d="M519.5,321.5c0,0.1,0,0.2,0,0.2c-0.8,1.8-0.7,1.7-2.7,1.4c-2-0.3-4.1-0.1-6,1c-1.6,0.9-1.6,3.3,0,4.2
		c1.9,1.1,4,1.2,6.1,0.9c0.5-0.1,0.9-0.2,1.4-0.2c0.1,0,0.4,0.1,0.4,0.3c0.2,0.5,0.4,1.1,0.6,1.7c-0.7,0.1-1.3,0.3-1.9,0.4
		c-3.2,0.1-6.4,0.4-9.4-1.2c-1.3-0.7-2.2-1.6-2.5-3.1c-0.3-1.1,0.4-3.1,1.3-3.7c1.9-1.6,4.3-2.2,6.7-2.2
		C515.5,321,517.5,320.9,519.5,321.5z"/>
	<path fill="#FFFFFF" d="M467.3,321.3c0,0.7,0,1.3,0,1.9c-1.5,0-3,0-4.6,0c0,2.7,0,5.2,0,7.9c-1.4,0-2.7,0-4.1,0c0-2.6,0-5.2,0-7.8
		c-1.6,0-3.1,0-4.7,0c0-0.7,0-1.3,0-2C458.3,321.3,462.7,321.3,467.3,321.3z"/>
	<path fill="#FFFFFF" d="M531.4,331.2c-1.1,0-2.2,0-3.4,0c0-1,0-2,0-3c0-0.3-0.1-0.6-0.3-0.8c-1.4-1.6-2.9-3.2-4.4-4.7c-0.4-0.4-0.7-0.8-1.1-1.3
		c1.4,0,2.6-0.1,3.8,0.1c0.6,0.1,1,0.8,1.5,1.3c0.7,0.7,1.3,1.5,2.1,2.3c1.1-1.1,2.1-2.2,3.2-3.2c0.3-0.3,0.7-0.4,1.1-0.5
		c1.1-0.1,2.1,0,3.3,0c-0.7,0.8-1.2,1.4-1.8,2.1c-1.2,1.3-2.4,2.5-3.6,3.8c-0.2,0.2-0.4,0.6-0.4,0.9
		C531.4,329.1,531.4,330.1,531.4,331.2z"/>
	<path fill="#FFFFFF" d="M556.5,321.3c1.3,0,2.5,0,3.8,0c0,2.6,0,5.2,0,7.9c2.4,0,4.7,0,7.1,0c0,0.7,0,1.3,0,2c-3.6,0-7.2,0-10.9,0
		C556.5,327.9,556.5,324.6,556.5,321.3z"/>
	<path fill="#FFFFFF" d="M373.1,322.6c-0.5,0.9-1,1.9-1.4,2.8c-1,2.3-2,4.6-2.9,6.9c-0.2,0.6-0.4,1.1-0.6,1.7c-0.3,0.7-0.7,0.8-1.4,0.4
		c-1.3-0.8-1.6-0.7-2.6,0.5c-1.4,1.9-2.6,3.9-4.1,5.6c-1.2,1.3-2.8,2.2-4.2,3.2c-0.1,0.1-0.7-0.2-0.7-0.3c-0.4-2.6-1.9-4.6-3.5-6.6
		c-0.6-0.8-1.2-1.6-1.9-2.4c-0.7-0.7-1.1-0.7-1.9-0.2c-1,0.7-1.2,0.5-1.7-0.6c-1-2.4-2.1-4.8-3.1-7.2c-0.4-1-0.8-2-1.3-2.9
		c-0.1-0.3-0.4-0.5-0.7-1c-0.1,1.1-0.2,2-0.3,2.8c0,0.3-0.2,0.7-0.4,0.9c-0.3,0.3-0.7,0.5-1,0.7c-0.2-0.3-0.5-0.6-0.5-0.9
		c-1.2-5.1-3.2-9.8-5.1-14.6c-1-2.4-2-4.8-2.7-7.2c-0.7-2.4-1.1-5-0.3-7.5c0.5-1.4,1.3-2.7,2.1-4c0.4-0.6,1-1.1,1.6-1.6
		c0.2-0.2,0.6-0.3,0.9-0.5c0.1,0.1,0.2,0.1,0.3,0.2c-0.3,1-0.7,2.1-1,3.1c-0.4,1.4-0.9,2.7-1.2,4.1c-0.3,1.7,0.3,3.2,1.1,4.7
		c0.9,1.8,1.8,3.6,2.8,5.3c0.3,0.5,0.6,1,1,1.5c0.7,0.8,1.4,0.8,2.2,0.2c0.5-0.4,0.8-0.9,1.2-1.3c0.2-0.2,0.6-0.4,0.8-0.3
		c0.2,0,0.4,0.5,0.4,0.7c-0.1,1.7-0.2,3.4-0.3,5.1c-0.2,1.8,0.6,3.1,1.9,4.2c0.6,0.5,1.2,0.9,1.8,1.4c0.6,0.5,1.2,0.6,1.8,0
		c1.4-1.3,3.2-1.8,4.8-2.7c1-0.5,1.8-1.2,2.4-2.2c0.8-1.2,0.6-3-0.4-3.8c-1.8-1.4-3.6-2.7-5.4-4c-0.2-0.1-0.3-0.3-0.5-0.4
		c-0.7-0.3-1-1-0.7-1.5c0.2-0.4,1-0.5,1.5-0.5c2.6,0.2,5.2,0.6,7.8,0.6c2.1,0,4.3-0.4,6.4-0.6c0.3,0,0.7,0,1.1,0.1
		c0.9,0.3,1.1,0.9,0.4,1.5c-0.5,0.5-1.1,0.9-1.7,1.3c-1.5,1.1-3.1,2.1-4.5,3.3c-1.4,1.2-1.3,3.3-0.1,4.7c1.3,1.4,3,1.9,4.6,2.8
		c0.7,0.4,1.5,0.8,2.1,1.4c0.6,0.6,1.2,0.5,1.8,0.1c1-0.8,2.1-1.7,3-2.7c1-1.1,1-2.5,0.9-3.9c-0.1-1.3-0.3-2.7-0.4-4
		c0-0.3,0.2-0.8,0.4-0.9c0.2-0.1,0.6,0.2,0.9,0.4c0.2,0.1,0.3,0.4,0.4,0.6c1.4,1.5,2.6,1.4,3.6-0.4c1.3-2.4,2.6-4.9,3.8-7.4
		c0.8-1.6,0.7-3.3,0.2-5c-0.5-1.6-1-3.1-1.5-4.7c-0.1-0.3-0.1-0.6-0.2-0.9c0.1-0.1,0.2-0.1,0.2-0.2c0.4,0.3,1,0.5,1.3,0.9
		c2.2,2.2,3.6,4.7,3.6,7.9c0,3.2-0.9,6.1-2.1,9c-1.5,3.6-3,7.1-4.3,10.8c-0.8,2.3-1.4,4.6-2.1,6.9c-0.1,0.3-0.4,0.5-0.6,0.8
		c-0.4-0.3-1-0.6-1.2-1c-0.3-0.6-0.3-1.4-0.4-2.1c0-0.4,0-0.8,0-1.1C373.2,322.7,373.1,322.6,373.1,322.6z M357.1,335.7
		c0.3-0.3,0.5-0.5,0.7-0.7c1.4-1.9,2.9-3.6,5.2-4.5c1.4-0.5,2.2-1.6,2.4-3.1c0.1-0.8,0.2-1.6,0.2-2.4c0-1.5-0.5-2.8-1.6-3.9
		c-1.8-1.8-4.1-2.6-6.6-2.7c-2.4-0.1-4.6,0.7-6.4,2.2c-2,1.6-2.5,3.9-2.1,6.4c0.2,1.5,0.9,2.9,2.5,3.5c1.4,0.5,2.5,1.3,3.5,2.3
		C355.5,333.7,356.3,334.6,357.1,335.7z"/>
	<path fill="#FFFFFF" d="M369.5,279.8c2.1-1.8,4.6-2.9,7.2-3.4c0.9-0.2,1.9-0.2,2.8-0.2c0.9,0.1,1.6,0.9,1.5,1.9c-0.1,1.6,0.3,3,0.8,4.5
		c0.6,1.7,0.1,3.2-0.9,4.5c-0.4,0.5-1.4,0.5-1.9-0.2c-0.7-1-1.8-1.7-2.8-2.2c-0.7-0.4-0.7-0.8-0.2-1.4c0.2-0.3,0.5-0.5,0.8-0.7
		C374.7,281,372,280.8,369.5,279.8z"/>
	<path fill="#FFFFFF" d="M344.7,279.7c-2.6,1.1-5.2,1.3-7.5,2.8c0.4,0.3,0.7,0.5,1,0.8c0.6,0.5,0.3,1-0.2,1.2c-1.3,0.6-2.2,1.5-3.2,2.4
		c-0.5,0.5-1.1,0.4-1.6-0.2c-1.3-1.5-1.3-3.2-0.7-5c0.4-1.1,0.6-2.3,0.6-3.5c-0.1-1.9,1.4-2.5,2.7-2.4c2.2,0.3,4.3,0.9,6.2,1.9
		C342.9,278.4,343.7,279,344.7,279.7z"/>
	<path fill="#FFFFFF" d="M367.6,274.3c1.6-0.2,3.1-0.5,4.7-0.7c0.4-0.1,0.8,0,1.2,0.1c0.6,0.3,0.7,1.1,0.1,1.4c-2.9,1.4-5.8,2.7-8.7,4
		c-0.9,0.4-2,0.4-2.9,0.4c-0.6,0-0.8-0.4-0.5-1c0.8-1.9,1.7-3.7,4-4.2c0.7-0.2,1.5-0.1,2.2-0.2C367.6,274.2,367.6,274.2,367.6,274.3
		z"/>
	<path fill="#FFFFFF" d="M342.4,273.4c2.5,0.8,4.8,0.7,7.1,0.8c1.4,0.1,2.6,1.1,3.3,2.3c0.4,0.6,0.6,1.2,0.9,1.8c0.1,0.3,0.2,0.8,0.1,0.9
		c-0.4,0.2-0.8,0.4-1.2,0.4c-1.9,0-3.6-0.9-5.3-1.8c-1.8-0.9-3.6-1.7-5.4-2.6c-0.3-0.1-0.7-0.7-0.6-0.8
		C341.7,274,342.1,273.7,342.4,273.4z"/>
	<path fill="#FFFFFF" d="M341.1,290c2.7-0.9,5.1-0.2,7.4,0.8c0.8,0.4,1.6,0.8,2.5,1.1c0.8,0.4,1.4,1.4,1,2.3c-0.4,1.1-1.1,1.8-2.2,1.5
		c-2.9-0.8-5.6-2-7.6-4.3C341.8,290.9,341.5,290.5,341.1,290z"/>
	<path fill="#FFFFFF" d="M373,290c-1,1.6-2.2,2.9-3.9,3.7c-1.5,0.7-3,1.3-4.5,1.9c-1.2,0.4-2.2-0.3-2.4-1.5c-0.1-1.4,0.1-1.8,1.5-2.4
		c1.6-0.6,3.2-1.3,4.7-1.8C369.9,289.3,371.5,289.5,373,290z"/>
</g>
</svg>
