<svg id="f40bba8d-e716-4475-b2e4-5ae373b95747" data-name="Black" xmlns="http://www.w3.org/2000/svg" width="376.19" height="176.4" viewBox="0 0 376.19 176.4">
  <title>OZFDM LOGO</title>
  <g>
    <path d="M461.64,406.88H380.18a10,10,0,0,1-10-10V373.57H471.64v23.31A10,10,0,0,1,461.64,406.88Z" transform="translate(-114.24 -373.57)"/>
    <path d="M392.38,411h57.06L441,436.08a5.51,5.51,0,0,1-5.32,4.07H406.1a5.51,5.51,0,0,1-5.32-4.07Z" transform="translate(-114.24 -373.57)"/>
    <path d="M408.23,443.32l1.83,10a4.85,4.85,0,0,0,4.33,2.68h13a4.85,4.85,0,0,0,4.33-2.68l1.83-10Z" transform="translate(-114.24 -373.57)"/>
    <path d="M420.91,459.17v9.51a9.51,9.51,0,0,0,9.51,9.51h12.07A9.51,9.51,0,0,1,452,487.7v2.39" transform="translate(-114.24 -373.57)" fill="none" stroke="#000" stroke-miterlimit="10" stroke-width="4.93"/>
  </g>
  <g>
    <g>
      <circle cx="87.94" cy="88.13" r="55.96" fill="none" stroke="#034795" stroke-linecap="round" stroke-linejoin="round" stroke-width="3"/>
      <circle cx="87.94" cy="88.13" r="51.96" fill="none" stroke="#034795" stroke-linecap="round" stroke-linejoin="round" stroke-width="3"/>
      <circle cx="87.94" cy="88.13" r="59.96" fill="none" stroke="#034795" stroke-linecap="round" stroke-linejoin="round" stroke-width="3"/>
      <circle cx="87.94" cy="88.13" r="63.96" fill="none" stroke="#034795" stroke-linecap="round" stroke-linejoin="round" stroke-width="3"/>
      <circle cx="87.94" cy="88.13" r="67.95" fill="none" stroke="#034795" stroke-linecap="round" stroke-linejoin="round" stroke-width="3"/>
      <circle cx="87.94" cy="88.13" r="71.95" fill="none" stroke="#034795" stroke-linecap="round" stroke-linejoin="round" stroke-width="3"/>
    </g>
    <g>
      <path d="M202.18,373.76a87.94,87.94,0,1,1-87.94,87.94A88,88,0,0,1,202.18,373.76Zm0,8a79.95,79.95,0,1,1-79.94,79.94A80,80,0,0,1,202.18,381.76Z" transform="translate(-114.24 -373.57)" fill-rule="evenodd"/>
      <path d="M193.07,381a83.42,83.42,0,0,1,18.24,0,40.67,40.67,0,0,0,64.95,47.21,81.45,81.45,0,0,1,5.62,17.28,40.67,40.67,0,0,0-24.82,76.36,81.5,81.5,0,0,1-14.73,10.72,40.67,40.67,0,0,0-80.29,0,81.41,81.41,0,0,1-14.68-10.68,40.68,40.68,0,0,0-24.88-76.34,80.6,80.6,0,0,1,5.64-17.35A40.67,40.67,0,0,0,193.07,381Zm9.11,48.3a32.54,32.54,0,1,1-32.53,32.53A32.55,32.55,0,0,1,202.18,429.26Z" transform="translate(-114.24 -373.57)" fill-rule="evenodd"/>
      <path d="M202.18,413.74a48,48,0,1,1-48,48A48,48,0,0,1,202.18,413.74Zm0,16a32,32,0,1,1-32,32A32,32,0,0,1,202.18,429.72Z" transform="translate(-114.24 -373.57)" fill-rule="evenodd"/>
    </g>
    <path d="M202.18,425.06a36.64,36.64,0,1,0,36.65,36.64A36.65,36.65,0,0,0,202.18,425.06Zm0,58.63a22,22,0,1,1,22-22A22,22,0,0,1,202.18,483.69Z" transform="translate(-114.24 -373.57)" fill-rule="evenodd"/>
  </g>
  <g>
    <path d="M397.13,528.7H379.76V550h-10V498.79h30.45v8H379.76v14h17.37Z" transform="translate(-114.24 -373.57)"/>
    <path d="M405.46,550V498.79h15.47a16.44,16.44,0,0,1,13,5.95q5.13,6,5.13,15.35v8.61q0,9.39-5.13,15.33a16.46,16.46,0,0,1-13,5.94Zm10-43.2V542h4.89a7.17,7.17,0,0,0,6.45-3.64q2.26-3.65,2.26-9.66V520q0-6-2.26-9.61a7.18,7.18,0,0,0-6.45-3.62Z" transform="translate(-114.24 -373.57)"/>
    <path d="M458.72,498.79l9.18,37.58h.21l9.28-37.58h13V550h-9.95V535.1l.85-19.9-.21,0L471.34,550H464.7L455,515.45l-.21,0,.88,19.62V550h-9.95V498.79Z" transform="translate(-114.24 -373.57)"/>
  </g>
  <path d="M295.4,508.13l62.45-95.67a20.1,20.1,0,0,0,3.26-11V378.73a5,5,0,0,0-5-5H202.22v3.36a84.48,84.48,0,0,1,64.52,30.16h40.48a5,5,0,0,1,4.1,7.86l-26,37.35c1.78,7.21,1.33-2.47,1.33,9.31a84.69,84.69,0,0,1-84.24,84.68v3.28H356a5,5,0,0,0,5-5V520.87a5,5,0,0,0-5-5H299.59A5,5,0,0,1,295.4,508.13Z" transform="translate(-114.24 -373.57)"/>
</svg>
