<?xml version="1.0" encoding="utf-8"?>
<!-- Generator: Adobe Illustrator 27.5.0, SVG Export Plug-In . SVG Version: 6.00 Build 0)  -->
<svg version="1.1" xmlns="http://www.w3.org/2000/svg" xmlns:xlink="http://www.w3.org/1999/xlink" x="0px" y="0px"
	 viewBox="0 0 595.3 419.5" style="enable-background:new 0 0 595.3 419.5;" xml:space="preserve">
<style type="text/css">
	.st0{fill:#FFFFFF;}
</style>
<g id="Layer_2">
</g>
<g id="Layer_1">
	<g>
		<path d="M445,264.7c0,6.2-5,11.2-11.2,11.2H178.4c-6.2,0-11.2-5-11.2-11.2v-25.8c0-6.2,5-11.2,11.2-11.2h255.4
			c6.2,0,11.2,5,11.2,11.2V264.7z"/>
	</g>
	<g>
		<g>
			<path class="st0" d="M176.4,285.8c-4.5,0-8.2-3.7-8.2-8.2v-13H444v13c0,4.5-3.7,8.2-8.2,8.2H176.4z"/>
			<path d="M443,265.6v12c0,4-3.2,7.2-7.2,7.2H176.4c-3.9,0-7.2-3.2-7.2-7.2v-12H443 M445,263.6H167.2v14c0,5.1,4.1,9.2,9.2,9.2
				h259.5c5,0,9.2-4.1,9.2-9.2V263.6L445,263.6z"/>
		</g>
	</g>
	<g>
		<path d="M189.1,271.1c1.1,0,1.8,0.9,1.6,1.9l-0.5,2.4c-0.2,1.1-1.3,1.9-2.4,1.9l-5.5,0c0,0,0,0,0,0.1c0,0,0,0,0,0l-0.6,3h-2.1
			l2-9.3H189.1z M182.7,275.4h5.4l0.5-2.2h-5.4L182.7,275.4z"/>
		<path d="M200.9,271.1c1.1,0,1.8,0.9,1.6,1.9l-1.6,7.4h-2.1l0.6-3H194l-0.6,3h-2.1l1.6-7.4c0.2-1.1,1.3-1.9,2.4-1.9H200.9z
			 M199.9,275.4l0.5-2.3h-5.4l-0.5,2.3H199.9z"/>
		<path d="M214.5,273.9h-2.1l0.2-0.8h-5.4l-0.3,1.6h5.5c1.1,0,1.8,0.9,1.6,1.9l-0.4,1.8c-0.2,1.1-1.3,1.9-2.4,1.9h-5.6
			c-1.1,0-1.8-0.9-1.6-1.9l0.2-0.9h2.1l-0.2,0.8h5.4l0.3-1.6h-5.5c-1.1,0-1.8-0.9-1.6-1.9l0.4-1.8c0.2-1.1,1.3-1.9,2.4-1.9h5.6
			c1.1,0,1.8,0.9,1.6,1.9L214.5,273.9z"/>
		<path d="M226.6,273.9h-2.1l0.2-0.8h-5.4l-0.3,1.6h5.5c1.1,0,1.8,0.9,1.6,1.9l-0.4,1.8c-0.2,1.1-1.3,1.9-2.4,1.9h-5.6
			c-1.1,0-1.8-0.9-1.6-1.9l0.2-0.9h2.1l-0.2,0.8h5.4l0.3-1.6h-5.5c-1.1,0-1.8-0.9-1.6-1.9l0.4-1.8c0.2-1.1,1.3-1.9,2.4-1.9h5.6
			c1.1,0,1.8,0.9,1.6,1.9L226.6,273.9z"/>
		<path d="M229.8,271.1h2.1l-2,9.4h-2.1L229.8,271.1z"/>
		<path d="M241.5,271.1c1.1,0,1.8,0.9,1.6,1.9l-1.2,5.5c-0.2,1.1-1.3,1.9-2.4,1.9h-5.6c-1.1,0-1.8-0.9-1.6-1.9l1.2-5.5
			c0.2-1.1,1.3-1.9,2.4-1.9H241.5z M234.4,278.5h5.4l1.1-5.3h-5.4L234.4,278.5z"/>
		<path d="M253.6,271.1h2.1l-2,9.4h-2.1l-4-6.3l-1.3,6.3h-2.1l2-9.4h2.1l4,6.2L253.6,271.1z"/>
		<path d="M272.7,271.1l-0.4,2h-6.8l-0.3,1.6h5.4l-0.4,2h-5.4l-0.8,3.7h-2.1l2-9.4H272.7z"/>
		<path d="M282.2,271.1c1.1,0,1.8,0.9,1.6,1.9l-1.2,5.5c-0.2,1.1-1.3,1.9-2.4,1.9h-5.6c-1.1,0-1.8-0.9-1.6-1.9l1.2-5.5
			c0.2-1.1,1.3-1.9,2.4-1.9H282.2z M275.1,278.5h5.4l1.1-5.3h-5.4L275.1,278.5z"/>
		<path d="M295.5,275.5c-0.2,1.1-1.3,1.9-2.4,1.9H293c0.5,0.8,1.1,1.6,1.6,2.4l-0.1,0.7h-2.1l-2-3.1l-2.7,0c0,0,0,0,0,0.1
			c0,0,0,0,0,0l-0.6,3h-2.1l2-9.3h7.6c1.1,0,1.8,0.9,1.6,1.9L295.5,275.5z M288,275.4h5.4l0.5-2.2h-5.4L288,275.4z"/>
		<path d="M312.1,271.1c1.1,0,1.8,0.9,1.6,1.9l-0.5,2.4c-0.2,1.1-1.3,1.9-2.4,1.9l-5.5,0c0,0,0,0,0,0.1c0,0,0,0,0,0l-0.6,3h-2.1
			l2-9.3H312.1z M305.7,275.4h5.4l0.5-2.2h-5.4L305.7,275.4z"/>
		<path d="M324.6,273.2h-6.8l-0.3,1.6h5.4l-0.4,2h-5.4l-0.3,1.6h6.8l-0.4,2h-8.8l2-9.4h8.8L324.6,273.2z"/>
		<path d="M336.2,275.5c-0.2,1.1-1.3,1.9-2.4,1.9h-0.1c0.5,0.8,1.1,1.6,1.6,2.4l-0.1,0.7H333l-2-3.1l-2.7,0c0,0,0,0,0,0.1
			c0,0,0,0,0,0l-0.6,3h-2.1l2-9.3h7.6c1.1,0,1.8,0.9,1.6,1.9L336.2,275.5z M328.7,275.4h5.4l0.5-2.2h-5.4L328.7,275.4z"/>
		<path d="M348.6,271.1l-0.4,2h-6.8l-0.3,1.6h5.4l-0.4,2h-5.4l-0.8,3.7h-2.1l2-9.4H348.6z"/>
		<path d="M358.1,271.1c1.1,0,1.8,0.9,1.6,1.9l-1.2,5.5c-0.2,1.1-1.3,1.9-2.4,1.9h-5.6c-1.1,0-1.8-0.9-1.6-1.9l1.2-5.5
			c0.2-1.1,1.3-1.9,2.4-1.9H358.1z M351,278.5h5.4l1.1-5.3h-5.4L351,278.5z"/>
		<path d="M371.4,275.5c-0.2,1.1-1.3,1.9-2.4,1.9h-0.1c0.5,0.8,1.1,1.6,1.6,2.4l-0.1,0.7h-2.1l-2-3.1l-2.7,0c0,0,0,0,0,0.1
			c0,0,0,0,0,0l-0.6,3h-2.1l2-9.3h7.6c1.1,0,1.8,0.9,1.6,1.9L371.4,275.5z M363.9,275.4h5.4l0.5-2.2h-5.4L363.9,275.4z"/>
		<path d="M383.5,271.1h2.1l-2,9.4h-2.1l1.3-6.3c-1.3,1.2-2.8,2.6-4.1,3.8l-2.5-3.8l-1.3,6.3h-2.1l2-9.4h2.1l2.4,3.8L383.5,271.1z"
			/>
		<path d="M396.1,271.1c1.1,0,1.8,0.9,1.6,1.9l-1.6,7.4H394l0.6-3h-5.4l-0.6,3h-2.1l1.6-7.4c0.2-1.1,1.3-1.9,2.4-1.9H396.1z
			 M395,275.4l0.5-2.3h-5.4l-0.5,2.3H395z"/>
		<path d="M408.2,271.1h2.1l-2,9.4h-2.1l-4-6.3l-1.3,6.3h-2.1l2-9.4h2.1l4,6.2L408.2,271.1z"/>
		<path d="M414.6,273.2l-1.1,5.3h7.5l-0.4,2H413c-1.1,0-1.8-0.9-1.6-1.9l1.2-5.5c0.2-1.1,1.3-1.9,2.4-1.9h7.6l-0.4,2H414.6z"/>
		<path d="M433.6,273.2h-6.8l-0.3,1.6h5.4l-0.4,2H426l-0.3,1.6h6.8l-0.4,2h-8.8l2-9.4h8.8L433.6,273.2z"/>
	</g>
	<g>
		<g>
			<g>
				<path class="st0" d="M182.5,236h12.4c1.7,0,3.1,0.4,4.2,1.1c1.1,0.8,1.6,1.9,1.6,3.4v3.8c0,1.6-0.9,2.7-2.7,3.3
					c-2.5,0.3-3.3,0.9-2.5,1.6c0.8,0.8,2.3,2.2,4.4,4.2c0.5,0.7,0.7,1.3,0.7,1.8c0,0.7-0.4,1.2-1.2,1.6c-0.5,0.3-0.9,0.4-1.3,0.4
					c-0.9,0-1.4-0.7-2.4-1.5l-6.5-6.1c-1.7-2-2.4-3.4-2.1-4.2c0.3-0.8,0.7-1.1,1.2-1.1h6.5c1.1-0.3,1.5-1,1.3-2.1
					c-0.2-1.1-0.6-1.7-1.3-1.7h-12.3c-1.7,0-2.5-0.8-2.5-2.3v-0.1C180.1,236.7,180.9,236,182.5,236z M185.1,238.4v16.5
					c0,1.5-0.8,2.3-2.5,2.3c-1.7,0-2.5-0.8-2.5-2.3v-16.5"/>
			</g>
			<g>
				<path class="st0" d="M218,252.5h6.3l0-8.6l-14.5,12.4c-0.6,0.5-1.3,0.8-1.8,0.8c-0.6,0-1.2-0.3-1.8-1c-0.4-0.5-0.7-1-0.7-1.5
					c0-0.6,0.4-1.3,1.1-1.8l18.1-15.6c0.9-0.8,1.7-1.2,2.4-1.2c0.5,0,0.8,0,1,0.1c0.8,0.3,1.2,1.2,1.2,2.7V254
					c0,2.2-1.4,3.2-4.1,3.2H218c-1.9,0.1-2.9-0.7-2.9-2.3C215.1,253.4,216.1,252.4,218,252.5z"/>
			</g>
			<g>
				<path class="st0" d="M254.6,257.2h-12.3c-2.1,0-3.8-0.7-5.3-2c-1.5-1.3-2.2-2.9-2.2-4.7v-8c0-1.8,0.7-3.4,2.2-4.7
					c1.3-1.2,2.9-1.8,4.9-1.8c0.2,0,0.4,0,0.7,0h10.4c1.7,0,2.6,0.8,2.6,2.4c0,1.6-0.9,2.2-2.6,2.2h-9.6c-2.2,0-3.3,1-3.3,2.9v6.4
					c0,1.7,1.2,2.6,3.5,2.6h11.1c1.7,0,2.6,0.8,2.6,2.3v0C257.2,256.4,256.3,257.2,254.6,257.2z"/>
			</g>
			<g>
				<path class="st0" d="M264.7,236h15c1.7,0,2.5,0.8,2.5,2.3c0,1.5-0.8,2.3-2.5,2.3h-10.8c-1.1,0-1.7,0.5-1.7,1.5l-0.1,9
					c0,1,0.6,1.5,1.7,1.5h10.8c1.7,0,2.6,0.9,2.6,2.4c0,1.5-0.8,2.3-2.5,2.3h-15c-1.7,0-2.5-0.8-2.5-2.3v-16.5
					C262.2,236.8,263,236,264.7,236z M265.2,244.3h11.2c2.2,0,3.3,0.8,3.3,2.3s-1.1,2.3-3.3,2.3h-11.2"/>
			</g>
			<g>
				<path class="st0" d="M290,254.4V239c0-2,0.8-3,2.5-3c1.7,0,2.5,1,2.5,3v9.1c0,0.6,0.3,0.7,1,0.2l3.2-3c1.6-1,2.9-1,3.8,0.1
					c0.9,1.1,0.7,2.3-0.6,3.6l-7.8,7.2c-0.7,0.7-1.5,1.1-2.3,1.1c-0.3,0-0.5,0-0.8-0.1C290.5,256.8,290,255.9,290,254.4z M310,256.2
					c-0.9,0.7-1.7,1-2.5,1c-0.3,0-0.5,0-0.8-0.1c-1-0.3-1.5-1.2-1.4-2.7v-15.8c0-1.8,0.9-2.7,2.5-2.7h0c1.6,0,2.5,0.9,2.5,2.8l0,9.3
					c0,0.9,0.3,1.1,0.9,0.6l12.7-11.6c0.9-0.8,1.7-1.1,2.4-1.1c0.6,0,1.1,0.2,1.6,0.6c0.5,0.5,0.7,0.9,0.7,1.5
					c0,0.7-0.4,1.4-1.3,2.2L310,256.2z"/>
			</g>
			<g>
				<path class="st0" d="M351.3,252.7c0,2.1-2.2,4.4-5,4.4h-16.7c-3.1,0-5-2.4-5-4.5l0-12c0-1.1,0.5-2.1,1.6-3.1
					c1.1-1,2.2-1.5,3.3-1.5h16.7c1.1,0,2.2,0.5,3.3,1.5c1.1,1,1.7,2,1.7,3L351.3,252.7z M346.3,250.2v-7.4c0-1.5-0.8-2.3-2.5-2.3
					h-11.7c-1.7,0-2.5,0.8-2.5,2.3v7.4c0,1.5,0.8,2.3,2.5,2.3h11.7C345.5,252.5,346.3,251.7,346.3,250.2z"/>
			</g>
			<g>
				<path class="st0" d="M360.5,236h12.4c1.7,0,3.1,0.4,4.2,1.1c1.1,0.8,1.6,1.9,1.6,3.4v3.8c0,1.6-0.9,2.7-2.7,3.3
					c-2.5,0.3-3.3,0.9-2.5,1.6c0.8,0.8,2.3,2.2,4.4,4.2c0.5,0.7,0.7,1.3,0.7,1.8c0,0.7-0.4,1.2-1.2,1.6c-0.5,0.3-0.9,0.4-1.3,0.4
					c-0.9,0-1.5-0.5-2.4-1.5l-6.5-6.1c-1.7-2-2.4-3.4-2.1-4.2c0.3-0.8,0.7-1.1,1.2-1.1h6.5c1.1-0.3,1.5-1,1.3-2.1
					c-0.2-1.1-0.6-1.7-1.3-1.7h-12.3c-1.7,0-2.5-0.8-2.5-2.3v-0.1C358,236.7,358.9,236,360.5,236z M363.1,238.2v16.7
					c0,1.5-0.8,2.3-2.5,2.3c-1.7,0-2.5-0.8-2.5-2.3v-16.7"/>
			</g>
			<g>
				<path class="st0" d="M387.3,236c1.7,0,2.5,0.8,2.5,2.3v16.7c0,1.5-0.8,2.3-2.5,2.3c-1.7,0-2.5-0.8-2.5-2.4v-16.5
					C384.8,236.7,385.6,236,387.3,236z M401.8,236c0.5-0.5,1.8-1,2.9,0s1,2.4,0.4,3l-7.5,7.5l7.5,7.6c0.2,0.3,0.3,0.7,0.3,1
					c0,0.6-0.4,1.2-1.1,1.7c-0.4,0.3-0.8,0.4-1.3,0.4c-1.7,0-2.7-0.4-3.7-1.5l-6.7-6.8c-1.7-1.5-1.7-3,0-4.5L401.8,236z"/>
			</g>
			<g>
				<path class="st0" d="M432.1,238.2c0,1.5-0.9,2.4-2.8,2.4h-10.1c-1.7,0-2.5,0.7-2.5,1.8c0,1.4,0.8,1.7,2.3,1.7h7
					c1.7,0,3.1,0.4,4.3,1.2c1.2,0.8,1.8,2.2,1.8,4.1v2.3c0,2.1-0.6,3.5-1.8,4.3c-1.2,0.8-2.8,1.1-4.6,1.1h-11.4
					c-1.6,0-2.3-0.9-2.3-2.4c0-1.5,0.8-2.3,2.5-2.3h9.9c1.8,0,2.6-0.6,2.6-2.1c0-1.4-1-2.1-3-2.1l-8.1,0c-1.3,0-2.3-0.6-3-1.6
					c-0.7-1.1-1.1-2.3-1.1-3.6v-2.2c0-1.4,0.4-2.5,1.3-3.5c0.9-0.9,1.8-1.4,2.8-1.4h13.4C431.2,236,432.1,236.7,432.1,238.2z"/>
			</g>
		</g>
		<g>
			<g>
				<path class="st0" d="M207.5,257.2h-8.9c-1.4,0-2.5-0.8-2.5-2.2c0-1.4,1.1-2.5,2.5-2.5h8.9c1.4,0,2.5,1.1,2.5,2.5
					C210,257.1,207.1,257.2,207.5,257.2z"/>
			</g>
		</g>
		<g>
			<g>
				<path class="st0" d="M292.5,240.5H279c-1.2,0-2.2-1-2.2-2.3c0-1.2,1-2.2,2.2-2.2h13.5c1.2,0,2.2,1,2.2,2.2
					C294.8,239.5,293.8,240.5,292.5,240.5z"/>
			</g>
		</g>
		<g>
			<g>
				<path class="st0" d="M361,240.5h-34.5c-1.2,0-2.2-1-2.2-2.2c0-1.2,1-2.3,2.2-2.3H361c1.2,0,2.2,1,2.2,2.3
					C363.3,239.5,362.3,240.5,361,240.5z"/>
			</g>
		</g>
		<g>
			<g>
				<path class="st0" d="M265.2,257.2h-10.5c-1.3,0-2.3-1.1-2.3-2.4c0-1.3,1.1-2.4,2.3-2.4h10.5c1.3,0,2.3,1.1,2.3,2.4
					C267.5,256.1,266.5,257.2,265.2,257.2z"/>
			</g>
		</g>
		<g>
			<g>
				<path class="st0" d="M387.3,257.2h-10.8c-1.2,0-2.2-1-2.2-2.2c0-1.2,1-2.5,2.2-2.5h10.8c1.2,0,2.2,1.2,2.2,2.5
					C389.6,256.2,388.6,257.2,387.3,257.2z"/>
			</g>
		</g>
		<g>
			<g>
				<path class="st0" d="M426.4,257.2h-23.5c-1.3,0-2.4-1.1-2.4-2.4c0-1.3,1.1-2.3,2.4-2.3h23.5c1.3,0,2.4,1,2.4,2.3
					C428.8,256.1,427.7,257.2,426.4,257.2z"/>
			</g>
		</g>
		<g>
			<g>
				<line class="st0" x1="292.7" y1="254.4" x2="307.8" y2="240.7"/>
			</g>
			<g>
				<path class="st0" d="M292.7,256.9c-0.7,0-1.4-0.3-1.8-0.8c-0.9-1-0.9-2.6,0.2-3.5l15.1-13.7c1-0.9,2.6-0.9,3.5,0.2
					c0.9,1,0.9,2.6-0.2,3.5l-15.1,13.7C293.9,256.7,293.3,256.9,292.7,256.9z"/>
			</g>
		</g>
	</g>
	<g>
		<path class="st0" d="M436.8,236v0.8h-1.3v3.8h-0.8v-3.8h-1.3V236H436.8z M441.2,240.5l-0.2-2.7c0-0.4,0-0.8,0-1.3h0
			c-0.1,0.4-0.2,0.9-0.3,1.4l-0.7,2.5H439l-0.7-2.6c-0.1-0.3-0.2-0.9-0.3-1.3h0c0,0.4,0,0.9,0,1.3l-0.2,2.7H437l0.3-4.6h1.2l0.7,2.2
			c0.1,0.4,0.2,0.7,0.3,1.2h0c0.1-0.4,0.2-0.8,0.3-1.1l0.7-2.3h1.2l0.3,4.6H441.2z"/>
	</g>
</g>
</svg>
