<?xml version="1.0" encoding="UTF-8"?>
<svg xmlns="http://www.w3.org/2000/svg" version="1.1" viewBox="0 0 447 162.5">
  <!-- Generator: Adobe Illustrator 28.6.0, SVG Export Plug-In . SVG Version: 1.2.0 Build 709)  -->
  <g>
    <g id="Advanced_Navigation_x5F_Logo">
      <g>
        <g id="Logotype">
          <path fill="#FFFFFF" d="M149,35.2l-11.3,26.7h5.9l2.4-5.9h11.2l2.4,5.9h6.1l-11.4-26.7h-5.3ZM148.1,50.8l3.5-8.6,3.5,8.6s-7,0-7,0Z"/>
          <path fill="#FFFFFF" d="M198.4,48.6h0c0-7.5-5.8-13.2-14.1-13.2h-10.3v26.5h10.3c8.3,0,14.1-5.8,14.1-13.3ZM179.8,40.6h4.5c4.8,0,8,3.3,8,8h0c0,4.8-3.2,8-8,8h-4.5v-16Z"/>
          <polygon fill="#FFFFFF" points="217.1 54 210.2 35.4 203.8 35.4 214.5 62 219.6 62 230.3 35.4 224 35.4 217.1 54"/>
          <path fill="#FFFFFF" d="M260.6,61.8l-11.3-26.7h-5.4l-11.4,26.7h5.9l2.4-5.9h11.2l2.4,5.9h6.2ZM243,50.8l3.5-8.6,3.5,8.6s-7,0-7,0Z"/>
          <polygon fill="#FFFFFF" points="274.6 45 287.4 61.8 292.4 61.8 292.4 35.4 286.6 35.4 286.6 51.7 274.2 35.4 268.8 35.4 268.8 61.8 274.6 61.8 274.6 45"/>
          <path fill="#FFFFFF" d="M322.4,53.8c-2.1,1.9-3.9,3.1-7,3.1-4.5,0-7.7-3.8-7.7-8.3h0c0-4.6,3.2-8.3,7.7-8.3s4.7,1.1,6.8,3l3.8-4.3c-2.5-2.4-5.4-4.1-10.4-4.1-8.1,0-13.8,6.2-13.8,13.7h0c0,7.7,5.8,13.7,13.6,13.7s8.1-1.8,10.9-4.7l-3.9-3.8Z"/>
          <polygon fill="#FFFFFF" points="340.8 51.1 353.2 51.1 353.2 45.9 340.8 45.9 340.8 40.5 354.9 40.5 354.9 35.4 335 35.4 335 61.8 355.1 61.8 355.1 56.7 340.8 56.7 340.8 51.1"/>
          <path fill="#FFFFFF" d="M388.9,48.6h0c0-7.5-5.8-13.2-14.1-13.2h-10.3v26.5h10.3c8.3,0,14.1-5.8,14.1-13.3ZM370.3,40.6h4.5c4.8,0,8,3.3,8,8h0c0,4.8-3.2,8-8,8h-4.5v-16Z"/>
          <polygon fill="#FFFFFF" points="157.7 89.5 145.3 73.2 139.9 73.2 139.9 99.7 145.7 99.7 145.7 82.8 158.5 99.7 163.5 99.7 163.5 73.2 157.7 73.2 157.7 89.5"/>
          <path fill="#FFFFFF" d="M183.1,73l-11.3,26.7h5.9l2.4-5.9h11.2l2.4,5.9h6.1l-11.4-26.7h-5.3ZM182.2,88.6l3.5-8.6,3.5,8.6h-7Z"/>
          <polygon fill="#FFFFFF" points="215.3 91.8 208.4 73.2 202 73.2 212.7 99.9 217.8 99.9 228.5 73.2 222.3 73.2 215.3 91.8"/>
          <rect fill="#FFFFFF" x="237.1" y="73.2" width="5.8" height="26.5"/>
          <path fill="#FFFFFF" d="M266.2,89.5h5.9v3.8c-1.5,1.1-3.4,1.6-5.5,1.6-4.7,0-8-3.6-8-8.4h0c0-4.6,3.4-8.3,7.6-8.3s4.9,1,6.9,2.7l3.7-4.4c-2.8-2.3-5.6-3.6-10.4-3.6-8,0-13.9,6.2-13.9,13.7h0c0,7.9,5.7,13.7,13.9,13.7s8.6-1.9,11.3-4.2v-11.7h-11.5v5.1Z"/>
          <path fill="#FFFFFF" d="M296.6,73l-11.3,26.7h5.9l2.4-5.9h11.2l2.4,5.9h6.1l-11.4-26.7h-5.3ZM295.7,88.6l3.5-8.6,3.5,8.6h-7Z"/>
          <polygon fill="#FFFFFF" points="316.2 78.6 324.3 78.6 324.3 99.7 330.1 99.7 330.1 78.6 338.2 78.6 338.2 73.2 316.2 73.2 316.2 78.6"/>
          <rect fill="#FFFFFF" x="347.1" y="73.2" width="5.8" height="26.5"/>
          <path fill="#FFFFFF" d="M376.6,72.7c-8.2,0-14.1,6.2-14.1,13.7h0c0,7.6,5.9,13.7,14,13.7s14.1-6.2,14.1-13.7h0c.1-7.6-5.8-13.7-14-13.7ZM384.6,86.5c0,4.5-3.3,8.2-7.9,8.2s-8-3.8-8-8.3h0c0-4.6,3.3-8.3,7.9-8.3s8,3.8,8,8.4h0Z"/>
          <polygon fill="#FFFFFF" points="417.8 73.2 417.8 89.5 405.4 73.2 400 73.2 400 99.7 405.8 99.7 405.8 82.8 418.6 99.7 423.5 99.7 423.5 73.2 417.8 73.2"/>
        </g>
        <path fill="#FFFFFF" d="M119.4,60c0,0,0,.2,0,.2,0-.1,0-.2,0-.4-.5-4.8-3.9-9.3-9.8-13-.3-6.9-2.5-12.1-6.4-15-.4-.3-.7-.5-1.1-.8l-10.7-6.2c-4.6-2.6-10.7-2.2-17.4,1.3-6.7-3.5-12.8-4-17.3-1.3l-10.7,6.2c-.4.3-.7.5-1.1.8-3.9,2.9-6.1,8.1-6.4,15-5.8,3.7-9.2,8.2-9.7,13,.2,1.9.8,3.8,1.3,5.1.6,1.4,1.1,2.3,1.1,2.3.9-1.5,2.1-3,3.6-4.4,1.4-1.3,3-2.5,4.9-3.6.6,2.7,1.3,5.4,2.3,8.1-1,2.7-1.7,5.4-2.3,8-3.8-2.3-6.8-5-8.5-8,0,0-2.1-3.7-2.4-7.4,0,.4,0,.8,0,1.3v12.4c0,5.3,3.5,10.2,9.8,14.3.4,7.5,2.9,12.9,7.5,15.6l10.7,6.2c.3.2.6.4,1,.5,0,0,.1,0,.2.2,4.5,1.9,10,1.2,16.1-1.9,6.1,3.2,11.7,3.9,16.2,1.9,0,0,.1-.1.2-.2.4-.2.7-.4,1-.5l10.7-6.2c4.6-2.6,7.1-8,7.5-15.5,6.4-4,9.9-9.1,9.9-14.4v-12.5c0-.4,0-.8,0-1.2ZM74.1,83.5c-3.2,0-6.3-.2-9.3-.5-1.7-2.3-3.3-4.8-4.8-7.4-1.5-2.7-2.9-5.3-4.1-8,1.2-2.7,2.6-5.5,4.2-8.2,1.6-2.7,3.3-5.3,5-7.8,2.9-.3,5.9-.5,9-.5s6,.2,8.8.5c1.8,2.4,3.5,5,5,7.8,1.6,2.7,3,5.5,4.2,8.2-1.2,2.7-2.6,5.3-4.1,8-1.5,2.6-3.1,5.1-4.8,7.4-3,.3-6,.5-9.2.5ZM95.5,30.3s.8,0,2,.1c-1.2-.1-1.9,0-1.9,0,.9,1.6,1.6,3.3,2,5.3.4,1.9.7,3.9.7,6.1-2.5-.8-5.2-1.5-8-2-1.9-2.2-3.9-4.3-5.9-6.1,3.9-2.2,7.7-3.3,11.1-3.3ZM52.6,30.3c3.4,0,7.2,1.2,11.1,3.3-2,1.8-4,3.9-5.9,6.1-2.8.5-5.5,1.2-8,2,0-2.2.3-4.2.7-6.1.4-2,1.1-3.7,2-5.3,0,0-1.2,0-3,.2,1.8-.3,3.1-.3,3.1-.3ZM58.3,103.8c-2,.6-3.8.9-5.6.9,0,0,.5.9,1.4,2.1.8,1,1.8,2.2,3.1,3.2-2.8-2.1-4.6-5.4-4.6-5.4-1.7-3-2.6-6.9-2.7-11.4,2.6.8,5.3,1.5,8.1,2.1,1.9,2.2,3.9,4.2,5.9,6-1.9,1.1-3.8,1.9-5.6,2.5ZM95.5,104.6s-1.8,3.2-4.6,5.4c1.3-1,2.3-2.2,3.1-3.2.9-1.2,1.4-2.1,1.4-2.1-1.8,0-3.6-.3-5.6-.9-1.8-.6-3.7-1.4-5.6-2.5,2-1.8,4-3.8,5.9-6,2.8-.5,5.6-1.2,8.2-2.1,0,4.5-1,8.4-2.7,11.3ZM117,67.4c-1.7,3-4.7,5.7-8.6,8-.6-2.6-1.3-5.3-2.3-8,1-2.7,1.7-5.5,2.3-8.1,1.9,1.1,3.5,2.4,4.9,3.6,1.5,1.4,2.7,2.8,3.6,4.4,0,0,1.9-3.2,2.3-6.7-.5,3.6-2.3,6.8-2.3,6.8Z"/>
      </g>
    </g>
  </g>
</svg>