<?xml version="1.0" encoding="UTF-8"?>
<svg xmlns="http://www.w3.org/2000/svg" version="1.1" viewBox="0 0 595.3 841.9">
  <!-- Generator: Adobe Illustrator 28.6.0, SVG Export Plug-In . SVG Version: 1.2.0 Build 709)  -->
  <g>
    <g id="Layer_1">
      <g>
        <path fill="#FFFFFF" d="M1330.3,696.8c4.2-16.9,8.3-33,12.3-49.1,19.6-78.5,39.2-156.9,58.7-235.4,1.3-5.3,2.2-10.8,2.4-16.3.7-17-7.2-27.1-24-29.4-31.5-4.3-55.5,6.2-67.7,37.8-2.4,6.3-4.2,13-5.8,19.6-22.5,89.4-44.9,178.8-67.3,268.2-.4,1.4-.8,2.8-1.3,4.4h-158c.4-1.8.6-3.3,1-4.9,23.3-92.8,46.6-185.6,69.8-278.4,1.3-5.3,2.2-10.8,2.4-16.3.7-19.7-9.5-30.4-29.4-31.2-33.9-1.4-54.6,13.2-63.3,46.4-12.8,48.9-24.8,98.1-37.2,147.1-11.1,44.2-22.2,88.4-33.3,132.7-.7,2.9-1.3,4.9-5.3,4.9-50.5-.2-101,0-151.5,0s-1.6,0-3.3-.2c35.6-141.9,71.1-283.4,106.7-425.1h160c-4.2,17.3-8.3,34.2-12.4,51.2.4.2.8.4,1.1.6,1.4-1.5,2.8-3,4.1-4.5,29-35.5,66.8-54.1,112.1-58,23.7-2.1,47.3-1.3,70.5,4.5,29.7,7.4,47.9,26.1,54.4,56.1.2,1,.5,1.9,1,3.5,1.2-1.3,2.2-2.3,3.1-3.3,28.9-34.8,66.5-53.6,110.7-59.7,28.9-4,57.5-2.9,85.5,6.1,5,1.6,9.9,3.9,14.7,6.1,23.6,10.8,32.5,30.7,33.6,55.2.9,19-3.1,37.4-7.7,55.7-19.5,77.4-38.8,155-58.4,232.4-8.8,34.7-31.9,56.8-63.9,70.5-14.1,6-28.9,8.9-44.3,8.9-22.9,0-46,0-70,0Z"/>
        <path fill="#FFFFFF" d="M-459.6,136.5c7,186.6,14.1,373.2,21.1,560.2h-182.8c1.7-32.2,3.4-64.3,5.2-96.8-2,0-3.8-.2-5.6-.2-42,0-84,0-126,0-4.1,0-5.8,1.4-7.3,4.9-12.9,29.6-25.9,59.1-38.9,88.7-1.1,2.5-2.2,3.9-5.3,3.9-58.8,0-117.7,0-176.5,0s-1,0-2.2-.3l2.2-4.4c79.3-147.7,157.9-295.7,238.2-442.9,36.4-66.7,94.1-105.5,170.3-112.2,35.2-3.1,70.9-1,106.4-1.2.2-.1.4,0,1.2.4ZM-705.2,491.5h95.1c4.3-77.3,8.6-154.2,12.8-231.1-.3-.1-.6-.2-.9-.3-35.6,76.9-71.2,154-107,231.4Z"/>
        <path fill="#FFFFFF" d="M699.3,272h158.6c-35.4,141.7-70.8,283.1-106.2,424.7h-158.2c4.1-17,8.1-33.7,12.4-51.6-1.8,1.3-2.8,1.7-3.4,2.4-34.4,43-80.5,59.9-134.1,59.9s-42-1.9-61.6-10.6c-17.4-7.7-32.2-18.3-38.6-37.4-4.8-14.6-5.7-29.7-2.6-44.5,5.9-28.8,12.8-57.5,19.8-86.1,20.7-83.5,41.7-166.9,62.4-250.4,1.3-5.4,3.4-6.9,8.9-6.9,49,.2,98,.1,147,.1s2.6.1,4.6.3c-2.3,9.4-4.6,18.6-6.9,27.7-21.3,85.2-42.7,170.4-64,255.7-1.4,5.5-2.2,11.2-2.4,16.8-.5,18.8,8.8,29,27.4,30.6,31.4,2.7,53.7-10.9,63.2-41.1,7.2-22.8,12.4-46.3,18.2-69.5,18.7-73.1,37-146.4,55.5-220.1Z"/>
        <path fill="#FFFFFF" d="M128.2,141.2c-11.3,43.8-22.4,86.8-33.7,130.4h66c-7.9,32.1-15.7,63.4-23.6,95.2h-66.4c-3,12-5.9,23.7-8.8,35.4-13.9,56-27.9,112-41.8,168.1-.7,2.7-1.1,5.6-1.2,8.4-.7,11.2,4.6,19.1,15.4,22.1,4.8,1.3,9.8,1.9,14.8,2.1,9.5.3,19,0,29,0-3.4,13.6-6.6,26.6-9.9,39.6-4.2,16.8-8.6,33.5-12.7,50.3-.8,3.3-2,4.6-5.5,4.9-37.1,2.7-74.2,4.4-111.4,3-18.2-.7-36.2-2.8-53.5-8.9-25.2-8.9-36-23.8-36.5-50.5-.3-17.8,3.8-35,8.1-52.1,37-147.3,74.2-294.6,111.3-441.9,1.2-4.6,2.7-6.4,7.8-6.3,48.8.2,97.7.1,146.5.1h6.1Z"/>
        <path fill="#FFFFFF" d="M-105.5,135.8c-47.1,187.4-94,374.1-140.9,560.9h-158.1c.3-1.6.4-3.2.8-4.7,32.8-130.9,65.6-261.8,98.4-392.7,13.2-52.6,26.3-105.2,39.4-157.9,1-4.2,2.5-5.8,7.2-5.8,49.2.2,98.3.1,147.5.1,1.5.1,3.2.1,5.7.1Z"/>
        <path fill="#FFFFFF" d="M271.1,696.7H112.8c35.5-141.8,70.8-283.3,106.2-424.8h158.7c-35.6,141.9-71.1,283.4-106.6,424.8Z"/>
      </g>
    </g>
  </g>
</svg>