<?xml version="1.0" encoding="utf-8"?>
<!-- Generator: Adobe Illustrator 27.5.0, SVG Export Plug-In . SVG Version: 6.00 Build 0)  -->
<svg version="1.1" xmlns="http://www.w3.org/2000/svg" xmlns:xlink="http://www.w3.org/1999/xlink" fill="#FFFFFF" x="0px" y="0px"
	 viewBox="0 0 708.7 170.1" style="enable-background:new 0 0 708.7 170.1;" xml:space="preserve">
<g id="Layer_1">
	<path fill="#FFFFFF" d="M665.1,25.9h-36.4v74.4h0c0,0.1,0,0.2,0,0.3c0,3.5-2.8,6.3-6.3,6.3c-3.5,0-6.3-2.8-6.3-6.3c0-0.1,0-0.2,0-0.3h0V58
		c-20.6,3-36.4,20.8-36.4,42.3c0,23.6,19.1,42.7,42.7,42.7c23.6,0,42.7-19.1,42.7-42.7c0-0.3,0-0.5,0-0.8l0,0V25.9z"/>
	<path fill="#FFFFFF" d="M439.4,58c-23.6,0-42.7,19.1-42.7,42.7c0,23.6,19.1,42.7,42.7,42.7c23.6,0,42.7-19.1,42.7-42.7C482.1,77.1,463,58,439.4,58
		z M439.4,108.5c-4.3,0-7.8-3.5-7.8-7.8c0-4.3,3.5-7.8,7.8-7.8c4.3,0,7.8,3.5,7.8,7.8C447.2,105,443.7,108.5,439.4,108.5z"/>
	<path fill="#FFFFFF" d="M93.8,25.5L93.8,25.5l42.6,0v50.9H90.1c0,0-0.1,0-0.1,0c0,0,0,0,0,0c-3.9,0-7,3.1-7,7c0,3.7,2.9,6.7,6.5,7
		c0.2,0,0.5,0,0.7,0h46.2v50.9H94.4v0c0,0,0,0,0,0h-0.7v0c-31.4-0.7-56.6-26.4-56.6-57.9C37.2,51.9,62.4,26.3,93.8,25.5z"/>
	<path fill="#FFFFFF" d="M193,25.5L193,25.5l-42.6,0v50.9h46.2c0,0,0.1,0,0.1,0c0,0,0,0,0,0c3.9,0,7,3.1,7,7c0,3.7-2.9,6.7-6.5,7
		c-0.2,0-0.5,0-0.7,0h-46.2v50.9h41.9v0c0,0,0,0,0,0h0.7v0c31.4-0.7,56.6-26.4,56.6-57.9C249.6,51.9,224.4,26.3,193,25.5z"/>
	<path fill="#FFFFFF" d="M334.6,25.5L334.6,25.5l-42.6,0v50.9h46.2c0,0,0.1,0,0.1,0c0,0,0,0,0,0c3.9,0,7,3.1,7,7c0,3.7-2.9,6.7-6.5,7
		c-0.2,0-0.5,0-0.7,0H292v50.9H334v0c0,0,0,0,0,0h0.7v0c31.4-0.7,56.6-26.4,56.6-57.9C391.2,51.9,366,26.3,334.6,25.5z"/>
	<path fill="#FFFFFF" d="M573.2,25.8h-36.4v74.4h0c0,0.1,0,0.2,0,0.3c0,3.5-2.8,6.3-6.3,6.3c-3.5,0-6.3-2.8-6.3-6.3c0-0.1,0-0.2,0-0.3h0V58
		c-20.6,3-36.4,20.8-36.4,42.3c0,23.6,19.1,42.7,42.7,42.7c23.6,0,42.7-19.1,42.7-42.7c0-0.3,0-0.5,0-0.8l0,0V25.8z"/>
</g>
<g id="Layer_2">
</g>
<g id="Layer_3">
</g>
<g id="Layer_4">
</g>
</svg>
