<?xml version="1.0" encoding="utf-8"?>
<!-- Generator: Adobe Illustrator 26.5.0, SVG Export Plug-In . SVG Version: 6.00 Build 0)  -->
<svg version="1.1" id="Layer_1" xmlns="http://www.w3.org/2000/svg" xmlns:xlink="http://www.w3.org/1999/xlink" fill="#FFFFFF" x="0px" y="0px"
	 viewBox="0 0 777 234" style="enable-background:new 0 0 777 234;" xml:space="preserve">
<g>
	<g>
		<path fill="#FFFFFF" d="M776.5,153.7c-9.9,0-18.8-0.4-27.7,0.2c-6.2,0.4-9.5-1.9-12.6-7c-28.1-45.7-56.5-91.2-84.9-136.7
			c-1.1-1.8-2.3-3.5-3.4-5.2c-0.4,0.2-0.8,0.3-1.1,0.5c12.1,49.2,24.2,98.3,36.5,147.9c-48.1,0-95.5,0-143.6,0
			c1.1-2,1.7-3.5,2.6-4.8c26.7-42.8,53.9-85.4,80-128.6c16.4-27.1,56.9-26,72.4,0.2c25.7,43.3,52.8,85.6,79.3,128.4
			C774.6,149.9,775.3,151.3,776.5,153.7z"/>
		<path fill="#FFFFFF" d="M350.6,122.7c0,10.7,0,20.5,0,30.5c-0.9,0.2-1.9,0.6-2.8,0.6c-35.8,0-71.7,0.5-107.5-0.2c-30.7-0.6-54-23.1-55.7-53.8
			c-0.9-16.9-1.2-34.1,1-50.9c3.5-26.7,26.7-46.2,53.8-46.7c24.5-0.5,49-0.5,73.5,0c25.8,0.5,43.7,19.4,43.8,45.3
			c0.1,20.1-8,35.4-26.7,43.4c-6.5,2.8-14.2,3.6-21.4,3.7c-29.3,0.4-58.7,0.4-88,0.2c-4.8,0-5.6,1.6-4.8,5.8
			c2.5,13.1,12.9,22,26.4,22c34,0,68,0,102,0C346.2,122.7,348.2,122.7,350.6,122.7z M266,63.6C266,63.6,266,63.6,266,63.6
			c15.3,0,30.6,0.2,45.9-0.2c3.5-0.1,7.9-1.5,10.2-3.8c5-5.1,5-11.8,2.4-18.2c-2.4-6-7.5-8.1-13.7-8.1c-23.3,0-46.6-0.1-69.9,0
			c-14,0.1-25.2,11.5-25.6,25.5c-0.1,3.6,0.9,4.9,4.7,4.9C235.4,63.4,250.7,63.6,266,63.6z"/>
		<path fill="#FFFFFF" d="M165,122.7c0,10.7,0,20.6,0,30.6c-0.8,0.2-1.5,0.5-2.1,0.5c-36.8-0.1-73.6,0.4-110.4-0.4c-28.6-0.6-52.4-26-52.5-54.5
			c-0.1-14.2-0.1-28.3,0-42.5c0.2-27.1,23.5-53,50.7-53.8c37.6-1.1,75.3-0.4,112.9-0.4c0.3,0,0.6,0.2,1.3,0.5c0,9.9,0,19.9,0,30.6
			c-2,0-4,0-5.9,0c-33.7,0-67.3,0-101,0c-16.3,0-27.3,10.9-27.3,27.2c0,11.7,0,23.3,0,35c0,16.3,10.9,27.1,27.3,27.2
			c33.3,0,66.6,0,100,0C160.2,122.7,162.3,122.7,165,122.7z"/>
		<path fill="#FFFFFF" d="M595.8,2.1c-1.4,2.5-2.3,4.2-3.3,5.8c-26.8,43-53.6,85.9-80.4,128.9c-6.9,11.1-16.5,18.1-29.8,19.4
			c-16.1,1.5-28.7-4.7-37.2-18.3c-12.1-19.3-23.7-39-35.5-58.5c-14.6-24.2-29.2-48.5-43.8-72.8c-0.7-1.1-1.3-2.3-2.6-4.5
			c2.9,0,5.1,0,7.3,0c8.2,0,16.3-0.2,24.5,0.1c2,0.1,4.8,1.5,5.8,3.2c18.9,31,37.6,62.1,56.3,93.2c4.2,7,8.5,14,12.7,21
			c4.9,8.1,11.5,8.4,16.5,0.4c19.9-31.8,39.7-63.6,59.5-95.4c4.1-6.5,8.1-13,12.2-19.5c0.8-1.2,2.3-2.8,3.6-2.9
			C572.7,2,583.8,2.1,595.8,2.1z"/>
		<path fill="#FFFFFF" d="M421.1,233.6c-13.4,0-22.1-8.5-22.1-21.6c0-13.3,8.5-21.8,21.9-21.8c13.6,0,22.8,8.6,22.8,21.6
			C443.8,224.8,434.7,233.6,421.1,233.6z M434.2,212.2c0.1-8.2-5.3-14.2-12.9-14.2c-7.4-0.1-13,5.8-13.1,13.5
			c-0.1,8.2,5.2,14,12.9,14.1C428.8,225.7,434.1,220.2,434.2,212.2z"/>
		<path fill="#FFFFFF" d="M502.5,195.3c-2.1,2.4-3.8,4.3-5.8,6.5c-4.9-3.1-9.9-5-15.5-2.7c-7.1,2.9-10.2,11.9-6.5,19.4c3.2,6.4,12.5,9.4,18.5,5.4
			c1.3-0.8,1.7-3.6,1.7-5.5c0-0.8,1.2-2.5-3.4-2.3c-0.9,0-1.9-0.2-3.3-0.3c0-2.4,0-4.6,0-7.5c4.4,0,8.7-0.2,12.9,0.1
			c1,0.1,2.5,2,2.6,3.1c0.3,5.1,0.2,10.3,0,15.5c0,1.1-0.6,2.7-1.5,3.3c-9.5,7.2-29.8,3.2-35.5-7.3c-7-12.6-1.3-32.5,18.7-32.9
			C491.3,190,497.2,190.6,502.5,195.3z"/>
		<path fill="#FFFFFF" d="M776.8,194.6c-1.7,1.9-3.5,3.9-4.6,5.1c-3.9-0.4-7.1-1.2-10.2-0.8c-1.4,0.2-3.3,2.3-3.6,3.8c-0.2,1.1,1.6,3.2,3,3.9
			c2.3,1.3,5,1.8,7.5,2.7c4.5,1.6,7.8,4.1,8.2,9.5c0.4,6-1.7,10.4-7,13.2c-6.4,3.3-16.2,1.8-22.2-3.5c1.8-2.1,3.6-4.1,5.3-6.1
			c3,1.2,5.8,3,8.5,3c2.2,0,5.4-1.3,6.6-3.4c0.9-1.9-2.5-4.3-4.4-5.6c-2-1.4-4.7-1.7-7-2.5c-4.2-1.5-7.3-4.2-7.8-8.8
			c-0.6-4.8,1.2-8.8,5.1-11.8C760.1,188.6,770.9,189.1,776.8,194.6z"/>
		<path fill="#FFFFFF" d="M582.1,199c-3.5,0-7.1-0.7-10.3,0.2c-3.9,1.1-4,5.1-0.4,7.1c2.6,1.4,5.6,2.1,8.4,3.1c4.6,1.6,7.9,4.4,8.3,9.6
			c0.4,5.2-1.5,9.5-6,12.3c-6.4,4-17.5,2.8-23.6-3c2-2.1,3.9-4.1,5.3-5.5c3.6,1,6.7,2.5,9.8,2.6c1.8,0,4.6-2,5-3.7
			c0.4-1.3-1.8-3.9-3.5-5c-2.2-1.4-5-1.8-7.5-2.7c-4.1-1.6-7.3-3.9-7.9-8.7c-0.6-5.1,1.2-9.2,5.3-12.1c6.2-4.4,16.4-3.8,22.5,1.6"/>
		<path fill="#FFFFFF" d="M727.7,195.9c-3,4-5.9,5.9-10.9,3.1c-4.2-2.4-10,0.1-13,4.3c-3.6,5.1-3.4,13,0.4,17.7c3.4,4.2,8.7,5.6,13.4,3.4
			c6-2.7,6-2.7,11,2c-3.3,8.6-21,9.2-29.2,2.3c-9-7.5-10.1-23.6-1.8-32.3C705.5,188.3,720.6,187.8,727.7,195.9z"/>
		<path fill="#FFFFFF" d="M628.2,232.5c-3.4,0-5.9,0-8.9,0c0-11.1,0-22,0-33.3c-4.1-0.2-7.7-0.4-11.6-0.5c0-2.5,0-4.7,0-7.3c10.7,0,21.1,0,31.8,0
			c0,2.3,0,4.6,0,7.4c-3.6,0-7.1,0-11.3,0C628.2,210.2,628.2,221.1,628.2,232.5z"/>
		<path fill="#FFFFFF" d="M379.5,224.5c0,3.1,0,5.4,0,7.9c-8.5,0-16.7,0-25.3,0c0-13.7,0-27.3,0-41.1c2.6,0,5,0,8.4,0c0,3.2,0,6.4,0,9.7
			c0,6.3,0.2,12.6-0.1,19c-0.1,3.5,1.2,4.7,4.6,4.6C371.2,224.3,375.2,224.5,379.5,224.5z"/>
		<path fill="#FFFFFF" d="M536.3,232.5c-2.9,0-5.4,0-8.2,0c0-13.7,0-27.2,0-41.1c2.7,0,5.2,0,8.2,0C536.3,205,536.3,218.5,536.3,232.5z"/>
		<path fill="#FFFFFF" d="M661.2,191.2c2.8,0,5.1,0,7.9,0c0,13.7,0,27.2,0,41.1c-2.5,0-5,0-7.9,0C661.2,218.7,661.2,205.2,661.2,191.2z"/>
	</g>
</g>
</svg>
