<?xml version="1.0" encoding="utf-8"?>
<!-- Generator: Adobe Illustrator 26.5.0, SVG Export Plug-In . SVG Version: 6.00 Build 0)  -->
<svg version="1.1" id="Layer_1" xmlns="http://www.w3.org/2000/svg" xmlns:xlink="http://www.w3.org/1999/xlink" fill="#FFFFFF" x="0px" y="0px"
	 viewBox="0 0 595.28 841.89" style="enable-background:new 0 0 595.28 841.89;" xml:space="preserve">
<g>
	<path fill="#FFFFFF" d="M-0.72,292.05c0.2,0.08,0.4,0.22,0.61,0.23c2.82,0.09,5.66,0.02,8.47,0.29c3.59,0.34,7.17,0.86,10.73,1.49
		c4.32,0.76,8.52,2.01,12.53,3.78c5.76,2.55,10.94,5.91,13.55,11.97c0.9,2.08,1.36,4.42,1.59,6.69c0.77,7.44-1.78,14.12-5.2,20.53
		c-2.48,4.65-5.43,9.01-8.92,12.95c-3.84,4.34-7.67,8.71-11.84,12.73c-3.97,3.82-8.23,7.38-12.61,10.74
		c-5.18,3.99-10.53,7.79-15.98,11.4c-4.14,2.74-8.56,5.05-12.87,7.53c-3.85,2.21-7.86,4.06-12.12,5.31
		c-1.57,0.46-3.22,0.9-4.83,0.87c-2.54-0.04-3.29-1.4-2.44-3.95c0.37-1.1,1.25-2.09,2.06-2.98c4.23-4.6,9.03-8.57,13.98-12.38
		c3.47-2.66,6.79-5.52,10.09-8.39c3.38-2.93,6.72-5.93,9.96-9.01c3.17-3.01,6.38-6.01,9.25-9.3c3.51-4.03,6.81-8.25,9.95-12.57
		c2.71-3.75,4.85-7.87,5.99-12.41c0.86-3.42,0.89-6.75-1.31-9.79c-1.38-1.89-3.37-2.91-5.4-3.86c-4.67-2.2-9.68-3.3-14.71-4.26
		c-3.12-0.6-6.3-0.96-9.46-1.25c-3.78-0.35-7.58-0.53-11.37-0.74c-2.42-0.13-4.85-0.23-7.27-0.23c-2.74,0-5.5,0.32-8.23,0.18
		c-3.39-0.17-6.87-0.2-9.96-1.95c-0.57-0.32-1.15-0.77-1.49-1.31c-0.9-1.46-0.51-2.42,1.15-3.63c2.73-2,5.94-2.99,9.14-3.82
		c4.27-1.1,8.59-2.04,12.93-2.86c2.7-0.51,5.45-0.79,8.2-0.99c4.59-0.33,9.18-0.51,13.77-0.76c0.13-0.01,0.24-0.15,0.37-0.22
		C-1.84,292.05-1.28,292.05-0.72,292.05z"/>
	<path fill="#FFFFFF" d="M723.12,377.01c-0.4,1.81-0.91,3.61-1.17,5.44c-0.35,2.45-1.79,3.66-4.35,3.67c-5.84,0.03-11.67,0.01-17.51,0.01
		c-0.44,0-0.87,0-1.38,0c-0.91,4.61-1.81,9.17-2.71,13.73c-0.78,3.95-1.58,7.9-2.35,11.85c-0.91,4.68-1.79,9.37-2.69,14.06
		c-0.39,2.03-0.76,4.07-1.22,6.09c-0.46,2.02-1.68,3.11-4.09,3.2c-3.69,0.14-7.39,0.04-11.39,0.04c3.14-16.18,6.3-32.46,9.49-48.91
		c-7.58,0-15.14,0-22.9,0c0.34-1.75,0.64-3.3,0.95-4.86c0.03-0.15,0.09-0.3,0.11-0.45c0.36-2.77,1.24-4.05,4.83-4.06
		c18.79-0.07,37.58-0.03,56.37-0.03C723.12,376.85,723.12,376.93,723.12,377.01z"/>
	<path fill="#FFFFFF" d="M9.95,440.35c0.15,3.38-0.84,6.54-1.78,9.71c-1.47,4.97-3.43,9.74-5.8,14.33c-3.12,6.03-6.68,11.81-10.99,17.07
		c-3.18,3.88-6.49,7.67-9.91,11.34c-2.81,3.01-5.72,5.98-8.88,8.61c-5.25,4.37-10.67,8.55-16.15,12.63
		c-6.63,4.95-13.71,9.23-20.97,13.18c-4.27,2.32-8.55,4.65-12.92,6.78c-9.92,4.84-19.99,9.35-30.62,12.42
		c-4.04,1.17-8.18,2.04-12.32,2.84c-1.62,0.31-3.36,0.19-5.03,0.02c-2.12-0.22-2.49-1.81-2.18-3.69c0.81-4.95,2.83-9.5,4.97-13.99
		c3.78-7.93,7.54-15.88,11.54-23.71c2.99-5.86,6.23-11.6,9.58-17.26c4.98-8.42,10.12-16.74,15.25-25.07
		c2.52-4.1,5.05-8.21,7.81-12.15c2.05-2.93,4.35-5.7,6.75-8.34c1.45-1.59,3.32-2.68,5.65-2.8c2.74-0.14,3.38,2.14,3.07,4.04
		c-0.94,5.66-3.65,10.61-6.24,15.62c-4.09,7.92-8.28,15.78-12.21,23.78c-3.65,7.44-7.18,14.96-9.56,22.94
		c-0.5,1.68-0.97,3.41-1.13,5.14c-0.23,2.31,0.5,3.6,3.12,3.62c3.5,0.02,6.68-1.22,9.83-2.55c6.43-2.7,12.28-6.43,17.95-10.44
		c3.49-2.47,6.8-5.2,10.17-7.85c5.17-4.06,9.87-8.65,14.35-13.44c5.19-5.55,9.93-11.47,13.63-18.16c2.08-3.75,3.74-7.65,4.69-11.84
		c0.94-4.17,0.92-8.3-0.86-12.24c-1.2-2.66-3.33-4.55-5.81-6.06c-4.42-2.68-9.27-4.16-14.31-5c-4.22-0.7-8.47-1.22-12.73-1.68
		c-2.75-0.3-5.53-0.42-8.3-0.49c-5.18-0.13-10.37-0.22-15.55-0.24c-3.42-0.01-6.85,0.29-10.27,0.18c-2.82-0.09-5.64-0.51-8.43-0.96
		c-1.05-0.17-2.17-0.63-2.99-1.29c-2.34-1.91-2.49-3.87,0.39-5.8c1.77-1.18,3.79-2.05,5.8-2.79c6.1-2.25,12.43-3.7,18.85-4.72
		c4.11-0.65,8.2-1.37,12.33-1.88c2.79-0.34,5.61-0.37,8.42-0.51c1.82-0.1,3.65-0.27,5.47-0.22c3.37,0.08,6.75,0.17,10.1,0.49
		c7.5,0.71,14.92,1.98,22.09,4.33c5.52,1.81,10.88,4.12,15.4,7.85c4.54,3.74,7.59,8.5,8.38,14.48
		C9.76,437.83,9.83,439.09,9.95,440.35z"/>
	<path fill="#FFFFFF" d="M47.54,521.49c-1.96,0-3.92,0.06-5.88-0.01c-3.33-0.12-6.66-0.27-9.98-0.48c-2.76-0.18-5.51-0.4-8.26-0.72
		c-3.59-0.41-7.17-0.9-10.75-1.42c-4.19-0.61-8.38-1.24-12.56-1.94c-2.97-0.5-5.95-0.98-8.65-2.45c-1.23-0.67-2.31-1.51-2.73-2.92
		c-0.79-2.64,1.28-4.86,3.58-5.16c3.04-0.4,6.1-0.74,9.16-0.96c3.48-0.25,6.98-0.34,10.46-0.5c3.65-0.16,7.3-0.32,10.94-0.48
		c3.53-0.16,7.06-0.3,10.58-0.49c3.95-0.21,7.92-0.36,11.86-0.74c5.58-0.54,11.17-1.12,16.61-2.6c2.55-0.7,5.03-1.59,7.11-3.24
		c1.51-1.2,2.26-2.98,2.48-4.91c0.4-3.42-0.62-6.55-2.02-9.59c-2.82-6.09-6.77-11.46-10.78-16.79c-2.79-3.7-5.6-7.38-8.42-11.05
		c-3.96-5.18-8.08-10.24-11.86-15.54c-3.61-5.06-7.03-10.28-10.28-15.59c-2.72-4.45-4.79-9.22-5.91-14.38
		c-1.48-6.77-0.43-12.89,3.87-18.47c3.94-5.11,9.17-8.27,14.98-10.67c4.59-1.89,9.43-2.85,14.3-3.59c6.55-1,13.18-0.96,19.77-0.68
		c4.82,0.2,9.64,0.9,14.42,1.64c5.14,0.79,10.25,1.79,15.34,2.89c2.85,0.62,5.74,1.4,8.06,3.34c0.94,0.79,1.89,1.75,2.39,2.84
		c0.78,1.71-0.17,3.47-2.22,4.06c-2.32,0.66-4.71,1.28-7.1,1.43c-5.56,0.34-11.13,0.37-16.7,0.54c-2.46,0.07-4.93,0.09-7.39,0.25
		c-4.1,0.27-8.19,0.62-12.29,0.94c-4.23,0.34-8.42,0.96-12.42,2.42c-2.7,0.98-5.23,2.36-6.49,5.12c-0.8,1.75-0.87,3.65-0.65,5.64
		c0.41,3.71,1.61,7.14,3.46,10.28c2.12,3.6,4.44,7.11,6.94,10.47c3.71,4.98,7.7,9.74,11.47,14.67c5.67,7.42,11.32,14.86,16.84,22.39
		c3.2,4.36,6.03,8.99,8.24,13.95c1.58,3.55,2.66,7.22,3.08,11.14c0.48,4.51-0.52,8.67-2.37,12.66c-1.57,3.38-4.03,6.1-6.92,8.44
		c-5.87,4.76-12.78,7.02-20.06,8.32c-3.71,0.66-7.46,1.11-11.22,1.44c-3.99,0.36-8.01,0.47-12.01,0.69
		C47.54,521.61,47.54,521.55,47.54,521.49z"/>
	<path fill="#FFFFFF" d="M482.86,515.97c0.36-2.04,0.67-3.96,1.04-5.87c0.84-4.34,1.72-8.67,2.58-13c0.69-3.49,1.4-6.98,2.07-10.47
		c0.84-4.34,1.63-8.69,2.49-13.03c0.89-4.52,1.76-9.06,2.8-13.55c0.43-1.85,1.49-2.55,3.43-2.6c4.24-0.1,8.48-0.04,12.72-0.02
		c0.31,0,0.74,0.14,0.91,0.37c3.14,4.21,6.25,8.45,9.37,12.68c2.32,3.15,4.62,6.32,6.99,9.54c1.62-1.43,3.21-2.83,4.81-4.24
		c3.3-2.9,6.6-5.79,9.89-8.7c1.6-1.42,3.19-2.85,4.77-4.29c1.79-1.62,3.55-3.29,5.39-4.86c0.4-0.34,1.07-0.51,1.62-0.51
		c3.88-0.04,7.76-0.02,11.64-0.02c2.73,0,3.69,1.27,3.15,3.94c-1.14,5.67-2.21,11.37-3.33,17.04c-1.08,5.45-2.21,10.88-3.28,16.33
		c-0.93,4.72-1.81,9.45-2.71,14.18c-0.4,2.11-0.77,4.23-1.23,6.34c-0.06,0.29-0.54,0.69-0.84,0.69c-3.68,0.05-7.36,0.09-11.04,0.01
		c-2.08-0.05-2.92-1.58-2.45-3.92c1.06-5.25,2.05-10.52,3.08-15.78c0.76-3.87,1.58-7.74,2.34-11.61c0.76-3.84,1.48-7.68,2.2-11.52
		c0.04-0.21,0.01-0.44,0.01-0.8c-1.24,1.1-2.37,2.08-3.47,3.1c-2.51,2.32-4.98,4.68-7.49,7c-2.91,2.69-5.82,5.4-8.78,8.04
		c-1.13,1.01-2.47,1.63-4.08,1.54c-1.32-0.07-2.65-0.13-3.96,0.01c-2.48,0.27-4.02-0.88-5.35-2.84
		c-3.77-5.53-7.65-10.99-11.49-16.48c-0.11-0.15-0.25-0.28-0.39-0.44c-1.07,5.28-2.15,10.55-3.19,15.82
		c-1.08,5.53-2.1,11.07-3.16,16.61c-0.52,2.69-1.03,5.38-1.64,8.04c-0.51,2.24-1.39,3.14-3.58,3.22
		C490.79,516.06,486.87,515.97,482.86,515.97z"/>
	<path fill="#FFFFFF" d="M157.12,435.27c0.3-1.76,0.55-3.45,0.87-5.12c0.92-4.72,1.87-9.44,2.81-14.16c0.7-3.53,1.44-7.05,2.12-10.58
		c0.61-3.15,1.11-6.32,1.74-9.47c0.41-2.08,0.57-2.86,2.96-3c4.17-0.26,8.37-0.07,12.58-0.07c-2.15,11.05-4.28,21.98-6.43,33.05
		c0.4,0.02,0.77,0.06,1.15,0.06c6.44,0,12.89,0.2,19.32-0.05c6.23-0.24,11.24-2.99,14.53-8.47c2.47-4.12,3.66-8.68,4.63-13.33
		c0.53-2.54,0.78-5.08,0.68-7.65c-0.21-5.5-3.16-8.88-8.54-9.79c-3.14-0.53-6.37-0.71-9.56-0.74c-9.28-0.09-18.56-0.03-27.84-0.03
		c-4.7,0-6.15-3.26-5.58-7.09c0.1-0.65,0.31-1.29,0.49-2.02c0.39,0,0.79,0,1.18,0c14.28,0,28.56-0.1,42.84,0.05
		c5.44,0.06,10.68,1.4,15.09,4.84c3.53,2.75,5.75,6.4,6.55,10.82c0.38,2.12,0.68,4.29,0.7,6.44c0.03,3.79-0.68,7.51-1.66,11.16
		c-1.18,4.41-2.88,8.62-5.53,12.37c-4.13,5.83-9.79,9.45-16.68,11.19c-3.87,0.98-7.8,1.46-11.81,1.47
		c-11.94,0.02-23.89,0.14-35.83,0.22C157.69,435.33,157.5,435.3,157.12,435.27z"/>
	<path fill="#FFFFFF" d="M498.34,435.33c1.09-5.77,2.14-11.34,3.2-16.97c-11.3,0-22.6,0-33.99,0c-1.07,5.64-2.14,11.27-3.23,16.97
		c-3.68,0-7.32,0.05-10.95-0.03c-1.13-0.02-2.37-0.29-2.6-1.7c-0.11-0.67,0.08-1.41,0.22-2.1c1.1-5.44,2.22-10.88,3.32-16.32
		c1.06-5.29,1.93-10.63,3.19-15.87c1.41-5.86,3.81-11.31,8.27-15.59c3.61-3.47,8.05-5.36,12.86-6.45
		c6.33-1.43,12.77-1.37,19.19-1.16c4.31,0.14,8.58,0.91,12.53,2.8c4.71,2.25,7.53,5.98,8.55,11.1c0.99,4.94,0.36,9.81-0.62,14.67
		c-0.8,3.95-1.5,7.92-2.27,11.88c-0.91,4.68-1.85,9.36-2.78,14.04c-0.15,0.77-0.22,1.56-0.43,2.31c-0.53,1.88-1.33,2.3-3.29,2.39
		C505.87,435.45,502.23,435.33,498.34,435.33z M469.27,409.01c0.33,0.09,0.45,0.14,0.56,0.14c10.04,0.01,20.07,0.03,30.11,0
		c2.06-0.01,3.59-1.23,4.03-3.16c0.85-3.68,1.75-7.37,1.45-11.2c-0.19-2.46-0.99-4.61-3.1-6.18c-2.25-1.68-4.85-2.31-7.48-2.41
		c-3.4-0.13-6.85-0.04-10.2,0.47c-6.2,0.95-10.6,4.48-12.52,10.51C470.9,401.04,470.21,405.06,469.27,409.01z"/>
	<path fill="#FFFFFF" d="M250.5,435.33c-2.94,0-5.85,0.02-8.76-0.01c-1.02-0.01-2.04-0.22-3.06-0.21c-1.45,0.02-2.05-1.17-1.78-2.56
		c1.07-5.45,2.21-10.88,3.29-16.33c0.92-4.64,1.67-9.32,2.73-13.93c0.72-3.14,1.7-6.25,2.82-9.28c1.36-3.7,3.55-6.92,6.47-9.6
		c2.85-2.61,6.18-4.39,9.9-5.45c3.37-0.96,6.79-1.63,10.31-1.69c3.86-0.06,7.73-0.34,11.59-0.18c3.67,0.15,7.33,0.72,10.8,2.1
		c5.65,2.25,9.21,6.16,10.27,12.3c0.82,4.73,0.28,9.33-0.66,13.95c-0.88,4.29-1.66,8.6-2.49,12.91c-0.97,5.03-1.92,10.07-2.9,15.1
		c-0.38,1.91-1.45,2.81-3.69,2.86c-3.59,0.08-7.19,0.02-10.89,0.02c1.07-5.67,2.12-11.26,3.21-17.04c-0.55,0-0.93,0-1.31,0
		c-10.48,0-20.95,0.01-31.43-0.02c-0.96,0-1.33,0.21-1.51,1.26c-0.86,4.85-1.85,9.68-2.79,14.51
		C250.54,434.42,250.54,434.82,250.5,435.33z M255.53,409.01c0.27,0.11,0.31,0.14,0.34,0.14c10.08,0.01,20.15,0.03,30.23,0.01
		c1.99,0,3.26-0.98,3.81-2.87c1.1-3.75,1.89-7.58,1.64-11.5c-0.22-3.44-1.88-6.24-5.58-7.47c-5.53-1.84-11.13-1.61-16.7-0.31
		c-5.54,1.29-9.32,4.72-11.03,10.18c-0.8,2.56-1.32,5.21-1.93,7.83C256.02,406.33,255.79,407.68,255.53,409.01z"/>
	<path fill="#FFFFFF" d="M553.4,376.77c-1.76,9.15-3.51,18.22-5.25,27.29c-0.63,3.3-1.46,6.59-1.84,9.92c-0.38,3.38-0.12,6.76,2.66,9.31
		c1.71,1.57,3.86,2.28,6.06,2.63c2.26,0.36,4.58,0.58,6.85,0.48c4.33-0.18,8.59-0.79,12.35-3.28c3.66-2.42,6-5.83,7-10
		c1.25-5.21,2.13-10.5,3.18-15.75c0.69-3.45,1.4-6.9,2.07-10.35c0.64-3.35,1.24-6.7,1.87-10.15c0.19-0.03,0.45-0.09,0.71-0.09
		c3.76-0.01,7.52-0.02,11.28,0c1.8,0.01,2.63,0.98,2.29,2.75c-0.74,3.84-1.56,7.66-2.31,11.5c-0.85,4.38-1.64,8.77-2.48,13.15
		c-1.1,5.76-2.13,11.53-4.76,16.87c-3.35,6.8-8.68,11.27-15.95,13.27c-2.93,0.81-5.96,1.37-8.98,1.68
		c-3.75,0.38-7.53,0.56-11.3,0.48c-4.87-0.1-9.74-0.58-14.35-2.36c-5.63-2.18-9.35-6-10.45-12.14c-0.63-3.52-0.61-7,0.03-10.48
		c0.93-5.08,1.91-10.15,2.86-15.23c0.98-5.23,1.93-10.47,2.92-15.7c0.28-1.47,0.51-3,2.23-3.58c0.22-0.07,0.44-0.2,0.66-0.2
		C544.94,376.77,549.13,376.77,553.4,376.77z"/>
	<path fill="#FFFFFF" d="M437.22,482.13c0.63,0,1.07,0,1.5,0c9.8,0,19.6,0,29.4,0c1.67,0,2.09,0.47,1.78,2.09c-0.35,1.8-0.86,3.58-1.14,5.39
		c-0.21,1.33-0.92,1.67-2.12,1.66c-5.12-0.03-10.24-0.01-15.36-0.01c-4.84,0-9.68,0-14.52,0c-0.43,0-0.87,0-1.3,0
		c-1,5.12-1.98,10.14-3,15.36c0.5,0,0.96,0,1.41,0c11.28,0,22.56,0,33.84,0c0.32,0,0.64-0.02,0.96,0.01
		c2.21,0.2,2.75,1.02,2.28,3.22c-0.42,1.99-0.73,4-1.1,6.07c-17.95,0-35.89,0-54.04,0c0.33-1.8,0.63-3.52,0.95-5.23
		c0.91-4.81,1.82-9.61,2.76-14.41c0.82-4.22,1.68-8.44,2.5-12.67c0.86-4.42,1.69-8.84,2.54-13.26c0.63-3.26,1.14-6.56,1.98-9.77
		c0.58-2.22,1.68-3.1,4.63-3.13c6.4-0.08,12.8-0.02,19.2-0.02c9.32,0,18.64,0,27.96,0c0.44,0,0.87,0,1.45,0
		c-0.5,2.42-0.98,4.73-1.45,7.05c-0.3,1.48-0.63,2.28-2.98,2.3c-7.32,0.05-14.64,0.02-21.96,0.02c-4.36,0-8.71,0-13.17,0
		C439.23,471.87,438.24,476.92,437.22,482.13z"/>
	<path fill="#FFFFFF" d="M639.43,457.41c-0.39,2.08-0.76,4.03-1.13,5.97c-0.04,0.19-0.1,0.38-0.13,0.57c-0.32,2.09-1.17,2.82-3.33,2.82
		c-11.24,0-22.47,0-33.71,0c-0.67,0-1.22-0.12-1.41,0.93c-0.85,4.77-1.84,9.51-2.82,14.42c0.5,0,0.96,0,1.41,0
		c9.8,0,19.59,0,29.39,0c1.91,0,2.14,0.26,1.81,2.09c-0.31,1.77-0.59,3.56-0.99,5.31c-0.35,1.53-0.98,1.75-2.09,1.74
		c-9.96-0.04-19.91-0.01-29.87-0.04c-1.03,0-1.46,0.19-1.66,1.36c-0.82,4.66-1.82,9.29-2.76,14.02c0.65,0,1.24,0,1.84,0
		c11.08,0,22.15,0,33.23,0.01c0.74,0,1.49,0.1,2.22,0.25c0.85,0.18,1.45,0.65,1.29,1.66c-0.37,2.47-0.74,4.93-1.11,7.4
		c-18.13,0-36.04,0-54.1,0c0.26-1.57,0.48-3.1,0.77-4.61c0.85-4.34,1.73-8.67,2.59-13c1.11-5.6,2.22-11.2,3.31-16.81
		c0.92-4.72,1.79-9.46,2.7-14.18c0.39-2.07,0.76-4.15,1.21-6.22c0.54-2.47,2.15-3.71,4.73-3.71c13.24,0,26.47,0,39.71,0
		C633.45,457.41,636.36,457.41,639.43,457.41z"/>
	<path fill="#FFFFFF" d="M378.63,435.33c0.46-2.29,0.78-4.46,1.37-6.56c0.49-1.77,2.36-2.8,4.59-2.8c9.88,0,19.76,0.03,29.64-0.03
		c1.89-0.01,3.83-0.2,5.5-1.39c1.62-1.16,2.9-4.66,0.67-6.42c-2.27-1.79-4.68-3.42-7.12-4.99c-6.52-4.19-13.13-8.24-19.59-12.51
		c-1.71-1.14-3.14-2.79-4.47-4.4c-2.38-2.88-2.43-6.18-1.48-9.68c1.44-5.35,5.18-8.01,10.31-9.02c2.12-0.42,4.29-0.7,6.44-0.72
		c11.94-0.14,23.88-0.19,35.83-0.27c0.48,0,0.95,0,1.45,0c-0.31,1.81-0.52,3.55-0.91,5.25c-0.78,3.35-2.06,4.26-5.61,4.31
		c-8.64,0.12-17.28,0.02-25.92,0.06c-0.99,0.01-2.03,0.24-2.97,0.59c-1.69,0.63-2.32,3.49-1.24,5.25c1.16,1.9,3.07,2.92,4.89,3.97
		c4.69,2.69,9.49,5.19,14.17,7.91c3.31,1.92,6.7,3.82,9.68,6.19c5.08,4.03,6.45,9.27,4.14,15.44c-1.94,5.19-6.07,7.61-11.25,8.65
		c-4.02,0.81-8.08,0.95-12.16,0.96c-11.42,0.03-22.85,0.14-34.27,0.22C379.83,435.33,379.35,435.33,378.63,435.33z"/>
	<path fill="#FFFFFF" d="M373.76,376.6c-0.52,2.28-1,4.45-1.51,6.61c-0.35,1.47-1.42,2.24-2.78,2.6c-0.83,0.21-1.72,0.3-2.58,0.3
		c-8.52,0.02-17.04,0-25.56,0.03c-0.82,0-1.64,0.16-2.44,0.34c-2.42,0.54-3.18,3.92-1.73,5.64c1.09,1.29,2.44,2.47,3.9,3.32
		c5.08,2.96,10.28,5.7,15.38,8.62c2.95,1.69,5.94,3.37,8.64,5.42c2.61,1.98,4.76,4.47,5.51,7.89c0.93,4.23-0.14,7.99-2.55,11.43
		c-2.24,3.2-5.65,4.51-9.27,5.3c-4.08,0.89-8.23,0.99-12.4,1c-11.46,0.02-22.93,0.14-34.39,0.22c-0.46,0-0.93,0-1.41,0
		c0.34-1.96,0.52-3.81,1-5.57c0.73-2.65,1.95-3.75,5.18-3.77c9.72-0.06,19.44,0.01,29.16-0.06c1.47-0.01,2.96-0.35,4.39-0.72
		c2.09-0.53,2.84-2.27,3.17-4.14c0.27-1.54-0.6-2.76-1.81-3.57c-3.55-2.36-7.16-4.63-10.75-6.95c-5.23-3.38-10.53-6.65-15.65-10.18
		c-2.5-1.72-4.65-3.91-5.65-6.96c-1.04-3.16-0.43-6.17,0.83-9.09c1.82-4.21,5.38-6.14,9.66-6.82c2.72-0.43,5.49-0.69,8.24-0.73
		c11.58-0.15,23.17-0.19,34.75-0.27C373.27,376.53,373.42,376.57,373.76,376.6z"/>
	<path fill="#FFFFFF" d="M282.75,515.87c0.32-1.85,0.58-3.67,0.97-5.47c0.55-2.52,2.47-3.79,5.61-3.79c9.84-0.01,19.68,0.02,29.51-0.03
		c1.19-0.01,2.4-0.33,3.55-0.66c2.21-0.63,3.06-2.44,3.23-4.47c0.14-1.78-1.18-3.04-2.52-3.9c-4.64-2.98-9.41-5.76-14.06-8.73
		c-4.19-2.68-8.41-5.34-12.37-8.33c-2.26-1.71-4.34-3.8-5.12-6.8c-0.51-1.96-0.44-3.87,0.05-5.79c0.84-3.31,2.32-6.3,5.49-7.86
		c2.07-1.01,4.38-1.89,6.65-2.08c13.9-1.17,27.84-0.31,41.77-0.53c0.08,0,0.15,0.04,0.3,0.09c-0.38,1.78-0.91,3.55-1.12,5.35
		c-0.31,2.65-2.45,3.9-5.05,3.9c-8.56,0-17.12-0.01-25.67,0.01c-0.86,0-1.73,0.13-2.58,0.3c-3.23,0.65-3.55,4.64-1.61,6.4
		c1.61,1.46,3.46,2.72,5.34,3.82c6.8,3.97,13.67,7.8,20.48,11.75c2.53,1.46,4.58,3.5,6.01,6.06c1.18,2.11,1.63,4.39,1.37,6.87
		c-0.36,3.55-1.65,6.63-4.19,9.1c-2.14,2.08-4.85,3.21-7.74,3.64c-3.31,0.49-6.66,0.91-9.99,0.96c-12.62,0.18-25.24,0.2-37.87,0.27
		C283.06,515.96,282.91,515.91,282.75,515.87z"/>
	<path fill="#FFFFFF" d="M703.23,457.41c-0.7,2.65-1.28,5.13-2.06,7.56c-0.18,0.55-0.99,1.04-1.62,1.28c-0.82,0.32-1.75,0.5-2.63,0.51
		c-8.56,0.04-17.12,0.01-25.68,0.03c-0.9,0-1.81,0.12-2.7,0.29c-2.95,0.56-3.49,4.62-1.58,6.24c1.94,1.64,4.01,3.17,6.19,4.46
		c6.68,3.93,13.52,7.61,20.15,11.61c3.13,1.89,5.64,4.57,6.58,8.28c1.18,4.68,0.02,8.87-3.04,12.53c-2.58,3.08-6.15,4.28-9.96,4.79
		c-2.89,0.39-5.82,0.68-8.73,0.72c-12.54,0.15-25.09,0.19-37.63,0.26c-0.11,0-0.23-0.05-0.57-0.13c0.36-1.75,0.78-3.49,1.06-5.25
		c0.27-1.76,1.11-3.04,2.84-3.53c0.97-0.28,2-0.43,3.01-0.43c9.72-0.03,19.44,0,29.16-0.04c1.72-0.01,3.46-0.24,4.91-1.34
		c2.29-1.74,2.76-5.35,0.14-7.16c-3.19-2.19-6.53-4.17-9.79-6.26c-5.6-3.59-11.28-7.07-16.76-10.84c-2.86-1.97-5.24-4.56-5.91-8.22
		c-0.41-2.23,0-4.39,0.73-6.5c1.73-4.99,5.55-7.38,10.5-8.1c3.2-0.46,6.45-0.7,9.69-0.73c10.68-0.09,21.36-0.03,32.04-0.03
		C701.99,457.41,702.42,457.41,703.23,457.41z"/>
	<path fill="#FFFFFF" d="M141.58,515.81c0.64-2.41,1.21-4.78,1.91-7.12c0.36-1.21,1.58-1.48,2.62-1.77c0.86-0.24,1.79-0.29,2.7-0.29
		c9.68-0.02,19.36,0.02,29.03-0.04c1.67-0.01,3.34-0.23,4.81-1.27c2.5-1.76,2.63-5.65,0.08-7.31c-4.07-2.64-8.23-5.13-12.33-7.73
		c-4.39-2.79-8.82-5.53-13.09-8.51c-2.21-1.54-4.33-3.28-5.69-5.76c-1.18-2.15-1.63-4.32-1.2-6.78c0.34-2,0.86-3.93,1.94-5.61
		c1.89-2.93,4.7-4.65,8.1-5.22c2.83-0.47,5.7-0.92,8.55-0.95c11.4-0.11,22.79-0.04,34.19-0.04c0.47,0,0.94,0,1.59,0
		c-0.12,0.65-0.2,1.18-0.3,1.7c-0.24,1.23-0.5,2.45-0.71,3.68c-0.47,2.73-1.98,3.93-4.97,3.95c-8.6,0.08-17.2,0.02-25.79,0.04
		c-0.9,0-1.81,0.13-2.7,0.28c-2.87,0.51-3.35,4.5-1.63,6.29c1.84,1.91,4.08,3.18,6.34,4.47c6.7,3.83,13.45,7.57,20.06,11.54
		c3.14,1.89,5.62,4.58,6.57,8.29c1.19,4.59,0.04,8.72-2.87,12.36c-2.56,3.2-6.2,4.42-10.06,4.96c-2.89,0.4-5.81,0.69-8.73,0.72
		c-12.58,0.15-25.16,0.18-37.74,0.26C142.16,515.96,142.09,515.92,141.58,515.81z"/>
	<path fill="#FFFFFF" d="M278.74,457.41c-0.3,1.73-0.56,3.31-0.86,4.88c-0.78,4.03-1.57,8.06-2.36,12.09c-0.92,4.68-1.87,9.36-2.78,14.04
		c-0.77,3.96-1.49,7.92-2.26,11.88c-0.79,4.07-1.57,8.14-2.42,12.2c-0.41,1.97-1.98,3.33-4.25,3.43c-3.35,0.14-6.72,0.04-10.08,0.04
		c-0.39,0-0.79,0-1.22,0c1.28-6.58,2.54-13.05,3.83-19.68c-1.74,0.5-3.35,1.05-4.99,1.4c-3.33,0.71-6.65,1.51-10.02,1.91
		c-3.46,0.41-6.98,0.63-10.45,0.47c-4.88-0.22-9.47-1.5-12.94-5.33c-1.79-1.97-2.83-4.3-3.36-6.88c-0.95-4.62-0.33-9.17,0.62-13.71
		c0.81-3.91,1.51-7.84,2.26-11.76c0.18-0.92,0.31-1.85,0.5-2.77c0.22-1.05,1.32-2.15,2.48-2.17c4.27-0.07,8.54-0.03,12.91-0.03
		c-0.63,3.2-1.27,6.26-1.83,9.33c-0.72,3.93-1.73,7.85-1.97,11.81c-0.33,5.33,2.52,8.31,7.43,9.54c3.14,0.78,6.37,0.78,9.56,0.27
		c3.36-0.55,6.67-1.32,10.03-1.89c1.44-0.24,1.95-1.01,2.21-2.36c1.05-5.61,2.2-11.21,3.31-16.81c0.51-2.57,0.97-5.15,1.48-7.72
		c0.24-1.21,1.27-2.15,2.48-2.16C270.16,457.39,274.31,457.41,278.74,457.41z"/>
	<path fill="#FFFFFF" d="M379.22,466.78c-7.62,0-15.13,0-22.87,0c0.19-1.16,0.34-2.21,0.54-3.26c0.2-1.03,0.5-2.05,0.69-3.08
		c0.25-1.36,1.1-2.16,2.35-2.54c0.85-0.26,1.76-0.47,2.64-0.48c18.28-0.03,36.55-0.02,54.83-0.02c0.36,0,0.71,0,1.16,0
		c-0.48,2.27-0.87,4.45-1.43,6.59c-0.51,1.94-1.7,2.77-3.67,2.77c-5.96,0.01-11.92,0-17.88,0c-0.44,0-0.88,0-1.43,0
		c-0.59,3-1.16,5.98-1.75,8.96c-0.93,4.72-1.88,9.43-2.8,14.16c-0.84,4.34-1.64,8.69-2.49,13.03c-0.61,3.14-1.27,6.28-1.9,9.42
		c-0.48,2.37-2.14,3.49-4.34,3.59c-3.63,0.16-7.26,0.04-11.2,0.04C372.86,499.54,376.02,483.25,379.22,466.78z"/>
	<path fill="#FFFFFF" d="M625.18,425.97c0.54,0,1.01,0,1.48,0c9.6,0,19.2,0.03,28.8-0.02c3.66-0.02,4.27,1.24,3.5,4.51c-0.37,1.56-0.66,3.14-1,4.79
		c-16.44,0-32.95,0-49.52,0c3.79-19.47,7.57-38.92,11.37-58.49c2.63,0,5.3,0,7.97,0c1.52,0,3.04,0,4.56,0
		c1.4,0.01,2.21,0.94,1.95,2.31c-0.54,2.92-1.12,5.84-1.69,8.76c-0.79,4.03-1.58,8.06-2.38,12.09c-1.01,5.1-2.04,10.2-3.03,15.31
		C626.52,418.77,625.87,422.31,625.18,425.97z"/>
</g>
</svg>
