<?xml version="1.0" encoding="utf-8"?>
<!-- Generator: Adobe Illustrator 26.5.0, SVG Export Plug-In . SVG Version: 6.00 Build 0)  -->
<svg version="1.1" id="Layer_1" xmlns="http://www.w3.org/2000/svg" xmlns:xlink="http://www.w3.org/1999/xlink" fill="#FFFFFF" x="0px" y="0px"
	 viewBox="0 0 595.3 841.9" style="enable-background:new 0 0 595.3 841.9;" xml:space="preserve">
<g>
	<path fill="#FFFFFF" d="M216.1,424.7c-2.8,6-5.8,11.9-8.4,18c-1.5,3.6-4.1,3.3-6.9,3.1c-3-0.3-6.5,1.4-8.4-3c-2.8-6.5-6.3-12.8-10.2-18.9
		c0,7.1,0,14.1,0,21.6c-3.4,0-6.4,0-10.1,0c0-7.5,0-15.1,0-22.7c0-7.5,0-14.9,0-22.7c3.6,0,6.9,0,10.6,0c5.5,11,11.2,22.4,17.3,34.6
		c3.9-7.6,7.4-14.5,10.9-21.4c1-2,2-4.1,3.1-6.2c3.8-7.7,3.8-7.7,12.7-6.9c0,15,0,30.1,0,45.4c-3,0-5.9,0-9.3,0c0-6.8,0-13.7,0-20.6
		C216.9,424.9,216.5,424.8,216.1,424.7z"/>
	<path fill="#FFFFFF" d="M10.2,444.9c0-14.8,0-29.1,0-44c10.1,0,20,0.2,29.9,0c10.7-0.2,15.1-1.9,14.8,15.4c0,2.4-1,4.8-1.7,8.1
		c3.4,4.7,2.3,11-0.3,16.9c-0.8,1.7-3.7,3.4-5.7,3.4C35.1,445,22.9,444.9,10.2,444.9z M44.6,417.7c0-2.8,0-5.2,0-7.4
		c-8.4,0-16.4,0-24.4,0c0,2.7,0,4.9,0,7.4C28.5,417.7,36.4,417.7,44.6,417.7z M20.2,435.7c8.5,0,16.4,0,24.5,0c0-2.6,0-5,0-7.4
		c-8.3,0-16.4,0-24.5,0C20.2,430.8,20.2,433.1,20.2,435.7z"/>
	<path fill="#FFFFFF" d="M293.1,445.7c-3.6,0-6.5,0-9.8,0c0-15.1,0-30.1,0-45.7c12.1,0,24.2-0.2,36.3,0.1c3.8,0.1,7.2,4.6,7.3,8.7
		c0.1,3.3,0,6.7,0,10c0,6.2-2.7,8.9-9,9.1c-2.8,0.1-5.5,0-9.5,0c7.4,6.2,13.8,11.6,20.4,17.2c-10.6,3.3-18.3-0.8-25.1-7.8
		c-3.1-3.2-6.6-5.9-10.7-9.5C293.1,434.1,293.1,439.8,293.1,445.7z M316.8,410.2c-8.1,0-15.8,0-23.6,0c0,2.6,0,4.9,0,7.4
		c7.9,0,15.6,0,23.6,0C316.8,415.1,316.8,412.8,316.8,410.2z"/>
	<path fill="#FFFFFF" d="M660.7,428.1c-5.7,0-11.3,0-17.3,0c0-3.4,0-6.4,0-9.8c8.9,0,18,0,27.3,0c0,9,0,17.9,0,27.7c-3.9,0-8,0-12.1,0
		c-8,0-16,0-24,0c-5.8,0-8.6-3-8.6-8.8c0-9.7-0.1-19.3,0-29c0-4.8,2.8-8.1,7.3-8.2c12-0.2,23.9-0.1,36.3-0.1c0,3.3,0,6.3,0,9.9
		c-11.4,0-22.8,0-34.4,0c0,8.8,0,17.1,0,25.7c8.3,0,16.7,0,25.4,0C660.7,433.2,660.7,430.8,660.7,428.1z"/>
	<path fill="#FFFFFF" d="M466.2,445.9c0-15.6,0-30.5,0-46c12.8,0,25.4-0.1,38,0.1c3.9,0.1,7.7,4.3,7.7,8.3c0.1,9.8,0.2,19.6,0,29.5
		c-0.1,5.3-2.6,7.9-8,8C491.5,446,479.1,445.9,466.2,445.9z M476.2,435.6c8.6,0,17,0,25.4,0c0-8.7,0-17,0-25.3c-8.7,0-17.1,0-25.4,0
		C476.2,418.9,476.2,427.1,476.2,435.6z"/>
	<path fill="#FFFFFF" d="M279,445.7c-3.6,0-6.5,0-9.8,0c0-5.8,0-11.4,0-17.4c-8.7,0-17.1,0-26,0c0,5.6,0,11.3,0,17.3c-3.6,0-6.6,0-10.2,0
		c0-13.1-0.2-26,0.1-38.9c0.1-4,3.1-6.6,7.2-6.7c9.8-0.2,19.6-0.2,29.4,0c4.5,0.1,9.1,4.9,9.2,10C279.2,421.7,279,433.5,279,445.7z
		 M268.9,410.2c-8.8,0-17.2,0-25.6,0c0,2.7,0,5.1,0,7.3c8.7,0,17.1,0,25.6,0C268.9,415,268.9,412.8,268.9,410.2z"/>
	<path fill="#FFFFFF" d="M-82.4,444.9c-13,0-25.6,0.1-38.2-0.1c-4.4-0.1-6.2-3.6-6.3-7.4c-0.3-9.3-0.2-18.6,0-28c0.1-5.6,3.2-8.5,8.7-8.5
		c11.3,0,22.5,0,34,0c0,3.1,0,5.7,0,8.8c-10.7,0-21.4,0-32.4,0c0,8.9,0,17.3,0,25.9c8.2,0,16.2,0,24.5,0c0-2.5,0-4.8,0-7.6
		c-5.4,0-10.8,0-16.5,0c0-3.6,0-6.6,0-9.9c8.8,0,17.4,0,26.3,0C-82.4,426.8-82.4,435.5-82.4,444.9z"/>
	<path fill="#FFFFFF" d="M562.2,445.9c0-3.4,0-6.3,0-9.8c10.3,0,20.7,0,31.4,0c0-2.9,0-5.3,0-8.2c-7.6,0-15,0-22.5,0c-6.5,0-10.1-3.6-10.2-10
		c0-3.2-0.1-6.3,0-9.5c0.2-4,3.8-8.3,7.6-8.4c10.6-0.2,21.2-0.1,32.1-0.1c0,3.4,0,6.3,0,9.8c-9.7,0-19.4,0-29.4,0c0,2.9,0,5.3,0,8.2
		c7.6,0,15,0,22.5,0c6.5,0,10.1,3.6,10.2,10c0,3.2,0.1,6.3,0,9.5c-0.2,4-3.8,8.4-7.6,8.4C585.1,446,573.8,445.9,562.2,445.9z"/>
	<path fill="#FFFFFF" d="M5,423.1c0,4.5,0.1,9,0,13.5c-0.1,5.5-3.8,9.3-9.3,9.3c-8.5,0.1-17,0.1-25.5,0c-5.5-0.1-9.1-3.7-9.2-9.2
		c-0.1-8.5,0-17,0-25.5c0-7.1,1.7-10.4,8.4-10.8c9.5-0.7,19.1-0.1,28.7,0.6c4.9,0.4,7,4.2,6.9,9.1C5,414.4,5,418.8,5,423.1z
		 M-29.8,434.5c8.8,0,17.2,0,25.4,0c0-8.1,0-15.8,0-23.4c-8.7,0-16.9,0-25.4,0C-29.8,419-29.8,426.6-29.8,434.5z"/>
	<path fill="#FFFFFF" d="M105,444.6c-3.4,0-6.3,0-9.8,0c0-5.4,0-10.8,0-16.4c-8.6,0-16.6,0-25.1,0c0,5.4,0,10.7,0,16.3c-3.4,0-6.5,0-10.1,0
		c0-12.5-0.3-24.9,0.2-37.3c0.2-4.1,3.6-6.4,8.1-6.3c8.8,0.1,17.7,0,26.5,0c5.7,0,9.9,3.1,10.1,8.6C105.2,421.1,105,432.8,105,444.6
		z M94.9,410.2c-8.5,0-16.6,0-24.5,0c0,2.7,0,5.1,0,7.3c8.4,0,16.4,0,24.5,0C94.9,414.9,94.9,412.8,94.9,410.2z"/>
	<path fill="#FFFFFF" d="M688.1,417.9c0,9.6,0,18.5,0,27.7c-3.5,0-6.5,0-9.8,0c0-15.2,0-30.2,0-45.2c4.1-1.3,6.9,0.1,9.8,3
		c8.2,8.2,16.8,16,25.8,24.5c0-9.5,0-18.5,0-27.7c3.6,0,6.5,0,9.8,0c0,15.1,0,30.1,0,45.3c-3.8,1.2-6.6,0.1-9.6-2.8
		C705.8,434.4,697.2,426.5,688.1,417.9z"/>
	<path fill="#FFFFFF" d="M350.3,400.3c4-1.1,6.9,0.1,9.8,3c8.2,8.2,16.7,16.1,25.8,24.7c0-9.6,0-18.5,0-27.8c3.6,0,6.5,0,9.8,0c0,15,0,30,0,45.3
		c-3.7,1.2-6.6,0.2-9.5-2.8c-8.3-8.3-17-16.2-26-24.7c0,9.4,0,18.3,0,27.5c-3.5,0-6.5,0-9.9,0C350.3,430.4,350.3,415.4,350.3,400.3z
		"/>
	<path fill="#FFFFFF" d="M438.8,417.7c0,3.6,0,6.6,0,10.1c-8.8,0-17.5,0-26.5,0c0,2.8,0,5.1,0,7.9c8.6,0,17.3,0,26.4,0c0,3.6,0,6.6,0,10
		c-12,0-24,0-36.3,0c0-15,0-30,0-45.4c12,0,24,0,36.3,0c0,3,0,6,0,9.4c-8.6,0-17.4,0-26.4,0c0,2.9,0,5.3,0,8.1
		C421,417.7,429.6,417.7,438.8,417.7z"/>
	<path fill="#FFFFFF" d="M518.4,400.1c12,0,23.6,0,35.4,0c0,3.2,0,6.1,0,9.6c-8.4,0-16.8,0-25.5,0c0,2.9,0,5.3,0,8.1c8.4,0,16.7,0,25.3,0
		c0,3.4,0,6.5,0,10.1c-8.4,0-16.8,0-25.4,0c0,2.8,0,5.1,0,7.9c8.4,0,16.8,0,25.5,0c0,3.6,0,6.6,0,9.9c-11.8,0-23.4,0-35.3,0
		C518.4,430.6,518.4,415.5,518.4,400.1z"/>
	<path fill="#FFFFFF" d="M-75.9,444.5c0-14.5,0-28.6,0-43.2c2.8,0,5.5,0,8.8,0c0,11.3,0,22.7,0,34.4c9.7,1.1,20.8-3.4,26.2,8.8
		C-52.2,444.5-63.8,444.5-75.9,444.5z"/>
	<path fill="#FFFFFF" d="M113.4,401.1c2.9,0,5.6,0,8.5,0c0,11.5,0,22.8,0,34.7c9.6,0.3,20-2.2,26.1,8.7c-11.6,0-22.9,0-34.6,0
		C113.4,430.3,113.4,415.9,113.4,401.1z"/>
	<path fill="#FFFFFF" d="M333.3,400.1c3.3,0,6.2,0,9.4,0c0,15.1,0,30.1,0,45.4c-3,0-6,0-9.4,0C333.3,430.6,333.3,415.6,333.3,400.1z"/>
	<path fill="#FFFFFF" d="M618.7,445.7c-3.2,0-6.1,0-9.4,0c0-15.1,0-30.1,0-45.5c3,0,6.1,0,9.4,0C618.7,415.4,618.7,430.4,618.7,445.7z"/>
</g>
</svg>
