<?xml version="1.0" encoding="UTF-8"?>
<svg xmlns="http://www.w3.org/2000/svg" version="1.1" viewBox="0 0 595.28 841.89">
  <defs>
    <style>
      .cls-1 {
        fill: #231f20;
      }
    </style>
  </defs>
  <!-- Generator: Adobe Illustrator 28.6.0, SVG Export Plug-In . SVG Version: 1.2.0 Build 709)  -->
  <g>
    <g id="Layer_1">
      <g>
        <g>
          <path class="cls-1" fill="#FFFFFF" d="M342.55,239.57c1.23.13,2.36.26,3.48.37,1.85.19,3.68.36,5.54.52.15,0,.28.06.5.11.02.22.07.43.06.65-.17,2.34-.36,4.68-.54,7.01-.09,1.2-.21,2.41-.3,3.61-.21,2.82-.41,5.65-.62,8.47,0,.11.02.22.06.43.24-.17.47-.28.65-.43,2.43-2.11,4.84-4.23,7.26-6.34.28-.24.58-.49.9-.77,3.83.36,7.67.71,11.54,1.07.06-.26.13-.47.15-.67.15-1.46.26-2.94.41-4.47.24,0,.47-.06.67-.04,1.46.17,2.92.36,4.45.54.06-.22.15-.43.17-.64.13-1.42.26-2.86.39-4.28.02-.22.04-.45.06-.64l.11-.11s.07-.04.11-.04c4.73.47,9.44,1.12,14.21,1.68,0,.32.06.56.04.82-.09,1.48-.19,2.94-.3,4.41-.21,2.75-.41,5.5-.62,8.25-.11,1.51-.24,3.01-.36,4.53-.04.41-.11.8,0,1.31.28-.17.5-.3.71-.41.94-.5,1.66-1.25,2.38-2.06,2.51-2.92,5.65-4.88,9.41-5.74,4.45-1.01,8.62-.26,12.57,1.98,1.59.92,2.99,2.04,4.23,3.4.22.24.47.47.73.75.24-.32.45-.58.65-.84,1.29-1.7,2.82-3.14,4.64-4.28.56-.36,1.01-.77,1.42-1.27,2.52-3.07,5.67-5.18,9.56-6.13,4.58-1.12,8.92-.45,13,1.93.32.19.64.39,1.01.62,1.46-.52,2.95-1.07,4.51-1.63-.04-.24-.04-.47-.09-.67-.19-.69-.39-1.37-.62-2.11,3.91-1.46,7.78-2.82,11.65-4.25.19.15.36.28.54.43.09-.06.21-.07.28-.15,1.14-1.1,2.38-2.11,3.74-2.94,1.93-1.14,3.98-1.98,6.21-2.34,2.39-.39,4.68-.04,6.86.92,2.77,1.2,4.86,3.14,6.41,5.7,1.03,1.68,1.83,3.48,2.45,5.35,1.01,3.09,1.98,6.19,3.03,9.26,1.4,4.11,2.86,8.19,4.3,12.31.13.36.24.71.37,1.1-2.21.92-4.41,1.63-6.62,2.52.3.9.56,1.7.82,2.45-.06.11-.06.15-.09.19-.02.04-.06.07-.07.07-4.41,1.65-8.85,3.31-13.26,4.96-.09.04-.21.04-.39.06-.32-.84-.65-1.68-.99-2.58-1.08.22-2.08.67-3.1,1.01-.99.34-1.98.69-3.03,1.05.09.99.62,1.8.79,2.77-.13.07-.28.21-.45.26-4.36,1.51-8.71,3.01-13.07,4.51-.13.06-.28.06-.5.09-.69-1.65-1.07-3.38-1.76-5.05-.43.06-.67.36-.99.54-.3.17-.56.37-.86.54-.32.19-.65.37-1.05.6-.04.41-.22.79-.54,1.12-2.43,2.67-5.46,4.38-8.81,5.61-3.78,1.38-7.69,1.93-11.71,1.59-2.95-.24-5.65-1.29-8.12-2.92-.32-.21-.64-.41-1.01-.67-1.53,1.27-3.22,2.34-5.12,3.1.04.49.06.94.09,1.42-1.5,1.38-3.14,2.56-5.03,3.38-3.07,1.35-6.28,2.13-9.63,2.32-2.28.13-4.54.06-6.77-.37-3.98-.77-7.33-2.71-10.12-5.65-.22-.24-.47-.5-.71-.77-.28.09-.49.34-.88.28-1.27-.21-2.54-.34-3.82-.49-.26-.04-.52,0-.84,0-.24,1.83-.28,3.68-.47,5.5-.47.22-.88.09-1.27.06-4.1-.49-8.17-.99-12.27-1.5-.41-.06-.82-.09-1.29-.13-.06-.34-.11-.65-.17-1.01-1.55-.15-3.09-.32-4.64-.47-2.26-.22-4.51-.43-6.77-.64-1.2-.11-2.41-.24-3.61-.3-.73-.04-1.25-.26-1.72-.88-1.23-1.57-2.54-3.1-3.82-4.64-.22-.26-.43-.52-.67-.79-1.01-.13-2-.34-3.05-.26-.34,1.83-.21,3.65-.54,5.5-1.66-.02-3.29-.28-4.94-.43-1.65-.17-3.31-.34-4.96-.5-1.65-.15-3.29-.28-4.96-.52,0-.21-.06-.36-.04-.5,1.38-16.64,2.77-33.27,4.15-49.86.37-.3.71-.17,1.03-.13,1.05.09,2.09.22,3.16.34.34.04.67,0,1.07,0,.09-.95.19-1.89.26-2.82.07-.9.07-1.8.3-2.73,1.63.15,3.2.3,4.88.45M434.99,286.51s.09,0,.22.15c2.3,1.25,4.77,1.81,7.37,1.81,1.96,0,3.91-.21,5.83-.65,2.54-.58,4.96-1.53,7.22-2.84,1.18-.69,2.24-1.51,3.18-2.56-.22-.8-.47-1.59-.69-2.39-.41-1.4-.82-2.81-1.23-4.39-.07-.3-.13-.6-.26-.86-.13-.3-.07-.67-.41-.94-.86.67-1.68,1.31-2.66,1.98-.32.19-.64.39-.97.58-2.84,1.59-5.87,2.52-9.13,2.62-2.09.07-3.82-.69-5.26-2.19-.26-.26-.5-.56-.79-.97-.11-.17-.22-.34-.36-.62-.17-.17-.09-.3.24-.37.11-.06.24-.11.52-.19,3.2-.88,6.4-1.76,9.59-2.64s6.38-1.74,9.61-2.66c-.04-.26-.06-.43-.11-.62-.45-1.72-.88-3.42-1.35-5.14-.39-1.42-.99-2.77-1.78-4.02-.17-.28-.39-.54-.65-.97-.47-.6-.86-1.25-1.53-1.85-.04,0-.07-.04-.17-.19-.07-.02-.17-.06-.37-.17-.09-.15-.15-.36-.28-.47-3.4-3.07-7.39-4.34-11.91-3.68-3.4.5-6.27,2.13-8.58,4.66-2.73,2.97-4.17,6.53-4.47,10.53-.13,1.74-.07,3.48.22,5.2.52,3.16,1.59,6.13,3.42,8.79.5.75,1.03,1.48,1.81,2.21.9.88,1.81,1.74,2.99,2.41.04.06.11.07.26.15h.13s-.02,0,.04.11c.07.02.15.06.22.11,0,0,.04,0,.06.04M336.92,287.3s.06,0,.21.06c2.95.3,5.93.58,8.86.86.07-.13.13-.19.15-.26.3-3.95.6-7.89.88-11.86.13-.02.24-.04.39.07,2.94,3.55,5.87,7.13,8.83,10.68.15.17.32.32.49.6.13.11.24.24.41.5.41.49.82.97,1.23,1.48,4.19.37,8.36.77,12.51,1.14.04,0,.07,0,.09-.04.02-.02.04-.06.07-.17-.92-1.08-1.76-2.28-2.82-3.48-.47-.34-.67-.88-1.03-1.31-3.46-4.28-6.9-8.58-10.34-12.89-.28-.36-.58-.67-.8-1.14.28-.26.54-.52.82-.79,4.73-4.38,9.46-8.75,14.19-13.13.21-.19.37-.41.67-.73-1.72-.19-3.27-.45-5.03-.49-.54-.04-1.08-.09-1.78-.19-.11,0-.21,0-.43-.04-.04,0-.07.02-.3-.02-1.27-.13-2.54-.26-3.78-.37-1.61,1.4-3.18,2.77-4.73,4.13-2.54,2.24-5.09,4.49-7.76,6.7-.09,0-.17-.04-.24-.17,0-.07,0-.17.07-.41.06-.82.11-1.66.17-2.49.19-2.56.39-5.12.6-7.69.21-2.6.41-5.2.6-7.8.11-1.51.22-3.01.34-4.53,0-.24-.02-.5-.04-.77-.77-.21-1.48-.22-2.36-.32-.43-.02-.84-.06-1.46-.11-1.65-.15-3.31-.32-4.96-.47-.21-.02-.45-.09-.62.11-.02.04-.06.07-.06.09-.32,3.72-.64,7.44-.95,11.18-.19,2.23-.36,4.45-.54,6.66-.34,4.06-.69,8.14-1.03,12.19-.3,3.5-.6,6.99-.88,10.49-.04.56-.04,1.12-.13,1.85,0,.19,0,.36-.09.69,0,.47-.02.95-.07,1.57.02.09.04.19.11.43.17,0,.36.02.58.04M400.26,292.7s.11.09.28.13c0,0,.09.02.15.13.07.02.15.04.36.15,1.33.75,2.75,1.23,4.23,1.51,3.83.73,7.65.56,11.43-.45,2.26-.6,4.45-1.42,6.36-2.82.24-.17.45-.37.69-.58-.24-1.33-.49-2.64-.75-3.93-.19-.95-.39-1.91-.58-3.07-.11-.54-.22-1.07-.36-1.7-1.01.58-1.94,1.1-2.94,1.66,0,0-.09.06-.21.04-.06.06-.11.11-.32.21-2.99,1.35-6.13,1.94-9.43,1.8-2.64-.13-4.66-1.29-6.08-3.52-.11-.19-.26-.37-.41-.71-.06-.21-.09-.39-.15-.64,1.42-.21,2.77-.39,4.11-.58,5.11-.75,10.21-1.51,15.32-2.26.39-.06.82-.07,1.2-.28,0-.22,0-.41-.06-.6-.24-1.48-.5-2.97-.77-4.45-.52-2.99-1.7-5.7-3.61-8.08-.11-.15-.26-.24-.47-.52-.34-.36-.65-.73-1.01-1.07-2.64-2.52-5.78-3.96-9.43-4.19-3.7-.22-7.01.9-9.89,3.22-2.95,2.38-4.82,5.48-5.69,9.16-.8,3.4-.69,6.83.11,10.21.62,2.56,1.66,4.94,3.27,7.03.52.69,1.05,1.38,1.8,2.02.84.8,1.72,1.53,2.79,2.21M467.12,280.51c.26.73.39,1.51.84,2.23,1.07-.36,2.09-.71,3.14-1.07.99-.34,2-.69,2.99-1.05,1.01-.37,2.08-.62,3.01-1.12,0-.13,0-.22-.02-.28-1.31-4.04-2.64-8.1-3.95-12.14-.92-2.82-1.8-5.67-2.71-8.51-.21-.62-.19-1.14.15-1.72.47-.82.97-1.63,1.63-2.3,1.72-1.76,3.76-2.86,6.43-2.75.19.06.37.11.64.28.58.34.95.82,1.29,1.38.58.97.99,2.04,1.31,3.12,1.5,4.99,3.22,9.89,4.88,14.83.11.32.26.64.37,1.1.36.99.64,2,1.08,3.01.19-.06.32-.07.45-.13,2.77-1.03,5.52-2.04,8.28-3.07.13-.06.22-.17.36-.26-.11-.32-.21-.6-.32-.88-.94-2.71-1.91-5.4-2.82-8.14-1.22-3.65-2.39-7.31-3.59-10.98-.52-1.59-1.16-3.1-2.02-4.54-.39-.67-.88-1.31-1.33-1.96-.11-.17-.26-.28-.54-.37-.28-.34-.52-.73-.86-1.01-2.62-2.21-5.61-3.03-8.98-2.28-4.26.95-7.48,3.4-10.1,6.9-.09.02-.19.06-.39,0-.04-.09-.09-.19-.09-.36-.02-.07-.07-.09-.22-.22-.19-.28-.36-.56-.56-.9-.32.09-.6.17-.88.26-2.23.8-4.47,1.57-6.71,2.47.47,1.59.9,3.1,1.35,4.62,2.04,6.79,3.89,13.63,6.15,20.35.56,1.68,1.14,3.35,1.66,5.09.04.07.07.13.11.37M386.51,247.52c-.34-.02-.69-.04-1.22-.09-1.83-.22-3.65-.49-5.5-.62-.06.34-.13.58-.15.84-.11,1.2-.19,2.41-.3,3.61-.17,2.19-.36,4.36-.52,6.55-.21,2.45-.41,4.88-.62,7.33-.19,2.15-.36,4.28-.52,6.43-.19,2.34-.39,4.66-.6,6.99-.21,2.38-.41,4.73-.6,7.11-.11,1.38-.19,2.79-.36,4.28-.04.71-.22,1.4-.13,2.11,1.16.3,8.96,1.22,9.78,1.16.04-.06.11-.13.11-.19,1.12-14.91,2.23-29.81,3.33-44.72,0-.11-.02-.22-.06-.37-.84-.17-1.68-.36-2.54-.3l-.13-.13M370.34,264.43c.06-.67.13-1.35.17-2.04,0-.17.09-.39-.21-.45-.15.13-.32.28-.49.43-3.16,2.94-6.32,5.85-9.48,8.79-.3.28-.67.49-.79.95.82,1.05,1.66,2.08,2.49,3.1,1.98,2.49,3.96,4.96,5.97,7.42.19.24.34.58.77.65.04-.22.09-.41.09-.58.09-1.2.19-2.41.28-3.61.17-2.19.36-4.38.52-6.55.22-2.64.43-5.27.67-8.12M367.38,294.24c.07.13.15.26.28.47.36-.6.32-1.07.28-1.51-.54-.14-1.01-.15-1.42-.04.26.34.5.65.86,1.08h0Z"/>
          <path class="cls-1" fill="#FFFFFF" d="M166.38,285.56c-.97.26-1.96.5-2.94.8-4.9,1.42-9.78,2.86-14.68,4.3-.15.04-.28.07-.47.11-1.18-.67-2.36-1.35-3.57-2.06-1.7.6-3.4,1.18-5.12,1.8-.06,1.01.43,1.89.47,2.9-.19.09-.36.22-.56.28-4.28,1.5-8.57,2.97-12.83,4.47-.13.06-.28.07-.41.11-.37-.24-.32-.62-.39-.94-.79-3.35-1.55-6.7-2.32-10.04-1.7-7.39-3.4-14.79-5.11-22.2-1.16-5.01-2.32-10.01-3.48-15.02-.02-.11-.02-.22-.04-.39.19-.09.37-.21.58-.28,1.65-.58,3.27-1.14,4.92-1.72.24-.09.49-.19.77-.3-.02-.95-.43-1.83-.52-2.84.13-.07.26-.19.43-.26,4.39-1.51,8.77-3.05,13.17-4.56.15-.06.3-.07.5-.13.09.28.21.54.28.84,1.07,4.71,2.13,9.43,3.2,14.14.06.26.15.5.24.8.45-.3.6-.73.79-1.1.28-.58.69-.95,1.35-1.08.56-.11,1.08-.37,1.63-.47.67-.11,1.05-.5,1.35-1.08.43-.84.97-1.63,1.38-2.47.32-.62.75-.95,1.42-1.14,3.52-1.01,7.03-2.08,10.53-3.1.47-.13.94-.28,1.38-.43.09-.52-.34-.88-.26-1.35.09-.04.19-.13.3-.13,4.92-.56,9.84-1.12,14.76-1.68.15,0,.3,0,.5.04.71,2.06,1.44,4.11,2.21,6.34.28-.73.5-1.29.75-1.87,1.29-.26,2.64-.13,3.98-.3.71-1.59,1.08-3.29,1.8-4.92,3.24-.17,6.43-.36,9.67-.52.88,1.61,1.53,3.25,2.38,4.79,1.05.13,3.85.11,4.81-.04.43-1.61.54-3.31.99-4.97.8-.07,1.55-.04,2.3-.06.71,0,1.44,0,2.15-.02.75,0,1.5.02,2.3-.07,0-.58,0-1.1.02-1.63.11-2.08.88-3.89,2.32-5.39.86-.88,1.87-1.51,3.07-1.87.22-.06.43-.13.69-.22l.49-.97c1.2-2.26,2.99-3.76,5.55-4.26,2.26-.45,4.28.15,6.06,1.55,1.76,1.38,2.79,3.25,3.18,5.46.45,2.6-.07,4.96-1.74,7.03-.09.11-.15.24-.22.34.21.26.45.15.65.17.26.02.52,0,.79,0,.22,0,.43,0,.69-.04.32-2.52.21-5.03.47-7.57.94-.06,1.81.15,2.69.24.86.09,1.72.21,2.64.3.28-.95.13-1.89.21-2.81.07-.94.13-1.87.19-2.81.95-.11,11.09,1.03,14.81,1.66.02.22.07.49.06.73-.21,3.74-.43,7.46-.64,11.2-.17,2.9-.34,5.82-.5,8.71,0,.24,0,.49.02.8.45-.09.65-.37.9-.58,2.38-2.11,4.73-4.23,7.11-6.34.15-.13.3-.24.41-.37.3-.36.67-.43,1.12-.37,1.76.26,3.52.49,5.27.73,2.54.36,5.09.71,7.63,1.05,1.27.17,2.54.34,3.82.52.17.02.34.11.6.19-.8.95-1.7,1.7-2.54,2.51-.86.84-1.76,1.66-2.62,2.51-.84.8-1.7,1.63-2.54,2.43s-1.7,1.61-2.54,2.43c-.84.8-1.7,1.63-2.54,2.43-.88.84-1.76,1.66-2.62,2.51-.84.82-1.74,1.57-2.54,2.51,1.12,1.68,2.26,3.31,3.4,4.96l3.42,4.94,3.42,4.94,3.42,4.94c1.14,1.65,2.26,3.29,3.44,4.99-.36.21-.64.09-.92.04-1.7-.32-3.4-.65-5.12-.97-1.29-.24-2.6-.5-3.89-.75-.11-.02-.22,0-.39.02.36.88.97,1.55,1.46,2.3.52.79,1.08,1.55,1.61,2.34.49.75,1.08,1.42,1.48,2.28-.84-.02-18.16-3.29-19.47-3.67-1.18-1.61-2.38-3.25-3.59-4.9-.45-.62-.9-1.22-1.33-1.83-.21-.3-.47-.49-.82-.54-.62-.09-1.25-.22-1.94-.36-.07,1.1-.13,2.11-.21,3.12-.07.97,0,1.94-.17,2.92-.86-.02-13.43-2.36-14.57-2.71-.13-1.55.24-3.12.11-4.73-.52-.28-1.08-.15-1.7-.17-.13.94.06,1.83.09,2.71.04.86.11,1.72.07,2.64-1.31.15-2.54-.11-3.78-.15-1.22-.04-2.41-.13-3.63-.21-1.25-.07-2.49-.13-3.74-.21-1.2-.07-2.39-.04-3.65-.24-.43-5.72-.71-11.37-1.16-17.13-.3.32-.32.64-.39.94-.79,3.16-1.53,6.3-2.32,9.46-.09.39-.21.79-.34,1.23-1.48.09-2.9-.02-4.38.06-.09.26-.21.49-.26.73-.32,1.25-.62,2.49-.92,3.74-.06.21-.15.41-.24.64h-9.87c-.36-.22-.45-.62-.62-.95-1.42-2.84-2.84-5.69-4.26-8.51-.17-.36-.3-.75-.69-1.08-.49.99-.73,1.98-1.08,2.92-.36.95-.67,1.91-1.01,2.9-1.37.11-2.67.24-4.04.36-.65,1.55-1.07,3.16-1.7,4.77-1.59.24-3.2.3-4.81.43-1.63.13-3.24.26-5.03.39-.28,0-.39,0-.49-.09-.21-1.05-.62-1.93-1.07-2.84-.77.22-1.48.43-2.34.67,1.16.88,2.32,1.5,3.44,2.28.04.09.04.13.04.19h-.11c-.19.07-.3.15-.39.21M244.57,278.68c0-.39.13-.79.06-1.27.17-3.46.32-6.92.49-10.38,0-.32-.09-.69.24-.84.09.11.19.22.28.36,3.01,4.11,6,8.25,9.01,12.36.24.34.52.64.8,1.1.13.19.28.36.39.56.34.56.79.82,1.44.94,1.78.28,3.55.65,5.33.99,1.7.32,3.4.65,5.11.99.39.07.43.07.97-.07-.13-.19-.24-.37-.37-.56-4.54-6.58-9.09-13.17-13.65-19.73-.17-.24-.37-.47-.58-.88,0-.11-.04-.24,0-.3.19-.22.41-.45.62-.65,3.67-3.5,7.31-6.98,10.98-10.47.32-.32.62-.65,1.07-1.03.02-.04.04-.07.21-.17.15-.17.32-.34.6-.58.6-.6,1.2-1.18,1.94-1.85.06-.15.04-.28-.13-.32-.22-.04-.47-.06-.86-.11-.17,0-.32,0-.64-.09-.47-.06-.95-.11-1.57-.24-.28-.02-.56-.04-.99-.11-.22,0-.45-.02-.8-.13-.28-.02-.56-.04-1.03-.09-1.8-.22-3.57-.56-5.31-.69-.36.3-.64.54-.92.8-3.52,3.14-7.03,6.28-10.55,9.43-.34.3-.69.56-1.1.88-.02-.37-.04-.64,0-1.07.04-.41.07-.82.09-1.23.19-3.57.36-7.14.54-10.72.09-1.87.22-3.76.34-5.63.11-1.96.21-3.91.3-5.87,0-.26,0-.5-.02-.84-.95-.06-1.81-.36-2.9-.32-2.3-.39-6.06-.79-6.88-.69-.28,5.22-.5,10.45-.75,15.69-.24,5.2-.5,10.4-.73,15.62-.22,5.24-.52,10.45-.69,15.69.45.24.86.28,1.4.39,1.22.22,2.41.45,3.63.67.84.15,1.68.26,2.67.47.26.04.54.06.92.21.3.07.6.22.99-.19M204.68,274.56c.22-1.03.45-2.04.75-3.2,0-.09.02-.19.13-.39,0-.13.02-.26.09-.52,0-.09.02-.21.13-.39,0-.13.02-.26.09-.52,0-.09,0-.21.13-.43,1.72-7.05,3.44-14.1,5.16-21.15.28-1.12.52-2.26.84-3.53.17-.64.39-1.27.45-2.02-.32-.02-.56-.07-.82-.07-2.19,0-4.36.04-6.55.06-.15,0-.3.04-.64.02h-1.48c-.24,0-.5.07-.73.11-1.05,5.83-2.09,11.58-3.14,17.34,0,.04-.11.07-.22.15-.11-.19-.22-.36-.34-.69-2.43-5.07-4.88-10.14-7.31-15.2-.19-.41-.43-.8-.73-1.35-.58-.07-1.16-.04-1.91.11-.45.02-.92.06-1.55.02-.79.07-1.55.15-2.51.21-.19,0-.39.02-.47.24-.17.47-.34.92-.49,1.38-1.81,5.31-3.61,10.62-5.42,15.93-.06.15-.15.28-.28.5-.17-.32-.3-.56-.39-.95-.62-1.78-1.22-3.57-1.83-5.35-.62-1.81-1.23-3.65-1.89-5.44-.64-1.76-1.16-3.57-1.87-5.37-.54.09-1.01.17-1.63.24-.04,0-.09.04-.3,0-.37.07-.77.13-1.35.19-2.3.24-4.62.49-6.99.8.19.5.32.94.49,1.35,3.4,8.49,6.81,16.98,10.21,25.49.41,1.01.84,2.02,1.25,3.18.26.62.43,1.27.84,1.87,2.23-.21,4.43-.32,6.66-.54.39-1.16.77-2.24,1.16-3.35,1.89-5.48,3.76-10.96,5.78-16.44.04.02.07.06.17.22,2.56,5.14,5.12,10.29,7.69,15.41.19.37.41.71.62,1.23.36.79.67,1.57,1.2,2.3,1.2,0,2.39,0,3.78.06.24,0,.49-.04.88,0,.09,0,.21-.04.5,0,.47,0,.94.07,1.46-.09.09-.41.19-.84.36-1.4M223.72,229.12c-.26-.32-.58-.58-.95-.77-1.81-.92-3.57-.79-5.22.39-1.5,1.08-2.24,2.64-2.3,4.45-.06,1.76.52,3.31,1.91,4.66.43.32.82.67,1.27.94.9.5,1.89.75,2.94.64,2.06-.24,3.5-1.38,4.21-3.29.92-2.43.37-4.66-1.31-6.62-.11-.13-.32-.15-.56-.37M218.91,276.53c.09,0,.21,0,.47.06.34.04.67.07,1.01.09,2.49.15,4.97.28,7.46.41.13,0,.26-.07.39-.11v-.84c-.22-3.85-.47-7.69-.71-11.54-.07-1.29-.15-2.56-.24-3.85-.21-3.16-.41-6.34-.6-9.5-.17-2.75-.32-5.5-.49-8.27,0-.15-.06-.28-.11-.49-.8-.06-1.59-.11-2.58-.06-2.15-.02-4.3-.06-6.45-.07-.24,0-.5.06-.75.09.15,2.56.3,5.05.45,7.54.26,3.98.54,7.99.8,11.97.19,2.94.36,5.87.54,8.81.07,1.12.17,2.26.21,3.55.06.62.09,1.23.15,1.85,0,.17.09.26.41.3M140.42,274.68s.09-.04.22.06c4.38,2.54,8.75,5.09,13.11,7.65.47.28.88.3,1.38.15,3.52-1.05,7.03-2.06,10.53-3.09.24-.07.47-.19.79-.32-.34-.24-.58-.41-.82-.56-1.12-.69-2.24-1.37-3.46-2.17-4.3-2.71-8.58-5.44-12.89-8.15-.58-.36-1.16-.69-1.78-1.2-.06-.37.22-.64.37-.92,1.33-2.41,2.67-4.81,4.02-7.22,2-3.55,3.98-7.11,5.98-10.66.15-.26.41-.52.32-.95-.19.06-.32.09-.45.13-1.66.49-3.33.95-4.99,1.46-.09.04-.19.11-.45.19-1.33.39-2.67.79-4,1.18-.74.21-1.29.65-1.66,1.33-2.56,4.49-5.12,8.96-7.69,13.45-.19.32-.37.62-.6.99-.13-.32-.24-.56-.32-.99,0-.07,0-.15-.04-.22-1.51-6.75-3.03-13.52-4.54-20.27-.04-.13-.13-.26-.19-.56-.07-.32,0-.69-.37-.92-3.05,1.05-6.12,2.06-9.18,3.2.04.24.04.43.07.62.19.8.37,1.61.56,2.43,2.6,11.33,5.2,22.67,7.82,33.98.26,1.1.54,2.19.8,3.48.11.52.19,1.05.34,1.55.15.49.09,1.05.52,1.48,2.97-1.05,5.93-2.09,8.88-3.14.06-.02.09-.11.17-.19-.04-.22-.07-.49-.13-.75-.41-1.8-.84-3.61-1.23-5.4-.41-1.83-.8-3.68-1.12-5.52M157.98,262.74c-.24-.6-.47-1.2-.71-1.8-.24-.6-.47-1.2-.71-1.78-.24-.56-.41-1.18-.77-1.72-.64.79-4.6,7.85-4.88,8.7.71.62,10.27,6.66,11.13,7.05,0-.04.06-.07.06-.09-1.35-3.4-2.69-6.79-4.11-10.36h0Z"/>
          <path class="cls-1" fill="#FFFFFF" d="M297.57,287.94c.15.52.26.95.36,1.31-.07.11-.07.15-.11.19-.02.02-.06.06-.09.06-4.06,1.31-8.12,2.62-12.17,3.91-.13.04-.28.07-.5.11-.11-.24-.22-.47-.3-.71-2.04-6.75-4.08-13.52-6.1-20.27-1.89-6.25-3.76-12.51-5.65-18.76-.13-.43-.22-.86-.37-1.37.3-.13.56-.26.84-.36,1.65-.54,3.31-1.07,4.96-1.59.21-.07.41-.15.65-.24,0-1.05-.62-1.94-.69-2.94.77-.41,9.15-3.12,11.11-3.61.13.11.28.22.41.32.07-.02.17-.02.22-.07.58-.49,1.12-1.01,1.74-1.46,2.56-1.85,5.4-2.82,8.58-2.71h.69c.07-.39-.17-.65-.28-.95-.92-2.43-.86-4.82.28-7.14.97-2,2.52-3.37,4.71-3.95.15-.04.28-.09.47-.15.15-.32.32-.65.49-.99,1.01-1.91,2.49-3.35,4.58-3.98,2.6-.8,5.03-.32,7.13,1.42,2.02,1.68,3.07,3.89,3.22,6.51.09,1.55-.13,3.09-.3,4.64-.26,2.39-.58,4.81-1.1,7.16-.19.8-.43,1.61-.77,2.36-.5,1.08-1.4,1.65-2.62,1.66-.49,0-.88-.11-1.23-.43-.19-.17-.41-.3-.65-.47-.49,1.87-.56,3.76-1.8,5.29.09.26.17.5.24.75.84,2.62,1.7,5.24,2.49,7.87,1.81,5.97,3.59,11.93,5.37,17.9.11.39.22.79.36,1.23-1.1.52-2.24.75-3.35,1.14-1.07.37-2.17.62-3.24,1.1.28.97.56,1.93.84,2.92-1.42.6-2.9.95-4.32,1.44-1.42.49-2.88.94-4.32,1.38-1.44.43-2.84.97-4.38,1.35-.3-.97-.6-1.91-.9-2.88-.9.07-1.68.45-2.51.69-.79.22-1.57.5-2.34.77-.11.58.22,1.01.32,1.57M316.38,237.67c.04.41.09.82.13,1.23.09,1.08.17,2.17.24,3.25.04.47.07.94.36,1.38.56-.32.58-.86.69-1.29.41-1.65.71-3.29.94-5.16.15-1.31.34-2.62.45-3.93.09-1.05.22-2.11.07-3.16-.22-1.4-.69-2.69-1.91-3.76-.3-.24-.58-.49-.9-.69-2.09-1.35-4.71-.99-6.4.82-1.78,1.93-2.09,5.14-.39,7.44.64.99,1.57,1.48,2.71,1.65.64.09,1.27.17,1.91.22.3.04.6.04.9.02.49,0,.77.24.9.69.09.36.21.73.28,1.27M310.06,278.02c.15.41.15.88.52,1.25.32-.11.64-.22,1.12-.34,2.08-.67,4.17-1.33,6.25-2,.24-.07.45-.21.71-.34-.26-.9-.5-1.72-.77-2.54-1.96-6.49-3.91-13-5.87-19.49-.58-1.93-1.33-3.78-2.28-5.54-.58-1.05-1.16-2.11-2.11-3.09-.22-.24-.45-.5-.69-.75-3.14-2.92-6.73-3.74-10.77-2.21-2.49.94-4.38,2.64-5.83,4.84-.21.3-.3.69-.69.88-.37-.65-.75-1.31-1.16-2.04-1.2.3-2.34.67-3.46,1.07-1.12.37-2.32.62-3.38,1.18.09.39.19.71.28,1.05,3.1,10.34,6.21,20.68,9.31,31.01.09.32.24.64.34,1.12.3.95.5,1.96.95,2.9.19-.06.34-.07.47-.11,2.45-.77,4.88-1.55,7.33-2.34.13-.04.22-.17.32-.24-1.46-4.9-2.92-9.72-4.38-14.57-.88-2.92-1.76-5.85-2.64-8.77-.09-.32-.22-.62-.09-.99.75-2.13,2.06-3.76,4.17-4.68,1.01-.45,2.08-.67,3.31-.34.84.43,1.4,1.12,1.81,1.96.5,1.01.92,2.06,1.25,3.14,1.27,4.26,2.56,8.53,3.83,12.77.52,1.74,1.07,3.46,1.59,5.35.19.54.37,1.08.58,1.81l-.02.02Z"/>
        </g>
        <path class="cls-1" fill="#FFFFFF" d="M408.54,267.96c1.89.28,3.52,2.45,3.68,4.13-3.48.54-6.96.97-10.51,1.51-.09-.43.11-.73.19-1.18.11-.3.15-.49.24-.71.09-.19.15-.3.26-.47.21-.26.34-.49.49-.69,1.08-1.51,2.56-2.38,4.43-2.56.41-.04.82,0,1.23-.02l-.02-.02Z"/>
        <path class="cls-1" fill="#FFFFFF" d="M443.29,261.55c1.18.8,2.04,1.87,2.56,3.27-.36.11-.65.24-.97.32-2.97.8-5.95,1.61-9.05,2.45-.17.04-.21.04-.24.06-.22-.17-.11-.39-.06-.73.22-.75.36-1.38.6-1.96.97-2.23,3.7-4.54,7.14-3.4h.02Z"/>
      </g>
    </g>
  </g>
</svg>