<?xml version="1.0" encoding="utf-8"?>
<!-- Generator: Adobe Illustrator 26.5.0, SVG Export Plug-In . SVG Version: 6.00 Build 0)  -->
<svg version="1.1" id="Layer_1" xmlns="http://www.w3.org/2000/svg" xmlns:xlink="http://www.w3.org/1999/xlink" fill="#FFFFFF" x="0px" y="0px"
	 viewBox="0 0 595.28 841.89" style="enable-background:new 0 0 595.28 841.89;" xml:space="preserve">
<g>
	<path fill="#FFFFFF" d="M353.88,478.07c-59.16,0-118.32,0-177.48-0.02c-0.93,0-1.66,0.23-2.39,0.81c-11.07,8.78-23.67,13.79-37.74,15.05
		c-35.69,3.19-67.99-19.66-76.86-54.35c-8.19-32.04,7.5-66.26,37.25-81.29c12.44-6.28,25.62-8.89,39.49-7.61
		c14.15,1.31,26.78,6.49,37.83,15.44c0.76,0.61,1.49,0.9,2.48,0.9c77.8-0.05,155.6-0.07,233.4-0.09
		c23.48-0.01,46.96-0.02,70.44-0.03c16.68-0.01,33.36-0.02,50.04-0.01c8.17,0,14.57,5.36,16.01,13.39c0.18,1.02,0.2,2.07,0.2,3.11
		c0.01,26.08,0.01,52.16,0,78.24c0,8.48-5.39,14.91-13.64,16.29c-1.06,0.18-2.15,0.16-3.23,0.16
		C471.08,478.08,412.48,478.07,353.88,478.07z M352.95,474.18c59.08,0,118.15,0,177.23,0c7.18,0,12.45-5.24,12.46-12.38
		c0.01-26.24,0.01-52.48-0.01-78.71c0-1.03-0.1-2.09-0.34-3.08c-1.39-5.71-6.14-9.24-12.39-9.24c-63.92,0.03-127.83,0.06-191.75,0.1
		c-21.12,0.01-42.24,0.05-63.35,0.06c-32.56,0.02-65.12,0.01-97.67,0.08c-2.28,0-4.06-0.58-5.88-2.02
		c-15.81-12.48-33.74-16.99-53.57-13.6c-15.6,2.67-28.76,10.02-39.19,21.88c-14.12,16.04-19.58,34.81-16.31,55.92
		c2.53,16.3,10.23,29.93,22.83,40.57c15.14,12.79,32.71,18.12,52.44,16.07c12.8-1.33,24.24-6.11,34.28-14.17
		c1.29-1.04,2.59-1.51,4.25-1.51C234.96,474.19,293.96,474.18,352.95,474.18z"/>
	<path fill="#FFFFFF" d="M92.91,393.69c-0.19,0.27-0.41,0.53-0.56,0.82c-4.76,9.07-9.27,18.26-12.82,27.89c-0.91,2.47-1.52,5.05-2.22,7.6
		c-0.08,0.3,0.11,0.8,0.35,1.03c1.53,1.46,2.17,3.06,1.08,5.07c-0.22,0.41-0.31,0.9-0.46,1.36c-0.89,2.7-2.28,3.44-5.08,2.67
		c-0.96-0.26-1.91-0.58-2.83-0.95c-1.8-0.73-2.62-2.6-2.02-4.45c0.43-1.32,0.86-2.65,1.26-3.98c0.2-0.67,0.53-1.09,1.29-1.18
		c1.44-0.16,2.44-0.72,2.68-2.42c0.18-1.32,0.76-2.6,1.29-3.84c2-4.7,4.03-9.39,6.1-14.05c3.22-7.25,6.37-14.56,10.77-21.18
		c2.86-4.3,6.28-8.23,9.46-12.32c0.37-0.47,0.79-0.9,1.17-1.36c0.1-0.12,0.13-0.28,0.34-0.75c-0.58,0.33-0.93,0.47-1.21,0.68
		c-4.27,3.18-8.12,6.81-11.63,10.81c-4.45,5.07-8.22,10.57-10.84,16.81c-0.48,1.14-0.89,2.31-1.33,3.46
		c-0.06,0.15-0.17,0.3-0.16,0.44c0.39,3.19-1.76,5.58-2.62,8.38c-0.37,1.21-1.07,2.33-1.47,3.53c-0.17,0.51-0.11,1.24,0.13,1.72
		c0.4,0.8,0.57,1.47,0.1,2.32c-0.46,0.83-0.78,1.74-1.14,2.62c-0.68,1.64-1.79,2.32-3.51,1.87c-2.01-0.52-4.01-1.18-5.29-3
		c-0.24-0.34-0.35-0.96-0.21-1.34c0.56-1.53,1.21-3.03,1.89-4.52c0.15-0.34,0.56-0.78,0.86-0.78c0.96-0.01,1.3-0.57,1.62-1.32
		c1.4-3.3,2.74-6.63,4.28-9.86c2.51-5.25,4.4-10.8,7.72-15.68c3.63-5.34,7.66-10.31,12.44-14.65c5.99-5.44,12.48-10.17,20.13-13.08
		c5.33-2.03,10.9-2.61,16.56-2.6c7.38,0.02,14.51,1.4,21.4,4.01c2.16,0.82,4.23,1.86,6.12,2.71c1.74-1.02,3.36-1.96,5.25-3.06
		c0.25,2.05,0.53,3.65,0.63,5.26c0.07,1.14,0.4,1.83,1.39,2.63c2.92,2.34,5.82,4.77,8.35,7.51c4.68,5.07,8.36,10.85,10.97,17.28
		c2.04,5.02,3.43,10.2,4.03,15.58c0.84,7.42,0.25,14.73-1.77,21.92c-2.22,7.89-5.89,15.06-11.12,21.37c-1.25,1.5-0.87,3.1-0.57,4.52
		c0.66,3.12,0.49,6.27,0.71,9.4c0.12,1.72,0.05,1.72,1.41,2.62c-1.51,0.4-3.06,0.24-4.56,0.24c-0.06-0.17-0.09-0.23-0.08-0.24
		c1.64-1.12,0.99-2.73,0.94-4.22c-0.02-0.59,0-1.19,0-1.88c-0.46-0.06-0.8-0.12-1.14-0.15c-0.93-0.1-1.44,0.2-1.29,1.26
		c0.11,0.74,0.11,1.49,0.16,2.24c-0.12-0.07-0.24-0.14-0.36-0.21c-0.49,0.56-1.12,1.04-1.45,1.68c-0.99,1.88-2.96,2.24-5.08,2.09
		c-0.62-0.04-1.25,0.02-1.86-0.05c-0.77-0.09-1.52-0.26-2.49-0.43c-1.13,1.43-3.13,1.77-4.9,1.64c-2.23-0.16-4.69-0.27-6.38-2.26
		c-0.73-0.86-2.37-0.85-3.14-0.06c-2.63,2.68-7.07,2.28-9.29-0.8c-0.26-0.37-0.88-0.68-1.33-0.67c-1.37,0.03-2.65-0.25-3.97-0.59
		c-1.38-0.36-2.89-0.24-4.35-0.27c-0.93-0.01-0.77,0.78-0.94,1.38c-0.44,1.51-0.71,3.17-1.54,4.44c-2.71,4.13-9.14,3.74-11.58-0.72
		c-0.92-1.68-1.52-1.62-2.79-0.25c-1.39,1.5-3.16,2.4-5.33,2.11c-4.26-0.58-7.04-3.67-8.05-7.51c-0.08-0.32-0.57-0.71-0.9-0.75
		c-1.38-0.15-2.78-0.17-4.27-0.24c0-1.68-0.05-3.31,0.01-4.93c0.08-1.82,0.37-3.64,0.38-5.46c0.02-2.08,1.48-3.85,3.55-3.98
		c1.6-0.1,3.19-0.21,4.79-0.26c0.92-0.03,1.51-0.3,1.92-1.23c0.94-2.1,2.03-4.14,3.08-6.24c-0.26-0.2-0.42-0.36-0.61-0.48
		c-0.95-0.59-1-1.67,0.04-2.09c1.76-0.7,3.58-1.47,5.43-1.63c2.65-0.23,5.35,0.02,8.02,0.17c0.7,0.04,1.36,0.49,2.05,0.72
		c0.29,0.1,0.6,0.22,0.9,0.21c1.28-0.07,2.27,0.31,2.76,1.65c0.88-0.25,1.74-0.4,2.53-0.73c2.74-1.14,5.51-1.12,8.32-0.34
		c0.23,0.06,0.5,0.2,0.69,0.12c2.7-1.05,5.44,0.06,8.16-0.17c1.03-0.08,2.08,0.05,3.11,0.12c0.68,0.04,0.94-0.18,0.82-0.91
		c-0.11-0.66-0.01-1.36-0.13-2.03c-0.14-0.8,0.33-1.12,0.9-1.01c0.4,0.08,0.94,0.59,1,0.98c0.15,0.93,0.05,1.9,0.05,2.79
		c0.29,0.13,0.39,0.2,0.5,0.22c1.75,0.2,1.72,0.19,2.2-1.58c0.38-1.41,0.6-2.94,1.33-4.16c1.88-3.18,2.54-6.58,2.47-10.19
		c-0.13-6.91-0.33-13.82-0.35-20.72c-0.01-2.86,0.38-5.72,0.62-8.58c0.4-4.73,0.81-9.46,1.23-14.19c0.26-3.02,0.46-6.04,0.84-9.04
		c0.18-1.43-0.23-2.33-1.46-3.04c-5.65-3.26-11.7-5.36-18.16-6.28c-6-0.85-11.97-0.61-17.97,0.21c-2.4,0.33-3.91,1.84-5.51,3.31
		c-1.96,1.81-4.03,3.55-5.73,5.59c-1.75,2.1-3.23,4.45-4.6,6.83c-4.21,7.29-7.4,15.01-9.28,23.24c-1.38,6.04-1.66,12.15-1.09,18.31
		c0.15,1.65,0.17,3.32,0.07,4.97c-0.11,1.91-0.02,2.34,1.72,3.19c0.71,0.35,0.84,0.78,0.81,1.5c-0.12,2.39-0.19,4.79-0.24,7.19
		c-0.03,1.43-0.38,2.16-1.77,2.34c-1.88,0.25-3.81,0.32-5.71,0.21c-1.21-0.07-1.97-0.7-1.89-2.21c0.12-2.35,0.08-4.72,0.06-7.07
		c-0.01-1.2,0.4-2.07,1.53-2.56c0.66-0.28,0.91-0.77,0.9-1.51c0-1.56-0.03-3.13,0.19-4.66c0.78-5.43-0.1-10.98,1.21-16.36
		c0.93-3.82,2-7.61,3.02-11.42c0.18-0.67,0.43-1.33,0.64-2C93.1,393.78,93.01,393.74,92.91,393.69z M173,447.35
		c0.18,0.04,0.35,0.09,0.53,0.13c7.2-10.65,10.02-22.52,8.78-35.26c-1.21-12.55-6.62-23.26-15.7-32.09
		c-0.18,0.52-0.19,0.99-0.17,1.46c0.12,4.59,0.25,9.19,0.35,13.78c0.18,8.11,0.36,16.22,0.52,24.32c0.14,7.28,0.28,14.55,0.38,21.83
		c0.01,1,0.21,1.63,1.35,1.64c0.24,0,0.64,0.18,0.68,0.35c0.24,0.87,0.89,0.76,1.53,0.76c0.55,0,1.1,0,1.75,0
		C173,445.38,173,446.37,173,447.35z M105.1,466.77c0.77,0,1.34-0.08,1.88,0.01c3.45,0.57,5.93-0.58,7.27-3.93
		c0.35-0.88,1.1-1.12,2.05-1.1c1.84,0.05,3.68,0,5.51-0.04c2.16-0.05,2.17-0.08,2.34-2.16c0.01-0.07,0.09-0.13,0.09-0.13
		c10.84-0.5,21.64-1,32.41-1.5c0-0.66,0-1.12,0-1.44c-3.04,0-5.99,0-8.96,0c-0.06-0.86,0.2-2.05-0.28-2.59
		c-0.44-0.49-1.67-0.27-2.72-0.38c0,1.24,0,2.28,0,3.53c-2.62,0-5.09,0-7.56,0c-0.77,0-1.11-0.27-1.1-1.13
		c0.03-1.67-0.11-3.35-0.14-5.03c-0.03-1.5-0.01-2.99-0.01-4.54c0.31,0,0.5,0,0.69,0c2.72,0.03,5.43,0.06,8.15,0.11
		c1.13,0.02,1.28-0.64,1.22-1.57c-0.05-0.83,0.2-1.66-1.17-1.67c-2.07-0.03-4.14-0.3-6.21-0.39c-1.23-0.05-2.52-0.17-3.67,0.16
		c-0.83,0.24-1.47,0.38-2.25,0.02c-0.54-0.24-1.12-0.41-1.7-0.51c-2.75-0.49-5.25,0.31-7.74,1.42c-0.89,0.4-1.21,0.79-1.15,1.74
		c0.16,2.63,0.26,5.26,0.33,7.89c0.05,2.07,0.01,4.14,0.01,6.51c-2.21,0-4.35,0-6.5,0c-1.05,0-1.96,0.19-2.38,1.36
		c-0.09,0.25-0.51,0.55-0.78,0.55c-2.26,0.04-4.53,0.02-6.93,0.02C105.57,463.56,105.34,465.09,105.1,466.77z M159.18,432.15
		c0,2.11-0.01,4.06,0,6.01c0.01,1.56,0.01,3.12,0.09,4.67c0.01,0.29,0.37,0.56,0.57,0.83c0.16-0.27,0.44-0.54,0.45-0.8
		c0.01-2.92-0.02-5.84-0.05-8.75c-0.05-4.43-0.1-8.86-0.17-13.3c-0.01-0.71,0.29-0.98,0.95-1.08c1.17-0.17,2.34-0.41,3.57-0.63
		c0.05,0.46,0.11,0.85,0.12,1.24c0.06,2.88,0.14,5.75,0.17,8.63c0.02,1.76,0.08,3.53-0.11,5.27c-0.33,3.01-0.83,6.01-1.3,9.01
		c-0.14,0.92,0.17,1.24,1.13,1.07c0.42-2.96,0.82-5.88,1.26-8.8c0.79-5.18,0.11-10.37,0.07-15.55c-0.04-5.54-0.37-11.09-0.59-16.63
		c-0.12-3.03-0.19-6.06-0.47-9.08c-0.29-3.04-0.85-6.06-1.23-9.1c-0.42-3.32-0.76-6.65-1.13-9.97c-0.22-1.93-0.42-3.86-0.66-5.78
		c-0.18-1.45-0.42-2.89-0.64-4.43c-0.25,0.12-0.5,0.19-0.5,0.25c0.12,2.24,0.27,4.49,0.42,6.84c-0.49,0.17-1.02,0.36-1.63,0.57
		c0-2.32,0-4.48,0-6.65c-0.85-0.04-1.12,0.3-1.1,1.08c0.06,1.6,0.01,3.2,0.03,4.8c0.01,0.68-0.01,1.26-0.87,1.43
		c-0.25,0.05-0.44,0.4-0.84,0.8c0.74,0.06,1.16,0.09,1.65,0.13c0,3.22,0.02,6.41-0.04,9.6c-0.01,0.31-0.52,0.67-0.86,0.9
		c-0.44,0.29-0.96,0.48-1.44,0.71c0.06,0.17,0.11,0.34,0.17,0.51c0.69-0.11,1.38-0.23,2.2-0.36c0,3.32,0,6.62,0,9.95
		c-0.97,0.73-2.58,0.41-3.36,1.59c0.06,0.14,0.11,0.27,0.17,0.41c1.1-0.3,2.2-0.59,3.41-0.92c0,3.44,0.02,6.68-0.04,9.91
		c-0.01,0.31-0.44,0.76-0.78,0.89c-0.85,0.33-1.75,0.49-2.62,0.77c-0.21,0.07-0.35,0.34-0.52,0.51c0.25,0.1,0.53,0.31,0.76,0.27
		c1.05-0.17,2.09-0.41,3.29-0.65c0,3.69,0,7.27,0,10.88c-1.09,0.76-2.83,0.17-3.79,1.39c0.04,0.14,0.08,0.28,0.12,0.41
		c1.25-0.22,2.49-0.45,3.88-0.7c0,3.71,0,7.27,0,10.93c-0.88,0-1.65-0.06-2.4,0.02c-0.49,0.05-0.96,0.31-1.44,0.47
		c0.47,0.14,0.94,0.36,1.42,0.4C157.31,432.2,158.14,432.15,159.18,432.15z M114,366.92c-0.08-0.12-0.17-0.23-0.25-0.35
		c-1.96,1.18-4.09,2.15-5.84,3.59c-2.21,1.82-4.11,4-6.12,6.05c-5.34,5.45-9.72,11.62-13.14,18.43c-3.13,6.22-6.04,12.56-8.93,18.9
		c-1.32,2.89-2.35,5.9-3.51,8.86c0.8,0.32,1.46,0.58,2.18,0.87c0.2-0.43,0.43-0.84,0.59-1.28c3.14-8.41,7.08-16.44,11.03-24.48
		c4.81-9.79,10.96-18.59,18.93-26.06C110.6,369.89,112.32,368.42,114,366.92z M114.99,451.2c0-1.46,0-2.73,0-4.16
		c-2.49,4.21-1.92,8.59-1.84,12.68c3-0.2,5.85-0.38,8.72-0.57c0-0.45,0.01-0.68,0-0.92c-0.14-4.06-0.28-8.12-0.41-12.19
		c-0.02-0.72-0.06-1.43-0.07-2.15c-0.02-0.97-0.64-1.3-1.47-1.37c-0.52-0.04-1.04,0.02-1.56-0.03c-0.24-0.02-0.64-0.15-0.69-0.31
		c-0.32-1.06-1.18-0.94-1.96-0.96c-1.91-0.03-3.83,0.11-5.72-0.07c-2.02-0.2-3.88,0.21-5.7,0.93c-0.37,0.15-0.68,0.47-1.29,0.92
		c6.09,0.59,11.83,1.15,17.7,1.72c0,1.63,0.06,3.38-0.05,5.12c-0.02,0.38-0.61,1-1,1.05C118.16,451.09,116.65,451.11,114.99,451.2z
		 M146.79,468.02c0-2.17,0-4.21,0-6.38c-5.2,0.15-10.19,0.3-15.08,0.45c0,2.2,0,4.25,0,6.51
		C136.88,468.41,141.85,468.21,146.79,468.02z M107.33,461.65c1.58-0.08,3.08-0.11,4.58-0.27c0.22-0.02,0.52-0.62,0.53-0.96
		c0.05-2.24-0.01-4.47,0.04-6.71c0.02-0.91-0.41-1.08-1.16-1.06c-2.79,0.07-5.57,0.1-8.36,0.2c-3.1,0.11-6.21,0.25-9.31,0.47
		c-1.21,0.09-2.03,0.86-2.63,2.24c1.02,0,1.8,0,2.59,0c3.95-0.03,7.91-0.07,11.86-0.07c1.38,0,1.56,0.28,1.59,1.63
		C107.1,458.58,107.23,460.04,107.33,461.65z M72.42,417.99c0.07-0.08,0.21-0.19,0.26-0.32c1.31-3.28,2.59-6.57,3.94-9.84
		c0.39-0.95,0.09-1.56-0.67-2.01c-0.54-0.32-1.16-0.54-1.77-0.69c-0.78-0.19-1.33,0.06-1.66,0.91c-0.76,1.96-1.62,3.89-2.42,5.84
		c-0.61,1.48-1.18,2.98-1.73,4.39C69.83,416.89,71.1,417.43,72.42,417.99z M168.76,445.02c0,3.24,0,6.32,0,9.41c1.38,0,2.55,0,3.7,0
		c0-2.25,0.06-4.38-0.03-6.51c-0.04-0.97-0.05-2.37-0.64-2.78C171.11,444.65,169.81,445.02,168.76,445.02z M88.95,436.62
		c1.77,0.29,3.43,0.56,5.35,0.87c0-1.85-0.03-3.63,0.02-5.41c0.02-0.82-0.24-1.3-1.08-1.4c-1.1-0.13-2.19-0.26-3.29-0.39
		c-0.71-0.08-1.02,0.24-1.01,0.96C88.96,433,88.95,434.75,88.95,436.62z M155.28,433.19c0,3.46,0,6.86,0,10.27c1.13,0,2.07,0,3.05,0
		c0-3.46,0-6.83,0-10.27C157.27,433.19,156.28,433.19,155.28,433.19z M154.88,419.3c0.74-0.19,1.27-0.38,1.81-0.44
		c0.95-0.11,1.35-0.5,1.29-1.54c-0.1-1.63-0.03-3.27-0.02-4.9c0-0.97,0-1.94,0-2.99c-1.15,0.26-2.11,0.48-3.08,0.7
		C154.88,413.18,154.88,416.16,154.88,419.3z M158.06,430.27c0-3,0-5.9,0-8.95c-0.85,0.2-1.64,0.42-2.45,0.56
		c-0.68,0.12-0.78,0.5-0.75,1.11c0.09,1.55,0.13,3.1,0.17,4.66c0.02,0.94,0,1.88,0,2.96C156.19,430.47,157.08,430.38,158.06,430.27z
		 M157.91,397.73c-0.88,0.33-1.66,0.6-2.41,0.93c-0.21,0.09-0.45,0.38-0.47,0.59c-0.17,2.61-0.3,5.21-0.45,7.98
		c1.09-0.29,1.98-0.49,2.83-0.78c0.22-0.07,0.47-0.45,0.47-0.69C157.92,403.14,157.91,400.51,157.91,397.73z M72.53,429.61
		c-0.54,1.83-1.09,3.53-1.52,5.25c-0.08,0.33,0.15,0.98,0.42,1.12c0.68,0.36,1.47,0.6,2.23,0.72c0.3,0.05,0.86-0.29,0.97-0.58
		c0.57-1.52,1.06-3.07,1.49-4.64c0.08-0.28-0.17-0.9-0.41-0.99C74.72,430.13,73.68,429.91,72.53,429.61z M114.62,445.89
		c-0.08-0.16-0.15-0.32-0.23-0.48c-0.95,0.16-2.37-0.02-2.77,0.53c-1.34,1.87-2.33,4-3.56,6.25c1.49,0,2.69,0.03,3.87-0.02
		c0.28-0.01,0.72-0.27,0.8-0.51C113.4,449.74,114,447.81,114.62,445.89z M68.65,423.86c0.14-0.17,0.21-0.22,0.24-0.28
		c0.48-1.05,0.97-2.09,1.43-3.15c1.05-2.45,0.8-2.92-1.87-3.3c-0.31-0.05-0.88,0.23-1,0.51c-0.64,1.41-1.19,2.86-1.72,4.31
		c-0.08,0.23,0.06,0.75,0.24,0.83C66.82,423.19,67.72,423.5,68.65,423.86z M156.46,446.48c0-0.14,0.08-0.41-0.01-0.59
		c-0.52-0.99-1.33-1.51-2.49-1.5c-1.15,0.01-2.25,0.25-3.31-0.8c-0.49-0.48-2.01-0.41-2.76-0.01c-0.79,0.42,0.17,2.84,1.16,2.87
		C151.49,446.53,153.96,446.48,156.46,446.48z M115.32,470.91c-0.26,2.44,1.4,3.63,3.57,3.01c1.74-0.49,3.29-3.04,3.21-4.62
		c-0.06-1.18-0.56-2.08-1.47-2.73c-0.28-0.2-0.78-0.08-1.18-0.1c0.1,0.35,0.1,0.8,0.33,1.03c1.04,1.07,1.09,2.88,0.03,4.13
		c-0.62,0.74-2.16,0.66-3.29-0.12C116.2,471.27,115.8,471.14,115.32,470.91z M92.01,429.58c0-1.86,0-3.71,0-5.56
		c0-0.72-0.15-1.27-1.06-1.2c-0.84,0.07-1.77,0.02-1.78,1.24c-0.02,1.82-0.01,3.64-0.01,5.53
		C90.09,429.58,91.03,429.58,92.01,429.58z M155.39,395.6c0.71-0.22,1.29-0.36,1.82-0.59c0.28-0.12,0.67-0.42,0.67-0.64
		c0.05-2.54,0.03-5.09,0.03-7.73c-1.33,0.2-2.01,0.52-1.97,1.82c0.04,1.18-0.27,2.37-0.37,3.56
		C155.48,393.15,155.45,394.29,155.39,395.6z M162.24,454.33c0-1.51-1.2-3.36-2.18-3.34c-1.04,0.02-2.19,1.46-2.2,2.75
		c-0.01,1.5,0.96,2.55,2.37,2.55C161.52,456.29,162.23,455.59,162.24,454.33z M153.06,465.86c-0.32,2.04-0.14,3.04,0.59,3.99
		c0.66,0.86,2.57,1.15,3.25,0.5c1.17-1.12,1.46-4.31,0.51-5.62c-0.87-1.19-2.41-1.33-3.14-0.42c0.74,0.47,1.78,0.8,2.15,1.48
		c0.32,0.59-0.03,1.63-0.31,2.39c-0.13,0.35-0.81,0.49-1.24,0.73c-0.32-0.6-0.65-1.2-0.96-1.81c-0.07-0.13,0.03-0.36-0.05-0.46
		C153.68,466.4,153.43,466.21,153.06,465.86z M76.51,430.2c0.54-1.85,1.11-3.61,1.52-5.41c0.07-0.32-0.49-1.04-0.87-1.13
		c-0.49-0.12-1.46,0.06-1.59,0.37c-0.7,1.7-1.2,3.49-1.79,5.31C74.72,429.65,75.54,429.9,76.51,430.2z M71.3,425.3
		c0.53-1.22,1.07-2.44,1.6-3.67c0.67-1.55,0.54-1.88-1.09-2.84c-0.6,1.42-1.21,2.83-1.78,4.25C69.51,424.33,69.72,424.71,71.3,425.3
		z M163.74,463.71c0.1,0.13,0.2,0.26,0.3,0.39c0.2,0,0.39-0.02,0.59,0c1.05,0.13,1.88,0.94,1.87,1.83
		c-0.02,1.01-0.68,1.57-1.83,1.83c-0.43,0.09-0.78,0.56-1.16,0.86c0.52,0.27,1.05,0.78,1.57,0.76c1.43-0.05,2.7-1.78,2.62-3.34
		c-0.08-1.56-1.52-3-3.03-2.95C164.35,463.1,164.05,463.5,163.74,463.71z M76.84,431.05c-0.58,1.88-1.04,3.6-1.66,5.27
		c-0.4,1.07,0,1.43,1.01,1.65c0.58-1.57,1.11-3.11,1.71-4.61C78.3,432.34,77.87,431.73,76.84,431.05z M157.7,375.4
		c-0.21-0.02-0.42-0.04-0.64-0.06c-0.26,2.86-0.51,5.72-0.77,8.6c1.12,0,1.48-0.46,1.4-1.42c-0.07-0.83,0.01-1.68,0.01-2.51
		C157.71,378.47,157.7,376.93,157.7,375.4z M154.38,443.27c0-2.45,0-4.73,0-7.02c-0.1-0.01-0.19-0.01-0.29-0.02
		c-0.45,2.38-0.91,4.75-1.39,7.3C153.49,443.41,153.95,443.34,154.38,443.27z M106.47,458.91c-0.59-0.69-0.9-1.37-1.38-1.54
		c-0.67-0.23-1.6,0.85-1.57,1.73c0.03,0.72,0.37,1.5,1.18,1.3C105.29,460.24,105.74,459.54,106.47,458.91z M90.72,459.18
		c-0.03,0.88,0.34,1.39,1.18,1.35c0.98-0.04,1.08-0.9,1.12-1.57c0.05-0.68-0.41-1.02-1.17-1.01
		C90.93,457.96,90.66,458.43,90.72,459.18z"/>
	<path fill="#FFFFFF" d="M117.36,425.95c-1.75,0-3.31-0.05-4.87,0.02c-0.92,0.04-1.16-0.3-1.14-1.17c0.04-2.28-0.01-4.55-0.03-6.83
		c0-0.38-0.05-0.76-0.34-1.22c-1.12,1.8-2.24,3.59-3.47,5.56c-1.22-1.92-2.35-3.71-3.48-5.5c-0.12,0.02-0.25,0.04-0.37,0.05
		c0,2.98,0,5.96,0,9.14c-2.05,0-3.83,0.03-5.61-0.05c-0.2-0.01-0.51-0.64-0.52-0.98c-0.06-2.36-0.06-4.71-0.06-7.07
		c-0.01-3.76-0.02-7.51-0.03-11.27c-0.01-1.69,0.08-1.58,1.69-1.83c2.87-0.44,4.75,0.48,5.86,3.24c0.54,1.34,1.53,2.5,2.46,3.96
		c1.03-1.66,2.16-3.08,2.85-4.68c0.94-2.16,2.37-2.88,4.66-2.68c2.44,0.21,2.44,0.06,2.43,2.51c-0.01,5.79-0.01,11.59-0.02,17.38
		C117.36,424.95,117.36,425.38,117.36,425.95z"/>
	<path fill="#FFFFFF" d="M200.98,413.17c-0.39-1.16,0.04-1.56,1.21-1.65c2.05-0.16,2.05-0.23,2.05-2.31c0-5.48,0-10.96,0-16.44
		c0-0.43,0-0.86,0-1.31c-0.77-0.12-1.4-0.3-2.03-0.28c-1.17,0.03-1.35-0.56-1.06-1.71c1.6,0,3.26,0,4.92,0c2.89,0,2.9,0,3.97,2.74
		c1.82,4.64,3.64,9.29,5.46,13.93c0.14,0.36,0.32,0.7,0.59,1.3c1.16-3.12,2.23-5.97,3.29-8.84c1-2.69,2.02-5.38,2.96-8.09
		c0.29-0.83,0.72-1.08,1.56-1.05c2.19,0.06,4.39,0.02,6.56,0.02c0.4,1.51,0.36,1.56-1.01,1.69c-0.55,0.05-1.09,0.16-1.68,0.25
		c0,6.67,0,13.26,0,19.93c0.6,0.08,1.15,0.23,1.69,0.22c1.09-0.02,1.62,0.34,1.24,1.6c-3.4,0-6.85,0-10.32,0
		c-0.29-1-0.15-1.64,1.09-1.62c0.51,0.01,1.02-0.15,1.62-0.25c0-5.54,0-11.01,0-16.49c-0.08-0.03-0.16-0.06-0.25-0.08
		c-0.16,0.37-0.33,0.73-0.47,1.11c-1.96,5.31-3.92,10.63-5.89,15.94c-0.28,0.75-0.35,1.54-1.57,1.55c-1.19,0.01-1.44-0.61-1.77-1.47
		c-2.08-5.4-4.2-10.78-6.3-16.17c-0.15-0.39-0.34-0.76-0.72-1.1c0,1.01,0,2.02,0,3.03c0.02,4.08,0.09,8.16,0.02,12.24
		c-0.02,1.14,0.32,1.61,1.42,1.61c0.16,0,0.32,0.08,0.47,0.07c1.13-0.04,1.38,0.55,1.1,1.62
		C206.44,413.17,203.71,413.17,200.98,413.17z"/>
	<path fill="#FFFFFF" d="M124.9,404.69c0,2.49,0,4.87,0,7.48c1.88,0,3.61,0.03,5.33-0.05c0.19-0.01,0.49-0.65,0.49-1c0.05-2.11,0.02-4.22,0.02-6.5
		c1.83,0,3.53-0.02,5.23,0.03c0.2,0.01,0.43,0.35,0.57,0.59c0.09,0.15,0.04,0.39,0.04,0.59c0.05,6.15,0.09,12.3,0.17,18.46
		c0.01,1.07-0.27,1.51-1.42,1.43c-1.42-0.1-2.86-0.02-4.54-0.02c0-1.83,0-3.57,0-5.31c0-0.48,0.01-0.96,0.02-1.44
		c0.02-0.75-0.3-1.09-1.08-1.07c-1.24,0.03-2.48,0.04-3.72-0.01c-0.92-0.03-1.17,0.39-1.14,1.24c0.07,1.8,0.04,3.6,0.11,5.39
		c0.03,0.89-0.21,1.32-1.2,1.28c-1.51-0.07-3.03-0.02-4.75-0.02c0-7.03,0-14,0-21.06C120.94,404.69,122.8,404.69,124.9,404.69z"/>
	<path fill="#FFFFFF" d="M376.1,413.2c-0.38-1.24,0.11-1.65,1.21-1.63c0.51,0.01,1.01-0.13,1.58-0.22c0-3.14,0-6.2,0-9.32c-3.24,0-6.43,0-9.71,0
		c0,3.08,0,6.17,0,9.1c0.77,1.06,3.15-0.58,2.83,2.06c-3.48,0-6.93,0-10.48,0c0-0.42,0-0.87,0-1.45c0.68-0.07,1.4-0.08,2.08-0.26
		c0.32-0.08,0.81-0.48,0.81-0.74c0.05-6.39,0.04-12.78,0.04-19.31c-0.99-0.14-1.92-0.27-2.93-0.41c0-0.46,0-0.92,0-1.46
		c3.46,0,6.91,0,10.44,0c0,0.48,0,0.93,0,1.45c-0.93,0.13-1.83,0.25-2.81,0.39c0,2.9,0,5.77,0,8.73c3.2,0,6.41,0,9.76,0
		c0-2.76,0.01-5.5-0.02-8.24c0-0.18-0.28-0.45-0.49-0.53c-0.37-0.13-0.79-0.2-1.18-0.19c-1.19,0.05-1.47-0.52-1.14-1.63
		c3.43,0,6.89,0,10.44,0c0,0.47,0,0.92,0,1.46c-0.93,0.12-1.86,0.25-2.9,0.39c-0.02,0.53-0.07,0.99-0.07,1.46
		c0,5.68,0.03,11.35-0.03,17.03c-0.01,1.24,0.36,1.75,1.59,1.7c0.46-0.02,0.93,0.11,1.44,0.17c0,0.52,0,0.94,0,1.44
		C383.06,413.2,379.6,413.2,376.1,413.2z"/>
	<path fill="#FFFFFF" d="M350.29,411.35c0.21,2,0.09,2.17-1.67,2.36c-3.01,0.32-3.56,0.12-7.22-2.66c-0.29,0.23-0.6,0.48-0.91,0.72
		c-3.03,2.31-6.39,2.69-9.84,1.29c-4.07-1.64-5.16-6.72-2.19-9.95c1.04-1.12,2.38-1.96,3.46-2.83c-0.63-1.48-1.54-2.97-1.91-4.58
		c-0.77-3.32,0.84-5.75,4.14-6.52c1.69-0.4,3.42-0.38,5.05,0.36c2.97,1.34,3.69,4.96,1.33,7.22c-1.13,1.09-2.51,1.92-3.91,2.96
		c2.11,2.28,4.25,4.61,6.7,7.26c0.96-2.49,1.81-4.69,2.71-7.02c-0.82-0.17-1.35-0.37-1.89-0.38c-1.14-0.02-1.35-0.58-1.05-1.59
		c2.45,0,4.91,0,7.37,0c0.31,1.03,0.05,1.59-1.06,1.58c-1.1-0.01-1.57,0.55-1.97,1.61c-0.87,2.3-1.99,4.5-3.05,6.81
		C345.79,409.9,347.51,411.6,350.29,411.35z M333.17,401.17c-2.14,1.54-2.7,3.58-2.41,5.86c0.26,2.03,1.49,3.42,3.46,4
		c2.22,0.65,4.27,0.23,6.18-1.22c-2.21-2.64-4.33-5.16-6.45-7.69C333.7,401.82,333.45,401.52,333.17,401.17z M335.67,398.61
		c1.74-1.52,3.33-3.05,3.22-5.59c-0.07-1.76-1.16-2.83-2.89-2.81c-1.65,0.02-2.79,1.2-2.91,2.87
		C332.94,395.37,334.2,396.97,335.67,398.61z"/>
	<path fill="#FFFFFF" d="M324.53,438.27c0.25-0.14,0.44-0.19,0.57-0.32c3.42-3.34,9.86-2.86,11.43,3.9c0.59,2.52,0.51,5-0.44,7.41
		c-1.92,4.9-6.92,6.28-11.07,3.09c-0.05-0.04-0.14-0.03-0.37-0.08c0,1.48,0,2.94,0,4.39c0,0.56,0.01,1.12,0.02,1.68
		c0,1.81-0.01,1.86,1.79,2.14c0.92,0.15,1.3,0.47,0.95,1.47c-3.07,0-6.16,0-9.26,0c-0.28-1.18-0.28-1.18,2.2-1.77
		c0.02-0.42,0.08-0.88,0.08-1.35c0.01-5.83-0.02-11.67,0.02-17.5c0.01-1.14-0.22-1.81-1.54-1.76c-0.36,0.01-0.73-0.39-1.09-0.61
		c0.28-0.36,0.48-0.88,0.85-1.05c1.35-0.6,2.74-1.08,4.12-1.6c1.32-0.49,1.45-0.4,1.63,1.04
		C324.45,437.63,324.49,437.9,324.53,438.27z M332.76,445.27c-0.48-1.76-0.79-3.41-1.4-4.93c-0.6-1.48-1.92-2.07-3.52-1.93
		c-1.96,0.17-3.12,1.42-3.12,3.35c0,2.56-0.01,5.12,0.01,7.68c0,0.41,0.08,0.93,0.33,1.2c1.69,1.77,5.08,1.43,6.2-0.75
		C331.98,448.47,332.27,446.83,332.76,445.27z"/>
	<path fill="#FFFFFF" d="M418.8,397.32c0-2.23,0-4.58,0-7.07c-0.89-0.14-1.78-0.27-2.65-0.41c-0.35-0.9-0.14-1.35,0.83-1.54
		c1.6-0.32,3.19-0.75,4.76-1.17c0.98-0.26,1.34-0.05,1.32,1.06c-0.09,7.47-0.12,14.95-0.17,22.42c0,0.27,0.04,0.55,0.05,0.71
		c0.65,0.84,2.72-0.24,2.21,1.99c-1.98,0.13-3.96,0.26-6,0.39c-0.14-0.72-0.26-1.38-0.36-1.9c-1.22,0.62-2.38,1.49-3.68,1.83
		c-3.09,0.8-6.2-0.74-7.56-3.67c-1.57-3.37-1.58-6.83,0.07-10.18c1.45-2.96,4.49-4.6,7.6-4.01
		C416.45,395.99,417.57,396.76,418.8,397.32z M418.64,404.68c0-1.24,0-2.47,0-3.71c0-1.81-0.61-2.54-2.42-2.86
		c-1.76-0.32-3.35,0.38-4.21,2.03c-1.56,2.99-1.58,6.06-0.1,9.06c1.14,2.3,4,2.88,6,1.27c0.37-0.3,0.67-0.89,0.7-1.37
		C418.7,407.64,418.64,406.16,418.64,404.68z"/>
	<path fill="#FFFFFF" d="M339.19,460.73c0.75-0.17,1.49-0.33,2.36-0.52c0-6.76,0-13.53,0-20.39c-0.63-0.08-1.19-0.09-1.71-0.25
		c-0.3-0.09-0.7-0.42-0.73-0.68c-0.03-0.28,0.25-0.76,0.52-0.87c1.5-0.64,3.05-1.17,4.57-1.78c0.92-0.37,1.38-0.14,1.37,0.89
		c0,0.34,0.07,0.69,0.12,1.16c0.27-0.15,0.44-0.22,0.58-0.33c4.61-3.73,9.81-2.06,11.37,3.67c0.71,2.62,0.57,5.21-0.4,7.75
		c-1.51,3.93-6.57,6.83-11.41,2.76c0,1.31,0,2.47,0,3.64c0,0.64,0,1.28,0.01,1.92c0.01,2.3,0.02,2.26,2.2,2.92
		c0.36,0.11,0.58,0.67,0.86,1.03c-0.09,0.1-0.17,0.21-0.26,0.31c-3.13,0-6.26,0-9.45,0C339.19,461.54,339.19,461.17,339.19,460.73z
		 M353.91,445.22c-0.1-0.03-0.2-0.06-0.29-0.1c-0.03-0.56,0-1.13-0.1-1.67c-0.14-0.78-0.28-1.58-0.57-2.31
		c-1.21-3.01-3.77-3.65-6.44-1.6c-0.34,0.26-0.63,0.83-0.64,1.26c-0.06,2.92-0.04,5.83-0.01,8.75c0,0.36,0.12,0.81,0.36,1.06
		c1.82,1.87,5.19,1.46,6.32-0.89C353.22,448.32,353.47,446.73,353.91,445.22z"/>
	<path fill="#FFFFFF" d="M151.25,412.62c-0.98-0.8-1.74-1.53-2.6-2.09c-0.55-0.35-1.25-0.62-1.88-0.63c-0.5-0.01-1.33,0.31-1.45,0.67
		c-0.15,0.46,0.08,1.32,0.45,1.64c0.93,0.79,2.02,1.41,3.08,2.03c2.34,1.38,3.65,3.34,3.29,6.11c-0.34,2.59-2.5,4.74-5.38,5.22
		c-2.66,0.44-5.32,0.32-7.82-0.93c-0.66-0.33-0.96-0.72-0.93-1.47c0.05-1.43,0.02-2.85,0.02-4.4c0.85,0.41,1.58,0.79,2.33,1.1
		c0.47,0.2,0.98,0.34,1.48,0.45c1.45,0.3,2.81-0.02,2.99-0.81c0.32-1.38-0.9-1.79-1.73-2.41c-1.14-0.85-2.53-1.47-3.45-2.51
		c-2.99-3.35-1.24-8.63,3.34-9.92c2.68-0.75,5.23-0.34,7.47,1.37c0.4,0.3,0.73,0.95,0.75,1.45
		C151.31,409.16,151.25,410.83,151.25,412.62z"/>
	<path fill="#FFFFFF" d="M313.93,398.33c0.13,1.41,0.48,2.73,0.34,3.99c-0.32,2.8-2.66,4.7-5.81,4.89c-1.03,0.06-2.08-0.02-3.09-0.2
		c-0.89-0.16-1.36,0.04-1.57,0.93c-0.21,0.9-0.37,1.78,0.69,2.25c0.38,0.17,0.85,0.21,1.28,0.22c1.72,0.02,3.44,0.01,5.16,0.01
		c0.32,0,0.64-0.01,0.96,0.03c2.61,0.33,4.37,1.65,4.84,3.64c0.52,2.16-0.41,4.54-2.6,5.86c-3.89,2.35-8.1,2.42-12.21,0.82
		c-2.84-1.1-3.06-4.24-0.67-6.15c0.43-0.35,0.92-0.63,1.52-1.03c-1.53-0.77-2.5-1.96-1.93-3.57c0.46-1.31,1.4-2.45,2.18-3.75
		c-1.38-0.92-2.48-2.26-2.55-4.24c-0.12-3.32,1.6-5.61,4.88-6.24c2.29-0.44,4.53-0.28,6.62,0.93c0.35,0.2,0.91,0.23,1.31,0.12
		c0.81-0.21,1.57-0.58,2.35-0.87c1.39-0.52,1.46-0.47,1.47,1.06c0,0.39,0,0.78,0,1.3C315.89,398.33,314.83,398.33,313.93,398.33z
		 M307.72,420.16c1.12-0.25,2.3-0.41,3.41-0.78c1.68-0.56,2.46-1.83,2.18-3.22c-0.27-1.35-1.27-1.99-3.08-2.03
		c-1.99-0.04-3.98-0.11-5.96-0.14c-0.29,0-0.66,0.08-0.85,0.27c-1.54,1.56-0.89,4.52,1.18,5.25
		C305.56,419.85,306.6,419.94,307.72,420.16z M304.07,401.43c0.27,1.02,0.43,1.93,0.75,2.77c0.43,1.12,1.34,1.63,2.54,1.61
		c1.18-0.01,2.08-0.51,2.57-1.61c0.82-1.84,0.88-3.69,0.05-5.55c-0.47-1.06-1.31-1.58-2.44-1.6c-1.12-0.02-2.1,0.33-2.55,1.41
		C304.58,399.43,304.36,400.47,304.07,401.43z"/>
	<path fill="#FFFFFF" d="M293.22,435.78c-0.89,0-1.64,0-2.56,0c-0.2-1.07-0.45-2.15-0.58-3.23c-0.09-0.77-0.49-1.1-1.19-1.26
		c-1.36-0.32-2.69-0.36-3.99,0.23c-2.56,1.16-3.05,4.51-0.78,6.17c1.27,0.93,2.82,1.46,4.22,2.21c1.16,0.61,2.32,1.23,3.43,1.93
		c3.89,2.42,3.87,9.22-1.07,11.4c-4.02,1.77-7.94,1.23-11.8-0.53c-0.28-0.13-0.55-0.58-0.57-0.89c-0.06-1.43-0.03-2.87-0.03-4.4
		c1.06,0,1.9,0,2.85,0c0.19,1.13,0.34,2.27,0.59,3.39c0.08,0.37,0.33,0.9,0.63,1.01c2.08,0.76,4.2,1.03,6.25-0.14
		c2.3-1.31,2.54-4.61,0.38-6.14c-1.06-0.75-2.34-1.17-3.49-1.81c-1.53-0.85-3.15-1.6-4.49-2.69c-3.8-3.08-2.92-9.05,1.59-10.92
		c3.35-1.39,6.7-1.21,9.97,0.39c0.66,0.32,0.97,0.72,0.9,1.48C293.37,433.2,293.31,434.43,293.22,435.78z"/>
	<path fill="#FFFFFF" d="M277.93,413.2c-0.49-2.04,1.43-1.16,2.22-1.96c0-3.13,0-6.44,0-9.75c0-0.28-0.06-0.56-0.02-0.84
		c0.13-0.98-0.29-1.34-1.26-1.39c-0.45-0.02-1.13-0.33-1.26-0.67c-0.31-0.8,0.49-0.93,1.03-1.13c1.42-0.54,2.84-1.07,4.25-1.61
		c0.8-0.31,1.22-0.08,1.24,0.82c0.01,0.59,0.09,1.18,0.16,2.01c0.41-0.37,0.66-0.58,0.9-0.8c1.48-1.41,3.25-2.16,5.28-2.26
		c2.89-0.15,4.92,2.23,4.93,5.83c0.01,2.92,0,5.84,0,8.75c0,0.39,0,0.79,0,1.26c0.71,0.17,1.36,0.32,2.1,0.5c0,0.38,0,0.79,0,1.26
		c-2.87,0-5.73,0-8.66,0c0-0.44,0-0.82,0-1.18c0.1-0.06,0.16-0.13,0.23-0.15c2.04-0.44,2.04-0.44,2.05-2.55
		c0.01-2.48,0.03-4.96,0.03-7.43c0-2.94-1.47-3.99-4.25-3.07c-2.12,0.7-2.48,1.2-2.48,3.42c0,2.64,0.01,5.28,0.02,7.92
		c0,0.43,0.04,0.86,0.06,1.29c0.71,0.17,1.33,0.32,2.02,0.49c0.02,0.39,0.04,0.78,0.07,1.25C283.66,413.2,280.81,413.2,277.93,413.2
		z"/>
	<path fill="#FFFFFF" d="M251.28,411.46c0.79,0.18,1.4,0.33,2.08,0.49c0,0.39,0,0.77,0,1.24c-2.87,0-5.73,0-8.69,0c-0.02-0.37-0.05-0.75-0.08-1.2
		c0.78-0.18,1.51-0.35,2.41-0.56c0-0.66,0-1.33,0-1.99c-0.01-2.84-0.07-5.68-0.01-8.51c0.03-1.15-0.25-1.77-1.5-1.64
		c-0.08,0.01-0.18,0.02-0.24-0.02c-0.31-0.23-0.81-0.44-0.84-0.71c-0.03-0.28,0.32-0.77,0.63-0.9c1.54-0.65,3.12-1.21,4.68-1.81
		c0.76-0.3,1.14-0.04,1.21,0.75c0.06,0.62,0.11,1.24,0.19,2.04c0.36-0.32,0.59-0.51,0.81-0.72c1.22-1.15,2.64-1.94,4.31-2.19
		c3.26-0.5,5.37,1.03,5.79,4.32c0.18,1.38,0.09,2.79,0.11,4.18c0.03,1.96,0.11,3.92,0.03,5.87c-0.05,1.11,0.33,1.62,1.4,1.68
		c0.24,0.01,0.47,0.08,0.79,0.15c0.03,0.38,0.05,0.76,0.09,1.25c-2.95,0-5.84,0-8.71,0c-0.38-0.94-0.06-1.41,0.88-1.44
		c1.14-0.03,1.4-0.63,1.37-1.7c-0.07-2.68,0.02-5.36-0.03-8.03c-0.01-0.74-0.15-1.52-0.44-2.2c-0.19-0.46-0.67-0.92-1.13-1.12
		c-1.21-0.54-4.2,0.43-4.93,1.5c-0.1,0.15-0.18,0.36-0.18,0.55C251.28,404.28,251.28,407.83,251.28,411.46z"/>
	<path fill="#FFFFFF" d="M474.4,413.61c-0.11-1.03-0.21-1.96-0.29-2.76c-1.27,0.83-2.4,1.84-3.71,2.39c-4.1,1.7-7.38-0.55-7.39-4.99
		c-0.01-2.92,0.11-5.84,0.17-8.76c0.01-0.32,0-0.63,0-0.85c-0.62-0.93-2.81,0.09-2.27-2.09c1.84-0.21,3.66-0.4,5.48-0.64
		c0.9-0.12,1.1,0.25,1.08,1.07c-0.09,3.4-0.14,6.8-0.2,10.19c0,0.28-0.01,0.56,0.01,0.84c0.16,2.47,1.77,3.53,4.04,2.58
		c0.8-0.33,1.51-0.88,2.22-1.39c0.22-0.16,0.43-0.52,0.43-0.79c0.03-3.31,0.02-6.63,0.02-9.93c-2.14-0.87-2.14-0.87-2.06-1.86
		c1.86-0.24,3.75-0.52,5.64-0.71c0.89-0.09,0.74,0.64,0.74,1.18c-0.01,4.32-0.04,8.64-0.06,12.96c0,0.44,0,0.87,0,1.37
		c0.71,0.18,1.36,0.34,2.11,0.53c0.03,0.35,0.05,0.73,0.1,1.33C478.44,413.4,476.48,413.5,474.4,413.61z"/>
	<path fill="#FFFFFF" d="M309.58,438.93c-0.66-0.81-2.44,0.08-2.1-1.95c1.87-0.24,3.79-0.53,5.71-0.72c0.78-0.08,0.69,0.6,0.69,1.11
		c-0.03,2.72-0.08,5.43-0.1,8.15c-0.02,2.07,0,4.14,0,6.06c0.76,0.77,2.6-0.06,2.14,2.04c-1.93,0.11-3.9,0.22-5.95,0.33
		c-0.11-0.98-0.22-1.92-0.33-2.86c-0.12-0.1-0.24-0.19-0.36-0.29c-0.13,0.27-0.19,0.65-0.41,0.79c-1.1,0.76-2.16,1.7-3.39,2.13
		c-3.8,1.33-6.76-0.76-6.88-4.8c-0.08-2.67,0.07-5.35,0.11-8.03c0.01-0.68,0-1.35,0-2.15c-0.57-0.14-1.17-0.2-1.69-0.43
		c-0.28-0.12-0.54-0.53-0.58-0.83c-0.03-0.2,0.34-0.62,0.58-0.65c1.66-0.24,3.33-0.38,4.99-0.6c0.86-0.11,1,0.3,0.98,1.05
		c-0.07,3.51-0.12,7.03-0.14,10.55c-0.01,3.18,1.97,4.3,4.75,2.78c1.37-0.74,2.15-1.62,2.03-3.38
		C309.44,444.47,309.58,441.67,309.58,438.93z"/>
	<path fill="#FFFFFF" d="M460.06,411.44c-1.88,3.25-5.32,3.04-7.29-0.28c-0.67,0.56-1.32,1.14-2.02,1.66c-1.8,1.33-4.65,1.28-6.39-0.08
		c-2.36-1.84-2.01-5.74,0.84-7.25c1.99-1.06,4.17-1.78,6.33-2.45c1-0.31,1.3-0.74,1.3-1.71c0.01-2.33-0.73-3.71-2.38-4.03
		c-0.57-0.11-1.21-0.1-1.77,0.03c-0.33,0.08-0.69,0.46-0.82,0.79c-0.21,0.51-0.21,1.09-0.33,1.63c-0.24,1.03-0.71,1.87-1.86,2.11
		c-1.46,0.31-2.57-0.84-2.1-2.26c0.82-2.5,2.92-3.35,5.23-3.82c0.89-0.18,1.83-0.21,2.75-0.19c3.39,0.09,5.45,2.41,5.41,5.99
		c-0.03,2.72-0.03,5.44-0.02,8.16c0.01,1.86,0.43,2.13,2.12,1.51C459.31,411.16,459.67,411.36,460.06,411.44z M452.76,403.9
		c-1.39,0.53-2.53,0.89-3.59,1.4c-1.29,0.62-2.11,1.66-2.24,3.16c-0.12,1.45,0.74,2.58,2.16,2.82c1.14,0.19,3.59-0.91,3.64-1.77
		C452.83,407.74,452.76,405.96,452.76,403.9z"/>
	<path fill="#FFFFFF" d="M405.69,396.22c0.27,0.84,0.11,1.37-0.84,1.39c-0.84,0.02-1.21,0.49-1.5,1.25c-1.97,5.26-3.94,10.54-6.03,15.75
		c-0.75,1.87-1.74,3.68-2.84,5.38c-1.36,2.11-4.2,2.77-6.1,1.45c-0.59-0.41-1.26-1.42-1.13-1.97c0.16-0.66,1.07-1.38,1.79-1.6
		c1.55-0.48,2.76,0.36,3.71,1.65c1.48-1.34,2.34-2.95,2.92-4.7c0.1-0.29-0.03-0.71-0.16-1.02c-2.07-5.1-4.15-10.2-6.28-15.27
		c-0.17-0.4-0.74-0.8-1.19-0.89c-0.9-0.17-1.13-0.57-0.82-1.44c3.02,0,6.04,0,9.08,0c0.32,0.77,0.23,1.26-0.67,1.37
		c-0.63,0.07-1.25,0.17-2.05,0.28c1.35,3.69,2.65,7.25,3.95,10.81c0.11,0.01,0.22,0.02,0.33,0.04c1.27-3.55,2.55-7.11,3.83-10.68
		c-0.97-0.28-1.84-0.5-2.68-0.82c-0.11-0.04-0.04-0.58-0.06-0.98C401.25,396.22,403.46,396.22,405.69,396.22z"/>
	<path fill="#FFFFFF" d="M387.36,445.09c0.21,2.58,0.87,4.71,3.16,5.78c2.69,1.26,5.05,0.44,7.09-1.67c0.35,0.31,0.63,0.57,0.9,0.82
		c-1.7,3.21-4.98,4.66-8.92,3.99c-3.41-0.58-5.99-3.34-6.5-6.95c-0.68-4.77,1.23-8.67,5.09-10.37c1.78-0.78,3.64-0.96,5.51-0.48
		c4.31,1.11,5.29,5.03,4.87,8.21c-0.04,0.27-0.72,0.64-1.11,0.65c-2.88,0.06-5.76,0.03-8.64,0.03
		C388.37,445.09,387.94,445.09,387.36,445.09z M387.23,443.49c0.79,0,1.18,0,1.57,0c1.39,0,2.8,0.12,4.17-0.06
		c0.57-0.07,1.33-0.66,1.54-1.2c0.64-1.61-0.37-3.78-1.89-4.43c-1.52-0.66-3.36,0.02-4.18,1.75
		C387.9,440.71,387.67,442.01,387.23,443.49z"/>
	<path fill="#FFFFFF" d="M413.72,441.03c-0.81,0-1.48,0-2.22,0c-0.14-0.66-0.32-1.27-0.38-1.89c-0.1-0.98-0.67-1.41-1.58-1.42
		c-0.83-0.01-1.76-0.12-2.46,0.21c-0.65,0.31-1.26,1.07-1.51,1.77c-0.32,0.89,0.15,1.75,1.04,2.18c0.93,0.45,1.93,0.75,2.87,1.18
		c1.23,0.55,2.55,1,3.62,1.78c2.54,1.86,2.47,5.75-0.01,7.68c-3.07,2.39-8.26,1.86-10.94,0.33c-0.21-0.12-0.4-0.49-0.41-0.75
		c-0.04-1.11-0.02-2.23-0.02-3.44c0.74,0,1.44,0,2.23,0c0.16,0.8,0.23,1.65,0.51,2.42c0.16,0.43,0.65,1.03,1.02,1.05
		c1.4,0.1,2.84,0.11,4.23-0.09c0.86-0.12,1.38-0.88,1.45-1.84c0.07-0.96-0.21-1.79-1.11-2.2c-1.34-0.61-2.72-1.13-4.09-1.66
		c-1.78-0.68-3.34-1.61-3.92-3.56c-0.93-3.12,1.19-6.1,4.77-6.68c2.18-0.35,4.29-0.11,6.31,0.86c0.63,0.3,0.92,0.65,0.83,1.36
		C413.84,439.19,413.8,440.07,413.72,441.03z"/>
	<path fill="#FFFFFF" d="M482.57,413.21c-0.34-1.04,0.06-1.44,0.98-1.46c1.14-0.02,1.49-0.56,1.48-1.73c-0.05-6.31-0.01-12.62,0-18.93
		c0-0.24-0.02-0.47-0.04-0.83c-0.82-0.14-1.62-0.28-2.46-0.43c-0.36-0.91-0.09-1.36,0.9-1.56c1.52-0.31,3.02-0.74,4.53-1.11
		c1.3-0.32,1.4-0.22,1.4,1.17c-0.02,7.31-0.03,14.62-0.03,21.93c0,0.39,0.04,0.78,0.06,1.2c0.8,0.17,1.53,0.33,2.31,0.51
		c0,0.41,0,0.79,0,1.25C488.66,413.21,485.64,413.21,482.57,413.21z"/>
	<path fill="#FFFFFF" d="M519.69,408.76c0.3,0.24,0.55,0.43,0.86,0.67c-0.96,2.41-2.76,3.79-5.23,4.24c-5.57,1.01-9.9-2.5-10.17-8.17
		c-0.29-6.31,4.21-10.64,10.23-9.76c2.22,0.32,3.96,1.44,4.89,3.58c0.52,1.2,0.24,2.1-0.71,2.55c-1.1,0.51-2.48,0.04-2.9-1.1
		c-0.3-0.81-0.48-1.69-0.61-2.55c-0.11-0.7-0.48-0.92-1.11-1c-1.68-0.19-3.51,0.7-4.35,2.41c-1.35,2.74-1.58,5.62-0.28,8.44
		c1.53,3.33,5.67,4.06,8.46,1.58C519.05,409.38,519.33,409.1,519.69,408.76z"/>
	<path fill="#FFFFFF" d="M360.31,453.52c-0.4-2.11,1.57-1.09,2.35-1.93c0-6.85,0-13.87,0-21.01c-0.76-0.13-1.57-0.27-2.37-0.41
		c-0.33-0.88-0.13-1.35,0.83-1.55c1.6-0.33,3.18-0.76,4.76-1.17c0.92-0.24,1.27-0.01,1.26,1.03c-0.08,7.24-0.08,14.47-0.17,21.71
		c-0.02,1.21,0.26,1.91,1.55,1.92c0.93,0.01,1.21,0.46,0.91,1.42C366.47,453.52,363.45,453.52,360.31,453.52z"/>
	<path fill="#FFFFFF" d="M436.83,413.21c-3.1,0-6.2,0-9.29,0c-0.27-1.17-0.27-1.17,2.12-1.77c0-2.22,0-4.48,0-6.75c0-1.32-0.06-2.64-0.01-3.96
		c0.04-1-0.27-1.52-1.33-1.43c-0.2,0.02-0.43,0.02-0.59-0.07c-0.26-0.16-0.67-0.41-0.66-0.62c0-0.31,0.24-0.78,0.5-0.89
		c1.62-0.68,3.27-1.28,4.91-1.89c0.82-0.3,1.09,0.15,1.15,0.87c0.08,1.01,0.16,2.03,0.26,3.19c0.78-1.06,1.37-2,2.11-2.81
		c0.99-1.1,2.25-1.65,3.76-1.35c0.97,0.19,1.89,0.7,1.95,1.68c0.05,0.77-0.33,1.72-0.83,2.34c-0.65,0.81-1.68,0.64-2.54,0.18
		c-0.58-0.31-1.08-0.8-1.69-1.27c-1.53,1.52-2.73,3.18-2.72,5.48c0.01,2.04,0.06,4.08-0.01,6.11c-0.03,0.94,0.33,1.3,1.2,1.35
		c0.28,0.02,0.55,0.14,0.82,0.16C436.91,411.79,437.17,412.26,436.83,413.21z"/>
	<path fill="#FFFFFF" d="M266.52,399.13c-0.34-0.97,0-1.36,0.81-1.61c1.56-0.48,3.09-1.06,4.64-1.59c1.22-0.41,1.36-0.3,1.36,1.02
		c-0.01,4.43-0.03,8.87-0.04,13.3c0,0.39,0.04,0.79,0.06,1.23c0.7,0.16,1.35,0.31,2.07,0.48c0.02,0.38,0.04,0.76,0.06,1.23
		c-2.94,0-5.79,0-8.75,0c0-0.39,0-0.79,0-1.19c2.3-0.64,2.31-0.64,2.31-3.12c0-2.68-0.05-5.35,0.01-8.03
		c0.03-1.12-0.32-1.64-1.47-1.58C267.24,399.3,266.88,399.18,266.52,399.13z"/>
	<path fill="#FFFFFF" d="M500.6,411.49c0.77,0.17,1.38,0.3,2.09,0.46c0.02,0.38,0.05,0.76,0.08,1.24c-2.96,0-5.85,0-8.8,0c0-0.41,0-0.79,0-1.14
		c0.12-0.07,0.18-0.14,0.25-0.15c2.09-0.42,2.1-0.42,2.1-2.49c0-2.8-0.05-5.59,0.01-8.39c0.03-1.17-0.27-1.83-1.57-1.73
		c-0.31,0.02-0.63-0.1-0.95-0.15c-0.34-0.85-0.13-1.33,0.77-1.6c1.6-0.49,3.18-1.06,4.74-1.64c0.98-0.37,1.29-0.06,1.28,0.94
		c-0.05,4.39-0.06,8.79-0.08,13.18C500.54,410.47,500.58,410.95,500.6,411.49z"/>
	<path fill="#FFFFFF" d="M233.37,399.12c-0.27-0.87-0.09-1.31,0.71-1.56c1.63-0.51,3.24-1.1,4.85-1.69c0.97-0.36,1.29-0.04,1.27,0.97
		c-0.08,4.15-0.12,8.3-0.14,12.45c-0.01,2.19,0.02,2.19,2.21,2.68c0.03,0.35,0.05,0.73,0.09,1.21c-2.95,0-5.84,0-8.79,0
		c0-0.4,0-0.78,0-1.13c0.1-0.07,0.16-0.14,0.23-0.15c2.1-0.44,2.11-0.44,2.11-2.62c0-2.75-0.05-5.51,0-8.26
		c0.02-1.15-0.28-1.84-1.58-1.73C234.01,399.3,233.69,399.18,233.37,399.12z"/>
	<path fill="#FFFFFF" d="M371.83,453.55c-0.35-0.98-0.05-1.45,0.92-1.47c1.05-0.02,1.39-0.55,1.36-1.59c-0.07-3.04-0.07-6.07-0.03-9.11
		c0.02-1.21-0.33-1.89-1.67-1.78c-0.66,0.06-1.14-0.23-0.95-0.97c0.07-0.27,0.42-0.54,0.71-0.65c1.64-0.61,3.3-1.19,4.96-1.76
		c1.04-0.35,1.22-0.18,1.22,0.98c-0.03,4.56-0.05,9.11-0.08,13.67c0,0.28,0.03,0.55,0.04,0.76c0.6,0.79,2.62-0.12,2.07,1.93
		C377.54,453.55,374.72,453.55,371.83,453.55z"/>
	<path fill="#FFFFFF" d="M498.35,387.09c1.49-0.02,2.67,1.05,2.72,2.44c0.05,1.38-1.12,2.55-2.58,2.59c-1.56,0.04-2.77-1.06-2.77-2.51
		C495.72,388.19,496.85,387.11,498.35,387.09z"/>
	<path fill="#FFFFFF" d="M237.93,392.12c-1.47,0-2.67-1.12-2.69-2.49c-0.01-1.42,1.23-2.56,2.76-2.54c1.5,0.02,2.62,1.12,2.6,2.55
		C240.58,391.07,239.45,392.12,237.93,392.12z"/>
	<path fill="#FFFFFF" d="M378.77,429.97c-0.01,1.47-1.09,2.49-2.63,2.48c-1.51-0.01-2.65-1.07-2.66-2.48c-0.01-1.45,1.19-2.58,2.72-2.55
		C377.73,427.45,378.78,428.5,378.77,429.97z"/>
	<path fill="#FFFFFF" d="M271.18,392.12c-1.52,0.02-2.66-1.01-2.7-2.43c-0.04-1.49,1.09-2.6,2.66-2.6c1.49,0.01,2.65,1.09,2.67,2.49
		C273.82,390.97,272.64,392.1,271.18,392.12z"/>
	<path fill="#FFFFFF" d="M124.3,457.91c-0.16-4.08-0.32-8.06-0.49-12.19c2.68,0,5.28,0,8.06,0c0,4.06,0,8.07,0,12.19
		C129.46,457.91,126.97,457.91,124.3,457.91z"/>
	<path fill="#FFFFFF" d="M160.06,418.97c0-3.56-0.01-7.03,0.02-10.49c0-0.23,0.27-0.61,0.49-0.67c1.22-0.34,2.46-0.6,3.77-0.9
		c0.09,0.32,0.21,0.58,0.22,0.83c0.04,3.03,0.04,6.06,0.11,9.09c0.02,0.78-0.2,1.16-1,1.3
		C162.49,418.34,161.35,418.67,160.06,418.97z"/>
	<path fill="#FFFFFF" d="M164.49,405.8c-1.55,0.39-2.92,0.73-4.5,1.12c0-3.71,0-7.21,0-10.88c1.13-0.41,2.42-0.87,4-1.43
		C164.17,398.46,164.33,402.09,164.49,405.8z"/>
	<path fill="#FFFFFF" d="M159.71,395.13c0-3.19,0.03-6.14-0.02-9.08c-0.02-0.87,0.32-1.2,1.1-1.36c0.61-0.13,1.2-0.38,1.82-0.59
		c0.34,3.22,0.66,6.37,1,9.64C162.43,394.16,161.21,394.59,159.71,395.13z"/>
	<path fill="#FFFFFF" d="M161.38,373.21c0.34,3.32,0.68,6.56,1.03,9.95c-0.85,0.27-1.74,0.55-2.82,0.89c0-1.01,0.01-1.84,0-2.66
		c-0.04-2.11-0.03-4.23-0.16-6.34C159.36,373.67,160,373.2,161.38,373.21z"/>
</g>
</svg>
