<?xml version="1.0" encoding="utf-8"?>
<!-- Generator: Adobe Illustrator 27.5.0, SVG Export Plug-In . SVG Version: 6.00 Build 0)  -->
<svg version="1.1" id="Layer_1" xmlns="http://www.w3.org/2000/svg" xmlns:xlink="http://www.w3.org/1999/xlink" fill="#FFFFFF" x="0px" y="0px"
	 viewBox="0 0 1190.6 841.9" style="enable-background:new 0 0 1190.6 841.9;" xml:space="preserve">
<style type="text/css">
	.st0{fill:#FFFFFF;}
</style>
<path fill="#FFFFFF" d="M722.3,380.1c0,16.9,0,33.7,0,50.6c-1.7,0-3.3,0-4.9,0c-0.4-1.3-0.5-51.4-0.1-55.1c0.4-0.1,0.9-0.2,1.4-0.3
	c0.9-0.1,1.9,0,2.8,0c19.2,0,38.3,0,57.5,0c1.3,0,2.6,0,3.9,0.1c4,0.3,7,2.2,9,5.6c0.8,1.4,1.6,2.8,2.3,4.3
	c9.8,20.1,19.6,40.2,29.4,60.3c0.2,0.3,0.3,0.7,0.5,1c0.8,1.8,2.1,2.5,4,2.5c4.2,0,8.4,0.1,12.5-0.1c1.9-0.1,3.4,0.4,4.6,1.9
	c0.8,1,1.7,1.8,2.8,2.9c-0.8,0.1-1.2,0.2-1.7,0.2c-6,0-12,0-18,0c-4.1,0-6.9-1.7-8.7-5.3c-4.3-8.9-8.7-17.8-13-26.7
	c-5.8-12-11.7-24-17.4-36c-2-4.2-5.3-6.1-9.8-6c-6.8,0-13.6,0-20.4,0c-0.7,0-1.3,0-2.4,0c0.7,1.3,1.1,2.2,1.6,3.1
	c0.5,0.8,1.3,0.6,2,0.6c5.2,0,10.4,0,15.5,0c0.7,0,1.4,0,2.1,0c4.2,0,7.1,2,8.9,5.7c5.3,10.9,10.6,21.7,15.9,32.6
	c4.8,9.8,9.5,19.6,14.3,29.4c0.3,0.6,0.5,1.1,0.8,1.7c1.6,2.8,4,4.3,7.2,4.3c2.7,0,5.5,0,8.2,0c5.6,0,11.2,0,16.9,0
	c1.1,0,1.9,0.3,2.6,1.1c1.1,1.2,2.2,2.3,3.6,3.7c-0.6,0.1-1,0.2-1.3,0.2c-10.1,0-20.2-0.1-30.3,0c-5.3,0-8.9-2.3-11.2-6.9
	c-1.7-3.4-3.4-6.8-5-10.2c-8.7-18-17.3-35.9-25.9-53.9c-0.9-1.8-2-3-4.1-3c-5.7,0-11.3,0-17,0c-0.4,0.9,0.2,1.4,0.5,2
	c6.3,12.9,12.5,25.8,18.8,38.6c0.3,0.5,0.5,1.1,0.9,1.9c-1.7,0.2-3.2,0.2-4.8,0.1c-0.4,0-0.8-0.6-1-0.9c-1-2-2.1-4-3-6
	c-5.7-11.9-11.4-23.8-17.2-35.7c-0.5-1.1-1.1-2.1-1.6-3.2c-1.7-3.2-4.4-4.9-8-5c-7.6-0.1-15.1,0-22.7,0
	C722.9,379.9,722.8,380,722.3,380.1z"/>
<path fill="#FFFFFF" d="M323.9,374.2c1.1-0.1,1.7-0.1,2.3-0.1c26.6,0,53.2-0.2,79.8,0.1c12.6,0.1,22,6.2,27.2,17.8c3.2,7.2,3.1,14.8,0,22.2
	c-3.5,8.3-9.8,13.7-18.1,16.7c-2.7,1-5.5,1.3-8.3,1.3c-11.1,0-22.2,0-33.3-0.1c-1.1,0-1.8,0.4-2.5,1.3
	c-9.3,13.2-18.6,26.4-27.9,39.6c-0.9,1.3-1.8,1.8-3.4,1.7c-1.8-0.1-3.6,0-5.6,0c0.2-0.5,0.3-0.7,0.4-0.9c3.2-4.6,6.4-9.2,9.6-13.8
	c4.4-6.3,8.9-12.5,13.3-18.8c3.1-4.4,6.2-8.7,9.2-13.2c1-1.4,2.1-2,3.9-2c11.4,0.1,22.8-0.1,34.3,0c5.2,0,10-1.3,14.4-4
	c2.8-1.7,5.1-4.1,6.7-6.9c2.5-4.2,3.8-8.7,3.5-13.5c-0.8-11.6-9.2-19.5-18.8-21.1c-2.4-0.4-5-0.6-7.4-0.6c-23.9,0-47.8,0-71.7,0
	c-1.7,0-2.9-0.5-3.9-1.7C326.5,377,325.4,375.8,323.9,374.2z"/>
<path fill="#FFFFFF" d="M462.2,396c16.2,0,32.4,0,48.6,0c0.3-2.1,0.3-4,0.1-5.9c-0.1-1-1-1.6-2-1.8c-0.6-0.1-1.2-0.1-1.9-0.1c-14.1,0-28.2,0-42.3,0
	c-0.8,0-1.6,0-2.5,0c0-1.6,0-2.9,0-4.4c0.5-0.1,1.1-0.2,1.6-0.2c15.5,0,31,0,46.4,0c0.4,0,0.9,0,1.3,0.1c2.6,0.2,4.4,1.8,4.5,4.4
	c0.2,4.1,0.1,8.2,0,12.3c0,0.1-0.1,0.2-0.3,0.5c-16,0-32.2,0-48.4,0c-0.1,0.7-0.2,1.1-0.2,1.6c0,5.5,0,11.1,0.1,16.6
	c0,0.8,0.1,1.6,0.2,2.4c0.5,2.2,2.5,4.1,4.8,4.4c0.9,0.1,1.7,0.1,2.6,0.1c14.2,0,28.3,0,42.5,0c0.9,0,1.7,0,2.8,0
	c0-0.8,0.1-1.4,0.1-2c0-12.3,0-24.7,0.1-37c0-4.9-3.2-7.1-7.2-7.1c-13.8,0-27.6,0-41.4,0c-2.6,0-5.1,0-7.7,0c-0.6,0-1.2-0.1-2-0.1
	c0-1.5,0-2.8,0-4.4c0.6-0.1,1.3-0.2,1.9-0.2c16.7,0,33.5,0,50.2,0c1.3,0,2.6,0,3.9,0.2c4.3,0.5,7.4,3.9,7.5,8.2c0.1,2.6,0,5.2,0,7.8
	c0,12.3,0,24.7,0,37c0,0.7,0,1.3,0,2.1c-0.6,0.1-1.1,0.2-1.6,0.2c-17.7,0-35.5,0-53.2,0c-1.7,0-3.3-0.3-4.8-1.2
	c-2.8-1.8-4.1-4.4-4.1-7.7c0-8,0-16.1,0-24.1C462.1,397.3,462.2,396.8,462.2,396z"/>
<path fill="#FFFFFF" d="M333.7,383.6c0.6,0,1.2,0,1.8,0c23.5,0,46.9,0,70.4,0c7.8,0,13.9,3.5,17.7,10.3c5.1,9,1.7,20.4-6.8,25.7
	c-3.5,2.2-7.3,3.1-11.4,3.1c-12-0.1-24,0-36,0c-3.3,0-2.6-0.4-4.5,2.3c-10.5,14.9-21,29.9-31.5,44.8c-1,1.4-2,2.7-3,4
	c-0.3,0.4-0.8,0.8-1.1,0.8c-2.3,0.1-4.6,0-7.3,0c0.5-0.8,0.8-1.4,1.1-1.8c9.4-13.4,18.8-26.7,28.2-40c3.4-4.9,7-9.7,10.4-14.6
	c0.8-1.2,1.7-1.6,3.1-1.5c13.5,0,27.1,0,40.6,0c4.3,0,8-1.3,10.9-4.5c3.7-4.2,4.7-9.1,2.5-14.2c-2.2-5.1-6.2-8.1-11.9-8.2
	c-8.7-0.2-17.5-0.1-26.2-0.1c-13.4,0-26.7,0-40.1,0c-1.2,0-2.1-0.4-2.9-1.3c-1.4-1.5-2.9-2.9-4.3-4.3
	C333.5,383.9,333.6,383.7,333.7,383.6z"/>
<path fill="#FFFFFF" d="M655.8,375.6c0.6-0.1,0.9-0.3,1.2-0.3c4-0.4,4.1-0.3,4.1,3.7c0,12.1,0.1,24.3,0.1,36.4c0,1.6,0,3.2,0.1,4.9
	c0.1,3.1,2.2,5.3,5.4,5.7c0.5,0.1,1,0.1,1.5,0.1c11.4,0,22.7,0,34.1-0.1c0.7,0,1.3-0.1,2.3-0.1c0-16.9,0-33.6,0-50.5
	c1.8,0,3.3,0,5.1,0c0.1,0.7,0.2,1.3,0.2,2c0,17.1,0.1,34.1,0.1,51.2c0,0.7-0.1,1.3-0.1,2.2c-0.8,0-1.4,0-2,0c-14.1,0-28.2,0-42.3,0
	c-1.5,0-3-0.1-4.4-0.7c-3.2-1.2-4.8-3.8-5.2-7.2c-0.1-0.8-0.1-1.6-0.1-2.4c0-14.3,0-28.7,0.1-43
	C655.8,376.9,655.8,376.3,655.8,375.6z"/>
<path fill="#FFFFFF" d="M597.3,380c0,17,0,33.8,0,50.6c-1.7,0.5-3.4,0.1-5.1,0.2c0-18.5,0-36.8,0-55.3c0.8-0.1,1.5-0.2,2.3-0.2
	c15.1,0,30.2,0,45.3,0c1.7,0,3.4,0.1,4.9,0.9c3.2,1.7,4.7,4.3,4.7,7.9c0,10.8,0,21.7,0.1,32.5c0,4,0,8.1,0,12.1
	c0,0.6-0.1,1.2-0.1,1.9c-1.7,0-3.3,0-5.1,0c0-0.7-0.1-1.4-0.1-2.2c0-12.8,0-25.5,0-38.3c0-1.2,0-2.5,0-3.7c0.1-3.7-2.3-6.2-6.2-6.6
	c-0.4,0-0.9,0-1.3,0c-12.4,0-24.7,0-37.1,0C598.8,379.9,598.2,380,597.3,380z"/>
<path fill="#FFFFFF" d="M606.8,388.3c-0.3,4.7,0,9.4,0,14.2c0,4.7,0,9.3,0,14c0,4.7,0,9.4,0,14.2c-1.8,0-3.4,0-4.9,0c-0.5-1.6-0.5-44.9,0-47.1
	c0.6,0,1.2-0.1,1.8-0.1c9.9,0,19.8,0,29.8,0c0.4,0,0.7,0,1.1,0c3.4,0.1,5.2,1.9,5.3,5.3c0.1,13.7,0.1,27.4,0.1,41.1
	c0,0.2-0.1,0.4-0.1,0.7c-1.6,0.4-3.3,0.2-5.2,0.1c0-0.8,0-1.5,0-2.2c0-12,0-23.9,0.1-35.9c0-0.6,0-1.1,0-1.7c-0.1-1.6-1-2.5-2.5-2.7
	c-0.3,0-0.6,0-0.9,0c-7.7,0-15.5,0-23.2,0C607.7,388.2,607.4,388.2,606.8,388.3z"/>
<path fill="#FFFFFF" d="M695.1,417.6c0-7.1,0-14.1,0-21.1c0-7,0-13.9,0-21c1.8-0.5,3.4-0.2,4.9-0.1c0.4,1.5,0.6,44.1,0.2,47
	c-0.4,0.1-0.9,0.2-1.4,0.2c-9.2,0-18.5,0-27.7,0c-0.7,0-1.5,0-2.2-0.2c-1.9-0.6-3.1-1.8-3.4-3.8c-0.1-0.6-0.1-1.2-0.1-1.9
	c0-13,0-26,0.1-39c0-0.7,0-1.3,0-2.2c1.7,0,3.2,0,5,0c0,0.8,0.1,1.5,0.1,2.2c0,11.9,0.1,23.8,0.1,35.7c0,0.6,0,1.1,0,1.7
	c0.1,1.9,0.9,2.7,2.8,2.7c6.8,0,13.6,0,20.4,0C694.2,417.7,694.5,417.6,695.1,417.6z"/>
<path fill="#FFFFFF" d="M772,430.8c-1.8,0-3.1,0.1-4.5,0c-0.5,0-1-0.4-1.3-0.8c-0.6-0.9-1-1.9-1.5-2.8c-5.7-11.9-11.5-23.8-17.1-35.7
	c-1.1-2.4-2.7-3.3-5.3-3.3c-2.9,0.1-5.9,0-8.8,0c-0.5,0-1,0.1-1.7,0.1c-0.1,4.7,0,9.4,0,14c0,4.7,0,9.5,0,14.2c0,4.7,0,9.3,0,14.1
	c-1.7,0.3-3.4,0.2-5,0.1c-0.4-1.6-0.4-44.9,0-47c0.6,0,1.2-0.1,1.8-0.1c4.6,0,9.2,0.1,13.9,0c4.6-0.1,7.6,2.1,9.6,6.1
	c5.6,11.6,11.3,23.2,16.9,34.8C769.9,426.4,770.8,428.4,772,430.8z"/>
<path fill="#FFFFFF" d="M471.8,404.3c14.7,0,29.4,0,44.1,0c0.4,1.4,0.5,16,0.1,18.2c-0.6,0-1.2,0.1-1.8,0.1c-12.2,0-24.5,0-36.7,0
	c-0.9,0-1.9,0-2.8-0.3c-2-0.7-3.2-2.3-3.3-4.4c-0.1-4.4,0-8.7,0-13.1C471.5,404.7,471.6,404.6,471.8,404.3z M476.9,409.2
	c0,1.9,0,3.7,0,5.5c0.1,2.5,0.7,3,3.2,3c9.8,0,19.6,0,29.4,0c0.5,0,0.9-0.1,1.4-0.2c0-2.9,0-5.6,0-8.4
	C499.6,409.2,488.4,409.2,476.9,409.2z"/>
<path fill="#FFFFFF" d="M445.6,345.9c0.6,3.1,0.8,82.9,0.2,84.8c-1.6,0-3.2,0-5,0c-0.1-0.6-0.1-1.1-0.1-1.7c0.1-27,0.2-53.9,0.3-80.9
	c0-0.4-0.1-0.9,0.1-1.3c0.2-0.4,0.6-0.9,1-0.9C443.2,345.9,444.4,345.9,445.6,345.9z"/>
<path fill="#FFFFFF" d="M450.5,345.9c1.5,0,2.6-0.1,3.8,0c0.3,0,0.8,0.5,0.9,0.9c0.2,0.4,0.1,0.9,0.1,1.3c0.1,27,0.2,54,0.3,81c0,0.4,0,0.9-0.1,1.4
	c-1.7,0.4-3.3,0.2-5,0.1C450.5,402.5,450.5,374.4,450.5,345.9z"/>
<path fill="#FFFFFF" d="M534.8,386.8c-2.1,0-3.8,0-5.6,0c0-1.5,0-2.9,0-4.2c1.8-0.5,8.7-0.5,10.9,0.1c0,0.7,0,1.5,0,2.3c0,12.3,0.1,24.5,0.1,36.8
	c0,3.8,0.4,4.2,4.2,4.2c5.2,0,10.4,0,15.5,0c0.8,0,1.6,0.1,2.4,0.1c0,1.6,0,3,0,4.5c-0.6,0.1-1,0.2-1.5,0.2c-6.4,0-12.9,0-19.3,0
	c-1.5,0-3-0.2-4.2-1.2c-1.7-1.3-2.4-3-2.5-5c0-1.4,0-2.9,0-4.3c0-10.3,0-20.7,0-31C534.8,388.6,534.8,387.9,534.8,386.8z"/>
<path fill="#FFFFFF" d="M562.3,417.9c0,1.6,0,3,0,4.5c-0.5,0.1-0.9,0.2-1.3,0.2c-4.6,0-9.2,0-13.9,0c-0.4,0-0.7,0-1.1-0.1c-1-0.1-1.6-0.7-1.7-1.7
	c-0.1-0.5-0.1-1-0.1-1.5c0-11.7,0-23.4,0-35.1c0-0.5,0.1-1,0.1-1.4c1.6-0.6,14.7-0.7,17.5-0.1c0,1.3,0,2.6,0,4.2
	c-4,0.2-8,0-11.9,0.1c-0.1,0.1-0.1,0.1-0.2,0.2c0,0-0.1,0.1-0.1,0.1c0,9.6,0,19.2,0,28.8c0,0.5,0.1,1,0.1,1.6c0.6,0,1.2,0.1,1.8,0.1
	c2.9,0,5.7,0,8.6,0C560.8,417.7,561.5,417.8,562.3,417.9z"/>
<path fill="#FFFFFF" d="M570,375.4c1.6,0,3.1,0,4.6,0c0.5,1.5,0.7,52.3,0.2,55.2c-1.6,0.4-3.3,0.2-4.9,0.1C569.6,429.1,569.6,377.7,570,375.4z"/>
<path fill="#FFFFFF" d="M579.3,375.4c1.8,0,3.2,0,4.7,0c0.5,1.4,0.7,51.8,0.3,55.2c-1.6,0.4-3.2,0.2-5,0.1C579.3,412.3,579.3,394,579.3,375.4z"/>
<path fill="#FFFFFF" d="M775.4,452.3c-0.8,0-1.5,0-2.3,0c-0.1-0.1-0.2-0.2-0.2-0.3c-0.6-2.3-0.7-2.5-3.1-2.5c-2.2,0-4.4,0-6.6,0
	c-0.5,0-1,0.1-1.5,0.2c-1.3,0.3-1.7,0.9-1.6,2.3c0.1,1.2,0.3,1.5,1.8,1.6c0.9,0.1,1.7,0.1,2.6,0.1c2.3,0.1,4.6,0.1,6.9,0.2
	c1.3,0.1,2.5,0.4,3.4,1.3c2.3,2.1,1.4,6.9-1.5,8c-0.8,0.3-1.7,0.4-2.6,0.5c-2.9,0.1-5.7,0-8.6,0c-0.4,0-0.9,0-1.3-0.1
	c-3-0.6-4.2-2.5-3.5-5.7c0.8,0,1.6,0,2.6,0c0.1,0.6,0.1,1.1,0.2,1.5c0.1,1.2,0.4,1.6,1.6,1.6c3.2,0.1,6.4,0.1,9.5,0
	c1.3,0,1.9-1,1.9-2.3c0-1.2-0.5-1.8-1.8-1.9c-1.1-0.1-2.2,0-3.4-0.1c-2.4-0.1-4.9-0.1-7.3-0.4c-2.5-0.3-3.6-1.7-3.7-4.2
	c-0.1-2.6,0.8-4.3,3.2-4.8c4.1-0.8,8.3-0.9,12.4,0.1C775.1,447.8,775.9,449.5,775.4,452.3z"/>
<path fill="#FFFFFF" d="M561.9,375.3c0,1.7,0,3,0,4.4c-5.8,0-11.5,0-17.2,0c-0.6-1.5-0.6-18.4,0-20.8c1.5,0,3,0,4.7,0c0.3,2.7,0.1,5.4,0.2,8
	c0,2.7,0,5.3,0,8.3C553.7,375.2,557.7,375.3,561.9,375.3z"/>
<path fill="#FFFFFF" d="M539.4,463.7c-1.7,0-3.5,0.1-5.2,0c-3.1-0.1-4.9-1.8-5.1-4.9c-0.2-2.4-0.2-4.9,0-7.3c0.2-2.8,2-4.6,4.9-4.7
	c3.7-0.1,7.5-0.1,11.2,0c3,0.1,4.6,1.7,4.8,4.7c0.2,2.5,0.2,5,0,7.4c-0.2,2.9-1.9,4.5-4.8,4.7c-1,0.1-2,0.1-3,0.1
	C541.3,463.7,540.4,463.7,539.4,463.7C539.4,463.7,539.4,463.7,539.4,463.7z M539.6,461C539.6,461,539.6,461,539.6,461
	c1.6,0,3.2,0,4.9,0c1.9-0.1,2.6-0.8,2.6-2.6c0-2,0-4,0-6c0-2.1-0.8-2.9-2.8-2.9c-3.1-0.1-6.2-0.1-9.3,0c-1.9,0-2.8,0.8-2.9,2.7
	c-0.1,2-0.1,4.1,0,6.2c0.1,1.9,0.9,2.7,2.8,2.7C536.5,461,538,461,539.6,461z"/>
<path fill="#FFFFFF" d="M706.9,447c0,5.5,0,10.9,0,16.3c-1.9,0.4-3.6,0.5-5.2-1.1c-3.7-3.8-7.6-7.3-11.5-11c-0.2-0.2-0.4-0.3-0.8-0.6
	c0,4.4,0,8.5,0,12.8c-1.1,0-1.9,0-2.7,0c-0.4-1.3-0.6-13.6-0.2-16.4c1.9-0.4,3.5-0.4,5,1.2c3.4,3.5,7,6.8,10.5,10.1
	c0.5,0.5,1,0.9,1.8,1.7c0-2.5,0-4.6,0-6.6c0-2.1,0-4.2,0-6.4C705,447,705.9,447,706.9,447z"/>
<path fill="#FFFFFF" d="M648.7,463.3c-3.3,1.4-4.1-1.2-5.2-3c-3.8,0-7.5,0-11.3,0c-0.5,0-0.9,0.5-1.4,0.8c-0.1,0.1-0.1,0.2-0.2,0.3
	c-0.7,2.1-2.2,2.6-4.4,2c0.1-0.4,0.2-0.8,0.4-1.1c2.8-4.7,5.6-9.4,8.4-14.1c1.1-1.9,3.7-2,4.8-0.1c2.6,4.4,5.2,8.8,7.8,13.2
	C648.1,461.9,648.4,462.5,648.7,463.3z M633.3,457.3c2.3,0.4,7,0.4,8.2-0.1c-0.9-2.4-3.1-6-4.3-6.9
	C635.9,452.6,634.7,454.9,633.3,457.3z"/>
<path fill="#FFFFFF" d="M598.3,457.4c0,2.2,0,4,0,6c-1,0-1.9,0-3,0c0-5.5,0-10.9,0-16.4c0.5-0.1,1-0.2,1.4-0.2c3.8,0,7.6,0,11.4,0
	c4.1,0,5.5,1.4,5.3,5.6c0,0.6-0.1,1.2-0.2,1.9c-0.2,1.3-1,2.3-2.3,2.6c-0.9,0.2-1.8,0.4-2.8,0.4c-2.6,0.1-5.2,0-7.9,0
	C599.8,457.4,599.2,457.4,598.3,457.4z M598.4,454.7c3.5,0,6.8,0.1,10.1,0c1.5,0,2.1-0.8,2.1-2.3c0.1-1.9-0.6-2.7-2.6-2.8
	c-2.3-0.1-4.6,0-6.9,0c-0.9,0-1.7,0-2.6,0C598.4,451.3,598.4,452.9,598.4,454.7z"/>
<path fill="#FFFFFF" d="M418.8,463.4c0.1-0.4,0.2-0.6,0.3-0.8c2.8-4.8,5.7-9.7,8.6-14.5c0.7-1.2,2.4-1.7,3.7-1.2c0.3,0.1,0.6,0.4,0.8,0.7
	c2.9,4.9,5.8,9.9,8.7,14.8c0.1,0.2,0.2,0.6,0.3,0.8c-3.1,1.4-3.9-1.1-5.1-3c-3.7,0-7.5,0-11.2,0c-0.7,0-1.2,0.3-1.5,0.9
	c-0.1,0.1-0.1,0.2-0.2,0.3C421.8,463.8,421.8,463.8,418.8,463.4z M429.9,450c-1.4,2.6-2.7,4.9-4.2,7.5c2.9,0,5.6,0,8.5,0
	C432.9,454.8,431.5,452.5,429.9,450z"/>
<path fill="#FFFFFF" d="M539.9,358.9c0,7.1,0,13.9,0,20.8c-3.6,0-7,0-10.6,0c-0.4-1.4-0.2-2.8-0.1-4.4c1.8,0,3.6,0,5.6,0c0-0.9,0-1.6,0-2.2
	c0-4,0-8,0-11.9c0-0.7,0.1-1.4,0.2-2.2C536.7,358.9,538.2,358.9,539.9,358.9z"/>
<path fill="#FFFFFF" d="M474.3,447c1.1,0,2,0,2.9,0c0.1,0.6,0.2,1.1,0.2,1.5c0,3.3,0,6.6,0,9.9c0,0.2,0,0.5,0,0.7c-0.2,2.9-1.5,4.3-4.5,4.5
	c-2.7,0.1-5.4,0.1-8,0.1c-0.9,0-1.7,0-2.6-0.1c-2.9-0.2-4.3-1.7-4.3-4.6c0-3.6,0-7.2,0-10.8c0-0.4,0.1-0.7,0.1-1.2
	c0.9,0,1.7,0,2.8,0c0,0.6,0.1,1.2,0.1,1.8c0,3,0,6,0.1,9c0,0.5,0,1,0.1,1.5c0.2,1.4,0.5,1.7,1.9,1.8c0.6,0,1.2,0,1.9,0
	c2.3,0,4.6,0,6.9,0c2,0,2.5-0.6,2.5-2.6c0-3,0-6.1,0-9.1C474.3,448.6,474.3,447.9,474.3,447z"/>
<path fill="#FFFFFF" d="M570.2,367.3c-0.2-4.5,3.8-7.1,6.9-7.1c3.8,0,7,3.2,7,7c0,3.8-3.2,7-7,7C573.4,374.1,570.1,371.1,570.2,367.3z M573.5,367.2
	c0,2,1.7,3.8,3.6,3.8c2,0,3.7-1.7,3.7-3.7c0-2.1-1.7-3.9-3.7-3.8C575.1,363.4,573.5,365.2,573.5,367.2z"/>
<path fill="#FFFFFF" d="M501.5,449.5c-2.6,0-5.1,0-7.7,0c0-1,0-1.7,0-2.6c6.3,0,12.4,0,18.7,0c0,0.8,0,1.5,0,2.5c-2.5,0.3-5,0-7.7,0.2
	c0,4.6,0,9.1,0,13.8c-1.1,0.1-2,0.1-3.1,0.2C501.3,458.8,501.6,454.3,501.5,449.5z"/>
<path fill="#FFFFFF" d="M741.1,447.1c0,0.3,0.1,0.7,0.1,1.1c0,0.4-0.1,0.7-0.1,1.3c-2.5,0-5.1,0-7.8,0c0,4.8,0,9.3,0,13.9c-1.1,0-2,0-3.1,0
	c0-4.7,0-9.2,0-13.9c-2.7,0-5.3,0-7.9,0c0-1,0-1.7,0-2.4C723.9,446.7,739.4,446.7,741.1,447.1z"/>
<path fill="#FFFFFF" d="M664.9,446.9c0.9,0,1.7,0,2.5,0c0.5,1.3,0.7,14.3,0.1,16.5c-0.3,0-0.5,0.1-0.8,0.1c-0.5,0-1.1,0-1.6,0
	C664.6,462.1,664.5,449.5,664.9,446.9z"/>
<path class="st0" fill="#FFFFFF" d="M476.9,409.2c11.4,0,22.6,0,33.9,0c0,2.8,0,5.5,0,8.4c-0.5,0.1-0.9,0.2-1.4,0.2c-9.8,0-19.6,0-29.4,0
	c-2.5,0-3.1-0.6-3.2-3C476.9,412.9,476.9,411.1,476.9,409.2z"/>
<path class="st0" fill="#FFFFFF" d="M539.6,461c-1.6,0-3.1,0-4.7,0c-1.9-0.1-2.8-0.8-2.8-2.7c-0.1-2-0.1-4.1,0-6.2c0.1-1.9,0.9-2.7,2.9-2.7
	c3.1,0,6.2,0,9.3,0c2,0,2.8,0.8,2.8,2.9c0,2,0,4,0,6c0,1.9-0.7,2.6-2.6,2.6C542.8,461,541.2,461,539.6,461
	C539.6,461,539.6,461,539.6,461z"/>
<path class="st0" fill="#FFFFFF" d="M633.3,457.3c1.3-2.4,2.6-4.7,3.9-7c1.2,0.9,3.4,4.5,4.3,6.9C640.3,457.7,635.6,457.7,633.3,457.3z"/>
<path class="st0" fill="#FFFFFF" d="M598.4,454.7c0-1.8,0-3.3,0-5.1c0.9,0,1.8,0,2.6,0c2.3,0,4.6,0,6.9,0c2,0.1,2.7,0.8,2.6,2.8
	c-0.1,1.5-0.6,2.3-2.1,2.3C605.2,454.7,601.9,454.7,598.4,454.7z"/>
<path class="st0" fill="#FFFFFF" d="M429.9,450c1.7,2.5,3,4.8,4.3,7.5c-2.9,0-5.6,0-8.5,0C427.2,454.9,428.5,452.6,429.9,450z"/>
<path class="st0" fill="#FFFFFF" d="M573.5,367.2c0-2,1.7-3.7,3.6-3.7c2.1,0,3.8,1.7,3.7,3.8c0,2-1.7,3.7-3.7,3.7
	C575.1,370.9,573.5,369.2,573.5,367.2z"/>
</svg>
