<?xml version="1.0" encoding="UTF-8"?>
<svg xmlns="http://www.w3.org/2000/svg" version="1.1" viewBox="0 0 595.3 841.9">
  <!-- Generator: Adobe Illustrator 28.6.0, SVG Export Plug-In . SVG Version: 1.2.0 Build 709)  -->
  <g>
    <g id="Layer_1">
      <g>
        <path fill="#FFFFFF" d="M408.5,550.7c-1,.5-1.9.3-2.8.3h-45.2q-3.3,0-4.3-2.9c-2.3-6.8-5.4-13.2-8.7-19.5-4.1-8-8.7-15.7-14.1-23-3.4-4.6-7-9.1-11.3-13-3.1-2.8-5.7-6.1-9.1-8.6-2.1-1.5-4.1-3.1-6.1-4.6-2.5-1.8-5.2-3.5-8-4.8-1.6-.7-3-1.9-4.7-2.7-6.7-3.3-13.8-5.3-21-6.7-7.6-1.5-15.4-1.8-23.1-.4-10.8,1.9-20.4,6.4-29.1,12.8-7.2,5.3-13.6,11.5-19.4,18.3-8.5,10.1-15.8,21.1-22,32.7-2.8,5.3-5.5,10.6-8,16.1-.7,1.7-1.6,3.3-2.3,4.9-.4.9-.9,1.4-1.9,1.3h-44.2c-.8,0-1.7,0-2.5-.2-.3-.7,0-1.3.4-1.9,2-3.1,3.6-6.5,5.4-9.8,1.3-2.5,2.7-5,4.2-7.4.2-.3.4-.6.5-.9,1.8-4.6,5-8.6,7-13.1,1.5-3.4,3.6-6.4,5.1-9.8,1.9-4.3,4.8-8.3,7-12.5.4-.7.8-1.5,1.1-2.2.8-2.3,2.6-4.2,3.6-6.4,1.7-3.7,4-7,5.8-10.6,2.7-5.3,5.7-10.5,8.6-15.8,16-29.4,31.9-58.9,47.8-88.3,13.9-25.6,27.8-51.3,41.7-76.9,1.5-2.8,3-5.6,4.5-8.3.3-.6.5-1.3,1.3-1.4.9-.1,1,.8,1.3,1.3,7.4,13.7,14.8,27.4,22.2,41.1,3.1,5.7,6.2,11.4,9.3,17.1.2.4.4.7.6,1.1,1,2.4,2.2,4.8,3.7,7,1.6,2.4,2.9,5.1,4.3,7.7,2.9,5.3,5.8,10.7,8.7,16,5.8,10.8,11.7,21.6,17.5,32.4,10.9,20.1,21.8,40.3,32.7,60.4,8.8,16.3,17.6,32.5,26.4,48.8,5.4,9.9,10.7,19.8,16.1,29.6.2.9.8,1.6,1,2.8ZM305.4,416.6c0-1.8.2-3.7,0-5.5-.2-1.9-.8-3.7-1.2-5.5-.9-4.6-2.6-8.9-4.7-12.9-2.9-5.4-7-9.9-12.1-13.3-12.6-8.4-25.7-9.5-39.1-2.1-9.6,5.3-15.6,13.7-19.1,23.9-3,8.9-3.4,17.9-1.1,27,2.8,11.1,8.5,20.2,18.4,26.5,7.8,5,16.3,6.7,25.5,5.3,3.9-.6,7.4-2.1,10.9-3.8,2.9-1.4,5.4-3.3,8-5.2,1.7-1.2,2.8-3,4.2-4.5,1.1-1.1,2-2.2,2.7-3.5,1.4-2.5,2.6-5.1,3.9-7.7,1.7-3.5,2.6-7.3,3.5-11.1.4-2.4.4-5,.2-7.6Z"/>
        <path fill="#FFFFFF" d="M-210.7,370.8c6.3-.1,12.5.5,18.6,1.8,5.1,1,10.1,2.4,14.9,4.4,1.3.6,2.5,1.3,3.8,1.9.9.4.9.8.6,1.6-1,3.2-2.1,6.5-3.1,9.7-.7,2.2-1.4,4.4-2.3,6.5-.8,2-.9,1.9-2.8.9-3.8-2.1-7.8-3.5-11.9-4.8-2.8-.8-5.6-1.6-8.4-2.1-2.2-.4-4.5-.7-6.8-.7-4.7-.2-9.5-.2-14.1.9-9,2.1-16.6,6.3-20.9,14.9-2.8,5.6-3.2,11.6-1.7,17.7,1.1,4.4,3.4,8.1,6.7,11.4,4.5,4.5,9.8,7.8,15.6,10.4,3.4,1.6,6.8,3.3,10.4,4.6,4.6,1.6,9,3.6,13.4,5.7,8.6,4.1,16.6,9.1,22.9,16.4,4.7,5.4,7.7,11.7,9.2,18.6,1.3,6.3,2,12.6.8,19-.8,4.5-1.8,9-3.5,13.3s-4.4,8-7.4,11.5c-5.3,6-11.6,10.7-19.1,13.7-3.5,1.4-7,2.5-10.6,3.4-9.8,2.3-19.7,3.1-29.7,1.9s-10-1.4-14.9-2.5c-3.4-.7-6.6-1.9-9.8-2.8-2.3-.6-4.3-1.9-6.5-2.9-.9-.4-1.7-.9-2.7-1.2-1.6-.4-2.2-1.5-1.9-3.2.5-2.9,1.3-5.6,2.3-8.4,1-2.6,1.6-5.3,2.3-8,.4-1.4.8-1.6,2-.9.9.5,1.7,1.1,2.5,1.5,6.4,3.7,13.4,6,20.7,7.6,6.2,1.4,12.5,1.9,18.8,1.7,7.8-.3,15.1-1.9,21.7-6.3,4.3-2.9,7.9-6.4,9.9-11.3,1-2.6,2.1-5.2,2.3-8.1.1-1.4.8-2.8.7-4.4-.3-2.8-.2-5.7-1.2-8.4-.7-2.1-1.8-4-2.7-6-2-4.5-5.5-7.5-9.2-10.2-3.5-2.5-7.4-4.5-11.4-6.3-5.1-2.2-10.2-4.3-15.3-6.4-9.2-3.8-17.9-8.4-25.4-15-4.1-3.6-7.5-7.8-10.1-12.6-6.2-11.7-6.4-23.8-2.3-36.2,1.6-4.7,4.2-8.8,7.2-12.7,2.8-3.6,6.2-6.4,9.9-9,6.9-4.9,14.7-7.5,22.8-9.3,5.2-1.1,10.5-1.3,15.7-1.3Z"/>
        <path fill="#FFFFFF" d="M781.1,532.6c-.2-4.6-.4-9.3-.8-13.9-.4-4.7-.4-9.5-.4-14.2,0-16.7,0-33.3,0-50v-1.2c0-.8.3-1.2,1.1-1.2h10c.7,0,1.1.4,1.1,1.1v95.7q0,2.2-2.1,2.2h-9.2c-1.2,0-1.9-.3-2.6-1.4-8.1-13-16.2-26-24.3-39-4.5-7.2-8.9-14.5-13.4-21.7-3.5-5.6-6.3-11.6-9.3-17.5-.4-.8-.9-1.6-1.5-2.7-.4,1.3-.2,2.3-.2,3.3,0,5.7.5,11.5.6,17.2.2,12.9,0,25.8,0,38.7s0,14.2,0,21.2c0,1.2-.2,1.8-1.6,1.8-3.1,0-6.2,0-9.2,0-1.1,0-1.5-.4-1.4-1.5,0-.7,0-1.5,0-2.2v-92c0-3.8-.5-3.3,3.3-3.3h9c1.3,0,2.1.4,2.8,1.5,7,11.3,14.2,22.6,21.2,33.9,5.2,8.3,10.6,16.5,15.5,25,3.3,5.8,6.4,11.7,9.4,17.6.5.9,1,1.9,1.5,2.8.1,0,.3,0,.4-.2Z"/>
        <path fill="#FFFFFF" d="M610.9,502.2c-.2-6.1.6-12.1,2.3-17.8,3.5-11.9,10-21.9,21.1-28.3,5.9-3.4,12.3-5.2,19-5.7,4.9-.3,9.8,0,14.6,1.1,12.4,3,21.4,10.4,27.3,21.6,2.5,4.9,4.3,10,5,15.5.3,2.2.8,4.4,1,6.6.6,8.7,0,17.3-2.7,25.7-2.1,6.8-5.4,13-10.4,18.2-5.8,6-12.8,9.6-20.7,11.8-7.7,2.2-15.4,2.2-23.1.3-12.9-3.3-21.9-11.3-27.7-23.1-4.2-8.1-5.6-16.9-5.7-25.9ZM687.5,501.2c.2-7.6-1.4-14.7-4.4-21.7s-7.8-12.1-14.4-15.6c-3.8-2-8-3-12.3-2.9-10.2.1-18.2,4.4-24,12.8-3.7,5.3-5.1,11.5-7.3,17.4,0,.3,0,.7,0,1,0,1.6,0,3.2-.3,4.7-.7,5.4-.2,10.8.8,16.1.7,3.9,2.2,7.8,4,11.4,3.2,6.6,7.9,11.6,14.6,14.8,12.4,5.8,26.9,2,34.6-8.2,3.5-4.7,5.6-9.9,7.2-15.4,1.3-4.8,1.8-9.6,1.5-14.4Z"/>
        <path fill="#FFFFFF" d="M-152.6,551c2.9-7.8,5.5-15.3,7.8-22.9,1.6-5.3,3.7-10.3,5.4-15.5,2.6-7.7,5.3-15.3,8-23,2.4-6.8,4.7-13.7,6.9-20.6,1.7-5.2,3.8-10.2,5.3-15.5.3-1,.8-1.5,1.9-1.5,4.2.1,8.3,0,12.5,0s1.4.2,1.8,1.2c1.4,3,2.3,6.1,3.3,9.1,2.1,6.1,3.9,12.3,6.1,18.3,2.3,6.3,4.5,12.6,6.6,18.9,1.2,3.6,2.6,7.1,3.7,10.7s2.2,7.2,3.5,10.7c2.6,7.6,5.3,15.1,8,22.7.8,2.3,1.5,4.7,2.3,7-.8.6-1.6.4-2.3.4h-8.7c-2.5,0-3.3-.8-3.9-3.1-1.4-4.9-2.6-9.8-4.8-14.4-1.1-2.4-1.6-5-2.5-7.5-.6-1.7-1.5-3.2-1.6-5.1,0-.6-.5-1-1.2-1.1h-1.2c-10.2,0-20.5,0-30.7,0-1.4,0-2,.4-2.5,1.7-2.9,9.1-6,18.3-9,27.4q-.7,2.1-2.9,2.1c-3.9,0-7.6,0-11.8,0ZM-96.3,509.7c-4.9-15.3-11.1-29.9-14.5-45.8-.8,1.1-1,2-1.2,3-1.5,6.9-3.7,13.6-6.3,20.3-.6,1.7-1.2,3.4-1.6,5.2-.8,3.4-1.8,6.8-3.2,9.9-1.1,2.4-1.2,5-2.5,7.5,9.8-.1,19.4-.1,29.3-.1Z"/>
        <path fill="#FFFFFF" d="M16.4,501.5v-46.7c0-3.1-.2-2.8,2.8-2.8h49.5c.9-.1,1.4.3,1.4,1.3v8.5c0,.8-.3,1.2-1.2,1.2H31.3c-1.2-.1-1.6.5-1.6,1.6v26.7c0,2.7-.3,2.6,2.5,2.6h34.4c1,0,1.3.4,1.3,1.3,0,2.7,0,5.3,0,8,0,1.3-.6,1.6-1.7,1.5H30.6c-.6,0-.9.4-.9,1v32c0,2.1,0,2.2,2.2,2.2h38.7c1.8,0,1.9,0,1.9,1.8v7.7c0,1-.3,1.6-1.4,1.5H18.7q-2.1,0-2.1-2.2v-42c-.2-1.7-.2-3.5-.2-5.2Z"/>
        <path fill="#FFFFFF" d="M861.5,466.2c-6.5-3.7-13.1-5.1-20.1-4.8-3.2.1-6.3.9-9.1,2.3-6.1,3.1-9,9.9-7.1,16.5.8,2.7,2.3,4.9,4.4,6.7,3,2.5,6.4,4.2,9.9,5.8,4.6,2.1,9.4,3.8,13.8,6.3,3.2,1.8,6.2,3.9,8.8,6.5,4,4.2,6.5,9.1,6.6,14.9,0,4.3.3,8.7-1.2,12.8-3.3,8.9-9.7,14.4-18.7,17.1-8.9,2.6-17.7,2.8-26.6.5-3.5-.9-6.9-2-10.2-3.5-2.3-1-2.8-1.4-1.9-3.7.4-1,.6-2.1,1-3.2.7-1.6,1.3-3.2,1.2-5.2,1.9.3,3.5,1.2,5.1,2,4.8,2.2,9.8,3.7,15,4,2.3,0,4.7.2,7,0,3.5-.5,7-1.5,10-3.5,5-3.3,6.6-8.3,6.5-14.1,0-4.5-2-8.1-5.3-10.9-3.8-3.2-8-5.4-12.7-7.1-7.2-2.6-13.8-6.2-19.4-11.6-8.9-8.5-8.2-22.7-2.8-30.8,4.7-6.9,11.3-10.4,19.2-12,6.5-1.3,13-1.3,19.5.3,2.9.7,5.8,1.3,8.5,2.5,1.9.8,2.2,1.3,1.7,3.2-1,3.2-2.1,6-3.1,9.1Z"/>
        <path fill="#FFFFFF" d="M485.6,465.5c-3.8-1.8-7.8-2.9-11.9-3.4-8.4-1.1-16.8-.9-24.8,2.7-6.9,3.1-12.3,7.8-16,14.5-2.5,4.5-4.1,9.3-4.8,14.2-1.1,7.3-.7,14.6,1.2,21.8,1.7,6.2,4.4,11.8,9.1,16.3,4.2,4.1,9.3,6.7,15,8.2,10.7,2.9,21.2,2,31.6-1.9,1.4-.5,1.5-.5,1.9.9.6,2.4,1.1,4.9,1.7,7.3.3,1.3-.1,1.9-1.3,2.4-3.5,1.4-7.2,2.2-10.8,2.8-5.8,1-11.6,1.5-17.4,1-18.6-1.3-32.7-9.5-40.7-26.8-2.1-4.5-3.1-9.5-3.7-14.5-.9-7.4-.7-14.8.9-22.1,3.1-14.1,10.7-25.1,23.5-32.1,10.5-5.7,21.8-7.4,33.6-6.2,4.5.5,8.9,1.2,13.1,2.6.9.3,1.7.6,2.6,1,.6.3.9.8.7,1.4-1.2,3.4-1.7,6.9-3.5,9.9Z"/>
        <path fill="#FFFFFF" d="M-54.8,501.4v-41.7c0-2.1,0-4.2,0-6.2,0-1.1.4-1.5,1.5-1.4H-3.4q1.9,0,1.9,2v7.2c0,1.7,0,1.8-1.8,1.8h-36.5q-1.9,0-1.9,2v28.7c0,1.7,0,1.8,1.9,1.8H-6.6c2.1,0,2.2,0,2.2,2.2v6.5q0,2.1-2.1,2.1c-3.2,0-6.5-.1-9.7-.1-7.7,0-15.3.1-23,.1s-2.5,0-2.5,2.7v39.2c0,2.9.4,2.7-2.6,2.7h-8.2q-2,0-2-2.1v-26.2c-.3-7.2-.3-14.2-.3-21.3Z"/>
        <path fill="#FFFFFF" d="M540.6,507.2v42.7c0,.7-.3,1-1.1,1h-11c-.7,0-1-.4-1-1.1v-85.9c0-.6-.4-.9-1-.9h-26.7c-2.6,0-2.4.2-2.4-2.5v-7c0-1.2.4-1.7,1.6-1.6h69.7q2.2,0,2.2,2.2v7q0,1.7-1.8,1.8h-25.7c-2.9,0-2.7-.1-2.7,2.7-.1,13.9-.1,27.7-.1,41.6h0Z"/>
        <path fill="#FFFFFF" d="M594.9,501.6v48.2c0,.7-.3,1.1-1,1.1h-11.5c-.6,0-.9-.4-.9-1v-94.2q0-3.8,3.9-3.8h8c1,0,1.6.3,1.5,1.4v48.3h0Z"/>
        <path fill="#FFFFFF" d="M194.4,550.8c.1-1.4.8-2.2,1.3-3.2,4.9-8.8,11.3-16.6,18-24.2,3-3.4,5.8-6.8,9.1-10,1.9-1.8,2.7-1.6,3.7.8,1.4,3.2,1.9,6.6,2.3,9.9,1,8.2,1.6,16.4,1.7,24.6q0,2-1.8,2h-33.2c-.2.3-.5.2-1.1.1Z"/>
        <path fill="#FFFFFF" d="M325.6,550.7c-1.1.4-1.9.3-2.7.3h-25.9c-1.3,0-1.5-.6-1.4-1.7.4-3.2.7-6.4,1-9.7.5-5.9,1-11.8,1.5-17.6.2-2.7,1-3.3,3.6-3.1,1.2,0,2.2.7,3.2,1.3,2.2,1.3,3.9,3.1,5.5,5,6.3,7.6,10.9,16.4,15.2,25.5Z"/>
      </g>
    </g>
  </g>
</svg>