<?xml version="1.0" encoding="UTF-8"?>
<svg xmlns="http://www.w3.org/2000/svg" version="1.1" xmlns:xlink="http://www.w3.org/1999/xlink" viewBox="0 0 708.7 1133.9">
  <defs>
    <style>
      .cls-1 {
        isolation: isolate;
      }
    </style>
  </defs>
  <!-- Generator: Adobe Illustrator 28.6.0, SVG Export Plug-In . SVG Version: 1.2.0 Build 709)  -->
  <g>
    <g id="Layer_1">
      <image class="cls-1" width="600" height="154" transform="translate(29 705.4)" xlink:href="Stirling Electro Plating-1.png"/>
      <g>
        <path fill="#FFFFFF" d="M181.8,531.8c-26-.4-51.3-4.4-75.4-14.4-14.1-5.8-27-13.6-37.2-25.2-7-8-11.4-17.2-11.8-27.8-.3-8.2,2.2-16,6.7-23,5.9-9.3,14.1-16.2,23.2-22.1,16.5-10.5,34.8-16.4,53.8-20.1,14.9-2.9,29.9-4.3,45.1-3.9,25.8.8,50.9,4.9,74.6,15.5,13.9,6.2,26.7,14.2,36.1,26.5,13.8,18,12.3,38-2.2,54.8-10,11.6-22.8,19.2-36.7,25-18.4,7.6-37.5,12.1-57.4,13.3-6.3.4-12.6.8-18.9,1.2h0ZM180.1,527.6c.1.3.2.5.4.8,4.9-.4,9.9-.6,14.9-1.3,8.6-1.3,16.8-3.3,24.6-7.5,15.4-8.4,16.3-27.2,5.6-37.9-3.2-3.3-6.8-6.4-10.7-8.8-6.3-4-13.1-7.2-19.5-11-6.4-3.7-13.1-7.3-19.1-11.7-17.5-13-14.5-36.7,1.4-47.1,2.6-1.7,5.5-3,9.2-5-5.3.5-9.6.8-13.9,1.3-9.8,1-19.3,3.1-28,8-13,7.3-16.6,22.8-7.9,34.9,3.8,5.3,8.7,9.1,14.2,12.3,7.9,4.6,16.1,8.5,24,13.3,5.8,3.5,11.4,7.4,16.6,11.7,14.2,11.9,10.7,36.5-6.4,45.4-1.7.9-3.5,1.8-5.2,2.7h0Z"/>
        <path fill="#FFFFFF" d="M354.3,438.6c0-3.1,0-6.3-.1-9.5h34.7c0,3.1-.1,6.2-.2,9.3-.4-.8-.9-1.8-1.7-3.1-1.1-1.7-1.6-2.5-2.6-3.1-.5-.3-1.8-1-3.8-.8h-4.6v34.1c0,.2.2.6.5,1,.7.8,1.7.8,3.1,1.1.6.1,1.5.4,2.5.9-7.1,0-14.1,0-21.2,0,1.7-.8,3-1.1,4-1.3.5,0,1.1-.1,1.6-.6.5-.5.5-1.3.5-1.8v-33.4c-1.8,0-3.6,0-5.4,0-1.1.1-2,.5-2.5.9-.5.3-1.2.9-3.1,3.8-.7,1-1.2,1.9-1.5,2.5h0Z"/>
        <path fill="#FFFFFF" d="M344.6,429.9c0,3.1-.1,6.3-.2,9.5-.6-1.7-1.8-3.8-3.8-5.6-.6-.6-4.9-4.3-9.8-3.2-.9.2-3,.7-4,2.5-1.6,2.7.7,6.2.9,6.5,1.5,2.2,3.5,2.9,5.7,3.9,5.6,2.5,10.7,4.8,12.7,8.8,1.9,3.8.9,8.9-1.6,12.3-2.5,3.3-6,4.3-7.5,4.7-6.8,1.8-12.5-1.8-13.7-2.5-1.1,1.2-2.2,2.4-3.2,3.6,0-4.4.2-8.9.3-13.3.5,1,1.3,2.5,2.5,4.1,1.6,2.2,3.3,4.5,6.1,5.8.7.4,5.7,2.7,9.3,0,.2-.2,2.4-1.8,2.6-4.4.3-3.2-2.2-5.5-3.2-6.5-2.7-2.6-4.5-2.2-8.2-4-1.5-.8-8.9-4.5-9.7-11-.4-3.2.8-6.8,3.2-9.1,1.8-1.7,3.7-2.3,5.2-2.7,4.4-1.3,8.1-.2,9.2,0,2.5.8,4.2,2,5.4,3,.6-.7,1.2-1.5,1.9-2.2h0Z"/>
        <path fill="#FFFFFF" d="M408.9,464.6h0s-.1-14.6-.1-14.7c1.1,0,2.1.2,3.2.3.8.3,2.5.9,4,2.5,2.1,2.3,2.3,5,2.3,5.7v-20c0,1.1,0,4.7-2.7,7.5-.9,1-1.9,1.6-2.7,2-1.4,0-2.7,0-4.1-.1,0-5.5,0-11,.1-16.5,3.4,0,6.7.2,10.1.3,1,.2,2.6.7,4.1,1.9,3.5,2.9,3.5,7.4,3.5,8,0-4,.2-8.1.3-12.1-10.9,0-21.8.2-32.7.3.6,0,2.4.1,4,1.4.7.6,1.1,1.2,1.4,1.7,0,10.9,0,21.8.1,32.7-.2.5-.5,1.1-1.1,1.7-1.5,1.4-3.5,1.3-4,1.3h32.9c.5-1.1,1-2.6,1.3-4.5.4-2.4.2-4.4,0-5.8-.4,1.1-1.2,2.7-2.5,4.2-1.8,2.2-3.8,3.5-5.1,4.1h-11.1c-.4-.6-.8-1.3-1.1-1.9h0Z"/>
        <path fill="#FFFFFF" d="M436.2,429.5h-1.1s.5,0,1.1,0Z"/>
        <path fill="#FFFFFF" d="M437,468.3c-1,.1-1.8,0-1.8,0,0,0,.5,0,1.8,0Z"/>
        <path fill="#FFFFFF" d="M464.8,468.5c4.3,0,8.7-.2,13-.3-1.1-.7-2.3-1.4-3.4-2-2-2.3-4.1-5-6.1-8-2-3-3.7-5.8-5.1-8.4,1.2-.2,3.9-.7,6-2.9,3.4-3.6,3.3-9.8.4-13.7-1.9-2.6-4.7-3.5-5.9-3.8-16.8,0-24.6.1-27.4.1,1,0,2.5.4,3.5,1.4.5.5.8,1,1,1.5v32.9c-.1.4-.3,1-.8,1.5-.8.9-2,1.3-3,1.4,2.5,0,7.9,0,18.2,0-1-.1-2-.3-3-.5-.2,0-.7-.2-1.1-.6-.6-.5-.7-1.2-.8-1.4,0-5.2-.2-10.4-.3-15.6.9.1,1.8.3,2.7.4,4,6,8,11.9,12,17.9h0ZM450,448.9c0-5.8,0-11.5.1-17.2,5.2-.8,9.8.6,11.2,3.5.9,1.7.7,4,.6,5.4,0,1.2-.2,3.4-1.2,5-1.7,2.9-6.1,4.1-10.8,3.4h0Z"/>
        <path fill="#FFFFFF" d="M480.6,429.6s3.8,0,3.8,0c.3,0,16.1.1,16.3.1-.2,0-3.2-.4-4.7,1.7-.5.7-.7,1.4-.8,1.9-.2,10.5-.3,21-.5,31.5,0,0,.1,1.2,1.1,1.8.8.4,1.5.2,1.7.1,3.5,0,7.1,0,10.6-.1.9-.6,1.9-1.4,2.8-2.4,3.1-3.3,4.3-7.1,4.7-9.3l-.5,13.4c-11.6.1-23.1.3-34.7.4.5,0,2.4-.3,4-1.9,1.7-1.8,1.7-3.9,1.7-4.3,0-9.5-.2-19-.3-28.5,0-.4,0-1.5-.6-2.4,0-.1-.4-.5-.9-.9-1.3-1-2.9-1-3.7-1h0Z"/>
        <path fill="#FFFFFF" d="M520.8,430.2c0-.2,4.2,0,4.2,0,8.2.4,16-.2,16,0,0,.1-3.2-.1-4.3,1.7-.5.8-.5,1.7-.4,2.4,0,10.5-.2,21-.3,31.5.5.4,1.2.8,2,1.1,1.6.7,3,.9,4.1,1-7.1.2-14.2.3-21.3.5.5,0,1.1,0,1.9,0,1.4-.2,2.9-.4,3.7-1.5.7-1.1.4-2.5.3-2.9v-29.5c.2-.9.3-2-.3-2.8-1.3-2-5.6-1.5-5.6-1.5h0Z"/>
        <path fill="#FFFFFF" d="M545.6,429.3c5,0,10,0,15.1.1,6,7.9,12,15.7,18,23.6.2-6.8.3-13.5.5-20.3-.4-.5-1.1-1-1.9-1.5-1.5-.9-2.9-1.1-3.7-1.1h11.8c-.7.4-1.3.9-2,1.5-.6.5-1.2,1-1.7,1.5v36.4c-.5,0-1.1,0-1.7-.1-8.6-11-17.3-22-25.9-32.9,0,9.2-.2,18.5-.3,27.7.2.5.5,1,.9,1.5,1.6,2,4,2.5,4.8,2.7-4.7,0-9.4,0-14-.1.5,0,2.5.3,4.3-1,1.2-.8,1.7-1.9,1.9-2.4,0-10.5,0-20.9-.1-31.4-.9-.9-1.9-1.7-2.8-2.5-1.1-.5-2.1-1-3.2-1.5h0Z"/>
        <path fill="#FFFFFF" d="M630.6,428.3v14c-.5-1.4-2.1-5.9-6.8-8.9-1.1-.7-6.2-4-11.7-2.2-5.4,1.8-7.6,7.2-8.8,10.2-.2.6-4.8,12.5,1.8,20.7.8,1,3.2,3.7,7.2,5,1.5.5,4.2,1.4,7.3.3,1.1-.4,1.9-1,2.4-1.4v-10c0-.4-.5-1.8-1.9-2.7-1.9-1.2-3.9-.7-4.2-.6h18.6c-.5.2-1.4.7-2.2,1.5-.6.7-1,1.3-1.2,1.8,0,3.4-.2,6.7-.3,10.1-.7.4-1.8,1-3.1,1.5-3.2,1.3-6,1.6-8.7,1.8-6.2.4-9.3.6-11.5.1-5.6-1.2-12-5.7-14.7-12.8-3.6-9.7,1.5-20.4,8.7-25.1,5-3.3,10.5-3.3,13-3.3,6.2,0,10.9,2,13.3,3.2.9-1.1,1.8-2.1,2.7-3.2h0Z"/>
        <path fill="#FFFFFF" d="M629,485.1c-1.6,0-3.2.2-4.8.3-.2-.6-.8-2.6-2.5-3.5-2.6-1.3-5.7.7-7.2,2.2-2.9,3-3.9,9-.5,12.1,2.5,2.4,6.5,2.3,9.1,1.1.7-.3,1.3-.7,1.7-1,0-1.4,0-2.7.1-4.1-1.9,0-3.7,0-5.6.1,0-1.2,0-2.4-.1-3.6,3.5,0,7.1,0,10.6-.1,0,3.1.2,6.1.3,9.2-1.2,1-3,2.3-5.5,2.9-5,1.4-13.6.5-16.3-6.3-2.7-6.5,1.8-14.1,7.7-16.1,2.9-1,7.6-1.1,10.7,1.9,1.7,1.6,2.3,3.6,2.5,4.7h0Z"/>
        <path fill="#FFFFFF" d="M598.3,478.8c1.6,0,3.2,0,4.7-.1v22.7c-1.7,0-3.4,0-5.2.1-2.9-5-5.9-10-8.8-14.9.2,4.9.3,9.7.5,14.5-1.6,0-3.2,0-4.7.1,0-7.5,0-14.9.1-22.3,1.7,0,3.3-.2,5-.3,2.9,5,5.9,10,8.8,14.9-.1-4.9-.3-9.9-.4-14.8h0Z"/>
        <path fill="#FFFFFF" d="M575.1,478.4c1.6,0,3.2.2,4.8.3,0,7.7.2,15.3.3,23-1.8,0-3.6-.2-5.4-.3,0-7.7.2-15.3.3-23h0Z"/>
        <path fill="#FFFFFF" d="M552.9,478.2c6.3,0,12.7.2,19,.3,0,1.4,0,2.7-.1,4.1-2.4,0-4.8,0-7.2-.1,0,6.3,0,12.6.1,18.9-1.6,0-3.2,0-4.8.1,0-6.3,0-12.6.1-18.9h-7.5c.1-1.5.3-2.9.4-4.3h0Z"/>
        <path fill="#FFFFFF" d="M545.3,478.6c-1.8-.1-3.7-.2-5.5-.4-3.1,7.7-6.2,15.5-9.3,23.2,1.5,0,3.1-.2,4.6-.2.8-2,1.7-3.9,2.6-5.9,2.8,0,5.7,0,8.5.1.9,1.9,1.8,3.8,2.7,5.8,1.5,0,3.1,0,4.6-.1-2.7-7.5-5.4-15-8.2-22.5h0ZM539.1,492c1.1-2.6,2.1-5.2,3.2-7.8,1.1,2.6,2.1,5.2,3.2,7.8h-6.4Z"/>
        <path fill="#FFFFFF" d="M512.9,478.4h4.8c0,6.4.2,12.9.3,19.3,3.8,0,7.7,0,11.5-.1,0,1.2,0,2.4.1,3.6-5.5,0-11.1.2-16.6.3,0-7.7,0-15.3-.1-23Z"/>
        <path fill="#FFFFFF" d="M508.5,483.5c-.8-3.2-3.7-4.8-4.2-5.1-4.4,0-8.8,0-13.1-.1,0,7.7,0,15.4-.1,23.1,1.6,0,3.2,0,4.9-.1,0-2.8,0-5.5-.1-8.3h7.8c3.8-2,5.8-6,5-9.5h0ZM502.2,489.5h-6.6c0-2.3,0-4.6-.1-6.9h7c.2.2,1.5,1.2,1.7,2.9.1,1.5-.6,3-1.9,4h0Z"/>
        <path fill="#FFFFFF" d="M475.8,483c-3-4.8-8.6-5.3-9.3-5.4-1.1,0-3.1-.2-5.4.8-4.7,2.1-7,7.7-6.6,12.4,0,1,.4,5.4,4,8.4,2.9,2.5,6.3,2.5,7.5,2.5,1.4,0,5.6.1,8.7-3.1,2.7-2.8,2.8-6.4,2.8-8.4,0-1.7.1-4.5-1.7-7.3h0ZM471.4,495.9c-.3.3-2.6,2.7-5.9,2.2-2.4-.4-3.8-2.2-4.2-2.8-2.1-2.8-1.6-6-1.4-6.9.1-.6,1-5.2,4.7-6.2,2.6-.7,4.9.9,5.4,1.1,3,2.1,3.3,5.8,3.3,6.5,0,1,.2,3.9-1.9,6.1h0Z"/>
        <path fill="#FFFFFF" d="M445.3,491.9c.8,0,2.1-.2,3.3-1,2.9-2.1,3.5-7.3,1.1-10.2-1-1.3-2.3-1.8-3.1-2-5,0-10,0-14.9-.1,0,7.7,0,15.4.1,23.1,1.6,0,3.2-.2,4.9-.2,0-3.2,0-6.4.1-9.6h3.7c2.2,3.2,4.4,6.4,6.6,9.6h5.5c-2.5-3.1-4.9-6.3-7.4-9.5h0ZM437,488.5v-5.9c2.5,0,5-.2,7.5-.3.3.2,1.1.9,1.4,1.9.4,1.4-.1,2.9-1.3,4-2.5,0-5.1.2-7.7.2Z"/>
        <path fill="#FFFFFF" d="M410,478.1c6.2.2,12.4.3,18.6.5,0,1.3.2,2.5.3,3.8h-6.8c-.2,6.3-.3,12.6-.5,18.9-1.5,0-3.1,0-4.6-.1,0-6.3,0-12.5.1-18.8-2.3,0-4.7,0-7,.1,0-1.5,0-3-.1-4.5h0Z"/>
        <path fill="#FFFFFF" d="M406.3,485.4c-1.5,0-2.9,0-4.3.1-.4-.8-1.5-3.4-3.6-3.7-2.9-.4-5.5,3.9-6.3,7.1-.3,1.1-1.4,5.8,1.5,8,2.7,2,7.5,1.1,8.7-1.4.2-.5.5-1.3.1-2.5h4c.1.9.3,2.6-.5,4.2-1.6,3.5-5.9,4.5-8.7,4.5-5.8-.2-8.9-5.4-9.1-5.6-3.1-5.4-1.1-12.8,3.6-16.1.7-.5,4.6-3.2,8.9-1.5,4.4,1.7,5.5,6.5,5.6,6.9h0Z"/>
        <path fill="#FFFFFF" d="M382.7,478.5c0,1.4,0,2.7,0,4-3.9,0-7.8,0-11.7,0,0,1.6,0,3.3,0,5,3.6,0,7.3,0,10.9,0,0,1.3,0,2.7,0,4-3.7,0-7.3,0-11,0v6c4,0,8,0,12,0,0,1.3,0,2.7,0,4-5.6,0-11.3,0-17,0,0-7.7,0-15.3,0-23,5.6,0,11.1,0,16.7,0h0Z"/>
        <path fill="#FFFFFF" d="M346,478.4c1.6,0,3.3,0,4.9,0,0,6.3,0,12.7.1,19,3.7,0,7.3,0,11,0v4.2c-5.4,0-10.7,0-16,0,0-7.7,0-15.4,0-23.1h0Z"/>
        <path fill="#FFFFFF" d="M340.3,478.7c0,1.4,0,2.7,0,4-3.9,0-7.8,0-11.7,0,0,1.6,0,3.3,0,5,3.6,0,7.3,0,10.9,0,0,1.3,0,2.7,0,4-3.7,0-7.3,0-11,0v6c4,0,8,0,12,0,0,1.3,0,2.7,0,4-5.6,0-11.3,0-17,0,0-7.7,0-15.3,0-23,5.6,0,11.1,0,16.7,0h0Z"/>
      </g>
    </g>
  </g>
</svg>