<?xml version="1.0" encoding="utf-8"?>
<!-- Generator: Adobe Illustrator 26.5.0, SVG Export Plug-In . SVG Version: 6.00 Build 0)  -->
<svg version="1.1" id="Layer_1" xmlns="http://www.w3.org/2000/svg" xmlns:xlink="http://www.w3.org/1999/xlink" fill="#FFFFFF" x="0px" y="0px"
	 viewBox="0 0 680.31 212.83" style="enable-background:new 0 0 680.31 212.83;" xml:space="preserve">
<path d="M664.59,172.29c0,0,0,0.01,0,0.03c0,0.04,0,0.09,0,0.16 M664.59,172.32c0,0.04,0,0.11-0.01,0.22"/>
<path d="M628.79,126.46l-16.7-0.08v22.41h16.28c0,0,9.65,0.34,9.65-11.08C638.02,126.29,628.79,126.46,628.79,126.46z M621.33,143.5
	h-6.55v-7.39C622.33,136.11,621.33,143.5,621.33,143.5z"/>
<path d="M667.05,170.87c-2.19,0-2.44,1.28-2.47,1.61c0,0.02,0,0.04-0.01,0.06c-0.03,0.67-0.24,2.47-1.22,1.99
	c0-4.91,0.38-9.28-0.41-12.07c-2.02-7.1-6.55-8.44-6.55-8.44c14.68-8.3,13.09-21.33,13.09-21.33c0-21.65-28.13-23.27-28.13-23.27
	h-62.94c0,0-0.44-1.57,1.14-4.78c1.57-3.2,2.21-8.37,2.21-8.37c4.77-19.13,16.86-41.29,16.86-41.29
	c-10.19,4.66-28.57,3.66-49.71,2.01c-21.15-1.63-51.36-15.17-64.89-22.47c-13.52-7.3-26.18-9.31-26.18-9.31
	c-19.44-1.82-20.01,6.74-20.01,6.74s-0.89,7.8-1.07,11.58c-0.19,3.78-3.57,2.48-3.57,2.48l-97.84-31.39c0,0,4.44-2.94,2.35-9.57
	c-2.09-6.64-12.16-5.62-18.96-3.27c-6.8,2.35-12.93,6.46-11.33,12.92c1.59,6.46,10.91,6.72,10.91,6.72s17.37,74.6,18.13,78.72
	c0.76,4.11,0,5.45,0,5.45h-3.52l-3.02,3.36c-4.78-2.38-25.06-11.77-52.44,3.16c-22.58,12.32-28.79,37.12-28.79,37.12
	c-3.02-1.85-6.71-2.36-10.07-1.85c-3.23,0.49-6.88,3.6-9.14,5.79c-2.27,2.19-4.7,2.42-4.7,2.42s1.51-24.01-13.93-37.43
	s-41.21-19.02-68.39-9.8c-27.19,9.23-34.7,36-34.7,36l-1.63-0.02v-39.82H85c-0.44,3.08-2.2,3.63-2.2,3.63S57.25,96,29.81,111
	c-31.72,19.25-29.79,49.97-29.79,49.97c0,34.24,32.56,50.6,56.72,50.6c13.09,0,20.98-6.21,21.48-7.3c0.85-1.83,1.93-0.58,1.93-0.58
	c4.04,5.7,3.14,8.14,3.14,8.14h7.22l18-15.94v-16.03c0-2.35,1.34-0.33,1.34-0.33c2.44,8.64,17.04,32.56,49.71,32.56
	s55.43-30.96,56.85-33.06c1.43-2.1,2.94-0.5,2.94-0.5c12.25,11.49,22.91,3.43,25.6,0.66c2.68-2.77,3.27,0,3.27,0
	c2.18,7.39,9.15,15.34,17.53,22.75c7.22,6.37,16.87,10.15,33.85,10.15c16.99,0,27.99-8.56,27.99-8.56c2.58,0.8,2.31,4.45,2.31,4.45
	v3.6h6.63l7.93-5.54c2.14-1.72,2.08-0.42,2.08-0.42v5.96h271.94c3.14-5.21,8.93-7.38,8.93-7.38s4.2,8.64,25.49,8.64
	c26.16,0,27.38-25.76,27.38-25.76v-16.2H667.05z M116.28,160.95h-7.93c-3.15,0-3.27,2.9-3.27,2.9v31.34H92.49
	c-2.01-4.2-2.9-6.29-2.9-6.29c-11.98,10.63-33.84,11.74-50.73,4.28c-14.51-6.41-25.06-19.24-25.93-36.63
	c-0.88-32.98,18.96-46.82,41.62-49.47s30.25,8.06,30.25,8.06c0.88-0.76,1.64-5.41,1.64-5.41h15.99v33.99H86.83
	c-0.88-24.38-21.27-25.22-21.27-25.22c-26.31-0.76-27.44,42.96-14.1,58.07c14.61,16.54,25.87,2.9,25.87,2.9v-14.79
	c0-3.71-4.09-4.09-4.09-4.09H64.8v-11.33h51.48V160.95z M63.54,144.59L51.09,157.3v6.41c-4.66,0-4.03-19.51-4.03-19.51
	s1.13-20.14,14.34-20.14c15.49,0,12.08,20.51,12.08,20.51H63.54z M61.53,179.07c0,0-10.44-4.65-5.79-6.8h6.04l2.52,3.27
	C64.3,175.55,65.56,180.59,61.53,179.07z M170.6,197.49c-27.84,0-50.41-16.99-50.41-44.87c0-29.14,21.15-44.87,50.41-44.87
	c27.84,0,50.41,15.61,50.41,44.87C221.01,181.63,198.44,197.49,170.6,197.49z M241.02,172.15c-6.05,0-10.95-4.9-10.95-10.95
	c0-6.05,4.9-10.95,10.95-10.95c6.05,0,10.95,4.9,10.95,10.95C251.97,167.25,247.07,172.15,241.02,172.15z M523.65,53.54
	c0,0,12.42,5.38,31.05,6.21l-8.56,25.51c0,0-22.83-4.69-29.88-6.37L523.65,53.54z M466.08,32.06c14.77,2.69,25.51,11.08,25.51,11.08
	c-1.84,12.42-8.56,26.68-8.56,26.68c-16.78-4.53-25.51-11.41-25.51-11.41L466.08,32.06z M513.08,81.73l-7.55,24.67
	c-9.74,2.52-29.71-7.38-29.71-7.38l8.89-26.68L513.08,81.73z M439.14,44.31c0.33-3.19,0.93-7.22,0.93-7.22
	c1.17,2.01,1.84,3.02,7.88,8.56c6.04,5.54,4.86,9.9,4.86,9.9s-9.14-3.69-11.99-5.03C437.97,49.18,438.81,47.49,439.14,44.31z
	 M436.38,105.57l0.17-18.96c-0.17-1.85,3.02-2.52,4.03-1.35c1.01,1.18,6.2,0.85,6.2,0.85c0.34,1.84-0.16,4.03-2.18,10.57
	c-2.01,6.55-2.52,11.08-2.52,11.08s-1.68,0.16-4.03,0.16C435.7,107.91,436.38,105.57,436.38,105.57z M435.2,52.87l-0.5,29.71
	c-25.68-7.05-25.84-10.07-25.84-10.07l-2.69-29.54L435.2,52.87z M405.83,75.36v30.21c0,0-21.32-5.21-30.21-12.76l-1.85-29.36
	L405.83,75.36z M374.11,107.08l-10.92-0.17l-10.11,8.77l-0.46-10.28l-5.03,0.17l-4.03-21.65l29.37,10.74
	C374.78,99.52,374.11,107.08,374.11,107.08z M360.47,146.1h-3.65v-3.66C360.85,142.44,360.47,146.1,360.47,146.1z M333.66,19.3
	l35.58,12.43l1.68,27.19c0,0-26.86-7.72-33.73-12.93L333.66,19.3z M352.8,163.84v31.34h-12.59c-2.01-4.2-2.9-6.29-2.9-6.29
	c-11.98,10.63-33.84,11.74-50.73,4.28c-14.51-6.41-25.06-19.24-25.93-36.63c-0.88-32.98,18.8-46.32,41.45-48.96
	c22.66-2.64,30.42,7.55,30.42,7.55c0.88-0.76,1.64-5.41,1.64-5.41h15.99v33.99h-15.61c-0.88-24.38-21.27-25.22-21.27-25.22
	c-26.31-0.76-27.44,42.96-14.1,58.07c14.61,16.54,25.87,2.9,25.87,2.9v-14.79c0-3.71-4.09-4.09-4.09-4.09h-8.43v-11.33H364v11.71
	h-7.93C352.92,160.95,352.8,163.84,352.8,163.84z M311.26,145.22l-12.46,12.71v6.42c-4.66,0-4.03-19.52-4.03-19.52
	s1.13-20.14,14.34-20.14c15.49,0,12.08,20.52,12.08,20.52H311.26z M309.24,179.7c0,0-10.44-4.65-5.79-6.79h6.04l2.52,3.26
	C312.01,176.17,313.27,181.21,309.24,179.7z M361.36,179.33h-2.52l-2.27,2.27c0,0-1.26,1.63-1.26-1.01v-11.96
	c0-2.64,6.04-8.8,6.04-3.02V179.33z M457.02,196.84h-94.15v-12.59h10.24c0,0,4.7,0.34,4.7-4.03V128.7c0,0,0.34-4.36-4.36-4.36
	c-4.7,0-10.24-0.08-10.24-0.08l0-11.64h94.15v33.88h-14.77v-6.88c0,0,0.84-14.43-14.43-14.43h-23.16v22.83h6.88
	c0,0,7.72,0.5,7.72-7.72v-5.37h12.42v38.1h-12.42v-5.87c0,0,0.92-8.06-8.06-8.06h-7.22v25.85h21.99c0,0,16.11,0.67,16.11-15.78
	v-7.22h14.6V196.84z M434.74,174.93c-1.13,3.52-3.15,4.65-6.04,4.65c-2.9,0,4.9-5.79,4.9-5.79S435.62,172.15,434.74,174.93z
	 M407.56,143.08v-9.19h5.03C412.59,133.88,412.96,143.08,407.56,143.08z M411.32,179.96h-4.27v-6.04
	C411.7,173.92,411.32,179.96,411.32,179.96z M458.15,158.18h-9.81c0-3.15,2.13-3.27,2.13-3.27h5.66
	C458.65,154.91,458.15,158.18,458.15,158.18z M444.93,108.08c0,0,0.67-5.87,1.84-8.73c1.18-2.85,1.85-8.06,1.85-8.06
	s0-1.84,2.18-0.33c0,0,12.25,8.06,19.81,9.57c0,0,3.02,0,2.19,4.36c-0.85,4.37-5.54,20.31-5.54,20.31s-1.01,3.35-3.87,2.01
	l-2.85-1.34v-17.79H444.93z M474.02,133.14l-12.35,32.22c-0.12-17.5,5.67-35.38,5.67-35.38L474.02,133.14z M512.02,183.35
	c-0.88,1.38-4.9,6.29-4.9,6.29s-1.88,1.76-1.88-1.39c0-3.14,0.12-7.05,0.12-7.05h-9.69c0,0-1.39,0-1.39-1.51
	c0-1.51,1.26-1.51,1.26-1.51l15.86-0.12c0,0,3.14,0.62,3.14,3.78C514.54,181.84,512.91,181.97,512.02,183.35z M565.94,196.78h-52.11
	v-11.83h9.06c4.78,0,2.18-5.54,2.18-5.54l-3.61-9.9h-27.02c0,0-1.43,3.78-3.02,9.31s3.19,5.79,3.19,5.79h8.81v12.17h-42.71V184.7
	h7.05c4.95,0,6.55-5.12,6.55-5.12l23.66-66.88h31.64c0,0,21.06,62.18,23.24,67.55c2.18,5.37,5.54,4.87,5.54,4.87h7.55V196.78z
	 M560.23,155.91c-1.01,2.69-4.33,17.37-4.33,17.37l-7.25-18.38C545.13,147.02,560.23,155.91,560.23,155.91z M567.61,181.26
	c0,0-6.37,2.01-9.9-1.01c0,0,5.21-26.52,9.9-35.59V181.26z M557.04,118.83c-12.59-5.71-19.13-4.53-19.13-4.53l8.06-24.84
	c13.09,4.2,32.9,2.01,32.9,2.01c-0.17,3.86-2.01,8.73-3.19,11.08c-1.17,2.35-1.34,6.37-1.34,6.37h-6.72L557.04,118.83z
	 M657.07,198.63c-19.97,0-23.83-11.33-23.83-19.22V163.3c0,0,0.25-4.36-4.7-4.36h-16.87v21.48c0,0-0.08,4.36,4.03,4.36h11.66v11.92
	h-57.4v-12.08h11.08c0,0,3.44,0.17,3.44-3.36v-51.02c0,0,0.67-4.95-3.61-4.95c-4.28,0-11.08,0.17-11.08,0.17l-0.06-12.84l62.72-0.03
	c0,0,33.01-1.48,33.01,20.42c0,18.63-20.31,20.39-20.31,20.39s14.94,1.18,14.94,13.59v15.61c0,0,0.25,3.61,3.94,3.61
	s3.52-3.61,3.52-3.61v-9.23h9.15v11.66C676.71,185.03,677.04,198.63,657.07,198.63z M618.47,182.43c-4.36,0-4.53-4.53-4.53-4.53
	l0.17-10.23c3.02-2.69,4.7,4.19,4.7,4.19v7.39C621.16,183.1,618.47,182.43,618.47,182.43z"/>
<path d="M499.56,158.1h18.46l-9.15-26.1L499.56,158.1z M502.86,154.66l1.59-4.44l1.56,4.44H502.86z"/>
<path d="M170.97,119.79c-14.16,0-18.94,11.71-18.94,31.85c0,22.15,6.29,31.85,18.94,31.85c13.03,0,18.94-10.57,18.94-31.85
	C189.92,134.05,184,119.79,170.97,119.79z M165.12,179.25c-6.08,0-11.24-10.16-11.24-23.94c0-15.14,2.84-23.95,11.24-23.95
	c7.73,0,10.45,10.74,10.45,23.97C175.57,171.32,172.85,179.25,165.12,179.25z"/>
</svg>
